<?xml version="1.0" encoding="UTF-8" standalone="no"?>
<!-- Created with Inkscape (http://www.inkscape.org/) -->

<svg
   width="512"
   height="512"
   viewBox="0 0 135.46667 135.46667"
   version="1.1"
   id="svg5"
   inkscape:version="1.2.2 (b0a8486541, 2022-12-01)"
   sodipodi:docname="favicon.svg"
   inkscape:export-filename="favicon.png"
   inkscape:export-xdpi="24"
   inkscape:export-ydpi="24"
   xmlns:inkscape="http://www.inkscape.org/namespaces/inkscape"
   xmlns:sodipodi="http://sodipodi.sourceforge.net/DTD/sodipodi-0.dtd"
   xmlns="http://www.w3.org/2000/svg"
   xmlns:svg="http://www.w3.org/2000/svg">
  <sodipodi:namedview
     id="namedview7"
     pagecolor="#ffffff"
     bordercolor="#000000"
     borderopacity="0.25"
     inkscape:showpageshadow="2"
     inkscape:pageopacity="0"
     inkscape:pagecheckerboard="0"
     inkscape:deskcolor="#d1d1d1"
     inkscape:document-units="px"
     showgrid="false"
     inkscape:zoom="0.93103384"
     inkscape:cx="264.2224"
     inkscape:cy="377.5373"
     inkscape:window-width="1920"
     inkscape:window-height="1006"
     inkscape:window-x="0"
     inkscape:window-y="34"
     inkscape:window-maximized="1"
     inkscape:current-layer="layer1" />
  <defs
     id="defs2" />
  <g
     inkscape:label="Camada 1"
     inkscape:groupmode="layer"
     id="layer1">
    <path
       id="rect292"
       style="fill:#d40000;stroke-width:0.0844327;stop-color:#000000"
       d="M -2.4023439e-6,-1.0031738e-5 H 135.46667 V 135.46668 H -2.4023439e-6 Z" />
    <path
       d="m 67.889994,127.26459 c -1.775495,0 -4.647615,-0.93997 -8.616362,-2.81991 -3.864313,-1.87994 -8.198602,-4.43873 -13.002877,-7.6764 -4.804278,-3.23767 -9.451893,-6.78864 -13.942846,-10.65295 C 25.434814,100.05776 20.578317,94.679053 17.758417,89.979221 V 8.2020838 H 117.70825 V 89.979221 c -1.87993,2.924338 -4.75205,6.31866 -8.61637,10.182979 -3.75986,3.8643 -7.98971,7.6764 -12.689548,11.43626 -4.699838,3.65543 -9.295232,6.78866 -13.786185,9.39968 -7.10197,4.17763 -12.010688,6.26645 -14.726153,6.26645 z m -0.15665,-16.44943 c 1.044405,0 2.663238,-0.57443 4.856498,-1.72327 2.19326,-1.25329 4.647615,-2.87213 7.36308,-4.8565 2.8199,-2.08882 5.6398,-4.334291 8.4597,-6.736429 2.819907,-2.402139 5.378703,-4.752058 7.676392,-7.049755 2.297701,-2.402139 4.073206,-4.490949 5.326486,-6.266445 v -60.9412 H 34.051183 v 60.9412 c 1.253289,1.87993 3.028781,4.020966 5.326474,6.423108 2.297702,2.297709 4.856497,4.647609 7.676405,7.049758 2.924342,2.29769 5.744243,4.490943 8.4597,6.579763 2.8199,1.98437 5.326475,3.60321 7.519735,4.8565 2.19326,1.14884 3.75987,1.72327 4.699835,1.72327 z"
       id="path1022"
       sodipodi:nodetypes="scsccccccccssccscccccccccs"
       style="font-style:italic;font-weight:bold;font-size:192.779px;font-family:Andika;-inkscape-font-specification:'Andika, Bold Italic';fill:#ffffff;stroke-width:0.815945" />
    <g
       id="g453"
       transform="translate(380.52014,19.757391)">
      <g
         aria-label="6"
         id="text237"
         style="font-weight:900;font-size:75.8707px;font-family:'Source Code Pro';-inkscape-font-specification:'Source Code Pro, Heavy';fill:#ffffff;stroke-width:2.84515;stop-color:#000000">
        <path
           d="m -311.72463,45.57165 c 3.33831,0 5.91792,1.517414 5.91792,5.766173 0,5.083336 -3.1107,6.676621 -6.2214,6.676621 -2.5796,0 -5.99379,-1.517414 -7.28359,-8.345777 2.50374,-2.958957 5.08334,-4.097017 7.58707,-4.097017 z m 0,22.154243 c 9.48384,0 17.75375,-6.069655 17.75375,-16.38807 0,-10.318415 -6.67663,-14.870657 -14.87066,-14.870657 -3.1107,0 -7.58707,1.745026 -10.84951,4.931595 0.53109,-9.787319 5.08334,-13.12563 10.24254,-13.12563 3.03483,0 6.2214,1.669155 8.0423,3.338311 l 6.82836,-7.738812 c -3.33831,-3.186569 -8.87687,-6.069655 -16.08459,-6.069655 -10.69777,0 -20.94031,8.345776 -20.94031,25.796037 0,17.45026 10.24254,24.126881 19.87812,24.126881 z"
           id="path447" />
      </g>
    </g>
  </g>
</svg>
