<?xml version="1.0" encoding="UTF-8" standalone="no"?>
<!-- Created with Inkscape (http://www.inkscape.org/) -->

<svg
   width="512"
   height="512"
   viewBox="0 0 135.46667 135.46667"
   version="1.1"
   id="svg5"
   inkscape:version="1.2.2 (b0a8486541, 2022-12-01)"
   sodipodi:docname="favicon.svg"
   inkscape:export-filename="favicon.png"
   inkscape:export-xdpi="24"
   inkscape:export-ydpi="24"
   xmlns:inkscape="http://www.inkscape.org/namespaces/inkscape"
   xmlns:sodipodi="http://sodipodi.sourceforge.net/DTD/sodipodi-0.dtd"
   xmlns="http://www.w3.org/2000/svg"
   xmlns:svg="http://www.w3.org/2000/svg">
  <sodipodi:namedview
     id="namedview7"
     pagecolor="#ffffff"
     bordercolor="#000000"
     borderopacity="0.25"
     inkscape:showpageshadow="2"
     inkscape:pageopacity="0"
     inkscape:pagecheckerboard="0"
     inkscape:deskcolor="#d1d1d1"
     inkscape:document-units="px"
     showgrid="false"
     inkscape:zoom="0.46551692"
     inkscape:cx="-488.70404"
     inkscape:cy="331.88912"
     inkscape:window-width="1920"
     inkscape:window-height="1006"
     inkscape:window-x="0"
     inkscape:window-y="34"
     inkscape:window-maximized="1"
     inkscape:current-layer="layer1" />
  <defs
     id="defs2" />
  <g
     inkscape:label="Camada 1"
     inkscape:groupmode="layer"
     id="layer1">
    <path
       id="rect292"
       style="fill:#d40000;stroke-width:0.0844327;stop-color:#000000"
       d="M -2.4023439e-6,-1.0031738e-5 H 135.46667 V 135.46668 H -2.4023439e-6 Z" />
    <path
       d="m 67.889994,127.26459 c -1.775495,0 -4.647615,-0.93997 -8.616362,-2.81991 -3.864313,-1.87994 -8.198602,-4.43873 -13.002877,-7.6764 -4.804278,-3.23767 -9.451893,-6.78864 -13.942846,-10.65295 C 25.434814,100.05776 20.578317,94.679053 17.758417,89.979221 V 8.2020838 H 117.70825 V 89.979221 c -1.87993,2.924338 -4.75205,6.31866 -8.61637,10.182979 -3.75986,3.8643 -7.98971,7.6764 -12.689548,11.43626 -4.699838,3.65543 -9.295232,6.78866 -13.786185,9.39968 -7.10197,4.17763 -12.010688,6.26645 -14.726153,6.26645 z m -0.15665,-16.44943 c 1.044405,0 2.663238,-0.57443 4.856498,-1.72327 2.19326,-1.25329 4.647615,-2.87213 7.36308,-4.8565 2.8199,-2.08882 5.6398,-4.334291 8.4597,-6.736429 2.819907,-2.402139 5.378703,-4.752058 7.676392,-7.049755 2.297701,-2.402139 4.073206,-4.490949 5.326486,-6.266445 v -60.9412 H 34.051183 v 60.9412 c 1.253289,1.87993 3.028781,4.020966 5.326474,6.423108 2.297702,2.297709 4.856497,4.647609 7.676405,7.049758 2.924342,2.29769 5.744243,4.490943 8.4597,6.579763 2.8199,1.98437 5.326475,3.60321 7.519735,4.8565 2.19326,1.14884 3.75987,1.72327 4.699835,1.72327 z"
       id="path1022"
       sodipodi:nodetypes="scsccccccccssccscccccccccs"
       style="font-style:italic;font-weight:bold;font-size:192.779px;font-family:Andika;-inkscape-font-specification:'Andika, Bold Italic';fill:#ffffff;stroke-width:0.815945" />
    <g
       aria-label="6"
       id="text346"
       style="font-weight:bold;font-size:77.0845px;font-family:Andika;-inkscape-font-specification:'Andika, Bold';fill:#ffffff;stroke-width:0.264583;stop-color:#000000">
      <path
         d="m 84.689667,35.883053 -2.40889,9.597924 q -2.408891,-2.446529 -5.194171,-3.274586 -2.78528,-0.865695 -5.495282,-0.865695 -2.78528,0 -5.307087,1.016251 -2.484169,0.978612 -4.441393,3.500419 -1.957223,2.484169 -3.086391,6.925561 -1.091528,4.441393 -1.091528,11.329314 0,7.30195 3.086391,11.856259 3.12403,4.516671 8.242923,4.516671 2.78528,0 4.817781,-1.317363 2.070141,-1.317362 3.199308,-3.425141 1.166807,-2.107779 1.166807,-4.479031 0,-4.140281 -2.371252,-6.850283 -2.371252,-2.747641 -6.850283,-2.747641 -4.366115,0 -7.904173,1.769029 -3.500419,1.73139 -5.834032,4.629587 l -2.44653,-4.328476 q 3.199308,-4.366114 7.377228,-7.264311 4.17792,-2.898196 9.560285,-2.898196 5.420004,0 9.485007,2.258335 4.065004,2.258335 6.323339,6.135143 2.258335,3.83917 2.258335,8.732229 0,5.457643 -2.371252,9.673202 -2.333613,4.215559 -6.586811,6.58681 -4.253197,2.371252 -9.974313,2.371252 -10.011952,0 -15.582512,-6.812644 -5.57056,-6.812644 -5.57056,-19.722793 0,-5.495282 1.279724,-10.877647 1.317362,-5.382365 4.140281,-9.74848 2.860557,-4.403753 7.490144,-7.038477 4.667226,-2.634724 11.366953,-2.634724 3.914448,0 6.850283,0.715139 2.935836,0.677501 5.871671,2.672363 z"
         id="path406" />
    </g>
  </g>
</svg>
