<?xml version="1.0" encoding="UTF-8" standalone="no"?>
<!-- Created with Inkscape (http://www.inkscape.org/) -->

<svg
     width="512mm"
     height="512mm"
     viewBox="0 0 512 512"
     version="1.1"
     id="svg1"
     inkscape:version="1.3.2 (091e20ef0f, 2023-11-25, custom)"
     sodipodi:docname="splash.svg"
     inkscape:export-filename="splash.jpg"
     inkscape:export-xdpi="96"
     inkscape:export-ydpi="96"
     xmlns:inkscape="http://www.inkscape.org/namespaces/inkscape"
     xmlns:sodipodi="http://sodipodi.sourceforge.net/DTD/sodipodi-0.dtd"
     xmlns="http://www.w3.org/2000/svg"
     xmlns:svg="http://www.w3.org/2000/svg">
    <sodipodi:namedview
         id="namedview1"
         pagecolor="#ffffff"
         bordercolor="#000000"
         borderopacity="0.25"
         inkscape:showpageshadow="2"
         inkscape:pageopacity="0.0"
         inkscape:pagecheckerboard="0"
         inkscape:deskcolor="#d1d1d1"
         inkscape:document-units="mm"
         inkscape:zoom="0.25"
         inkscape:cx="1518"
         inkscape:cy="1520"
         inkscape:window-width="1920"
         inkscape:window-height="1011"
         inkscape:window-x="0"
         inkscape:window-y="30"
         inkscape:window-maximized="1"
         inkscape:current-layer="layer1" />
    <defs
         id="defs1" />
    <g
         inkscape:label="Camada 1"
         inkscape:groupmode="layer"
         id="layer1">
        <rect
             style="fill:#d40000;fill-opacity:1;stroke-width:1.72407;-inkscape-stroke:none"
             id="rect16"
             width="512"
             height="512"
             x="2.8421709e-14"
             y="0" />
        <text
             xml:space="preserve"
             style="font-style:normal;font-variant:normal;font-weight:bold;font-stretch:normal;font-size:26.4583px;line-height:normal;font-family:Andika;-inkscape-font-specification:'Andika, Bold';font-variant-ligatures:normal;font-variant-caps:normal;font-variant-numeric:normal;font-variant-east-asian:normal;text-align:center;text-decoration-color:#d40000;text-anchor:middle;fill:#ffffff;stroke-width:1.83724;-inkscape-stroke:none"
             x="256.03232"
             y="396.08179"
             id="text4"><tspan
                 sodipodi:role="line"
                 id="tspan3"
                 style="font-style:normal;font-variant:normal;font-weight:bold;font-stretch:normal;font-size:26.4583px;font-family:Andika;-inkscape-font-specification:'Andika, Bold';font-variant-ligatures:normal;font-variant-caps:normal;font-variant-numeric:normal;font-variant-east-asian:normal;stroke-width:1.83724"
                 x="256.03232"
                 y="396.08179">calculadora e conversor de base</tspan></text>
        <text
             xml:space="preserve"
             style="font-style:normal;font-variant:normal;font-weight:bold;font-stretch:normal;font-size:35.2778px;line-height:normal;font-family:Andika;-inkscape-font-specification:'Andika, Bold';font-variant-ligatures:normal;font-variant-caps:normal;font-variant-numeric:normal;font-variant-east-asian:normal;text-align:center;text-decoration-color:#d40000;text-anchor:middle;fill:#ffffff;stroke-width:1.83724;-inkscape-stroke:none"
             x="323.2395"
             y="247.51646"
             id="text1"><tspan
                 sodipodi:role="line"
                 id="tspan1"
                 style="font-style:normal;font-variant:normal;font-weight:bold;font-stretch:normal;font-size:35.2778px;font-family:Andika;-inkscape-font-specification:'Andika, Bold';font-variant-ligatures:normal;font-variant-caps:normal;font-variant-numeric:normal;font-variant-east-asian:normal;stroke-width:1.83724"
                 x="323.2395"
                 y="247.51646">Calculadora</tspan><tspan
                 sodipodi:role="line"
                 style="font-style:normal;font-variant:normal;font-weight:bold;font-stretch:normal;font-size:35.2778px;font-family:Andika;-inkscape-font-specification:'Andika, Bold';font-variant-ligatures:normal;font-variant-caps:normal;font-variant-numeric:normal;font-variant-east-asian:normal;stroke-width:1.83724"
                 x="323.2395"
                 y="291.61371"
                 id="tspan2">Swixknife</tspan></text>
        <path
             id="path1"
             style="fill:#ffffff;stroke-width:1.83724"
             inkscape:transform-center-x="2.3117876e-06"
             inkscape:transform-center-y="-5.0180789e-05"
             transform="matrix(-1.671833e-8,-0.50986411,0.50986411,-1.671833e-8,78.450863,277.63281)"
             d="m 123.95857,182.07135 -81.530001,47.07137 -81.529996,-47.07137 1e-6,-94.142731 81.529996,-47.071365 81.53,47.071366 z" />
        <path
             d="m 129.1821,232.35759 h 4.00988 v 17.08974 h -4.00988 z m -6.49219,10.50208 v -4.00989 h 16.99426 v 4.00989 z"
             id="text3"
             style="font-weight:bold;font-size:39.1059px;font-family:Andika;-inkscape-font-specification:'Andika, Bold';text-align:center;text-decoration-color:#d40000;text-anchor:middle;fill:#d40000;stroke-width:4.61268"
             aria-label="+" />
        <path
             d="m 154.49896,242.85967 v -3.81894 h 17.37616 v 3.81894 z"
             id="text9"
             style="font-weight:bold;font-size:39.1059px;font-family:Andika;-inkscape-font-specification:'Andika, Bold';text-align:center;text-decoration-color:#d40000;text-anchor:middle;fill:#d40000;stroke-width:4.61268"
             aria-label="−" />
        <path
             d="m 123.4537,263.69835 2.8451,-2.82601 4.90734,4.92642 4.86914,-4.86914 2.82601,2.82601 -4.86914,4.86915 4.88824,4.86914 -2.84511,2.84511 -4.86914,-4.88824 -4.85005,4.85005 -2.82601,-2.82601 4.85004,-4.85005 z"
             id="text11"
             style="font-weight:bold;font-size:39.1059px;font-family:Andika;-inkscape-font-specification:'Andika, Bold';text-align:center;text-decoration-color:#d40000;text-anchor:middle;fill:#d40000;stroke-width:4.61268"
             aria-label="×" />
        <path
             d="m 154.68991,270.57243 v -3.81893 h 16.99426 v 3.81893 z m 5.15556,-9.73828 q 0,-1.47029 0.93564,-2.40593 0.95474,-0.93564 2.40593,-0.93564 1.47029,0 2.40593,0.93564 0.93564,0.93564 0.93564,2.40593 0,1.48938 -0.93564,2.42502 -0.93564,0.91655 -2.40593,0.91655 -1.45119,0 -2.40593,-0.91655 -0.93564,-0.93564 -0.93564,-2.42502 z m 0,15.46669 q 0,-1.47029 0.93564,-2.40593 0.95474,-0.93564 2.40593,-0.93564 1.47029,0 2.40593,0.93564 0.93564,0.93564 0.93564,2.40593 0,1.48938 -0.93564,2.42502 -0.93564,0.91655 -2.40593,0.91655 -1.45119,0 -2.40593,-0.91655 -0.93564,-0.93564 -0.93564,-2.42502 z"
             id="text12"
             style="font-weight:bold;font-size:39.1059px;font-family:Andika;-inkscape-font-specification:'Andika, Bold';text-align:center;text-decoration-color:#d40000;text-anchor:middle;fill:#d40000;stroke-width:4.61268"
             aria-label="÷" />
        <g
             id="text16"
             style="font-weight:bold;font-size:35.2779px;font-family:Andika;-inkscape-font-specification:'Andika, Bold';text-align:center;text-decoration-color:#d40000;text-anchor:middle;fill:#ffffff;stroke-width:0.229655"
             aria-label="Swixknife&#10;Calculator" />
        <g
             id="text18"
             style="font-weight:bold;font-size:26.4583px;font-family:Andika;-inkscape-font-specification:'Andika, Bold';text-align:center;text-decoration-color:#d40000;text-anchor:middle;fill:#ffffff;stroke-width:1.83724"
             aria-label="Sezimal ↔ Decimal&#10;calculator and base converter">
            <path
                 d="m 147.27293,344.98678 -0.58135,3.42356 q -1.52446,-0.76223 -2.66134,-1.12396 -1.13688,-0.36174 -2.5063,-0.36174 -1.20148,0 -1.98954,0.67179 -0.77515,0.65888 -0.77515,1.45986 0,0.55552 0.29714,0.96893 0.29714,0.41341 1.16272,0.81391 0.86558,0.40049 2.55798,0.93017 2.58382,0.80099 3.94032,2.06706 1.36943,1.25315 1.36943,3.29436 0,1.84743 -0.9431,3.2427 -0.94309,1.39526 -2.51922,2.18332 -1.57613,0.77515 -3.48815,0.77515 -2.0283,0 -3.77238,-0.49093 -1.74408,-0.49092 -2.81636,-1.25315 l 0.64595,-3.55275 q 1.38235,1.11104 2.88096,1.62781 1.49862,0.50384 3.06183,0.50384 0.83974,0 1.57613,-0.29714 0.7493,-0.31006 1.20147,-0.89142 0.46509,-0.58135 0.46509,-1.39526 0,-0.5426 -0.32298,-1.00769 -0.32298,-0.46508 -1.26607,-0.94309 -0.94309,-0.49093 -2.81636,-1.0852 -2.0283,-0.65888 -3.08767,-1.4211 -1.05936,-0.77515 -1.44693,-1.71824 -0.37466,-0.9431 -0.37466,-2.0929 0,-0.86558 0.37466,-1.82159 0.37465,-0.95601 1.17563,-1.78283 0.80099,-0.83974 2.04122,-1.35651 1.25315,-0.52968 2.99723,-0.52968 1.65364,0 2.94555,0.28422 1.29191,0.2713 2.67425,0.8785 z m 15.2187,12.20854 h -9.92187 v -2.32544 h 6.6275 q 0,-1.3565 -0.59428,-1.9637 -0.58136,-0.62011 -1.73116,-0.62011 -1.39526,0 -2.07997,0.96893 -0.6718,0.95601 -0.6718,3.22977 0,2.05414 0.82683,2.99723 0.82682,0.94309 2.42878,0.94309 1.26608,0 2.48047,-0.29714 1.22731,-0.29714 2.42879,-1.00769 l 0.2713,2.91972 q -1.39526,0.71055 -2.70009,0.99477 -1.29191,0.29714 -2.80344,0.29714 -1.70532,0 -3.1781,-0.76223 -1.47278,-0.76222 -2.37711,-2.26084 -0.89142,-1.49861 -0.89142,-3.69486 0,-2.14457 0.77515,-3.7207 0.78806,-1.57613 2.235,-2.44171 1.44694,-0.87849 3.43648,-0.87849 1.6278,0 2.67425,0.56844 1.05937,0.55552 1.65364,1.49861 0.6072,0.94309 0.85266,2.11873 0.24547,1.16272 0.24547,2.37711 0,0.18087 0,0.52969 0.0129,0.34881 0.0129,0.52968 z m 2.90679,-7.36388 h 10.78744 v 1.86035 l -6.84712,8.53952 h 4.19871 q 0.68471,0 1.40818,-0.0258 0.72347,-0.0258 1.43402,-0.16795 v 2.97139 h -11.3688 v -2.05413 l 6.71793,-8.34574 h -4.3279 q -0.56844,0 -1.11104,0.0258 -0.52968,0.0258 -0.89142,0.16795 z m 17.95754,13.50045 q -0.91726,0 -1.76992,-0.41341 -0.83974,-0.42633 -1.38234,-1.33067 -0.52968,-0.90434 -0.52968,-2.32544 v -3.10058 q 0,-1.88618 -0.0388,-3.5915 -0.0258,-1.71824 -0.15503,-2.73885 h 3.81113 v 7.29928 q 0,1.20148 0.16795,1.83452 0.18087,0.62011 0.50385,0.85266 0.33589,0.21962 0.8139,0.21962 0.82682,0 1.67948,-0.45217 v 3.06183 q -0.67179,0.40049 -1.38234,0.5426 -0.69763,0.14211 -1.71824,0.14211 z m -1.87327,-15.95508 q -0.98185,0 -1.62781,-0.62012 -0.63303,-0.63303 -0.63303,-1.64072 0,-0.99477 0.63303,-1.62781 0.64596,-0.63303 1.62781,-0.63303 0.99477,0 1.62781,0.63303 0.63303,0.63304 0.63303,1.62781 0,1.00769 -0.63303,1.64072 -0.63304,0.62012 -1.62781,0.62012 z m 18.40971,7.1055 v 8.5266 h -3.61735 v -7.36388 q 0,-1.22731 -0.14211,-1.84743 -0.12919,-0.62012 -0.45217,-0.83974 -0.32297,-0.21963 -0.89141,-0.21963 -0.72347,0 -1.40819,0.56844 -0.67179,0.55552 -1.04644,1.43402 v 8.26822 h -3.61735 v -7.94524 q 0,-1.89911 -0.21962,-3.22977 -0.21963,-1.33067 -0.42633,-2.00246 h 3.35896 q 0.21963,0.37465 0.36174,0.90433 0.15502,0.52969 0.24546,0.96894 1.18855,-1.29191 2.20916,-1.70532 1.03353,-0.42633 2.15749,-0.42633 1.26607,0 2.05414,0.65887 0.80098,0.65887 1.12396,1.51153 1.21439,-1.30483 2.28668,-1.73116 1.07228,-0.43924 2.09289,-0.43924 1.9637,0 2.72593,1.26607 0.76222,1.25315 0.76222,3.64318 v 8.5266 h -3.61734 v -7.1055 q 0,-1.30483 -0.12919,-1.97662 -0.12919,-0.68471 -0.45217,-0.93017 -0.32298,-0.25839 -0.90434,-0.25839 -0.71055,0 -1.38234,0.47801 -0.65887,0.46509 -1.07228,1.26607 z m 24.55919,8.5266 h -3.43648 q -0.18087,-0.31006 -0.34881,-1.02061 -0.16795,-0.72347 -0.2713,-1.49861 -0.0904,-0.78807 -0.0904,-1.26607 v -0.73639 q -0.478,1.11104 -1.33066,2.235 -0.85266,1.11104 -1.98954,1.86035 -1.13688,0.74931 -2.49339,0.74931 -1.6278,0 -2.75177,-1.43402 -1.12396,-1.44694 -1.12396,-4.18579 0,-1.53737 0.45217,-2.98431 0.45217,-1.45985 1.39526,-2.62257 0.9431,-1.16272 2.40295,-1.84743 1.45986,-0.68471 3.46232,-0.68471 1.40818,0 2.79052,0.16794 1.39527,0.15503 2.49339,0.41341 v 6.00738 q 0,2.44171 0.23254,4.10827 0.23255,1.65365 0.6072,2.73885 z m -4.5346,-9.43094 v -0.85266 q -0.2713,-0.0646 -0.78807,-0.15502 -0.51676,-0.10336 -1.34358,-0.10336 -1.35651,0 -2.13165,0.74931 -0.77515,0.74931 -1.09812,1.95078 -0.32298,1.20148 -0.32298,2.54506 0,1.13688 0.41341,1.84743 0.42633,0.69763 1.00769,0.69763 0.5426,0 1.12396,-0.5426 0.59428,-0.5426 1.1498,-1.38234 0.55552,-0.83974 1.00769,-1.76992 0.45217,-0.93017 0.71055,-1.73115 0.2713,-0.81391 0.2713,-1.25316 z m 11.57551,-11.23961 v 14.53398 q 0,0.82682 0.0258,2.00246 0.0388,1.17564 0.0904,2.2996 0.0646,1.12396 0.14211,1.83451 h -3.87573 v -14.59857 q 0,-3.7853 -0.25838,-6.07198 z m 34.17099,12.07936 -7.42848,3.35896 -0.45216,-1.22731 5.23223,-2.19625 h -17.69916 l 5.23224,2.19625 -0.45217,1.22731 -7.42848,-3.35896 v -1.5503 l 7.42848,-3.35896 0.45217,1.22731 -5.23224,2.19625 h 17.69916 l -5.23223,-2.19625 0.45216,-1.29191 7.42848,3.42356 z m 10.98123,2.713 v -7.0409 q 0,-1.89911 -0.0258,-3.52691 -0.0258,-1.64073 -0.16795,-2.41587 0.42633,-0.0258 1.17564,-0.0517 0.76223,-0.0258 1.65364,-0.0388 0.90434,-0.0258 1.78284,-0.0258 0.89142,-0.0129 1.58905,-0.0129 1.07228,0 2.35127,0.2067 1.27899,0.19379 2.54506,0.76223 1.27899,0.55552 2.32544,1.60197 1.05936,1.04644 1.6924,2.72592 0.64596,1.67949 0.64596,4.13411 0,2.2996 -0.63304,3.96616 -0.62012,1.65365 -1.67948,2.76469 -1.04645,1.11104 -2.33836,1.757 -1.27899,0.64595 -2.63549,0.93017 -1.34359,0.2713 -2.54506,0.2713 -0.63304,0 -1.6924,-0.0258 -1.05937,-0.0129 -2.19625,-0.0517 -1.13688,-0.0258 -2.04122,-0.0517 0.14211,-0.77514 0.16795,-2.36419 0.0258,-1.60197 0.0258,-3.514 z m 3.68194,-10.1544 v 13.04828 q 0.37465,0.0388 0.98185,0.0904 0.62012,0.0388 1.38234,0.0388 1.44694,0 2.79053,-0.63303 1.34358,-0.63304 2.20916,-2.05414 0.8785,-1.4211 0.8785,-3.75945 0,-2.5709 -0.76223,-4.0566 -0.7493,-1.4857 -2.06705,-2.10581 -1.31775,-0.63304 -2.99723,-0.63304 -0.52968,0 -1.26607,0.0258 -0.73639,0.0129 -1.1498,0.0388 z m 26.41954,10.219 h -9.92187 v -2.32544 h 6.6275 q 0,-1.3565 -0.59428,-1.9637 -0.58136,-0.62011 -1.73116,-0.62011 -1.39526,0 -2.07997,0.96893 -0.67179,0.95601 -0.67179,3.22977 0,2.05414 0.82682,2.99723 0.82682,0.94309 2.42879,0.94309 1.26607,0 2.48046,-0.29714 1.22732,-0.29714 2.42879,-1.00769 l 0.2713,2.91972 q -1.39526,0.71055 -2.70009,0.99477 -1.29191,0.29714 -2.80344,0.29714 -1.70532,0 -3.1781,-0.76223 -1.47277,-0.76222 -2.37711,-2.26084 -0.89142,-1.49861 -0.89142,-3.69486 0,-2.14457 0.77515,-3.7207 0.78806,-1.57613 2.235,-2.44171 1.44694,-0.87849 3.43648,-0.87849 1.62781,0 2.67425,0.56844 1.05937,0.55552 1.65365,1.49861 0.60719,0.94309 0.85266,2.11873 0.24546,1.16272 0.24546,2.37711 0,0.18087 0,0.52969 0.0129,0.34881 0.0129,0.52968 z m 13.20331,-6.70501 -0.56844,3.12642 q -0.67179,-0.6072 -1.47277,-0.90433 -0.80099,-0.29714 -1.89911,-0.29714 -1.44694,0 -2.32544,1.12396 -0.86558,1.12396 -0.86558,3.01015 0,1.70532 0.81391,2.79052 0.82682,1.0852 2.37711,1.0852 1.16272,0 2.00246,-0.37465 0.83974,-0.37465 1.67948,-1.04645 l 0.38757,3.10058 q -0.8785,0.59428 -2.00246,0.90434 -1.12396,0.32298 -2.5709,0.32298 -1.73115,0 -3.16517,-0.77515 -1.43402,-0.77514 -2.28668,-2.26084 -0.85266,-1.49861 -0.85266,-3.61734 0,-2.01538 0.82682,-3.61735 0.83974,-1.61489 2.35127,-2.54506 1.52446,-0.94309 3.56567,-0.94309 1.27899,0 2.28668,0.2713 1.00769,0.2713 1.71824,0.64595 z m 7.17009,12.84158 q -0.91725,0 -1.76991,-0.41341 -0.83974,-0.42633 -1.38234,-1.33067 -0.52969,-0.90434 -0.52969,-2.32544 v -3.10058 q 0,-1.88618 -0.0387,-3.5915 -0.0258,-1.71824 -0.15503,-2.73885 h 3.81113 v 7.29928 q 0,1.20148 0.16795,1.83452 0.18086,0.62011 0.50384,0.85266 0.3359,0.21962 0.8139,0.21962 0.82683,0 1.67949,-0.45217 v 3.06183 q -0.6718,0.40049 -1.38235,0.5426 -0.69763,0.14211 -1.71824,0.14211 z m -1.87326,-15.95508 q -0.98186,0 -1.62781,-0.62012 -0.63304,-0.63303 -0.63304,-1.64072 0,-0.99477 0.63304,-1.62781 0.64595,-0.63303 1.62781,-0.63303 0.99477,0 1.6278,0.63303 0.63304,0.63304 0.63304,1.62781 0,1.00769 -0.63304,1.64072 -0.63303,0.62012 -1.6278,0.62012 z m 18.40971,7.1055 v 8.5266 h -3.61734 v -7.36388 q 0,-1.22731 -0.14211,-1.84743 -0.12919,-0.62012 -0.45217,-0.83974 -0.32298,-0.21963 -0.89142,-0.21963 -0.72347,0 -1.40818,0.56844 -0.67179,0.55552 -1.04645,1.43402 v 8.26822 h -3.61734 v -7.94524 q 0,-1.89911 -0.21963,-3.22977 -0.21962,-1.33067 -0.42633,-2.00246 h 3.35897 q 0.21962,0.37465 0.36173,0.90433 0.15503,0.52969 0.24547,0.96894 1.18855,-1.29191 2.20916,-1.70532 1.03353,-0.42633 2.15749,-0.42633 1.26607,0 2.05413,0.65887 0.80099,0.65887 1.12396,1.51153 1.2144,-1.30483 2.28668,-1.73116 1.07229,-0.43924 2.0929,-0.43924 1.9637,0 2.72593,1.26607 0.76222,1.25315 0.76222,3.64318 v 8.5266 h -3.61734 v -7.1055 q 0,-1.30483 -0.1292,-1.97662 -0.12919,-0.68471 -0.45216,-0.93017 -0.32298,-0.25839 -0.90434,-0.25839 -0.71055,0 -1.38234,0.47801 -0.65888,0.46509 -1.07229,1.26607 z m 24.55919,8.5266 h -3.43648 q -0.18087,-0.31006 -0.34881,-1.02061 -0.16795,-0.72347 -0.27131,-1.49861 -0.0904,-0.78807 -0.0904,-1.26607 v -0.73639 q -0.47801,1.11104 -1.33067,2.235 -0.85266,1.11104 -1.98954,1.86035 -1.13688,0.74931 -2.49338,0.74931 -1.62781,0 -2.75177,-1.43402 -1.12396,-1.44694 -1.12396,-4.18579 0,-1.53737 0.45217,-2.98431 0.45217,-1.45985 1.39526,-2.62257 0.9431,-1.16272 2.40295,-1.84743 1.45986,-0.68471 3.46232,-0.68471 1.40818,0 2.79052,0.16794 1.39527,0.15503 2.49339,0.41341 v 6.00738 q 0,2.44171 0.23254,4.10827 0.23255,1.65365 0.6072,2.73885 z m -4.5346,-9.43094 v -0.85266 q -0.2713,-0.0646 -0.78807,-0.15502 -0.51676,-0.10336 -1.34358,-0.10336 -1.35651,0 -2.13165,0.74931 -0.77515,0.74931 -1.09812,1.95078 -0.32298,1.20148 -0.32298,2.54506 0,1.13688 0.41341,1.84743 0.42633,0.69763 1.00769,0.69763 0.5426,0 1.12396,-0.5426 0.59428,-0.5426 1.1498,-1.38234 0.55552,-0.83974 1.00769,-1.76992 0.45217,-0.93017 0.71055,-1.73115 0.2713,-0.81391 0.2713,-1.25316 z m 11.5755,-11.23961 v 14.53398 q 0,0.82682 0.0258,2.00246 0.0388,1.17564 0.0904,2.2996 0.0646,1.12396 0.14211,1.83451 h -3.87573 v -14.59857 q 0,-3.7853 -0.25838,-6.07198 z"
                 id="path2" />
        </g>
    </g>
</svg>
