<?xml version="1.0" encoding="UTF-8" standalone="no"?>
<!-- Created with Inkscape (http://www.inkscape.org/) -->

<svg
     width="512mm"
     height="512mm"
     viewBox="0 0 512 512"
     version="1.1"
     id="svg1"
     inkscape:version="1.3.2 (091e20ef0f, 2023-11-25, custom)"
     sodipodi:docname="splash.svg"
     inkscape:export-filename="splash.jpg"
     inkscape:export-xdpi="96"
     inkscape:export-ydpi="96"
     xmlns:inkscape="http://www.inkscape.org/namespaces/inkscape"
     xmlns:sodipodi="http://sodipodi.sourceforge.net/DTD/sodipodi-0.dtd"
     xmlns="http://www.w3.org/2000/svg"
     xmlns:svg="http://www.w3.org/2000/svg">
    <sodipodi:namedview
         id="namedview1"
         pagecolor="#ffffff"
         bordercolor="#000000"
         borderopacity="0.25"
         inkscape:showpageshadow="2"
         inkscape:pageopacity="0.0"
         inkscape:pagecheckerboard="0"
         inkscape:deskcolor="#d1d1d1"
         inkscape:document-units="mm"
         inkscape:zoom="0.25"
         inkscape:cx="1520"
         inkscape:cy="1520"
         inkscape:window-width="1920"
         inkscape:window-height="1011"
         inkscape:window-x="0"
         inkscape:window-y="30"
         inkscape:window-maximized="1"
         inkscape:current-layer="layer1" />
    <defs
         id="defs1" />
    <g
         inkscape:label="Camada 1"
         inkscape:groupmode="layer"
         id="layer1">
        <rect
             style="fill:#d40000;fill-opacity:1;stroke-width:1.72407;-inkscape-stroke:none"
             id="rect16"
             width="512"
             height="512"
             x="2.8421709e-14"
             y="0" />
        <path
             id="path1"
             style="fill:#ffffff;stroke-width:1.83724"
             inkscape:transform-center-x="2.3117876e-06"
             inkscape:transform-center-y="-5.0180789e-05"
             transform="matrix(-1.671833e-8,-0.50986411,0.50986411,-1.671833e-8,78.450863,277.63281)"
             d="m 123.95857,182.07135 -81.530001,47.07137 -81.529996,-47.07137 1e-6,-94.142731 81.529996,-47.071365 81.53,47.071366 z" />
        <path
             d="m 129.1821,232.35759 h 4.00988 v 17.08974 h -4.00988 z m -6.49219,10.50208 v -4.00989 h 16.99426 v 4.00989 z"
             id="text3"
             style="font-weight:bold;font-size:39.1059px;font-family:Andika;-inkscape-font-specification:'Andika, Bold';text-align:center;text-decoration-color:#d40000;text-anchor:middle;fill:#d40000;stroke-width:4.61268"
             aria-label="+" />
        <path
             d="m 154.49896,242.85967 v -3.81894 h 17.37616 v 3.81894 z"
             id="text9"
             style="font-weight:bold;font-size:39.1059px;font-family:Andika;-inkscape-font-specification:'Andika, Bold';text-align:center;text-decoration-color:#d40000;text-anchor:middle;fill:#d40000;stroke-width:4.61268"
             aria-label="−" />
        <path
             d="m 123.4537,263.69835 2.8451,-2.82601 4.90734,4.92642 4.86914,-4.86914 2.82601,2.82601 -4.86914,4.86915 4.88824,4.86914 -2.84511,2.84511 -4.86914,-4.88824 -4.85005,4.85005 -2.82601,-2.82601 4.85004,-4.85005 z"
             id="text11"
             style="font-weight:bold;font-size:39.1059px;font-family:Andika;-inkscape-font-specification:'Andika, Bold';text-align:center;text-decoration-color:#d40000;text-anchor:middle;fill:#d40000;stroke-width:4.61268"
             aria-label="×" />
        <path
             d="m 154.68991,270.57243 v -3.81893 h 16.99426 v 3.81893 z m 5.15556,-9.73828 q 0,-1.47029 0.93564,-2.40593 0.95474,-0.93564 2.40593,-0.93564 1.47029,0 2.40593,0.93564 0.93564,0.93564 0.93564,2.40593 0,1.48938 -0.93564,2.42502 -0.93564,0.91655 -2.40593,0.91655 -1.45119,0 -2.40593,-0.91655 -0.93564,-0.93564 -0.93564,-2.42502 z m 0,15.46669 q 0,-1.47029 0.93564,-2.40593 0.95474,-0.93564 2.40593,-0.93564 1.47029,0 2.40593,0.93564 0.93564,0.93564 0.93564,2.40593 0,1.48938 -0.93564,2.42502 -0.93564,0.91655 -2.40593,0.91655 -1.45119,0 -2.40593,-0.91655 -0.93564,-0.93564 -0.93564,-2.42502 z"
             id="text12"
             style="font-weight:bold;font-size:39.1059px;font-family:Andika;-inkscape-font-specification:'Andika, Bold';text-align:center;text-decoration-color:#d40000;text-anchor:middle;fill:#d40000;stroke-width:4.61268"
             aria-label="÷" />
        <g
             id="text16"
             style="font-weight:bold;font-size:35.2779px;font-family:Andika;-inkscape-font-specification:'Andika, Bold';text-align:center;text-decoration-color:#d40000;text-anchor:middle;fill:#ffffff;stroke-width:0.229655"
             aria-label="Swixknife&#10;Calculator">
            <path
                 d="m 257.55852,223.65907 -0.77515,4.56476 q -2.03261,-1.0163 -3.54846,-1.49862 -1.51585,-0.48231 -3.34175,-0.48231 -1.60198,0 -2.65274,0.89572 -1.03353,0.87851 -1.03353,1.94649 0,0.7407 0.39619,1.29192 0.39619,0.55121 1.5503,1.0852 1.15411,0.534 3.41065,1.24024 3.44511,1.06799 5.25379,2.75609 1.82591,1.67088 1.82591,4.39251 0,2.46325 -1.25747,4.32361 -1.25746,1.86036 -3.35898,2.91112 -2.10151,1.03353 -4.65089,1.03353 -2.70441,0 -5.02986,-0.65457 -2.32545,-0.65457 -3.75516,-1.67088 l 0.86127,-4.73702 q 1.84313,1.48139 3.8413,2.17042 1.99816,0.67179 4.08245,0.67179 1.11966,0 2.10152,-0.39619 0.99908,-0.41341 1.60197,-1.18856 0.62012,-0.77515 0.62012,-1.86036 0,-0.72347 -0.43064,-1.34359 -0.43064,-0.62012 -1.6881,-1.25746 -1.25747,-0.65457 -3.75517,-1.44695 -2.70441,-0.8785 -4.1169,-1.89481 -1.4125,-1.03353 -1.92926,-2.29099 -0.49954,-1.25747 -0.49954,-2.79054 0,-1.15411 0.49954,-2.4288 0.49954,-1.27469 1.56752,-2.37712 1.06798,-1.11966 2.72164,-1.80869 1.67087,-0.70624 3.99632,-0.70624 2.20487,0 3.92742,0.37896 1.72256,0.36174 3.56569,1.17134 z m 14.34887,6.45957 h 4.13413 l 3.18673,12.66077 2.7044,-12.66077 h 4.96096 q -0.39619,1.30914 -0.70625,2.30822 -0.29283,0.98186 -0.55121,1.87759 -0.25839,0.89573 -0.55122,1.92926 l -3.18673,11.45498 h -4.9954 l -2.92834,-11.97175 -2.92834,11.97175 h -4.99541 l -3.18673,-11.45498 q -0.37896,-1.37805 -0.79237,-2.75609 -0.41341,-1.37804 -1.01631,-3.35898 h 4.96096 l 2.70441,12.66077 z m 23.42673,18.00069 q -1.22301,0 -2.3599,-0.55122 -1.11966,-0.56844 -1.84313,-1.77423 -0.70624,-1.20579 -0.70624,-3.1006 v -4.13412 q 0,-2.51493 -0.0517,-4.7887 -0.0344,-2.291 -0.20671,-3.65182 h 5.08154 v 9.73243 q 0,1.60198 0.22393,2.44603 0.24116,0.82682 0.67179,1.13688 0.44787,0.29284 1.08521,0.29284 1.10244,0 2.23932,-0.6029 v 4.08246 q -0.89573,0.53399 -1.84313,0.72347 -0.93018,0.18948 -2.291,0.18948 z m -2.4977,-21.27354 q -1.30914,0 -2.17042,-0.82683 -0.84405,-0.84405 -0.84405,-2.18764 0,-1.32637 0.84405,-2.17042 0.86128,-0.84405 2.17042,-0.84405 1.32637,0 2.17042,0.84405 0.84405,0.84405 0.84405,2.17042 0,1.34359 -0.84405,2.18764 -0.84405,0.82683 -2.17042,0.82683 z m 20.8429,20.8429 -9.56017,-12.91915 q -0.58567,-0.79238 -1.05076,-1.4125 -0.46509,-0.62012 -1.05076,-1.36081 -0.58567,-0.7407 -1.51584,-1.87759 h 5.68442 l 9.47405,12.91916 q 0.51676,0.68902 0.99908,1.34359 0.49954,0.63734 1.13688,1.41249 0.63735,0.77515 1.56753,1.89481 z m -5.44327,-10.61093 1.46417,4.42696 -4.1169,6.18397 h -5.25379 q 0.96463,-1.24024 1.58475,-2.04984 0.62012,-0.8096 1.06798,-1.41249 0.44787,-0.6029 0.87851,-1.18856 z m 3.0317,3.63459 -1.37805,-4.53032 3.96188,-6.06339 h 5.25379 q -1.32637,1.72256 -2.08429,2.70441 -0.7407,0.96463 -1.44695,1.94649 z m 15.93362,6.97634 h -4.82315 q 0,-2.08429 0,-4.42696 0,-2.3599 0,-4.70257 0,-2.34268 0,-4.40974 0,-2.08429 0,-3.63459 0,-1.5503 0,-2.291 0,-2.77331 -0.0344,-4.87482 -0.0344,-2.11875 -0.22394,-3.22118 h 5.08154 z m 5.30546,-17.57005 h 6.45958 l -9.06063,8.47497 -3.77239,-0.72348 z m -6.42512,7.75149 3.27285,-1.6192 10.12862,11.43776 h -6.32178 z m 32.86632,9.81856 h -4.82315 q 0,-1.15411 0,-2.51493 0,-1.37804 0,-2.72163 0,-1.36082 0,-2.48048 0,-1.11966 0,-1.75701 0,-2.37712 -0.65457,-3.29007 -0.63734,-0.93018 -2.01539,-0.93018 -0.98185,0 -1.8948,0.56844 -0.91296,0.55122 -1.60198,1.39527 -0.6718,0.84405 -0.98185,1.73978 v 9.99081 h -4.82316 q 0,-1.56752 0,-3.56569 0,-2.01538 0,-3.91019 0,-1.89481 0,-3.11783 0,-2.53215 -0.29283,-4.30638 -0.27561,-1.77423 -0.56844,-2.66996 h 4.73702 q 0.1378,0.34451 0.25838,0.94741 0.13781,0.60289 0.25839,1.22301 0.12058,0.62012 0.17225,1.01631 1.63643,-1.87759 3.22118,-2.70441 1.58475,-0.82683 3.41065,-0.82683 2.61829,0 4.09968,1.80868 1.49862,1.79146 1.49862,5.33992 0,0.77515 0,2.06706 0,1.29192 0,2.82499 0,1.53307 0,3.06615 0,1.53307 0,2.80776 z m 9.99081,0.43064 q -1.22301,0 -2.35989,-0.55122 -1.11966,-0.56844 -1.84314,-1.77423 -0.70624,-1.20579 -0.70624,-3.1006 v -4.13412 q 0,-2.51493 -0.0517,-4.7887 -0.0344,-2.291 -0.20671,-3.65182 h 5.08154 v 9.73243 q 0,1.60198 0.22393,2.44603 0.24116,0.82682 0.67179,1.13688 0.44787,0.29284 1.08521,0.29284 1.10244,0 2.23932,-0.6029 v 4.08246 q -0.89572,0.53399 -1.84313,0.72347 -0.93018,0.18948 -2.291,0.18948 z m -2.4977,-21.27354 q -1.30914,0 -2.17042,-0.82683 -0.84405,-0.84405 -0.84405,-2.18764 0,-1.32637 0.84405,-2.17042 0.86128,-0.84405 2.17042,-0.84405 1.32637,0 2.17042,0.84405 0.84405,0.84405 0.84405,2.17042 0,1.34359 -0.84405,2.18764 -0.84405,0.82683 -2.17042,0.82683 z m 10.76596,0.68902 q 0,-3.80684 1.80868,-5.77055 1.80869,-1.98094 4.99541,-1.98094 0.96463,0 2.17042,0.36174 1.20579,0.34451 1.96371,0.84405 l -0.98186,3.92742 q -0.55121,-0.51677 -1.34359,-0.8096 -0.77515,-0.31006 -1.41249,-0.31006 -1.24024,0 -1.80868,0.91295 -0.56845,0.91296 -0.56845,3.01447 0,2.85944 0,5.71888 0,2.85944 0,5.7361 0,2.49771 0.12058,4.82316 0.12058,2.32544 0.39619,3.68626 h -5.33992 q 0,-5.04708 0,-10.07694 0,-5.04708 0,-10.07694 z m -3.4451,6.28732 v -3.4451 h 12.66077 v 3.4451 z m 30.66145,6.11507 h -13.22921 v -3.1006 h 8.8367 q 0,-1.80868 -0.79238,-2.61828 -0.77515,-0.82683 -2.30822,-0.82683 -1.86036,0 -2.77331,1.29192 -0.89573,1.27469 -0.89573,4.30638 0,2.73886 1.10243,3.99633 1.10244,1.25746 3.23841,1.25746 1.6881,0 3.3073,-0.39618 1.63642,-0.39619 3.2384,-1.3436 l 0.36174,3.89297 q -1.86036,0.94741 -3.60014,1.32637 -1.72255,0.39619 -3.73794,0.39619 -2.27377,0 -4.23749,-1.01631 -1.96371,-1.0163 -3.16949,-3.01447 -1.18857,-1.99816 -1.18857,-4.9265 0,-2.85944 1.03354,-4.96096 1.05075,-2.10151 2.98001,-3.25562 1.92926,-1.17134 4.582,-1.17134 2.17041,0 3.56568,0.75792 1.4125,0.7407 2.20487,1.99817 0.8096,1.25746 1.13689,2.82499 0.32728,1.55029 0.32728,3.16949 0,0.24116 0,0.70625 0.0172,0.46509 0.0172,0.70625 z"
                 id="path4" />
            <path
                 d="m 253.2263,284.80972 0.86127,4.56477 q -1.05075,0.84405 -2.54938,1.4814 -1.49862,0.63734 -3.13504,0.99908 -1.6192,0.36173 -3.1006,0.36173 -3.56569,0 -6.13229,-1.55029 -2.56661,-1.5503 -3.94465,-4.39252 -1.37804,-2.84221 -1.37804,-6.71796 0,-3.32452 0.9474,-5.82223 0.96463,-2.51493 2.63551,-4.1858 1.67088,-1.67088 3.82407,-2.49771 2.17042,-0.84405 4.56477,-0.84405 2.37712,0 4.2547,0.53399 1.89481,0.534 3.75517,1.87759 l -1.20579,4.13413 q -1.63642,-1.29192 -3.25562,-1.84314 -1.60198,-0.56844 -3.29008,-0.56844 -2.08429,0 -3.75517,0.98186 -1.65365,0.98185 -2.61828,2.92834 -0.9474,1.94648 -0.9474,4.87483 0,4.15135 1.8948,6.51125 1.91204,2.3599 5.25379,2.3599 1.94649,0 3.92743,-0.86128 1.98093,-0.8785 3.39343,-2.32545 z m 23.09944,6.97635 h -4.58199 q -0.24116,-0.41342 -0.46509,-1.36082 -0.22393,-0.96463 -0.36174,-1.99816 -0.12058,-1.05076 -0.12058,-1.68811 v -0.98185 q -0.63734,1.48139 -1.77423,2.98002 -1.13688,1.48139 -2.65273,2.48047 -1.51585,0.99908 -3.32453,0.99908 -2.17042,0 -3.66904,-1.91203 -1.49862,-1.92926 -1.49862,-5.58107 0,-2.04984 0.6029,-3.9791 0.60289,-1.94649 1.86035,-3.49679 1.25747,-1.5503 3.20395,-2.46325 1.94649,-0.91295 4.61645,-0.91295 1.87758,0 3.72071,0.22393 1.86036,0.20671 3.32453,0.55122 v 8.00987 q 0,3.25563 0.31006,5.47772 0.31006,2.20487 0.8096,3.65182 z m -6.04616,-12.57465 v -1.13688 q -0.36174,-0.0861 -1.05076,-0.20671 -0.68902,-0.1378 -1.79146,-0.1378 -1.80868,0 -2.84221,0.99908 -1.03353,0.99908 -1.46417,2.60105 -0.43064,1.60198 -0.43064,3.39344 0,1.51584 0.55122,2.46325 0.56844,0.93018 1.34359,0.93018 0.72347,0 1.49862,-0.72348 0.79238,-0.72347 1.53308,-1.84313 0.74069,-1.11966 1.34359,-2.3599 0.60289,-1.24024 0.9474,-2.30822 0.36174,-1.08521 0.36174,-1.67088 z m 15.43408,-14.98621 v 19.37873 q 0,1.10243 0.0344,2.66995 0.0517,1.56753 0.12058,3.06615 0.0861,1.49862 0.18948,2.44603 h -5.16766 v -19.46486 q 0,-5.04708 -0.34451,-8.096 z m 18.98254,10.86931 -0.75792,4.16858 q -0.89573,-0.8096 -1.96371,-1.20579 -1.06799,-0.39618 -2.53216,-0.39618 -1.92926,0 -3.10059,1.49862 -1.15412,1.49862 -1.15412,4.01355 0,2.27377 1.08521,3.72071 1.10244,1.44695 3.1695,1.44695 1.5503,0 2.66996,-0.49954 1.11966,-0.49954 2.23932,-1.39527 l 0.51677,4.13413 q -1.17134,0.79237 -2.66996,1.20579 -1.49862,0.43063 -3.42788,0.43063 -2.30823,0 -4.22026,-1.03353 -1.91203,-1.03353 -3.04892,-3.01447 -1.13689,-1.99816 -1.13689,-4.82315 0,-2.68718 1.10244,-4.82315 1.11966,-2.15319 3.13505,-3.39343 2.03261,-1.25746 4.75424,-1.25746 1.70533,0 3.04892,0.36173 1.3436,0.36174 2.291,0.86128 z m 21.70418,16.69155 h -4.56476 q -0.24116,-0.55122 -0.534,-1.4125 -0.2756,-0.8785 -0.41341,-1.77423 -1.51585,1.77423 -3.1695,2.70441 -1.63642,0.91295 -3.41065,0.91295 -5.3916,0 -5.3916,-7.40698 0,-0.12058 0,-0.86127 0,-0.7407 0,-1.67088 0,-0.94741 0,-1.6881 0,-0.7407 0,-0.86128 0,-1.63643 -0.0517,-2.79054 -0.0517,-1.17133 -0.29284,-2.72163 h 5.16766 v 9.56017 q 0,2.34267 0.49954,3.41066 0.51677,1.05076 1.82591,1.05076 0.79238,0 1.67088,-0.58567 0.8785,-0.58567 1.6192,-1.42972 0.75792,-0.84405 1.10243,-1.63643 v -4.8576 q 0,-1.13689 -0.0172,-1.98094 -0.0172,-0.84405 -0.10336,-1.65365 -0.0689,-0.82682 -0.22393,-1.87758 h 5.16766 v 9.81855 q 0,2.49771 0.29284,4.40974 0.29283,1.89481 0.82682,3.34176 z m 9.38792,-27.56086 v 19.37873 q 0,1.10243 0.0344,2.66995 0.0517,1.56753 0.12058,3.06615 0.0861,1.49862 0.18948,2.44603 h -5.16766 v -19.46486 q 0,-5.04708 -0.34451,-8.096 z m 23.2717,27.56086 h -4.58199 q -0.24116,-0.41342 -0.46509,-1.36082 -0.22393,-0.96463 -0.36174,-1.99816 -0.12058,-1.05076 -0.12058,-1.68811 v -0.98185 q -0.63734,1.48139 -1.77423,2.98002 -1.13688,1.48139 -2.65273,2.48047 -1.51585,0.99908 -3.32453,0.99908 -2.17041,0 -3.66904,-1.91203 -1.49862,-1.92926 -1.49862,-5.58107 0,-2.04984 0.6029,-3.9791 0.60289,-1.94649 1.86035,-3.49679 1.25747,-1.5503 3.20395,-2.46325 1.94649,-0.91295 4.61645,-0.91295 1.87758,0 3.72071,0.22393 1.86036,0.20671 3.32453,0.55122 v 8.00987 q 0,3.25563 0.31006,5.47772 0.31006,2.20487 0.8096,3.65182 z m -6.04616,-12.57465 v -1.13688 q -0.36174,-0.0861 -1.05076,-0.20671 -0.68902,-0.1378 -1.79145,-0.1378 -1.80869,0 -2.84222,0.99908 -1.03353,0.99908 -1.46417,2.60105 -0.43064,1.60198 -0.43064,3.39344 0,1.51584 0.55122,2.46325 0.56844,0.93018 1.34359,0.93018 0.72347,0 1.49862,-0.72348 0.79238,-0.72347 1.53308,-1.84313 0.74069,-1.11966 1.34359,-2.3599 0.60289,-1.24024 0.9474,-2.30822 0.36174,-1.08521 0.36174,-1.67088 z m 21.63527,7.73427 v 3.85852 q -1.22302,0.77515 -2.3599,1.08521 -1.13689,0.32728 -2.06707,0.32728 -1.6192,0 -2.96279,-0.43063 -1.34359,-0.44787 -2.15319,-1.5503 -0.79237,-1.11966 -0.79237,-3.1006 0,-4.53032 0,-9.04341 0,-4.53031 0,-9.0434 h 4.82315 q 0,3.68626 0,7.38975 0,3.68627 0,7.38976 0,1.94648 0.22393,2.89389 0.22393,0.9474 0.70625,1.24024 0.48231,0.27561 1.25746,0.27561 1.24024,0 3.32453,-1.29192 z m -0.25839,-9.02618 h -13.34979 v -3.44511 h 13.34979 z m 2.92834,5.13321 q 0,-2.96279 1.17134,-5.01263 1.18856,-2.04984 3.15227,-3.1006 1.96372,-1.06798 4.28916,-1.06798 2.44603,0 4.30639,1.06798 1.86036,1.05076 2.91111,3.1006 1.05076,2.04984 1.05076,5.01263 0,2.96279 -1.18856,5.01263 -1.17134,2.03261 -3.13505,3.1006 -1.96371,1.05075 -4.28916,1.05075 -2.4288,0 -4.28916,-1.05075 -1.86035,-1.06799 -2.92834,-3.1006 -1.05076,-2.04984 -1.05076,-5.01263 z m 4.82315,0 q 0,2.46325 0.91296,3.87574 0.93018,1.4125 2.70441,1.4125 1.67087,0 2.6355,-1.4125 0.98186,-1.41249 0.98186,-3.87574 0,-2.48048 -0.93018,-3.89297 -0.91295,-1.4125 -2.68718,-1.4125 -1.67088,0 -2.65274,1.4125 -0.96463,1.41249 -0.96463,3.89297 z m 20.92904,8.73335 h -4.82315 v -10.59371 q 0,-2.53215 -0.29284,-4.30638 -0.27561,-1.77423 -0.56844,-2.66996 h 4.73702 q 0.13781,0.36173 0.25839,0.99908 0.1378,0.63734 0.25838,1.29191 0.12058,0.65457 0.17225,1.06799 1.25747,-1.79146 2.75609,-2.73886 1.49862,-0.96463 2.66996,-0.96463 1.6192,0 2.60105,0.89573 0.98186,0.8785 1.42972,2.34267 0.44787,1.46417 0.44787,3.22117 l -3.8413,0.6029 q -0.0861,-1.17134 -0.56844,-1.87759 -0.48231,-0.72347 -1.58475,-0.72347 -0.56844,0 -1.30914,0.63735 -0.7407,0.63734 -1.39527,1.63642 -0.63734,0.98186 -0.9474,2.04984 z"
                 id="path5" />
        </g>
        <g
             id="text18"
             style="font-weight:bold;font-size:26.4583px;font-family:Andika;-inkscape-font-specification:'Andika, Bold';text-align:center;text-decoration-color:#d40000;text-anchor:middle;fill:#ffffff;stroke-width:1.83724"
             aria-label="Sezimal ↔ Decimal&#10;calculator and base converter">
            <path
                 d="m 147.27293,344.98678 -0.58135,3.42356 q -1.52446,-0.76223 -2.66134,-1.12396 -1.13688,-0.36174 -2.5063,-0.36174 -1.20148,0 -1.98954,0.67179 -0.77515,0.65888 -0.77515,1.45986 0,0.55552 0.29714,0.96893 0.29714,0.41341 1.16272,0.81391 0.86558,0.40049 2.55798,0.93017 2.58382,0.80099 3.94032,2.06706 1.36943,1.25315 1.36943,3.29436 0,1.84743 -0.9431,3.2427 -0.94309,1.39526 -2.51922,2.18332 -1.57613,0.77515 -3.48815,0.77515 -2.0283,0 -3.77238,-0.49093 -1.74408,-0.49092 -2.81636,-1.25315 l 0.64595,-3.55275 q 1.38235,1.11104 2.88096,1.62781 1.49862,0.50384 3.06183,0.50384 0.83974,0 1.57613,-0.29714 0.7493,-0.31006 1.20147,-0.89142 0.46509,-0.58135 0.46509,-1.39526 0,-0.5426 -0.32298,-1.00769 -0.32298,-0.46508 -1.26607,-0.94309 -0.94309,-0.49093 -2.81636,-1.0852 -2.0283,-0.65888 -3.08767,-1.4211 -1.05936,-0.77515 -1.44693,-1.71824 -0.37466,-0.9431 -0.37466,-2.0929 0,-0.86558 0.37466,-1.82159 0.37465,-0.95601 1.17563,-1.78283 0.80099,-0.83974 2.04122,-1.35651 1.25315,-0.52968 2.99723,-0.52968 1.65364,0 2.94555,0.28422 1.29191,0.2713 2.67425,0.8785 z m 15.2187,12.20854 h -9.92187 v -2.32544 h 6.6275 q 0,-1.3565 -0.59428,-1.9637 -0.58136,-0.62011 -1.73116,-0.62011 -1.39526,0 -2.07997,0.96893 -0.6718,0.95601 -0.6718,3.22977 0,2.05414 0.82683,2.99723 0.82682,0.94309 2.42878,0.94309 1.26608,0 2.48047,-0.29714 1.22731,-0.29714 2.42879,-1.00769 l 0.2713,2.91972 q -1.39526,0.71055 -2.70009,0.99477 -1.29191,0.29714 -2.80344,0.29714 -1.70532,0 -3.1781,-0.76223 -1.47278,-0.76222 -2.37711,-2.26084 -0.89142,-1.49861 -0.89142,-3.69486 0,-2.14457 0.77515,-3.7207 0.78806,-1.57613 2.235,-2.44171 1.44694,-0.87849 3.43648,-0.87849 1.6278,0 2.67425,0.56844 1.05937,0.55552 1.65364,1.49861 0.6072,0.94309 0.85266,2.11873 0.24547,1.16272 0.24547,2.37711 0,0.18087 0,0.52969 0.0129,0.34881 0.0129,0.52968 z m 2.90679,-7.36388 h 10.78744 v 1.86035 l -6.84712,8.53952 h 4.19871 q 0.68471,0 1.40818,-0.0258 0.72347,-0.0258 1.43402,-0.16795 v 2.97139 h -11.3688 v -2.05413 l 6.71793,-8.34574 h -4.3279 q -0.56844,0 -1.11104,0.0258 -0.52968,0.0258 -0.89142,0.16795 z m 17.95754,13.50045 q -0.91726,0 -1.76992,-0.41341 -0.83974,-0.42633 -1.38234,-1.33067 -0.52968,-0.90434 -0.52968,-2.32544 v -3.10058 q 0,-1.88618 -0.0388,-3.5915 -0.0258,-1.71824 -0.15503,-2.73885 h 3.81113 v 7.29928 q 0,1.20148 0.16795,1.83452 0.18087,0.62011 0.50385,0.85266 0.33589,0.21962 0.8139,0.21962 0.82682,0 1.67948,-0.45217 v 3.06183 q -0.67179,0.40049 -1.38234,0.5426 -0.69763,0.14211 -1.71824,0.14211 z m -1.87327,-15.95508 q -0.98185,0 -1.62781,-0.62012 -0.63303,-0.63303 -0.63303,-1.64072 0,-0.99477 0.63303,-1.62781 0.64596,-0.63303 1.62781,-0.63303 0.99477,0 1.62781,0.63303 0.63303,0.63304 0.63303,1.62781 0,1.00769 -0.63303,1.64072 -0.63304,0.62012 -1.62781,0.62012 z m 18.40971,7.1055 v 8.5266 h -3.61735 v -7.36388 q 0,-1.22731 -0.14211,-1.84743 -0.12919,-0.62012 -0.45217,-0.83974 -0.32297,-0.21963 -0.89141,-0.21963 -0.72347,0 -1.40819,0.56844 -0.67179,0.55552 -1.04644,1.43402 v 8.26822 h -3.61735 v -7.94524 q 0,-1.89911 -0.21962,-3.22977 -0.21963,-1.33067 -0.42633,-2.00246 h 3.35896 q 0.21963,0.37465 0.36174,0.90433 0.15502,0.52969 0.24546,0.96894 1.18855,-1.29191 2.20916,-1.70532 1.03353,-0.42633 2.15749,-0.42633 1.26607,0 2.05414,0.65887 0.80098,0.65887 1.12396,1.51153 1.21439,-1.30483 2.28668,-1.73116 1.07228,-0.43924 2.09289,-0.43924 1.9637,0 2.72593,1.26607 0.76222,1.25315 0.76222,3.64318 v 8.5266 h -3.61734 v -7.1055 q 0,-1.30483 -0.12919,-1.97662 -0.12919,-0.68471 -0.45217,-0.93017 -0.32298,-0.25839 -0.90434,-0.25839 -0.71055,0 -1.38234,0.47801 -0.65887,0.46509 -1.07228,1.26607 z m 24.55919,8.5266 h -3.43648 q -0.18087,-0.31006 -0.34881,-1.02061 -0.16795,-0.72347 -0.2713,-1.49861 -0.0904,-0.78807 -0.0904,-1.26607 v -0.73639 q -0.478,1.11104 -1.33066,2.235 -0.85266,1.11104 -1.98954,1.86035 -1.13688,0.74931 -2.49339,0.74931 -1.6278,0 -2.75177,-1.43402 -1.12396,-1.44694 -1.12396,-4.18579 0,-1.53737 0.45217,-2.98431 0.45217,-1.45985 1.39526,-2.62257 0.9431,-1.16272 2.40295,-1.84743 1.45986,-0.68471 3.46232,-0.68471 1.40818,0 2.79052,0.16794 1.39527,0.15503 2.49339,0.41341 v 6.00738 q 0,2.44171 0.23254,4.10827 0.23255,1.65365 0.6072,2.73885 z m -4.5346,-9.43094 v -0.85266 q -0.2713,-0.0646 -0.78807,-0.15502 -0.51676,-0.10336 -1.34358,-0.10336 -1.35651,0 -2.13165,0.74931 -0.77515,0.74931 -1.09812,1.95078 -0.32298,1.20148 -0.32298,2.54506 0,1.13688 0.41341,1.84743 0.42633,0.69763 1.00769,0.69763 0.5426,0 1.12396,-0.5426 0.59428,-0.5426 1.1498,-1.38234 0.55552,-0.83974 1.00769,-1.76992 0.45217,-0.93017 0.71055,-1.73115 0.2713,-0.81391 0.2713,-1.25316 z m 11.57551,-11.23961 v 14.53398 q 0,0.82682 0.0258,2.00246 0.0388,1.17564 0.0904,2.2996 0.0646,1.12396 0.14211,1.83451 h -3.87573 v -14.59857 q 0,-3.7853 -0.25838,-6.07198 z m 34.17099,12.07936 -7.42848,3.35896 -0.45216,-1.22731 5.23223,-2.19625 h -17.69916 l 5.23224,2.19625 -0.45217,1.22731 -7.42848,-3.35896 v -1.5503 l 7.42848,-3.35896 0.45217,1.22731 -5.23224,2.19625 h 17.69916 l -5.23223,-2.19625 0.45216,-1.29191 7.42848,3.42356 z m 10.98123,2.713 v -7.0409 q 0,-1.89911 -0.0258,-3.52691 -0.0258,-1.64073 -0.16795,-2.41587 0.42633,-0.0258 1.17564,-0.0517 0.76223,-0.0258 1.65364,-0.0388 0.90434,-0.0258 1.78284,-0.0258 0.89142,-0.0129 1.58905,-0.0129 1.07228,0 2.35127,0.2067 1.27899,0.19379 2.54506,0.76223 1.27899,0.55552 2.32544,1.60197 1.05936,1.04644 1.6924,2.72592 0.64596,1.67949 0.64596,4.13411 0,2.2996 -0.63304,3.96616 -0.62012,1.65365 -1.67948,2.76469 -1.04645,1.11104 -2.33836,1.757 -1.27899,0.64595 -2.63549,0.93017 -1.34359,0.2713 -2.54506,0.2713 -0.63304,0 -1.6924,-0.0258 -1.05937,-0.0129 -2.19625,-0.0517 -1.13688,-0.0258 -2.04122,-0.0517 0.14211,-0.77514 0.16795,-2.36419 0.0258,-1.60197 0.0258,-3.514 z m 3.68194,-10.1544 v 13.04828 q 0.37465,0.0388 0.98185,0.0904 0.62012,0.0388 1.38234,0.0388 1.44694,0 2.79053,-0.63303 1.34358,-0.63304 2.20916,-2.05414 0.8785,-1.4211 0.8785,-3.75945 0,-2.5709 -0.76223,-4.0566 -0.7493,-1.4857 -2.06705,-2.10581 -1.31775,-0.63304 -2.99723,-0.63304 -0.52968,0 -1.26607,0.0258 -0.73639,0.0129 -1.1498,0.0388 z m 26.41954,10.219 h -9.92187 v -2.32544 h 6.6275 q 0,-1.3565 -0.59428,-1.9637 -0.58136,-0.62011 -1.73116,-0.62011 -1.39526,0 -2.07997,0.96893 -0.67179,0.95601 -0.67179,3.22977 0,2.05414 0.82682,2.99723 0.82682,0.94309 2.42879,0.94309 1.26607,0 2.48046,-0.29714 1.22732,-0.29714 2.42879,-1.00769 l 0.2713,2.91972 q -1.39526,0.71055 -2.70009,0.99477 -1.29191,0.29714 -2.80344,0.29714 -1.70532,0 -3.1781,-0.76223 -1.47277,-0.76222 -2.37711,-2.26084 -0.89142,-1.49861 -0.89142,-3.69486 0,-2.14457 0.77515,-3.7207 0.78806,-1.57613 2.235,-2.44171 1.44694,-0.87849 3.43648,-0.87849 1.62781,0 2.67425,0.56844 1.05937,0.55552 1.65365,1.49861 0.60719,0.94309 0.85266,2.11873 0.24546,1.16272 0.24546,2.37711 0,0.18087 0,0.52969 0.0129,0.34881 0.0129,0.52968 z m 13.20331,-6.70501 -0.56844,3.12642 q -0.67179,-0.6072 -1.47277,-0.90433 -0.80099,-0.29714 -1.89911,-0.29714 -1.44694,0 -2.32544,1.12396 -0.86558,1.12396 -0.86558,3.01015 0,1.70532 0.81391,2.79052 0.82682,1.0852 2.37711,1.0852 1.16272,0 2.00246,-0.37465 0.83974,-0.37465 1.67948,-1.04645 l 0.38757,3.10058 q -0.8785,0.59428 -2.00246,0.90434 -1.12396,0.32298 -2.5709,0.32298 -1.73115,0 -3.16517,-0.77515 -1.43402,-0.77514 -2.28668,-2.26084 -0.85266,-1.49861 -0.85266,-3.61734 0,-2.01538 0.82682,-3.61735 0.83974,-1.61489 2.35127,-2.54506 1.52446,-0.94309 3.56567,-0.94309 1.27899,0 2.28668,0.2713 1.00769,0.2713 1.71824,0.64595 z m 7.17009,12.84158 q -0.91725,0 -1.76991,-0.41341 -0.83974,-0.42633 -1.38234,-1.33067 -0.52969,-0.90434 -0.52969,-2.32544 v -3.10058 q 0,-1.88618 -0.0387,-3.5915 -0.0258,-1.71824 -0.15503,-2.73885 h 3.81113 v 7.29928 q 0,1.20148 0.16795,1.83452 0.18086,0.62011 0.50384,0.85266 0.3359,0.21962 0.8139,0.21962 0.82683,0 1.67949,-0.45217 v 3.06183 q -0.6718,0.40049 -1.38235,0.5426 -0.69763,0.14211 -1.71824,0.14211 z m -1.87326,-15.95508 q -0.98186,0 -1.62781,-0.62012 -0.63304,-0.63303 -0.63304,-1.64072 0,-0.99477 0.63304,-1.62781 0.64595,-0.63303 1.62781,-0.63303 0.99477,0 1.6278,0.63303 0.63304,0.63304 0.63304,1.62781 0,1.00769 -0.63304,1.64072 -0.63303,0.62012 -1.6278,0.62012 z m 18.40971,7.1055 v 8.5266 h -3.61734 v -7.36388 q 0,-1.22731 -0.14211,-1.84743 -0.12919,-0.62012 -0.45217,-0.83974 -0.32298,-0.21963 -0.89142,-0.21963 -0.72347,0 -1.40818,0.56844 -0.67179,0.55552 -1.04645,1.43402 v 8.26822 h -3.61734 v -7.94524 q 0,-1.89911 -0.21963,-3.22977 -0.21962,-1.33067 -0.42633,-2.00246 h 3.35897 q 0.21962,0.37465 0.36173,0.90433 0.15503,0.52969 0.24547,0.96894 1.18855,-1.29191 2.20916,-1.70532 1.03353,-0.42633 2.15749,-0.42633 1.26607,0 2.05413,0.65887 0.80099,0.65887 1.12396,1.51153 1.2144,-1.30483 2.28668,-1.73116 1.07229,-0.43924 2.0929,-0.43924 1.9637,0 2.72593,1.26607 0.76222,1.25315 0.76222,3.64318 v 8.5266 h -3.61734 v -7.1055 q 0,-1.30483 -0.1292,-1.97662 -0.12919,-0.68471 -0.45216,-0.93017 -0.32298,-0.25839 -0.90434,-0.25839 -0.71055,0 -1.38234,0.47801 -0.65888,0.46509 -1.07229,1.26607 z m 24.55919,8.5266 h -3.43648 q -0.18087,-0.31006 -0.34881,-1.02061 -0.16795,-0.72347 -0.27131,-1.49861 -0.0904,-0.78807 -0.0904,-1.26607 v -0.73639 q -0.47801,1.11104 -1.33067,2.235 -0.85266,1.11104 -1.98954,1.86035 -1.13688,0.74931 -2.49338,0.74931 -1.62781,0 -2.75177,-1.43402 -1.12396,-1.44694 -1.12396,-4.18579 0,-1.53737 0.45217,-2.98431 0.45217,-1.45985 1.39526,-2.62257 0.9431,-1.16272 2.40295,-1.84743 1.45986,-0.68471 3.46232,-0.68471 1.40818,0 2.79052,0.16794 1.39527,0.15503 2.49339,0.41341 v 6.00738 q 0,2.44171 0.23254,4.10827 0.23255,1.65365 0.6072,2.73885 z m -4.5346,-9.43094 v -0.85266 q -0.2713,-0.0646 -0.78807,-0.15502 -0.51676,-0.10336 -1.34358,-0.10336 -1.35651,0 -2.13165,0.74931 -0.77515,0.74931 -1.09812,1.95078 -0.32298,1.20148 -0.32298,2.54506 0,1.13688 0.41341,1.84743 0.42633,0.69763 1.00769,0.69763 0.5426,0 1.12396,-0.5426 0.59428,-0.5426 1.1498,-1.38234 0.55552,-0.83974 1.00769,-1.76992 0.45217,-0.93017 0.71055,-1.73115 0.2713,-0.81391 0.2713,-1.25316 z m 11.5755,-11.23961 v 14.53398 q 0,0.82682 0.0258,2.00246 0.0388,1.17564 0.0904,2.2996 0.0646,1.12396 0.14211,1.83451 h -3.87573 v -14.59857 q 0,-3.7853 -0.25838,-6.07198 z"
                 id="path2" />
            <path
                 d="m 75.035834,383.56319 -0.56844,3.12642 q -0.671793,-0.6072 -1.472777,-0.90434 -0.800984,-0.29714 -1.899106,-0.29714 -1.446939,0 -2.325437,1.12396 -0.865579,1.12396 -0.865579,3.01015 0,1.70532 0.813903,2.79052 0.826822,1.08521 2.377113,1.08521 1.162718,0 2.002459,-0.37466 0.839741,-0.37465 1.679482,-1.04644 l 0.387573,3.10058 q -0.878499,0.59428 -2.00246,0.90434 -1.123961,0.32297 -2.570899,0.32297 -1.731158,0 -3.165177,-0.77514 -1.434019,-0.77515 -2.28668,-2.26084 -0.85266,-1.49862 -0.85266,-3.61735 0,-2.01538 0.826822,-3.61734 0.839741,-1.61489 2.351275,-2.54507 1.524453,-0.94309 3.565669,-0.94309 1.27899,0 2.286679,0.2713 1.00769,0.2713 1.71824,0.64596 z m 16.420165,12.5186 h -3.436478 q -0.180867,-0.31006 -0.348815,-1.02061 -0.167949,-0.72347 -0.271301,-1.49862 -0.09043,-0.78806 -0.09043,-1.26607 v -0.73639 q -0.478006,1.11105 -1.330666,2.23501 -0.852661,1.11104 -1.989541,1.86035 -1.13688,0.7493 -2.493384,0.7493 -1.627806,0 -2.751767,-1.43402 -1.123961,-1.44693 -1.123961,-4.18578 0,-1.53737 0.452168,-2.98431 0.452169,-1.45986 1.395262,-2.62258 0.943094,-1.16272 2.402951,-1.84743 1.459858,-0.68471 3.462317,-0.68471 1.408181,0 2.790524,0.16795 1.395262,0.15503 2.493384,0.41341 v 6.00738 q 0,2.44171 0.232544,4.10827 0.232544,1.65364 0.607197,2.73885 z m -4.534601,-9.43094 v -0.85266 q -0.271301,-0.0646 -0.788064,-0.15503 -0.516764,-0.10335 -1.343586,-0.10335 -1.356505,0 -2.13165,0.7493 -0.775146,0.74931 -1.098123,1.95079 -0.322977,1.20147 -0.322977,2.54506 0,1.13688 0.413411,1.84743 0.42633,0.69763 1.007689,0.69763 0.542602,0 1.123961,-0.5426 0.594278,-0.5426 1.149799,-1.38235 0.555521,-0.83974 1.007689,-1.76991 0.452168,-0.93018 0.71055,-1.73116 0.271301,-0.8139 0.271301,-1.25315 z m 11.575507,-11.23961 v 14.53398 q 0,0.82682 0.02584,2.00246 0.03876,1.17563 0.09043,2.29959 0.0646,1.12397 0.14211,1.83452 h -3.875727 v -14.59858 q 0,-3.78529 -0.258382,-6.07197 z m 14.236835,8.15195 -0.56844,3.12642 q -0.67179,-0.6072 -1.47277,-0.90434 -0.80099,-0.29714 -1.89911,-0.29714 -1.44694,0 -2.32544,1.12396 -0.86557,1.12396 -0.86557,3.01015 0,1.70532 0.8139,2.79052 0.82682,1.08521 2.37711,1.08521 1.16272,0 2.00246,-0.37466 0.83974,-0.37465 1.67948,-1.04644 l 0.38757,3.10058 q -0.87849,0.59428 -2.00245,0.90434 -1.12397,0.32297 -2.5709,0.32297 -1.73116,0 -3.16518,-0.77514 -1.43402,-0.77515 -2.28668,-2.26084 -0.85266,-1.49862 -0.85266,-3.61735 0,-2.01538 0.82682,-3.61734 0.83974,-1.61489 2.35128,-2.54507 1.52445,-0.94309 3.56567,-0.94309 1.27899,0 2.28667,0.2713 1.00769,0.2713 1.71824,0.64596 z m 16.27806,12.5186 h -3.42356 q -0.18087,-0.41342 -0.40049,-1.05937 -0.20671,-0.65887 -0.31006,-1.33067 -1.13688,1.33067 -2.37711,2.0283 -1.22732,0.68471 -2.55798,0.68471 -4.04368,0 -4.04368,-5.55521 0,-0.0904 0,-0.64595 0,-0.55552 0,-1.25315 0,-0.71055 0,-1.26607 0,-0.55552 0,-0.64596 0,-1.22731 -0.0388,-2.09289 -0.0387,-0.8785 -0.21962,-2.04122 h 3.87573 v 7.1701 q 0,1.75699 0.37465,2.55798 0.38757,0.78806 1.36942,0.78806 0.59428,0 1.25316,-0.43925 0.65887,-0.43925 1.21439,-1.07228 0.56844,-0.63304 0.82682,-1.22731 v -3.64319 q 0,-0.85266 -0.0129,-1.48569 -0.0129,-0.63304 -0.0775,-1.24024 -0.0517,-0.62011 -0.16795,-1.40818 h 3.87573 v 7.36388 q 0,1.87327 0.21962,3.30729 0.21963,1.4211 0.62012,2.50631 z m 7.0409,-20.67055 v 14.53398 q 0,0.82682 0.0258,2.00246 0.0388,1.17563 0.0904,2.29959 0.0646,1.12397 0.14211,1.83452 h -3.87572 v -14.59858 q 0,-3.78529 -0.25839,-6.07197 z m 17.4537,20.67055 h -3.43648 q -0.18087,-0.31006 -0.34882,-1.02061 -0.16795,-0.72347 -0.2713,-1.49862 -0.0904,-0.78806 -0.0904,-1.26607 v -0.73639 q -0.47801,1.11105 -1.33067,2.23501 -0.85266,1.11104 -1.98954,1.86035 -1.13688,0.7493 -2.49338,0.7493 -1.62781,0 -2.75177,-1.43402 -1.12396,-1.44693 -1.12396,-4.18578 0,-1.53737 0.45217,-2.98431 0.45216,-1.45986 1.39526,-2.62258 0.94309,-1.16272 2.40295,-1.84743 1.45986,-0.68471 3.46232,-0.68471 1.40818,0 2.79052,0.16795 1.39526,0.15503 2.49338,0.41341 v 6.00738 q 0,2.44171 0.23255,4.10827 0.23254,1.65364 0.6072,2.73885 z m -4.53461,-9.43094 v -0.85266 q -0.2713,-0.0646 -0.78806,-0.15503 -0.51676,-0.10335 -1.34359,-0.10335 -1.3565,0 -2.13165,0.7493 -0.77514,0.74931 -1.09812,1.95079 -0.32298,1.20147 -0.32298,2.54506 0,1.13688 0.41341,1.84743 0.42633,0.69763 1.00769,0.69763 0.54261,0 1.12396,-0.5426 0.59428,-0.5426 1.1498,-1.38235 0.55553,-0.83974 1.00769,-1.76991 0.45217,-0.93018 0.71055,-1.73116 0.2713,-0.8139 0.2713,-1.25315 z m 16.22638,5.80067 v 2.89388 q -0.91725,0.58136 -1.76991,0.8139 -0.85266,0.24546 -1.55029,0.24546 -1.2144,0 -2.22209,-0.32297 -1.00769,-0.3359 -1.61488,-1.16272 -0.59428,-0.83974 -0.59428,-2.32544 0,-3.39772 0,-6.78252 0,-3.39772 0,-6.78253 h 3.61734 q 0,2.76469 0,5.5423 0,2.76468 0,5.54229 0,1.45985 0.16795,2.1704 0.16795,0.71055 0.52969,0.93018 0.36173,0.2067 0.94309,0.2067 0.93017,0 2.49338,-0.96893 z m -0.19378,-6.7696 h -10.0123 v -2.58382 h 10.0123 z m 2.19624,3.84989 q 0,-2.22209 0.8785,-3.75946 0.89142,-1.53737 2.36419,-2.32544 1.47278,-0.80098 3.21686,-0.80098 1.83451,0 3.22977,0.80098 1.39526,0.78807 2.18333,2.32544 0.78806,1.53737 0.78806,3.75946 0,2.22208 -0.89142,3.75945 -0.87849,1.52445 -2.35127,2.32544 -1.47278,0.78806 -3.21685,0.78806 -1.8216,0 -3.21686,-0.78806 -1.39526,-0.80099 -2.19624,-2.32544 -0.78807,-1.53737 -0.78807,-3.75945 z m 3.61735,0 q 0,1.84743 0.68471,2.90679 0.69763,1.05937 2.0283,1.05937 1.25315,0 1.97662,-1.05937 0.73639,-1.05936 0.73639,-2.90679 0,-1.86035 -0.69763,-2.91972 -0.68472,-1.05936 -2.01538,-1.05936 -1.25315,0 -1.98954,1.05936 -0.72347,1.05937 -0.72347,2.91972 z m 15.69669,6.54998 h -3.61734 v -7.94525 q 0,-1.8991 -0.21963,-3.22977 -0.2067,-1.33067 -0.42633,-2.00246 h 3.55275 q 0.10336,0.2713 0.19379,0.74931 0.10335,0.47801 0.19379,0.96893 0.0904,0.49093 0.12919,0.80099 0.94309,-1.34359 2.06705,-2.05414 1.12396,-0.72347 2.00246,-0.72347 1.21439,0 1.95078,0.67179 0.73639,0.65888 1.07229,1.757 0.33589,1.09812 0.33589,2.41587 l -2.88095,0.45217 q -0.0646,-0.8785 -0.42633,-1.40818 -0.36174,-0.5426 -1.18856,-0.5426 -0.42633,0 -0.98185,0.478 -0.55552,0.47801 -1.04645,1.22732 -0.478,0.73638 -0.71055,1.53737 z m 29.59765,0 h -3.43648 q -0.18086,-0.31006 -0.34881,-1.02061 -0.16795,-0.72347 -0.2713,-1.49862 -0.0904,-0.78806 -0.0904,-1.26607 v -0.73639 q -0.478,1.11105 -1.33066,2.23501 -0.85266,1.11104 -1.98954,1.86035 -1.13688,0.7493 -2.49339,0.7493 -1.6278,0 -2.75176,-1.43402 -1.12397,-1.44693 -1.12397,-4.18578 0,-1.53737 0.45217,-2.98431 0.45217,-1.45986 1.39526,-2.62258 0.9431,-1.16272 2.40296,-1.84743 1.45985,-0.68471 3.46231,-0.68471 1.40818,0 2.79053,0.16795 1.39526,0.15503 2.49338,0.41341 v 6.00738 q 0,2.44171 0.23254,4.10827 0.23255,1.65364 0.6072,2.73885 z m -4.5346,-9.43094 v -0.85266 q -0.2713,-0.0646 -0.78806,-0.15503 -0.51677,-0.10335 -1.34359,-0.10335 -1.3565,0 -2.13165,0.7493 -0.77515,0.74931 -1.09812,1.95079 -0.32298,1.20147 -0.32298,2.54506 0,1.13688 0.41341,1.84743 0.42633,0.69763 1.00769,0.69763 0.5426,0 1.12396,-0.5426 0.59428,-0.5426 1.1498,-1.38235 0.55552,-0.83974 1.00769,-1.76991 0.45217,-0.93018 0.71055,-1.73116 0.2713,-0.8139 0.2713,-1.25315 z m 20.10211,9.43094 h -3.61735 q 0,-0.86558 0,-1.88619 0,-1.03353 0,-2.04122 0,-1.02061 0,-1.86035 0,-0.83974 0,-1.31774 0,-1.78284 -0.49092,-2.46755 -0.47801,-0.69763 -1.51154,-0.69763 -0.73639,0 -1.4211,0.42633 -0.68471,0.41341 -1.20147,1.04644 -0.50385,0.63304 -0.73639,1.30483 v 7.49308 h -3.61735 q 0,-1.17564 0,-2.67426 0,-1.51153 0,-2.93263 0,-1.4211 0,-2.33836 0,-1.8991 -0.21962,-3.22977 -0.20671,-1.33067 -0.42633,-2.00246 h 3.55275 q 0.10335,0.25838 0.19379,0.71055 0.10335,0.45217 0.19378,0.91726 0.0904,0.46509 0.12919,0.76222 1.22732,-1.40818 2.41587,-2.02829 1.18856,-0.62012 2.55798,-0.62012 1.9637,0 3.07475,1.35651 1.12396,1.34358 1.12396,4.00491 0,0.58136 0,1.55029 0,0.96894 0,2.11874 0,1.14979 0,2.29959 0,1.1498 0,2.10582 z m 16.01966,-20.67055 v 13.82343 q 0,2.44171 0.2713,4.10827 0.28422,1.65364 0.69763,2.73885 h -3.55275 q -0.14211,-0.31006 -0.34881,-0.9431 -0.19379,-0.64595 -0.36174,-1.31775 -0.86558,1.24024 -1.98954,1.91203 -1.12396,0.67179 -2.46754,0.67179 -1.58905,0 -2.80345,-0.77514 -1.20147,-0.77515 -1.88618,-2.18333 -0.6718,-1.4211 -0.6718,-3.30729 0,-2.28668 0.85266,-3.96616 0.85266,-1.67948 2.28668,-2.59674 1.44694,-0.93017 3.19102,-0.93017 0.76222,0 1.61488,0.3359 0.85266,0.33589 1.5503,0.76222 v -3.61734 q 0,-1.55029 -0.0775,-2.72593 -0.0646,-1.17564 -0.24546,-1.98954 z m -3.61734,15.50291 v -4.36665 q -0.89142,-0.43925 -1.57613,-0.62012 -0.68472,-0.18087 -1.58905,-0.18087 -0.67179,0 -1.30483,0.47801 -0.62012,0.47801 -1.02061,1.36942 -0.38757,0.89142 -0.38757,2.15749 0,3.74654 2.45463,3.74654 0.68471,0 1.3565,-0.37466 0.67179,-0.37465 1.2144,-0.96893 0.5426,-0.59428 0.85266,-1.24023 z m 14.211,-15.50291 h 3.81113 q 0,1.38234 0,2.94555 0,1.56321 0,2.99723 0,1.43402 0,2.46755 0,1.03353 0,1.34358 0.8785,-1.07228 2.06705,-1.79575 1.18856,-0.72347 2.76469,-0.72347 1.27899,0 2.24792,0.82682 0.98185,0.82682 1.53737,2.28668 0.55552,1.45986 0.55552,3.34605 0,2.20916 -0.76222,3.84989 -0.74931,1.64072 -2.13165,2.54506 -1.36943,0.90433 -3.2427,0.90433 -1.87326,0 -3.53983,-0.38757 -1.65364,-0.40049 -3.1135,-0.77515 0,-3.43647 0,-6.87295 0,-3.4494 0,-6.88588 0,-0.93017 -0.0129,-2.06705 0,-1.13688 -0.0387,-2.20917 -0.0388,-1.07228 -0.14211,-1.79575 z m 3.81113,13.11288 v 4.45708 q 0.7493,0.34882 1.27899,0.50385 0.52968,0.14211 1.17564,0.14211 1.40818,0 2.31251,-1.12396 0.91726,-1.12396 0.91726,-2.94556 0,-1.73115 -0.58136,-2.73884 -0.56844,-1.00769 -1.64073,-1.00769 -0.99477,0 -1.9637,0.76222 -0.95601,0.74931 -1.49861,1.95079 z m 25.46353,7.55767 h -3.43648 q -0.18086,-0.31006 -0.34881,-1.02061 -0.16795,-0.72347 -0.2713,-1.49862 -0.0904,-0.78806 -0.0904,-1.26607 v -0.73639 q -0.478,1.11105 -1.33066,2.23501 -0.85266,1.11104 -1.98954,1.86035 -1.13688,0.7493 -2.49339,0.7493 -1.6278,0 -2.75176,-1.43402 -1.12397,-1.44693 -1.12397,-4.18578 0,-1.53737 0.45217,-2.98431 0.45217,-1.45986 1.39526,-2.62258 0.9431,-1.16272 2.40296,-1.84743 1.45985,-0.68471 3.46231,-0.68471 1.40818,0 2.79053,0.16795 1.39526,0.15503 2.49338,0.41341 v 6.00738 q 0,2.44171 0.23254,4.10827 0.23255,1.65364 0.6072,2.73885 z m -4.5346,-9.43094 v -0.85266 q -0.2713,-0.0646 -0.78806,-0.15503 -0.51677,-0.10335 -1.34359,-0.10335 -1.3565,0 -2.13165,0.7493 -0.77514,0.74931 -1.09812,1.95079 -0.32298,1.20147 -0.32298,2.54506 0,1.13688 0.41341,1.84743 0.42633,0.69763 1.00769,0.69763 0.5426,0 1.12396,-0.5426 0.59428,-0.5426 1.1498,-1.38235 0.55552,-0.83974 1.00769,-1.76991 0.45217,-0.93018 0.71055,-1.73116 0.2713,-0.8139 0.2713,-1.25315 z m 17.3245,-2.97139 -0.50384,3.03598 q -0.72347,-0.37465 -1.83451,-0.80098 -1.09813,-0.42633 -2.44171,-0.42633 -1.13688,0 -1.57613,0.38757 -0.42633,0.38758 -0.42633,0.77515 0,0.31006 0.16795,0.52968 0.18087,0.21963 0.72347,0.41341 0.55552,0.18087 1.6924,0.41341 1.34358,0.25839 2.45463,0.73639 1.12396,0.46509 1.78283,1.25315 0.67179,0.78807 0.67179,2.01538 0,1.24023 -0.7493,2.235 -0.74931,0.99477 -2.0283,1.57613 -1.26607,0.58136 -2.8422,0.58136 -1.73116,0 -3.19102,-0.43925 -1.45985,-0.45216 -2.2996,-1.04644 l 0.71055,-3.16518 q 0.95602,0.78806 2.32544,1.26607 1.38234,0.47801 2.51922,0.47801 0.91726,0 1.4857,-0.34882 0.58136,-0.36173 0.58136,-0.8139 0,-0.56844 -0.59428,-0.99477 -0.59428,-0.43925 -2.44171,-0.83974 -1.83451,-0.40049 -2.80344,-0.95601 -0.95601,-0.55553 -1.30483,-1.25316 -0.34881,-0.69763 -0.34881,-1.51153 0,-0.47801 0.25838,-1.16272 0.25838,-0.69763 0.8785,-1.36942 0.63303,-0.68471 1.71823,-1.13688 1.09813,-0.46509 2.76469,-0.46509 1.57613,0 2.73885,0.3359 1.16272,0.32297 1.91202,0.69763 z m 14.72777,6.58873 h -9.92186 v -2.32543 h 6.62749 q 0,-1.35651 -0.59428,-1.9637 -0.58136,-0.62012 -1.73116,-0.62012 -1.39526,0 -2.07997,0.96893 -0.67179,0.95601 -0.67179,3.22977 0,2.05414 0.82682,2.99723 0.82682,0.9431 2.42879,0.9431 1.26607,0 2.48046,-0.29714 1.22732,-0.29714 2.42879,-1.00769 l 0.2713,2.91971 q -1.39526,0.71055 -2.70009,0.99477 -1.2919,0.29714 -2.80344,0.29714 -1.70532,0 -3.17809,-0.76222 -1.47278,-0.76223 -2.37712,-2.26084 -0.89142,-1.49862 -0.89142,-3.69486 0,-2.14457 0.77515,-3.7207 0.78807,-1.57613 2.235,-2.44171 1.44694,-0.8785 3.43648,-0.8785 1.62781,0 2.67425,0.56844 1.05937,0.55552 1.65365,1.49862 0.60719,0.94309 0.85266,2.11873 0.24546,1.16271 0.24546,2.37711 0,0.18087 0,0.52968 0.0129,0.34882 0.0129,0.52968 z m 20.30881,-6.705 -0.56844,3.12642 q -0.67179,-0.6072 -1.47277,-0.90434 -0.80099,-0.29714 -1.89911,-0.29714 -1.44694,0 -2.32544,1.12396 -0.86558,1.12396 -0.86558,3.01015 0,1.70532 0.81391,2.79052 0.82682,1.08521 2.37711,1.08521 1.16272,0 2.00246,-0.37466 0.83974,-0.37465 1.67948,-1.04644 l 0.38757,3.10058 q -0.87849,0.59428 -2.00246,0.90434 -1.12396,0.32297 -2.57089,0.32297 -1.73116,0 -3.16518,-0.77514 -1.43402,-0.77515 -2.28668,-2.26084 -0.85266,-1.49862 -0.85266,-3.61735 0,-2.01538 0.82682,-3.61734 0.83974,-1.61489 2.35128,-2.54507 1.52445,-0.94309 3.56566,-0.94309 1.27899,0 2.28668,0.2713 1.00769,0.2713 1.71824,0.64596 z m 2.45463,5.96862 q 0,-2.22209 0.8785,-3.75946 0.89141,-1.53737 2.36419,-2.32544 1.47278,-0.80098 3.21685,-0.80098 1.83451,0 3.22978,0.80098 1.39526,0.78807 2.18332,2.32544 0.78807,1.53737 0.78807,3.75946 0,2.22208 -0.89142,3.75945 -0.8785,1.52445 -2.35128,2.32544 -1.47277,0.78806 -3.21685,0.78806 -1.82159,0 -3.21685,-0.78806 -1.39526,-0.80099 -2.19625,-2.32544 -0.78806,-1.53737 -0.78806,-3.75945 z m 3.61734,0 q 0,1.84743 0.68471,2.90679 0.69764,1.05937 2.0283,1.05937 1.25315,0 1.97662,-1.05937 0.73639,-1.05936 0.73639,-2.90679 0,-1.86035 -0.69763,-2.91972 -0.68471,-1.05936 -2.01538,-1.05936 -1.25315,0 -1.98954,1.05936 -0.72347,1.05937 -0.72347,2.91972 z m 24.67547,6.54998 h -3.61735 q 0,-0.86558 0,-1.88619 0,-1.03353 0,-2.04122 0,-1.02061 0,-1.86035 0,-0.83974 0,-1.31774 0,-1.78284 -0.49092,-2.46755 -0.47801,-0.69763 -1.51154,-0.69763 -0.73639,0 -1.4211,0.42633 -0.68471,0.41341 -1.20147,1.04644 -0.50385,0.63304 -0.73639,1.30483 v 7.49308 h -3.61735 q 0,-1.17564 0,-2.67426 0,-1.51153 0,-2.93263 0,-1.4211 0,-2.33836 0,-1.8991 -0.21962,-3.22977 -0.20671,-1.33067 -0.42633,-2.00246 h 3.55275 q 0.10335,0.25838 0.19378,0.71055 0.10336,0.45217 0.19379,0.91726 0.0904,0.46509 0.12919,0.76222 1.22732,-1.40818 2.41587,-2.02829 1.18856,-0.62012 2.55798,-0.62012 1.9637,0 3.07475,1.35651 1.12396,1.34358 1.12396,4.00491 0,0.58136 0,1.55029 0,0.96894 0,2.11874 0,1.14979 0,2.29959 0,1.1498 0,2.10582 z m 11.76928,-13.17748 h 3.97908 q -0.36174,0.73639 -0.74931,1.61489 -0.38757,0.86558 -0.72347,1.66656 -0.32297,0.78807 -0.52968,1.30483 -0.24546,0.62012 -0.65887,1.62781 -0.4005,1.00768 -0.8785,2.22208 -0.47801,1.20147 -0.96893,2.44171 -0.47801,1.22731 -0.90434,2.2996 h -3.16518 q -0.56844,-1.43402 -1.21439,-3.03599 -0.63304,-1.61489 -1.22732,-3.08766 -0.58136,-1.47278 -0.98185,-2.46755 -0.2067,-0.52968 -0.5426,-1.31775 -0.3359,-0.78806 -0.72347,-1.65364 -0.37465,-0.8785 -0.73639,-1.61489 h 4.03076 l 3.02307,9.43094 z m 17.15657,7.36388 h -9.92186 v -2.32543 h 6.62749 q 0,-1.35651 -0.59428,-1.9637 -0.58136,-0.62012 -1.73115,-0.62012 -1.39527,0 -2.07998,0.96893 -0.67179,0.95601 -0.67179,3.22977 0,2.05414 0.82682,2.99723 0.82682,0.9431 2.42879,0.9431 1.26607,0 2.48047,-0.29714 1.22731,-0.29714 2.42879,-1.00769 l 0.2713,2.91971 q -1.39527,0.71055 -2.70009,0.99477 -1.29191,0.29714 -2.80345,0.29714 -1.70532,0 -3.17809,-0.76222 -1.47278,-0.76223 -2.37712,-2.26084 -0.89141,-1.49862 -0.89141,-3.69486 0,-2.14457 0.77514,-3.7207 0.78807,-1.57613 2.235,-2.44171 1.44694,-0.8785 3.43648,-0.8785 1.62781,0 2.67426,0.56844 1.05936,0.55552 1.65364,1.49862 0.6072,0.94309 0.85266,2.11873 0.24546,1.16271 0.24546,2.37711 0,0.18087 0,0.52968 0.0129,0.34882 0.0129,0.52968 z m 6.78251,5.8136 h -3.61734 v -7.94525 q 0,-1.8991 -0.21963,-3.22977 -0.2067,-1.33067 -0.42633,-2.00246 h 3.55275 q 0.10335,0.2713 0.19379,0.74931 0.10335,0.47801 0.19378,0.96893 0.0904,0.49093 0.1292,0.80099 0.94309,-1.34359 2.06705,-2.05414 1.12396,-0.72347 2.00246,-0.72347 1.21439,0 1.95078,0.67179 0.73639,0.65888 1.07229,1.757 0.33589,1.09812 0.33589,2.41587 l -2.88095,0.45217 q -0.0646,-0.8785 -0.42633,-1.40818 -0.36174,-0.5426 -1.18856,-0.5426 -0.42633,0 -0.98185,0.478 -0.55552,0.47801 -1.04645,1.22732 -0.478,0.73638 -0.71055,1.53737 z m 17.95753,-3.63027 v 2.89388 q -0.91725,0.58136 -1.76991,0.8139 -0.85266,0.24546 -1.55029,0.24546 -1.2144,0 -2.22209,-0.32297 -1.00768,-0.3359 -1.61488,-1.16272 -0.59428,-0.83974 -0.59428,-2.32544 0,-3.39772 0,-6.78252 0,-3.39772 0,-6.78253 h 3.61735 q 0,2.76469 0,5.5423 0,2.76468 0,5.54229 0,1.45985 0.16794,2.1704 0.16795,0.71055 0.52969,0.93018 0.36173,0.2067 0.94309,0.2067 0.93017,0 2.49338,-0.96893 z m -0.19378,-6.7696 h -10.0123 v -2.58382 h 10.0123 z m 14.08182,4.58627 h -9.92186 v -2.32543 h 6.62749 q 0,-1.35651 -0.59427,-1.9637 -0.58136,-0.62012 -1.73116,-0.62012 -1.39526,0 -2.07998,0.96893 -0.67179,0.95601 -0.67179,3.22977 0,2.05414 0.82682,2.99723 0.82683,0.9431 2.42879,0.9431 1.26607,0 2.48047,-0.29714 1.22731,-0.29714 2.42879,-1.00769 l 0.2713,2.91971 q -1.39526,0.71055 -2.70009,0.99477 -1.29191,0.29714 -2.80344,0.29714 -1.70532,0 -3.1781,-0.76222 -1.47278,-0.76223 -2.37711,-2.26084 -0.89142,-1.49862 -0.89142,-3.69486 0,-2.14457 0.77514,-3.7207 0.78807,-1.57613 2.23501,-2.44171 1.44694,-0.8785 3.43648,-0.8785 1.6278,0 2.67425,0.56844 1.05936,0.55552 1.65364,1.49862 0.6072,0.94309 0.85266,2.11873 0.24546,1.16271 0.24546,2.37711 0,0.18087 0,0.52968 0.0129,0.34882 0.0129,0.52968 z m 6.78251,5.8136 h -3.61734 v -7.94525 q 0,-1.8991 -0.21963,-3.22977 -0.2067,-1.33067 -0.42633,-2.00246 h 3.55275 q 0.10336,0.2713 0.19379,0.74931 0.10335,0.47801 0.19379,0.96893 0.0904,0.49093 0.12919,0.80099 0.94309,-1.34359 2.06705,-2.05414 1.12396,-0.72347 2.00246,-0.72347 1.2144,0 1.95078,0.67179 0.73639,0.65888 1.07229,1.757 0.3359,1.09812 0.3359,2.41587 l -2.88096,0.45217 q -0.0646,-0.8785 -0.42633,-1.40818 -0.36174,-0.5426 -1.18856,-0.5426 -0.42633,0 -0.98185,0.478 -0.55552,0.47801 -1.04645,1.22732 -0.478,0.73638 -0.71055,1.53737 z"
                 id="path3" />
        </g>
    </g>
</svg>
