<?xml version="1.0" encoding="UTF-8" standalone="no"?>
<!-- Created with Inkscape (http://www.inkscape.org/) -->

<svg
   width="432mm"
   height="432mm"
   viewBox="0 0 432 432"
   version="1.1"
   id="svg1"
   inkscape:version="1.3.2 (091e20ef0f, 2023-11-25, custom)"
   sodipodi:docname="calculator-icon-mono.svg"
   inkscape:export-filename="icon.png"
   inkscape:export-xdpi="96"
   inkscape:export-ydpi="96"
   xmlns:inkscape="http://www.inkscape.org/namespaces/inkscape"
   xmlns:sodipodi="http://sodipodi.sourceforge.net/DTD/sodipodi-0.dtd"
   xmlns="http://www.w3.org/2000/svg"
   xmlns:svg="http://www.w3.org/2000/svg">
  <sodipodi:namedview
     id="namedview1"
     pagecolor="#ffffff"
     bordercolor="#000000"
     borderopacity="0.25"
     inkscape:showpageshadow="2"
     inkscape:pageopacity="0.0"
     inkscape:pagecheckerboard="0"
     inkscape:deskcolor="#d1d1d1"
     inkscape:document-units="mm"
     inkscape:zoom="0.25"
     inkscape:cx="-168"
     inkscape:cy="684"
     inkscape:window-width="1920"
     inkscape:window-height="944"
     inkscape:window-x="0"
     inkscape:window-y="32"
     inkscape:window-maximized="1"
     inkscape:current-layer="layer1"
     showgrid="false" />
  <defs
     id="defs1" />
  <g
     inkscape:label="Camada 1"
     inkscape:groupmode="layer"
     id="layer1">
    <path
       id="rect15"
       style="fill:#d40000;stroke-width:9.51968"
       d="M 0 0 L 0 431.99999 L 431.99999 431.99999 L 431.99999 0 L 0 0 z M 120.01438 87.564164 L 143.49408 87.564164 L 143.49408 125.57838 L 181.5083 125.57838 L 181.5083 149.05809 L 143.49408 149.05809 L 143.49408 187.63144 L 120.01438 187.63144 L 120.01438 149.05809 L 82.000163 149.05809 L 82.000163 125.57838 L 120.01438 125.57838 L 120.01438 87.564164 z M 248.25513 126.69718 L 349.99931 126.69718 L 349.99931 149.0586 L 248.25513 149.0586 L 248.25513 126.69718 z M 299.12696 214.73986 C 304.86638 214.73986 309.56263 216.56624 313.21499 220.2186 C 316.86735 223.87096 318.69321 228.56668 318.69321 234.30611 C 318.69321 240.12007 316.86735 244.8534 313.21499 248.50576 C 309.56263 252.08359 304.86638 253.87236 299.12696 253.87236 C 293.46207 253.87236 288.76635 252.08359 285.03945 248.50576 C 281.38709 244.8534 279.56071 240.12007 279.56071 234.30611 C 279.56071 228.56668 281.38709 223.87096 285.03945 220.2186 C 288.76635 216.56624 293.46207 214.73986 299.12696 214.73986 z M 103.13117 234.52987 L 131.86585 263.37617 L 160.37626 234.86525 L 176.92408 251.41308 L 148.41316 279.92348 L 177.03571 308.4344 L 160.37626 325.09385 L 131.86585 296.47131 L 103.46655 324.87009 L 86.919242 308.32278 L 115.31803 279.92348 L 86.472241 251.0777 L 103.13117 234.52987 z M 249.37289 268.96653 L 348.88155 268.96653 L 348.88155 291.32795 L 249.37289 291.32795 L 249.37289 268.96653 z M 299.12696 305.30385 C 304.86638 305.30385 309.56263 307.12971 313.21499 310.78206 C 316.86735 314.43443 318.69321 319.13067 318.69321 324.87009 C 318.69321 330.68406 316.86735 335.41738 313.21499 339.06974 C 309.56263 342.64757 304.86638 344.43634 299.12696 344.43634 C 293.46207 344.43634 288.76635 342.64757 285.03945 339.06974 C 281.38709 335.41738 279.56071 330.68406 279.56071 324.87009 C 279.56071 319.13067 281.38709 314.43443 285.03945 310.78206 C 288.76635 307.12971 293.46207 305.30385 299.12696 305.30385 z " />
  </g>
</svg>
