<?xml version="1.0" encoding="UTF-8" standalone="no"?>
<!-- Created with Inkscape (http://www.inkscape.org/) -->

<svg
     width="15.553mm"
     height="15.553mm"
     viewBox="0 0 15.553 15.553"
     version="1.1"
     id="svg1"
     inkscape:version="1.3.2 (091e20ef0f, 2023-11-25, custom)"
     sodipodi:docname="calendar_icon_white_on_red.svg"
     xmlns:inkscape="http://www.inkscape.org/namespaces/inkscape"
     xmlns:sodipodi="http://sodipodi.sourceforge.net/DTD/sodipodi-0.dtd"
     xmlns="http://www.w3.org/2000/svg"
     xmlns:svg="http://www.w3.org/2000/svg">
    <sodipodi:namedview
         id="namedview1"
         pagecolor="#ffffff"
         bordercolor="#000000"
         borderopacity="0.25"
         inkscape:showpageshadow="2"
         inkscape:pageopacity="0.0"
         inkscape:pagecheckerboard="0"
         inkscape:deskcolor="#d1d1d1"
         inkscape:document-units="mm"
         inkscape:zoom="7.7909517"
         inkscape:cx="18.097917"
         inkscape:cy="47.940228"
         inkscape:window-width="1920"
         inkscape:window-height="1014"
         inkscape:window-x="0"
         inkscape:window-y="0"
         inkscape:window-maximized="1"
         inkscape:current-layer="layer1" />
    <defs
         id="defs1" />
    <g
         inkscape:label="Camada 1"
         inkscape:groupmode="layer"
         id="layer1">
        <rect
             style="fill:#d40000;stroke-width:2.81212;-inkscape-stroke:none"
             id="rect3"
             width="15.553"
             height="5.1631646"
             x="0"
             y="0" />
        <rect
             style="fill:#ffffff;stroke-width:0.216224;-inkscape-stroke:none"
             id="rect1"
             width="15.5533"
             height="10.349375"
             x="-3.5527137e-15"
             y="5.2036257" />
        <rect
             style="fill:#666666;stroke-width:1.12963;-inkscape-stroke:none"
             id="rect2"
             width="15.553"
             height="0.36000001"
             x="0"
             y="5.0409999" />
        <path
             id="path9"
             style="fill:#ffffff;stroke-width:0.856328;-inkscape-stroke:none"
             d="M 2.5517822,0 V 1.4986165 A 0.54000002,0.54000002 0 0 0 2.2520589,1.9807576 0.54000002,0.54000002 0 0 0 2.7920776,2.5207764 0.54000002,0.54000002 0 0 0 3.3320964,1.9807576 0.54000002,0.54000002 0 0 0 3.0318563,1.497583 V 0 Z" />
        <path
             id="path11"
             style="fill:#ffffff;stroke-width:0.856328;-inkscape-stroke:none"
             d="M 12.558272,0 V 1.4986165 A 0.54000002,0.54000002 0 0 0 12.258552,1.9807576 0.54000002,0.54000002 0 0 0 12.798566,2.5207764 0.54000002,0.54000002 0 0 0 13.33858,1.9807576 0.54000002,0.54000002 0 0 0 13.038342,1.497583 V 0 Z" />
        <path
             d="m 4.7748641,14.259448 q -0.2820468,0 -0.5540205,-0.04029 Q 3.9488699,14.178864 3.6869693,14.078133 3.4351418,13.977402 3.2135336,13.806159 3.0019985,13.634916 2.8408289,13.413308 2.6897324,13.181627 2.5990745,12.919726 2.5184897,12.657825 2.4983435,12.385852 h 1.3397223 q 0.020146,0.161169 0.090658,0.312266 0.080585,0.151096 0.2115351,0.2619 0.1309503,0.100731 0.2921199,0.151097 0.1712427,0.04029 0.3424854,0.04029 0.1510965,0 0.302193,-0.05037 0.1510965,-0.05037 0.2619006,-0.151097 0.1108041,-0.110804 0.1813158,-0.241754 0.080585,-0.141023 0.1208772,-0.282047 0.050365,-0.151096 0.060439,-0.302193 0.020146,-0.161169 0.020146,-0.322339 0,-0.151097 -0.020146,-0.302193 -0.010073,-0.151097 -0.050365,-0.29212 -0.040292,-0.151097 -0.1108041,-0.282047 -0.070512,-0.141023 -0.1813158,-0.241754 -0.100731,-0.110804 -0.2518275,-0.16117 -0.1410234,-0.05036 -0.2921199,-0.05036 -0.1410234,0 -0.2921199,0.02015 -0.1410234,0.02015 -0.2719737,0.09066 -0.1208772,0.06044 -0.2115351,0.181316 -0.090658,0.120877 -0.100731,0.2619 H 2.6091476 V 6.775135 H 6.7491917 V 7.883176 H 3.9387968 v 1.5814767 q 0.2115351,-0.060439 0.4331433,-0.080585 0.2216082,-0.020146 0.4432164,-0.020146 0.3122661,0 0.6245322,0.060439 0.3122661,0.060439 0.5842398,0.2216082 0.2719737,0.1611696 0.4734357,0.4029235 0.2115351,0.241755 0.3324123,0.533875 0.1309503,0.282047 0.1712427,0.594313 0.050365,0.312266 0.050365,0.634605 0,0.312266 -0.050365,0.634605 -0.050365,0.312266 -0.1813158,0.604386 -0.1208772,0.29212 -0.3424854,0.533875 -0.2115351,0.241754 -0.4935819,0.402924 -0.2719737,0.151096 -0.5842398,0.211535 -0.3122661,0.06044 -0.6245322,0.06044 z m 6.0438639,0 q -0.282047,0 -0.554021,-0.04029 Q 9.9927337,14.178864 9.7308331,14.078133 9.4790056,13.977402 9.2573974,13.806159 9.0458623,13.634916 8.8846927,13.413308 8.7335962,13.181627 8.6429383,12.919726 8.5623535,12.657825 8.5422073,12.385852 h 1.3397223 q 0.020146,0.161169 0.090658,0.312266 0.080585,0.151096 0.2115355,0.2619 0.13095,0.100731 0.292119,0.151097 0.171243,0.04029 0.342486,0.04029 0.151096,0 0.302193,-0.05037 0.151096,-0.05037 0.2619,-0.151097 0.110805,-0.110804 0.181316,-0.241754 0.08058,-0.141023 0.120877,-0.282047 0.05037,-0.151096 0.06044,-0.302193 0.02015,-0.161169 0.02015,-0.322339 0,-0.151097 -0.02015,-0.302193 -0.01007,-0.151097 -0.05036,-0.29212 -0.04029,-0.151097 -0.110805,-0.282047 -0.07051,-0.141023 -0.181315,-0.241754 -0.100731,-0.110804 -0.251828,-0.16117 -0.141023,-0.05036 -0.29212,-0.05036 -0.141023,0 -0.29212,0.02015 -0.141023,0.02015 -0.271973,0.09066 -0.120878,0.06044 -0.211535,0.181316 -0.090658,0.120877 -0.1007314,0.2619 H 8.6530114 V 6.775135 H 12.793055 V 7.883176 H 9.9826606 v 1.5814767 q 0.2115354,-0.060439 0.4331434,-0.080585 0.221608,-0.020146 0.443216,-0.020146 0.312266,0 0.624532,0.060439 0.312267,0.060439 0.58424,0.2216082 0.271974,0.1611696 0.473436,0.4029235 0.211535,0.241755 0.332412,0.533875 0.130951,0.282047 0.171243,0.594313 0.05036,0.312266 0.05036,0.634605 0,0.312266 -0.05036,0.634605 -0.05037,0.312266 -0.181316,0.604386 -0.120877,0.29212 -0.342485,0.533875 -0.211535,0.241754 -0.493582,0.402924 -0.271974,0.151096 -0.58424,0.211535 -0.312266,0.06044 -0.624532,0.06044 z"
             id="text1"
             style="font-weight:800;font-size:10.0731px;line-height:1;font-family:'Iosevka Sezimal QP';-inkscape-font-specification:'Iosevka Sezimal QP, Ultra-Bold';text-align:center;text-decoration-color:#d40000;text-anchor:middle;stroke-width:1.58632"
             aria-label="55" />
        <path
             d="M 5.5880179,4.0593152 V 3.5936489 l 0.9990658,-1.130299 q 0.059267,-0.067733 0.1185333,-0.1354666 0.0635,-0.071967 0.1100666,-0.1481665 0.046567,-0.080433 0.071967,-0.1693332 0.029633,-0.0889 0.029633,-0.1820332 0,-0.084667 -0.021167,-0.1650998 -0.016933,-0.084667 -0.071967,-0.1523999 -0.0508,-0.067733 -0.1312332,-0.097367 -0.080433,-0.033867 -0.1650999,-0.033867 -0.0762,0 -0.1523998,0.021167 -0.071967,0.021167 -0.1269999,0.0762 -0.055033,0.0508 -0.084667,0.1227666 -0.0254,0.071967 -0.0254,0.1481665 v 0.0127 H 5.5795513 v -0.0254 q 0,-0.1185333 0.029633,-0.2328332 0.033867,-0.1185332 0.097367,-0.2158998 0.0635,-0.1015999 0.1566332,-0.1735665 0.093133,-0.0762 0.2031998,-0.11853325 0.1100666,-0.0465666 0.2243665,-0.0634999 0.1185332,-0.0169333 0.2370664,-0.0169333 0.1227666,0 0.2455332,0.0211667 0.1269998,0.0211666 0.2370664,0.0762 0.1142999,0.0508 0.2074332,0.1396999 0.093133,0.084666 0.1523999,0.1947331 0.059267,0.1100666 0.080433,0.2328332 0.0254,0.1227665 0.0254,0.2497664 0,0.1354666 -0.0381,0.2666998 Q 7.4041164,2.2262834 7.3363831,2.3448166 7.2686498,2.4633499 7.1797499,2.5691831 7.0950833,2.670783 7.0019501,2.772383 L 6.282284,3.5936489 h 1.1768657 v 0.4656663 z m 3.4755654,0.033867 q -0.1269999,0 -0.2539998,-0.021167 Q 8.6825836,4.0508485 8.5682837,4.0000486 8.4539838,3.9450153 8.3566172,3.8603487 8.263484,3.7714488 8.2042173,3.6613822 8.1449507,3.5470823 8.1195507,3.4243157 8.0941508,3.2973158 8.0941508,3.170316 V 1.8368171 q 0,-0.1269999 0.0254,-0.2497665 0.0254,-0.1269999 0.084667,-0.2370665 0.059267,-0.1142999 0.1523999,-0.1989664 0.097367,-0.0889 0.2116665,-0.1396999 0.1142999,-0.0550333 0.2412998,-0.0762 0.1269999,-0.0211667 0.2539998,-0.0211667 0.1269999,0 0.2539998,0.0211667 0.1269999,0.0211666 0.2412998,0.0762 0.1142999,0.0508 0.2074331,0.1396999 0.097367,0.084666 0.1566332,0.1989664 0.059267,0.1100666 0.084667,0.2370665 0.0254,0.1227666 0.0254,0.2497665 V 3.170316 q 0,0.1269998 -0.0254,0.2539997 -0.0254,0.1227666 -0.084667,0.2370665 -0.059267,0.1100666 -0.1566332,0.1989665 -0.093133,0.084667 -0.2074331,0.1396999 -0.1142999,0.0508 -0.2412998,0.071967 -0.1269999,0.021167 -0.2539998,0.021167 z M 8.6529503,2.5480165 9.4742163,2.0061503 V 1.8368171 q 0,-0.0889 -0.021167,-0.1735665 Q 9.431883,1.578584 9.3726164,1.5108507 9.3175831,1.4431174 9.2329165,1.4134841 9.1524832,1.3796175 9.0635833,1.3796175 q -0.0889,0 -0.1735665,0.033867 -0.080433,0.029633 -0.1396999,0.097367 -0.055033,0.067733 -0.0762,0.1523999 -0.021167,0.084666 -0.021167,0.1735665 z m 0.410633,1.0794991 q 0.0889,0 0.1693332,-0.029633 0.084667,-0.033867 0.1396999,-0.1016 0.059267,-0.067733 0.080433,-0.1523998 0.021167,-0.084667 0.021167,-0.1735665 V 2.4591166 L 8.6529503,3.0009828 V 3.170316 q 0,0.0889 0.021167,0.1735665 0.021167,0.084667 0.0762,0.1523998 0.059267,0.067733 0.1396999,0.1016 0.084667,0.029633 0.1735665,0.029633 z"
             id="text2"
             style="font-weight:800;font-size:4.23333px;line-height:1;font-family:'Iosevka Sezimal QP';-inkscape-font-specification:'Iosevka Sezimal QP, Ultra-Bold';text-align:center;text-decoration-color:#d40000;text-anchor:middle;fill:#ffffff"
             aria-label="20" />
    </g>
</svg>
