<?xml version="1.0" encoding="UTF-8" standalone="no"?>
<!-- Created with Inkscape (http://www.inkscape.org/) -->

<svg
     width="15.553mm"
     height="15.553mm"
     viewBox="0 0 15.553 15.553"
     version="1.1"
     id="svg1"
     inkscape:version="1.3.2 (091e20ef0f, 2023-11-25, custom)"
     sodipodi:docname="calendar_icon_white_on_black_sezimal_digits.svg"
     xmlns:inkscape="http://www.inkscape.org/namespaces/inkscape"
     xmlns:sodipodi="http://sodipodi.sourceforge.net/DTD/sodipodi-0.dtd"
     xmlns="http://www.w3.org/2000/svg"
     xmlns:svg="http://www.w3.org/2000/svg">
    <sodipodi:namedview
         id="namedview1"
         pagecolor="#ffffff"
         bordercolor="#000000"
         borderopacity="0.25"
         inkscape:showpageshadow="2"
         inkscape:pageopacity="0.0"
         inkscape:pagecheckerboard="0"
         inkscape:deskcolor="#d1d1d1"
         inkscape:document-units="mm"
         inkscape:zoom="7.7909517"
         inkscape:cx="20.729175"
         inkscape:cy="36.260012"
         inkscape:window-width="1920"
         inkscape:window-height="1014"
         inkscape:window-x="0"
         inkscape:window-y="0"
         inkscape:window-maximized="1"
         inkscape:current-layer="layer1" />
    <defs
         id="defs1" />
    <g
         inkscape:label="Camada 1"
         inkscape:groupmode="layer"
         id="layer1">
        <g
             id="g11">
            <rect
                 style="fill:#ffffff;stroke-width:0.265066;-inkscape-stroke:none"
                 id="rect1"
                 width="15.5533"
                 height="15.553"
                 x="-3.5527137e-15"
                 y="0" />
            <rect
                 style="fill:#000000;stroke-width:1.12963;-inkscape-stroke:none"
                 id="rect2"
                 width="15.553"
                 height="0.36000001"
                 x="0"
                 y="5.0409999" />
            <path
                 id="path9"
                 style="fill:#000000;stroke-width:0.856328;-inkscape-stroke:none"
                 d="M 2.5517822,0 V 1.4986165 A 0.54000002,0.54000002 0 0 0 2.2520589,1.9807576 0.54000002,0.54000002 0 0 0 2.7920776,2.5207764 0.54000002,0.54000002 0 0 0 3.3320964,1.9807576 0.54000002,0.54000002 0 0 0 3.0318563,1.497583 V 0 Z" />
            <path
                 id="path11"
                 style="fill:#000000;stroke-width:0.856328;-inkscape-stroke:none"
                 d="M 12.558272,0 V 1.4986165 A 0.54000002,0.54000002 0 0 0 12.258552,1.9807576 0.54000002,0.54000002 0 0 0 12.798566,2.5207764 0.54000002,0.54000002 0 0 0 13.33858,1.9807576 0.54000002,0.54000002 0 0 0 13.038342,1.497583 V 0 Z" />
        </g>
        <path
             d="m 4.7547179,14.259448 q -0.302193,0 -0.604386,-0.05037 Q 3.8481389,14.158717 3.5761652,14.03784 3.3041915,13.90689 3.0725102,13.705428 2.8408289,13.493893 2.6998055,13.231992 2.5587821,12.970092 2.4983435,12.667899 2.4379049,12.365706 2.4379049,12.063513 V 8.890486 q 0,-0.302193 0.060439,-0.5943129 0.060439,-0.302193 0.201462,-0.5640936 Q 2.8408289,7.4601058 3.0624371,7.2586438 3.2941184,7.0471087 3.5660921,6.9262315 3.8380658,6.7952812 4.1402588,6.7449157 q 0.302193,-0.050365 0.604386,-0.050365 0.302193,0 0.604386,0.050365 0.302193,0.050365 0.5741667,0.1813158 0.2719737,0.1208772 0.4935819,0.3324123 0.2316813,0.201462 0.3727047,0.4734357 0.1410234,0.2619006 0.201462,0.5640936 0.060439,0.2921199 0.060439,0.5943129 v 0.3928509 q 0,0.2719737 -0.030219,0.5338743 -0.030219,0.2619008 -0.1208772,0.5137278 -0.090658,0.251828 -0.2417544,0.483509 -0.1510965,0.221608 -0.3727047,0.382778 -0.2115351,0.151096 -0.4734357,0.221608 -0.2518275,0.06044 -0.5238012,0.06044 -0.2316813,0 -0.4734357,-0.05037 Q 4.5834752,11.378542 4.3820132,11.257664 4.1805512,11.126714 4.0193816,10.945398 3.8682851,10.764083 3.7675541,10.542474 v 1.521039 q 0,0.211535 0.050366,0.42307 0.060439,0.201462 0.1913889,0.362631 0.1309503,0.151097 0.3324123,0.231682 0.201462,0.07051 0.4129971,0.07051 0.1913889,0 0.3727047,-0.05037 0.1813158,-0.05037 0.3223392,-0.171243 0.1410234,-0.120877 0.2115351,-0.29212 0.080585,-0.181316 0.080585,-0.362631 v -0.03022 h 1.3296492 v 0.06044 q 0,0.282047 -0.080585,0.564094 -0.080585,0.271973 -0.2417544,0.513728 -0.1510965,0.231681 -0.3827778,0.412997 -0.2316813,0.171242 -0.4935819,0.282047 -0.2619006,0.100731 -0.5540205,0.141023 -0.2820468,0.04029 -0.5640936,0.04029 z m -0.010073,-3.888216 q 0.2115351,0 0.402924,-0.07051 0.201462,-0.08058 0.3324123,-0.231681 Q 5.6210045,9.9078691 5.67137,9.7064071 5.7217355,9.494872 5.7217355,9.2833369 V 8.890486 q 0,-0.2115351 -0.050366,-0.4129971 Q 5.6210045,8.2760269 5.4799811,8.1148573 5.3490308,7.9536877 5.1475688,7.883176 4.9561799,7.8025912 4.7446448,7.8025912 q -0.2115351,0 -0.4129971,0.080585 Q 4.1402588,7.9536877 3.9992354,8.1148573 3.8682851,8.2760269 3.8179196,8.4774889 3.7675541,8.6789509 3.7675541,8.890486 v 0.3928509 q 0,0.2115351 0.050366,0.4230702 0.050365,0.201462 0.1813158,0.3626319 0.1410234,0.151096 0.3324123,0.231681 0.201462,0.07051 0.4129971,0.07051 z m 6.0539372,3.888216 q -0.302193,0 -0.604386,-0.05037 Q 9.8920027,14.158717 9.620029,14.03784 9.3480553,13.90689 9.116374,13.705428 8.8846927,13.493893 8.7436693,13.231992 8.6026459,12.970092 8.5422073,12.667899 8.4817687,12.365706 8.4817687,12.063513 V 8.890486 q 0,-0.302193 0.060439,-0.5943129 0.060439,-0.302193 0.201462,-0.5640936 Q 8.8846927,7.4601058 9.1063009,7.2586438 9.3379822,7.0471087 9.6099559,6.9262315 9.8819296,6.7952812 10.184123,6.7449157 q 0.302193,-0.050365 0.604386,-0.050365 0.302193,0 0.604386,0.050365 0.302193,0.050365 0.574166,0.1813158 0.271974,0.1208772 0.493582,0.3324123 0.231681,0.201462 0.372705,0.4734357 0.141023,0.2619006 0.201462,0.5640936 0.06044,0.2921199 0.06044,0.5943129 v 0.3928509 q 0,0.2719737 -0.03022,0.5338743 -0.03022,0.2619008 -0.120877,0.5137278 -0.09066,0.251828 -0.241754,0.483509 -0.151097,0.221608 -0.372705,0.382778 -0.211535,0.151096 -0.473436,0.221608 -0.251827,0.06044 -0.523801,0.06044 -0.231681,0 -0.473436,-0.05037 -0.231681,-0.05037 -0.433143,-0.171243 -0.201462,-0.13095 -0.362632,-0.312266 -0.1510961,-0.181315 -0.2518271,-0.402924 v 1.521039 q 0,0.211535 0.050365,0.42307 0.060439,0.201462 0.1913886,0.362631 0.130951,0.151097 0.332413,0.231682 0.201462,0.07051 0.412997,0.07051 0.191389,0 0.372704,-0.05037 0.181316,-0.05037 0.32234,-0.171243 0.141023,-0.120877 0.211535,-0.29212 0.08058,-0.181316 0.08058,-0.362631 v -0.03022 h 1.32965 v 0.06044 q 0,0.282047 -0.08058,0.564094 -0.08059,0.271973 -0.241755,0.513728 -0.151096,0.231681 -0.382777,0.412997 -0.231682,0.171242 -0.493582,0.282047 -0.261901,0.100731 -0.554021,0.141023 -0.282047,0.04029 -0.564093,0.04029 z m -0.01007,-3.888216 q 0.211535,0 0.402924,-0.07051 0.201462,-0.08058 0.332412,-0.231681 0.141023,-0.1611699 0.191389,-0.3626319 0.05036,-0.2115351 0.05036,-0.4230702 V 8.890486 q 0,-0.2115351 -0.05036,-0.4129971 -0.05037,-0.201462 -0.191389,-0.3626316 -0.13095,-0.1611696 -0.332412,-0.2316813 -0.191389,-0.080585 -0.402924,-0.080585 -0.211536,0 -0.412998,0.080585 -0.191388,0.070512 -0.332412,0.2316813 -0.1309501,0.1611696 -0.1813156,0.3626316 -0.050365,0.201462 -0.050365,0.4129971 v 0.3928509 q 0,0.2115351 0.050365,0.4230702 0.050365,0.201462 0.1813156,0.3626319 0.141024,0.151096 0.332412,0.231681 0.201462,0.07051 0.412998,0.07051 z"
             id="text1"
             style="font-weight:800;font-size:10.0731px;line-height:1;font-family:'Iosevka Sezimal QP';-inkscape-font-specification:'Iosevka Sezimal QP, Ultra-Bold';text-align:center;text-decoration-color:#d40000;text-anchor:middle;stroke-width:1.58632"
             aria-label="󱸅󱸅" />
        <path
             d="M 5.5837846,4.0593152 V 2.416783 l 0.5587995,0 h 0.461433 c 0.036689,0 0.073378,-0.00564 0.1100665,-0.016933 0.039511,-0.011289 0.073378,-0.029633 0.1016,-0.055033 0.031045,-0.0254 0.056445,-0.055033 0.0762,-0.0889 0.019755,-0.033867 0.035278,-0.069144 0.046567,-0.1058332 0.011289,-0.039511 0.018344,-0.079022 0.021167,-0.1185333 0.00565,-0.039511 0.00847,-0.077611 0.00847,-0.1142999 0,-0.039511 -0.00282,-0.079022 -0.00847,-0.1185332 -0.00282,-0.039511 -0.00988,-0.077611 -0.021167,-0.1142999 -0.011289,-0.036689 -0.026811,-0.071966 -0.046567,-0.1058332 -0.019755,-0.033867 -0.045155,-0.0635 -0.0762,-0.0889 -0.028222,-0.0254 -0.062089,-0.043744 -0.1016,-0.055033 C 6.6773949,1.42054 6.6407061,1.4134843 6.6040171,1.4134843 H 5.6007179 V 0.94781782 h 1.0032992 c 0.084667,0 0.1679221,0.008467 0.2497664,0.0254 0.084667,0.0141111 0.1636888,0.0423333 0.2370665,0.0846666 0.0762,0.039511 0.1425221,0.091722 0.1989665,0.1566332 0.059267,0.062089 0.1058333,0.1312331 0.1396999,0.2074332 0.036689,0.0762 0.062089,0.1566332 0.0762,0.2412998 0.014111,0.084667 0.021167,0.1693331 0.021167,0.2539997 0,0.084667 -0.00706,0.1693332 -0.021167,0.2539998 -0.014111,0.081844 -0.039511,0.1622777 -0.0762,0.2412998 -0.033867,0.0762 -0.080433,0.1467555 -0.1396999,0.2116665 C 7.2333725,2.6863054 7.1670499,2.7371052 7.09085,2.7766163 7.017472,2.8161273 6.9384501,2.8443493 6.8537835,2.8612833 6.7719395,2.8753943 6.6886837,2.8824503 6.6040171,2.8824503 H 6.1425841 V 4.059316 Z m 3.4797987,0.033867 c -0.084667,0 -0.1693332,-0.00706 -0.2539998,-0.021167 C 8.7249169,4.0579041 8.6444836,4.0339152 8.5682837,4.0000486 8.4920838,3.9633597 8.4215283,3.9167931 8.3566172,3.8603487 8.2945284,3.8010821 8.2437284,3.7347599 8.2042173,3.6613822 8.1647062,3.5851823 8.136484,3.5061601 8.1195507,3.4243157 8.1026174,3.3396491 8.0941508,3.2549825 8.0941508,3.170316 V 1.8368171 c 0,-0.084667 0.00847,-0.1679221 0.0254,-0.2497665 0.016933,-0.084667 0.045156,-0.1636888 0.084667,-0.2370665 0.039511,-0.0762 0.090311,-0.1425221 0.1523999,-0.1989664 0.064911,-0.059267 0.1354668,-0.1058333 0.2116665,-0.1396999 0.0762,-0.0366889 0.1566332,-0.0620889 0.2412998,-0.0762 0.084667,-0.0141111 0.1693332,-0.0211667 0.2539998,-0.0211667 0.084667,0 0.1693332,0.007056 0.2539998,0.0211667 0.084667,0.0141111 0.1650999,0.0395111 0.2412998,0.0762 0.0762,0.033867 0.1453443,0.080433 0.2074331,0.1396999 0.064911,0.056444 0.1171224,0.1227661 0.1566332,0.1989664 0.039511,0.073378 0.067734,0.1523999 0.084667,0.2370665 0.01693,0.081844 0.0254,0.1650999 0.0254,0.2497665 V 3.170316 c 0,0.084666 -0.0085,0.1693331 -0.0254,0.2539997 -0.016934,0.081844 -0.045156,0.1608666 -0.084667,0.2370665 -0.039511,0.073378 -0.091722,0.1396999 -0.1566332,0.1989665 -0.062089,0.056445 -0.131233,0.1030113 -0.2074331,0.1396999 -0.0762,0.033867 -0.1566332,0.057856 -0.2412998,0.071967 -0.084667,0.014111 -0.1693334,0.021167 -0.2540003,0.021167 z m 0,-0.4656662 c 0.059267,0 0.1157111,-0.00988 0.1693332,-0.029633 0.056445,-0.022578 0.1030113,-0.056445 0.1396999,-0.1016 0.039511,-0.045155 0.066322,-0.095955 0.080433,-0.1523998 0.014111,-0.056445 0.021167,-0.1143002 0.021167,-0.1735665 V 1.8368171 c 0,-0.059267 -0.00706,-0.1171222 -0.021167,-0.1735665 C 9.4389385,1.6068062 9.4121275,1.5560062 9.3726164,1.5108507 9.3359275,1.4656952 9.2893609,1.4332396 9.2329165,1.4134841 9.1792943,1.3909064 9.1228499,1.3796175 9.0635833,1.3796175 c -0.059267,0 -0.1171222,0.011289 -0.1735665,0.033867 -0.053622,0.019755 -0.1001886,0.052211 -0.1396999,0.097367 -0.036689,0.045155 -0.062089,0.095955 -0.0762,0.1523999 -0.014111,0.056444 -0.021167,0.1142995 -0.021167,0.1735665 V 3.170316 c 0,0.059267 0.00706,0.1171222 0.021167,0.1735665 0.014111,0.056445 0.039511,0.1072446 0.0762,0.1523998 0.039511,0.045155 0.086078,0.079022 0.1396999,0.1016 0.056445,0.019755 0.1143002,0.029633 0.1735665,0.029634 z m 0,-0.7662327 c -0.028222,0 -0.055033,-0.00423 -0.080433,-0.0127 -0.0254,-0.011289 -0.046567,-0.028222 -0.0635,-0.0508 -0.016933,-0.022578 -0.028222,-0.046567 -0.033867,-0.071967 -0.00565,-0.028222 -0.00847,-0.056444 -0.00847,-0.084667 v -0.275166 c 0,-0.028222 0.00282,-0.055033 0.00847,-0.080433 0.00565,-0.028222 0.016936,-0.053622 0.033867,-0.0762 0.016933,-0.022578 0.0381,-0.0381 0.0635,-0.046567 0.0254,-0.011289 0.052211,-0.016933 0.080433,-0.016933 0.028222,0 0.055033,0.00564 0.080433,0.016933 0.0254,0.00847 0.046567,0.023989 0.0635,0.046567 0.016933,0.022578 0.028222,0.047978 0.033867,0.0762 0.00565,0.0254 0.00847,0.052211 0.00847,0.080433 v 0.2751664 c 0,0.028222 -0.00282,0.056444 -0.00847,0.084667 -0.00565,0.0254 -0.016936,0.049389 -0.033867,0.071967 -0.016933,0.022578 -0.0381,0.039511 -0.0635,0.0508 -0.0254,0.00847 -0.052211,0.0127 -0.080433,0.0127 z"
             id="text2"
             style="font-weight:800;font-size:4.23333px;line-height:1;font-family:'Iosevka Sezimal QP';-inkscape-font-specification:'Iosevka Sezimal QP, Ultra-Bold';text-align:center;text-decoration-color:#d40000;text-anchor:middle"
             aria-label="󱸂󱸀"
             sodipodi:nodetypes="cccsccsccsccsccsccsccccsscccccscccssccccssccccsssccccssccccsssccssssccsccssssccsscscsscscscscsscscs" />
    </g>
</svg>
