<?xml version="1.0" encoding="UTF-8" standalone="no"?>
<!-- Created with Inkscape (http://www.inkscape.org/) -->

<svg
     width="432mm"
     height="432mm"
     viewBox="0 0 431.99999 431.99999"
     version="1.1"
     id="svg1"
     inkscape:version="1.4 (e7c3feb100, 2024-10-09)"
     sodipodi:docname="calendar_icon_white_on_red.svg"
     xmlns:inkscape="http://www.inkscape.org/namespaces/inkscape"
     xmlns:sodipodi="http://sodipodi.sourceforge.net/DTD/sodipodi-0.dtd"
     xmlns="http://www.w3.org/2000/svg"
     xmlns:svg="http://www.w3.org/2000/svg">
    <sodipodi:namedview
         id="namedview1"
         pagecolor="#ffffff"
         bordercolor="#000000"
         borderopacity="0.25"
         inkscape:showpageshadow="2"
         inkscape:pageopacity="0.0"
         inkscape:pagecheckerboard="0"
         inkscape:deskcolor="#d1d1d1"
         inkscape:document-units="mm"
         inkscape:zoom="0.3"
         inkscape:cx="598.33333"
         inkscape:cy="1003.3333"
         inkscape:window-width="1920"
         inkscape:window-height="1014"
         inkscape:window-x="0"
         inkscape:window-y="0"
         inkscape:window-maximized="1"
         inkscape:current-layer="layer1" />
    <defs
         id="defs1" />
    <g
         inkscape:label="Camada 1"
         inkscape:groupmode="layer"
         id="layer1">
        <rect
             style="fill:#2a7fff;stroke-width:52.0724;-inkscape-stroke:none"
             id="rect3"
             width="287.99445"
             height="95.608009"
             x="72"
             y="72" />
        <rect
             style="fill:#ffffff;stroke:#666666;stroke-width:4.95728;stroke-dasharray:none;stroke-opacity:1"
             id="rect1"
             width="283.03677"
             height="191.68547"
             x="74.478615"
             y="168.33588" />
        <rect
             style="fill:#666666;stroke-width:20.9175;-inkscape-stroke:none"
             id="rect2"
             width="287.99445"
             height="6.6662378"
             x="72"
             y="165.34584" />
        <path
             id="path9"
             style="fill:#ffffff;stroke-width:15.8568;-inkscape-stroke:none"
             d="m 119.25127,72.000002 v 27.750372 a 9.9991647,9.999357 0 0 0 -5.54996,8.927966 9.9991647,9.999357 0 0 0 9.99951,9.9997 9.9991647,9.999357 0 0 0 9.99951,-9.9997 9.9991647,9.999357 0 0 0 -5.55954,-8.947104 V 72.000002 Z" />
        <path
             id="path11"
             style="fill:#ffffff;stroke-width:15.8568;-inkscape-stroke:none"
             d="m 304.54116,72.000002 v 27.750372 a 9.9991647,9.999357 0 0 0 -5.54991,8.927966 9.9991647,9.999357 0 0 0 9.99942,9.9997 9.9991647,9.999357 0 0 0 9.99943,-9.9997 9.9991647,9.999357 0 0 0 -5.5595,-8.947104 V 72.000002 Z" />
        <path
             d="m 160.41602,336.04686 q -5.22265,0 -10.25878,-0.74606 -5.03613,-0.74614 -9.88574,-2.61141 -4.66308,-1.86526 -8.76659,-5.03623 -3.91699,-3.17096 -6.90137,-7.27455 -2.79785,-4.29011 -4.47655,-9.13982 -1.49219,-4.8497 -1.86524,-9.88592 h 24.8076 q 0.37304,2.98442 1.67871,5.78234 1.49219,2.79789 3.91699,4.84968 2.4248,1.86527 5.40918,2.79792 3.17089,0.74606 6.34179,0.74606 2.79785,0 5.5957,-0.93272 2.79785,-0.93272 4.8496,-2.79791 2.05176,-2.0518 3.35742,-4.47664 1.49219,-2.61137 2.23828,-5.22276 0.93261,-2.79789 1.11915,-5.5958 0.37304,-2.98442 0.37304,-5.96886 0,-2.79791 -0.37304,-5.59581 -0.18652,-2.79791 -0.93261,-5.40928 -0.74608,-2.79791 -2.05175,-5.22275 -1.30567,-2.61137 -3.35742,-4.47664 -1.86523,-2.0518 -4.66308,-2.98444 -2.61133,-0.93253 -5.40918,-0.93253 -2.61133,0 -5.40918,0.37312 -2.61132,0.37313 -5.03613,1.67878 -2.23827,1.11919 -3.91698,3.35749 -1.67872,2.23832 -1.86524,4.84969 h -24.62109 v -78.71442 h 76.66107 v 20.51796 h -52.04 v 29.28472 q 3.91699,-1.11917 8.02051,-1.49222 4.10351,-0.37305 8.20702,-0.37305 5.78222,0 11.56445,1.11917 5.78222,1.11917 10.81835,4.10359 5.03613,2.98443 8.76659,7.46106 3.91699,4.47666 6.15527,9.88594 2.4248,5.22276 3.1709,11.00509 0.9326,5.78233 0.9326,11.75119 0,5.78233 -0.9326,11.75118 -0.93261,5.78234 -3.35742,11.19162 -2.23828,5.40928 -6.34179,9.88594 -3.91699,4.47663 -9.13965,7.46107 -5.03612,2.79789 -10.81835,3.91706 -5.78222,1.11919 -11.56444,1.11919 z m 111.91405,0 q -5.22266,0 -10.25879,-0.74606 -5.03612,-0.74614 -9.88573,-2.61141 -4.66308,-1.86526 -8.76659,-5.03623 -3.91699,-3.17096 -6.90136,-7.27455 -2.79785,-4.29011 -4.47656,-9.13982 -1.49219,-4.8497 -1.86524,-9.88592 h 24.8076 q 0.37304,2.98442 1.67871,5.78234 1.49219,2.79789 3.917,4.84968 2.4248,1.86527 5.40916,2.79792 3.1709,0.74606 6.3418,0.74606 2.79784,0 5.5957,-0.93272 2.79784,-0.93272 4.84959,-2.79791 2.05178,-2.0518 3.35743,-4.47664 1.49209,-2.61137 2.23827,-5.22276 0.9327,-2.79789 1.11917,-5.5958 0.37312,-2.98442 0.37312,-5.96886 0,-2.79791 -0.37312,-5.59581 -0.18647,-2.79791 -0.93252,-5.40928 -0.74604,-2.79791 -2.05177,-5.22275 -1.30563,-2.61137 -3.3574,-4.47664 -1.86524,-2.0518 -4.66309,-2.98444 -2.61132,-0.93253 -5.40918,-0.93253 -2.61132,0 -5.40918,0.37312 -2.61132,0.37313 -5.03612,1.67878 -2.23829,1.11919 -3.91698,3.35749 -1.67872,2.23832 -1.86524,4.84969 h -24.62119 v -78.71442 h 76.66107 v 20.51796 h -52.04 v 29.28472 q 3.917,-1.11917 8.02051,-1.49222 4.10351,-0.37305 8.20702,-0.37305 5.78222,0 11.56444,1.11917 5.78224,1.11917 10.81835,4.10359 5.03614,2.98443 8.7666,7.46106 3.91699,4.47666 6.15527,9.88594 2.42481,5.22276 3.1709,11.00509 0.93251,5.78233 0.93251,11.75119 0,5.78233 -0.93251,11.75118 -0.9327,5.78234 -3.35742,11.19162 -2.23828,5.40928 -6.34179,9.88594 -3.91699,4.47663 -9.13964,7.46107 -5.03614,2.79789 -10.81836,3.91706 -5.78222,1.11919 -11.56444,1.11919 z"
             id="text1"
             style="font-weight:800;font-size:10.0731px;line-height:1;font-family:'Iosevka Sezimal QP';-inkscape-font-specification:'Iosevka Sezimal QP, Ultra-Bold';text-align:center;text-decoration-color:#d40000;text-anchor:middle;stroke-width:29.3741"
             aria-label="55" />
        <path
             d="m 175.47316,147.16767 v -8.6229 l 18.49968,-20.93011 q 1.09744,-1.25424 2.19487,-2.50848 1.17583,-1.33264 2.0381,-2.74365 0.86228,-1.4894 1.33261,-3.1356 0.54872,-1.64619 0.54872,-3.37077 0,-1.5678 -0.39195,-3.0572 -0.31355,-1.56781 -1.33261,-2.822042 -0.94066,-1.254234 -2.43004,-1.802976 -1.48938,-0.627126 -3.05715,-0.627126 -1.411,0 -2.82199,0.391956 -1.33261,0.391956 -2.35165,1.41102 -1.01904,0.940678 -1.56778,2.273308 -0.47033,1.33264 -0.47033,2.74365 v 0.23517 h -10.34725 v -0.47034 q 0,-2.19492 0.54871,-4.31145 0.62712,-2.194918 1.80294,-3.997887 1.17583,-1.881358 2.90038,-3.213987 1.72454,-1.411021 3.76264,-2.194919 2.0381,-0.862289 4.15459,-1.175849 2.19487,-0.313559 4.38975,-0.313559 2.27327,0 4.54653,0.39195 2.35165,0.391949 4.38975,1.411021 2.11649,0.94068 3.84104,2.586869 1.72454,1.567788 2.82198,3.605936 1.09745,2.038139 1.48938,4.311445 0.47033,2.27331 0.47033,4.62501 0,2.50848 -0.7055,4.93857 -0.6271,2.43009 -1.88132,4.62501 -1.25421,2.19492 -2.90037,4.15467 -1.56777,1.88135 -3.29232,3.76271 l -13.32603,15.20765 h 21.79199 v 8.6229 z m 64.35695,0.62713 q -2.35166,0 -4.70331,-0.39196 -2.35165,-0.39195 -4.46814,-1.33263 -2.11649,-1.01907 -3.91942,-2.58687 -1.72455,-1.64619 -2.82199,-3.68433 -1.09744,-2.11653 -1.56777,-4.38983 -0.47033,-2.3517 -0.47033,-4.7034 v -24.69284 q 0,-2.35169 0.47033,-4.625 0.47034,-2.351702 1.56778,-4.389841 1.09745,-2.116529 2.82199,-3.684326 1.80294,-1.64619 3.91942,-2.586869 2.11649,-1.019069 4.46814,-1.41102 2.35165,-0.391951 4.70331,-0.391951 2.35165,0 4.7033,0.391951 2.35166,0.391949 4.46814,1.41102 2.11649,0.940681 3.84104,2.586869 1.80294,1.567788 2.90037,3.684326 1.09745,2.038139 1.56778,4.389841 0.47033,2.27331 0.47033,4.625 v 24.69284 q 0,2.3517 -0.47033,4.7034 -0.47033,2.2733 -1.56778,4.38983 -1.09745,2.03814 -2.90037,3.68433 -1.72454,1.56781 -3.84104,2.58687 -2.11648,0.94068 -4.46814,1.33264 -2.35165,0.39195 -4.70331,0.39195 z m -7.60368,-28.61234 15.20736,-10.03392 v -3.1356 q 0,-1.64619 -0.39195,-3.21398 -0.39194,-1.5678 -1.48938,-2.822042 -1.01905,-1.254239 -2.58681,-1.802969 -1.48939,-0.627119 -3.13554,-0.627119 -1.64616,0 -3.21393,0.627127 -1.48937,0.548724 -2.58682,1.802976 -1.01904,1.254237 -1.41099,2.822037 -0.39195,1.56779 -0.39195,3.21399 z m 7.60368,19.98943 q 1.64616,0 3.13554,-0.54872 1.56777,-0.62713 2.58681,-1.88136 1.09745,-1.25423 1.48938,-2.82204 0.39195,-1.5678 0.39195,-3.21398 v -13.16952 l -15.20736,10.03391 v 3.1356 q 0,1.64619 0.39195,3.21399 0.39195,1.5678 1.41099,2.82203 1.09745,1.25424 2.58682,1.88137 1.56778,0.54872 3.21392,0.54872 z"
             id="text2"
             style="font-weight:800;font-size:4.23333px;line-height:1;font-family:'Iosevka Sezimal QP';-inkscape-font-specification:'Iosevka Sezimal QP, Ultra-Bold';text-align:center;text-decoration-color:#d40000;text-anchor:middle;fill:#ffffff;stroke-width:18.5171"
             aria-label="20" />
    </g>
</svg>
