<?xml version="1.0" encoding="UTF-8" standalone="no"?>
<!-- Created with Inkscape (http://www.inkscape.org/) -->

<svg
     width="155.552mm"
     height="155.552mm"
     viewBox="0 0 155.552 155.552"
     version="1.1"
     id="svg1"
     inkscape:version="1.3.2 (091e20ef0f, 2023-11-25, custom)"
     sodipodi:docname="circle_fraction_12.svg"
     xmlns:inkscape="http://www.inkscape.org/namespaces/inkscape"
     xmlns:sodipodi="http://sodipodi.sourceforge.net/DTD/sodipodi-0.dtd"
     xmlns="http://www.w3.org/2000/svg"
     xmlns:svg="http://www.w3.org/2000/svg">
    <sodipodi:namedview
         id="namedview1"
         pagecolor="#ffffff"
         bordercolor="#000000"
         borderopacity="0.25"
         inkscape:showpageshadow="2"
         inkscape:pageopacity="0.0"
         inkscape:pagecheckerboard="0"
         inkscape:deskcolor="#d1d1d1"
         inkscape:document-units="mm"
         inkscape:zoom="0.68862935"
         inkscape:cx="396.43968"
         inkscape:cy="482.8432"
         inkscape:window-width="1920"
         inkscape:window-height="1014"
         inkscape:window-x="0"
         inkscape:window-y="0"
         inkscape:window-maximized="1"
         inkscape:current-layer="layer1" />
    <defs
         id="defs1" />
    <g
         inkscape:label="Camada 1"
         inkscape:groupmode="layer"
         id="layer1">
        <path
             id="ellipse19"
             style="vector-effect:none;fill:#ffdd55;stroke-width:2.13086;stop-color:#000000"
             transform="rotate(-45)"
             d="M 77.776004,109.99187 A 77.776001,77.775993 0 0 1 3.2127784e-6,187.76786 77.776001,77.775993 0 0 1 -77.775998,109.99187 77.776001,77.775993 0 0 1 3.2127784e-6,32.215874 77.776001,77.775993 0 0 1 77.776004,109.99187 Z" />
        <path
             id="path19"
             style="vector-effect:none;fill:#ffdd55;stroke-width:2.13086;stop-color:#000000"
             transform="rotate(-45)"
             d="M 54.995941,164.9878 A 77.776001,77.775993 0 0 1 3.2127784e-6,187.76786 v -77.77599 z" />
        <path
             id="path20"
             style="vector-effect:none;fill:#ffdd55;stroke-width:2.13086;stop-color:#000000"
             transform="rotate(-45)"
             d="M -54.995935,164.9878 A 77.776001,77.775993 0 0 1 -77.775998,109.99187 H 3.2127784e-6 Z" />
        <path
             id="path21"
             style="vector-effect:none;fill:#ffdd55;stroke-width:2.13086;stop-color:#000000"
             transform="rotate(-45)"
             d="M -54.995935,54.995936 A 77.776001,77.775993 0 0 1 3.2127784e-6,32.215874 v 77.775996 z" />
        <path
             id="path22"
             style="vector-effect:none;fill:#ffeeaa;stroke-width:2.13086;stop-color:#000000"
             transform="rotate(-45)"
             d="M 77.776004,109.99187 A 77.776001,77.775993 0 0 1 54.995941,164.9878 L 3.2127784e-6,109.99187 Z" />
        <path
             id="path23"
             style="vector-effect:none;fill:#ffeeaa;stroke-width:2.13086;stop-color:#000000"
             transform="rotate(-45)"
             d="M 3.2127784e-6,187.76786 A 77.776001,77.775993 0 0 1 -54.995935,164.9878 L 3.2127784e-6,109.99187 Z" />
        <path
             id="path24"
             style="vector-effect:none;fill:#ffeeaa;stroke-width:2.13086;stop-color:#000000"
             transform="rotate(-45)"
             d="M -77.775998,109.99187 A 77.776001,77.775993 0 0 1 -54.995935,54.995936 L 3.2127784e-6,109.99187 Z" />
        <path
             id="ellipse24"
             style="vector-effect:none;fill:#ffeeaa;stroke-width:2.13086;stop-color:#000000"
             transform="rotate(-45)"
             d="M 3.2127784e-6,32.215874 A 77.776001,77.775993 0 0 1 54.995939,54.995932 L 3.2127784e-6,109.99187 Z" />
        <path
             id="path72-8-54"
             style="fill:#ffffff;stroke-width:0.585487"
             d="M 90.738613,77.776016 A 12.962666,12.962666 0 0 1 77.775948,90.738682 12.962666,12.962666 0 0 1 64.813282,77.776016 12.962666,12.962666 0 0 1 77.775948,64.813351 12.962666,12.962666 0 0 1 90.738613,77.776016 Z" />
        <path
             d="m 70.875396,82.872559 v -1.646256 h 1.865757 v -4.499767 l -0.740815,1.769726 -1.426756,-0.480158 2.167571,-5.226863 h 1.989226 v 8.437062 h 1.659975 v 1.646256 z m 7.929472,0 v -1.646256 l 3.127886,-3.539451 q 0.192063,-0.2195 0.384126,-0.439001 0.192063,-0.219501 0.34297,-0.466439 0.150907,-0.246939 0.23322,-0.521315 0.08231,-0.288095 0.08231,-0.576189 0,-0.246939 -0.05488,-0.493877 -0.04116,-0.246939 -0.192063,-0.452721 -0.137188,-0.205782 -0.370407,-0.301813 -0.23322,-0.109751 -0.480158,-0.109751 -0.219501,0 -0.439002,0.06859 -0.205782,0.06859 -0.370407,0.23322 -0.150907,0.150907 -0.219501,0.370408 -0.06859,0.205782 -0.06859,0.425282 v 0.04116 H 78.77743 v -0.09603 q 0,-0.384126 0.09603,-0.754534 0.10975,-0.384126 0.315532,-0.699659 0.205782,-0.329251 0.507596,-0.576189 0.315532,-0.246939 0.672221,-0.397845 0.356689,-0.150907 0.740815,-0.205782 0.384126,-0.05488 0.768253,-0.05488 0.411564,0 0.809409,0.06859 0.411564,0.06859 0.781971,0.246939 0.370408,0.178344 0.672222,0.466439 0.301813,0.274376 0.493876,0.644784 0.192064,0.356688 0.260658,0.768252 0.08231,0.397846 0.08231,0.80941 0,0.439001 -0.10975,0.864284 -0.10975,0.425283 -0.329251,0.809409 -0.219501,0.384127 -0.507596,0.727097 -0.274376,0.329251 -0.562471,0.644783 l -0.02744,0.04116 h -0.01372 l -2.16757,2.455665 h 3.662919 v 1.646256 z"
             id="text73-5-0"
             style="font-weight:900;font-size:13.7188px;line-height:1.5;font-family:'Iosevka Sezimal QP';-inkscape-font-specification:'Iosevka Sezimal QP, Heavy';text-align:center;text-decoration-color:#d40000;text-anchor:middle;stroke-width:0.571617"
             aria-label="12" />
        <path
             d="m -53.871977,40.498364 q -0.320106,0 -0.640212,-0.05335 -0.320106,-0.04268 -0.618871,-0.170724 -0.288096,-0.138712 -0.533511,-0.362786 -0.234744,-0.224075 -0.394797,-0.5015 -0.149383,-0.277425 -0.213404,-0.597531 -0.06402,-0.320106 -0.06402,-0.640212 v -3.361113 q 0,-0.320106 0.06402,-0.640212 0.06402,-0.320106 0.213404,-0.597531 0.160053,-0.277426 0.394797,-0.5015 0.245415,-0.224074 0.533511,-0.352116 0.298765,-0.138713 0.618871,-0.181394 0.320106,-0.05335 0.640212,-0.05335 0.320106,0 0.640212,0.05335 0.320106,0.04268 0.608202,0.181394 0.298765,0.128042 0.53351,0.352116 0.245414,0.224074 0.394797,0.5015 0.160053,0.277425 0.224074,0.597531 0.06402,0.320106 0.06402,0.640212 v 3.361113 q 0,0.320106 -0.06402,0.640212 -0.06402,0.320106 -0.224074,0.597531 -0.149383,0.277425 -0.394797,0.5015 -0.234745,0.224074 -0.53351,0.362786 -0.288096,0.128043 -0.608202,0.170724 -0.320106,0.05335 -0.640212,0.05335 z m -0.906967,-3.990655 1.813934,-1.205733 v -0.490829 q 0,-0.192064 -0.04268,-0.384127 -0.04268,-0.202734 -0.170723,-0.352117 -0.117372,-0.160053 -0.309436,-0.234744 -0.192063,-0.07469 -0.384127,-0.07469 -0.192063,0 -0.384127,0.07469 -0.192064,0.07469 -0.320106,0.234744 -0.117372,0.149383 -0.160053,0.352117 -0.04268,0.192063 -0.04268,0.384127 z m 0.906967,2.710231 q 0.192064,0 0.384127,-0.07469 0.192064,-0.07469 0.309436,-0.224074 0.128043,-0.160053 0.170723,-0.352117 0.04268,-0.202733 0.04268,-0.394797 v -1.696562 l -1.813934,1.205733 v 0.490829 q 0,0.192064 0.04268,0.394797 0.04268,0.192064 0.160053,0.352117 0.128042,0.149383 0.320106,0.224074 0.192064,0.07469 0.384127,0.07469 z m 6.498156,3.105028 h -2.326103 q 0.277425,-1.152382 0.416137,-2.326104 0.138713,-1.173722 0.138713,-2.358114 h 1.216403 q 0,1.184392 0.138713,2.358114 0.138712,1.173722 0.416137,2.326104 z m 4.172044,-1.824604 q -0.320106,0 -0.640212,-0.05335 -0.320106,-0.04268 -0.618871,-0.170724 -0.288096,-0.138712 -0.53351,-0.362786 -0.234745,-0.224075 -0.394798,-0.5015 -0.149382,-0.277425 -0.213404,-0.597531 -0.06402,-0.320106 -0.06402,-0.640212 v -3.361113 q 0,-0.320106 0.06402,-0.640212 0.06402,-0.320106 0.213404,-0.597531 0.160053,-0.277426 0.394798,-0.5015 0.245414,-0.224074 0.53351,-0.352116 0.298765,-0.138713 0.618871,-0.181394 0.320106,-0.05335 0.640212,-0.05335 0.320107,0 0.640213,0.05335 0.320106,0.04268 0.608201,0.181394 0.298766,0.128042 0.53351,0.352116 0.245415,0.224074 0.394797,0.5015 0.160053,0.277425 0.224075,0.597531 0.06402,0.320106 0.06402,0.640212 v 3.361113 q 0,0.320106 -0.06402,0.640212 -0.06402,0.320106 -0.224075,0.597531 -0.149382,0.277425 -0.394797,0.5015 -0.234744,0.224074 -0.53351,0.362786 -0.288095,0.128043 -0.608201,0.170724 -0.320106,0.05335 -0.640213,0.05335 z m -0.906967,-3.990655 1.813935,-1.205733 v -0.490829 q 0,-0.192064 -0.04268,-0.384127 -0.04268,-0.202734 -0.170723,-0.352117 -0.117373,-0.160053 -0.309436,-0.234744 -0.192064,-0.07469 -0.384128,-0.07469 -0.192063,0 -0.384127,0.07469 -0.192063,0.07469 -0.320106,0.234744 -0.117372,0.149383 -0.160053,0.352117 -0.04268,0.192063 -0.04268,0.384127 z m 0.906967,2.710231 q 0.192064,0 0.384128,-0.07469 0.192063,-0.07469 0.309436,-0.224074 0.128042,-0.160053 0.170723,-0.352117 0.04268,-0.202733 0.04268,-0.394797 v -1.696562 l -1.813935,1.205733 v 0.490829 q 0,0.192064 0.04268,0.394797 0.04268,0.192064 0.160053,0.352117 0.128043,0.149383 0.320106,0.224074 0.192064,0.07469 0.384127,0.07469 z m 6.807593,1.195062 v -1.856615 h -2.784923 v -5.985982 h 1.557849 v 4.705558 h 1.227074 v -3.21173 h 1.557849 v 6.348769 z m 6.028667,0.08536 q -0.309436,0 -0.618872,-0.04268 -0.309436,-0.04268 -0.597531,-0.149383 -0.277425,-0.117372 -0.53351,-0.298766 -0.245415,-0.192063 -0.426808,-0.448148 -0.170723,-0.256085 -0.256085,-0.55485 -0.08536,-0.298766 -0.08536,-0.608202 v -0.06402 h 1.557849 v 0.03201 q 0,0.181393 0.06402,0.352116 0.07469,0.170723 0.213404,0.288096 0.138713,0.117372 0.320106,0.170723 0.181393,0.04268 0.362787,0.04268 0.192064,0 0.373457,-0.05335 0.192064,-0.06402 0.330776,-0.202734 0.138713,-0.138713 0.202734,-0.320106 0.06402,-0.192064 0.06402,-0.394798 0,-0.181393 -0.05335,-0.352116 -0.05335,-0.170723 -0.160053,-0.320106 -0.09603,-0.149383 -0.245414,-0.256085 -0.138713,-0.117372 -0.309436,-0.181393 -0.170723,-0.06402 -0.352117,-0.07469 -0.181393,-0.01067 -0.362787,-0.01067 v -1.280424 q 0.245415,0 0.49083,-0.04268 0.245414,-0.05335 0.426808,-0.202734 0.192063,-0.160053 0.288095,-0.394797 0.106702,-0.234745 0.106702,-0.480159 0,-0.160053 -0.05335,-0.330776 -0.04268,-0.170724 -0.149383,-0.298766 -0.106702,-0.128042 -0.266755,-0.192064 -0.160053,-0.06402 -0.330776,-0.06402 -0.160053,0 -0.320106,0.06402 -0.160053,0.05335 -0.266755,0.181394 -0.106702,0.117372 -0.160053,0.277425 -0.04268,0.160053 -0.04268,0.330776 v 0.03201 h -1.557849 v -0.08536 q 0,-0.288095 0.07469,-0.576191 0.07469,-0.298765 0.224074,-0.54418 0.160053,-0.256085 0.384128,-0.448148 0.234744,-0.192064 0.501499,-0.309436 0.277425,-0.117372 0.565521,-0.160053 0.298765,-0.04268 0.597531,-0.04268 0.298766,0 0.597531,0.05335 0.298766,0.04268 0.565521,0.170723 0.277425,0.117373 0.501499,0.320106 0.234745,0.202734 0.384127,0.458819 0.149383,0.256085 0.224075,0.55485 0.07469,0.288096 0.07469,0.586861 0,0.266755 -0.06402,0.53351 -0.06402,0.256085 -0.202734,0.49083 -0.128042,0.224074 -0.330776,0.416137 -0.192064,0.192064 -0.426808,0.320106 0.266755,0.128043 0.490829,0.320106 0.234744,0.192064 0.384127,0.448149 0.160053,0.245415 0.234745,0.53351 0.08536,0.288095 0.08536,0.586861 0,0.309436 -0.08536,0.618872 -0.08536,0.309435 -0.256085,0.57619 -0.160053,0.266755 -0.405468,0.480159 -0.245414,0.202734 -0.53351,0.330777 -0.288095,0.117372 -0.608201,0.160053 -0.309436,0.05335 -0.629542,0.05335 z"
             id="text68-8-8-5-92"
             style="font-weight:900;font-size:10.6702px;line-height:1;font-family:'Iosevka Sezimal QP';-inkscape-font-specification:'Iosevka Sezimal QP, Heavy';text-align:center;text-decoration-color:#d40000;text-anchor:middle;fill:#333333;stroke-width:0.571617"
             transform="rotate(-67.5)"
             aria-label="0󱹮043" />
        <path
             d="m 33.513198,40.498409 q -0.320106,0 -0.640212,-0.05335 -0.320106,-0.04268 -0.618872,-0.170723 -0.288095,-0.138712 -0.53351,-0.362787 -0.234744,-0.224074 -0.394797,-0.501499 -0.149383,-0.277425 -0.213404,-0.597531 -0.06402,-0.320106 -0.06402,-0.640212 v -3.361113 q 0,-0.320106 0.06402,-0.640212 0.06402,-0.320106 0.213404,-0.597532 0.160053,-0.277425 0.394797,-0.501499 0.245415,-0.224074 0.53351,-0.352117 0.298766,-0.138712 0.618872,-0.181393 0.320106,-0.05335 0.640212,-0.05335 0.320106,0 0.640212,0.05335 0.320106,0.04268 0.608201,0.181393 0.298766,0.128043 0.53351,0.352117 0.245415,0.224074 0.394798,0.501499 0.160053,0.277426 0.224074,0.597532 0.06402,0.320106 0.06402,0.640212 v 3.361113 q 0,0.320106 -0.06402,0.640212 -0.06402,0.320106 -0.224074,0.597531 -0.149383,0.277425 -0.394798,0.501499 -0.234744,0.224075 -0.53351,0.362787 -0.288095,0.128043 -0.608201,0.170723 -0.320106,0.05335 -0.640212,0.05335 z m -0.906967,-3.990655 1.813934,-1.205732 v -0.490829 q 0,-0.192064 -0.04268,-0.384128 -0.04268,-0.202733 -0.170723,-0.352116 -0.117372,-0.160053 -0.309436,-0.234745 -0.192064,-0.07469 -0.384127,-0.07469 -0.192064,0 -0.384127,0.07469 -0.192064,0.07469 -0.320106,0.234745 -0.117373,0.149383 -0.160053,0.352116 -0.04268,0.192064 -0.04268,0.384128 z m 0.906967,2.710231 q 0.192063,0 0.384127,-0.07469 0.192064,-0.07469 0.309436,-0.224074 0.128042,-0.160053 0.170723,-0.352117 0.04268,-0.202734 0.04268,-0.394797 v -1.696562 l -1.813934,1.205733 v 0.490829 q 0,0.192063 0.04268,0.394797 0.04268,0.192064 0.160053,0.352117 0.128042,0.149383 0.320106,0.224074 0.192063,0.07469 0.384127,0.07469 z m 6.498156,3.105029 H 37.68525 q 0.277426,-1.152382 0.416138,-2.326104 0.138713,-1.173722 0.138713,-2.358114 h 1.216403 q 0,1.184392 0.138712,2.358114 0.138713,1.173722 0.416138,2.326104 z m 2.027334,-1.909966 v -1.280424 h 1.451147 v -3.499826 l -0.576191,1.376456 -1.1097,-0.373457 1.685891,-4.065346 h 1.547179 v 6.562173 h 1.291094 v 1.280424 z m 8.578845,0.08536 q -0.309436,0 -0.618871,-0.04268 -0.309436,-0.04268 -0.597532,-0.149383 -0.277425,-0.117372 -0.53351,-0.298766 -0.245414,-0.192063 -0.426808,-0.448148 -0.170723,-0.256085 -0.256084,-0.554851 -0.08536,-0.298765 -0.08536,-0.608201 v -0.06402 h 1.557849 v 0.03201 q 0,0.181394 0.06402,0.352117 0.07469,0.170723 0.213404,0.288095 0.138713,0.117373 0.320106,0.170724 0.181394,0.04268 0.362787,0.04268 0.192064,0 0.373457,-0.05335 0.192064,-0.06402 0.330776,-0.202733 0.138713,-0.138713 0.202734,-0.320106 0.06402,-0.192064 0.06402,-0.394798 0,-0.181393 -0.05335,-0.352116 -0.05335,-0.170724 -0.160053,-0.320107 -0.09603,-0.149382 -0.245414,-0.256084 -0.138713,-0.117373 -0.309436,-0.181394 -0.170723,-0.06402 -0.352117,-0.07469 -0.181393,-0.01067 -0.362786,-0.01067 v -1.280424 q 0.245414,0 0.490829,-0.04268 0.245414,-0.05335 0.426808,-0.202734 0.192063,-0.160053 0.288095,-0.394797 0.106702,-0.234745 0.106702,-0.480159 0,-0.160053 -0.05335,-0.330777 -0.04268,-0.170723 -0.149383,-0.298765 -0.106702,-0.128043 -0.266755,-0.192064 -0.160053,-0.06402 -0.330776,-0.06402 -0.160053,0 -0.320106,0.06402 -0.160053,0.05335 -0.266755,0.181394 -0.106702,0.117372 -0.160053,0.277425 -0.04268,0.160053 -0.04268,0.330776 v 0.03201 h -1.557849 v -0.08536 q 0,-0.288095 0.07469,-0.576191 0.07469,-0.298765 0.224074,-0.54418 0.160053,-0.256085 0.384127,-0.448148 0.234744,-0.192064 0.501499,-0.309436 0.277426,-0.117372 0.565521,-0.160053 0.298766,-0.04268 0.597531,-0.04268 0.298766,0 0.597531,0.05335 0.298766,0.04268 0.565521,0.170723 0.277425,0.117372 0.501499,0.320106 0.234745,0.202734 0.384128,0.458819 0.149382,0.256085 0.224074,0.55485 0.07469,0.288096 0.07469,0.586861 0,0.266755 -0.06402,0.53351 -0.06402,0.256085 -0.202734,0.490829 -0.128042,0.224075 -0.330776,0.416138 -0.192064,0.192064 -0.426808,0.320106 0.266755,0.128043 0.490829,0.320106 0.234745,0.192064 0.384127,0.448149 0.160053,0.245414 0.234745,0.53351 0.08536,0.288095 0.08536,0.586861 0,0.309436 -0.08536,0.618871 -0.08536,0.309436 -0.256085,0.576191 -0.160053,0.266755 -0.405468,0.480159 -0.245414,0.202734 -0.53351,0.330776 -0.288095,0.117373 -0.608201,0.160053 -0.309436,0.05335 -0.629542,0.05335 z"
             id="text68-8-8-5-92-9"
             style="font-weight:900;font-size:10.6702px;line-height:1;font-family:'Iosevka Sezimal QP';-inkscape-font-specification:'Iosevka Sezimal QP, Heavy';text-align:center;text-decoration-color:#d40000;text-anchor:middle;fill:#333333;stroke-width:0.571617"
             transform="rotate(-22.5)"
             aria-label="0󱹮13" />
        <path
             d="m 89.839334,-19.028828 q -0.320106,0 -0.640212,-0.05335 -0.320106,-0.04268 -0.618871,-0.170723 -0.288096,-0.138712 -0.53351,-0.362787 -0.234745,-0.224074 -0.394798,-0.501499 -0.149382,-0.277425 -0.213404,-0.597531 -0.06402,-0.320106 -0.06402,-0.640212 v -3.361113 q 0,-0.320106 0.06402,-0.640212 0.06402,-0.320106 0.213404,-0.597532 0.160053,-0.277425 0.394798,-0.501499 0.245414,-0.224074 0.53351,-0.352117 0.298765,-0.138712 0.618871,-0.181393 0.320106,-0.05335 0.640212,-0.05335 0.320106,0 0.640213,0.05335 0.320106,0.04268 0.608201,0.181393 0.298766,0.128043 0.53351,0.352117 0.245415,0.224074 0.394797,0.501499 0.160053,0.277426 0.224075,0.597532 0.06402,0.320106 0.06402,0.640212 v 3.361113 q 0,0.320106 -0.06402,0.640212 -0.06402,0.320106 -0.224075,0.597531 -0.149382,0.277425 -0.394797,0.501499 -0.234744,0.224075 -0.53351,0.362787 -0.288095,0.128043 -0.608201,0.170723 -0.320107,0.05335 -0.640213,0.05335 z m -0.906967,-3.990654 1.813935,-1.205733 v -0.490829 q 0,-0.192064 -0.04268,-0.384128 -0.04268,-0.202733 -0.170723,-0.352116 -0.117373,-0.160053 -0.309436,-0.234745 -0.192064,-0.07469 -0.384128,-0.07469 -0.192063,0 -0.384127,0.07469 -0.192063,0.07469 -0.320106,0.234745 -0.117372,0.149383 -0.160053,0.352116 -0.04268,0.192064 -0.04268,0.384128 z m 0.906967,2.71023 q 0.192064,0 0.384128,-0.07469 0.192063,-0.07469 0.309436,-0.224074 0.128042,-0.160053 0.170723,-0.352117 0.04268,-0.202734 0.04268,-0.394797 v -1.696562 l -1.813935,1.205733 v 0.490829 q 0,0.192063 0.04268,0.394797 0.04268,0.192064 0.160053,0.352117 0.128043,0.149383 0.320106,0.224074 0.192064,0.07469 0.384127,0.07469 z m 6.498157,3.105029 h -2.326104 q 0.277425,-1.152382 0.416138,-2.326104 0.138712,-1.173722 0.138712,-2.358114 h 1.216403 q 0,1.184392 0.138713,2.358114 0.138712,1.173722 0.416138,2.326104 z m 1.792589,-1.909966 v -1.280424 l 2.43281,-2.752912 q 0.14938,-0.170723 0.29876,-0.341446 0.14938,-0.170723 0.26676,-0.362787 0.11737,-0.192064 0.18139,-0.405468 0.064,-0.224074 0.064,-0.448148 0,-0.192064 -0.0427,-0.384127 -0.032,-0.192064 -0.14938,-0.352117 -0.1067,-0.160053 -0.2881,-0.234744 -0.18139,-0.08536 -0.37345,-0.08536 -0.17073,0 -0.34145,0.05335 -0.16005,0.05335 -0.288097,0.181393 -0.117372,0.117373 -0.170723,0.288096 -0.05335,0.160053 -0.05335,0.330776 v 0.03201 H 98.10874 v -0.07469 q 0,-0.298765 0.07469,-0.586861 0.08536,-0.298765 0.245415,-0.54418 0.160053,-0.256085 0.394797,-0.448148 0.245415,-0.192064 0.52284,-0.309436 0.277425,-0.117372 0.576191,-0.160053 0.298766,-0.04268 0.597536,-0.04268 0.3201,0 0.62954,0.05335 0.3201,0.05335 0.6082,0.192064 0.28809,0.138712 0.52284,0.362786 0.23474,0.213404 0.38413,0.5015 0.14938,0.277425 0.20273,0.597531 0.064,0.309436 0.064,0.629542 0,0.341446 -0.0854,0.672222 -0.0854,0.330777 -0.25609,0.629542 -0.17072,0.298766 -0.39479,0.565521 -0.21341,0.256085 -0.43748,0.501499 l -0.0213,0.03201 h -0.0107 l -1.68589,1.909966 h 2.84894 v 1.280424 z m 6.63687,0 v -1.280424 h 1.45115 v -3.499826 l -0.57619,1.376456 -1.10971,-0.373457 1.6859,-4.065346 h 1.54718 v 6.562173 h 1.29109 v 1.280424 z m 8.57884,0.08536 q -0.30943,0 -0.61887,-0.04268 -0.30943,-0.04268 -0.59753,-0.149383 -0.27742,-0.117372 -0.53351,-0.298766 -0.24541,-0.192063 -0.42681,-0.448148 -0.17072,-0.256085 -0.25608,-0.554851 -0.0854,-0.298765 -0.0854,-0.608201 v -0.06402 h 1.55785 v 0.03201 q 0,0.181394 0.064,0.352117 0.0747,0.170723 0.2134,0.288095 0.13871,0.117373 0.32011,0.170724 0.18139,0.04268 0.36278,0.04268 0.19207,0 0.37346,-0.05335 0.19206,-0.06402 0.33078,-0.202733 0.13871,-0.138713 0.20273,-0.320106 0.064,-0.192064 0.064,-0.394798 0,-0.181393 -0.0533,-0.352116 -0.0533,-0.170724 -0.16005,-0.320106 -0.096,-0.149383 -0.24542,-0.256085 -0.13871,-0.117372 -0.30943,-0.181394 -0.17073,-0.06402 -0.35212,-0.07469 -0.18139,-0.01067 -0.36279,-0.01067 v -1.280424 q 0.24542,0 0.49083,-0.04268 0.24542,-0.05335 0.42681,-0.202734 0.19207,-0.160053 0.2881,-0.394797 0.1067,-0.234745 0.1067,-0.480159 0,-0.160053 -0.0534,-0.330777 -0.0427,-0.170723 -0.14938,-0.298765 -0.10671,-0.128043 -0.26676,-0.192064 -0.16005,-0.06402 -0.33078,-0.06402 -0.16005,0 -0.3201,0.06402 -0.16005,0.05335 -0.26676,0.181394 -0.1067,0.117372 -0.16005,0.277425 -0.0427,0.160053 -0.0427,0.330776 v 0.03201 h -1.55785 v -0.08536 q 0,-0.288095 0.0747,-0.576191 0.0747,-0.298765 0.22408,-0.54418 0.16005,-0.256085 0.38412,-0.448148 0.23475,-0.192064 0.5015,-0.309436 0.27743,-0.117372 0.56552,-0.160053 0.29877,-0.04268 0.59753,-0.04268 0.29877,0 0.59754,0.05335 0.29876,0.04268 0.56552,0.170723 0.27742,0.117372 0.5015,0.320106 0.23474,0.202734 0.38412,0.458819 0.14939,0.256085 0.22408,0.55485 0.0747,0.288096 0.0747,0.586861 0,0.266755 -0.064,0.53351 -0.064,0.256085 -0.20274,0.490829 -0.12804,0.224075 -0.33077,0.416138 -0.19207,0.192064 -0.42681,0.320106 0.26675,0.128043 0.49083,0.320106 0.23474,0.192064 0.38413,0.448149 0.16005,0.245414 0.23474,0.53351 0.0854,0.288095 0.0854,0.586861 0,0.309436 -0.0854,0.618871 -0.0854,0.309436 -0.25608,0.576191 -0.16006,0.266755 -0.40547,0.480159 -0.24542,0.202734 -0.53351,0.330776 -0.2881,0.117373 -0.6082,0.160053 -0.30944,0.05335 -0.62955,0.05335 z"
             id="text68-8-8-5-92-2"
             style="font-weight:900;font-size:10.6702px;line-height:1;font-family:'Iosevka Sezimal QP';-inkscape-font-specification:'Iosevka Sezimal QP, Heavy';text-align:center;text-decoration-color:#d40000;text-anchor:middle;fill:#333333;stroke-width:0.571617"
             transform="rotate(22.5)"
             aria-label="0󱹮213" />
        <path
             d="m 96.241505,-103.21292 q -0.320106,0 -0.640212,-0.0534 -0.320106,-0.0427 -0.618872,-0.17072 -0.288096,-0.13871 -0.53351,-0.36279 -0.234745,-0.22407 -0.394798,-0.5015 -0.149382,-0.27742 -0.213404,-0.59753 -0.06402,-0.3201 -0.06402,-0.64021 v -3.36111 q 0,-0.32011 0.06402,-0.64021 0.06402,-0.32011 0.213404,-0.59753 0.160053,-0.27743 0.394798,-0.5015 0.245414,-0.22408 0.53351,-0.35212 0.298766,-0.13871 0.618872,-0.18139 0.320106,-0.0534 0.640212,-0.0534 0.320106,0 0.640212,0.0534 0.320106,0.0427 0.608201,0.18139 0.298766,0.12804 0.53351,0.35212 0.245415,0.22407 0.394797,0.5015 0.160053,0.27742 0.224075,0.59753 0.06402,0.3201 0.06402,0.64021 v 3.36111 q 0,0.32011 -0.06402,0.64021 -0.06402,0.32011 -0.224075,0.59753 -0.149382,0.27743 -0.394797,0.5015 -0.234744,0.22408 -0.53351,0.36279 -0.288095,0.12804 -0.608201,0.17072 -0.320106,0.0534 -0.640212,0.0534 z m -0.906967,-3.99066 1.813934,-1.20573 v -0.49083 q 0,-0.19207 -0.04268,-0.38413 -0.04268,-0.20273 -0.170723,-0.35212 -0.117373,-0.16005 -0.309436,-0.23474 -0.192064,-0.0747 -0.384127,-0.0747 -0.192064,0 -0.384128,0.0747 -0.192063,0.0747 -0.320106,0.23474 -0.117372,0.14939 -0.160053,0.35212 -0.04268,0.19206 -0.04268,0.38413 z m 0.906967,2.71023 q 0.192063,0 0.384127,-0.0747 0.192063,-0.0747 0.309436,-0.22407 0.128042,-0.16006 0.170723,-0.35212 0.04268,-0.20273 0.04268,-0.3948 v -1.69656 l -1.813934,1.20573 v 0.49083 q 0,0.19207 0.04268,0.3948 0.04268,0.19206 0.160053,0.35212 0.128043,0.14938 0.320106,0.22407 0.192064,0.0747 0.384128,0.0747 z m 6.498155,3.10503 h -2.3261 q 0.27742,-1.15238 0.41613,-2.3261 0.13872,-1.17373 0.13872,-2.35812 h 1.2164 q 0,1.18439 0.13871,2.35812 0.13872,1.17372 0.41614,2.3261 z m 4.20406,-1.8246 q -0.30944,0 -0.61888,-0.0427 -0.30943,-0.0427 -0.59753,-0.14938 -0.27742,-0.11737 -0.53351,-0.29876 -0.24541,-0.19207 -0.42681,-0.44815 -0.17072,-0.25609 -0.25608,-0.55485 -0.0854,-0.29877 -0.0854,-0.6082 v -0.064 h 1.55785 v 0.032 q 0,0.18139 0.064,0.35211 0.0747,0.17072 0.2134,0.2881 0.13872,0.11737 0.32011,0.17072 0.18139,0.0427 0.36279,0.0427 0.19206,0 0.37345,-0.0533 0.19207,-0.064 0.33078,-0.20273 0.13871,-0.13872 0.20273,-0.32011 0.064,-0.19206 0.064,-0.3948 0,-0.18139 -0.0533,-0.35211 -0.0533,-0.17073 -0.16005,-0.32011 -0.096,-0.14938 -0.24541,-0.25608 -0.13872,-0.11738 -0.30944,-0.1814 -0.17072,-0.064 -0.35212,-0.0747 -0.18139,-0.0107 -0.36278,-0.0107 v -1.28042 q 0.24541,0 0.49083,-0.0427 0.24541,-0.0534 0.4268,-0.20274 0.19207,-0.16005 0.2881,-0.3948 0.1067,-0.23474 0.1067,-0.48015 0,-0.16006 -0.0533,-0.33078 -0.0427,-0.17072 -0.14938,-0.29877 -0.10671,-0.12804 -0.26676,-0.19206 -0.16005,-0.064 -0.33077,-0.064 -0.16006,0 -0.32011,0.064 -0.16005,0.0533 -0.26676,0.18139 -0.1067,0.11738 -0.16005,0.27743 -0.0427,0.16005 -0.0427,0.33077 v 0.032 h -1.55785 v -0.0854 q 0,-0.28809 0.0747,-0.57619 0.0747,-0.29876 0.22408,-0.54418 0.16005,-0.25608 0.38412,-0.44815 0.23475,-0.19206 0.5015,-0.30943 0.27743,-0.11737 0.56552,-0.16005 0.29877,-0.0427 0.59754,-0.0427 0.29876,0 0.59753,0.0534 0.29876,0.0427 0.56552,0.17072 0.27742,0.11737 0.5015,0.3201 0.23474,0.20274 0.38412,0.45882 0.14939,0.25609 0.22408,0.55485 0.0747,0.2881 0.0747,0.58686 0,0.26676 -0.064,0.53351 -0.064,0.25609 -0.20274,0.49083 -0.12804,0.22408 -0.33077,0.41614 -0.19207,0.19207 -0.42681,0.32011 0.26676,0.12804 0.49083,0.3201 0.23474,0.19207 0.38413,0.44815 0.16005,0.24542 0.23474,0.53351 0.0854,0.2881 0.0854,0.58686 0,0.30944 -0.0854,0.61888 -0.0854,0.30943 -0.25608,0.57619 -0.16006,0.26675 -0.40547,0.48015 -0.24542,0.20274 -0.53351,0.33078 -0.2881,0.11737 -0.6082,0.16005 -0.30944,0.0534 -0.62954,0.0534 z"
             id="text68-8-8-5-92-1"
             style="font-weight:900;font-size:10.6702px;line-height:1;font-family:'Iosevka Sezimal QP';-inkscape-font-specification:'Iosevka Sezimal QP, Heavy';text-align:center;text-decoration-color:#d40000;text-anchor:middle;fill:#333333;stroke-width:0.571617"
             transform="rotate(67.5)"
             aria-label="0󱹮3" />
        <path
             d="m -53.77384,170.25975 q -0.320106,0 -0.640212,-0.0533 -0.320106,-0.0427 -0.618872,-0.17072 -0.288095,-0.13871 -0.53351,-0.36279 -0.234744,-0.22407 -0.394797,-0.5015 -0.149383,-0.27742 -0.213404,-0.59753 -0.06402,-0.3201 -0.06402,-0.64021 v -3.36111 q 0,-0.32011 0.06402,-0.64021 0.06402,-0.32011 0.213404,-0.59754 0.160053,-0.27742 0.394797,-0.5015 0.245415,-0.22407 0.53351,-0.35211 0.298766,-0.13871 0.618872,-0.1814 0.320106,-0.0533 0.640212,-0.0533 0.320106,0 0.640212,0.0533 0.320106,0.0427 0.608201,0.1814 0.298766,0.12804 0.533511,0.35211 0.245414,0.22408 0.394797,0.5015 0.160053,0.27743 0.224074,0.59754 0.06402,0.3201 0.06402,0.64021 v 3.36111 q 0,0.32011 -0.06402,0.64021 -0.06402,0.32011 -0.224074,0.59753 -0.149383,0.27743 -0.394797,0.5015 -0.234745,0.22408 -0.533511,0.36279 -0.288095,0.12804 -0.608201,0.17072 -0.320106,0.0533 -0.640212,0.0533 z m -0.906967,-3.99065 1.813934,-1.20573 v -0.49083 q 0,-0.19207 -0.04268,-0.38413 -0.04268,-0.20273 -0.170723,-0.35212 -0.117372,-0.16005 -0.309436,-0.23474 -0.192063,-0.0747 -0.384127,-0.0747 -0.192064,0 -0.384127,0.0747 -0.192064,0.0747 -0.320106,0.23474 -0.117372,0.14939 -0.160053,0.35212 -0.04268,0.19206 -0.04268,0.38413 z m 0.906967,2.71023 q 0.192064,0 0.384127,-0.0747 0.192064,-0.0747 0.309436,-0.22408 0.128042,-0.16005 0.170723,-0.35211 0.04268,-0.20274 0.04268,-0.3948 v -1.69656 l -1.813934,1.20573 v 0.49083 q 0,0.19206 0.04268,0.3948 0.04268,0.19206 0.160053,0.35211 0.128042,0.14939 0.320106,0.22408 0.192063,0.0747 0.384127,0.0747 z m 6.498156,3.10503 h -2.326103 q 0.277425,-1.15238 0.416137,-2.32611 0.138713,-1.17372 0.138713,-2.35811 h 1.216403 q 0,1.18439 0.138712,2.35811 0.138713,1.17373 0.416138,2.32611 z m 4.204055,-1.82461 q -0.309436,0 -0.618872,-0.0427 -0.309435,-0.0427 -0.597531,-0.14938 -0.277425,-0.11737 -0.53351,-0.29876 -0.245414,-0.19207 -0.426808,-0.44815 -0.170723,-0.25609 -0.256085,-0.55485 -0.08536,-0.29877 -0.08536,-0.60821 v -0.064 h 1.557849 v 0.032 q 0,0.1814 0.06402,0.35212 0.07469,0.17072 0.213404,0.2881 0.138713,0.11737 0.320106,0.17072 0.181394,0.0427 0.362787,0.0427 0.192064,0 0.373457,-0.0533 0.192064,-0.064 0.330776,-0.20273 0.138713,-0.13872 0.202734,-0.32011 0.06402,-0.19206 0.06402,-0.3948 0,-0.18139 -0.05335,-0.35211 -0.05335,-0.17073 -0.160053,-0.32011 -0.09603,-0.14938 -0.245414,-0.25609 -0.138713,-0.11737 -0.309436,-0.18139 -0.170723,-0.064 -0.352117,-0.0747 -0.181393,-0.0107 -0.362787,-0.0107 v -1.28042 q 0.245415,0 0.49083,-0.0427 0.245414,-0.0533 0.426808,-0.20273 0.192063,-0.16005 0.288095,-0.3948 0.106702,-0.23474 0.106702,-0.48016 0,-0.16005 -0.05335,-0.33077 -0.04268,-0.17072 -0.149383,-0.29877 -0.106702,-0.12804 -0.266755,-0.19206 -0.160053,-0.064 -0.330776,-0.064 -0.160053,0 -0.320106,0.064 -0.160053,0.0533 -0.266755,0.18139 -0.106702,0.11737 -0.160053,0.27743 -0.04268,0.16005 -0.04268,0.33077 v 0.032 h -1.557849 v -0.0854 q 0,-0.28809 0.07469,-0.57619 0.07469,-0.29876 0.224075,-0.54418 0.160053,-0.25608 0.384127,-0.44815 0.234744,-0.19206 0.501499,-0.30943 0.277425,-0.11737 0.565521,-0.16006 0.298765,-0.0427 0.597531,-0.0427 0.298766,0 0.597531,0.0533 0.298766,0.0427 0.565521,0.17073 0.277425,0.11737 0.501499,0.3201 0.234745,0.20274 0.384127,0.45882 0.149383,0.25609 0.224075,0.55485 0.07469,0.2881 0.07469,0.58686 0,0.26676 -0.06402,0.53351 -0.06402,0.25609 -0.202734,0.49083 -0.128042,0.22408 -0.330776,0.41614 -0.192064,0.19206 -0.426808,0.32011 0.266755,0.12804 0.490829,0.3201 0.234744,0.19207 0.384127,0.44815 0.160053,0.24542 0.234745,0.53351 0.08536,0.2881 0.08536,0.58686 0,0.30944 -0.08536,0.61887 -0.08536,0.30944 -0.256085,0.5762 -0.160053,0.26675 -0.405468,0.48015 -0.245414,0.20274 -0.53351,0.33078 -0.288095,0.11737 -0.608201,0.16005 -0.309436,0.0533 -0.629542,0.0533 z m 6.775581,-0.0854 v -1.85661 h -2.784922 v -5.98598 h 1.557849 v 4.70555 h 1.227073 v -3.21173 h 1.55785 v 6.34877 z m 6.028668,0.0854 q -0.309436,0 -0.618872,-0.0427 -0.309436,-0.0427 -0.597531,-0.14938 -0.277425,-0.11737 -0.53351,-0.29876 -0.245415,-0.19207 -0.426808,-0.44815 -0.170723,-0.25609 -0.256085,-0.55485 -0.08536,-0.29877 -0.08536,-0.60821 v -0.064 h 1.557849 v 0.032 q 0,0.1814 0.06402,0.35212 0.07469,0.17072 0.213404,0.2881 0.138713,0.11737 0.320106,0.17072 0.181393,0.0427 0.362787,0.0427 0.192063,0 0.373457,-0.0533 0.192063,-0.064 0.330776,-0.20273 0.138713,-0.13872 0.202734,-0.32011 0.06402,-0.19206 0.06402,-0.3948 0,-0.18139 -0.05335,-0.35211 -0.05335,-0.17073 -0.160053,-0.32011 -0.09603,-0.14938 -0.245415,-0.25609 -0.138712,-0.11737 -0.309435,-0.18139 -0.170724,-0.064 -0.352117,-0.0747 -0.181393,-0.0107 -0.362787,-0.0107 v -1.28042 q 0.245415,0 0.490829,-0.0427 0.245415,-0.0533 0.426808,-0.20273 0.192064,-0.16005 0.288096,-0.3948 0.106702,-0.23474 0.106702,-0.48016 0,-0.16005 -0.05335,-0.33077 -0.04268,-0.17072 -0.149383,-0.29877 -0.106702,-0.12804 -0.266755,-0.19206 -0.160053,-0.064 -0.330776,-0.064 -0.160053,0 -0.320106,0.064 -0.160053,0.0533 -0.266755,0.18139 -0.106702,0.11737 -0.160053,0.27743 -0.04268,0.16005 -0.04268,0.33077 v 0.032 h -1.557849 v -0.0854 q 0,-0.28809 0.07469,-0.57619 0.07469,-0.29876 0.224074,-0.54418 0.160053,-0.25608 0.384128,-0.44815 0.234744,-0.19206 0.501499,-0.30943 0.277425,-0.11737 0.565521,-0.16006 0.298765,-0.0427 0.597531,-0.0427 0.298765,0 0.597531,0.0533 0.298766,0.0427 0.565521,0.17073 0.277425,0.11737 0.501499,0.3201 0.234744,0.20274 0.384127,0.45882 0.149383,0.25609 0.224074,0.55485 0.07469,0.2881 0.07469,0.58686 0,0.26676 -0.06402,0.53351 -0.06402,0.25609 -0.202734,0.49083 -0.128043,0.22408 -0.330776,0.41614 -0.192064,0.19206 -0.426808,0.32011 0.266755,0.12804 0.490829,0.3201 0.234744,0.19207 0.384127,0.44815 0.160053,0.24542 0.234744,0.53351 0.08536,0.2881 0.08536,0.58686 0,0.30944 -0.08536,0.61887 -0.08536,0.30944 -0.256084,0.5762 -0.160053,0.26675 -0.405468,0.48015 -0.245415,0.20274 -0.53351,0.33078 -0.288095,0.11737 -0.608201,0.16005 -0.309436,0.0533 -0.629542,0.0533 z"
             id="text68-8-8-5-92-6"
             style="font-weight:900;font-size:10.6702px;line-height:1;font-family:'Iosevka Sezimal QP';-inkscape-font-specification:'Iosevka Sezimal QP, Heavy';text-align:center;text-decoration-color:#d40000;text-anchor:middle;fill:#333333;stroke-width:0.571617"
             transform="rotate(-67.5)"
             aria-label="0󱹮343" />
        <path
             d="m 33.233558,170.33493 q -0.320106,0 -0.640212,-0.0534 -0.320106,-0.0427 -0.618872,-0.17072 -0.288095,-0.13871 -0.53351,-0.36279 -0.234744,-0.22407 -0.394797,-0.5015 -0.149383,-0.27742 -0.213404,-0.59753 -0.06402,-0.3201 -0.06402,-0.64021 v -3.36111 q 0,-0.32011 0.06402,-0.64021 0.06402,-0.32011 0.213404,-0.59754 0.160053,-0.27742 0.394797,-0.5015 0.245415,-0.22407 0.53351,-0.35211 0.298766,-0.13871 0.618872,-0.1814 0.320106,-0.0533 0.640212,-0.0533 0.320106,0 0.640212,0.0533 0.320106,0.0427 0.608201,0.1814 0.298766,0.12804 0.53351,0.35211 0.245415,0.22408 0.394798,0.5015 0.160053,0.27743 0.224074,0.59754 0.06402,0.3201 0.06402,0.64021 v 3.36111 q 0,0.32011 -0.06402,0.64021 -0.06402,0.32011 -0.224074,0.59753 -0.149383,0.27743 -0.394798,0.5015 -0.234744,0.22408 -0.53351,0.36279 -0.288095,0.12804 -0.608201,0.17072 -0.320106,0.0534 -0.640212,0.0534 z m -0.906967,-3.99065 1.813934,-1.20573 v -0.49083 q 0,-0.19207 -0.04268,-0.38413 -0.04268,-0.20273 -0.170723,-0.35212 -0.117373,-0.16005 -0.309436,-0.23474 -0.192064,-0.0747 -0.384127,-0.0747 -0.192064,0 -0.384128,0.0747 -0.192063,0.0747 -0.320106,0.23474 -0.117372,0.14939 -0.160053,0.35212 -0.04268,0.19206 -0.04268,0.38413 z m 0.906967,2.71023 q 0.192063,0 0.384127,-0.0747 0.192063,-0.0747 0.309436,-0.22408 0.128042,-0.16005 0.170723,-0.35211 0.04268,-0.20274 0.04268,-0.3948 v -1.69656 l -1.813934,1.20573 v 0.49083 q 0,0.19206 0.04268,0.3948 0.04268,0.19206 0.160053,0.35211 0.128043,0.14939 0.320106,0.22408 0.192064,0.0747 0.384128,0.0747 z m 6.498156,3.10503 H 37.40561 q 0.277425,-1.15238 0.416138,-2.32611 0.138713,-1.17372 0.138713,-2.35811 h 1.216402 q 0,1.18439 0.138713,2.35811 0.138713,1.17373 0.416138,2.32611 z m 4.577512,-1.90997 v -1.85661 h -2.784923 v -5.98598 h 1.55785 v 4.70555 h 1.227073 v -3.21173 h 1.557849 v 6.34877 z m 6.028667,0.0854 q -0.309436,0 -0.618872,-0.0427 -0.309435,-0.0427 -0.597531,-0.14938 -0.277425,-0.11737 -0.53351,-0.29876 -0.245414,-0.19207 -0.426808,-0.44815 -0.170723,-0.25609 -0.256085,-0.55485 -0.08536,-0.29877 -0.08536,-0.60821 v -0.064 h 1.557849 v 0.032 q 0,0.1814 0.06402,0.35212 0.07469,0.17072 0.213404,0.2881 0.138713,0.11737 0.320106,0.17072 0.181394,0.0427 0.362787,0.0427 0.192064,0 0.373457,-0.0533 0.192064,-0.064 0.330776,-0.20273 0.138713,-0.13872 0.202734,-0.32011 0.06402,-0.19206 0.06402,-0.3948 0,-0.18139 -0.05335,-0.35211 -0.05335,-0.17073 -0.160053,-0.32011 -0.09603,-0.14938 -0.245414,-0.25609 -0.138713,-0.11737 -0.309436,-0.18139 -0.170723,-0.064 -0.352117,-0.0747 -0.181393,-0.0107 -0.362787,-0.0107 v -1.28042 q 0.245415,0 0.49083,-0.0427 0.245414,-0.0533 0.426808,-0.20273 0.192063,-0.16005 0.288095,-0.3948 0.106702,-0.23474 0.106702,-0.48016 0,-0.16005 -0.05335,-0.33077 -0.04268,-0.17072 -0.149383,-0.29877 -0.106702,-0.12804 -0.266755,-0.19206 -0.160053,-0.064 -0.330776,-0.064 -0.160053,0 -0.320106,0.064 -0.160053,0.0534 -0.266755,0.18139 -0.106702,0.11737 -0.160053,0.27743 -0.04268,0.16005 -0.04268,0.33077 v 0.032 h -1.557849 v -0.0854 q 0,-0.28809 0.07469,-0.57619 0.07469,-0.29876 0.224075,-0.54418 0.160053,-0.25608 0.384127,-0.44815 0.234744,-0.19206 0.501499,-0.30943 0.277425,-0.11737 0.565521,-0.16006 0.298765,-0.0427 0.597531,-0.0427 0.298766,0 0.597531,0.0533 0.298766,0.0427 0.565521,0.17073 0.277425,0.11737 0.501499,0.3201 0.234745,0.20274 0.384127,0.45882 0.149383,0.25609 0.224075,0.55485 0.07469,0.2881 0.07469,0.58686 0,0.26676 -0.06402,0.53351 -0.06402,0.25609 -0.202734,0.49083 -0.128042,0.22408 -0.330776,0.41614 -0.192064,0.19206 -0.426808,0.32011 0.266755,0.12804 0.490829,0.3201 0.234744,0.19207 0.384127,0.44815 0.160053,0.24542 0.234745,0.53351 0.08536,0.2881 0.08536,0.58686 0,0.30944 -0.08536,0.61887 -0.08536,0.30944 -0.256085,0.5762 -0.160053,0.26675 -0.405468,0.48015 -0.245414,0.20274 -0.53351,0.33078 -0.288095,0.11737 -0.608201,0.16005 -0.309436,0.0534 -0.629542,0.0534 z"
             id="text68-8-8-5-92-8"
             style="font-weight:900;font-size:10.6702px;line-height:1;font-family:'Iosevka Sezimal QP';-inkscape-font-specification:'Iosevka Sezimal QP, Heavy';text-align:center;text-decoration-color:#d40000;text-anchor:middle;fill:#333333;stroke-width:0.571617"
             transform="rotate(-22.5)"
             aria-label="0󱹮43" />
        <path
             d="m 89.93754,110.73256 q -0.320106,0 -0.640212,-0.0534 -0.320106,-0.0427 -0.618872,-0.17072 -0.288095,-0.13871 -0.53351,-0.36279 -0.234744,-0.22407 -0.394797,-0.5015 -0.149383,-0.27742 -0.213404,-0.59753 -0.06402,-0.3201 -0.06402,-0.64021 v -3.36111 q 0,-0.32011 0.06402,-0.64022 0.06402,-0.3201 0.213404,-0.59753 0.160053,-0.27742 0.394797,-0.5015 0.245415,-0.22407 0.53351,-0.35211 0.298766,-0.13872 0.618872,-0.1814 0.320106,-0.0533 0.640212,-0.0533 0.320106,0 0.640212,0.0533 0.320106,0.0427 0.608201,0.1814 0.298766,0.12804 0.533511,0.35211 0.245414,0.22408 0.394797,0.5015 0.160053,0.27743 0.224074,0.59753 0.06402,0.32011 0.06402,0.64022 v 3.36111 q 0,0.32011 -0.06402,0.64021 -0.06402,0.32011 -0.224074,0.59753 -0.149383,0.27743 -0.394797,0.5015 -0.234745,0.22408 -0.533511,0.36279 -0.288095,0.12804 -0.608201,0.17072 -0.320106,0.0534 -0.640212,0.0534 z m -0.906967,-3.99065 1.813934,-1.20573 v -0.49083 q 0,-0.19207 -0.04268,-0.38413 -0.04268,-0.20273 -0.170723,-0.35212 -0.117372,-0.16005 -0.309436,-0.23474 -0.192063,-0.0747 -0.384127,-0.0747 -0.192064,0 -0.384127,0.0747 -0.192064,0.0747 -0.320106,0.23474 -0.117372,0.14939 -0.160053,0.35212 -0.04268,0.19206 -0.04268,0.38413 z m 0.906967,2.71023 q 0.192064,0 0.384127,-0.0747 0.192064,-0.0747 0.309436,-0.22408 0.128042,-0.16005 0.170723,-0.35211 0.04268,-0.20274 0.04268,-0.3948 v -1.69656 l -1.813934,1.20573 v 0.49083 q 0,0.19206 0.04268,0.3948 0.04268,0.19206 0.160053,0.35211 0.128042,0.14939 0.320106,0.22408 0.192063,0.0747 0.384127,0.0747 z m 6.498156,3.10503 h -2.326103 q 0.277425,-1.15238 0.416137,-2.32611 0.138713,-1.17372 0.138713,-2.35811 h 1.216403 q 0,1.18439 0.138712,2.35811 0.138713,1.17373 0.416138,2.32611 z m 4.204054,-1.82461 q -0.29876,0 -0.58686,-0.0427 -0.288095,-0.0427 -0.565521,-0.14938 -0.266755,-0.1067 -0.501499,-0.2881 -0.234744,-0.18139 -0.405468,-0.41613 -0.170723,-0.24542 -0.266755,-0.52284 -0.08536,-0.2881 -0.106702,-0.57619 h 1.56852 q 0.02134,0.14938 0.08536,0.29876 0.07469,0.13871 0.192064,0.23475 0.11737,0.096 0.26675,0.13871 0.16006,0.0427 0.32011,0.0427 0.14938,0 0.2881,-0.0533 0.13871,-0.0534 0.24541,-0.14938 0.1067,-0.10671 0.17072,-0.23475 0.0747,-0.13871 0.10671,-0.27742 0.0427,-0.14939 0.0534,-0.29877 0.0107,-0.14938 0.0107,-0.29877 v -0.0107 q 0,-0.13871 -0.0107,-0.28809 -0.0107,-0.14938 -0.0534,-0.2881 -0.032,-0.13871 -0.096,-0.26675 -0.0534,-0.13871 -0.16005,-0.24542 -0.096,-0.1067 -0.23474,-0.16005 -0.12805,-0.064 -0.27743,-0.064 -0.12804,0 -0.26675,0.0213 -0.12805,0.0213 -0.24542,0.0854 -0.11737,0.0534 -0.202732,0.17072 -0.08536,0.10671 -0.08536,0.24542 h -1.557849 v -4.53484 h 4.428132 v 1.28043 h -2.870283 v 1.53651 q 0.192063,-0.0427 0.394793,-0.0533 0.20274,-0.0213 0.40547,-0.0213 0.33078,0 0.66155,0.064 0.33078,0.064 0.61888,0.23474 0.29876,0.16005 0.51217,0.41614 0.22407,0.25608 0.35211,0.56552 0.13871,0.30944 0.19207,0.64021 0.0533,0.33078 0.0533,0.67222 0,0.33078 -0.0533,0.67223 -0.0534,0.33077 -0.19207,0.64021 -0.13871,0.30943 -0.37345,0.56552 -0.22408,0.25608 -0.52284,0.42681 -0.2881,0.16005 -0.62955,0.22407 -0.33077,0.064 -0.66155,0.064 z m 4.2254,-0.0854 v -1.28042 h 1.45115 v -3.49983 l -0.57619,1.37646 -1.1097,-0.37346 1.68589,-4.06535 h 1.54718 v 6.56218 h 1.2911 v 1.28042 z m 8.57885,0.0854 q -0.30944,0 -0.61887,-0.0427 -0.30944,-0.0427 -0.59753,-0.14938 -0.27743,-0.11737 -0.53351,-0.29877 -0.24542,-0.19206 -0.42681,-0.44814 -0.17072,-0.25609 -0.25609,-0.55485 -0.0854,-0.29877 -0.0854,-0.60821 v -0.064 h 1.55785 v 0.032 q 0,0.1814 0.064,0.35212 0.0747,0.17072 0.21341,0.2881 0.13871,0.11737 0.3201,0.17072 0.1814,0.0427 0.36279,0.0427 0.19206,0 0.37346,-0.0533 0.19206,-0.064 0.33077,-0.20274 0.13872,-0.13871 0.20274,-0.3201 0.064,-0.19207 0.064,-0.3948 0,-0.18139 -0.0534,-0.35212 -0.0533,-0.17072 -0.16006,-0.3201 -0.096,-0.14938 -0.24541,-0.25609 -0.13871,-0.11737 -0.30944,-0.18139 -0.17072,-0.064 -0.35211,-0.0747 -0.1814,-0.0107 -0.36279,-0.0107 v -1.28043 q 0.24541,0 0.49083,-0.0427 0.24541,-0.0533 0.42681,-0.20273 0.19206,-0.16005 0.28809,-0.3948 0.1067,-0.23474 0.1067,-0.48016 0,-0.16005 -0.0533,-0.33077 -0.0427,-0.17073 -0.14938,-0.29877 -0.1067,-0.12804 -0.26675,-0.19206 -0.16006,-0.064 -0.33078,-0.064 -0.16005,0 -0.32011,0.064 -0.16005,0.0534 -0.26675,0.18139 -0.1067,0.11737 -0.16005,0.27743 -0.0427,0.16005 -0.0427,0.33077 v 0.032 h -1.55784 v -0.0854 q 0,-0.28809 0.0747,-0.57619 0.0747,-0.29876 0.22407,-0.54418 0.16005,-0.25608 0.38413,-0.44815 0.23474,-0.19206 0.5015,-0.30943 0.27742,-0.11738 0.56552,-0.16006 0.29876,-0.0427 0.59753,-0.0427 0.29877,0 0.59753,0.0533 0.29877,0.0427 0.56552,0.17073 0.27743,0.11737 0.5015,0.3201 0.23475,0.20274 0.38413,0.45882 0.14938,0.25609 0.22407,0.55485 0.0747,0.2881 0.0747,0.58686 0,0.26676 -0.064,0.53351 -0.064,0.25609 -0.20273,0.49083 -0.12804,0.22408 -0.33078,0.41614 -0.19206,0.19206 -0.42681,0.32011 0.26676,0.12804 0.49083,0.3201 0.23475,0.19207 0.38413,0.44815 0.16005,0.24542 0.23475,0.53351 0.0854,0.2881 0.0854,0.58686 0,0.30944 -0.0854,0.61887 -0.0854,0.30944 -0.25609,0.57619 -0.16005,0.26676 -0.40547,0.48016 -0.24541,0.20274 -0.53351,0.33078 -0.28809,0.11737 -0.6082,0.16005 -0.30943,0.0534 -0.62954,0.0534 z"
             id="text68-8-8-5-92-7"
             style="font-weight:900;font-size:10.6702px;line-height:1;font-family:'Iosevka Sezimal QP';-inkscape-font-specification:'Iosevka Sezimal QP, Heavy';text-align:center;text-decoration-color:#d40000;text-anchor:middle;fill:#333333;stroke-width:0.571617"
             transform="rotate(22.5)"
             aria-label="0󱹮513" />
        <path
             d="m 99.591921,27.042171 v -1.280424 h 1.451149 v -3.499825 l -0.57619,1.376456 -1.109703,-0.373457 1.685893,-4.065347 h 1.54718 v 6.562173 h 1.29109 v 1.280424 z"
             id="text68-8-8-5-92-29"
             style="font-weight:900;font-size:10.6702px;line-height:1;font-family:'Iosevka Sezimal QP';-inkscape-font-specification:'Iosevka Sezimal QP, Heavy';text-align:center;text-decoration-color:#d40000;text-anchor:middle;fill:#333333;stroke-width:0.571617"
             transform="rotate(67.5)"
             aria-label="1" />
    </g>
</svg>
