<?xml version="1.0" encoding="UTF-8" standalone="no"?>
<!-- Created with Inkscape (http://www.inkscape.org/) -->

<svg
     width="155.552mm"
     height="155.552mm"
     viewBox="0 0 155.552 155.552"
     version="1.1"
     id="svg1"
     inkscape:version="1.3.2 (091e20ef0f, 2023-11-25, custom)"
     sodipodi:docname="circle_fraction_03.svg"
     xmlns:inkscape="http://www.inkscape.org/namespaces/inkscape"
     xmlns:sodipodi="http://sodipodi.sourceforge.net/DTD/sodipodi-0.dtd"
     xmlns="http://www.w3.org/2000/svg"
     xmlns:svg="http://www.w3.org/2000/svg">
    <sodipodi:namedview
         id="namedview1"
         pagecolor="#ffffff"
         bordercolor="#000000"
         borderopacity="0.25"
         inkscape:showpageshadow="2"
         inkscape:pageopacity="0.0"
         inkscape:pagecheckerboard="0"
         inkscape:deskcolor="#d1d1d1"
         inkscape:document-units="mm"
         inkscape:zoom="0.68862935"
         inkscape:cx="396.43968"
         inkscape:cy="482.8432"
         inkscape:window-width="1920"
         inkscape:window-height="1014"
         inkscape:window-x="0"
         inkscape:window-y="0"
         inkscape:window-maximized="1"
         inkscape:current-layer="layer1" />
    <defs
         id="defs1" />
    <g
         inkscape:label="Camada 1"
         inkscape:groupmode="layer"
         id="layer1">
        <path
             id="ellipse2"
             style="fill:#ffccaa;stroke-width:2.13086"
             transform="scale(-1)"
             d="M 0,-77.776001 A 77.776001,77.776001 0 0 1 -77.776001,0 77.776001,77.776001 0 0 1 -155.552,-77.776001 77.776001,77.776001 0 0 1 -77.776001,-155.552 77.776001,77.776001 0 0 1 0,-77.776001 Z" />
        <path
             id="path2"
             style="fill:#ff9955;stroke-width:2.13086"
             transform="scale(-1)"
             d="m 0,-77.776001 a 77.776001,77.776001 0 0 1 -38.888,67.355993 77.776001,77.776001 0 0 1 -77.776,0 l 38.887999,-67.355993 z" />
        <path
             id="ellipse3"
             style="fill:#ffb380;stroke-width:2.13086"
             transform="scale(-1)"
             d="m -116.664,-10.420008 a 77.776001,77.776001 0 0 1 -38.888,-67.355993 77.776001,77.776001 0 0 1 38.888,-67.355989 l 38.887999,67.355989 z" />
        <path
             id="path72-8-0"
             style="fill:#ffffff;stroke-width:0.585487"
             d="M 90.738668,77.776001 A 12.962667,12.962667 0 0 1 77.776001,90.738668 12.962667,12.962667 0 0 1 64.813334,77.776001 12.962667,12.962667 0 0 1 77.776001,64.813334 12.962667,12.962667 0 0 1 90.738668,77.776001 Z" />
        <path
             d="m 77.776017,82.9274 q -0.397845,0 -0.79569,-0.05488 -0.397846,-0.05487 -0.768253,-0.192063 -0.356689,-0.150907 -0.68594,-0.384127 -0.315532,-0.246938 -0.548752,-0.576189 -0.219501,-0.329251 -0.329251,-0.713378 -0.109751,-0.384126 -0.109751,-0.781971 v -0.08231 h 2.002945 v 0.04116 q 0,0.23322 0.08231,0.452721 0.09603,0.2195 0.274376,0.370407 0.178344,0.150907 0.411564,0.219501 0.233219,0.05487 0.466439,0.05487 0.246938,0 0.480158,-0.06859 0.246938,-0.08231 0.425283,-0.260657 0.178344,-0.178344 0.260657,-0.411564 0.08231,-0.246938 0.08231,-0.507595 0,-0.23322 -0.06859,-0.452721 -0.06859,-0.219501 -0.205782,-0.411564 -0.123469,-0.192063 -0.315533,-0.329251 -0.178344,-0.150907 -0.397845,-0.23322 -0.219501,-0.08231 -0.45272,-0.09603 -0.23322,-0.01372 -0.466439,-0.01372 v -1.646256 q 0.315532,0 0.631064,-0.05487 0.315533,-0.06859 0.548752,-0.260657 0.246939,-0.205782 0.370408,-0.507596 0.137188,-0.301814 0.137188,-0.617346 0,-0.205782 -0.06859,-0.425283 -0.05487,-0.219501 -0.192063,-0.384126 -0.137188,-0.164626 -0.34297,-0.246939 -0.205782,-0.08231 -0.425283,-0.08231 -0.205782,0 -0.411564,0.08231 -0.205782,0.06859 -0.34297,0.23322 -0.137188,0.150907 -0.205782,0.356689 -0.05488,0.205782 -0.05488,0.425283 v 0.04116 h -2.002945 v -0.10975 q 0,-0.370408 0.09603,-0.740816 0.09603,-0.384126 0.288095,-0.699658 0.205782,-0.329251 0.493876,-0.57619 0.301814,-0.246938 0.644784,-0.397845 0.356689,-0.150907 0.727096,-0.205782 0.384127,-0.05487 0.768253,-0.05487 0.384126,0 0.768253,0.06859 0.384126,0.05488 0.727096,0.219501 0.356689,0.150906 0.644784,0.411564 0.301813,0.260657 0.493877,0.589908 0.192063,0.329251 0.288094,0.713377 0.09603,0.370408 0.09603,0.754534 0,0.34297 -0.08231,0.68594 -0.08231,0.329252 -0.260657,0.631065 -0.164626,0.288095 -0.425283,0.535033 -0.246938,0.246939 -0.548752,0.411564 0.34297,0.164626 0.631065,0.411564 0.301814,0.246939 0.493877,0.57619 0.205782,0.315532 0.301813,0.68594 0.109751,0.370408 0.109751,0.754534 0,0.397845 -0.109751,0.79569 -0.10975,0.397845 -0.329251,0.740815 -0.205782,0.34297 -0.521314,0.617346 -0.315533,0.260658 -0.68594,0.425283 -0.370408,0.150907 -0.781972,0.205782 -0.397845,0.06859 -0.809409,0.06859 z"
             id="text73-5-5"
             style="font-weight:900;font-size:13.7188px;line-height:1.5;font-family:'Iosevka Sezimal QP';-inkscape-font-specification:'Iosevka Sezimal QP, Heavy';text-align:center;text-decoration-color:#d40000;text-anchor:middle;stroke-width:0.571617"
             aria-label="3" />
        <path
             d="m 20.87695,48.557385 q -0.457293,0 -0.914586,-0.07622 -0.457293,-0.06097 -0.8841,-0.243889 -0.411564,-0.198161 -0.762155,-0.518266 -0.335348,-0.320105 -0.563995,-0.716425 -0.213403,-0.396321 -0.304862,-0.853614 -0.09146,-0.457293 -0.09146,-0.914586 v -4.801577 q 0,-0.457293 0.09146,-0.914586 0.09146,-0.457293 0.304862,-0.853613 0.228647,-0.396321 0.563995,-0.716426 0.350591,-0.320105 0.762155,-0.503022 0.426807,-0.19816 0.8841,-0.259133 0.457293,-0.07621 0.914586,-0.07621 0.457293,0 0.914586,0.07621 0.457293,0.06097 0.868856,0.259133 0.426807,0.182917 0.762155,0.503022 0.350592,0.320105 0.563995,0.716426 0.228647,0.39632 0.320105,0.853613 0.09146,0.457293 0.09146,0.914586 v 4.801577 q 0,0.457293 -0.09146,0.914586 -0.09146,0.457293 -0.320105,0.853614 -0.213403,0.39632 -0.563995,0.716425 -0.335348,0.320105 -0.762155,0.518266 -0.411563,0.182917 -0.868856,0.243889 -0.457293,0.07622 -0.914586,0.07622 z m -1.295664,-5.70092 2.591327,-1.72247 v -0.701183 q 0,-0.274375 -0.06097,-0.548751 -0.06097,-0.289619 -0.24389,-0.503022 -0.167674,-0.228647 -0.44205,-0.335349 -0.274375,-0.106701 -0.548751,-0.106701 -0.274376,0 -0.548752,0.106701 -0.274376,0.106702 -0.457293,0.335349 -0.167674,0.213403 -0.228646,0.503022 -0.06097,0.274376 -0.06097,0.548751 z m 1.295664,3.871748 q 0.274376,0 0.548751,-0.106702 0.274376,-0.106702 0.44205,-0.320105 0.182917,-0.228646 0.24389,-0.503022 0.06097,-0.289619 0.06097,-0.563995 v -2.423653 l -2.591327,1.72247 v 0.701183 q 0,0.274376 0.06097,0.563995 0.06097,0.274376 0.228646,0.503022 0.182917,0.213403 0.457293,0.320105 0.274376,0.106702 0.548752,0.106702 z m 9.283053,4.435742 h -3.322996 q 0.396321,-1.646255 0.594481,-3.322996 0.19816,-1.676741 0.19816,-3.368725 h 1.737714 q 0,1.691984 0.19816,3.368725 0.19816,1.676741 0.594481,3.322996 z m 2.560835,-2.728515 v -1.829172 l 3.475426,-3.93272 q 0.213404,-0.243889 0.426807,-0.487779 0.213404,-0.24389 0.381078,-0.518265 0.167674,-0.274376 0.259132,-0.579238 0.09146,-0.320105 0.09146,-0.64021 0,-0.274376 -0.06097,-0.548752 -0.04573,-0.274376 -0.213404,-0.503022 -0.152431,-0.228647 -0.411563,-0.335349 -0.259133,-0.121944 -0.533509,-0.121944 -0.24389,0 -0.487779,0.07621 -0.228647,0.07622 -0.411564,0.259133 -0.167674,0.167674 -0.243889,0.411564 -0.07622,0.228646 -0.07622,0.472536 v 0.04573 h -2.225493 v -0.106702 q 0,-0.426807 0.106702,-0.83837 0.121945,-0.426807 0.350591,-0.777398 0.228647,-0.365835 0.563995,-0.640211 0.350591,-0.274375 0.746912,-0.442049 0.396321,-0.167675 0.823127,-0.228647 0.426807,-0.06097 0.853614,-0.06097 0.457293,0 0.899343,0.07621 0.457293,0.07622 0.868857,0.274376 0.411563,0.19816 0.746912,0.518265 0.335348,0.304862 0.548751,0.716426 0.213404,0.396321 0.289619,0.853614 0.09146,0.44205 0.09146,0.899343 0,0.487779 -0.121945,0.960315 -0.121945,0.472536 -0.365835,0.899343 -0.243889,0.426807 -0.563994,0.807884 -0.304862,0.365835 -0.624967,0.716426 l -0.03049,0.04573 h -0.01524 l -2.408409,2.728515 h 4.069907 v 1.829172 z"
             id="text68-8-8-5-0"
             style="font-weight:900;font-size:15.2431px;line-height:1;font-family:'Iosevka Sezimal QP';-inkscape-font-specification:'Iosevka Sezimal QP, Heavy';text-align:center;text-decoration-color:#d40000;text-anchor:middle;fill:#333333;stroke-width:0.571617"
             transform="rotate(-30)"
             aria-label="0󱹮2" />
        <path
             d="m 103.48498,97.480263 v -1.829172 h 2.07306 v -4.999737 l -0.82313,1.96636 -1.58528,-0.533509 2.40841,-5.807621 h 2.21025 v 9.374507 h 1.84441 v 1.829172 z"
             id="text68-8-8-5-2"
             style="font-weight:900;font-size:15.2431px;line-height:1;font-family:'Iosevka Sezimal QP';-inkscape-font-specification:'Iosevka Sezimal QP, Heavy';text-align:center;text-decoration-color:#d40000;text-anchor:middle;fill:#333333;stroke-width:0.571617"
             transform="rotate(30)"
             aria-label="1" />
        <path
             d="m 130.62039,81.308483 q -0.45729,0 -0.91459,-0.07621 -0.45729,-0.06097 -0.8841,-0.24389 -0.41156,-0.19816 -0.76215,-0.518265 -0.33535,-0.320105 -0.564,-0.716426 -0.2134,-0.39632 -0.30486,-0.853613 -0.0915,-0.457293 -0.0915,-0.914586 v -4.801577 q 0,-0.457293 0.0915,-0.914586 0.0915,-0.457293 0.30486,-0.853614 0.22865,-0.39632 0.564,-0.716425 0.35059,-0.320105 0.76215,-0.503023 0.42681,-0.19816 0.8841,-0.259132 0.4573,-0.07622 0.91459,-0.07622 0.45729,0 0.91459,0.07622 0.45729,0.06097 0.86885,0.259132 0.42681,0.182918 0.76216,0.503023 0.35059,0.320105 0.56399,0.716425 0.22865,0.396321 0.32011,0.853614 0.0915,0.457293 0.0915,0.914586 v 4.801577 q 0,0.457293 -0.0915,0.914586 -0.0915,0.457293 -0.32011,0.853613 -0.2134,0.396321 -0.56399,0.716426 -0.33535,0.320105 -0.76216,0.518265 -0.41156,0.182918 -0.86885,0.24389 -0.4573,0.07621 -0.91459,0.07621 z m -1.29566,-5.700919 2.59132,-1.72247 v -0.701183 q 0,-0.274376 -0.061,-0.548751 -0.061,-0.289619 -0.24389,-0.503023 -0.16767,-0.228646 -0.44205,-0.335348 -0.27437,-0.106702 -0.54875,-0.106702 -0.27438,0 -0.54875,0.106702 -0.27438,0.106702 -0.45729,0.335348 -0.16768,0.213404 -0.22865,0.503023 -0.061,0.274375 -0.061,0.548751 z m 1.29566,3.871747 q 0.27438,0 0.54875,-0.106701 0.27438,-0.106702 0.44205,-0.320105 0.18292,-0.228647 0.24389,-0.503023 0.061,-0.289619 0.061,-0.563994 v -2.423653 l -2.59132,1.72247 v 0.701183 q 0,0.274375 0.061,0.563994 0.061,0.274376 0.22865,0.503023 0.18291,0.213403 0.45729,0.320105 0.27437,0.106701 0.54875,0.106701 z m 9.28305,4.435743 h -3.32299 q 0.39632,-1.646255 0.59448,-3.322996 0.19816,-1.676741 0.19816,-3.368725 h 1.73771 q 0,1.691984 0.19816,3.368725 0.19816,1.676741 0.59448,3.322996 z m 6.53929,-2.728515 v -2.6523 h -3.97845 V 69.98286 h 2.22549 v 6.722207 h 1.75296 v -4.588173 h 2.22549 v 9.069645 z"
             id="text102"
             style="font-weight:900;font-size:15.2431px;line-height:1;font-family:'Iosevka Sezimal QP';-inkscape-font-specification:'Iosevka Sezimal QP, Heavy';text-align:center;text-decoration-color:#d40000;text-anchor:middle;fill:#333333;stroke-width:0.571617"
             aria-label="0󱹮4" />
    </g>
</svg>
