<?xml version="1.0" encoding="UTF-8" standalone="no"?>
<!-- Created with Inkscape (http://www.inkscape.org/) -->

<svg
     width="155.552mm"
     height="155.552mm"
     viewBox="0 0 155.552 155.552"
     version="1.1"
     id="svg1"
     inkscape:version="1.3.2 (091e20ef0f, 2023-11-25, custom)"
     sodipodi:docname="circle_fraction_11.svg"
     xmlns:inkscape="http://www.inkscape.org/namespaces/inkscape"
     xmlns:sodipodi="http://sodipodi.sourceforge.net/DTD/sodipodi-0.dtd"
     xmlns="http://www.w3.org/2000/svg"
     xmlns:svg="http://www.w3.org/2000/svg">
    <sodipodi:namedview
         id="namedview1"
         pagecolor="#ffffff"
         bordercolor="#000000"
         borderopacity="0.25"
         inkscape:showpageshadow="2"
         inkscape:pageopacity="0.0"
         inkscape:pagecheckerboard="0"
         inkscape:deskcolor="#d1d1d1"
         inkscape:document-units="mm"
         inkscape:zoom="0.68862935"
         inkscape:cx="396.43968"
         inkscape:cy="482.8432"
         inkscape:window-width="1920"
         inkscape:window-height="1014"
         inkscape:window-x="0"
         inkscape:window-y="0"
         inkscape:window-maximized="1"
         inkscape:current-layer="layer1" />
    <defs
         id="defs1" />
    <g
         inkscape:label="Camada 1"
         inkscape:groupmode="layer"
         id="layer1">
        <path
             id="path130"
             style="vector-effect:none;fill:#b380ff;stroke-width:3.2319"
             transform="rotate(-179.996)"
             d="M -0.00543213,-77.770569 A 77.776001,77.776001 0 0 1 -77.781433,0.00543213 77.776001,77.776001 0 0 1 -155.55743,-77.770569 a 77.776001,77.776001 0 0 1 77.775997,-77.776001 77.776001,77.776001 0 0 1 77.77600087,77.776001 z" />
        <path
             id="circle130"
             style="vector-effect:none;fill:#ccaaff;stroke-width:3.2319"
             transform="rotate(-179.996)"
             d="M -29.289344,-16.96248 A 77.776001,77.776001 0 0 1 -95.088032,-1.9445313 L -77.781433,-77.770569 Z" />
        <path
             id="circle131"
             style="vector-effect:none;fill:#b380ff;stroke-width:3.2319"
             transform="rotate(-179.996)"
             d="M -95.088032,-1.9445313 A 77.776001,77.776001 0 0 1 -147.85536,-44.025177 l 70.073927,-33.745392 z" />
        <path
             id="circle132"
             style="vector-effect:none;fill:#9955ff;stroke-width:3.2319"
             transform="rotate(-179.996)"
             d="m -147.85536,-44.025177 a 77.776001,77.776001 0 0 1 0,-67.490783 l 70.073927,33.745391 z" />
        <path
             id="circle133"
             style="vector-effect:none;fill:#ccaaff;stroke-width:3.2319;stop-color:#000000"
             transform="rotate(-179.996)"
             d="m -147.85536,-111.51596 a 77.776001,77.776001 0 0 1 52.767328,-42.08065 l 17.306599,75.826041 z" />
        <path
             id="circle134"
             style="vector-effect:none;fill:#b380ff;stroke-width:3.2319;stop-color:#000000"
             transform="rotate(-179.996)"
             d="m -95.088032,-153.59661 a 77.776001,77.776001 0 0 1 65.798686,15.01795 l -48.492087,60.808091 z" />
        <path
             id="circle135"
             style="vector-effect:none;fill:#ccaaff;stroke-width:3.2319;stop-color:#000000"
             transform="rotate(-179.996)"
             d="m -29.141969,-138.46084 a 77.776001,77.776001 0 0 1 29.13653687,60.690271 H -77.781433 Z" />
        <path
             d="m -47.294544,43.846312 q -0.365835,0 -0.73167,-0.06097 -0.365835,-0.04878 -0.707281,-0.195112 -0.329251,-0.158529 -0.609725,-0.414613 -0.268279,-0.256085 -0.451196,-0.573142 -0.170723,-0.317057 -0.24389,-0.682892 -0.07317,-0.365835 -0.07317,-0.73167 v -3.841267 q 0,-0.365835 0.07317,-0.73167 0.07317,-0.365835 0.24389,-0.682892 0.182917,-0.317057 0.451196,-0.573142 0.280474,-0.256084 0.609725,-0.402418 0.341446,-0.158529 0.707281,-0.207307 0.365835,-0.06097 0.73167,-0.06097 0.365835,0 0.73167,0.06097 0.365835,0.04878 0.695087,0.207307 0.341446,0.146334 0.609725,0.402418 0.280473,0.256085 0.451196,0.573142 0.182918,0.317057 0.256085,0.682892 0.07317,0.365835 0.07317,0.73167 v 3.841267 q 0,0.365835 -0.07317,0.73167 -0.07317,0.365835 -0.256085,0.682892 -0.170723,0.317057 -0.451196,0.573142 -0.268279,0.256084 -0.609725,0.414613 -0.329252,0.146334 -0.695087,0.195112 -0.365835,0.06097 -0.73167,0.06097 z m -1.036532,-4.560743 2.073065,-1.377978 v -0.560947 q 0,-0.219501 -0.04878,-0.439002 -0.04878,-0.231696 -0.195112,-0.402419 -0.13414,-0.182917 -0.353641,-0.268279 -0.219501,-0.08536 -0.439002,-0.08536 -0.219501,0 -0.439002,0.08536 -0.219501,0.08536 -0.365835,0.268279 -0.134139,0.170723 -0.182917,0.402419 -0.04878,0.219501 -0.04878,0.439002 z m 1.036532,3.097403 q 0.219501,0 0.439002,-0.08536 0.219501,-0.08536 0.353641,-0.256085 0.146334,-0.182917 0.195112,-0.402418 0.04878,-0.231696 0.04878,-0.451197 v -1.938925 l -2.073065,1.377978 v 0.560947 q 0,0.219501 0.04878,0.451197 0.04878,0.219501 0.182917,0.402418 0.146334,0.170723 0.365835,0.256085 0.219501,0.08536 0.439002,0.08536 z m 7.450844,3.5486 q 0.317057,-1.317006 0.475586,-2.658401 0.158528,-1.341395 0.158528,-2.694985 h 1.390173 q 0,1.35359 0.158529,2.694985 0.158528,1.341395 0.475585,2.658401 z m -0.268279,0 h -2.658401 q 0.317057,-1.317006 0.475586,-2.658401 0.158528,-1.341395 0.158528,-2.694985 h 1.390173 q 0,1.35359 0.158529,2.694985 0.158528,1.341395 0.475585,2.658401 z m 7.450845,-2.08526 q -0.365835,0 -0.73167,-0.06097 -0.365835,-0.04878 -0.707281,-0.195112 -0.329252,-0.158529 -0.609725,-0.414613 -0.268279,-0.256085 -0.451197,-0.573142 -0.170723,-0.317057 -0.24389,-0.682892 -0.07317,-0.365835 -0.07317,-0.73167 v -3.841267 q 0,-0.365835 0.07317,-0.73167 0.07317,-0.365835 0.24389,-0.682892 0.182918,-0.317057 0.451197,-0.573142 0.280473,-0.256084 0.609725,-0.402418 0.341446,-0.158529 0.707281,-0.207307 0.365835,-0.06097 0.73167,-0.06097 0.365835,0 0.73167,0.06097 0.365835,0.04878 0.695086,0.207307 0.341446,0.146334 0.609725,0.402418 0.280474,0.256085 0.451197,0.573142 0.182917,0.317057 0.256084,0.682892 0.07317,0.365835 0.07317,0.73167 v 3.841267 q 0,0.365835 -0.07317,0.73167 -0.07317,0.365835 -0.256084,0.682892 -0.170723,0.317057 -0.451197,0.573142 -0.268279,0.256084 -0.609725,0.414613 -0.329251,0.146334 -0.695086,0.195112 -0.365835,0.06097 -0.73167,0.06097 z m -1.036533,-4.560743 2.073065,-1.377978 v -0.560947 q 0,-0.219501 -0.04878,-0.439002 -0.04878,-0.231696 -0.195112,-0.402419 -0.134139,-0.182917 -0.35364,-0.268279 -0.219501,-0.08536 -0.439002,-0.08536 -0.219501,0 -0.439002,0.08536 -0.219501,0.08536 -0.365835,0.268279 -0.13414,0.170723 -0.182918,0.402419 -0.04878,0.219501 -0.04878,0.439002 z m 1.036533,3.097403 q 0.219501,0 0.439002,-0.08536 0.219501,-0.08536 0.35364,-0.256085 0.146334,-0.182917 0.195112,-0.402418 0.04878,-0.231696 0.04878,-0.451197 v -1.938925 l -2.073065,1.377978 v 0.560947 q 0,0.219501 0.04878,0.451197 0.04878,0.219501 0.182918,0.402418 0.146334,0.170723 0.365835,0.256085 0.219501,0.08536 0.439002,0.08536 z m 7.353289,1.46334 q -0.341446,0 -0.670698,-0.04878 -0.329251,-0.04878 -0.646308,-0.170723 -0.304863,-0.121945 -0.573142,-0.329251 -0.268279,-0.207307 -0.463391,-0.475586 -0.195112,-0.280473 -0.304862,-0.59753 -0.09756,-0.329252 -0.121945,-0.658503 h 1.792591 q 0.02439,0.170723 0.09756,0.341446 0.08536,0.158528 0.219501,0.268279 0.13414,0.10975 0.304863,0.158528 0.182917,0.04878 0.365835,0.04878 0.170723,0 0.329251,-0.06097 0.158529,-0.06097 0.280474,-0.170723 0.121945,-0.121945 0.195112,-0.268279 0.08536,-0.158529 0.121945,-0.317057 0.04878,-0.170723 0.06097,-0.341446 0.0122,-0.170723 0.0122,-0.341446 v -0.01219 q 0,-0.158528 -0.0122,-0.329251 -0.01219,-0.170723 -0.06097,-0.329252 -0.03658,-0.158528 -0.109751,-0.304862 -0.06097,-0.158529 -0.182917,-0.280474 -0.109751,-0.121945 -0.268279,-0.182917 -0.146334,-0.07317 -0.317057,-0.07317 -0.146334,0 -0.304863,0.02439 -0.146334,0.02439 -0.280473,0.09756 -0.13414,0.06097 -0.231696,0.195112 -0.09756,0.121945 -0.09756,0.280473 h -1.780397 v -5.182662 h 5.060718 v 1.46334 h -3.280321 v 1.756008 q 0.219501,-0.04878 0.451197,-0.06097 0.231695,-0.02439 0.463391,-0.02439 0.378029,0 0.756059,0.07317 0.378029,0.07317 0.707281,0.268279 0.341446,0.182918 0.585336,0.475586 0.256084,0.292668 0.402418,0.646308 0.158529,0.353641 0.219501,0.73167 0.06097,0.37803 0.06097,0.768254 0,0.378029 -0.06097,0.768253 -0.06097,0.37803 -0.219501,0.73167 -0.158528,0.353641 -0.426807,0.646309 -0.256085,0.292668 -0.597531,0.48778 -0.329251,0.182917 -0.719475,0.256084 -0.37803,0.07317 -0.756059,0.07317 z"
             id="text68-8-8-5-37"
             style="font-weight:900;font-size:12.1945px;line-height:1;font-family:'Iosevka Sezimal QP';-inkscape-font-specification:'Iosevka Sezimal QP, Heavy';text-align:center;text-decoration-color:#d40000;text-anchor:middle;fill:#ffffff;stroke-width:0.571617"
             transform="rotate(-64.281)"
             aria-label="0󱹯05" />
        <path
             d="m 47.837433,33.152411 q -0.365835,0 -0.73167,-0.06097 -0.365835,-0.04878 -0.707281,-0.195112 -0.329251,-0.158529 -0.609725,-0.414613 -0.268279,-0.256085 -0.451196,-0.573142 -0.170723,-0.317057 -0.24389,-0.682892 -0.07317,-0.365835 -0.07317,-0.73167 v -3.841267 q 0,-0.365835 0.07317,-0.73167 0.07317,-0.365835 0.24389,-0.682892 0.182917,-0.317057 0.451196,-0.573142 0.280474,-0.256084 0.609725,-0.402418 0.341446,-0.158529 0.707281,-0.207307 0.365835,-0.06097 0.73167,-0.06097 0.365835,0 0.73167,0.06097 0.365835,0.04878 0.695087,0.207307 0.341446,0.146334 0.609725,0.402418 0.280473,0.256085 0.451196,0.573142 0.182918,0.317057 0.256085,0.682892 0.07317,0.365835 0.07317,0.73167 v 3.841267 q 0,0.365835 -0.07317,0.73167 -0.07317,0.365835 -0.256085,0.682892 -0.170723,0.317057 -0.451196,0.573142 -0.268279,0.256084 -0.609725,0.414613 -0.329252,0.146334 -0.695087,0.195112 -0.365835,0.06097 -0.73167,0.06097 z m -1.036532,-4.560743 2.073065,-1.377978 v -0.560947 q 0,-0.219501 -0.04878,-0.439002 -0.04878,-0.231696 -0.195112,-0.402419 -0.13414,-0.182917 -0.353641,-0.268279 -0.219501,-0.08536 -0.439002,-0.08536 -0.219501,0 -0.439002,0.08536 -0.219501,0.08536 -0.365835,0.268279 -0.134139,0.170723 -0.182917,0.402419 -0.04878,0.219501 -0.04878,0.439002 z m 1.036532,3.097403 q 0.219501,0 0.439002,-0.08536 0.219501,-0.08536 0.353641,-0.256085 0.146334,-0.182917 0.195112,-0.402418 0.04878,-0.231696 0.04878,-0.451197 v -1.938925 l -2.073065,1.377978 v 0.560947 q 0,0.219501 0.04878,0.451197 0.04878,0.219501 0.182917,0.402418 0.146334,0.170723 0.365835,0.256085 0.219501,0.08536 0.439002,0.08536 z m 7.450844,3.5486 q 0.317057,-1.317006 0.475586,-2.658401 0.158528,-1.341395 0.158528,-2.694985 h 1.390173 q 0,1.35359 0.158529,2.694985 0.158528,1.341395 0.475585,2.658401 z m -0.268279,0 h -2.658401 q 0.317057,-1.317006 0.475586,-2.658401 0.158528,-1.341395 0.158528,-2.694985 h 1.390173 q 0,1.35359 0.158529,2.694985 0.158528,1.341395 0.475585,2.658401 z m 4.99975,-2.182816 v -1.46334 H 61.6782 V 27.591719 L 61.019697,29.16481 59.751469,28.738002 61.6782,24.091898 h 1.768203 v 7.499617 h 1.475534 v 1.46334 z m 10.231191,0 v -2.121843 h -3.182764 v -6.841114 h 1.780397 v 5.377774 h 1.402367 v -3.670544 h 1.780397 v 7.255727 z"
             id="text68-8-8-5-37-2"
             style="font-weight:900;font-size:12.1945px;line-height:1;font-family:'Iosevka Sezimal QP';-inkscape-font-specification:'Iosevka Sezimal QP, Heavy';text-align:center;text-decoration-color:#d40000;text-anchor:middle;fill:#ffffff;stroke-width:0.571617"
             transform="rotate(-12.853)"
             aria-label="0󱹯14" />
        <path
             d="m 98.277199,-47.667817 q -0.365835,0 -0.73167,-0.06097 -0.365835,-0.04878 -0.707281,-0.195112 -0.329251,-0.158528 -0.609725,-0.414613 -0.268279,-0.256084 -0.451196,-0.573141 -0.170723,-0.317057 -0.24389,-0.682892 -0.07317,-0.365835 -0.07317,-0.73167 v -3.841268 q 0,-0.365835 0.07317,-0.73167 0.07317,-0.365835 0.24389,-0.682892 0.182917,-0.317057 0.451196,-0.573141 0.280474,-0.256085 0.609725,-0.402419 0.341446,-0.158528 0.707281,-0.207306 0.365835,-0.06097 0.73167,-0.06097 0.365835,0 0.73167,0.06097 0.365835,0.04878 0.695087,0.207306 0.341444,0.146334 0.609724,0.402419 0.28047,0.256084 0.4512,0.573141 0.18291,0.317057 0.25608,0.682892 0.0732,0.365835 0.0732,0.73167 v 3.841268 q 0,0.365835 -0.0732,0.73167 -0.0732,0.365835 -0.25608,0.682892 -0.17073,0.317057 -0.4512,0.573141 -0.26828,0.256085 -0.609724,0.414613 -0.329252,0.146334 -0.695087,0.195112 -0.365835,0.06097 -0.73167,0.06097 z m -1.036532,-4.560743 2.073065,-1.377979 v -0.560947 q 0,-0.219501 -0.04878,-0.439002 -0.04878,-0.231695 -0.195112,-0.402418 -0.13414,-0.182918 -0.353641,-0.268279 -0.219501,-0.08536 -0.439002,-0.08536 -0.219501,0 -0.439002,0.08536 -0.219501,0.08536 -0.365835,0.268279 -0.134139,0.170723 -0.182917,0.402418 -0.04878,0.219501 -0.04878,0.439002 z m 1.036532,3.097403 q 0.219501,0 0.439002,-0.08536 0.219501,-0.08536 0.353641,-0.256084 0.146334,-0.182918 0.195112,-0.402419 0.04878,-0.231695 0.04878,-0.451196 v -1.938926 l -2.073065,1.377979 v 0.560947 q 0,0.219501 0.04878,0.451196 0.04878,0.219501 0.182917,0.402419 0.146334,0.170723 0.365835,0.256084 0.219501,0.08536 0.439002,0.08536 z m 7.450841,3.548599 q 0.31706,-1.317006 0.47559,-2.658401 0.15853,-1.341395 0.15853,-2.694984 h 1.39017 q 0,1.353589 0.15853,2.694984 0.15853,1.341395 0.47558,2.658401 z m -0.26828,0 h -2.6584 q 0.31706,-1.317006 0.47559,-2.658401 0.15853,-1.341395 0.15853,-2.694984 h 1.39017 q 0,1.353589 0.15853,2.694984 0.15853,1.341395 0.47558,2.658401 z m 4.73148,-2.182815 v -1.46334 l 2.78034,-3.146181 q 0.17072,-0.195112 0.34145,-0.390224 0.17072,-0.195112 0.30486,-0.414613 0.13414,-0.219501 0.20731,-0.463391 0.0732,-0.256085 0.0732,-0.512169 0,-0.219501 -0.0488,-0.439002 -0.0366,-0.219501 -0.17073,-0.402419 -0.12194,-0.182917 -0.32925,-0.268279 -0.20731,-0.09756 -0.42681,-0.09756 -0.19511,0 -0.39022,0.06097 -0.18292,0.06097 -0.32925,0.207306 -0.13414,0.13414 -0.19511,0.329252 -0.061,0.182917 -0.061,0.378029 v 0.03658 h -1.78039 v -0.08536 q 0,-0.341446 0.0854,-0.670697 0.0975,-0.341446 0.28047,-0.62192 0.18292,-0.292668 0.4512,-0.512169 0.28047,-0.219501 0.59753,-0.35364 0.31706,-0.13414 0.6585,-0.182918 0.34145,-0.04878 0.68289,-0.04878 0.36584,0 0.71948,0.06097 0.36583,0.06097 0.69509,0.219501 0.32925,0.158528 0.59753,0.414613 0.26827,0.24389 0.439,0.573141 0.17072,0.317057 0.23169,0.682892 0.0732,0.353641 0.0732,0.719476 0,0.390224 -0.0976,0.768253 -0.0975,0.37803 -0.29266,0.719476 -0.19512,0.341446 -0.4512,0.646308 -0.24389,0.292668 -0.49997,0.573142 l -0.0244,0.03658 h -0.0122 l -1.92673,2.182816 h 3.25593 v 1.46334 z m 10.07266,0.09756 q -0.35364,0 -0.70728,-0.04878 -0.35364,-0.04878 -0.6829,-0.170723 -0.31705,-0.13414 -0.60972,-0.341446 -0.28047,-0.219501 -0.48778,-0.512169 -0.19511,-0.292668 -0.29267,-0.634114 -0.0975,-0.341446 -0.0975,-0.695087 v -0.07317 h 1.78039 v 0.03658 q 0,0.207306 0.0732,0.402418 0.0854,0.195112 0.24389,0.329252 0.15853,0.134139 0.36583,0.195112 0.20731,0.04878 0.41462,0.04878 0.2195,0 0.42681,-0.06097 0.2195,-0.07317 0.37802,-0.231695 0.15853,-0.158529 0.2317,-0.365835 0.0732,-0.219501 0.0732,-0.451197 0,-0.207306 -0.061,-0.402418 -0.061,-0.195112 -0.18291,-0.365835 -0.10975,-0.170723 -0.28048,-0.292668 -0.15852,-0.13414 -0.35364,-0.207307 -0.19511,-0.07317 -0.40242,-0.08536 -0.2073,-0.0122 -0.41461,-0.0122 v -1.46334 q 0.28048,0 0.56095,-0.04878 0.28047,-0.06097 0.48778,-0.231695 0.2195,-0.182918 0.32925,-0.451197 0.12195,-0.268279 0.12195,-0.548752 0,-0.182918 -0.061,-0.37803 -0.0488,-0.195112 -0.17072,-0.341446 -0.12195,-0.146334 -0.30486,-0.219501 -0.18292,-0.07317 -0.37803,-0.07317 -0.18292,0 -0.36584,0.07317 -0.18291,0.06097 -0.30486,0.207307 -0.12194,0.134139 -0.18292,0.317057 -0.0488,0.182917 -0.0488,0.378029 v 0.03658 h -1.78039 v -0.09756 q 0,-0.329252 0.0854,-0.658503 0.0854,-0.341446 0.25608,-0.62192 0.18292,-0.292668 0.43901,-0.512169 0.26827,-0.219501 0.57314,-0.35364 0.31705,-0.13414 0.64631,-0.182918 0.34144,-0.04878 0.68289,-0.04878 0.34144,0 0.68289,0.06097 0.34145,0.04878 0.64631,0.195112 0.31706,0.134139 0.57314,0.365835 0.26828,0.231695 0.439,0.524363 0.17072,0.292668 0.25609,0.634114 0.0854,0.329252 0.0854,0.670698 0,0.304862 -0.0732,0.609725 -0.0732,0.292668 -0.23169,0.560947 -0.14634,0.256084 -0.37803,0.475585 -0.21951,0.219501 -0.48778,0.365835 0.30486,0.146334 0.56094,0.365835 0.26828,0.219501 0.439,0.512169 0.18292,0.280474 0.26828,0.609725 0.0976,0.329252 0.0976,0.670698 0,0.35364 -0.0976,0.707281 -0.0975,0.35364 -0.29266,0.658503 -0.18292,0.304862 -0.4634,0.548752 -0.28047,0.231696 -0.60972,0.37803 -0.32925,0.134139 -0.69509,0.182917 -0.35364,0.06097 -0.71947,0.06097 z"
             id="text68-8-8-5-37-6"
             style="font-weight:900;font-size:12.1945px;line-height:1;font-family:'Iosevka Sezimal QP';-inkscape-font-specification:'Iosevka Sezimal QP, Heavy';text-align:center;text-decoration-color:#d40000;text-anchor:middle;fill:#ffffff;stroke-width:0.571617"
             transform="rotate(38.574999)"
             aria-label="0󱹯23" />
        <path
             d="m 1.4919331,178.06184 q -0.365835,0 -0.73167,-0.061 -0.365835,-0.0488 -0.70728099,-0.19511 -0.3292515,-0.15853 -0.609725,-0.41461 -0.268279,-0.25609 -0.45119651,-0.57314 -0.170723,-0.31706 -0.24389,-0.6829 -0.073167,-0.36583 -0.073167,-0.73167 v -3.84126 q 0,-0.36584 0.073167,-0.73167 0.073167,-0.36584 0.24389,-0.6829 0.18291751,-0.31705 0.45119651,-0.57314 0.2804735,-0.25608 0.609725,-0.40242 0.34144599,-0.15852 0.70728099,-0.2073 0.365835,-0.061 0.73167,-0.061 0.365835,0 0.73167,0.061 0.365835,0.0488 0.6950865,0.2073 0.341446,0.14634 0.609725,0.40242 0.2804735,0.25609 0.4511965,0.57314 0.1829175,0.31706 0.2560845,0.6829 0.073167,0.36583 0.073167,0.73167 v 3.84126 q 0,0.36584 -0.073167,0.73167 -0.073167,0.36584 -0.2560845,0.6829 -0.170723,0.31705 -0.4511965,0.57314 -0.268279,0.25608 -0.609725,0.41461 -0.3292515,0.14633 -0.6950865,0.19511 -0.365835,0.061 -0.73167,0.061 z m -1.0365325,-4.56075 2.073065,-1.37798 v -0.56094 q 0,-0.2195 -0.048778,-0.43901 -0.048778,-0.23169 -0.195112,-0.40241 -0.1341395,-0.18292 -0.3536405,-0.26828 -0.219501,-0.0854 -0.439002,-0.0854 -0.219501,0 -0.439002,0.0854 -0.219501,0.0854 -0.365835,0.26828 -0.1341395,0.17072 -0.1829175,0.40241 -0.048778,0.21951 -0.048778,0.43901 z m 1.0365325,3.09741 q 0.219501,0 0.439002,-0.0854 0.219501,-0.0854 0.3536405,-0.25608 0.146334,-0.18292 0.195112,-0.40242 0.048778,-0.23169 0.048778,-0.4512 v -1.93892 l -2.073065,1.37798 v 0.56094 q 0,0.21951 0.048778,0.4512 0.048778,0.2195 0.1829175,0.40242 0.146334,0.17072 0.365835,0.25608 0.219501,0.0854 0.439002,0.0854 z m 7.4508443,3.54859 q 0.317057,-1.317 0.4755855,-2.6584 0.1585285,-1.34139 0.1585285,-2.69498 h 1.3901726 q 0,1.35359 0.158529,2.69498 0.158528,1.3414 0.475585,2.6584 z m -0.268279,0 h -2.658401 q 0.317057,-1.317 0.4755855,-2.6584 0.1585285,-1.34139 0.1585285,-2.69498 h 1.390173 q 0,1.35359 0.1585285,2.69498 0.1585285,1.3414 0.4755855,2.6584 z m 7.9142356,-2.18281 v -2.12184 h -3.182765 v -6.84112 h 1.780397 v 5.37778 h 1.402368 v -3.67055 h 1.780397 v 7.25573 z m 4.40222,0 v -1.46334 h 1.658452 v -3.9998 l -0.658503,1.57309 -1.268228,-0.4268 1.926731,-4.64611 h 1.768202 v 7.49962 h 1.475535 v 1.46334 z"
             id="text68-8-8-5-37-8"
             style="font-weight:900;font-size:12.1945px;line-height:1;font-family:'Iosevka Sezimal QP';-inkscape-font-specification:'Iosevka Sezimal QP, Heavy';text-align:center;text-decoration-color:#d40000;text-anchor:middle;fill:#ffffff;stroke-width:0.571617"
             transform="rotate(-38.566999)"
             aria-label="0󱹯41" />
        <path
             d="m 82.334625,127.29282 q -0.365835,0 -0.73167,-0.061 -0.365835,-0.0488 -0.707281,-0.19511 -0.329251,-0.15853 -0.609725,-0.41461 -0.268279,-0.25609 -0.451196,-0.57315 -0.170723,-0.31705 -0.24389,-0.68289 -0.07317,-0.36583 -0.07317,-0.73167 v -3.84127 q 0,-0.36583 0.07317,-0.73167 0.07317,-0.36583 0.24389,-0.68289 0.182917,-0.31705 0.451196,-0.57314 0.280474,-0.25608 0.609725,-0.40242 0.341446,-0.15853 0.707281,-0.2073 0.365835,-0.061 0.73167,-0.061 0.365835,0 0.73167,0.061 0.365835,0.0488 0.695087,0.2073 0.341446,0.14634 0.609725,0.40242 0.280473,0.25609 0.451196,0.57314 0.182918,0.31706 0.256085,0.68289 0.07317,0.36584 0.07317,0.73167 v 3.84127 q 0,0.36584 -0.07317,0.73167 -0.07317,0.36584 -0.256085,0.68289 -0.170723,0.31706 -0.451196,0.57315 -0.268279,0.25608 -0.609725,0.41461 -0.329252,0.14633 -0.695087,0.19511 -0.365835,0.061 -0.73167,0.061 z m -1.036532,-4.56074 2.073065,-1.37798 v -0.56095 q 0,-0.2195 -0.04878,-0.439 -0.04878,-0.23169 -0.195112,-0.40242 -0.13414,-0.18291 -0.353641,-0.26828 -0.219501,-0.0854 -0.439002,-0.0854 -0.219501,0 -0.439002,0.0854 -0.219501,0.0854 -0.365835,0.26828 -0.134139,0.17073 -0.182917,0.40242 -0.04878,0.2195 -0.04878,0.439 z m 1.036532,3.0974 q 0.219501,0 0.439002,-0.0854 0.219501,-0.0854 0.353641,-0.25608 0.146334,-0.18292 0.195112,-0.40242 0.04878,-0.2317 0.04878,-0.4512 v -1.93892 l -2.073065,1.37797 v 0.56095 q 0,0.2195 0.04878,0.4512 0.04878,0.2195 0.182917,0.40242 0.146334,0.17072 0.365835,0.25608 0.219501,0.0854 0.439002,0.0854 z m 7.450845,3.5486 q 0.317057,-1.317 0.475585,-2.6584 0.158529,-1.34139 0.158529,-2.69498 h 1.390173 q 0,1.35359 0.158528,2.69498 0.158529,1.3414 0.475586,2.6584 z m -0.268279,0 H 86.85879 q 0.317057,-1.317 0.475585,-2.6584 0.158529,-1.34139 0.158529,-2.69498 h 1.390173 q 0,1.35359 0.158528,2.69498 0.158529,1.3414 0.475586,2.6584 z m 7.487427,-2.08526 q -0.341446,0 -0.670697,-0.0488 -0.329252,-0.0488 -0.646309,-0.17072 -0.304862,-0.12194 -0.573141,-0.32925 -0.268279,-0.20731 -0.463391,-0.47559 -0.195112,-0.28047 -0.304863,-0.59753 -0.09756,-0.32925 -0.121945,-0.6585 h 1.792592 q 0.02439,0.17072 0.09756,0.34145 0.08536,0.15853 0.219501,0.26828 0.134139,0.10975 0.304862,0.15852 0.182918,0.0488 0.365835,0.0488 0.170723,0 0.329252,-0.061 0.158528,-0.061 0.280473,-0.17072 0.121945,-0.12195 0.195112,-0.26828 0.08536,-0.15853 0.121945,-0.31706 0.04878,-0.17072 0.06097,-0.34144 0.01219,-0.17073 0.01219,-0.34145 v -0.0122 q 0,-0.15852 -0.01219,-0.32925 -0.0122,-0.17072 -0.06097,-0.32925 -0.03658,-0.15853 -0.10975,-0.30486 -0.06097,-0.15853 -0.182918,-0.28047 -0.10975,-0.12195 -0.268279,-0.18292 -0.146334,-0.0732 -0.317057,-0.0732 -0.146334,0 -0.304862,0.0244 -0.146334,0.0244 -0.280474,0.0976 -0.134139,0.061 -0.231695,0.19511 -0.09756,0.12194 -0.09756,0.28047 h -1.780397 v -5.18266 h 5.060717 v 1.46334 h -3.28032 v 1.75601 q 0.219501,-0.0488 0.451196,-0.061 0.231696,-0.0244 0.463391,-0.0244 0.37803,0 0.756059,0.0732 0.37803,0.0732 0.707281,0.26828 0.341446,0.18292 0.585336,0.47559 0.256085,0.29267 0.402419,0.64631 0.158528,0.35364 0.219501,0.73167 0.06097,0.37803 0.06097,0.76825 0,0.37803 -0.06097,0.76825 -0.06097,0.37803 -0.219501,0.73167 -0.158529,0.35364 -0.426808,0.64631 -0.256084,0.29267 -0.59753,0.48778 -0.329252,0.18292 -0.719476,0.25609 -0.378029,0.0732 -0.756059,0.0732 z m 7.280122,0 q -0.36583,0 -0.73167,-0.061 -0.36583,-0.0488 -0.70728,-0.19511 -0.32925,-0.15853 -0.60973,-0.41461 -0.26827,-0.25609 -0.45119,-0.57315 -0.17072,-0.31705 -0.24389,-0.68289 -0.0732,-0.36583 -0.0732,-0.73167 v -3.84127 q 0,-0.36583 0.0732,-0.73167 0.0732,-0.36583 0.24389,-0.68289 0.18292,-0.31705 0.45119,-0.57314 0.28048,-0.25608 0.60973,-0.40242 0.34145,-0.15853 0.70728,-0.2073 0.36584,-0.061 0.73167,-0.061 0.36584,0 0.73167,0.061 0.36584,0.0488 0.69509,0.2073 0.34144,0.14634 0.60972,0.40242 0.28048,0.25609 0.4512,0.57314 0.18292,0.31706 0.25608,0.68289 0.0732,0.36584 0.0732,0.73167 v 3.84127 q 0,0.36584 -0.0732,0.73167 -0.0732,0.36584 -0.25608,0.68289 -0.17072,0.31706 -0.4512,0.57315 -0.26828,0.25608 -0.60972,0.41461 -0.32925,0.14633 -0.69509,0.19511 -0.36583,0.061 -0.73167,0.061 z m -1.03653,-4.56074 2.07306,-1.37798 v -0.56095 q 0,-0.2195 -0.0488,-0.439 -0.0488,-0.23169 -0.19512,-0.40242 -0.13414,-0.18291 -0.35364,-0.26828 -0.2195,-0.0854 -0.439,-0.0854 -0.2195,0 -0.439,0.0854 -0.2195,0.0854 -0.36584,0.26828 -0.13414,0.17073 -0.18291,0.40242 -0.0488,0.2195 -0.0488,0.439 z m 1.03653,3.0974 q 0.2195,0 0.439,-0.0854 0.2195,-0.0854 0.35364,-0.25608 0.14634,-0.18292 0.19512,-0.40242 0.0488,-0.2317 0.0488,-0.4512 v -1.93892 l -2.07306,1.37797 v 0.56095 q 0,0.2195 0.0488,0.4512 0.0488,0.2195 0.18291,0.40242 0.14634,0.17072 0.36584,0.25608 0.2195,0.0854 0.439,0.0854 z"
             id="text68-8-8-5-37-78"
             style="font-weight:900;font-size:12.1945px;line-height:1;font-family:'Iosevka Sezimal QP';-inkscape-font-specification:'Iosevka Sezimal QP, Heavy';text-align:center;text-decoration-color:#d40000;text-anchor:middle;fill:#ffffff;stroke-width:0.571617"
             transform="rotate(12.861)"
             aria-label="0󱹯50" />
        <path
             d="m 101.50268,32.800289 v -1.46334 h 1.65845 v -3.999796 l -0.6585,1.573091 -1.26823,-0.426808 1.92673,-4.646104 h 1.7682 v 7.499617 h 1.47554 v 1.46334 z"
             id="text68-8-8-5-37-0"
             style="font-weight:900;font-size:12.1945px;line-height:1;font-family:'Iosevka Sezimal QP';-inkscape-font-specification:'Iosevka Sezimal QP, Heavy';text-align:center;text-decoration-color:#d40000;text-anchor:middle;fill:#ffffff;stroke-width:0.571617"
             transform="rotate(64.289)"
             aria-label="1" />
        <path
             d="m 124.01379,81.01184 q -0.36584,0 -0.73167,-0.06097 -0.36584,-0.04878 -0.70728,-0.195112 -0.32926,-0.158528 -0.60973,-0.414613 -0.26828,-0.256084 -0.4512,-0.573141 -0.17072,-0.317057 -0.24389,-0.682892 -0.0732,-0.365835 -0.0732,-0.73167 v -3.841268 q 0,-0.365835 0.0732,-0.73167 0.0732,-0.365835 0.24389,-0.682892 0.18292,-0.317057 0.4512,-0.573141 0.28047,-0.256085 0.60973,-0.402419 0.34144,-0.158528 0.70728,-0.207306 0.36583,-0.06097 0.73167,-0.06097 0.36583,0 0.73167,0.06097 0.36583,0.04878 0.69508,0.207306 0.34145,0.146334 0.60973,0.402419 0.28047,0.256084 0.45119,0.573141 0.18292,0.317057 0.25609,0.682892 0.0732,0.365835 0.0732,0.73167 v 3.841268 q 0,0.365835 -0.0732,0.73167 -0.0732,0.365835 -0.25609,0.682892 -0.17072,0.317057 -0.45119,0.573141 -0.26828,0.256085 -0.60973,0.414613 -0.32925,0.146334 -0.69508,0.195112 -0.36584,0.06097 -0.73167,0.06097 z m -1.03654,-4.560743 2.07307,-1.377979 v -0.560947 q 0,-0.219501 -0.0488,-0.439002 -0.0488,-0.231695 -0.19511,-0.402418 -0.13414,-0.182918 -0.35364,-0.268279 -0.2195,-0.08536 -0.439,-0.08536 -0.2195,0 -0.43901,0.08536 -0.2195,0.08536 -0.36583,0.268279 -0.13414,0.170723 -0.18292,0.402418 -0.0488,0.219501 -0.0488,0.439002 z m 1.03654,3.097403 q 0.2195,0 0.439,-0.08536 0.2195,-0.08536 0.35364,-0.256084 0.14633,-0.182918 0.19511,-0.402419 0.0488,-0.231695 0.0488,-0.451196 v -1.938926 l -2.07307,1.377979 v 0.560947 q 0,0.219501 0.0488,0.451196 0.0488,0.219501 0.18292,0.402419 0.14633,0.170723 0.36583,0.256084 0.21951,0.08536 0.43901,0.08536 z m 7.45084,3.548599 q 0.31706,-1.317006 0.47559,-2.658401 0.15852,-1.341395 0.15852,-2.694984 h 1.39018 q 0,1.353589 0.15853,2.694984 0.15852,1.341395 0.47558,2.658401 z m -0.26828,0 h -2.6584 q 0.31706,-1.317006 0.47559,-2.658401 0.15852,-1.341395 0.15852,-2.694984 h 1.39018 q 0,1.353589 0.15853,2.694984 0.15852,1.341395 0.47558,2.658401 z m 7.48743,-2.085259 q -0.35364,0 -0.70728,-0.04878 -0.35364,-0.04878 -0.68289,-0.170723 -0.31706,-0.13414 -0.60973,-0.341446 -0.28047,-0.219501 -0.48778,-0.512169 -0.19511,-0.292668 -0.29267,-0.634114 -0.0975,-0.341446 -0.0975,-0.695087 v -0.07317 h 1.78039 v 0.03658 q 0,0.207306 0.0732,0.402418 0.0854,0.195112 0.24389,0.329252 0.15853,0.134139 0.36584,0.195112 0.2073,0.04878 0.41461,0.04878 0.2195,0 0.42681,-0.06097 0.2195,-0.07317 0.37803,-0.231695 0.15853,-0.158529 0.23169,-0.365835 0.0732,-0.219501 0.0732,-0.451197 0,-0.207306 -0.061,-0.402418 -0.061,-0.195112 -0.18292,-0.365835 -0.10975,-0.170723 -0.28047,-0.292668 -0.15853,-0.13414 -0.35364,-0.207307 -0.19512,-0.07317 -0.40242,-0.08536 -0.20731,-0.0122 -0.41462,-0.0122 v -1.46334 q 0.28048,0 0.56095,-0.04878 0.28047,-0.06097 0.48778,-0.231695 0.2195,-0.182918 0.32925,-0.451197 0.12195,-0.268279 0.12195,-0.548752 0,-0.182918 -0.061,-0.37803 -0.0488,-0.195112 -0.17072,-0.341446 -0.12194,-0.146334 -0.30486,-0.219501 -0.18292,-0.07317 -0.37803,-0.07317 -0.18292,0 -0.36584,0.07317 -0.18291,0.06097 -0.30486,0.207307 -0.12194,0.134139 -0.18292,0.317057 -0.0488,0.182917 -0.0488,0.378029 v 0.03658 h -1.7804 v -0.09756 q 0,-0.329252 0.0854,-0.658503 0.0854,-0.341446 0.25609,-0.62192 0.18291,-0.292668 0.439,-0.512169 0.26828,-0.219501 0.57314,-0.35364 0.31706,-0.13414 0.64631,-0.182918 0.34144,-0.04878 0.68289,-0.04878 0.34145,0 0.68289,0.06097 0.34145,0.04878 0.64631,0.195112 0.31706,0.134139 0.57314,0.365835 0.26828,0.231695 0.439,0.524363 0.17073,0.292668 0.25609,0.634114 0.0854,0.329252 0.0854,0.670698 0,0.304862 -0.0732,0.609725 -0.0732,0.292668 -0.23169,0.560947 -0.14634,0.256084 -0.37803,0.475585 -0.2195,0.219501 -0.48778,0.365835 0.30486,0.146334 0.56094,0.365835 0.26828,0.219501 0.43901,0.512169 0.18291,0.280474 0.26828,0.609725 0.0975,0.329252 0.0975,0.670698 0,0.35364 -0.0975,0.707281 -0.0976,0.35364 -0.29267,0.658503 -0.18292,0.304862 -0.46339,0.548752 -0.28048,0.231696 -0.60973,0.37803 -0.32925,0.134139 -0.69508,0.182917 -0.35365,0.06097 -0.71948,0.06097 z m 4.56075,-0.09756 v -1.46334 l 2.78034,-3.146181 q 0.17073,-0.195112 0.34145,-0.390224 0.17072,-0.195112 0.30486,-0.414613 0.13414,-0.219501 0.20731,-0.463391 0.0732,-0.256085 0.0732,-0.512169 0,-0.219501 -0.0488,-0.439002 -0.0366,-0.219501 -0.17072,-0.402419 -0.12195,-0.182917 -0.32926,-0.268279 -0.2073,-0.09756 -0.4268,-0.09756 -0.19512,0 -0.39023,0.06097 -0.18292,0.06097 -0.32925,0.207306 -0.13414,0.13414 -0.19511,0.329252 -0.061,0.182917 -0.061,0.378029 v 0.03658 h -1.7804 v -0.08536 q 0,-0.341446 0.0854,-0.670697 0.0976,-0.341446 0.28047,-0.62192 0.18292,-0.292668 0.4512,-0.512169 0.28047,-0.219501 0.59753,-0.35364 0.31706,-0.13414 0.6585,-0.182918 0.34145,-0.04878 0.6829,-0.04878 0.36583,0 0.71947,0.06097 0.36584,0.06097 0.69509,0.219501 0.32925,0.158528 0.59753,0.414613 0.26828,0.24389 0.439,0.573141 0.17072,0.317057 0.2317,0.682892 0.0732,0.353641 0.0732,0.719476 0,0.390224 -0.0975,0.768253 -0.0976,0.37803 -0.29267,0.719476 -0.19511,0.341446 -0.4512,0.646308 -0.24389,0.292668 -0.49997,0.573142 l -0.0244,0.03658 h -0.0122 l -1.92673,2.182816 h 3.25594 v 1.46334 z"
             id="text142"
             style="font-weight:900;font-size:12.1945px;line-height:1;font-family:'Iosevka Sezimal QP';-inkscape-font-specification:'Iosevka Sezimal QP, Heavy';text-align:center;text-decoration-color:#d40000;text-anchor:middle;fill:#ffffff;stroke-width:0.571617"
             transform="rotate(0.005)"
             aria-label="0󱹯32" />
        <path
             id="path72-8-4-8"
             style="fill:#ffffff;stroke-width:0.585487"
             d="M 90.738668,77.775986 A 12.962667,12.962667 0 0 1 77.776001,90.738653 12.962667,12.962667 0 0 1 64.813334,77.775986 12.962667,12.962667 0 0 1 77.776001,64.813318 12.962667,12.962667 0 0 1 90.738668,77.775986 Z" />
        <path
             d="m 71.053794,82.817635 v -1.646256 h 1.865757 v -4.499767 l -0.740815,1.769726 -1.426755,-0.480158 2.16757,-5.226863 h 1.989226 v 8.437062 h 1.659975 v 1.646256 z m 8.231285,0 v -1.646256 h 1.865757 v -4.499767 l -0.740815,1.769726 -1.426755,-0.480158 2.16757,-5.226863 h 1.989226 v 8.437062 h 1.659975 v 1.646256 z"
             id="text73-5-74-4"
             style="font-weight:900;font-size:13.7188px;line-height:1.5;font-family:'Iosevka Sezimal QP';-inkscape-font-specification:'Iosevka Sezimal QP, Heavy';text-align:center;text-decoration-color:#d40000;text-anchor:middle;stroke-width:0.571617"
             aria-label="11" />
    </g>
</svg>
