<?xml version="1.0" encoding="UTF-8" standalone="no"?>
<!-- Created with Inkscape (http://www.inkscape.org/) -->

<svg
     width="155.552mm"
     height="155.552mm"
     viewBox="0 0 155.552 155.552"
     version="1.1"
     id="svg1"
     inkscape:version="1.3.2 (091e20ef0f, 2023-11-25, custom)"
     sodipodi:docname="circle_fraction_05.svg"
     xmlns:inkscape="http://www.inkscape.org/namespaces/inkscape"
     xmlns:sodipodi="http://sodipodi.sourceforge.net/DTD/sodipodi-0.dtd"
     xmlns="http://www.w3.org/2000/svg"
     xmlns:svg="http://www.w3.org/2000/svg">
    <sodipodi:namedview
         id="namedview1"
         pagecolor="#ffffff"
         bordercolor="#000000"
         borderopacity="0.25"
         inkscape:showpageshadow="2"
         inkscape:pageopacity="0.0"
         inkscape:pagecheckerboard="0"
         inkscape:deskcolor="#d1d1d1"
         inkscape:document-units="mm"
         inkscape:zoom="0.68862935"
         inkscape:cx="396.43968"
         inkscape:cy="482.8432"
         inkscape:window-width="1920"
         inkscape:window-height="1014"
         inkscape:window-x="0"
         inkscape:window-y="0"
         inkscape:window-maximized="1"
         inkscape:current-layer="layer1" />
    <defs
         id="defs1" />
    <g
         inkscape:label="Camada 1"
         inkscape:groupmode="layer"
         id="layer1">
        <path
             id="ellipse7"
             style="vector-effect:none;fill:#c6e9af;stroke-width:2.13086;stop-color:#000000"
             transform="scale(-1)"
             d="M 0,-77.775993 A 77.776001,77.776001 0 0 1 -77.776001,7.6293945e-6 77.776001,77.776001 0 0 1 -155.552,-77.775993 77.776001,77.776001 0 0 1 -77.776001,-155.55199 77.776001,77.776001 0 0 1 0,-77.775993 Z" />
        <path
             id="path7"
             style="fill:#aade87;stroke-width:2.13086"
             transform="scale(-1)"
             d="M 0,-77.775993 A 77.776001,77.776001 0 0 1 -53.741898,-3.8066199 L -77.776001,-77.775993 Z" />
        <path
             id="path8"
             style="fill:#c6e9af;stroke-width:2.13086"
             transform="scale(-1)"
             d="M -53.741898,-3.8066199 A 77.776001,77.776001 0 0 1 -140.69811,-32.060406 l 62.922109,-45.715587 z" />
        <path
             id="path9"
             style="fill:#8dd35f;stroke-width:2.13086"
             transform="scale(-1)"
             d="m -140.69811,-32.060406 a 77.776001,77.776001 0 0 1 0,-91.431174 l 62.922109,45.715587 z" />
        <path
             id="ellipse9"
             style="vector-effect:none;fill:#aade87;stroke-width:2.13086;stop-color:#000000"
             transform="scale(-1)"
             d="m -140.69811,-123.49158 a 77.776001,77.776001 0 0 1 86.956212,-28.25379 l -24.034103,73.969377 z" />
        <path
             id="path72-8-6"
             style="fill:#ffffff;stroke-width:0.585487"
             d="M 90.738668,77.775993 A 12.962667,12.962667 0 0 1 77.776001,90.738661 12.962667,12.962667 0 0 1 64.813334,77.775993 12.962667,12.962667 0 0 1 77.776001,64.813326 12.962667,12.962667 0 0 1 90.738668,77.775993 Z" />
        <path
             d="m 77.775994,82.9274 q -0.384126,0 -0.754534,-0.05488 -0.370407,-0.05487 -0.727096,-0.192063 -0.34297,-0.137188 -0.644784,-0.370408 -0.301813,-0.233219 -0.521314,-0.535033 -0.219501,-0.315532 -0.34297,-0.672221 -0.109751,-0.370408 -0.137188,-0.740815 h 2.016663 q 0.02744,0.192063 0.109751,0.384126 0.09603,0.178344 0.246938,0.301814 0.150907,0.123469 0.34297,0.178344 0.205782,0.05487 0.411564,0.05487 0.192063,0 0.370408,-0.06859 0.178344,-0.06859 0.315532,-0.192063 0.137188,-0.137188 0.219501,-0.301813 0.09603,-0.178345 0.137188,-0.356689 0.05487,-0.192063 0.06859,-0.384127 0.01372,-0.192063 0.01372,-0.384126 v -0.01372 q 0,-0.178344 -0.01372,-0.370407 -0.01372,-0.192064 -0.06859,-0.370408 -0.04116,-0.178344 -0.123469,-0.34297 -0.06859,-0.178344 -0.205782,-0.315532 -0.123469,-0.137188 -0.301814,-0.205782 -0.164625,-0.08231 -0.356689,-0.08231 -0.164625,0 -0.34297,0.02744 -0.164625,0.02744 -0.315532,0.109751 -0.150907,0.06859 -0.260657,0.219501 -0.109751,0.137188 -0.109751,0.315532 h -2.002944 v -5.83049 h 5.693301 v 1.646256 h -3.690357 v 1.975507 q 0.246939,-0.05487 0.507596,-0.06859 0.260657,-0.02744 0.521314,-0.02744 0.425283,0 0.850566,0.08231 0.425283,0.08231 0.79569,0.301814 0.384127,0.205782 0.658503,0.535033 0.288094,0.329251 0.45272,0.727097 0.178344,0.397845 0.246938,0.823128 0.06859,0.425282 0.06859,0.864284 0,0.425283 -0.06859,0.864284 -0.06859,0.425283 -0.246938,0.823128 -0.178344,0.397845 -0.480158,0.727097 -0.288095,0.329251 -0.672221,0.548752 -0.370408,0.205782 -0.809409,0.288094 -0.425283,0.08231 -0.850566,0.08231 z"
             id="text73-5-8"
             style="font-weight:900;font-size:13.7188px;line-height:1.5;font-family:'Iosevka Sezimal QP';-inkscape-font-specification:'Iosevka Sezimal QP, Heavy';text-align:center;text-decoration-color:#d40000;text-anchor:middle;stroke-width:0.571617"
             aria-label="5" />
        <path
             d="m -26.123761,50.951081 q -0.457293,0 -0.914586,-0.07622 -0.457293,-0.06097 -0.8841,-0.243889 -0.411563,-0.198161 -0.762155,-0.518266 -0.335348,-0.320105 -0.563994,-0.716426 -0.213404,-0.39632 -0.304862,-0.853613 -0.09146,-0.457293 -0.09146,-0.914586 v -4.801577 q 0,-0.457293 0.09146,-0.914586 0.09146,-0.457293 0.304862,-0.853613 0.228646,-0.396321 0.563994,-0.716426 0.350592,-0.320105 0.762155,-0.503022 0.426807,-0.198161 0.8841,-0.259133 0.457293,-0.07622 0.914586,-0.07622 0.457293,0 0.914586,0.07622 0.457293,0.06097 0.868857,0.259133 0.426807,0.182917 0.762155,0.503022 0.350591,0.320105 0.563995,0.716426 0.228646,0.39632 0.320105,0.853613 0.09146,0.457293 0.09146,0.914586 v 4.801577 q 0,0.457293 -0.09146,0.914586 -0.09146,0.457293 -0.320105,0.853613 -0.213404,0.396321 -0.563995,0.716426 -0.335348,0.320105 -0.762155,0.518266 -0.411564,0.182917 -0.868857,0.243889 -0.457293,0.07622 -0.914586,0.07622 z m -1.295663,-5.70092 2.591327,-1.72247 v -0.701183 q 0,-0.274375 -0.06097,-0.548751 -0.06097,-0.289619 -0.243889,-0.503023 -0.167674,-0.228646 -0.44205,-0.335348 -0.274376,-0.106702 -0.548752,-0.106702 -0.274376,0 -0.548751,0.106702 -0.274376,0.106702 -0.457293,0.335348 -0.167674,0.213404 -0.228647,0.503023 -0.06097,0.274376 -0.06097,0.548751 z m 1.295663,3.871748 q 0.274376,0 0.548752,-0.106702 0.274376,-0.106702 0.44205,-0.320105 0.182917,-0.228647 0.243889,-0.503022 0.06097,-0.289619 0.06097,-0.563995 v -2.423653 l -2.591327,1.72247 v 0.701183 q 0,0.274376 0.06097,0.563995 0.06097,0.274375 0.228647,0.503022 0.182917,0.213403 0.457293,0.320105 0.274375,0.106702 0.548751,0.106702 z m 9.31354,4.435742 q 0.39632,-1.646255 0.594481,-3.322996 0.19816,-1.676741 0.19816,-3.368725 h 1.737713 q 0,1.691984 0.198161,3.368725 0.19816,1.676741 0.594481,3.322996 z m -0.335348,0 h -3.322996 q 0.39632,-1.646255 0.594481,-3.322996 0.19816,-1.676741 0.19816,-3.368725 h 1.737713 q 0,1.691984 0.198161,3.368725 0.19816,1.676741 0.594481,3.322996 z m 6.249676,-2.728515 v -1.829172 h 2.0730616 v -4.999737 l -0.8231274,1.96636 -1.5852822,-0.533509 2.4084096,-5.807621 h 2.2102496 v 9.374507 h 1.8444151 v 1.829172 z"
             id="text68-8-8-5-3-3"
             style="font-weight:900;font-size:15.2431px;line-height:1;font-family:'Iosevka Sezimal QP';-inkscape-font-specification:'Iosevka Sezimal QP, Heavy';text-align:center;text-decoration-color:#d40000;text-anchor:middle;fill:#333333;stroke-width:0.571617"
             transform="rotate(-53.999999)"
             aria-label="0󱹯1" />
        <path
             d="m 89.086256,-7.7513429 q -0.457293,0 -0.914587,-0.076215 -0.457293,-0.060972 -0.884099,-0.2438896 -0.411564,-0.1981603 -0.762155,-0.5182654 -0.335349,-0.3201051 -0.563995,-0.7164257 -0.213403,-0.3963206 -0.304862,-0.8536139 -0.09146,-0.457293 -0.09146,-0.914586 v -4.801576 q 0,-0.457293 0.09146,-0.914586 0.09146,-0.457293 0.304862,-0.853614 0.228646,-0.39632 0.563995,-0.716426 0.350591,-0.320105 0.762155,-0.503022 0.426806,-0.19816 0.884099,-0.259133 0.457294,-0.07621 0.914587,-0.07621 0.457293,0 0.914586,0.07621 0.457293,0.06097 0.868856,0.259133 0.426807,0.182917 0.762155,0.503022 0.350592,0.320106 0.563995,0.716426 0.228646,0.396321 0.320105,0.853614 0.09146,0.457293 0.09146,0.914586 v 4.801576 q 0,0.457293 -0.09146,0.914586 -0.09146,0.4572933 -0.320105,0.8536139 -0.213403,0.3963206 -0.563995,0.7164257 -0.335348,0.3201051 -0.762155,0.5182654 -0.411563,0.1829172 -0.868856,0.2438896 -0.457293,0.076215 -0.914586,0.076215 z m -1.295664,-5.7009191 2.591327,-1.722471 v -0.701182 q 0,-0.274376 -0.06097,-0.548752 -0.06097,-0.289619 -0.24389,-0.503022 -0.167674,-0.228647 -0.44205,-0.335348 -0.274376,-0.106702 -0.548751,-0.106702 -0.274376,0 -0.548752,0.106702 -0.274376,0.106701 -0.457293,0.335348 -0.167674,0.213403 -0.228647,0.503022 -0.06097,0.274376 -0.06097,0.548752 z m 1.295664,3.8717471 q 0.274375,0 0.548751,-0.1067017 0.274376,-0.1067017 0.44205,-0.3201054 0.182917,-0.228646 0.24389,-0.503022 0.06097,-0.289619 0.06097,-0.563995 v -2.423653 l -2.591327,1.722471 v 0.701182 q 0,0.274376 0.06097,0.563995 0.06097,0.274376 0.228647,0.503022 0.182917,0.2134037 0.457293,0.3201054 0.274376,0.1067017 0.548752,0.1067017 z m 9.313539,4.4357422 q 0.396321,-1.6462549 0.594481,-3.3229959 0.19816,-1.6767414 0.19816,-3.3687254 h 1.737714 q 0,1.691984 0.19816,3.3687254 0.19816,1.676741 0.59448,3.3229959 z m -0.335348,0 h -3.322996 q 0.396321,-1.6462549 0.594481,-3.3229959 0.19816,-1.6767414 0.19816,-3.3687254 h 1.737714 q 0,1.691984 0.19816,3.3687254 0.19816,1.676741 0.594481,3.3229959 z m 5.914333,-2.728515 v -1.829172 l 3.47542,-3.9327203 q 0.21341,-0.243889 0.42681,-0.487779 0.2134,-0.243889 0.38108,-0.518265 0.16767,-0.274376 0.25913,-0.579238 0.0915,-0.320105 0.0915,-0.64021 0,-0.274376 -0.061,-0.548752 -0.0457,-0.274376 -0.21341,-0.503022 -0.15243,-0.228647 -0.41156,-0.335348 -0.25913,-0.121945 -0.53351,-0.121945 -0.24389,0 -0.48778,0.07621 -0.22865,0.07622 -0.41156,0.259133 -0.16768,0.167674 -0.24389,0.411564 -0.0762,0.228646 -0.0762,0.472536 v 0.04573 h -2.22549 v -0.106701 q 0,-0.426807 0.1067,-0.838371 0.12195,-0.426807 0.35059,-0.777398 0.22865,-0.365834 0.564,-0.64021 0.35059,-0.274376 0.74691,-0.44205 0.39632,-0.167674 0.82313,-0.228647 0.4268,-0.06097 0.85361,-0.06097 0.45729,0 0.89934,0.07621 0.4573,0.07622 0.86886,0.274376 0.41156,0.198161 0.74691,0.518266 0.33535,0.304862 0.54875,0.716425 0.21341,0.396321 0.28962,0.853614 0.0915,0.44205 0.0915,0.899343 0,0.487779 -0.12194,0.960315 -0.12195,0.472536 -0.36584,0.899343 -0.24389,0.426807 -0.56399,0.807884 -0.30487,0.365835 -0.62497,0.716426 l -0.0305,0.04573 h -0.0152 l -2.40841,2.7285153 h 4.06991 v 1.829172 z"
             id="text68-8-8-5-3-3-6"
             style="font-weight:900;font-size:15.2431px;line-height:1;font-family:'Iosevka Sezimal QP';-inkscape-font-specification:'Iosevka Sezimal QP, Heavy';text-align:center;text-decoration-color:#d40000;text-anchor:middle;fill:#333333;stroke-width:0.571617"
             transform="rotate(18)"
             aria-label="0󱹯2" />
        <path
             d="m 41.0384,166.68704 q -0.457293,0 -0.914586,-0.0762 -0.457293,-0.061 -0.8841,-0.24389 -0.411563,-0.19816 -0.762155,-0.51826 -0.335348,-0.32011 -0.563994,-0.71643 -0.213404,-0.39632 -0.304862,-0.85361 -0.09146,-0.45729 -0.09146,-0.91459 v -4.80157 q 0,-0.4573 0.09146,-0.91459 0.09146,-0.45729 0.304862,-0.85361 0.228646,-0.39632 0.563994,-0.71643 0.350592,-0.3201 0.762155,-0.50302 0.426807,-0.19816 0.8841,-0.25913 0.457293,-0.0762 0.914586,-0.0762 0.457293,0 0.914586,0.0762 0.457293,0.061 0.868857,0.25913 0.426807,0.18292 0.762155,0.50302 0.350591,0.32011 0.563995,0.71643 0.228646,0.39632 0.320105,0.85361 0.09146,0.45729 0.09146,0.91459 v 4.80157 q 0,0.4573 -0.09146,0.91459 -0.09146,0.45729 -0.320105,0.85361 -0.213404,0.39632 -0.563995,0.71643 -0.335348,0.3201 -0.762155,0.51826 -0.411564,0.18292 -0.868857,0.24389 -0.457293,0.0762 -0.914586,0.0762 z m -1.295663,-5.70092 2.591327,-1.72247 v -0.70118 q 0,-0.27438 -0.06097,-0.54876 -0.06097,-0.28961 -0.243889,-0.50302 -0.167674,-0.22864 -0.44205,-0.33535 -0.274376,-0.1067 -0.548752,-0.1067 -0.274376,0 -0.548751,0.1067 -0.274376,0.10671 -0.457293,0.33535 -0.167675,0.21341 -0.228647,0.50302 -0.06097,0.27438 -0.06097,0.54876 z m 1.295663,3.87175 q 0.274376,0 0.548752,-0.1067 0.274376,-0.10671 0.44205,-0.32011 0.182917,-0.22865 0.243889,-0.50302 0.06097,-0.28962 0.06097,-0.564 v -2.42365 l -2.591327,1.72247 v 0.70118 q 0,0.27438 0.06097,0.564 0.06097,0.27437 0.228647,0.50302 0.182917,0.2134 0.457293,0.32011 0.274375,0.1067 0.548751,0.1067 z m 9.31354,4.43574 q 0.39632,-1.64626 0.594481,-3.323 0.19816,-1.67674 0.19816,-3.36872 h 1.737713 q 0,1.69198 0.198161,3.36872 0.19816,1.67674 0.594481,3.323 z m -0.335349,0 h -3.322995 q 0.39632,-1.64626 0.594481,-3.323 0.19816,-1.67674 0.19816,-3.36872 h 1.737713 q 0,1.69198 0.198161,3.36872 0.19816,1.67674 0.59448,3.323 z m 9.892778,-2.72852 v -2.6523 H 55.93092 v -8.55137 h 2.225492 v 6.7222 h 1.752957 v -4.58817 h 2.225492 v 9.06964 z"
             id="text68-8-8-5-3-3-4"
             style="font-weight:900;font-size:15.2431px;line-height:1;font-family:'Iosevka Sezimal QP';-inkscape-font-specification:'Iosevka Sezimal QP, Heavy';text-align:center;text-decoration-color:#d40000;text-anchor:middle;fill:#333333;stroke-width:0.571617"
             transform="rotate(-18)"
             aria-label="0󱹯4" />
        <path
             d="m 105.68056,51.805759 v -1.829172 h 2.07307 v -4.999736 l -0.82313,1.966359 -1.58528,-0.533508 2.40841,-5.807621 h 2.21025 v 9.374506 h 1.84441 v 1.829172 z"
             id="text68-8-8-5-3-3-7"
             style="font-weight:900;font-size:15.2431px;line-height:1;font-family:'Iosevka Sezimal QP';-inkscape-font-specification:'Iosevka Sezimal QP, Heavy';text-align:center;text-decoration-color:#d40000;text-anchor:middle;fill:#333333;stroke-width:0.571617"
             transform="rotate(53.999999)"
             aria-label="1" />
        <path
             d="m 127.1155,82.147129 q -0.45729,0 -0.91459,-0.07622 -0.45729,-0.06097 -0.8841,-0.24389 -0.41156,-0.19816 -0.76215,-0.518265 -0.33535,-0.320105 -0.564,-0.716426 -0.2134,-0.39632 -0.30486,-0.853613 -0.0915,-0.457293 -0.0915,-0.914586 v -4.801577 q 0,-0.457293 0.0915,-0.914586 0.0915,-0.457293 0.30486,-0.853614 0.22865,-0.39632 0.564,-0.716425 0.35059,-0.320105 0.76215,-0.503023 0.42681,-0.19816 0.8841,-0.259132 0.4573,-0.07622 0.91459,-0.07622 0.45729,0 0.91458,0.07622 0.4573,0.06097 0.86886,0.259132 0.42681,0.182918 0.76216,0.503023 0.35059,0.320105 0.56399,0.716425 0.22865,0.396321 0.32011,0.853614 0.0915,0.457293 0.0915,0.914586 v 4.801577 q 0,0.457293 -0.0915,0.914586 -0.0915,0.457293 -0.32011,0.853613 -0.2134,0.396321 -0.56399,0.716426 -0.33535,0.320105 -0.76216,0.518265 -0.41156,0.182918 -0.86886,0.24389 -0.45729,0.07622 -0.91458,0.07622 z m -1.29566,-5.700919 2.59132,-1.72247 v -0.701183 q 0,-0.274376 -0.061,-0.548752 -0.061,-0.289618 -0.24389,-0.503022 -0.16767,-0.228646 -0.44205,-0.335348 -0.27438,-0.106702 -0.54875,-0.106702 -0.27438,0 -0.54875,0.106702 -0.27438,0.106702 -0.4573,0.335348 -0.16767,0.213404 -0.22864,0.503022 -0.061,0.274376 -0.061,0.548752 z m 1.29566,3.871747 q 0.27437,0 0.54875,-0.106701 0.27438,-0.106702 0.44205,-0.320105 0.18292,-0.228647 0.24389,-0.503023 0.061,-0.289619 0.061,-0.563994 v -2.423653 l -2.59132,1.72247 v 0.701183 q 0,0.274375 0.061,0.563994 0.061,0.274376 0.22864,0.503023 0.18292,0.213403 0.4573,0.320105 0.27437,0.106701 0.54875,0.106701 z m 9.31354,4.435743 q 0.39632,-1.646255 0.59448,-3.322996 0.19816,-1.676741 0.19816,-3.368725 h 1.73771 q 0,1.691984 0.19816,3.368725 0.19816,1.676741 0.59448,3.322996 z m -0.33535,0 h -3.323 q 0.39633,-1.646255 0.59449,-3.322996 0.19816,-1.676741 0.19816,-3.368725 h 1.73771 q 0,1.691984 0.19816,3.368725 0.19816,1.676741 0.59448,3.322996 z m 9.35927,-2.606571 q -0.44205,0 -0.8841,-0.06097 -0.44205,-0.06097 -0.85361,-0.213403 -0.39632,-0.167674 -0.76216,-0.426807 -0.35059,-0.274376 -0.60972,-0.64021 -0.24389,-0.365835 -0.36584,-0.792642 -0.12194,-0.426806 -0.12194,-0.868856 v -0.09146 h 2.22549 v 0.04573 q 0,0.259133 0.0915,0.503023 0.1067,0.243889 0.30486,0.411563 0.19816,0.167675 0.45729,0.24389 0.25914,0.06097 0.51827,0.06097 0.27437,0 0.53351,-0.07622 0.27437,-0.09146 0.47253,-0.289619 0.19816,-0.19816 0.28962,-0.457293 0.0915,-0.274376 0.0915,-0.563995 0,-0.259132 -0.0762,-0.503022 -0.0762,-0.24389 -0.22865,-0.457293 -0.13719,-0.213403 -0.35059,-0.365834 -0.19816,-0.167675 -0.44205,-0.259133 -0.24389,-0.09146 -0.50302,-0.106702 -0.25914,-0.01524 -0.51827,-0.01524 v -1.829172 q 0.35059,0 0.70118,-0.06097 0.35059,-0.07622 0.60973,-0.289619 0.27437,-0.228647 0.41156,-0.563995 0.15243,-0.335348 0.15243,-0.685939 0,-0.228647 -0.0762,-0.472537 -0.061,-0.243889 -0.21341,-0.426806 -0.15243,-0.182918 -0.38107,-0.274376 -0.22865,-0.09146 -0.47254,-0.09146 -0.22865,0 -0.45729,0.09146 -0.22865,0.07621 -0.38108,0.259133 -0.15243,0.167674 -0.22865,0.39632 -0.061,0.228647 -0.061,0.472536 v 0.04573 h -2.22549 v -0.121945 q 0,-0.411564 0.1067,-0.823128 0.1067,-0.426806 0.3201,-0.777398 0.22865,-0.365834 0.54876,-0.64021 0.33534,-0.274376 0.71642,-0.44205 0.39632,-0.167674 0.80789,-0.228646 0.4268,-0.06097 0.85361,-0.06097 0.42681,0 0.85361,0.07622 0.42681,0.06097 0.80789,0.243889 0.39632,0.167674 0.71642,0.457293 0.33535,0.289619 0.54875,0.655454 0.21341,0.365834 0.32011,0.792641 0.1067,0.411564 0.1067,0.83837 0,0.381078 -0.0915,0.762155 -0.0915,0.365835 -0.28962,0.701183 -0.18291,0.320105 -0.47253,0.594481 -0.27438,0.274376 -0.60973,0.457293 0.38108,0.182917 0.70119,0.457293 0.33534,0.274376 0.54875,0.64021 0.22864,0.350591 0.33535,0.762155 0.12194,0.411564 0.12194,0.838371 0,0.44205 -0.12194,0.884099 -0.12195,0.44205 -0.36584,0.823128 -0.22864,0.381077 -0.57924,0.685939 -0.35059,0.289619 -0.76215,0.472536 -0.41156,0.167675 -0.86886,0.228647 -0.44205,0.07622 -0.89934,0.07622 z"
             id="text118"
             style="font-weight:900;font-size:15.2431px;line-height:1;font-family:'Iosevka Sezimal QP';-inkscape-font-specification:'Iosevka Sezimal QP, Heavy';text-align:center;text-decoration-color:#d40000;text-anchor:middle;fill:#333333;stroke-width:0.571617"
             aria-label="0󱹯3" />
    </g>
</svg>
