<?xml version="1.0" encoding="UTF-8" standalone="no"?>
<!-- Created with Inkscape (http://www.inkscape.org/) -->

<svg
     width="155.552mm"
     height="155.552mm"
     viewBox="0 0 155.552 155.552"
     version="1.1"
     id="svg1"
     inkscape:version="1.3.2 (091e20ef0f, 2023-11-25, custom)"
     sodipodi:docname="circle_fraction_13.svg"
     xmlns:inkscape="http://www.inkscape.org/namespaces/inkscape"
     xmlns:sodipodi="http://sodipodi.sourceforge.net/DTD/sodipodi-0.dtd"
     xmlns="http://www.w3.org/2000/svg"
     xmlns:svg="http://www.w3.org/2000/svg">
    <sodipodi:namedview
         id="namedview1"
         pagecolor="#ffffff"
         bordercolor="#000000"
         borderopacity="0.25"
         inkscape:showpageshadow="2"
         inkscape:pageopacity="0.0"
         inkscape:pagecheckerboard="0"
         inkscape:deskcolor="#d1d1d1"
         inkscape:document-units="mm"
         inkscape:zoom="0.68862935"
         inkscape:cx="396.43968"
         inkscape:cy="482.8432"
         inkscape:window-width="1920"
         inkscape:window-height="1014"
         inkscape:window-x="0"
         inkscape:window-y="0"
         inkscape:window-maximized="1"
         inkscape:current-layer="layer1" />
    <defs
         id="defs1" />
    <g
         inkscape:label="Camada 1"
         inkscape:groupmode="layer"
         id="layer1">
        <path
             id="ellipse25"
             style="vector-effect:none;fill:#ffccaa;stroke-width:2.13086;stop-color:#000000"
             transform="rotate(140)"
             d="m 68.189574,-109.57333 a 77.776001,77.775993 0 0 1 -77.7760007,77.77599 77.776001,77.775993 0 0 1 -77.7760013,-77.77599 77.776001,77.775993 0 0 1 77.7760013,-77.776 77.776001,77.775993 0 0 1 77.7760007,77.776 z" />
        <path
             id="path25"
             style="fill:#ff9955;stroke-width:2.13086"
             transform="rotate(140)"
             d="M 49.993447,-59.579889 A 77.776001,77.775993 0 0 1 3.9192342,-32.978933 L -9.5864267,-109.57333 Z" />
        <path
             id="path26"
             style="fill:#ffb380;stroke-width:2.13086"
             transform="rotate(140)"
             d="M 3.9192342,-32.978933 A 77.776001,77.775993 0 0 1 -48.474427,-42.217348 L -9.5864267,-109.57333 Z" />
        <path
             id="path27"
             style="vector-effect:none;fill:#ffccaa;stroke-width:2.13086;stop-color:#000000"
             transform="rotate(140)"
             d="M -48.474427,-42.217348 A 77.776001,77.775993 0 0 1 -82.671961,-82.972377 L -9.5864267,-109.57333 Z" />
        <path
             id="path28"
             style="vector-effect:none;fill:#ff9955;stroke-width:2.13086;stop-color:#000000"
             transform="rotate(140)"
             d="m -82.671961,-82.972377 a 77.776001,77.775993 0 0 1 0,-53.201913 l 73.0855343,26.60096 z" />
        <path
             id="path29"
             style="vector-effect:none;fill:#ffb380;stroke-width:2.13086;stop-color:#000000"
             transform="rotate(140)"
             d="m -82.671961,-136.17429 a 77.776001,77.775993 0 0 1 34.197533,-40.75503 l 38.8880013,67.35599 z" />
        <path
             id="path30"
             style="vector-effect:none;fill:#ffccaa;stroke-width:2.13086;stop-color:#000000"
             transform="rotate(140)"
             d="m -48.474428,-176.92932 a 77.776001,77.775993 0 0 1 52.3936617,-9.23842 l -13.5056604,76.59441 z" />
        <path
             id="path31"
             style="fill:#ff9955;stroke-width:2.13086"
             transform="rotate(140)"
             d="m 3.9192337,-186.16774 a 77.776001,77.775993 0 0 1 46.0742123,26.60096 l -59.5798727,49.99345 z" />
        <path
             id="path32"
             style="fill:#ffb380;stroke-width:2.13086"
             transform="rotate(140)"
             d="m 49.993446,-159.56678 a 77.776001,77.775993 0 0 1 18.196128,49.99345 H -9.5864267 Z" />
        <path
             id="path72-8-2"
             style="fill:#ffffff;stroke-width:0.585487"
             d="M 90.738653,77.775963 A 12.962667,12.962667 0 0 1 77.775986,90.73863 12.962667,12.962667 0 0 1 64.813318,77.775963 12.962667,12.962667 0 0 1 77.775986,64.813295 12.962667,12.962667 0 0 1 90.738653,77.775963 Z" />
        <path
             d="m 70.793121,82.817612 v -1.646256 h 1.865756 v -4.499767 l -0.740815,1.769726 -1.426755,-0.480158 2.16757,-5.226863 h 1.989226 v 8.437062 h 1.659975 v 1.646256 z m 11.02992,0.10975 q -0.397845,0 -0.79569,-0.05487 -0.397846,-0.05488 -0.768253,-0.192063 -0.356689,-0.150907 -0.68594,-0.384127 -0.315533,-0.246938 -0.548752,-0.576189 -0.219501,-0.329251 -0.329251,-0.713378 -0.109751,-0.384126 -0.109751,-0.781971 v -0.08231 h 2.002945 v 0.04116 q 0,0.23322 0.08231,0.452721 0.09603,0.2195 0.274376,0.370407 0.178344,0.150907 0.411564,0.219501 0.233219,0.05487 0.466439,0.05487 0.246938,0 0.480158,-0.06859 0.246938,-0.08231 0.425283,-0.260657 0.178344,-0.178344 0.260657,-0.411564 0.08231,-0.246938 0.08231,-0.507596 0,-0.233219 -0.06859,-0.45272 -0.06859,-0.219501 -0.205782,-0.411564 -0.12347,-0.192063 -0.315533,-0.329251 -0.178344,-0.150907 -0.397845,-0.23322 -0.219501,-0.08231 -0.45272,-0.09603 -0.23322,-0.01372 -0.466439,-0.01372 v -1.646256 q 0.315532,0 0.631064,-0.05488 0.315533,-0.06859 0.548752,-0.260658 0.246939,-0.205782 0.370408,-0.507595 0.137188,-0.301814 0.137188,-0.617346 0,-0.205782 -0.06859,-0.425283 -0.05487,-0.219501 -0.192063,-0.384126 -0.137188,-0.164626 -0.34297,-0.246939 -0.205782,-0.08231 -0.425283,-0.08231 -0.205782,0 -0.411564,0.08231 -0.205782,0.06859 -0.34297,0.23322 -0.137188,0.150907 -0.205782,0.356689 -0.05487,0.205782 -0.05487,0.425283 v 0.04116 h -2.002945 v -0.10975 q 0,-0.370408 0.09603,-0.740816 0.09603,-0.384126 0.288094,-0.699658 0.205782,-0.329252 0.493877,-0.57619 0.301814,-0.246938 0.644784,-0.397845 0.356689,-0.150907 0.727096,-0.205782 0.384127,-0.05487 0.768253,-0.05487 0.384126,0 0.768253,0.06859 0.384126,0.05487 0.727096,0.2195 0.356689,0.150907 0.644784,0.411564 0.301813,0.260658 0.493876,0.589909 0.192064,0.329251 0.288095,0.713377 0.09603,0.370408 0.09603,0.754534 0,0.34297 -0.08231,0.68594 -0.08231,0.329251 -0.260657,0.631065 -0.164626,0.288095 -0.425283,0.535033 -0.246938,0.246939 -0.548752,0.411564 0.34297,0.164626 0.631065,0.411564 0.301813,0.246939 0.493877,0.57619 0.205782,0.315532 0.301813,0.68594 0.109751,0.370407 0.109751,0.754534 0,0.397845 -0.109751,0.79569 -0.10975,0.397845 -0.329251,0.740815 -0.205782,0.34297 -0.521314,0.617346 -0.315533,0.260658 -0.68594,0.425283 -0.370408,0.150907 -0.781972,0.205782 -0.397845,0.06859 -0.809409,0.06859 z"
             id="text73-5-2"
             style="font-weight:900;font-size:13.7188px;line-height:1.5;font-family:'Iosevka Sezimal QP';-inkscape-font-specification:'Iosevka Sezimal QP, Heavy';text-align:center;text-decoration-color:#d40000;text-anchor:middle;stroke-width:0.571617"
             aria-label="13" />
        <path
             d="m -54.770024,38.565613 q -0.320106,0 -0.640212,-0.05335 -0.320106,-0.04268 -0.618872,-0.170723 -0.288095,-0.138713 -0.53351,-0.362787 -0.234744,-0.224074 -0.394797,-0.5015 -0.149383,-0.277425 -0.213404,-0.597531 -0.06402,-0.320106 -0.06402,-0.640212 v -3.361113 q 0,-0.320106 0.06402,-0.640212 0.06402,-0.320106 0.213404,-0.597531 0.160053,-0.277425 0.394797,-0.5015 0.245415,-0.224074 0.53351,-0.352116 0.298766,-0.138713 0.618872,-0.181394 0.320106,-0.05335 0.640212,-0.05335 0.320106,0 0.640212,0.05335 0.320106,0.04268 0.608201,0.181394 0.298766,0.128042 0.53351,0.352116 0.245415,0.224075 0.394798,0.5015 0.160053,0.277425 0.224074,0.597531 0.06402,0.320106 0.06402,0.640212 v 3.361113 q 0,0.320106 -0.06402,0.640212 -0.06402,0.320106 -0.224074,0.597531 -0.149383,0.277426 -0.394798,0.5015 -0.234744,0.224074 -0.53351,0.362787 -0.288095,0.128042 -0.608201,0.170723 -0.320106,0.05335 -0.640212,0.05335 z m -0.906967,-3.990655 1.813934,-1.205733 v -0.490829 q 0,-0.192063 -0.04268,-0.384127 -0.04268,-0.202734 -0.170723,-0.352117 -0.117373,-0.160053 -0.309436,-0.234744 -0.192064,-0.07469 -0.384127,-0.07469 -0.192064,0 -0.384128,0.07469 -0.192063,0.07469 -0.320106,0.234744 -0.117372,0.149383 -0.160053,0.352117 -0.04268,0.192064 -0.04268,0.384127 z m 0.906967,2.710231 q 0.192063,0 0.384127,-0.07469 0.192063,-0.07469 0.309436,-0.224074 0.128042,-0.160053 0.170723,-0.352116 0.04268,-0.202734 0.04268,-0.394798 v -1.696562 l -1.813934,1.205733 v 0.490829 q 0,0.192064 0.04268,0.394798 0.04268,0.192063 0.160053,0.352116 0.128043,0.149383 0.320106,0.224074 0.192064,0.07469 0.384128,0.07469 z m 6.498156,3.105028 h -2.326104 q 0.277425,-1.152381 0.416138,-2.326104 0.138713,-1.173722 0.138713,-2.358114 h 1.216402 q 0,1.184392 0.138713,2.358114 0.138713,1.173723 0.416138,2.326104 z m 4.172044,-1.824604 q -0.320106,0 -0.640212,-0.05335 -0.320106,-0.04268 -0.618872,-0.170723 -0.288095,-0.138713 -0.53351,-0.362787 -0.234744,-0.224074 -0.394797,-0.5015 -0.149383,-0.277425 -0.213404,-0.597531 -0.06402,-0.320106 -0.06402,-0.640212 v -3.361113 q 0,-0.320106 0.06402,-0.640212 0.06402,-0.320106 0.213404,-0.597531 0.160053,-0.277425 0.394797,-0.5015 0.245415,-0.224074 0.53351,-0.352116 0.298766,-0.138713 0.618872,-0.181394 0.320106,-0.05335 0.640212,-0.05335 0.320106,0 0.640212,0.05335 0.320106,0.04268 0.608201,0.181394 0.298766,0.128042 0.53351,0.352116 0.245415,0.224075 0.394798,0.5015 0.160053,0.277425 0.224074,0.597531 0.06402,0.320106 0.06402,0.640212 v 3.361113 q 0,0.320106 -0.06402,0.640212 -0.06402,0.320106 -0.224074,0.597531 -0.149383,0.277426 -0.394798,0.5015 -0.234744,0.224074 -0.53351,0.362787 -0.288095,0.128042 -0.608201,0.170723 -0.320106,0.05335 -0.640212,0.05335 z m -0.906967,-3.990655 1.813934,-1.205733 v -0.490829 q 0,-0.192063 -0.04268,-0.384127 -0.04268,-0.202734 -0.170723,-0.352117 -0.117372,-0.160053 -0.309436,-0.234744 -0.192063,-0.07469 -0.384127,-0.07469 -0.192064,0 -0.384127,0.07469 -0.192064,0.07469 -0.320106,0.234744 -0.117372,0.149383 -0.160053,0.352117 -0.04268,0.192064 -0.04268,0.384127 z m 0.906967,2.710231 q 0.192064,0 0.384127,-0.07469 0.192064,-0.07469 0.309436,-0.224074 0.128042,-0.160053 0.170723,-0.352116 0.04268,-0.202734 0.04268,-0.394798 v -1.696562 l -1.813934,1.205733 v 0.490829 q 0,0.192064 0.04268,0.394798 0.04268,0.192063 0.160053,0.352116 0.128042,0.149383 0.320106,0.224074 0.192063,0.07469 0.384127,0.07469 z m 6.807592,1.195062 v -1.856615 h -2.784922 v -5.985982 h 1.557849 v 4.705558 h 1.227073 v -3.21173 h 1.557849 v 6.348769 z"
             id="text68-8-8-5-29"
             style="font-weight:900;font-size:10.6702px;line-height:1;font-family:'Iosevka Sezimal QP';-inkscape-font-specification:'Iosevka Sezimal QP, Heavy';text-align:center;text-decoration-color:#d40000;text-anchor:middle;fill:#333333;stroke-width:0.571617"
             transform="rotate(-70)"
             aria-label="0󱹮04" />
        <path
             d="m 19.953166,45.1231 q -0.320106,0 -0.640212,-0.05335 -0.320106,-0.04268 -0.618872,-0.170723 -0.288095,-0.138712 -0.53351,-0.362787 -0.234744,-0.224074 -0.394797,-0.501499 -0.149383,-0.277425 -0.213404,-0.597531 -0.06402,-0.320106 -0.06402,-0.640212 v -3.361113 q 0,-0.320106 0.06402,-0.640212 0.06402,-0.320106 0.213404,-0.597532 0.160053,-0.277425 0.394797,-0.501499 0.245415,-0.224074 0.53351,-0.352117 0.298766,-0.138712 0.618872,-0.181393 0.320106,-0.05335 0.640212,-0.05335 0.320106,0 0.640212,0.05335 0.320106,0.04268 0.608201,0.181393 0.298766,0.128043 0.53351,0.352117 0.245415,0.224074 0.394798,0.501499 0.160053,0.277426 0.224074,0.597532 0.06402,0.320106 0.06402,0.640212 v 3.361113 q 0,0.320106 -0.06402,0.640212 -0.06402,0.320106 -0.224074,0.597531 -0.149383,0.277425 -0.394798,0.501499 -0.234744,0.224075 -0.53351,0.362787 -0.288095,0.128043 -0.608201,0.170723 -0.320106,0.05335 -0.640212,0.05335 z m -0.906967,-3.990655 1.813934,-1.205732 v -0.490829 q 0,-0.192064 -0.04268,-0.384128 -0.04268,-0.202733 -0.170723,-0.352116 -0.117372,-0.160053 -0.309436,-0.234745 -0.192063,-0.07469 -0.384127,-0.07469 -0.192064,0 -0.384127,0.07469 -0.192064,0.07469 -0.320106,0.234745 -0.117372,0.149383 -0.160053,0.352116 -0.04268,0.192064 -0.04268,0.384128 z m 0.906967,2.710231 q 0.192064,0 0.384127,-0.07469 0.192064,-0.07469 0.309436,-0.224074 0.128042,-0.160053 0.170723,-0.352117 0.04268,-0.202734 0.04268,-0.394797 v -1.696562 l -1.813934,1.205733 v 0.490829 q 0,0.192063 0.04268,0.394797 0.04268,0.192064 0.160053,0.352117 0.128042,0.149383 0.320106,0.224074 0.192063,0.07469 0.384127,0.07469 z m 6.498156,3.105029 h -2.326104 q 0.277426,-1.152382 0.416138,-2.326104 0.138713,-1.173722 0.138713,-2.358114 h 1.216403 q 0,1.184392 0.138712,2.358114 0.138713,1.173722 0.416138,2.326104 z m 2.027334,-1.909966 v -1.280424 h 1.451147 v -3.499826 l -0.576191,1.376456 -1.1097,-0.373457 1.685891,-4.065346 h 1.547179 v 6.562173 h 1.291095 v 1.280424 z m 6.16738,0 v -1.280424 l 2.432806,-2.752912 q 0.149383,-0.170723 0.298765,-0.341446 0.149383,-0.170724 0.266755,-0.362787 0.117373,-0.192064 0.181394,-0.405468 0.06402,-0.224074 0.06402,-0.448148 0,-0.192064 -0.04268,-0.384127 -0.03201,-0.192064 -0.149383,-0.352117 -0.106702,-0.160053 -0.288095,-0.234744 -0.181393,-0.08536 -0.373457,-0.08536 -0.170723,0 -0.341447,0.05335 -0.160053,0.05335 -0.288095,0.181393 -0.117372,0.117373 -0.170723,0.288096 -0.05335,0.160053 -0.05335,0.330776 v 0.03201 h -1.557849 v -0.07469 q 0,-0.298765 0.07469,-0.586861 0.08536,-0.298765 0.245415,-0.54418 0.160053,-0.256085 0.394797,-0.448148 0.245415,-0.192064 0.52284,-0.309436 0.277425,-0.117372 0.576191,-0.160053 0.298765,-0.04268 0.597531,-0.04268 0.320106,0 0.629542,0.05335 0.320106,0.05335 0.608201,0.192064 0.288096,0.138712 0.52284,0.362786 0.234744,0.213404 0.384127,0.5015 0.149383,0.277425 0.202734,0.597531 0.06402,0.309436 0.06402,0.629542 0,0.341446 -0.08536,0.672222 -0.08536,0.330777 -0.256085,0.629542 -0.170723,0.298766 -0.394798,0.565521 -0.213404,0.256085 -0.437478,0.501499 l -0.02134,0.03201 h -0.01067 l -1.685892,1.909966 h 2.848943 v 1.280424 z"
             id="text68-8-8-5-29-0"
             style="font-weight:900;font-size:10.6702px;line-height:1;font-family:'Iosevka Sezimal QP';-inkscape-font-specification:'Iosevka Sezimal QP, Heavy';text-align:center;text-decoration-color:#d40000;text-anchor:middle;fill:#333333;stroke-width:0.571617"
             transform="rotate(-29.999999)"
             aria-label="0󱹮12" />
        <path
             d="m 85.01569,1.9678377 q -0.320106,0 -0.640212,-0.053351 Q 84.055372,1.8718059 83.756606,1.7437635 83.468511,1.6050509 83.223096,1.3809767 82.988352,1.1569025 82.828299,0.87947726 82.678916,0.60205205 82.614895,0.28194604 82.550873,-0.03815997 82.550873,-0.35826598 V -3.7193791 q 0,-0.320106 0.06402,-0.640212 0.06402,-0.320106 0.213404,-0.5975312 0.160053,-0.2774252 0.394797,-0.5014994 0.245415,-0.2240743 0.53351,-0.3521167 0.298766,-0.1387126 0.618872,-0.1813934 0.320106,-0.053351 0.640212,-0.053351 0.320106,0 0.640212,0.053351 0.320106,0.042681 0.608201,0.1813934 0.298766,0.1280424 0.53351,0.3521167 0.245415,0.2240742 0.394798,0.5014994 0.160053,0.2774252 0.224074,0.5975312 0.06402,0.320106 0.06402,0.640212 v 3.36111312 q 0,0.32010601 -0.06402,0.64021202 -0.06402,0.32010601 -0.224074,0.59753122 -0.149383,0.27742524 -0.394798,0.50149944 -0.234744,0.2240742 -0.53351,0.3627868 -0.288095,0.1280424 -0.608201,0.1707232 -0.320106,0.053351 -0.640212,0.053351 z m -0.906967,-3.9906549 1.813934,-1.2057327 v -0.4908292 q 0,-0.1920636 -0.04268,-0.3841272 -0.04268,-0.2027338 -0.170723,-0.3521166 -0.117372,-0.160053 -0.309436,-0.2347444 -0.192064,-0.074691 -0.384127,-0.074691 -0.192064,0 -0.384127,0.074691 -0.192064,0.074691 -0.320107,0.2347444 -0.117372,0.1493828 -0.160053,0.3521166 -0.04268,0.1920636 -0.04268,0.3841272 z m 0.906967,2.71023085 q 0.192063,0 0.384127,-0.0746914 0.192064,-0.0746914 0.309436,-0.22407421 0.128042,-0.160053 0.170723,-0.35211661 0.04268,-0.20273381 0.04268,-0.39479741 V -2.0548278 l -1.813934,1.2057326 v 0.49082922 q 0,0.1920636 0.04268,0.39479741 0.04268,0.19206361 0.160053,0.35211661 0.128043,0.14938281 0.320107,0.22407421 0.192063,0.0746914 0.384127,0.0746914 z M 91.513846,3.792442 H 89.187742 Q 89.465167,2.6400603 89.60388,1.4663383 89.742593,0.29261624 89.742593,-0.891776 h 1.216403 q 0,1.18439224 0.138712,2.3581143 0.138713,1.173722 0.416138,2.3261037 z M 93.306435,1.8824761 V 0.60205205 l 2.432806,-2.75291165 q 0.149383,-0.1707232 0.298766,-0.3414465 0.149382,-0.1707232 0.266755,-0.3627868 0.117372,-0.1920636 0.181393,-0.4054676 0.06402,-0.2240742 0.06402,-0.4481484 0,-0.1920636 -0.04268,-0.3841272 -0.03201,-0.1920636 -0.149382,-0.3521166 -0.106702,-0.160053 -0.288096,-0.2347444 -0.181393,-0.085362 -0.373457,-0.085362 -0.170723,0 -0.341446,0.053351 -0.160053,0.053351 -0.288096,0.1813934 -0.117372,0.1173722 -0.170723,0.2880954 -0.05335,0.160053 -0.05335,0.3307762 v 0.032011 h -1.557849 v -0.074691 q 0,-0.2987656 0.07469,-0.586861 0.08536,-0.2987656 0.245415,-0.5441802 0.160053,-0.2560848 0.394797,-0.4481485 0.245415,-0.1920636 0.52284,-0.3094358 0.277425,-0.1173722 0.576191,-0.160053 0.298766,-0.042681 0.597531,-0.042681 0.320106,0 0.629542,0.053351 0.320106,0.053351 0.608202,0.1920636 0.288095,0.1387126 0.522839,0.3627869 0.234745,0.213404 0.384128,0.5014994 0.149382,0.2774252 0.202733,0.5975312 0.06402,0.3094358 0.06402,0.6295418 0,0.3414464 -0.08536,0.6722226 -0.08536,0.3307762 -0.256085,0.6295419 -0.170723,0.2987656 -0.394797,0.5655206 -0.213404,0.2560848 -0.437478,0.5014994 l -0.02134,0.032011 h -0.01067 l -1.685892,1.90996585 h 2.848944 V 1.8824761 Z"
             id="text68-8-8-5-29-2"
             style="font-weight:900;font-size:10.6702px;line-height:1;font-family:'Iosevka Sezimal QP';-inkscape-font-specification:'Iosevka Sezimal QP, Heavy';text-align:center;text-decoration-color:#d40000;text-anchor:middle;fill:#333333;stroke-width:0.571617"
             transform="rotate(10)"
             aria-label="0󱹮2" />
        <path
             d="m 101.28791,-70.707294 q -0.32011,0 -0.64021,-0.05335 -0.32011,-0.04268 -0.61887,-0.170724 -0.2881,-0.138712 -0.533514,-0.362786 -0.234745,-0.224075 -0.394798,-0.5015 -0.149382,-0.277425 -0.213404,-0.597531 -0.06402,-0.320106 -0.06402,-0.640212 v -3.361113 q 0,-0.320106 0.06402,-0.640212 0.06402,-0.320106 0.213404,-0.597531 0.160053,-0.277426 0.394798,-0.5015 0.245414,-0.224074 0.533514,-0.352116 0.29876,-0.138713 0.61887,-0.181394 0.3201,-0.05335 0.64021,-0.05335 0.32011,0 0.64021,0.05335 0.32011,0.04268 0.6082,0.181394 0.29877,0.128042 0.53351,0.352116 0.24542,0.224074 0.3948,0.5015 0.16005,0.277425 0.22407,0.597531 0.064,0.320106 0.064,0.640212 v 3.361113 q 0,0.320106 -0.064,0.640212 -0.064,0.320106 -0.22407,0.597531 -0.14938,0.277425 -0.3948,0.5015 -0.23474,0.224074 -0.53351,0.362786 -0.28809,0.128043 -0.6082,0.170724 -0.3201,0.05335 -0.64021,0.05335 z m -0.90697,-3.990655 1.81394,-1.205733 v -0.490829 q 0,-0.192064 -0.0427,-0.384127 -0.0427,-0.202734 -0.17073,-0.352117 -0.11737,-0.160053 -0.30943,-0.234744 -0.19207,-0.07469 -0.38413,-0.07469 -0.19206,0 -0.38413,0.07469 -0.19206,0.07469 -0.3201,0.234744 -0.11738,0.149383 -0.16006,0.352117 -0.0427,0.192063 -0.0427,0.384127 z m 0.90697,2.710231 q 0.19206,0 0.38413,-0.07469 0.19206,-0.07469 0.30943,-0.224074 0.12804,-0.160053 0.17073,-0.352117 0.0427,-0.202733 0.0427,-0.394797 v -1.696562 l -1.81394,1.205733 v 0.490829 q 0,0.192064 0.0427,0.394797 0.0427,0.192064 0.16006,0.352117 0.12804,0.149383 0.3201,0.224074 0.19207,0.07469 0.38413,0.07469 z m 6.49816,3.105028 h -2.32611 q 0.27743,-1.152382 0.41614,-2.326104 0.13871,-1.173722 0.13871,-2.358114 h 1.21641 q 0,1.184392 0.13871,2.358114 0.13871,1.173722 0.41614,2.326104 z m 1.79259,-1.909966 v -1.280424 l 2.4328,-2.752912 q 0.14938,-0.170723 0.29877,-0.341446 0.14938,-0.170723 0.26675,-0.362787 0.11737,-0.192064 0.18139,-0.405468 0.064,-0.224074 0.064,-0.448148 0,-0.192064 -0.0427,-0.384127 -0.032,-0.192064 -0.14939,-0.352117 -0.1067,-0.160053 -0.28809,-0.234744 -0.1814,-0.08536 -0.37346,-0.08536 -0.17072,0 -0.34145,0.05335 -0.16005,0.05335 -0.28809,0.181394 -0.11737,0.117372 -0.17073,0.288095 -0.0533,0.160053 -0.0533,0.330776 v 0.03201 h -1.55785 v -0.07469 q 0,-0.298765 0.0747,-0.586861 0.0854,-0.298765 0.24541,-0.54418 0.16005,-0.256085 0.3948,-0.448148 0.24541,-0.192064 0.52284,-0.309436 0.27742,-0.117372 0.57619,-0.160053 0.29876,-0.04268 0.59753,-0.04268 0.32011,0 0.62954,0.05335 0.32011,0.05335 0.6082,0.192064 0.2881,0.138712 0.52284,0.362787 0.23475,0.213404 0.38413,0.501499 0.14938,0.277425 0.20273,0.597531 0.064,0.309436 0.064,0.629542 0,0.341446 -0.0854,0.672223 -0.0854,0.330776 -0.25608,0.629542 -0.17072,0.298765 -0.3948,0.56552 -0.2134,0.256085 -0.43748,0.5015 l -0.0213,0.03201 h -0.0107 l -1.68589,1.909966 h 2.84894 v 1.280424 z m 9.18704,0 v -1.856615 h -2.78492 v -5.985982 h 1.55785 v 4.705558 h 1.22707 v -3.21173 h 1.55785 v 6.348769 z"
             id="text68-8-8-5-29-9"
             style="font-weight:900;font-size:10.6702px;line-height:1;font-family:'Iosevka Sezimal QP';-inkscape-font-specification:'Iosevka Sezimal QP, Heavy';text-align:center;text-decoration-color:#d40000;text-anchor:middle;fill:#333333;stroke-width:0.571617"
             transform="rotate(49.999999)"
             aria-label="0󱹮24" />
        <path
             d="m -14.573088,178.29442 q -0.320106,0 -0.640212,-0.0533 -0.320106,-0.0427 -0.618871,-0.17072 -0.288096,-0.13871 -0.53351,-0.36279 -0.234745,-0.22407 -0.394798,-0.5015 -0.149383,-0.27742 -0.213404,-0.59753 -0.06402,-0.32011 -0.06402,-0.64021 v -3.36111 q 0,-0.32011 0.06402,-0.64022 0.06402,-0.3201 0.213404,-0.59753 0.160053,-0.27742 0.394798,-0.5015 0.245414,-0.22407 0.53351,-0.35211 0.298765,-0.13872 0.618871,-0.1814 0.320106,-0.0533 0.640212,-0.0533 0.320106,0 0.640212,0.0533 0.320106,0.0427 0.608202,0.1814 0.298765,0.12804 0.53351,0.35211 0.245414,0.22408 0.394797,0.5015 0.160053,0.27743 0.224074,0.59753 0.06402,0.32011 0.06402,0.64022 v 3.36111 q 0,0.3201 -0.06402,0.64021 -0.06402,0.32011 -0.224074,0.59753 -0.149383,0.27743 -0.394797,0.5015 -0.234745,0.22408 -0.53351,0.36279 -0.288096,0.12804 -0.608202,0.17072 -0.320106,0.0533 -0.640212,0.0533 z m -0.906967,-3.99065 1.813934,-1.20574 v -0.49082 q 0,-0.19207 -0.04268,-0.38413 -0.04268,-0.20274 -0.170723,-0.35212 -0.117372,-0.16005 -0.309436,-0.23474 -0.192063,-0.0747 -0.384127,-0.0747 -0.192063,0 -0.384127,0.0747 -0.192064,0.0747 -0.320106,0.23474 -0.117372,0.14938 -0.160053,0.35212 -0.04268,0.19206 -0.04268,0.38413 z m 0.906967,2.71023 q 0.192064,0 0.384127,-0.0747 0.192064,-0.0747 0.309436,-0.22408 0.128043,-0.16005 0.170723,-0.35211 0.04268,-0.20274 0.04268,-0.3948 v -1.69656 l -1.813934,1.20573 v 0.49083 q 0,0.19206 0.04268,0.3948 0.04268,0.19206 0.160053,0.35211 0.128042,0.14939 0.320106,0.22408 0.192064,0.0747 0.384127,0.0747 z m 6.4981564,3.10503 h -2.3261034 q 0.277425,-1.15239 0.4161375,-2.32611 0.1387126,-1.17372 0.1387126,-2.35811 h 1.2164029 q 0,1.18439 0.1387126,2.35811 0.1387126,1.17372 0.4161378,2.32611 z m 4.5775117,-1.90997 v -1.85661 h -2.7849222 v -5.98599 h 1.5578492 v 4.70556 h 1.227073 v -3.21173 h 1.5578493 v 6.34877 z"
             id="text68-8-8-5-29-6"
             style="font-weight:900;font-size:10.6702px;line-height:1;font-family:'Iosevka Sezimal QP';-inkscape-font-specification:'Iosevka Sezimal QP, Heavy';text-align:center;text-decoration-color:#d40000;text-anchor:middle;fill:#333333;stroke-width:0.571617"
             transform="rotate(-49.999999)"
             aria-label="0󱹮4" />
        <path
             d="m 54.390738,159.01331 q -0.320106,0 -0.640212,-0.0533 -0.320106,-0.0427 -0.618871,-0.17072 -0.288096,-0.13872 -0.53351,-0.36279 -0.234745,-0.22408 -0.394798,-0.5015 -0.149382,-0.27743 -0.213404,-0.59753 -0.06402,-0.32011 -0.06402,-0.64021 v -3.36112 q 0,-0.3201 0.06402,-0.64021 0.06402,-0.32011 0.213404,-0.59753 0.160053,-0.27743 0.394798,-0.5015 0.245414,-0.22407 0.53351,-0.35212 0.298765,-0.13871 0.618871,-0.18139 0.320106,-0.0533 0.640212,-0.0533 0.320106,0 0.640212,0.0533 0.320106,0.0427 0.608202,0.18139 0.298765,0.12805 0.53351,0.35212 0.245414,0.22407 0.394797,0.5015 0.160053,0.27742 0.224075,0.59753 0.06402,0.32011 0.06402,0.64021 v 3.36112 q 0,0.3201 -0.06402,0.64021 -0.06402,0.3201 -0.224075,0.59753 -0.149383,0.27742 -0.394797,0.5015 -0.234745,0.22407 -0.53351,0.36279 -0.288096,0.12804 -0.608202,0.17072 -0.320106,0.0533 -0.640212,0.0533 z m -0.906967,-3.99066 1.813934,-1.20573 v -0.49083 q 0,-0.19206 -0.04268,-0.38412 -0.04268,-0.20274 -0.170724,-0.35212 -0.117372,-0.16005 -0.309435,-0.23475 -0.192064,-0.0747 -0.384128,-0.0747 -0.192063,0 -0.384127,0.0747 -0.192063,0.0747 -0.320106,0.23475 -0.117372,0.14938 -0.160053,0.35212 -0.04268,0.19206 -0.04268,0.38412 z m 0.906967,2.71024 q 0.192064,0 0.384128,-0.0747 0.192063,-0.0747 0.309435,-0.22407 0.128043,-0.16005 0.170724,-0.35212 0.04268,-0.20273 0.04268,-0.39479 v -1.69657 l -1.813934,1.20574 v 0.49083 q 0,0.19206 0.04268,0.39479 0.04268,0.19207 0.160053,0.35212 0.128043,0.14938 0.320106,0.22407 0.192064,0.0747 0.384127,0.0747 z m 6.498157,3.10502 h -2.326104 q 0.277425,-1.15238 0.416138,-2.3261 0.138712,-1.17372 0.138712,-2.35811 h 1.216403 q 0,1.18439 0.138713,2.35811 0.138712,1.17372 0.416138,2.3261 z m 4.577511,-1.90996 v -1.85662 h -2.784922 v -5.98598 h 1.557849 v 4.70556 h 1.227073 v -3.21173 h 1.55785 v 6.34877 z m 6.402125,0 v -1.85662 h -2.784923 v -5.98598 h 1.55785 v 4.70556 h 1.227073 v -3.21173 h 1.557849 v 6.34877 z"
             id="text68-8-8-5-29-4"
             style="font-weight:900;font-size:10.6702px;line-height:1;font-family:'Iosevka Sezimal QP';-inkscape-font-specification:'Iosevka Sezimal QP, Heavy';text-align:center;text-decoration-color:#d40000;text-anchor:middle;fill:#333333;stroke-width:0.571617"
             transform="rotate(-10)"
             aria-label="0󱹮44" />
        <path
             d="m 98.020392,97.419674 q -0.320106,0 -0.640212,-0.05335 -0.320106,-0.04268 -0.618871,-0.170723 -0.288096,-0.138713 -0.53351,-0.362787 -0.234745,-0.224074 -0.394798,-0.501499 -0.149383,-0.277426 -0.213404,-0.597532 -0.06402,-0.320106 -0.06402,-0.640212 v -3.361113 q 0,-0.320106 0.06402,-0.640212 0.06402,-0.320106 0.213404,-0.597531 0.160053,-0.277425 0.394798,-0.501499 0.245414,-0.224075 0.53351,-0.352117 0.298765,-0.138713 0.618871,-0.181393 0.320106,-0.05335 0.640212,-0.05335 0.320106,0 0.640212,0.05335 0.320106,0.04268 0.608202,0.181393 0.298765,0.128042 0.53351,0.352117 0.245414,0.224074 0.394794,0.501499 0.16006,0.277425 0.22408,0.597531 0.064,0.320106 0.064,0.640212 v 3.361113 q 0,0.320106 -0.064,0.640212 -0.064,0.320106 -0.22408,0.597532 -0.14938,0.277425 -0.394794,0.501499 -0.234745,0.224074 -0.53351,0.362787 -0.288096,0.128042 -0.608202,0.170723 -0.320106,0.05335 -0.640212,0.05335 z m -0.906967,-3.990655 1.813934,-1.205733 v -0.490829 q 0,-0.192063 -0.04268,-0.384127 -0.04268,-0.202734 -0.170724,-0.352117 -0.117372,-0.160053 -0.309435,-0.234744 -0.192064,-0.07469 -0.384128,-0.07469 -0.192063,0 -0.384127,0.07469 -0.192063,0.07469 -0.320106,0.234744 -0.117372,0.149383 -0.160053,0.352117 -0.04268,0.192064 -0.04268,0.384127 z m 0.906967,2.710231 q 0.192064,0 0.384128,-0.07469 0.192063,-0.07469 0.309435,-0.224075 0.128043,-0.160053 0.170724,-0.352116 0.04268,-0.202734 0.04268,-0.394798 v -1.696561 l -1.813934,1.205732 v 0.490829 q 0,0.192064 0.04268,0.394798 0.04268,0.192063 0.160053,0.352116 0.128043,0.149383 0.320106,0.224075 0.192064,0.07469 0.384127,0.07469 z m 6.498158,3.105028 h -2.32611 q 0.27743,-1.152381 0.41614,-2.326103 0.13872,-1.173722 0.13872,-2.358115 h 1.2164 q 0,1.184393 0.13871,2.358115 0.13871,1.173722 0.41614,2.326103 z m 4.20405,-1.824604 q -0.29876,0 -0.58686,-0.04268 -0.28809,-0.04268 -0.56552,-0.149383 -0.26675,-0.106702 -0.5015,-0.288095 -0.23474,-0.181393 -0.40547,-0.416138 -0.17072,-0.245414 -0.26675,-0.52284 -0.0854,-0.288095 -0.1067,-0.57619 h 1.56852 q 0.0213,0.149382 0.0854,0.298765 0.0747,0.138713 0.19206,0.234745 0.11737,0.09603 0.26676,0.138712 0.16005,0.04268 0.3201,0.04268 0.14939,0 0.2881,-0.05335 0.13871,-0.05335 0.24541,-0.149383 0.10671,-0.106702 0.17073,-0.234744 0.0747,-0.138713 0.1067,-0.277425 0.0427,-0.149383 0.0533,-0.298766 0.0107,-0.149383 0.0107,-0.298766 v -0.01067 q 0,-0.138712 -0.0107,-0.288095 -0.0107,-0.149383 -0.0533,-0.288096 -0.032,-0.138712 -0.096,-0.266755 -0.0534,-0.138712 -0.16006,-0.245414 -0.096,-0.106702 -0.23474,-0.160053 -0.12804,-0.06402 -0.27743,-0.06402 -0.12804,0 -0.26675,0.02134 -0.12804,0.02134 -0.24542,0.08536 -0.11737,0.05335 -0.20273,0.170723 -0.0854,0.106702 -0.0854,0.245414 h -1.55785 v -4.534835 h 4.42813 v 1.280424 h -2.87028 v 1.536509 q 0.19206,-0.04268 0.3948,-0.05335 0.20273,-0.02134 0.40546,-0.02134 0.33078,0 0.66156,0.06402 0.33077,0.06402 0.61887,0.234744 0.29876,0.160053 0.51217,0.416138 0.22407,0.256085 0.35211,0.565521 0.13872,0.309436 0.19207,0.640212 0.0534,0.330776 0.0534,0.672222 0,0.330777 -0.0534,0.672223 -0.0533,0.330776 -0.19207,0.640212 -0.13871,0.309436 -0.37345,0.565521 -0.22408,0.256084 -0.52284,0.426808 -0.2881,0.160053 -0.62954,0.224074 -0.33078,0.06402 -0.66156,0.06402 z m 3.99066,-0.08536 v -1.280424 l 2.43281,-2.752911 q 0.14938,-0.170723 0.29876,-0.341447 0.14939,-0.170723 0.26676,-0.362787 0.11737,-0.192063 0.18139,-0.405467 0.064,-0.224074 0.064,-0.448149 0,-0.192063 -0.0427,-0.384127 -0.032,-0.192063 -0.14938,-0.352116 -0.1067,-0.160053 -0.2881,-0.234745 -0.18139,-0.08536 -0.37345,-0.08536 -0.17073,0 -0.34145,0.05335 -0.16005,0.05335 -0.28809,0.181393 -0.11738,0.117372 -0.17073,0.288095 -0.0534,0.160053 -0.0534,0.330777 v 0.03201 h -1.55785 v -0.07469 q 0,-0.298766 0.0747,-0.586861 0.0854,-0.298766 0.24542,-0.54418 0.16005,-0.256085 0.3948,-0.448149 0.24541,-0.192063 0.52284,-0.309436 0.27742,-0.117372 0.57619,-0.160053 0.29876,-0.04268 0.59753,-0.04268 0.3201,0 0.62954,0.05335 0.32011,0.05335 0.6082,0.192063 0.2881,0.138713 0.52284,0.362787 0.23474,0.213404 0.38413,0.501499 0.14938,0.277426 0.20273,0.597532 0.064,0.309435 0.064,0.629541 0,0.341447 -0.0854,0.672223 -0.0854,0.330776 -0.25608,0.629542 -0.17073,0.298766 -0.3948,0.565521 -0.21341,0.256084 -0.43748,0.501499 l -0.0213,0.03201 h -0.0107 l -1.68589,1.909965 h 2.84894 v 1.280424 z"
             id="text68-8-8-5-29-92"
             style="font-weight:900;font-size:10.6702px;line-height:1;font-family:'Iosevka Sezimal QP';-inkscape-font-specification:'Iosevka Sezimal QP, Heavy';text-align:center;text-decoration-color:#d40000;text-anchor:middle;fill:#333333;stroke-width:0.571617"
             transform="rotate(29.999999)"
             aria-label="0󱹮52" />
        <path
             d="m 97.659136,22.649652 v -1.280424 h 1.451147 v -3.499825 l -0.576191,1.376456 -1.1097,-0.373457 1.685891,-4.065347 h 1.547177 v 6.562173 h 1.2911 v 1.280424 z"
             id="text68-8-8-5-29-8"
             style="font-weight:900;font-size:10.6702px;line-height:1;font-family:'Iosevka Sezimal QP';-inkscape-font-specification:'Iosevka Sezimal QP, Heavy';text-align:center;text-decoration-color:#d40000;text-anchor:middle;fill:#333333;stroke-width:0.571617"
             transform="rotate(70)"
             aria-label="1" />
        <path
             d="m 128.9752,80.821018 q -0.3201,0 -0.64021,-0.05335 -0.3201,-0.04268 -0.61887,-0.170723 -0.2881,-0.138712 -0.53351,-0.362787 -0.23474,-0.224074 -0.3948,-0.501499 -0.14938,-0.277425 -0.2134,-0.597531 -0.064,-0.320106 -0.064,-0.640212 v -3.361113 q 0,-0.320106 0.064,-0.640212 0.064,-0.320106 0.2134,-0.597532 0.16006,-0.277425 0.3948,-0.501499 0.24541,-0.224074 0.53351,-0.352117 0.29877,-0.138712 0.61887,-0.181393 0.32011,-0.05335 0.64021,-0.05335 0.32011,0 0.64022,0.05335 0.3201,0.04268 0.6082,0.181393 0.29876,0.128043 0.53351,0.352117 0.24541,0.224074 0.39479,0.501499 0.16006,0.277426 0.22408,0.597532 0.064,0.320106 0.064,0.640212 v 3.361113 q 0,0.320106 -0.064,0.640212 -0.064,0.320106 -0.22408,0.597531 -0.14938,0.277425 -0.39479,0.501499 -0.23475,0.224075 -0.53351,0.362787 -0.2881,0.128043 -0.6082,0.170723 -0.32011,0.05335 -0.64022,0.05335 z m -0.90696,-3.990655 1.81393,-1.205732 v -0.490829 q 0,-0.192064 -0.0427,-0.384128 -0.0427,-0.202733 -0.17072,-0.352116 -0.11738,-0.160053 -0.30944,-0.234745 -0.19206,-0.07469 -0.38413,-0.07469 -0.19206,0 -0.38412,0.07469 -0.19207,0.07469 -0.32011,0.234745 -0.11737,0.149383 -0.16005,0.352116 -0.0427,0.192064 -0.0427,0.384128 z m 0.90696,2.710231 q 0.19207,0 0.38413,-0.07469 0.19206,-0.07469 0.30944,-0.224074 0.12804,-0.160053 0.17072,-0.352117 0.0427,-0.202734 0.0427,-0.394797 v -1.696562 l -1.81393,1.205732 v 0.49083 q 0,0.192063 0.0427,0.394797 0.0427,0.192064 0.16005,0.352117 0.12804,0.149382 0.32011,0.224074 0.19206,0.07469 0.38412,0.07469 z m 6.49816,3.105029 h -2.3261 q 0.27742,-1.152382 0.41613,-2.326104 0.13872,-1.173722 0.13872,-2.358114 h 1.2164 q 0,1.184392 0.13871,2.358114 0.13871,1.173722 0.41614,2.326104 z m 4.20405,-1.824605 q -0.30943,0 -0.61887,-0.04268 -0.30943,-0.04268 -0.59753,-0.149383 -0.27742,-0.117372 -0.53351,-0.298766 -0.24541,-0.192063 -0.42681,-0.448148 -0.17072,-0.256085 -0.25608,-0.554851 -0.0854,-0.298765 -0.0854,-0.608201 v -0.06402 h 1.55785 v 0.03201 q 0,0.181394 0.064,0.352117 0.0747,0.170723 0.2134,0.288095 0.13871,0.117372 0.32011,0.170723 0.18139,0.04268 0.36278,0.04268 0.19207,0 0.37346,-0.05335 0.19207,-0.06402 0.33078,-0.202734 0.13871,-0.138712 0.20273,-0.320106 0.064,-0.192063 0.064,-0.394797 0,-0.181393 -0.0534,-0.352117 -0.0533,-0.170723 -0.16005,-0.320106 -0.096,-0.149382 -0.24542,-0.256084 -0.13871,-0.117373 -0.30943,-0.181394 -0.17073,-0.06402 -0.35212,-0.07469 -0.18139,-0.01067 -0.36279,-0.01067 V 76.09412 q 0.24542,0 0.49083,-0.04268 0.24542,-0.05335 0.42681,-0.202734 0.19207,-0.160053 0.2881,-0.394797 0.1067,-0.234745 0.1067,-0.480159 0,-0.160053 -0.0533,-0.330777 -0.0427,-0.170723 -0.14938,-0.298765 -0.10671,-0.128043 -0.26676,-0.192064 -0.16005,-0.06402 -0.33078,-0.06402 -0.16005,0 -0.3201,0.06402 -0.16005,0.05335 -0.26676,0.181394 -0.1067,0.117372 -0.16005,0.277425 -0.0427,0.160053 -0.0427,0.330776 v 0.03201 h -1.55785 v -0.08536 q 0,-0.288095 0.0747,-0.576191 0.0747,-0.298765 0.22408,-0.54418 0.16005,-0.256085 0.38412,-0.448149 0.23475,-0.192063 0.5015,-0.309435 0.27743,-0.117373 0.56552,-0.160053 0.29877,-0.04268 0.59753,-0.04268 0.29877,0 0.59754,0.05335 0.29876,0.04268 0.56552,0.170723 0.27742,0.117372 0.5015,0.320106 0.23474,0.202734 0.38412,0.458819 0.14939,0.256085 0.22408,0.55485 0.0747,0.288096 0.0747,0.586861 0,0.266755 -0.064,0.53351 -0.064,0.256085 -0.20274,0.490829 -0.12804,0.224075 -0.33077,0.416138 -0.19207,0.192064 -0.42681,0.320106 0.26675,0.128043 0.49083,0.320106 0.23474,0.192064 0.38413,0.448149 0.16005,0.245414 0.23474,0.53351 0.0854,0.288095 0.0854,0.586861 0,0.309435 -0.0854,0.618871 -0.0854,0.309436 -0.25608,0.576191 -0.16006,0.266755 -0.40547,0.480159 -0.24542,0.202734 -0.53351,0.330776 -0.2881,0.117373 -0.6082,0.160053 -0.30944,0.05335 -0.62955,0.05335 z m 3.99066,-0.08536 v -1.280424 l 2.43281,-2.752912 q 0.14938,-0.170723 0.29876,-0.341446 0.14939,-0.170724 0.26676,-0.362787 0.11737,-0.192064 0.18139,-0.405468 0.064,-0.224074 0.064,-0.448148 0,-0.192064 -0.0427,-0.384127 -0.032,-0.192064 -0.14938,-0.352117 -0.1067,-0.160053 -0.28809,-0.234744 -0.1814,-0.08536 -0.37346,-0.08536 -0.17072,0 -0.34145,0.05335 -0.16005,0.05335 -0.28809,0.181393 -0.11738,0.117373 -0.17073,0.288096 -0.0533,0.160053 -0.0533,0.330776 v 0.03201 h -1.55785 v -0.07469 q 0,-0.298765 0.0747,-0.586861 0.0854,-0.298765 0.24542,-0.54418 0.16005,-0.256085 0.3948,-0.448149 0.24541,-0.192063 0.52284,-0.309435 0.27742,-0.117373 0.57619,-0.160053 0.29876,-0.04268 0.59753,-0.04268 0.3201,0 0.62954,0.05335 0.32011,0.05335 0.6082,0.192063 0.2881,0.138713 0.52284,0.362787 0.23475,0.213404 0.38413,0.5015 0.14938,0.277425 0.20273,0.597531 0.064,0.309436 0.064,0.629542 0,0.341446 -0.0854,0.672222 -0.0854,0.330777 -0.25608,0.629542 -0.17073,0.298766 -0.3948,0.565521 -0.2134,0.256085 -0.43748,0.501499 l -0.0213,0.03201 h -0.0107 l -1.68589,1.909966 h 2.84894 v 1.280424 z"
             id="text112"
             style="font-weight:900;font-size:10.6702px;line-height:1;font-family:'Iosevka Sezimal QP';-inkscape-font-specification:'Iosevka Sezimal QP, Heavy';text-align:center;text-decoration-color:#d40000;text-anchor:middle;fill:#333333;stroke-width:0.571617"
             aria-label="0󱹮32" />
    </g>
</svg>
