<?xml version="1.0" encoding="UTF-8" standalone="no"?>
<!-- Created with Inkscape (http://www.inkscape.org/) -->

<svg
     width="155.552mm"
     height="155.552mm"
     viewBox="0 0 155.552 155.552"
     version="1.1"
     id="svg1"
     inkscape:version="1.3.2 (091e20ef0f, 2023-11-25, custom)"
     sodipodi:docname="circle_fraction_20.svg"
     xmlns:inkscape="http://www.inkscape.org/namespaces/inkscape"
     xmlns:sodipodi="http://sodipodi.sourceforge.net/DTD/sodipodi-0.dtd"
     xmlns="http://www.w3.org/2000/svg"
     xmlns:svg="http://www.w3.org/2000/svg">
    <sodipodi:namedview
         id="namedview1"
         pagecolor="#ffffff"
         bordercolor="#000000"
         borderopacity="0.25"
         inkscape:showpageshadow="2"
         inkscape:pageopacity="0.0"
         inkscape:pagecheckerboard="0"
         inkscape:deskcolor="#d1d1d1"
         inkscape:document-units="mm"
         inkscape:zoom="0.68862935"
         inkscape:cx="396.43968"
         inkscape:cy="482.8432"
         inkscape:window-width="1920"
         inkscape:window-height="1014"
         inkscape:window-x="0"
         inkscape:window-y="0"
         inkscape:window-maximized="1"
         inkscape:current-layer="layer1" />
    <defs
         id="defs1" />
    <g
         inkscape:label="Camada 1"
         inkscape:groupmode="layer"
         id="layer1">
        <path
             id="ellipse41"
             style="fill:#aaccff;stroke-width:2.13086"
             transform="rotate(-60)"
             d="m 49.308012,106.24399 a 77.776001,77.776001 0 0 1 -77.776001,77.776 77.776001,77.776001 0 0 1 -77.776001,-77.776 77.776001,77.776001 0 0 1 77.776001,-77.776003 77.776001,77.776001 0 0 1 77.776001,77.776003 z" />
        <path
             id="path43"
             style="fill:#aaccff;stroke-width:2.13086"
             transform="rotate(-60)"
             d="m 49.308012,106.24399 a 77.776001,77.776001 0 0 1 -77.776001,77.776 77.776001,77.776001 0 0 1 -77.776001,-77.776 77.776001,77.776001 0 0 1 77.776001,-77.776003 77.776001,77.776001 0 0 1 77.776001,77.776003 z" />
        <path
             id="path44"
             style="fill:#aaccff;stroke-width:2.13086"
             transform="rotate(-60)"
             d="m -95.823982,145.13199 a 77.776001,77.776001 0 0 1 -10.420008,-38.888 h 77.776001 z" />
        <path
             id="path45"
             style="fill:#80b3ff;stroke-width:2.13086"
             transform="rotate(-60)"
             d="m -106.24399,106.24399 a 77.776001,77.776001 0 0 1 10.420007,-38.888 l 67.355994,38.888 z" />
        <path
             id="path46"
             style="fill:#aaccff;stroke-width:2.13086"
             transform="rotate(-60)"
             d="M -95.823983,67.35599 A 77.776001,77.776001 0 0 1 -67.35599,38.887996 l 38.888001,67.355994 z" />
        <path
             id="path47"
             style="fill:#80b3ff;stroke-width:2.13086"
             transform="rotate(-60)"
             d="M -67.35599,38.887996 A 77.776001,77.776001 0 0 1 -28.467989,28.467987 V 106.24399 Z" />
        <path
             id="path48"
             style="fill:#aaccff;stroke-width:2.13086"
             transform="rotate(-60)"
             d="m -28.467989,28.467987 a 77.776001,77.776001 0 0 1 38.888003,10.42001 l -38.888003,67.355993 z" />
        <path
             id="path49"
             style="fill:#80b3ff;stroke-width:2.13086"
             transform="rotate(-60)"
             d="M 10.420014,38.887997 A 77.776001,77.776001 0 0 1 38.888002,67.355985 L -28.467989,106.24399 Z" />
        <path
             id="path50"
             style="fill:#80b3ff;stroke-width:2.13086"
             transform="rotate(-60)"
             d="m -67.355989,173.59998 a 77.776001,77.776001 0 0 1 -28.467993,-28.46799 l 67.355993,-38.888 z" />
        <path
             id="path51"
             style="fill:#aaccff;stroke-width:2.13086"
             transform="rotate(-60)"
             d="m -28.467989,184.01999 a 77.776001,77.776001 0 0 1 -38.888,-10.42001 l 38.888,-67.35599 z" />
        <path
             id="path52"
             style="fill:#80b3ff;stroke-width:2.13086"
             transform="rotate(-60)"
             d="m 10.420008,173.59998 a 77.776001,77.776001 0 0 1 -38.887997,10.42001 v -77.776 z" />
        <path
             id="path53"
             style="fill:#aaccff;stroke-width:2.13086"
             transform="rotate(-60)"
             d="M 38.888004,145.13199 A 77.776001,77.776001 0 0 1 10.420008,173.59998 L -28.467989,106.24399 Z" />
        <path
             id="path54"
             style="fill:#80b3ff;stroke-width:2.13086"
             transform="rotate(-60)"
             d="m 49.308012,106.24399 a 77.776001,77.776001 0 0 1 -10.420008,38.888 l -67.355993,-38.888 z" />
        <path
             d="m -61.123695,34.005816 q -0.228647,0 -0.457294,-0.03811 -0.228647,-0.03049 -0.442051,-0.121945 -0.205783,-0.09908 -0.381079,-0.259134 -0.167674,-0.160052 -0.281998,-0.358213 -0.106702,-0.198161 -0.152431,-0.426808 -0.04573,-0.228647 -0.04573,-0.457294 v -2.400795 q 0,-0.228647 0.04573,-0.457294 0.04573,-0.228647 0.152431,-0.426808 0.114324,-0.198161 0.281998,-0.358214 0.175296,-0.160053 0.381079,-0.251512 0.213404,-0.09908 0.442051,-0.129566 0.228647,-0.03811 0.457294,-0.03811 0.228647,0 0.457294,0.03811 0.228647,0.03049 0.43443,0.129566 0.213404,0.09146 0.381078,0.251512 0.175296,0.160053 0.281998,0.358214 0.114324,0.198161 0.160053,0.426808 0.04573,0.228647 0.04573,0.457294 v 2.400795 q 0,0.228647 -0.04573,0.457294 -0.04573,0.228647 -0.160053,0.426808 -0.106702,0.198161 -0.281998,0.358213 -0.167674,0.160053 -0.381078,0.259134 -0.205783,0.09146 -0.43443,0.121945 -0.228647,0.03811 -0.457294,0.03811 z m -0.647833,-2.850467 1.295667,-0.861238 v -0.350592 q 0,-0.137188 -0.03049,-0.274377 -0.03049,-0.144809 -0.121945,-0.251511 -0.08384,-0.114324 -0.221025,-0.167675 -0.137189,-0.05335 -0.274377,-0.05335 -0.137188,0 -0.274376,0.05335 -0.137189,0.05335 -0.228647,0.167675 -0.08384,0.106702 -0.114324,0.251511 -0.03049,0.137189 -0.03049,0.274377 z m 0.647833,1.935878 q 0.137188,0 0.274377,-0.05335 0.137188,-0.05335 0.221025,-0.160053 0.09146,-0.114323 0.121945,-0.251511 0.03049,-0.14481 0.03049,-0.281998 v -1.21183 l -1.295667,0.861237 v 0.350593 q 0,0.137188 0.03049,0.281998 0.03049,0.137188 0.114324,0.251511 0.09146,0.106702 0.228647,0.160053 0.137188,0.05335 0.274376,0.05335 z m 4.641539,2.217877 h -1.661502 q 0.198161,-0.823129 0.297241,-1.661502 0.09908,-0.838373 0.09908,-1.684367 h 0.868859 q 0,0.845994 0.09908,1.684367 0.09908,0.838373 0.297241,1.661502 z m 2.980032,-1.303288 q -0.228647,0 -0.457294,-0.03811 -0.228648,-0.03049 -0.442052,-0.121945 -0.205782,-0.09908 -0.381078,-0.259134 -0.167675,-0.160052 -0.281998,-0.358213 -0.106702,-0.198161 -0.152432,-0.426808 -0.04573,-0.228647 -0.04573,-0.457294 v -2.400795 q 0,-0.228647 0.04573,-0.457294 0.04573,-0.228647 0.152432,-0.426808 0.114323,-0.198161 0.281998,-0.358214 0.175296,-0.160053 0.381078,-0.251512 0.213404,-0.09908 0.442052,-0.129566 0.228647,-0.03811 0.457294,-0.03811 0.228647,0 0.457294,0.03811 0.228647,0.03049 0.434429,0.129566 0.213404,0.09146 0.381079,0.251512 0.175296,0.160053 0.281998,0.358214 0.114324,0.198161 0.160053,0.426808 0.04573,0.228647 0.04573,0.457294 v 2.400795 q 0,0.228647 -0.04573,0.457294 -0.04573,0.228647 -0.160053,0.426808 -0.106702,0.198161 -0.281998,0.358213 -0.167675,0.160053 -0.381079,0.259134 -0.205782,0.09146 -0.434429,0.121945 -0.228647,0.03811 -0.457294,0.03811 z m -0.647834,-2.850467 1.295667,-0.861238 v -0.350592 q 0,-0.137188 -0.03049,-0.274377 -0.03049,-0.144809 -0.121945,-0.251511 -0.08384,-0.114324 -0.221026,-0.167675 -0.137188,-0.05335 -0.274376,-0.05335 -0.137189,0 -0.274377,0.05335 -0.137188,0.05335 -0.228647,0.167675 -0.08384,0.106702 -0.114323,0.251511 -0.03049,0.137189 -0.03049,0.274377 z m 0.647834,1.935878 q 0.137188,0 0.274376,-0.05335 0.137189,-0.05335 0.221026,-0.160053 0.09146,-0.114323 0.121945,-0.251511 0.03049,-0.14481 0.03049,-0.281998 v -1.21183 l -1.295667,0.861237 v 0.350593 q 0,0.137188 0.03049,0.281998 0.03049,0.137188 0.114323,0.251511 0.09146,0.106702 0.228647,0.160053 0.137188,0.05335 0.274377,0.05335 z m 4.595809,0.914589 q -0.221025,0 -0.442051,-0.03049 -0.221026,-0.03049 -0.426808,-0.106702 -0.198161,-0.08384 -0.381078,-0.213404 -0.175297,-0.137189 -0.304863,-0.320106 -0.121945,-0.182918 -0.182918,-0.396322 -0.06097,-0.213404 -0.06097,-0.434429 v -0.04573 h 1.112749 v 0.02286 q 0,0.129567 0.04573,0.251512 0.05335,0.121945 0.152432,0.205782 0.09908,0.08384 0.228647,0.121945 0.129566,0.03049 0.259133,0.03049 0.137188,0 0.266755,-0.03811 0.137188,-0.04573 0.236269,-0.14481 0.09908,-0.09908 0.14481,-0.228647 0.04573,-0.137189 0.04573,-0.281998 0,-0.129567 -0.03811,-0.251512 -0.03811,-0.121945 -0.114323,-0.228647 -0.06859,-0.106702 -0.175297,-0.182918 -0.09908,-0.08384 -0.221025,-0.129567 -0.121945,-0.04573 -0.251512,-0.05335 -0.129567,-0.0076 -0.259133,-0.0076 V 30.62946 q 0.175296,0 0.350592,-0.03049 0.175296,-0.03811 0.304863,-0.14481 0.137188,-0.114323 0.205782,-0.281998 0.07622,-0.167674 0.07622,-0.342971 0,-0.114323 -0.03811,-0.236268 -0.03049,-0.121945 -0.106702,-0.213404 -0.07622,-0.09146 -0.190539,-0.137188 -0.114324,-0.04573 -0.236269,-0.04573 -0.114323,0 -0.228647,0.04573 -0.114324,0.03811 -0.190539,0.129566 -0.07622,0.08384 -0.114324,0.198161 -0.03049,0.114324 -0.03049,0.236269 v 0.02286 h -1.112749 v -0.06097 q 0,-0.205783 0.05335,-0.411565 0.05335,-0.213404 0.160053,-0.3887 0.114323,-0.182918 0.274376,-0.320106 0.167675,-0.137188 0.358214,-0.221025 0.198161,-0.08384 0.403943,-0.114324 0.213404,-0.03049 0.426808,-0.03049 0.213404,0 0.426808,0.03811 0.213404,0.03049 0.403943,0.121945 0.198161,0.08384 0.358214,0.228647 0.167675,0.14481 0.274377,0.327727 0.106702,0.182918 0.160053,0.396322 0.05335,0.205782 0.05335,0.419186 0,0.19054 -0.04573,0.381079 -0.04573,0.182917 -0.14481,0.350592 -0.09146,0.160053 -0.236268,0.297241 -0.137189,0.137189 -0.304863,0.228647 0.190539,0.09146 0.350592,0.228647 0.167675,0.137189 0.274377,0.320106 0.114323,0.175297 0.167674,0.381079 0.06097,0.205782 0.06097,0.419186 0,0.221026 -0.06097,0.442051 -0.06097,0.221026 -0.182918,0.411565 -0.114323,0.190539 -0.289619,0.342971 -0.175296,0.14481 -0.381079,0.236268 -0.205782,0.08384 -0.434429,0.114324 -0.221026,0.03811 -0.449673,0.03811 z"
             id="text68"
             style="font-weight:900;font-size:7.62157px;line-height:1.5;font-family:'Iosevka Sezimal QP';-inkscape-font-specification:'Iosevka Sezimal QP, Heavy';text-align:center;text-decoration-color:#d40000;text-anchor:middle;fill:#333333;stroke-width:0.571617"
             transform="rotate(-75)"
             aria-label="0󱹮03" />
        <path
             d="m -3.8412666,48.741927 q -0.2286471,0 -0.4572942,-0.03811 -0.2286471,-0.03049 -0.442051,-0.121945 -0.2057824,-0.09908 -0.3810785,-0.259134 -0.1676746,-0.160053 -0.2819981,-0.358214 -0.106702,-0.19816 -0.1524314,-0.426808 -0.045729,-0.228647 -0.045729,-0.457294 V 44.67963 q 0,-0.228647 0.045729,-0.457295 0.045729,-0.228647 0.1524314,-0.426807 0.1143235,-0.198161 0.2819981,-0.358214 0.1752961,-0.160053 0.3810785,-0.251512 0.2134039,-0.09908 0.442051,-0.129567 0.2286471,-0.03811 0.4572942,-0.03811 0.2286471,0 0.4572942,0.03811 0.2286472,0.03049 0.4344295,0.129567 0.213404,0.09146 0.3810786,0.251512 0.1752961,0.160053 0.281998,0.358214 0.1143236,0.19816 0.160053,0.426807 0.045729,0.228648 0.045729,0.457295 v 2.400794 q 0,0.228647 -0.045729,0.457294 -0.045729,0.228648 -0.160053,0.426808 -0.1067019,0.198161 -0.281998,0.358214 -0.1676746,0.160053 -0.3810786,0.259134 -0.2057823,0.09146 -0.4344295,0.121945 -0.2286471,0.03811 -0.4572942,0.03811 z M -4.4891,45.891459 -3.1934331,45.030222 V 44.67963 q 0,-0.137189 -0.030486,-0.274377 -0.030486,-0.14481 -0.1219451,-0.251512 -0.083837,-0.114323 -0.2210255,-0.167674 -0.1371883,-0.05335 -0.2743766,-0.05335 -0.1371882,0 -0.2743765,0.05335 -0.1371882,0.05335 -0.2286471,0.167674 -0.083837,0.106702 -0.1143235,0.251512 Q -4.4891,44.542441 -4.4891,44.67963 Z m 0.6478334,1.935879 q 0.1371883,0 0.2743766,-0.05335 0.1371882,-0.05335 0.2210255,-0.160053 0.091459,-0.114323 0.1219451,-0.251512 0.030486,-0.144809 0.030486,-0.281998 V 45.868595 L -4.4891,46.729832 v 0.350592 q 0,0.137189 0.030486,0.281998 0.030486,0.137189 0.1143235,0.251512 0.091459,0.106702 0.2286471,0.160053 0.1371883,0.05335 0.2743765,0.05335 z m 4.64153929,2.217877 h -1.66150228 q 0.19816082,-0.82313 0.29724123,-1.661502 0.0990804,-0.838373 0.0990804,-1.684367 h 0.86885899 q 0,0.845994 0.0990804,1.684367 0.0990804,0.838372 0.29724123,1.661502 z M 2.2483684,48.680954 V 47.766366 H 3.284902 V 45.266491 L 2.8733372,46.249673 2.0806939,45.982918 3.284902,43.0791 h 1.1051276 v 4.687266 h 0.92221 v 0.914588 z"
             id="text68-8"
             style="font-weight:900;font-size:7.62157px;line-height:1;font-family:'Iosevka Sezimal QP';-inkscape-font-specification:'Iosevka Sezimal QP, Heavy';text-align:center;text-decoration-color:#d40000;text-anchor:middle;fill:#333333;stroke-width:0.571617"
             transform="rotate(-45)"
             aria-label="0󱹮1" />
        <path
             d="m 48.868218,34.005778 q -0.228647,0 -0.457294,-0.03811 -0.228647,-0.03049 -0.442051,-0.121945 -0.205783,-0.09908 -0.381079,-0.259134 -0.167674,-0.160053 -0.281998,-0.358213 -0.106702,-0.198161 -0.152431,-0.426808 -0.04573,-0.228647 -0.04573,-0.457295 v -2.400794 q 0,-0.228647 0.04573,-0.457294 0.04573,-0.228647 0.152431,-0.426808 0.114324,-0.198161 0.281998,-0.358214 0.175296,-0.160053 0.381079,-0.251512 0.213404,-0.09908 0.442051,-0.129567 0.228647,-0.03811 0.457294,-0.03811 0.228647,0 0.457294,0.03811 0.228647,0.03049 0.43443,0.129567 0.213404,0.09146 0.381078,0.251512 0.175296,0.160053 0.281998,0.358214 0.114324,0.198161 0.160053,0.426808 0.04573,0.228647 0.04573,0.457294 v 2.400794 q 0,0.228648 -0.04573,0.457295 -0.04573,0.228647 -0.160053,0.426808 -0.106702,0.19816 -0.281998,0.358213 -0.167674,0.160053 -0.381078,0.259134 -0.205783,0.09146 -0.43443,0.121945 -0.228647,0.03811 -0.457294,0.03811 z m -0.647833,-2.850468 1.295666,-0.861237 v -0.350592 q 0,-0.137188 -0.03049,-0.274377 -0.03049,-0.14481 -0.121945,-0.251512 -0.08384,-0.114323 -0.221025,-0.167674 -0.137189,-0.05335 -0.274377,-0.05335 -0.137188,0 -0.274377,0.05335 -0.137188,0.05335 -0.228647,0.167674 -0.08384,0.106702 -0.114323,0.251512 -0.03049,0.137189 -0.03049,0.274377 z m 0.647833,1.935879 q 0.137188,0 0.274377,-0.05335 0.137188,-0.05335 0.221025,-0.160053 0.09146,-0.114323 0.121945,-0.251511 0.03049,-0.14481 0.03049,-0.281999 v -1.211829 l -1.295666,0.861237 v 0.350592 q 0,0.137189 0.03049,0.281999 0.03049,0.137188 0.114323,0.251511 0.09146,0.106702 0.228647,0.160053 0.137189,0.05335 0.274377,0.05335 z m 4.641539,2.217877 h -1.661502 q 0.198161,-0.823129 0.297241,-1.661502 0.09908,-0.838373 0.09908,-1.684367 h 0.868859 q 0,0.845994 0.09908,1.684367 0.09908,0.838373 0.297241,1.661502 z m 1.448096,-1.364261 v -0.914588 h 1.036534 v -2.499875 l -0.411565,0.983182 -0.792644,-0.266755 1.204209,-2.903818 h 1.105127 v 4.687266 h 0.92221 v 0.914588 z m 6.127745,0.06097 q -0.221026,0 -0.442051,-0.03049 -0.221026,-0.03049 -0.426808,-0.106702 -0.198161,-0.08384 -0.381079,-0.213404 -0.175296,-0.137188 -0.304862,-0.320105 -0.121945,-0.182918 -0.182918,-0.396322 -0.06097,-0.213404 -0.06097,-0.43443 v -0.04573 h 1.11275 v 0.02287 q 0,0.129566 0.04573,0.251511 0.05335,0.121946 0.152431,0.205783 0.09908,0.08384 0.228648,0.121945 0.129566,0.03049 0.259133,0.03049 0.137188,0 0.266755,-0.03811 0.137188,-0.04573 0.236269,-0.144809 0.09908,-0.09908 0.144809,-0.228647 0.04573,-0.137189 0.04573,-0.281999 0,-0.129566 -0.03811,-0.251511 -0.03811,-0.121946 -0.114324,-0.228648 -0.06859,-0.106701 -0.175296,-0.182917 -0.09908,-0.08384 -0.221025,-0.129567 -0.121945,-0.04573 -0.251512,-0.05335 -0.129567,-0.0076 -0.259133,-0.0076 v -0.914589 q 0.175296,0 0.350592,-0.03049 0.175296,-0.03811 0.304863,-0.14481 0.137188,-0.114324 0.205782,-0.281998 0.07622,-0.167675 0.07622,-0.342971 0,-0.114323 -0.03811,-0.236268 -0.03049,-0.121946 -0.106702,-0.213404 -0.07622,-0.09146 -0.190539,-0.137189 -0.114324,-0.04573 -0.236269,-0.04573 -0.114324,0 -0.228647,0.04573 -0.114324,0.03811 -0.190539,0.129567 -0.07622,0.08384 -0.114324,0.198161 -0.03049,0.114323 -0.03049,0.236269 v 0.02286 h -1.112749 v -0.06097 q 0,-0.205783 0.05335,-0.411565 0.05335,-0.213404 0.160053,-0.3887 0.114324,-0.182918 0.274377,-0.320106 0.167675,-0.137188 0.358214,-0.221026 0.198161,-0.08384 0.403943,-0.114323 0.213404,-0.03049 0.426808,-0.03049 0.213404,0 0.426808,0.03811 0.213404,0.03049 0.403943,0.121946 0.198161,0.08384 0.358214,0.228647 0.167674,0.144809 0.274376,0.327727 0.106702,0.182918 0.160053,0.396322 0.05335,0.205782 0.05335,0.419186 0,0.190539 -0.04573,0.381079 -0.04573,0.182917 -0.14481,0.350592 -0.09146,0.160053 -0.236269,0.297241 -0.137188,0.137188 -0.304862,0.228647 0.190539,0.09146 0.350592,0.228647 0.167674,0.137189 0.274376,0.320106 0.114324,0.175296 0.167675,0.381079 0.06097,0.205782 0.06097,0.419186 0,0.221026 -0.06097,0.442051 -0.06097,0.221026 -0.182918,0.411565 -0.114323,0.190539 -0.289619,0.342971 -0.175297,0.144809 -0.381079,0.236268 -0.205782,0.08384 -0.434429,0.114324 -0.221026,0.03811 -0.449673,0.03811 z"
             id="text68-0"
             style="font-weight:900;font-size:7.62157px;line-height:1;font-family:'Iosevka Sezimal QP';-inkscape-font-specification:'Iosevka Sezimal QP, Heavy';text-align:center;text-decoration-color:#d40000;text-anchor:middle;fill:#333333;stroke-width:0.571617"
             transform="rotate(-15)"
             aria-label="0󱹮13" />
        <path
             d="m 91.41451,-6.2540332 q -0.228648,0 -0.457295,-0.038108 -0.228647,-0.030486 -0.442051,-0.1219451 -0.205782,-0.09908 -0.381078,-0.2591334 -0.167675,-0.1600529 -0.281998,-0.3582138 -0.106702,-0.1981608 -0.152432,-0.4268079 -0.04573,-0.2286471 -0.04573,-0.4572942 V -10.31633 q 0,-0.228647 0.04573,-0.457294 0.04573,-0.228647 0.152432,-0.426808 0.114323,-0.198161 0.281998,-0.358214 0.175296,-0.160053 0.381078,-0.251512 0.213404,-0.09908 0.442051,-0.129567 0.228647,-0.03811 0.457295,-0.03811 0.228647,0 0.457294,0.03811 0.228647,0.03049 0.434429,0.129567 0.213404,0.09146 0.381079,0.251512 0.175296,0.160053 0.281998,0.358214 0.114323,0.198161 0.160053,0.426808 0.04573,0.228647 0.04573,0.457294 v 2.4007945 q 0,0.2286471 -0.04573,0.4572942 -0.04573,0.2286471 -0.160053,0.4268079 -0.106702,0.1981609 -0.281998,0.3582138 -0.167675,0.160053 -0.381079,0.2591334 -0.205782,0.091459 -0.434429,0.1219451 -0.228647,0.038108 -0.457294,0.038108 z m -0.647834,-2.8504672 1.295667,-0.8612375 V -10.31633 q 0,-0.137188 -0.03049,-0.274377 -0.03049,-0.144809 -0.121945,-0.251511 -0.08384,-0.114324 -0.221026,-0.167675 -0.137188,-0.05335 -0.274376,-0.05335 -0.137189,0 -0.274377,0.05335 -0.137188,0.05335 -0.228647,0.167675 -0.08384,0.106702 -0.114324,0.251511 -0.03049,0.137189 -0.03049,0.274377 z m 0.647834,1.9358788 q 0.137188,0 0.274376,-0.053351 0.137188,-0.053351 0.221026,-0.160053 0.09146,-0.1143235 0.121945,-0.2515118 0.03049,-0.1448098 0.03049,-0.2819981 v -1.2118296 l -1.295667,0.8612374 v 0.3505922 q 0,0.1371883 0.03049,0.2819981 0.03049,0.1371883 0.114324,0.2515118 0.09146,0.106702 0.228647,0.160053 0.137188,0.053351 0.274377,0.053351 z m 4.641539,2.2178769 h -1.661503 q 0.198161,-0.8231296 0.297242,-1.6615023 0.09908,-0.8383727 0.09908,-1.684367 h 0.868859 q 0,0.8459943 0.09908,1.684367 0.09908,0.8383727 0.297241,1.6615023 z m 1.280421,-1.3642611 v -0.9145884 l 1.737718,-1.9663651 q 0.106702,-0.1219451 0.213404,-0.2438902 0.106702,-0.1219451 0.190539,-0.2591334 0.08384,-0.1371883 0.129567,-0.2896197 0.04573,-0.1600534 0.04573,-0.3201064 0,-0.137188 -0.03049,-0.274376 -0.02286,-0.137188 -0.106702,-0.251512 -0.07622,-0.114323 -0.205782,-0.167674 -0.129567,-0.06097 -0.266755,-0.06097 -0.121945,0 -0.243891,0.03811 -0.114323,0.03811 -0.205782,0.129567 -0.08384,0.08384 -0.121945,0.205782 -0.03811,0.114324 -0.03811,0.236269 v 0.02286 h -1.112749 v -0.05335 q 0,-0.213404 0.05335,-0.419186 0.06097,-0.213404 0.175296,-0.3887 0.114323,-0.182918 0.281998,-0.320106 0.175296,-0.137188 0.373457,-0.221026 0.198161,-0.08384 0.411565,-0.114323 0.213404,-0.03049 0.426808,-0.03049 0.228647,0 0.449672,0.03811 0.228647,0.03811 0.43443,0.137189 0.205786,0.09908 0.373456,0.259133 0.16768,0.152432 0.27438,0.358214 0.1067,0.198161 0.14481,0.426808 0.0457,0.221025 0.0457,0.449672 0,0.243891 -0.061,0.4801594 -0.061,0.2362687 -0.18291,0.4496726 -0.12195,0.213404 -0.282,0.4039433 -0.15243,0.1829176 -0.312486,0.3582137 l -0.01524,0.022865 h -0.0076 l -1.204208,1.364261 h 2.034959 v 0.9145884 z"
             id="text68-6"
             style="font-weight:900;font-size:7.62157px;line-height:1;font-family:'Iosevka Sezimal QP';-inkscape-font-specification:'Iosevka Sezimal QP, Heavy';text-align:center;text-decoration-color:#d40000;text-anchor:middle;fill:#333333;stroke-width:0.571617"
             transform="rotate(15)"
             aria-label="0󱹮2" />
        <path
             d="m 103.86412,-61.249994 q -0.22865,0 -0.45729,-0.03811 -0.22865,-0.03049 -0.44205,-0.121945 -0.20579,-0.09908 -0.38108,-0.259133 -0.16768,-0.160053 -0.282,-0.358214 -0.1067,-0.198161 -0.15243,-0.426808 -0.0457,-0.228647 -0.0457,-0.457294 v -2.400795 q 0,-0.228647 0.0457,-0.457294 0.0457,-0.228647 0.15243,-0.426808 0.11432,-0.198161 0.282,-0.358214 0.17529,-0.160053 0.38108,-0.251512 0.2134,-0.09908 0.44205,-0.129566 0.22864,-0.03811 0.45729,-0.03811 0.22865,0 0.4573,0.03811 0.22864,0.03049 0.43442,0.129566 0.21341,0.09146 0.38108,0.251512 0.1753,0.160053 0.282,0.358214 0.11432,0.198161 0.16005,0.426808 0.0457,0.228647 0.0457,0.457294 v 2.400795 q 0,0.228647 -0.0457,0.457294 -0.0457,0.228647 -0.16005,0.426808 -0.1067,0.198161 -0.282,0.358214 -0.16767,0.160053 -0.38108,0.259133 -0.20578,0.09146 -0.43442,0.121945 -0.22865,0.03811 -0.4573,0.03811 z m -0.64783,-2.850467 1.29566,-0.861238 v -0.350592 q 0,-0.137188 -0.0305,-0.274376 -0.0305,-0.14481 -0.12195,-0.251512 -0.0838,-0.114324 -0.22102,-0.167675 -0.13719,-0.05335 -0.27438,-0.05335 -0.13719,0 -0.27438,0.05335 -0.13718,0.05335 -0.22864,0.167675 -0.0838,0.106702 -0.11433,0.251512 -0.0305,0.137188 -0.0305,0.274376 z m 0.64783,1.935879 q 0.13719,0 0.27438,-0.05335 0.13719,-0.05335 0.22102,-0.160053 0.0915,-0.114324 0.12195,-0.251512 0.0305,-0.14481 0.0305,-0.281998 v -1.21183 l -1.29566,0.861238 v 0.350592 q 0,0.137188 0.0305,0.281998 0.0305,0.137188 0.11433,0.251512 0.0915,0.106702 0.22864,0.160053 0.13719,0.05335 0.27438,0.05335 z m 4.64154,2.217877 h -1.6615 q 0.19816,-0.82313 0.29724,-1.661503 0.0991,-0.838372 0.0991,-1.684367 h 0.86886 q 0,0.845995 0.0991,1.684367 0.0991,0.838373 0.29724,1.661503 z m 1.28042,-1.364261 v -0.914589 l 1.73772,-1.966365 q 0.1067,-0.121945 0.2134,-0.24389 0.10671,-0.121945 0.19054,-0.259134 0.0838,-0.137188 0.12957,-0.289619 0.0457,-0.160053 0.0457,-0.320106 0,-0.137188 -0.0305,-0.274377 -0.0229,-0.137188 -0.1067,-0.251512 -0.0762,-0.114323 -0.20578,-0.167674 -0.12957,-0.06097 -0.26676,-0.06097 -0.12194,0 -0.24389,0.03811 -0.11432,0.03811 -0.20578,0.129567 -0.0838,0.08384 -0.12194,0.205782 -0.0381,0.114324 -0.0381,0.236269 v 0.02286 h -1.11275 v -0.05335 q 0,-0.213404 0.0533,-0.419187 0.061,-0.213404 0.1753,-0.3887 0.11432,-0.182917 0.28199,-0.320106 0.1753,-0.137188 0.37346,-0.221025 0.19816,-0.08384 0.41157,-0.114324 0.2134,-0.03049 0.4268,-0.03049 0.22865,0 0.44968,0.03811 0.22864,0.03811 0.43443,0.137188 0.20578,0.09908 0.37345,0.259133 0.16768,0.152432 0.27438,0.358214 0.1067,0.198161 0.14481,0.426808 0.0457,0.221026 0.0457,0.449673 0,0.24389 -0.061,0.480159 -0.061,0.236268 -0.18292,0.449672 -0.12195,0.213404 -0.282,0.403944 -0.15243,0.182917 -0.31248,0.358213 l -0.0152,0.02287 h -0.008 l -1.20421,1.364261 h 2.03496 v 0.914589 z m 6.29542,0.06097 q -0.22102,0 -0.44205,-0.03049 -0.22103,-0.03049 -0.42681,-0.106702 -0.19816,-0.08384 -0.38108,-0.213404 -0.17529,-0.137188 -0.30486,-0.320106 -0.12194,-0.182918 -0.18292,-0.396322 -0.061,-0.213404 -0.061,-0.434429 v -0.04573 h 1.11275 v 0.02287 q 0,0.129567 0.0457,0.251512 0.0534,0.121945 0.15243,0.205782 0.0991,0.08384 0.22865,0.121945 0.12956,0.03049 0.25913,0.03049 0.13719,0 0.26676,-0.03811 0.13718,-0.04573 0.23626,-0.14481 0.0991,-0.09908 0.14481,-0.228647 0.0457,-0.137188 0.0457,-0.281998 0,-0.129567 -0.0381,-0.251512 -0.0381,-0.121945 -0.11433,-0.228647 -0.0686,-0.106702 -0.17529,-0.182918 -0.0991,-0.08384 -0.22103,-0.129567 -0.12194,-0.04573 -0.25151,-0.05335 -0.12957,-0.0076 -0.25913,-0.0076 v -0.914588 q 0.17529,0 0.35059,-0.03049 0.17529,-0.03811 0.30486,-0.14481 0.13719,-0.114323 0.20578,-0.281998 0.0762,-0.167674 0.0762,-0.34297 0,-0.114324 -0.0381,-0.236269 -0.0305,-0.121945 -0.1067,-0.213404 -0.0762,-0.09146 -0.19054,-0.137188 -0.11432,-0.04573 -0.23627,-0.04573 -0.11432,0 -0.22865,0.04573 -0.11432,0.03811 -0.19054,0.129566 -0.0762,0.08384 -0.11432,0.198161 -0.0305,0.114324 -0.0305,0.236269 v 0.02286 h -1.11274 v -0.06097 q 0,-0.205782 0.0534,-0.411565 0.0533,-0.213404 0.16005,-0.3887 0.11432,-0.182917 0.27438,-0.320106 0.16767,-0.137188 0.35821,-0.221025 0.19816,-0.08384 0.40394,-0.114324 0.21341,-0.03049 0.42681,-0.03049 0.2134,0 0.42681,0.03811 0.2134,0.03049 0.40394,0.121945 0.19816,0.08384 0.35822,0.228647 0.16767,0.14481 0.27437,0.327728 0.1067,0.182917 0.16006,0.396321 0.0534,0.205783 0.0534,0.419187 0,0.190539 -0.0457,0.381078 -0.0457,0.182918 -0.14481,0.350592 -0.0915,0.160053 -0.23627,0.297241 -0.13719,0.137189 -0.30486,0.228648 0.19053,0.09146 0.35059,0.228647 0.16767,0.137188 0.27437,0.320106 0.11433,0.175296 0.16768,0.381078 0.061,0.205783 0.061,0.419186 0,0.221026 -0.061,0.442052 -0.061,0.221025 -0.18292,0.411564 -0.11432,0.19054 -0.28962,0.342971 -0.17529,0.14481 -0.38108,0.236269 -0.20578,0.08384 -0.43443,0.114323 -0.22102,0.03811 -0.44967,0.03811 z"
             id="text68-4"
             style="font-weight:900;font-size:7.62157px;line-height:1;font-family:'Iosevka Sezimal QP';-inkscape-font-specification:'Iosevka Sezimal QP, Heavy';text-align:center;text-decoration-color:#d40000;text-anchor:middle;fill:#333333;stroke-width:0.571617"
             transform="rotate(45)"
             aria-label="0󱹮23" />
        <path
             d="m 91.414471,-116.2459 q -0.228647,0 -0.457294,-0.0381 -0.228647,-0.0305 -0.442051,-0.12195 -0.205782,-0.0991 -0.381078,-0.25913 -0.167675,-0.16005 -0.281999,-0.35821 -0.106701,-0.19817 -0.152431,-0.42681 -0.04573,-0.22865 -0.04573,-0.4573 v -2.40079 q 0,-0.22865 0.04573,-0.4573 0.04573,-0.22864 0.152431,-0.4268 0.114324,-0.19816 0.281999,-0.35822 0.175296,-0.16005 0.381078,-0.25151 0.213404,-0.0991 0.442051,-0.12957 0.228647,-0.0381 0.457294,-0.0381 0.228647,0 0.457295,0.0381 0.228647,0.0305 0.434429,0.12957 0.213404,0.0915 0.381079,0.25151 0.175296,0.16006 0.281998,0.35822 0.114323,0.19816 0.160053,0.4268 0.04573,0.22865 0.04573,0.4573 v 2.40079 q 0,0.22865 -0.04573,0.4573 -0.04573,0.22864 -0.160053,0.42681 -0.106702,0.19816 -0.281998,0.35821 -0.167675,0.16005 -0.381079,0.25913 -0.205782,0.0915 -0.434429,0.12195 -0.228648,0.0381 -0.457295,0.0381 z m -0.647833,-2.85047 1.295667,-0.86124 v -0.35059 q 0,-0.13719 -0.03049,-0.27438 -0.03049,-0.14481 -0.121946,-0.25151 -0.08384,-0.11432 -0.221025,-0.16767 -0.137188,-0.0534 -0.274377,-0.0534 -0.137188,0 -0.274376,0.0534 -0.137188,0.0534 -0.228647,0.16767 -0.08384,0.1067 -0.114324,0.25151 -0.03049,0.13719 -0.03049,0.27438 z m 0.647833,1.93588 q 0.137189,0 0.274377,-0.0534 0.137188,-0.0533 0.221025,-0.16006 0.09146,-0.11432 0.121946,-0.25151 0.03049,-0.14481 0.03049,-0.282 v -1.21183 l -1.295667,0.86124 v 0.35059 q 0,0.13719 0.03049,0.282 0.03049,0.13719 0.114324,0.25151 0.09146,0.10671 0.228647,0.16006 0.137188,0.0534 0.274376,0.0534 z m 4.64154,2.21787 h -1.661503 q 0.198161,-0.82313 0.297242,-1.6615 0.09908,-0.83837 0.09908,-1.68437 h 0.868859 q 0,0.846 0.09908,1.68437 0.09908,0.83837 0.297242,1.6615 z m 3.002896,-1.30328 q -0.221026,0 -0.442051,-0.0305 -0.221026,-0.0305 -0.426808,-0.1067 -0.198161,-0.0838 -0.381079,-0.21341 -0.175296,-0.13719 -0.304863,-0.3201 -0.121945,-0.18292 -0.182917,-0.39632 -0.06097,-0.21341 -0.06097,-0.43443 v -0.0457 h 1.112749 v 0.0229 q 0,0.12957 0.04573,0.25151 0.05335,0.12195 0.152431,0.20579 0.09908,0.0838 0.228647,0.12194 0.129567,0.0305 0.259134,0.0305 0.137188,0 0.266755,-0.0381 0.137188,-0.0457 0.236268,-0.14481 0.09908,-0.0991 0.14481,-0.22865 0.04573,-0.13719 0.04573,-0.282 0,-0.12956 -0.03811,-0.25151 -0.03811,-0.12194 -0.114324,-0.22864 -0.06859,-0.10671 -0.175296,-0.18292 -0.09908,-0.0838 -0.221026,-0.12957 -0.121945,-0.0457 -0.251511,-0.0534 -0.129567,-0.008 -0.259134,-0.008 v -0.91459 q 0.175296,0 0.350593,-0.0305 0.175296,-0.0381 0.304862,-0.14481 0.137189,-0.11432 0.205783,-0.28199 0.07621,-0.16768 0.07621,-0.34297 0,-0.11433 -0.03811,-0.23627 -0.03049,-0.12195 -0.106702,-0.21341 -0.07622,-0.0915 -0.19054,-0.13719 -0.114323,-0.0457 -0.236268,-0.0457 -0.114324,0 -0.228647,0.0457 -0.114324,0.0381 -0.19054,0.12957 -0.07621,0.0838 -0.114323,0.19816 -0.03049,0.11433 -0.03049,0.23627 v 0.0229 h -1.112749 v -0.061 q 0,-0.20578 0.05335,-0.41156 0.05335,-0.21341 0.160053,-0.3887 0.114324,-0.18292 0.274377,-0.32011 0.167674,-0.13719 0.358214,-0.22102 0.19816,-0.0838 0.403943,-0.11433 0.213404,-0.0305 0.426808,-0.0305 0.213404,0 0.426808,0.0381 0.213404,0.0305 0.403943,0.12195 0.198162,0.0838 0.358212,0.22865 0.16768,0.14481 0.27438,0.32772 0.1067,0.18292 0.16005,0.39633 0.0534,0.20578 0.0534,0.41918 0,0.19054 -0.0457,0.38108 -0.0457,0.18292 -0.14481,0.35059 -0.0915,0.16006 -0.23627,0.29724 -0.13718,0.13719 -0.30486,0.22865 0.19054,0.0915 0.35059,0.22865 0.16768,0.13719 0.27438,0.3201 0.11432,0.1753 0.16767,0.38108 0.061,0.20578 0.061,0.41919 0,0.22102 -0.061,0.44205 -0.061,0.22103 -0.18291,0.41156 -0.11433,0.19054 -0.28962,0.34298 -0.1753,0.14481 -0.381081,0.23626 -0.205783,0.0838 -0.43443,0.11433 -0.221025,0.0381 -0.449672,0.0381 z"
             id="text68-2"
             style="font-weight:900;font-size:7.62157px;line-height:1;font-family:'Iosevka Sezimal QP';-inkscape-font-specification:'Iosevka Sezimal QP, Heavy';text-align:center;text-decoration-color:#d40000;text-anchor:middle;fill:#333333;stroke-width:0.571617"
             transform="rotate(75)"
             aria-label="0󱹮3" />
        <path
             d="m -61.029315,162.00183 q -0.228648,0 -0.457295,-0.0381 -0.228647,-0.0305 -0.442051,-0.12194 -0.205782,-0.0991 -0.381078,-0.25914 -0.167675,-0.16005 -0.281998,-0.35821 -0.106702,-0.19816 -0.152432,-0.42681 -0.04573,-0.22865 -0.04573,-0.45729 v -2.4008 q 0,-0.22864 0.04573,-0.45729 0.04573,-0.22865 0.152432,-0.42681 0.114323,-0.19816 0.281998,-0.35821 0.175296,-0.16006 0.381078,-0.25152 0.213404,-0.0991 0.442051,-0.12956 0.228647,-0.0381 0.457295,-0.0381 0.228647,0 0.457294,0.0381 0.228647,0.0305 0.434429,0.12956 0.213404,0.0915 0.381079,0.25152 0.175296,0.16005 0.281998,0.35821 0.114323,0.19816 0.160053,0.42681 0.04573,0.22865 0.04573,0.45729 v 2.4008 q 0,0.22864 -0.04573,0.45729 -0.04573,0.22865 -0.160053,0.42681 -0.106702,0.19816 -0.281998,0.35821 -0.167675,0.16006 -0.381079,0.25914 -0.205782,0.0915 -0.434429,0.12194 -0.228647,0.0381 -0.457294,0.0381 z m -0.647834,-2.85047 1.295667,-0.86124 v -0.35059 q 0,-0.13719 -0.03049,-0.27437 -0.03049,-0.14481 -0.121945,-0.25152 -0.08384,-0.11432 -0.221026,-0.16767 -0.137188,-0.0533 -0.274376,-0.0533 -0.137189,0 -0.274377,0.0533 -0.137188,0.0533 -0.228647,0.16767 -0.08384,0.10671 -0.114324,0.25152 -0.03049,0.13718 -0.03049,0.27437 z m 0.647834,1.93588 q 0.137188,0 0.274376,-0.0533 0.137188,-0.0534 0.221026,-0.16005 0.09146,-0.11433 0.121945,-0.25151 0.03049,-0.14481 0.03049,-0.282 v -1.21183 l -1.295667,0.86123 v 0.3506 q 0,0.13719 0.03049,0.282 0.03049,0.13718 0.114324,0.25151 0.09146,0.1067 0.228647,0.16005 0.137188,0.0533 0.274377,0.0533 z m 4.641539,2.21788 h -1.661502 q 0.19816,-0.82313 0.297241,-1.6615 0.09908,-0.83838 0.09908,-1.68437 h 0.868859 q 0,0.84599 0.09908,1.68437 0.09908,0.83837 0.297241,1.6615 z m 3.002896,-1.30329 q -0.221026,0 -0.442051,-0.0305 -0.221026,-0.0305 -0.426808,-0.1067 -0.198161,-0.0838 -0.381079,-0.2134 -0.175296,-0.13719 -0.304862,-0.32011 -0.121946,-0.18292 -0.182918,-0.39632 -0.06097,-0.2134 -0.06097,-0.43443 v -0.0457 h 1.11275 v 0.0229 q 0,0.12956 0.04573,0.25151 0.05335,0.12194 0.152431,0.20578 0.09908,0.0838 0.228647,0.12194 0.129567,0.0305 0.259134,0.0305 0.137188,0 0.266755,-0.0381 0.137188,-0.0457 0.236269,-0.14481 0.09908,-0.0991 0.144809,-0.22864 0.04573,-0.13719 0.04573,-0.282 0,-0.12957 -0.03811,-0.25151 -0.03811,-0.12195 -0.114324,-0.22865 -0.06859,-0.1067 -0.175296,-0.18292 -0.09908,-0.0838 -0.221025,-0.12957 -0.121945,-0.0457 -0.251512,-0.0533 -0.129567,-0.008 -0.259133,-0.008 v -0.91459 q 0.175296,0 0.350592,-0.0305 0.175296,-0.0381 0.304863,-0.14481 0.137188,-0.11433 0.205782,-0.282 0.07622,-0.16767 0.07622,-0.34297 0,-0.11432 -0.03811,-0.23627 -0.03049,-0.12194 -0.106702,-0.2134 -0.07622,-0.0915 -0.190539,-0.13719 -0.114324,-0.0457 -0.236269,-0.0457 -0.114324,0 -0.228647,0.0457 -0.114324,0.0381 -0.190539,0.12956 -0.07622,0.0838 -0.114324,0.19817 -0.03049,0.11432 -0.03049,0.23626 v 0.0229 h -1.11275 v -0.061 q 0,-0.20579 0.05335,-0.41157 0.05335,-0.2134 0.160053,-0.3887 0.114324,-0.18292 0.274377,-0.3201 0.167674,-0.13719 0.358214,-0.22103 0.198161,-0.0838 0.403943,-0.11432 0.213404,-0.0305 0.426808,-0.0305 0.213404,0 0.426808,0.0381 0.213404,0.0305 0.403943,0.12194 0.198161,0.0838 0.358214,0.22865 0.167674,0.14481 0.274376,0.32773 0.106702,0.18292 0.160053,0.39632 0.05335,0.20578 0.05335,0.41919 0,0.19054 -0.04573,0.38107 -0.04573,0.18292 -0.14481,0.3506 -0.09146,0.16005 -0.236269,0.29724 -0.137188,0.13719 -0.304862,0.22865 0.190539,0.0915 0.350592,0.22864 0.167674,0.13719 0.274376,0.32011 0.114324,0.17529 0.167675,0.38108 0.06097,0.20578 0.06097,0.41918 0,0.22103 -0.06097,0.44205 -0.06097,0.22103 -0.182918,0.41157 -0.114323,0.19054 -0.289619,0.34297 -0.175297,0.14481 -0.381079,0.23627 -0.205782,0.0838 -0.434429,0.11432 -0.221026,0.0381 -0.449673,0.0381 z m 4.572945,0 q -0.221026,0 -0.442052,-0.0305 -0.221025,-0.0305 -0.426807,-0.1067 -0.198161,-0.0838 -0.381079,-0.2134 -0.175296,-0.13719 -0.304863,-0.32011 -0.121945,-0.18292 -0.182917,-0.39632 -0.06097,-0.2134 -0.06097,-0.43443 v -0.0457 h 1.112749 v 0.0229 q 0,0.12956 0.04573,0.25151 0.05335,0.12194 0.152431,0.20578 0.09908,0.0838 0.228647,0.12194 0.129567,0.0305 0.259134,0.0305 0.137188,0 0.266754,-0.0381 0.137189,-0.0457 0.236269,-0.14481 0.09908,-0.0991 0.14481,-0.22864 0.04573,-0.13719 0.04573,-0.282 0,-0.12957 -0.03811,-0.25151 -0.03811,-0.12195 -0.114324,-0.22865 -0.06859,-0.1067 -0.175296,-0.18292 -0.09908,-0.0838 -0.221026,-0.12957 -0.121945,-0.0457 -0.251511,-0.0533 -0.129567,-0.008 -0.259134,-0.008 v -0.91459 q 0.175296,0 0.350592,-0.0305 0.175296,-0.0381 0.304863,-0.14481 0.137188,-0.11433 0.205783,-0.282 0.07621,-0.16767 0.07621,-0.34297 0,-0.11432 -0.03811,-0.23627 -0.03049,-0.12194 -0.106702,-0.2134 -0.07621,-0.0915 -0.190539,-0.13719 -0.114323,-0.0457 -0.236268,-0.0457 -0.114324,0 -0.228648,0.0457 -0.114323,0.0381 -0.190539,0.12956 -0.07622,0.0838 -0.114323,0.19817 -0.03049,0.11432 -0.03049,0.23626 v 0.0229 h -1.112749 v -0.061 q 0,-0.20579 0.05335,-0.41157 0.05335,-0.2134 0.160053,-0.3887 0.114324,-0.18292 0.274377,-0.3201 0.167674,-0.13719 0.358213,-0.22103 0.198161,-0.0838 0.403944,-0.11432 0.213404,-0.0305 0.426808,-0.0305 0.213403,0 0.426807,0.0381 0.213404,0.0305 0.403944,0.12194 0.19816,0.0838 0.358213,0.22865 0.167675,0.14481 0.274377,0.32773 0.106702,0.18292 0.160053,0.39632 0.05335,0.20578 0.05335,0.41919 0,0.19054 -0.04573,0.38107 -0.04573,0.18292 -0.14481,0.3506 -0.09146,0.16005 -0.236269,0.29724 -0.137188,0.13719 -0.304863,0.22865 0.190539,0.0915 0.350592,0.22864 0.167675,0.13719 0.274377,0.32011 0.114324,0.17529 0.167675,0.38108 0.06097,0.20578 0.06097,0.41918 0,0.22103 -0.06097,0.44205 -0.06097,0.22103 -0.182918,0.41157 -0.114324,0.19054 -0.28962,0.34297 -0.175296,0.14481 -0.381078,0.23627 -0.205783,0.0838 -0.43443,0.11432 -0.221025,0.0381 -0.449672,0.0381 z"
             id="text68-1"
             style="font-weight:900;font-size:7.62157px;line-height:1;font-family:'Iosevka Sezimal QP';-inkscape-font-specification:'Iosevka Sezimal QP, Heavy';text-align:center;text-decoration-color:#d40000;text-anchor:middle;fill:#333333;stroke-width:0.571617"
             transform="rotate(-75)"
             aria-label="0󱹮33" />
        <path
             d="m -3.4327548,176.69235 q -0.2286471,0 -0.4572942,-0.0381 -0.2286471,-0.0305 -0.4420511,-0.12194 -0.2057823,-0.0991 -0.3810785,-0.25914 -0.1676745,-0.16005 -0.2819981,-0.35821 -0.1067019,-0.19816 -0.1524314,-0.42681 -0.045729,-0.22864 -0.045729,-0.45729 v -2.4008 q 0,-0.22864 0.045729,-0.45729 0.04573,-0.22865 0.1524314,-0.42681 0.1143236,-0.19816 0.2819981,-0.35821 0.1752962,-0.16006 0.3810785,-0.25151 0.213404,-0.0991 0.4420511,-0.12957 0.2286471,-0.0381 0.4572942,-0.0381 0.2286471,0 0.4572942,0.0381 0.2286471,0.0305 0.4344295,0.12957 0.213404,0.0914 0.3810785,0.25151 0.1752961,0.16005 0.2819981,0.35821 0.1143236,0.19816 0.160053,0.42681 0.045729,0.22865 0.045729,0.45729 v 2.4008 q 0,0.22865 -0.045729,0.45729 -0.045729,0.22865 -0.160053,0.42681 -0.106702,0.19816 -0.2819981,0.35821 -0.1676745,0.16006 -0.3810785,0.25914 -0.2057824,0.0915 -0.4344295,0.12194 -0.2286471,0.0381 -0.4572942,0.0381 z m -0.6478334,-2.85047 1.2956669,-0.86123 v -0.3506 q 0,-0.13718 -0.030486,-0.27437 -0.030486,-0.14481 -0.1219451,-0.25151 -0.083837,-0.11433 -0.2210256,-0.16768 -0.1371882,-0.0533 -0.2743765,-0.0533 -0.1371882,0 -0.2743765,0.0533 -0.1371883,0.0533 -0.2286471,0.16768 -0.083837,0.1067 -0.1143236,0.25151 -0.030486,0.13719 -0.030486,0.27437 z m 0.6478334,1.93588 q 0.1371883,0 0.2743765,-0.0533 0.1371883,-0.0533 0.2210256,-0.16005 0.091459,-0.11433 0.1219451,-0.25151 0.030486,-0.14481 0.030486,-0.282 v -1.21183 l -1.2956669,0.86124 v 0.35059 q 0,0.13719 0.030486,0.282 0.030486,0.13718 0.1143236,0.25151 0.091459,0.1067 0.2286471,0.16005 0.1371883,0.0533 0.2743765,0.0533 z m 4.6415393,2.21788 h -1.66150231 q 0.19816082,-0.82313 0.29724123,-1.6615 0.09908041,-0.83838 0.09908041,-1.68437 h 0.86885899 q 0,0.84599 0.0990804,1.68437 0.0990804,0.83837 0.29724126,1.6615 z m 3.269651,-1.36426 v -1.32616 H 2.4892057 v -4.2757 h 1.1127492 v 3.36112 h 0.8764806 v -2.2941 h 1.1127492 v 4.53484 z"
             id="text68-9"
             style="font-weight:900;font-size:7.62157px;line-height:1;font-family:'Iosevka Sezimal QP';-inkscape-font-specification:'Iosevka Sezimal QP, Heavy';text-align:center;text-decoration-color:#d40000;text-anchor:middle;fill:#333333;stroke-width:0.571617"
             transform="rotate(-45)"
             aria-label="0󱹮4" />
        <path
             d="m 48.72643,162.03505 q -0.228648,0 -0.457295,-0.0381 -0.228647,-0.0305 -0.442051,-0.12195 -0.205782,-0.0991 -0.381078,-0.25913 -0.167675,-0.16005 -0.281998,-0.35821 -0.106702,-0.19816 -0.152432,-0.42681 -0.04573,-0.22865 -0.04573,-0.45729 v -2.4008 q 0,-0.22865 0.04573,-0.45729 0.04573,-0.22865 0.152432,-0.42681 0.114323,-0.19816 0.281998,-0.35821 0.175296,-0.16006 0.381078,-0.25152 0.213404,-0.0991 0.442051,-0.12956 0.228647,-0.0381 0.457295,-0.0381 0.228647,0 0.457294,0.0381 0.228647,0.0305 0.434429,0.12956 0.213404,0.0915 0.381079,0.25152 0.175296,0.16005 0.281998,0.35821 0.114323,0.19816 0.160053,0.42681 0.04573,0.22864 0.04573,0.45729 v 2.4008 q 0,0.22864 -0.04573,0.45729 -0.04573,0.22865 -0.160053,0.42681 -0.106702,0.19816 -0.281998,0.35821 -0.167675,0.16005 -0.381079,0.25913 -0.205782,0.0915 -0.434429,0.12195 -0.228647,0.0381 -0.457294,0.0381 z m -0.647834,-2.85047 1.295667,-0.86124 v -0.35059 q 0,-0.13719 -0.03049,-0.27438 -0.03049,-0.14481 -0.121945,-0.25151 -0.08384,-0.11432 -0.221026,-0.16767 -0.137188,-0.0533 -0.274376,-0.0533 -0.137189,0 -0.274377,0.0533 -0.137188,0.0533 -0.228647,0.16767 -0.08384,0.1067 -0.114324,0.25151 -0.03049,0.13719 -0.03049,0.27438 z m 0.647834,1.93588 q 0.137188,0 0.274376,-0.0533 0.137188,-0.0534 0.221026,-0.16005 0.09146,-0.11433 0.121945,-0.25152 0.03049,-0.14481 0.03049,-0.28199 v -1.21183 l -1.295667,0.86123 v 0.3506 q 0,0.13718 0.03049,0.28199 0.03049,0.13719 0.114324,0.25152 0.09146,0.1067 0.228647,0.16005 0.137188,0.0533 0.274377,0.0533 z m 4.641539,2.21788 h -1.661503 q 0.198161,-0.82313 0.297242,-1.66151 0.09908,-0.83837 0.09908,-1.68436 h 0.868859 q 0,0.84599 0.09908,1.68436 0.09908,0.83838 0.297241,1.66151 z m 3.269651,-1.36426 v -1.32616 h -1.98923 v -4.2757 h 1.112749 v 3.36111 h 0.876481 v -2.29409 h 1.112749 v 4.53484 z m 4.306189,0.061 q -0.221025,0 -0.442051,-0.0305 -0.221025,-0.0305 -0.426808,-0.1067 -0.19816,-0.0838 -0.381078,-0.2134 -0.175296,-0.13719 -0.304863,-0.32011 -0.121945,-0.18292 -0.182918,-0.39632 -0.06097,-0.21341 -0.06097,-0.43443 v -0.0457 h 1.112749 v 0.0229 q 0,0.12957 0.04573,0.25152 0.05335,0.12194 0.152431,0.20578 0.09908,0.0838 0.228647,0.12194 0.129567,0.0305 0.259133,0.0305 0.137189,0 0.266755,-0.0381 0.137189,-0.0457 0.236269,-0.14481 0.09908,-0.0991 0.14481,-0.22865 0.04573,-0.13718 0.04573,-0.28199 0,-0.12957 -0.03811,-0.25152 -0.03811,-0.12194 -0.114323,-0.22864 -0.06859,-0.1067 -0.175296,-0.18292 -0.09908,-0.0838 -0.221026,-0.12957 -0.121945,-0.0457 -0.251512,-0.0533 -0.129566,-0.008 -0.259133,-0.008 v -0.91459 q 0.175296,0 0.350592,-0.0305 0.175296,-0.0381 0.304863,-0.14481 0.137188,-0.11433 0.205783,-0.282 0.07622,-0.16768 0.07622,-0.34297 0,-0.11433 -0.03811,-0.23627 -0.03049,-0.12195 -0.106702,-0.21341 -0.07622,-0.0915 -0.190539,-0.13718 -0.114323,-0.0457 -0.236269,-0.0457 -0.114323,0 -0.228647,0.0457 -0.114323,0.0381 -0.190539,0.12956 -0.07622,0.0838 -0.114323,0.19816 -0.03049,0.11433 -0.03049,0.23627 v 0.0229 h -1.112749 v -0.061 q 0,-0.20578 0.05335,-0.41156 0.05335,-0.2134 0.160053,-0.3887 0.114324,-0.18292 0.274377,-0.32011 0.167674,-0.13718 0.358213,-0.22102 0.198161,-0.0838 0.403944,-0.11432 0.213403,-0.0305 0.426807,-0.0305 0.213404,0 0.426808,0.0381 0.213404,0.0305 0.403944,0.12194 0.19816,0.0838 0.358213,0.22865 0.167675,0.14481 0.274377,0.32773 0.106702,0.18291 0.160053,0.39632 0.05335,0.20578 0.05335,0.41918 0,0.19054 -0.04573,0.38108 -0.04573,0.18292 -0.144809,0.3506 -0.09146,0.16005 -0.236269,0.29724 -0.137188,0.13718 -0.304863,0.22864 0.190539,0.0915 0.350592,0.22865 0.167675,0.13719 0.274377,0.32011 0.114323,0.17529 0.167674,0.38107 0.06097,0.20579 0.06097,0.41919 0,0.22103 -0.06097,0.44205 -0.06097,0.22103 -0.182917,0.41157 -0.114324,0.19054 -0.28962,0.34297 -0.175296,0.14481 -0.381078,0.23627 -0.205783,0.0838 -0.43443,0.11432 -0.221025,0.0381 -0.449673,0.0381 z"
             id="text68-17"
             style="font-weight:900;font-size:7.62157px;line-height:1;font-family:'Iosevka Sezimal QP';-inkscape-font-specification:'Iosevka Sezimal QP, Heavy';text-align:center;text-decoration-color:#d40000;text-anchor:middle;fill:#333333;stroke-width:0.571617"
             transform="rotate(-15)"
             aria-label="0󱹮43" />
        <path
             d="m 91.58788,121.706 q -0.228647,0 -0.457294,-0.0381 -0.228647,-0.0305 -0.442051,-0.12194 -0.205783,-0.0991 -0.381079,-0.25914 -0.167674,-0.16005 -0.281998,-0.35821 -0.106702,-0.19816 -0.152431,-0.42681 -0.04573,-0.22865 -0.04573,-0.45729 v -2.4008 q 0,-0.22864 0.04573,-0.45729 0.04573,-0.22865 0.152431,-0.42681 0.114324,-0.19816 0.281998,-0.35821 0.175296,-0.16006 0.381079,-0.25151 0.213404,-0.0991 0.442051,-0.12957 0.228647,-0.0381 0.457294,-0.0381 0.228647,0 0.457294,0.0381 0.228647,0.0305 0.43443,0.12957 0.213404,0.0915 0.381078,0.25151 0.175296,0.16005 0.281998,0.35821 0.114324,0.19816 0.160053,0.42681 0.04573,0.22865 0.04573,0.45729 v 2.4008 q 0,0.22864 -0.04573,0.45729 -0.04573,0.22865 -0.160053,0.42681 -0.106702,0.19816 -0.281998,0.35821 -0.167674,0.16006 -0.381078,0.25914 -0.205783,0.0915 -0.43443,0.12194 -0.228647,0.0381 -0.457294,0.0381 z m -0.647834,-2.85047 1.295667,-0.86123 v -0.3506 q 0,-0.13719 -0.03049,-0.27437 -0.03049,-0.14481 -0.121945,-0.25152 -0.08384,-0.11432 -0.221026,-0.16767 -0.137188,-0.0534 -0.274376,-0.0534 -0.137188,0 -0.274377,0.0534 -0.137188,0.0533 -0.228647,0.16767 -0.08384,0.10671 -0.114323,0.25152 -0.03049,0.13718 -0.03049,0.27437 z m 0.647834,1.93588 q 0.137188,0 0.274376,-0.0533 0.137189,-0.0534 0.221026,-0.16005 0.09146,-0.11433 0.121945,-0.25151 0.03049,-0.14481 0.03049,-0.282 v -1.21183 l -1.295667,0.86124 v 0.35059 q 0,0.13719 0.03049,0.282 0.03049,0.13718 0.114323,0.25151 0.09146,0.1067 0.228647,0.16005 0.137189,0.0533 0.274377,0.0533 z m 4.641539,2.21788 h -1.661502 q 0.198161,-0.82313 0.297241,-1.6615 0.09908,-0.83838 0.09908,-1.68437 h 0.868859 q 0,0.84599 0.09908,1.68437 0.09908,0.83837 0.297241,1.6615 z m 3.002896,-1.30329 q -0.213404,0 -0.419186,-0.0305 -0.205783,-0.0305 -0.403943,-0.1067 -0.19054,-0.0762 -0.358214,-0.20578 -0.167675,-0.12957 -0.28962,-0.29724 -0.121945,-0.1753 -0.190539,-0.37346 -0.06097,-0.20578 -0.07622,-0.41156 h 1.120371 q 0.01524,0.1067 0.06097,0.2134 0.05335,0.0991 0.137188,0.16767 0.08384,0.0686 0.190539,0.0991 0.114324,0.0305 0.228647,0.0305 0.106702,0 0.205783,-0.0381 0.09908,-0.0381 0.175296,-0.1067 0.07622,-0.0762 0.121945,-0.16767 0.05335,-0.0991 0.07622,-0.19816 0.03049,-0.10671 0.03811,-0.21341 0.0076,-0.1067 0.0076,-0.2134 v -0.008 q 0,-0.0991 -0.0076,-0.20579 -0.0076,-0.1067 -0.03811,-0.20578 -0.02286,-0.0991 -0.06859,-0.19054 -0.03811,-0.0991 -0.114323,-0.17529 -0.06859,-0.0762 -0.167675,-0.11433 -0.09146,-0.0457 -0.198161,-0.0457 -0.09146,0 -0.190539,0.0153 -0.09146,0.0152 -0.175296,0.061 -0.08384,0.0381 -0.14481,0.12194 -0.06097,0.0762 -0.06097,0.1753 h -1.11275 v -3.23917 h 3.162956 v 0.91459 h -2.050206 v 1.09751 q 0.137188,-0.0305 0.281998,-0.0381 0.14481,-0.0152 0.289619,-0.0152 0.236269,0 0.472538,0.0457 0.236268,0.0457 0.442051,0.16767 0.2134,0.11432 0.36584,0.29724 0.16005,0.18292 0.25151,0.40395 0.0991,0.22102 0.13719,0.45729 0.0381,0.23627 0.0381,0.48016 0,0.23627 -0.0381,0.48016 -0.0381,0.23627 -0.13719,0.45729 -0.0991,0.22103 -0.26676,0.40394 -0.16005,0.18292 -0.37345,0.30487 -0.205787,0.11432 -0.449677,0.16005 -0.236269,0.0457 -0.472538,0.0457 z"
             id="text68-7"
             style="font-weight:900;font-size:7.62157px;line-height:1;font-family:'Iosevka Sezimal QP';-inkscape-font-specification:'Iosevka Sezimal QP, Heavy';text-align:center;text-decoration-color:#d40000;text-anchor:middle;fill:#333333;stroke-width:0.571617"
             transform="rotate(15)"
             aria-label="0󱹮5" />
        <path
             d="m 103.83195,66.729399 q -0.22865,0 -0.4573,-0.03811 -0.22864,-0.03049 -0.44205,-0.121945 -0.20578,-0.09908 -0.38108,-0.259133 -0.16767,-0.160053 -0.28199,-0.358214 -0.10671,-0.198161 -0.15244,-0.426808 -0.0457,-0.228647 -0.0457,-0.457294 v -2.400795 q 0,-0.228647 0.0457,-0.457294 0.0457,-0.228647 0.15244,-0.426808 0.11432,-0.198161 0.28199,-0.358214 0.1753,-0.160053 0.38108,-0.251512 0.21341,-0.09908 0.44205,-0.129566 0.22865,-0.03811 0.4573,-0.03811 0.22864,0 0.45729,0.03811 0.22865,0.03049 0.43443,0.129566 0.21341,0.09146 0.38108,0.251512 0.1753,0.160053 0.282,0.358214 0.11432,0.198161 0.16005,0.426808 0.0457,0.228647 0.0457,0.457294 v 2.400795 q 0,0.228647 -0.0457,0.457294 -0.0457,0.228647 -0.16005,0.426808 -0.1067,0.198161 -0.282,0.358214 -0.16767,0.160053 -0.38108,0.259133 -0.20578,0.09146 -0.43443,0.121945 -0.22865,0.03811 -0.45729,0.03811 z m -0.64784,-2.850467 1.29567,-0.861238 v -0.350592 q 0,-0.137188 -0.0305,-0.274376 -0.0305,-0.14481 -0.12195,-0.251512 -0.0838,-0.114324 -0.22103,-0.167675 -0.13718,-0.05335 -0.27437,-0.05335 -0.13719,0 -0.27438,0.05335 -0.13719,0.05335 -0.22865,0.167675 -0.0838,0.106702 -0.11432,0.251512 -0.0305,0.137188 -0.0305,0.274376 z m 0.64784,1.935879 q 0.13719,0 0.27437,-0.05335 0.13719,-0.05335 0.22103,-0.160053 0.0915,-0.114324 0.12195,-0.251512 0.0305,-0.14481 0.0305,-0.281998 v -1.21183 l -1.29567,0.861238 v 0.350592 q 0,0.137188 0.0305,0.281998 0.0305,0.137188 0.11432,0.251512 0.0915,0.106702 0.22865,0.160053 0.13719,0.05335 0.27438,0.05335 z m 4.64154,2.217877 h -1.66151 q 0.19817,-0.82313 0.29725,-1.661503 0.0991,-0.838372 0.0991,-1.684367 h 0.86886 q 0,0.845995 0.0991,1.684367 0.0991,0.838373 0.29724,1.661503 z m 3.00289,-1.303289 q -0.2134,0 -0.41918,-0.03049 -0.20579,-0.03049 -0.40395,-0.106702 -0.19054,-0.07622 -0.35821,-0.205783 -0.16767,-0.129566 -0.28962,-0.297241 -0.12195,-0.175296 -0.19054,-0.373457 -0.061,-0.205782 -0.0762,-0.411565 h 1.12037 q 0.0152,0.106702 0.061,0.213404 0.0533,0.09908 0.13719,0.167675 0.0838,0.06859 0.19054,0.09908 0.11432,0.03049 0.22864,0.03049 0.10671,0 0.20579,-0.03811 0.0991,-0.03811 0.17529,-0.106702 0.0762,-0.07622 0.12195,-0.167675 0.0533,-0.09908 0.0762,-0.198161 0.0305,-0.106702 0.0381,-0.213403 0.008,-0.106702 0.008,-0.213404 v -0.0076 q 0,-0.09908 -0.008,-0.205782 -0.008,-0.106702 -0.0381,-0.205783 -0.0229,-0.09908 -0.0686,-0.190539 -0.0381,-0.09908 -0.11433,-0.175296 -0.0686,-0.07622 -0.16767,-0.114324 -0.0915,-0.04573 -0.19816,-0.04573 -0.0915,0 -0.19054,0.01524 -0.0915,0.01524 -0.1753,0.06097 -0.0838,0.03811 -0.14481,0.121945 -0.061,0.07622 -0.061,0.175296 h -1.11275 v -3.239168 h 3.16295 v 0.914589 h -2.0502 v 1.097506 q 0.13719,-0.03049 0.282,-0.03811 0.14481,-0.01524 0.28962,-0.01524 0.23627,0 0.47254,0.04573 0.23627,0.04573 0.44205,0.167675 0.2134,0.114324 0.36583,0.297241 0.16006,0.182918 0.25152,0.403943 0.0991,0.221026 0.13718,0.457295 0.0381,0.236268 0.0381,0.480159 0,0.236268 -0.0381,0.480158 -0.0381,0.236269 -0.13718,0.457295 -0.0991,0.221025 -0.26676,0.403943 -0.16005,0.182918 -0.37346,0.304863 -0.20578,0.114323 -0.44967,0.160053 -0.23627,0.04573 -0.47254,0.04573 z m 4.57295,0 q -0.22103,0 -0.44205,-0.03049 -0.22103,-0.03049 -0.42681,-0.106702 -0.19816,-0.08384 -0.38108,-0.213404 -0.1753,-0.137188 -0.30486,-0.320106 -0.12195,-0.182918 -0.18292,-0.396322 -0.061,-0.213404 -0.061,-0.434429 v -0.04573 h 1.11275 v 0.02286 q 0,0.129567 0.0457,0.251512 0.0533,0.121945 0.15243,0.205782 0.0991,0.08384 0.22864,0.121945 0.12957,0.03049 0.25914,0.03049 0.13719,0 0.26675,-0.03811 0.13719,-0.04573 0.23627,-0.14481 0.0991,-0.09908 0.14481,-0.228647 0.0457,-0.137188 0.0457,-0.281998 0,-0.129567 -0.0381,-0.251512 -0.0381,-0.121945 -0.11432,-0.228647 -0.0686,-0.106702 -0.1753,-0.182918 -0.0991,-0.08384 -0.22102,-0.129567 -0.12195,-0.04573 -0.25151,-0.05335 -0.12957,-0.0076 -0.25914,-0.0076 v -0.914588 q 0.1753,0 0.35059,-0.03049 0.1753,-0.03811 0.30487,-0.14481 0.13719,-0.114323 0.20578,-0.281998 0.0762,-0.167674 0.0762,-0.34297 0,-0.114324 -0.0381,-0.236269 -0.0305,-0.121945 -0.1067,-0.213404 -0.0762,-0.09146 -0.19054,-0.137188 -0.11433,-0.04573 -0.23627,-0.04573 -0.11433,0 -0.22865,0.04573 -0.11432,0.03811 -0.19054,0.129566 -0.0762,0.08384 -0.11432,0.198161 -0.0305,0.114324 -0.0305,0.236269 v 0.02287 h -1.11275 v -0.06097 q 0,-0.205782 0.0533,-0.411565 0.0534,-0.213404 0.16006,-0.3887 0.11432,-0.182917 0.27437,-0.320106 0.16768,-0.137188 0.35822,-0.221025 0.19816,-0.08384 0.40394,-0.114324 0.2134,-0.03049 0.42681,-0.03049 0.2134,0 0.42681,0.03811 0.2134,0.03049 0.40394,0.121945 0.19816,0.08384 0.35821,0.228647 0.16768,0.14481 0.27438,0.327728 0.1067,0.182917 0.16005,0.396321 0.0534,0.205783 0.0534,0.419187 0,0.190539 -0.0457,0.381078 -0.0457,0.182918 -0.14481,0.350592 -0.0914,0.160053 -0.23626,0.297241 -0.13719,0.137189 -0.30487,0.228648 0.19054,0.09146 0.35059,0.228647 0.16768,0.137188 0.27438,0.320106 0.11432,0.175296 0.16768,0.381078 0.061,0.205783 0.061,0.419186 0,0.221026 -0.061,0.442052 -0.061,0.221025 -0.18292,0.411564 -0.11433,0.19054 -0.28962,0.342971 -0.1753,0.14481 -0.38108,0.236269 -0.20578,0.08384 -0.43443,0.114323 -0.22103,0.03811 -0.44967,0.03811 z"
             id="text68-5"
             style="font-weight:900;font-size:7.62157px;line-height:1;font-family:'Iosevka Sezimal QP';-inkscape-font-specification:'Iosevka Sezimal QP, Heavy';text-align:center;text-decoration-color:#d40000;text-anchor:middle;fill:#333333;stroke-width:0.571617"
             transform="rotate(45)"
             aria-label="0󱹮53" />
        <path
             d="m 93.921943,11.916843 v -0.914588 h 1.036534 V 8.50238 L 94.546912,9.4855625 93.754269,9.2188076 94.958477,6.3149894 h 1.105127 v 4.6872656 h 0.92221 v 0.914588 z"
             id="text68-12"
             style="font-weight:900;font-size:7.62157px;line-height:1;font-family:'Iosevka Sezimal QP';-inkscape-font-specification:'Iosevka Sezimal QP, Heavy';text-align:center;text-decoration-color:#d40000;text-anchor:middle;fill:#333333;stroke-width:0.571617"
             transform="rotate(75)"
             aria-label="1" />
        <path
             id="path72"
             style="fill:#ffffff;stroke-width:0.585487"
             d="M 90.738668,77.776009 A 12.962667,12.962667 0 0 1 77.776001,90.738676 12.962667,12.962667 0 0 1 64.813334,77.776009 12.962667,12.962667 0 0 1 77.776001,64.813341 12.962667,12.962667 0 0 1 90.738668,77.776009 Z" />
        <path
             d="m 70.559918,82.817657 v -1.646255 l 3.127887,-3.539451 q 0.192063,-0.219501 0.384126,-0.439001 0.192063,-0.219501 0.34297,-0.46644 0.150907,-0.246938 0.23322,-0.521314 0.08231,-0.288095 0.08231,-0.57619 0,-0.246938 -0.05488,-0.493876 -0.04116,-0.246939 -0.192063,-0.452721 -0.137188,-0.205782 -0.370408,-0.301813 -0.233219,-0.109751 -0.480158,-0.109751 -0.2195,0 -0.439001,0.06859 -0.205782,0.06859 -0.370408,0.23322 -0.150907,0.150907 -0.219501,0.370408 -0.06859,0.205781 -0.06859,0.425282 v 0.04116 h -2.002944 v -0.09603 q 0,-0.384126 0.09603,-0.754534 0.109751,-0.384126 0.315533,-0.699659 0.205782,-0.329251 0.507595,-0.576189 0.315533,-0.246939 0.672221,-0.397845 0.356689,-0.150907 0.740816,-0.205782 0.384126,-0.05488 0.768252,-0.05488 0.411564,0 0.80941,0.06859 0.411564,0.06859 0.781971,0.246939 0.370408,0.178344 0.672221,0.466439 0.301814,0.274376 0.493877,0.644784 0.192063,0.356688 0.260657,0.768252 0.08231,0.397845 0.08231,0.809409 0,0.439002 -0.10975,0.864285 -0.109751,0.425283 -0.329252,0.809409 -0.2195,0.384126 -0.507595,0.727096 -0.274376,0.329252 -0.562471,0.644784 l -0.02744,0.04116 h -0.01372 l -2.167571,2.455666 h 3.66292 v 1.646255 z m 11.290578,0.109751 q -0.411564,0 -0.823128,-0.06859 -0.411564,-0.05487 -0.795691,-0.219501 -0.370407,-0.178344 -0.68594,-0.466439 -0.301813,-0.288095 -0.507595,-0.644784 -0.192063,-0.356688 -0.274376,-0.768252 -0.08231,-0.411564 -0.08231,-0.823128 v -4.321422 q 0,-0.411564 0.08231,-0.823128 0.08231,-0.411564 0.274376,-0.768253 0.205782,-0.356689 0.507595,-0.644784 0.315533,-0.288094 0.68594,-0.45272 0.384127,-0.178344 0.795691,-0.23322 0.411564,-0.06859 0.823128,-0.06859 0.411564,0 0.823128,0.06859 0.411564,0.05488 0.781971,0.23322 0.384127,0.164626 0.68594,0.45272 0.315533,0.288095 0.507596,0.644784 0.205782,0.356689 0.288095,0.768253 0.08231,0.411564 0.08231,0.823128 v 4.321422 q 0,0.411564 -0.08231,0.823128 -0.08231,0.411564 -0.288095,0.768252 -0.192063,0.356689 -0.507596,0.644784 -0.301813,0.288095 -0.68594,0.466439 -0.370407,0.164626 -0.781971,0.219501 -0.411564,0.06859 -0.823128,0.06859 z m -1.166098,-5.130831 2.332196,-1.550225 v -0.631064 q 0,-0.246939 -0.05488,-0.493877 -0.05488,-0.260657 -0.2195,-0.45272 -0.150907,-0.205782 -0.397846,-0.301814 -0.246938,-0.09603 -0.493876,-0.09603 -0.246939,0 -0.493877,0.09603 -0.246939,0.09603 -0.411564,0.301814 -0.150907,0.192063 -0.205782,0.45272 -0.05487,0.246938 -0.05487,0.493877 z m 1.166098,3.484575 q 0.246938,0 0.493876,-0.09603 0.246939,-0.09603 0.397846,-0.288094 0.164625,-0.205782 0.2195,-0.452721 0.05488,-0.260657 0.05488,-0.507595 v -2.18129 l -2.332196,1.550225 v 0.631065 q 0,0.246938 0.05487,0.507595 0.05488,0.246939 0.205782,0.452721 0.164625,0.192063 0.411564,0.288094 0.246938,0.09603 0.493877,0.09603 z"
             id="text73"
             style="font-weight:900;font-size:13.7188px;line-height:1.5;font-family:'Iosevka Sezimal QP';-inkscape-font-specification:'Iosevka Sezimal QP, Heavy';text-align:center;text-decoration-color:#d40000;text-anchor:middle;stroke-width:0.571617"
             aria-label="20" />
    </g>
</svg>
