<?xml version="1.0" encoding="UTF-8" standalone="no"?>
<!-- Created with Inkscape (http://www.inkscape.org/) -->

<svg
     width="155.552mm"
     height="155.552mm"
     viewBox="0 0 155.552 155.552"
     version="1.1"
     id="svg1"
     inkscape:version="1.3.2 (091e20ef0f, 2023-11-25, custom)"
     sodipodi:docname="circle_fraction_10.svg"
     xmlns:inkscape="http://www.inkscape.org/namespaces/inkscape"
     xmlns:sodipodi="http://sodipodi.sourceforge.net/DTD/sodipodi-0.dtd"
     xmlns="http://www.w3.org/2000/svg"
     xmlns:svg="http://www.w3.org/2000/svg">
    <sodipodi:namedview
         id="namedview1"
         pagecolor="#ffffff"
         bordercolor="#000000"
         borderopacity="0.25"
         inkscape:showpageshadow="2"
         inkscape:pageopacity="0.0"
         inkscape:pagecheckerboard="0"
         inkscape:deskcolor="#d1d1d1"
         inkscape:document-units="mm"
         inkscape:zoom="0.68862935"
         inkscape:cx="396.43968"
         inkscape:cy="482.8432"
         inkscape:window-width="1920"
         inkscape:window-height="1014"
         inkscape:window-x="0"
         inkscape:window-y="0"
         inkscape:window-maximized="1"
         inkscape:current-layer="layer1" />
    <defs
         id="defs1" />
    <g
         inkscape:label="Camada 1"
         inkscape:groupmode="layer"
         id="layer1">
        <path
             id="ellipse10"
             style="fill:#80b3ff;stroke-width:2.13086"
             d="M 155.552,77.776001 A 77.776001,77.776001 0 0 1 77.776001,155.552 77.776001,77.776001 0 0 1 0,77.776001 77.776001,77.776001 0 0 1 77.776001,0 77.776001,77.776001 0 0 1 155.552,77.776001 Z" />
        <path
             id="path10"
             style="fill:#aaccff;stroke-width:2.13086"
             d="M 155.552,77.776001 A 77.776001,77.776001 0 0 1 116.664,145.132 L 77.776001,77.776001 Z" />
        <path
             id="path11"
             style="fill:#80b3ff;stroke-width:2.13086"
             d="m 116.664,145.132 a 77.776001,77.776001 0 0 1 -77.775999,-1e-5 l 38.888,-67.355989 z" />
        <path
             id="path12"
             style="fill:#aaccff;stroke-width:2.13086"
             d="M 38.888001,145.13199 A 77.776001,77.776001 0 0 1 0,77.776001 h 77.776001 z" />
        <path
             id="path13"
             style="fill:#80b3ff;stroke-width:2.13086"
             d="M 0,77.776001 A 77.776001,77.776001 0 0 1 38.888,10.420009 l 38.888001,67.355992 z" />
        <path
             id="ellipse13"
             style="fill:#aaccff;stroke-width:2.13086"
             d="m 38.888,10.420009 a 77.776001,77.776001 0 0 1 77.776,10e-7 L 77.776001,77.776001 Z" />
        <path
             id="path72-8"
             style="fill:#ffffff;stroke-width:0.585487"
             d="M 90.738668,77.776001 A 12.962667,12.962667 0 0 1 77.776001,90.738668 12.962667,12.962667 0 0 1 64.813334,77.776001 12.962667,12.962667 0 0 1 77.776001,64.813334 12.962667,12.962667 0 0 1 90.738668,77.776001 Z" />
        <path
             d="m 70.861755,82.81765 v -1.646256 h 1.865756 v -4.499766 l -0.740815,1.769725 -1.426755,-0.480158 2.16757,-5.226863 h 1.989226 v 8.437062 h 1.659975 v 1.646256 z m 10.988764,0.10975 q -0.411564,0 -0.823128,-0.06859 -0.411564,-0.05487 -0.795691,-0.219501 -0.370407,-0.178344 -0.68594,-0.466439 -0.301813,-0.288095 -0.507595,-0.644783 -0.192064,-0.356689 -0.274376,-0.768253 -0.08231,-0.411564 -0.08231,-0.823128 V 75.61528 q 0,-0.411564 0.08231,-0.823128 0.08231,-0.411564 0.274376,-0.768253 0.205782,-0.356688 0.507595,-0.644783 0.315533,-0.288095 0.68594,-0.452721 0.384127,-0.178344 0.795691,-0.233219 0.411564,-0.06859 0.823128,-0.06859 0.411564,0 0.823128,0.06859 0.411563,0.05488 0.781971,0.233219 0.384126,0.164626 0.68594,0.452721 0.315532,0.288095 0.507596,0.644783 0.205782,0.356689 0.288094,0.768253 0.08231,0.411564 0.08231,0.823128 v 4.321422 q 0,0.411564 -0.08231,0.823128 -0.08231,0.411564 -0.288094,0.768253 -0.192064,0.356688 -0.507596,0.644783 -0.301814,0.288095 -0.68594,0.466439 -0.370408,0.164626 -0.781971,0.219501 -0.411564,0.06859 -0.823128,0.06859 z m -1.166098,-5.130831 2.332195,-1.550224 V 75.61528 q 0,-0.246938 -0.05487,-0.493877 -0.05488,-0.260657 -0.219501,-0.45272 -0.150906,-0.205782 -0.397845,-0.301814 -0.246938,-0.09603 -0.493876,-0.09603 -0.246939,0 -0.493877,0.09603 -0.246939,0.09603 -0.411564,0.301814 -0.150907,0.192063 -0.205782,0.45272 -0.05487,0.246939 -0.05487,0.493877 z m 1.166098,3.484575 q 0.246938,0 0.493876,-0.09603 0.246939,-0.09603 0.397845,-0.288095 0.164626,-0.205782 0.219501,-0.45272 0.05487,-0.260658 0.05487,-0.507596 v -2.181289 l -2.332195,1.550224 v 0.631065 q 0,0.246938 0.05487,0.507596 0.05488,0.246938 0.205782,0.45272 0.164625,0.192063 0.411564,0.288095 0.246938,0.09603 0.493877,0.09603 z"
             id="text73-5"
             style="font-weight:900;font-size:13.7188px;line-height:1.5;font-family:'Iosevka Sezimal QP';-inkscape-font-specification:'Iosevka Sezimal QP, Heavy';text-align:center;text-decoration-color:#d40000;text-anchor:middle;stroke-width:0.571617"
             aria-label="10" />
        <path
             d="m -35.860891,48.557381 q -0.457293,0 -0.914586,-0.07621 -0.457293,-0.06097 -0.8841,-0.24389 -0.411563,-0.19816 -0.762155,-0.518265 -0.335348,-0.320106 -0.563994,-0.716426 -0.213404,-0.396321 -0.304862,-0.853614 -0.09146,-0.457293 -0.09146,-0.914586 v -4.801576 q 0,-0.457293 0.09146,-0.914586 0.09146,-0.457293 0.304862,-0.853614 0.228646,-0.396321 0.563994,-0.716426 0.350592,-0.320105 0.762155,-0.503022 0.426807,-0.19816 0.8841,-0.259133 0.457293,-0.07621 0.914586,-0.07621 0.457293,0 0.914586,0.07621 0.457293,0.06097 0.868857,0.259133 0.426807,0.182917 0.762155,0.503022 0.350591,0.320105 0.563995,0.716426 0.228646,0.396321 0.320105,0.853614 0.09146,0.457293 0.09146,0.914586 v 4.801576 q 0,0.457293 -0.09146,0.914586 -0.09146,0.457293 -0.320105,0.853614 -0.213404,0.39632 -0.563995,0.716426 -0.335348,0.320105 -0.762155,0.518265 -0.411564,0.182917 -0.868857,0.24389 -0.457293,0.07621 -0.914586,0.07621 z m -1.295663,-5.700919 2.591327,-1.722471 v -0.701182 q 0,-0.274376 -0.06097,-0.548752 -0.06097,-0.289619 -0.243889,-0.503022 -0.167675,-0.228647 -0.44205,-0.335348 -0.274376,-0.106702 -0.548752,-0.106702 -0.274376,0 -0.548752,0.106702 -0.274375,0.106701 -0.457293,0.335348 -0.167674,0.213403 -0.228646,0.503022 -0.06097,0.274376 -0.06097,0.548752 z m 1.295663,3.871747 q 0.274376,0 0.548752,-0.106702 0.274375,-0.106701 0.44205,-0.320105 0.182917,-0.228646 0.243889,-0.503022 0.06097,-0.289619 0.06097,-0.563995 v -2.423653 l -2.591327,1.722471 v 0.701182 q 0,0.274376 0.06097,0.563995 0.06097,0.274376 0.228646,0.503022 0.182918,0.213404 0.457293,0.320105 0.274376,0.106702 0.548752,0.106702 z m 9.283053,4.435742 h -3.322995 q 0.39632,-1.646255 0.594481,-3.322996 0.19816,-1.676741 0.19816,-3.368725 h 1.737713 q 0,1.691984 0.198161,3.368725 0.19816,1.676741 0.59448,3.322996 z m 2.896183,-2.728515 v -1.829172 h 2.073062 v -4.999737 l -0.823128,1.96636 -1.585282,-0.533508 2.40841,-5.807621 h 2.210249 v 9.374506 h 1.844415 v 1.829172 z"
             id="text68-8-8"
             style="font-weight:900;font-size:15.2431px;line-height:1;font-family:'Iosevka Sezimal QP';-inkscape-font-specification:'Iosevka Sezimal QP, Heavy';text-align:center;text-decoration-color:#d40000;text-anchor:middle;fill:#333333;stroke-width:0.571617"
             transform="rotate(-60)"
             aria-label="0󱹮1" />
        <path
             d="m 70.383086,20.089377 q -0.457293,0 -0.914586,-0.07622 -0.457293,-0.06097 -0.8841,-0.243889 -0.411564,-0.198161 -0.762155,-0.518266 -0.335348,-0.320105 -0.563995,-0.716425 -0.213403,-0.396321 -0.304862,-0.853614 -0.09146,-0.457293 -0.09146,-0.914586 v -4.801577 q 0,-0.457293 0.09146,-0.914586 0.09146,-0.457293 0.304862,-0.853613 0.228647,-0.3963208 0.563995,-0.7164259 0.350591,-0.3201051 0.762155,-0.5030223 0.426807,-0.1981603 0.8841,-0.2591327 0.457293,-0.076215 0.914586,-0.076215 0.457293,0 0.914586,0.076215 0.457293,0.060972 0.868856,0.2591327 0.426807,0.1829172 0.762155,0.5030223 0.350592,0.3201051 0.563995,0.7164259 0.228647,0.39632 0.320105,0.853613 0.09146,0.457293 0.09146,0.914586 v 4.801577 q 0,0.457293 -0.09146,0.914586 -0.09146,0.457293 -0.320105,0.853614 -0.213403,0.39632 -0.563995,0.716425 -0.335348,0.320105 -0.762155,0.518266 -0.411563,0.182917 -0.868856,0.243889 -0.457293,0.07622 -0.914586,0.07622 z m -1.295664,-5.70092 2.591327,-1.72247 v -0.701183 q 0,-0.274375 -0.06097,-0.548751 -0.06097,-0.289619 -0.24389,-0.503022 -0.167674,-0.228647 -0.44205,-0.335349 -0.274376,-0.106701 -0.548751,-0.106701 -0.274376,0 -0.548752,0.106701 -0.274376,0.106702 -0.457293,0.335349 -0.167674,0.213403 -0.228646,0.503022 -0.06097,0.274376 -0.06097,0.548751 z m 1.295664,3.871748 q 0.274375,0 0.548751,-0.106702 0.274376,-0.106702 0.44205,-0.320105 0.182917,-0.228647 0.24389,-0.503022 0.06097,-0.289619 0.06097,-0.563995 v -2.423653 l -2.591327,1.72247 v 0.701183 q 0,0.274376 0.06097,0.563995 0.06097,0.274375 0.228646,0.503022 0.182917,0.213403 0.457293,0.320105 0.274376,0.106702 0.548752,0.106702 z m 9.283053,4.435742 h -3.322996 q 0.396321,-1.646255 0.594481,-3.322996 0.19816,-1.676741 0.19816,-3.368725 h 1.737714 q 0,1.691984 0.19816,3.368725 0.19816,1.676741 0.594481,3.322996 z m 2.560835,-2.728515 V 18.13826 L 85.7024,14.20554 q 0.213404,-0.243889 0.426807,-0.487779 0.213404,-0.24389 0.381078,-0.518265 0.167674,-0.274376 0.259132,-0.579238 0.09146,-0.320105 0.09146,-0.64021 0,-0.274376 -0.06097,-0.548752 -0.04573,-0.274376 -0.213404,-0.503022 -0.152431,-0.228647 -0.411564,-0.335349 -0.259132,-0.121944 -0.533508,-0.121944 -0.24389,0 -0.487779,0.07621 -0.228647,0.07622 -0.411564,0.259133 -0.167674,0.167674 -0.24389,0.411564 -0.07621,0.228646 -0.07621,0.472536 v 0.04573 h -2.225493 v -0.106702 q 0,-0.426807 0.106702,-0.83837 0.121945,-0.426807 0.350591,-0.777398 0.228647,-0.3658348 0.563995,-0.6402106 0.350591,-0.2743758 0.746912,-0.4420499 0.396321,-0.1676741 0.823127,-0.2286465 0.426807,-0.060972 0.853614,-0.060972 0.457293,0 0.899343,0.076215 0.457293,0.076215 0.868857,0.2743758 0.411563,0.1981603 0.746912,0.5182654 0.335348,0.304862 0.548751,0.7164257 0.213404,0.396321 0.289619,0.853614 0.09146,0.44205 0.09146,0.899343 0,0.487779 -0.121945,0.960315 -0.121945,0.472536 -0.365835,0.899343 -0.243889,0.426807 -0.563994,0.807884 -0.304862,0.365834 -0.624967,0.716426 l -0.03049,0.04573 h -0.01524 l -2.40841,2.728515 h 4.069908 v 1.829172 z"
             id="text68-8-8-5"
             style="font-weight:900;font-size:15.2431px;line-height:1;font-family:'Iosevka Sezimal QP';-inkscape-font-specification:'Iosevka Sezimal QP, Heavy';text-align:center;text-decoration-color:#d40000;text-anchor:middle;fill:#333333;stroke-width:0.571617"
             aria-label="0󱹮2" />
        <path
             d="m 98.851134,-86.154613 q -0.457293,0 -0.914586,-0.07622 -0.457293,-0.06097 -0.8841,-0.243889 -0.411564,-0.198161 -0.762155,-0.518266 -0.335348,-0.320105 -0.563995,-0.716425 -0.213403,-0.396321 -0.304862,-0.853614 -0.09146,-0.457293 -0.09146,-0.914586 v -4.801577 q 0,-0.457293 0.09146,-0.914586 0.09146,-0.457293 0.304862,-0.853613 0.228647,-0.396321 0.563995,-0.716426 0.350591,-0.320105 0.762155,-0.503022 0.426807,-0.19816 0.8841,-0.259133 0.457293,-0.07622 0.914586,-0.07622 0.457293,0 0.914586,0.07622 0.45729,0.06097 0.86886,0.259133 0.4268,0.182917 0.76215,0.503022 0.35059,0.320105 0.564,0.716426 0.22864,0.39632 0.3201,0.853613 0.0915,0.457293 0.0915,0.914586 v 4.801577 q 0,0.457293 -0.0915,0.914586 -0.0915,0.457293 -0.3201,0.853614 -0.21341,0.39632 -0.564,0.716425 -0.33535,0.320105 -0.76215,0.518266 -0.41157,0.182917 -0.86886,0.243889 -0.457293,0.07622 -0.914586,0.07622 z m -1.295664,-5.70092 2.59133,-1.72247 v -0.701183 q 0,-0.274375 -0.061,-0.548751 -0.061,-0.289619 -0.243885,-0.503022 -0.167674,-0.228647 -0.44205,-0.335349 -0.274375,-0.106701 -0.548751,-0.106701 -0.274376,0 -0.548752,0.106701 -0.274376,0.106702 -0.457293,0.335349 -0.167674,0.213403 -0.228646,0.503022 -0.06097,0.274376 -0.06097,0.548751 z m 1.295664,3.871748 q 0.274376,0 0.548751,-0.106702 0.274376,-0.106702 0.44205,-0.320105 0.182915,-0.228646 0.243885,-0.503022 0.061,-0.289619 0.061,-0.563995 v -2.423653 l -2.59133,1.72247 v 0.701183 q 0,0.274376 0.06097,0.563995 0.06097,0.274376 0.228646,0.503022 0.182917,0.213403 0.457293,0.320105 0.274376,0.106702 0.548752,0.106702 z m 9.283056,4.435742 h -3.323 q 0.39632,-1.646255 0.59448,-3.322996 0.19816,-1.676741 0.19816,-3.368725 h 1.73772 q 0,1.691984 0.19816,3.368725 0.19816,1.676741 0.59448,3.322996 z m 6.00577,-2.60657 q -0.44205,0 -0.8841,-0.06097 -0.44205,-0.06097 -0.85361,-0.213403 -0.39632,-0.167674 -0.76216,-0.426807 -0.35059,-0.274376 -0.60972,-0.64021 -0.24389,-0.365834 -0.36583,-0.792641 -0.12195,-0.426807 -0.12195,-0.868857 v -0.09146 h 2.22549 v 0.04573 q 0,0.259133 0.0915,0.503022 0.1067,0.24389 0.30486,0.411564 0.19816,0.167674 0.4573,0.243889 0.25913,0.06097 0.51826,0.06097 0.27438,0 0.53351,-0.07622 0.27438,-0.09146 0.47254,-0.289619 0.19816,-0.19816 0.28962,-0.457293 0.0914,-0.274375 0.0914,-0.563994 0,-0.259133 -0.0762,-0.503023 -0.0762,-0.243889 -0.22865,-0.457293 -0.13719,-0.213403 -0.35059,-0.365834 -0.19816,-0.167674 -0.44205,-0.259133 -0.24389,-0.09146 -0.50302,-0.106701 -0.25913,-0.01524 -0.51827,-0.01524 v -1.829172 q 0.35059,0 0.70119,-0.06097 0.35059,-0.07622 0.60972,-0.289619 0.27438,-0.228646 0.41156,-0.563995 0.15243,-0.335348 0.15243,-0.685939 0,-0.228647 -0.0762,-0.472536 -0.061,-0.24389 -0.2134,-0.426807 -0.15244,-0.182917 -0.38108,-0.274376 -0.22865,-0.09146 -0.47254,-0.09146 -0.22864,0 -0.45729,0.09146 -0.22865,0.07622 -0.38108,0.259133 -0.15243,0.167674 -0.22864,0.396321 -0.061,0.228646 -0.061,0.472536 v 0.04573 h -2.22549 v -0.121945 q 0,-0.411564 0.1067,-0.823127 0.1067,-0.426807 0.32011,-0.777398 0.22864,-0.365835 0.54875,-0.640211 0.33535,-0.274375 0.71642,-0.442049 0.39632,-0.167675 0.80789,-0.228647 0.42681,-0.06097 0.85361,-0.06097 0.42681,0 0.85362,0.07622 0.4268,0.06097 0.80788,0.24389 0.39632,0.167674 0.71643,0.457293 0.33534,0.289619 0.54875,0.655453 0.2134,0.365834 0.3201,0.792641 0.1067,0.411564 0.1067,0.838371 0,0.381077 -0.0915,0.762155 -0.0915,0.365834 -0.28962,0.701182 -0.18292,0.320106 -0.47254,0.594481 -0.27438,0.274376 -0.60972,0.457293 0.38107,0.182918 0.70118,0.457293 0.33535,0.274376 0.54875,0.640211 0.22865,0.350591 0.33535,0.762155 0.12194,0.411563 0.12194,0.83837 0,0.44205 -0.12194,0.8841 -0.12195,0.44205 -0.36584,0.823127 -0.22864,0.381078 -0.57923,0.68594 -0.35059,0.289619 -0.76216,0.472536 -0.41156,0.167674 -0.86885,0.228646 -0.44205,0.07622 -0.89935,0.07622 z"
             id="text68-8-8-1"
             style="font-weight:900;font-size:15.2431px;line-height:1;font-family:'Iosevka Sezimal QP';-inkscape-font-specification:'Iosevka Sezimal QP, Heavy';text-align:center;text-decoration-color:#d40000;text-anchor:middle;fill:#333333;stroke-width:0.571617"
             transform="rotate(60)"
             aria-label="0󱹮3" />
        <path
             d="m -35.557144,174.42416 q -0.457293,0 -0.914586,-0.0762 -0.457293,-0.061 -0.8841,-0.24388 -0.411563,-0.19817 -0.762155,-0.51827 -0.335348,-0.32011 -0.563994,-0.71643 -0.213404,-0.39632 -0.304862,-0.85361 -0.09146,-0.45729 -0.09146,-0.91459 v -4.80157 q 0,-0.4573 0.09146,-0.91459 0.09146,-0.45729 0.304862,-0.85361 0.228646,-0.39632 0.563994,-0.71643 0.350592,-0.3201 0.762155,-0.50302 0.426807,-0.19816 0.8841,-0.25913 0.457293,-0.0762 0.914586,-0.0762 0.457293,0 0.914586,0.0762 0.457293,0.061 0.868857,0.25913 0.426807,0.18292 0.762155,0.50302 0.350591,0.32011 0.563995,0.71643 0.228646,0.39632 0.320105,0.85361 0.09146,0.45729 0.09146,0.91459 v 4.80157 q 0,0.4573 -0.09146,0.91459 -0.09146,0.45729 -0.320105,0.85361 -0.213404,0.39632 -0.563995,0.71643 -0.335348,0.3201 -0.762155,0.51827 -0.411564,0.18291 -0.868857,0.24388 -0.457293,0.0762 -0.914586,0.0762 z m -1.295663,-5.70092 2.591327,-1.72247 v -0.70118 q 0,-0.27438 -0.06097,-0.54875 -0.06097,-0.28962 -0.243889,-0.50303 -0.167674,-0.22864 -0.44205,-0.33534 -0.274376,-0.10671 -0.548752,-0.10671 -0.274376,0 -0.548751,0.10671 -0.274376,0.1067 -0.457293,0.33534 -0.167674,0.21341 -0.228647,0.50303 -0.06097,0.27437 -0.06097,0.54875 z m 1.295663,3.87175 q 0.274376,0 0.548752,-0.1067 0.274376,-0.10671 0.44205,-0.32011 0.182917,-0.22864 0.243889,-0.50302 0.06097,-0.28962 0.06097,-0.564 v -2.42365 l -2.591327,1.72247 v 0.70118 q 0,0.27438 0.06097,0.564 0.06097,0.27438 0.228647,0.50302 0.182917,0.2134 0.457293,0.32011 0.274375,0.1067 0.548751,0.1067 z m 9.283054,4.43574 h -3.322996 q 0.39632,-1.64625 0.594481,-3.323 0.19816,-1.67674 0.19816,-3.36872 h 1.737713 q 0,1.69198 0.198161,3.36872 0.19816,1.67675 0.594481,3.323 z m 6.539283,-2.72851 v -2.6523 h -3.978449 v -8.55138 h 2.225493 v 6.7222 h 1.752956 v -4.58817 h 2.225493 v 9.06965 z"
             id="text68-8-8-4"
             style="font-weight:900;font-size:15.2431px;line-height:1;font-family:'Iosevka Sezimal QP';-inkscape-font-specification:'Iosevka Sezimal QP, Heavy';text-align:center;text-decoration-color:#d40000;text-anchor:middle;fill:#333333;stroke-width:0.571617"
             transform="rotate(-60)"
             aria-label="0󱹮4" />
        <path
             d="m 70.433341,146.03112 q -0.457294,0 -0.914587,-0.0762 -0.457293,-0.061 -0.884099,-0.24389 -0.411564,-0.19816 -0.762155,-0.51827 -0.335349,-0.3201 -0.563995,-0.71642 -0.213403,-0.39632 -0.304862,-0.85362 -0.09146,-0.45729 -0.09146,-0.91458 v -4.80158 q 0,-0.45729 0.09146,-0.91458 0.09146,-0.4573 0.304862,-0.85362 0.228646,-0.39632 0.563995,-0.71642 0.350591,-0.32011 0.762155,-0.50303 0.426806,-0.19816 0.884099,-0.25913 0.457293,-0.0762 0.914587,-0.0762 0.457293,0 0.914586,0.0762 0.457293,0.061 0.868856,0.25913 0.426807,0.18292 0.762155,0.50303 0.350592,0.3201 0.563995,0.71642 0.228646,0.39632 0.320105,0.85362 0.09146,0.45729 0.09146,0.91458 v 4.80158 q 0,0.45729 -0.09146,0.91458 -0.09146,0.4573 -0.320105,0.85362 -0.213403,0.39632 -0.563995,0.71642 -0.335348,0.32011 -0.762155,0.51827 -0.411563,0.18292 -0.868856,0.24389 -0.457293,0.0762 -0.914586,0.0762 z m -1.295664,-5.70091 2.591327,-1.72248 v -0.70118 q 0,-0.27437 -0.06097,-0.54875 -0.06097,-0.28962 -0.24389,-0.50302 -0.167674,-0.22865 -0.44205,-0.33535 -0.274376,-0.1067 -0.548751,-0.1067 -0.274376,0 -0.548752,0.1067 -0.274376,0.1067 -0.457293,0.33535 -0.167674,0.2134 -0.228647,0.50302 -0.06097,0.27438 -0.06097,0.54875 z m 1.295664,3.87174 q 0.274375,0 0.548751,-0.1067 0.274376,-0.1067 0.44205,-0.3201 0.182917,-0.22865 0.24389,-0.50303 0.06097,-0.28962 0.06097,-0.56399 v -2.42365 l -2.591327,1.72247 v 0.70118 q 0,0.27437 0.06097,0.56399 0.06097,0.27438 0.228647,0.50303 0.182917,0.2134 0.457293,0.3201 0.274376,0.1067 0.548752,0.1067 z m 9.283053,4.43574 h -3.322996 q 0.396321,-1.64625 0.594481,-3.32299 0.19816,-1.67674 0.19816,-3.36873 h 1.737714 q 0,1.69199 0.19816,3.36873 0.19816,1.67674 0.594481,3.32299 z m 6.005775,-2.60657 q -0.426807,0 -0.83837,-0.061 -0.411564,-0.061 -0.807885,-0.2134 -0.381077,-0.15243 -0.716426,-0.41157 -0.335348,-0.25913 -0.579237,-0.59448 -0.24389,-0.35059 -0.381078,-0.74691 -0.121945,-0.41156 -0.152431,-0.82313 h 2.240736 q 0.03049,0.21341 0.121945,0.42681 0.106701,0.19816 0.274376,0.33535 0.167674,0.13719 0.381077,0.19816 0.228647,0.061 0.457293,0.061 0.213403,0 0.411564,-0.0762 0.19816,-0.0762 0.350591,-0.21341 0.152431,-0.15243 0.24389,-0.33534 0.106701,-0.19816 0.152431,-0.39633 0.06097,-0.2134 0.07622,-0.4268 0.01524,-0.21341 0.01524,-0.42681 v -0.0152 q 0,-0.19816 -0.01524,-0.41157 -0.01524,-0.2134 -0.07622,-0.41156 -0.04573,-0.19816 -0.137188,-0.38108 -0.07622,-0.19816 -0.228647,-0.35059 -0.137188,-0.15243 -0.335348,-0.22864 -0.182917,-0.0915 -0.396321,-0.0915 -0.182917,0 -0.381077,0.0305 -0.182917,0.0305 -0.350591,0.12195 -0.167674,0.0762 -0.289619,0.24389 -0.121945,0.15243 -0.121945,0.35059 h -2.225493 v -6.47832 h 6.325887 v 1.82917 h -4.100394 v 2.19501 q 0.274376,-0.061 0.563995,-0.0762 0.289619,-0.0305 0.579237,-0.0305 0.472537,0 0.945073,0.0915 0.472536,0.0915 0.884099,0.33534 0.426807,0.22865 0.731669,0.59449 0.320105,0.36583 0.503023,0.80788 0.19816,0.44205 0.274375,0.91459 0.07622,0.47253 0.07622,0.96031 0,0.47254 -0.07622,0.96032 -0.07622,0.47253 -0.274375,0.91458 -0.198161,0.44205 -0.533509,0.80789 -0.320105,0.36583 -0.746912,0.60972 -0.411564,0.22865 -0.899343,0.32011 -0.472536,0.0914 -0.945072,0.0914 z"
             id="text68-8-8-3"
             style="font-weight:900;font-size:15.2431px;line-height:1;font-family:'Iosevka Sezimal QP';-inkscape-font-specification:'Iosevka Sezimal QP, Heavy';text-align:center;text-decoration-color:#d40000;text-anchor:middle;fill:#333333;stroke-width:0.571617"
             aria-label="0󱹮5" />
        <path
             d="m 103.34783,40.666229 v -1.829172 h 2.07306 V 33.83732 l -0.82312,1.96636 -1.58529,-0.533508 2.40841,-5.807621 h 2.21025 v 9.374506 h 1.84442 v 1.829172 z"
             id="text68-8-8-6"
             style="font-weight:900;font-size:15.2431px;line-height:1;font-family:'Iosevka Sezimal QP';-inkscape-font-specification:'Iosevka Sezimal QP, Heavy';text-align:center;text-decoration-color:#d40000;text-anchor:middle;fill:#333333;stroke-width:0.571617"
             transform="rotate(60)"
             aria-label="1" />
    </g>
</svg>
