<?xml version="1.0" encoding="UTF-8" standalone="no"?>
<!-- Created with Inkscape (http://www.inkscape.org/) -->

<svg
     width="155.552mm"
     height="155.552mm"
     viewBox="0 0 155.552 155.552"
     version="1.1"
     id="svg1"
     inkscape:version="1.3.2 (091e20ef0f, 2023-11-25, custom)"
     sodipodi:docname="circle_fraction_04.svg"
     xmlns:inkscape="http://www.inkscape.org/namespaces/inkscape"
     xmlns:sodipodi="http://sodipodi.sourceforge.net/DTD/sodipodi-0.dtd"
     xmlns="http://www.w3.org/2000/svg"
     xmlns:svg="http://www.w3.org/2000/svg">
    <sodipodi:namedview
         id="namedview1"
         pagecolor="#ffffff"
         bordercolor="#000000"
         borderopacity="0.25"
         inkscape:showpageshadow="2"
         inkscape:pageopacity="0.0"
         inkscape:pagecheckerboard="0"
         inkscape:deskcolor="#d1d1d1"
         inkscape:document-units="mm"
         inkscape:zoom="0.68862935"
         inkscape:cx="396.43968"
         inkscape:cy="482.8432"
         inkscape:window-width="1920"
         inkscape:window-height="1014"
         inkscape:window-x="0"
         inkscape:window-y="0"
         inkscape:window-maximized="1"
         inkscape:current-layer="layer1" />
    <defs
         id="defs1" />
    <g
         inkscape:label="Camada 1"
         inkscape:groupmode="layer"
         id="layer1">
        <path
             id="ellipse4"
             style="fill:#ffdd55;stroke-width:2.13086"
             transform="rotate(-90)"
             d="M 7.6293945e-6,77.776001 A 77.776001,77.776001 0 0 1 -77.775993,155.552 77.776001,77.776001 0 0 1 -155.55199,77.776001 77.776001,77.776001 0 0 1 -77.775993,0 77.776001,77.776001 0 0 1 7.6293945e-6,77.776001 Z" />
        <path
             id="path4"
             style="fill:#ffeeaa;stroke-width:2.13086"
             transform="rotate(-90)"
             d="M 7.6293945e-6,77.776001 A 77.776001,77.776001 0 0 1 -77.775993,155.552 V 77.776001 Z" />
        <path
             id="path5"
             style="fill:#ffdd55;stroke-width:2.13086"
             transform="rotate(-90)"
             d="m -77.775993,155.552 a 77.776001,77.776001 0 0 1 -54.995937,-22.78006 77.776001,77.776001 0 0 1 -22.78006,-54.995939 h 77.775997 z" />
        <path
             id="ellipse5"
             style="fill:#ffeeaa;stroke-width:2.13086"
             transform="rotate(-90)"
             d="M -155.55199,77.776001 A 77.776001,77.776001 0 0 1 -77.775993,0 v 77.776001 z" />
        <path
             id="path72-8-5"
             style="fill:#ffffff;stroke-width:0.585487"
             d="M 90.73863,77.775932 A 12.962667,12.962667 0 0 1 77.775963,90.7386 12.962667,12.962667 0 0 1 64.813295,77.775932 12.962667,12.962667 0 0 1 77.775963,64.813265 12.962667,12.962667 0 0 1 90.73863,77.775932 Z" />
        <path
             d="M 78.564792,82.817581 V 80.43051 h -3.580607 v -7.696247 h 2.002945 v 6.049991 h 1.577662 v -4.129359 h 2.002944 v 8.162686 z"
             id="text73-5-7"
             style="font-weight:900;font-size:13.7188px;line-height:1.5;font-family:'Iosevka Sezimal QP';-inkscape-font-specification:'Iosevka Sezimal QP, Heavy';text-align:center;text-decoration-color:#d40000;text-anchor:middle;stroke-width:0.571617"
             aria-label="4" />
        <path
             d="m -12.255394,52.305241 q -0.457293,0 -0.914586,-0.07622 -0.457293,-0.06097 -0.8841,-0.24389 -0.411563,-0.19816 -0.762155,-0.518266 -0.335348,-0.320105 -0.563994,-0.716425 -0.213404,-0.396321 -0.304862,-0.853614 -0.09146,-0.457293 -0.09146,-0.914586 v -4.801576 q 0,-0.457293 0.09146,-0.914586 0.09146,-0.457293 0.304862,-0.853614 0.228646,-0.396321 0.563994,-0.716426 0.350592,-0.320105 0.762155,-0.503022 0.426807,-0.19816 0.8841,-0.259133 0.457293,-0.07622 0.914586,-0.07622 0.457293,0 0.914586,0.07622 0.457293,0.06097 0.868857,0.259133 0.426807,0.182917 0.7621549,0.503022 0.3505913,0.320105 0.5639947,0.716426 0.2286465,0.396321 0.3201051,0.853614 0.091459,0.457293 0.091459,0.914586 v 4.801576 q 0,0.457293 -0.091459,0.914586 -0.091459,0.457293 -0.3201051,0.853614 -0.2134034,0.39632 -0.5639947,0.716425 -0.3353479,0.320106 -0.7621549,0.518266 -0.411564,0.182917 -0.868857,0.24389 -0.457293,0.07622 -0.914586,0.07622 z m -1.295663,-5.700919 2.591327,-1.722471 v -0.701182 q 0,-0.274376 -0.06097,-0.548752 -0.06097,-0.289619 -0.243889,-0.503022 -0.167674,-0.228647 -0.44205,-0.335348 -0.274376,-0.106702 -0.548752,-0.106702 -0.274376,0 -0.548751,0.106702 -0.274376,0.106701 -0.457293,0.335348 -0.167675,0.213403 -0.228647,0.503022 -0.06097,0.274376 -0.06097,0.548752 z m 1.295663,3.871747 q 0.274376,0 0.548752,-0.106702 0.274376,-0.106701 0.44205,-0.320105 0.182917,-0.228646 0.243889,-0.503022 0.06097,-0.289619 0.06097,-0.563995 v -2.423653 l -2.591327,1.722471 v 0.701182 q 0,0.274376 0.06097,0.563995 0.06097,0.274376 0.228647,0.503022 0.182917,0.213404 0.457293,0.320105 0.274375,0.106702 0.548751,0.106702 z m 9.2830535,4.435742 h -3.3229958 q 0.3963206,-1.646255 0.5944809,-3.322996 0.1981603,-1.676741 0.1981603,-3.368725 h 1.7377134 q 0,1.691984 0.1981603,3.368725 0.1981603,1.676741 0.5944809,3.322996 z m 2.89618273,-2.728515 V 50.354124 H 1.9969038 v -4.999737 l -0.8231274,1.96636 -1.58528238,-0.533508 2.40840978,-5.807621 h 2.2102496 v 9.374506 h 1.8444151 v 1.829172 z M 12.179301,52.305241 q -0.44205,0 -0.8841,-0.06097 -0.44205,-0.06097 -0.853613,-0.213404 Q 10.045267,51.863191 9.6794326,51.604058 9.3288413,51.329683 9.0697086,50.963848 8.825819,50.598014 8.7038742,50.171207 8.5819294,49.7444 8.5819294,49.30235 v -0.09146 h 2.2254926 v 0.04573 q 0,0.259133 0.09146,0.503022 0.106701,0.24389 0.304862,0.411564 0.19816,0.167674 0.457293,0.24389 0.259132,0.06097 0.518265,0.06097 0.274376,0 0.533509,-0.07622 0.274375,-0.09146 0.472536,-0.289618 0.19816,-0.198161 0.289619,-0.457293 0.09146,-0.274376 0.09146,-0.563995 0,-0.259133 -0.07621,-0.503022 -0.07622,-0.24389 -0.228647,-0.457293 -0.137188,-0.213404 -0.350591,-0.365835 -0.19816,-0.167674 -0.44205,-0.259133 -0.24389,-0.09146 -0.503022,-0.106701 -0.259133,-0.01524 -0.518266,-0.01524 v -1.829172 q 0.350592,0 0.701183,-0.06097 0.350591,-0.07621 0.609724,-0.289619 0.274376,-0.228646 0.411564,-0.563994 0.152431,-0.335349 0.152431,-0.68594 0,-0.228646 -0.07622,-0.472536 -0.06097,-0.24389 -0.213403,-0.426807 -0.152431,-0.182917 -0.381078,-0.274376 -0.228646,-0.09146 -0.472536,-0.09146 -0.228646,0 -0.457293,0.09146 -0.228646,0.07622 -0.381077,0.259133 -0.152431,0.167674 -0.228647,0.396321 -0.06097,0.228646 -0.06097,0.472536 v 0.04573 H 8.825819 v -0.121945 q 0,-0.411563 0.1067017,-0.823127 0.1067017,-0.426807 0.3201051,-0.777398 0.2286465,-0.365835 0.5487516,-0.64021 0.3353486,-0.274376 0.7164256,-0.44205 0.396321,-0.167674 0.807884,-0.228647 0.426807,-0.06097 0.853614,-0.06097 0.426807,0 0.853614,0.07622 0.426806,0.06097 0.807884,0.24389 0.396321,0.167674 0.716426,0.457293 0.335348,0.289619 0.548751,0.655453 0.213404,0.365835 0.320105,0.792641 0.106702,0.411564 0.106702,0.838371 0,0.381077 -0.09146,0.762155 -0.09146,0.365834 -0.289618,0.701183 -0.182918,0.320105 -0.472537,0.59448 -0.274375,0.274376 -0.609724,0.457293 0.381078,0.182918 0.701183,0.457293 0.335348,0.274376 0.548752,0.640211 0.228646,0.350591 0.335348,0.762155 0.121945,0.411563 0.121945,0.83837 0,0.44205 -0.121945,0.8841 -0.121945,0.44205 -0.365835,0.823127 -0.228646,0.381078 -0.579237,0.68594 -0.350592,0.289619 -0.762155,0.472536 -0.411564,0.167674 -0.868857,0.228647 -0.44205,0.07622 -0.899343,0.07622 z"
             id="text68-8-8-5-9"
             style="font-weight:900;font-size:15.2431px;line-height:1;font-family:'Iosevka Sezimal QP';-inkscape-font-specification:'Iosevka Sezimal QP, Heavy';text-align:center;text-decoration-color:#d40000;text-anchor:middle;fill:#333333;stroke-width:0.571617"
             transform="rotate(-45)"
             aria-label="0󱹮13" />
        <path
             d="m 102.40077,-57.68666 q -0.45729,0 -0.91459,-0.07622 -0.45729,-0.06097 -0.8841,-0.243889 -0.41156,-0.198161 -0.76215,-0.518266 -0.335348,-0.320105 -0.563995,-0.716426 -0.213403,-0.39632 -0.304862,-0.853613 -0.09146,-0.457293 -0.09146,-0.914586 v -4.801577 q 0,-0.457293 0.09146,-0.914586 0.09146,-0.457293 0.304862,-0.853613 0.228647,-0.396321 0.563995,-0.716426 0.35059,-0.320105 0.76215,-0.503022 0.42681,-0.198161 0.8841,-0.259133 0.4573,-0.07622 0.91459,-0.07622 0.45729,0 0.91459,0.07622 0.45729,0.06097 0.86885,0.259133 0.42681,0.182917 0.76216,0.503022 0.35059,0.320105 0.56399,0.716426 0.22865,0.39632 0.32011,0.853613 0.0915,0.457293 0.0915,0.914586 v 4.801577 q 0,0.457293 -0.0915,0.914586 -0.0915,0.457293 -0.32011,0.853613 -0.2134,0.396321 -0.56399,0.716426 -0.33535,0.320105 -0.76216,0.518266 -0.41156,0.182917 -0.86885,0.243889 -0.4573,0.07622 -0.91459,0.07622 z m -1.29566,-5.70092 2.59132,-1.72247 v -0.701183 q 0,-0.274376 -0.061,-0.548751 -0.061,-0.289619 -0.24389,-0.503023 -0.16767,-0.228646 -0.44205,-0.335348 -0.27437,-0.106702 -0.54875,-0.106702 -0.27438,0 -0.54875,0.106702 -0.27438,0.106702 -0.45729,0.335348 -0.16768,0.213404 -0.22865,0.503023 -0.061,0.274375 -0.061,0.548751 z m 1.29566,3.871748 q 0.27438,0 0.54875,-0.106702 0.27438,-0.106702 0.44205,-0.320105 0.18292,-0.228647 0.24389,-0.503023 0.061,-0.289618 0.061,-0.563994 v -2.423653 l -2.59132,1.72247 v 0.701183 q 0,0.274376 0.061,0.563994 0.061,0.274376 0.22865,0.503023 0.18291,0.213403 0.45729,0.320105 0.27437,0.106702 0.54875,0.106702 z m 9.28305,4.435742 h -3.32299 q 0.39632,-1.646255 0.59448,-3.322996 0.19816,-1.676741 0.19816,-3.368725 h 1.73771 q 0,1.691984 0.19816,3.368725 0.19816,1.676741 0.59448,3.322996 z m 6.00578,-2.60657 q -0.44205,0 -0.8841,-0.06097 -0.44205,-0.06097 -0.85361,-0.213403 -0.39632,-0.167674 -0.76216,-0.426807 -0.35059,-0.274376 -0.60972,-0.64021 -0.24389,-0.365835 -0.36584,-0.792641 -0.12194,-0.426807 -0.12194,-0.868857 v -0.09146 h 2.22549 v 0.04573 q 0,0.259132 0.0915,0.503022 0.1067,0.243889 0.30486,0.411564 0.19816,0.167674 0.45729,0.243889 0.25914,0.06097 0.51827,0.06097 0.27437,0 0.53351,-0.07622 0.27437,-0.09146 0.47253,-0.289619 0.19816,-0.19816 0.28962,-0.457293 0.0915,-0.274376 0.0915,-0.563995 0,-0.259132 -0.0762,-0.503022 -0.0762,-0.243889 -0.22865,-0.457293 -0.13719,-0.213403 -0.35059,-0.365834 -0.19816,-0.167674 -0.44205,-0.259133 -0.24389,-0.09146 -0.50302,-0.106702 -0.25914,-0.01524 -0.51827,-0.01524 v -1.829172 q 0.35059,0 0.70118,-0.06097 0.35059,-0.07622 0.60973,-0.289619 0.27437,-0.228647 0.41156,-0.563995 0.15243,-0.335348 0.15243,-0.685939 0,-0.228647 -0.0762,-0.472536 -0.061,-0.24389 -0.21341,-0.426807 -0.15243,-0.182917 -0.38107,-0.274376 -0.22865,-0.09146 -0.47254,-0.09146 -0.22865,0 -0.45729,0.09146 -0.22865,0.07622 -0.38108,0.259133 -0.15243,0.167674 -0.22865,0.39632 -0.061,0.228647 -0.061,0.472536 v 0.04573 h -2.22549 v -0.121945 q 0,-0.411564 0.1067,-0.823127 0.1067,-0.426807 0.3201,-0.777399 0.22865,-0.365834 0.54876,-0.64021 0.33534,-0.274376 0.71642,-0.44205 0.39632,-0.167674 0.80789,-0.228646 0.4268,-0.06097 0.85361,-0.06097 0.42681,0 0.85361,0.07622 0.42681,0.06097 0.80789,0.243889 0.39632,0.167675 0.71642,0.457293 0.33535,0.289619 0.54875,0.655454 0.21341,0.365834 0.32011,0.792641 0.1067,0.411564 0.1067,0.838371 0,0.381077 -0.0915,0.762155 -0.0915,0.365834 -0.28962,0.701182 -0.18291,0.320105 -0.47253,0.594481 -0.27438,0.274376 -0.60973,0.457293 0.38108,0.182917 0.70119,0.457293 0.33534,0.274376 0.54875,0.64021 0.22864,0.350592 0.33535,0.762155 0.12194,0.411564 0.12194,0.838371 0,0.44205 -0.12194,0.8841 -0.12195,0.442049 -0.36584,0.823127 -0.22864,0.381077 -0.57924,0.685939 -0.35059,0.289619 -0.76215,0.472537 -0.41156,0.167674 -0.86886,0.228646 -0.44205,0.07622 -0.89934,0.07622 z"
             id="text68-8-8-5-8"
             style="font-weight:900;font-size:15.2431px;line-height:1;font-family:'Iosevka Sezimal QP';-inkscape-font-specification:'Iosevka Sezimal QP, Heavy';text-align:center;text-decoration-color:#d40000;text-anchor:middle;fill:#333333;stroke-width:0.571617"
             transform="rotate(45)"
             aria-label="0󱹮3" />
        <path
             d="m -12.886738,177.82286 q -0.457293,0 -0.914586,-0.0762 -0.457293,-0.061 -0.8841,-0.24389 -0.411563,-0.19816 -0.762155,-0.51826 -0.335348,-0.32011 -0.563994,-0.71643 -0.213404,-0.39632 -0.304862,-0.85361 -0.09146,-0.4573 -0.09146,-0.91459 v -4.80158 q 0,-0.45729 0.09146,-0.91458 0.09146,-0.45729 0.304862,-0.85361 0.228646,-0.39633 0.563994,-0.71643 0.350592,-0.32011 0.762155,-0.50302 0.426807,-0.19816 0.8841,-0.25914 0.457293,-0.0762 0.914586,-0.0762 0.457293,0 0.914586,0.0762 0.457293,0.061 0.868857,0.25914 0.426807,0.18291 0.762155,0.50302 0.3505913,0.3201 0.5639947,0.71643 0.2286465,0.39632 0.3201051,0.85361 0.091459,0.45729 0.091459,0.91458 v 4.80158 q 0,0.45729 -0.091459,0.91459 -0.091459,0.45729 -0.3201051,0.85361 -0.2134034,0.39632 -0.5639947,0.71643 -0.335348,0.3201 -0.762155,0.51826 -0.411564,0.18292 -0.868857,0.24389 -0.457293,0.0762 -0.914586,0.0762 z m -1.295663,-5.70092 2.591327,-1.72247 v -0.70119 q 0,-0.27437 -0.06097,-0.54875 -0.06097,-0.28962 -0.243889,-0.50302 -0.167674,-0.22865 -0.44205,-0.33535 -0.274376,-0.1067 -0.548752,-0.1067 -0.274375,0 -0.548751,0.1067 -0.274376,0.1067 -0.457293,0.33535 -0.167674,0.2134 -0.228647,0.50302 -0.06097,0.27438 -0.06097,0.54875 z m 1.295663,3.87175 q 0.274376,0 0.548752,-0.10671 0.274376,-0.1067 0.44205,-0.3201 0.182917,-0.22865 0.243889,-0.50302 0.06097,-0.28962 0.06097,-0.564 v -2.42365 l -2.591327,1.72247 v 0.70118 q 0,0.27438 0.06097,0.564 0.06097,0.27437 0.228647,0.50302 0.182917,0.2134 0.457293,0.3201 0.274376,0.10671 0.548751,0.10671 z m 9.2830537,4.43574 h -3.3229959 q 0.3963206,-1.64626 0.5944809,-3.323 0.1981603,-1.67674 0.1981603,-3.36872 h 1.7377134 q 0,1.69198 0.1981603,3.36872 0.1981603,1.67674 0.594481,3.323 z m 6.5392836,-2.72852 v -2.6523 h -3.9784491 v -8.55138 h 2.2254926 v 6.72221 h 1.7529565 v -4.58817 H 5.161092 v 9.06964 z m 8.6123577,0.12195 q -0.44205,0 -0.8841,-0.061 -0.442049,-0.061 -0.8536132,-0.2134 -0.3963206,-0.16767 -0.762155,-0.42681 -0.3505913,-0.27437 -0.609724,-0.64021 -0.2438896,-0.36583 -0.3658344,-0.79264 -0.1219448,-0.4268 -0.1219448,-0.86885 v -0.0915 h 2.2254924 v 0.0457 q 0,0.25913 0.09146,0.50302 0.106702,0.24389 0.304862,0.41156 0.19816,0.16768 0.457293,0.24389 0.259133,0.061 0.518265,0.061 0.274376,0 0.533509,-0.0762 0.274376,-0.0915 0.472536,-0.28962 0.19816,-0.19816 0.289619,-0.45729 0.09146,-0.27438 0.09146,-0.564 0,-0.25913 -0.07621,-0.50302 -0.07622,-0.24389 -0.228647,-0.45729 -0.137188,-0.21341 -0.350591,-0.36584 -0.19816,-0.16767 -0.44205,-0.25913 -0.243889,-0.0915 -0.503022,-0.1067 -0.259133,-0.0152 -0.518266,-0.0152 v -1.82918 q 0.350592,0 0.701183,-0.061 0.350591,-0.0762 0.609724,-0.28962 0.274376,-0.22864 0.411564,-0.56399 0.152431,-0.33535 0.152431,-0.68594 0,-0.22865 -0.07622,-0.47254 -0.06097,-0.24389 -0.213403,-0.4268 -0.152431,-0.18292 -0.381078,-0.27438 -0.228646,-0.0915 -0.472536,-0.0915 -0.228646,0 -0.457293,0.0915 -0.228646,0.0762 -0.381077,0.25913 -0.152431,0.16768 -0.228647,0.39632 -0.06097,0.22865 -0.06097,0.47254 v 0.0457 H 8.1944752 v -0.12195 q 0,-0.41156 0.1067017,-0.82312 0.1067017,-0.42681 0.3201051,-0.7774 0.2286465,-0.36584 0.5487516,-0.64021 0.3353482,-0.27438 0.7164257,-0.44205 0.3963207,-0.16768 0.8078847,-0.22865 0.426806,-0.061 0.853613,-0.061 0.426807,0 0.853614,0.0762 0.426807,0.061 0.807884,0.24389 0.396321,0.16768 0.716426,0.4573 0.335348,0.28962 0.548751,0.65545 0.213404,0.36583 0.320106,0.79264 0.106701,0.41157 0.106701,0.83837 0,0.38108 -0.09146,0.76216 -0.09146,0.36583 -0.289619,0.70118 -0.182917,0.3201 -0.472536,0.59448 -0.274376,0.27438 -0.609724,0.45729 0.381077,0.18292 0.701182,0.4573 0.335348,0.27437 0.548752,0.64021 0.228646,0.35059 0.335348,0.76215 0.121945,0.41157 0.121945,0.83837 0,0.44205 -0.121945,0.8841 -0.121945,0.44205 -0.365834,0.82313 -0.228647,0.38108 -0.579238,0.68594 -0.350591,0.28962 -0.762155,0.47254 -0.411564,0.16767 -0.868857,0.22864 -0.44205,0.0762 -0.899343,0.0762 z"
             id="text68-8-8-5-6"
             style="font-weight:900;font-size:15.2431px;line-height:1;font-family:'Iosevka Sezimal QP';-inkscape-font-specification:'Iosevka Sezimal QP, Heavy';text-align:center;text-decoration-color:#d40000;text-anchor:middle;fill:#333333;stroke-width:0.571617"
             transform="rotate(-45)"
             aria-label="0󱹮43" />
        <path
             d="m 107.23286,69.012253 v -1.829172 h 2.07307 v -4.999737 l -0.82313,1.96636 -1.58528,-0.533509 2.40841,-5.807621 h 2.21025 v 9.374507 h 1.84441 v 1.829172 z"
             id="text68-8-8-5-86"
             style="font-weight:900;font-size:15.2431px;line-height:1;font-family:'Iosevka Sezimal QP';-inkscape-font-specification:'Iosevka Sezimal QP, Heavy';text-align:center;text-decoration-color:#d40000;text-anchor:middle;fill:#333333;stroke-width:0.571617"
             transform="rotate(45)"
             aria-label="1" />
    </g>
</svg>
