<?xml version="1.0" encoding="UTF-8" standalone="no"?>
<!-- Created with Inkscape (http://www.inkscape.org/) -->

<svg
     width="155.552mm"
     height="155.552mm"
     viewBox="0 0 155.552 155.552"
     version="1.1"
     id="svg1"
     inkscape:version="1.3.2 (091e20ef0f, 2023-11-25, custom)"
     sodipodi:docname="circle_fraction_14.svg"
     xmlns:inkscape="http://www.inkscape.org/namespaces/inkscape"
     xmlns:sodipodi="http://sodipodi.sourceforge.net/DTD/sodipodi-0.dtd"
     xmlns="http://www.w3.org/2000/svg"
     xmlns:svg="http://www.w3.org/2000/svg">
    <sodipodi:namedview
         id="namedview1"
         pagecolor="#ffffff"
         bordercolor="#000000"
         borderopacity="0.25"
         inkscape:showpageshadow="2"
         inkscape:pageopacity="0.0"
         inkscape:pagecheckerboard="0"
         inkscape:deskcolor="#d1d1d1"
         inkscape:document-units="mm"
         inkscape:zoom="0.68862935"
         inkscape:cx="396.43968"
         inkscape:cy="482.8432"
         inkscape:window-width="1920"
         inkscape:window-height="1014"
         inkscape:window-x="0"
         inkscape:window-y="0"
         inkscape:window-maximized="1"
         inkscape:current-layer="layer1" />
    <defs
         id="defs1" />
    <g
         inkscape:label="Camada 1"
         inkscape:groupmode="layer"
         id="layer1">
        <path
             id="ellipse32"
             style="fill:#c6e9af;stroke-width:2.13086"
             transform="rotate(-108)"
             d="M -20.227463,49.935272 A 77.776016,77.775993 0 0 1 -98.003479,127.71127 77.776016,77.775993 0 0 1 -175.7795,49.935272 77.776016,77.775993 0 0 1 -98.003479,-27.840721 77.776016,77.775993 0 0 1 -20.227463,49.935272 Z" />
        <path
             id="path33"
             style="fill:#aade87;stroke-width:2.13086"
             transform="rotate(-108)"
             d="M -20.227463,49.935272 A 77.776016,77.775993 0 0 1 -35.08136,95.650854 L -98.003479,49.935272 Z" />
        <path
             id="path34"
             style="fill:#c6e9af;stroke-width:2.13086"
             transform="rotate(-108)"
             d="M -35.08136,95.650854 A 77.776016,77.775993 0 0 1 -73.969371,123.90464 L -98.003479,49.935272 Z" />
        <path
             id="path35"
             style="fill:#aade87;stroke-width:2.13086"
             transform="rotate(-108)"
             d="m -73.969371,123.90464 a 77.776016,77.775993 0 0 1 -48.068219,0 l 24.034111,-73.969368 z" />
        <path
             id="path36"
             style="fill:#c6e9af;stroke-width:2.13086"
             transform="rotate(-108)"
             d="M -122.03759,123.90464 A 77.776016,77.775993 0 0 1 -160.9256,95.650856 l 62.922121,-45.715584 z" />
        <path
             id="path37"
             style="fill:#aade87;stroke-width:2.13086"
             transform="rotate(-108)"
             d="m -160.9256,95.650856 a 77.776016,77.775993 0 0 1 -14.8539,-45.715584 h 77.776021 z" />
        <path
             id="path38"
             style="fill:#c6e9af;stroke-width:2.13086"
             transform="rotate(-108)"
             d="M -175.7795,49.935272 A 77.776016,77.775993 0 0 1 -160.9256,4.2196894 L -98.003479,49.935272 Z" />
        <path
             id="path39"
             style="fill:#aade87;stroke-width:2.13086"
             transform="rotate(-108)"
             d="m -160.9256,4.2196894 a 77.776016,77.775993 0 0 1 38.88801,-28.2537824 l 24.034111,73.969365 z" />
        <path
             id="path40"
             style="fill:#c6e9af;stroke-width:2.13086"
             transform="rotate(-108)"
             d="m -122.03759,-24.034093 a 77.776016,77.775993 0 0 1 48.068218,-1e-6 l -24.034107,73.969366 z" />
        <path
             id="path41"
             style="fill:#aade87;stroke-width:2.13086"
             transform="rotate(-108)"
             d="M -73.969372,-24.034094 A 77.776016,77.775993 0 0 1 -35.081359,4.2196918 L -98.003479,49.935272 Z" />
        <path
             d="m -58.349495,34.592974 q -0.228647,0 -0.457294,-0.03811 -0.228647,-0.03049 -0.442051,-0.121945 -0.205782,-0.09908 -0.381078,-0.259133 -0.167675,-0.160053 -0.281998,-0.358214 -0.106702,-0.198161 -0.152432,-0.426808 -0.04573,-0.228647 -0.04573,-0.457294 v -2.400795 q 0,-0.228647 0.04573,-0.457294 0.04573,-0.228647 0.152432,-0.426808 0.114323,-0.198161 0.281998,-0.358214 0.175296,-0.160053 0.381078,-0.251512 0.213404,-0.09908 0.442051,-0.129566 0.228647,-0.03811 0.457294,-0.03811 0.228648,0 0.457295,0.03811 0.228647,0.03049 0.434429,0.129566 0.213404,0.09146 0.381079,0.251512 0.175296,0.160053 0.281998,0.358214 0.114323,0.198161 0.160053,0.426808 0.04573,0.228647 0.04573,0.457294 v 2.400795 q 0,0.228647 -0.04573,0.457294 -0.04573,0.228647 -0.160053,0.426808 -0.106702,0.198161 -0.281998,0.358214 -0.167675,0.160053 -0.381079,0.259133 -0.205782,0.09146 -0.434429,0.121945 -0.228647,0.03811 -0.457295,0.03811 z m -0.647833,-2.850467 1.295667,-0.861238 v -0.350592 q 0,-0.137188 -0.03049,-0.274376 -0.03049,-0.14481 -0.121946,-0.251512 -0.08384,-0.114324 -0.221025,-0.167675 -0.137188,-0.05335 -0.274377,-0.05335 -0.137188,0 -0.274376,0.05335 -0.137188,0.05335 -0.228647,0.167675 -0.08384,0.106702 -0.114324,0.251512 -0.03049,0.137188 -0.03049,0.274376 z m 0.647833,1.935879 q 0.137189,0 0.274377,-0.05335 0.137188,-0.05335 0.221025,-0.160053 0.09146,-0.114324 0.121946,-0.251512 0.03049,-0.14481 0.03049,-0.281998 v -1.21183 l -1.295667,0.861238 v 0.350592 q 0,0.137188 0.03049,0.281998 0.03049,0.137188 0.114324,0.251512 0.09146,0.106702 0.228647,0.160053 0.137188,0.05335 0.274376,0.05335 z m 4.64154,2.217877 h -1.661503 q 0.198161,-0.82313 0.297242,-1.661503 0.09908,-0.838372 0.09908,-1.684367 h 0.868859 q 0,0.845995 0.09908,1.684367 0.09908,0.838373 0.297242,1.661503 z m 2.980031,-1.303289 q -0.228647,0 -0.457294,-0.03811 -0.228647,-0.03049 -0.442051,-0.121945 -0.205783,-0.09908 -0.381079,-0.259133 -0.167674,-0.160053 -0.281998,-0.358214 -0.106702,-0.198161 -0.152431,-0.426808 -0.04573,-0.228647 -0.04573,-0.457294 v -2.400795 q 0,-0.228647 0.04573,-0.457294 0.04573,-0.228647 0.152431,-0.426808 0.114324,-0.198161 0.281998,-0.358214 0.175296,-0.160053 0.381079,-0.251512 0.213404,-0.09908 0.442051,-0.129566 0.228647,-0.03811 0.457294,-0.03811 0.228647,0 0.457294,0.03811 0.228647,0.03049 0.43443,0.129566 0.213404,0.09146 0.381078,0.251512 0.175296,0.160053 0.281998,0.358214 0.114324,0.198161 0.160053,0.426808 0.04573,0.228647 0.04573,0.457294 v 2.400795 q 0,0.228647 -0.04573,0.457294 -0.04573,0.228647 -0.160053,0.426808 -0.106702,0.198161 -0.281998,0.358214 -0.167674,0.160053 -0.381078,0.259133 -0.205783,0.09146 -0.43443,0.121945 -0.228647,0.03811 -0.457294,0.03811 z m -0.647833,-2.850467 1.295666,-0.861238 v -0.350592 q 0,-0.137188 -0.03049,-0.274376 -0.03049,-0.14481 -0.121945,-0.251512 -0.08384,-0.114324 -0.221025,-0.167675 -0.137189,-0.05335 -0.274377,-0.05335 -0.137188,0 -0.274377,0.05335 -0.137188,0.05335 -0.228647,0.167675 -0.08384,0.106702 -0.114323,0.251512 -0.03049,0.137188 -0.03049,0.274376 z m 0.647833,1.935879 q 0.137188,0 0.274377,-0.05335 0.137188,-0.05335 0.221025,-0.160053 0.09146,-0.114324 0.121945,-0.251512 0.03049,-0.14481 0.03049,-0.281998 v -1.21183 l -1.295666,0.861238 v 0.350592 q 0,0.137188 0.03049,0.281998 0.03049,0.137188 0.114323,0.251512 0.09146,0.106702 0.228647,0.160053 0.137189,0.05335 0.274377,0.05335 z m 4.656782,2.217877 q 0.198161,-0.82313 0.297241,-1.661503 0.09908,-0.838372 0.09908,-1.684367 h 0.868859 q 0,0.845995 0.09908,1.684367 0.09908,0.838373 0.297241,1.661503 z m -0.167675,0 h -1.661502 q 0.198161,-0.82313 0.297241,-1.661503 0.09908,-0.838372 0.09908,-1.684367 h 0.868859 q 0,0.845995 0.09908,1.684367 0.09908,0.838373 0.297241,1.661503 z m 4.679647,-1.303289 q -0.221026,0 -0.442051,-0.03049 -0.221026,-0.03049 -0.426808,-0.106702 -0.198161,-0.08384 -0.381078,-0.213404 -0.175297,-0.137188 -0.304863,-0.320106 -0.121945,-0.182918 -0.182918,-0.396322 -0.06097,-0.213404 -0.06097,-0.434429 v -0.04573 h 1.11275 v 0.02287 q 0,0.129567 0.04573,0.251512 0.05335,0.121945 0.152432,0.205782 0.09908,0.08384 0.228647,0.121945 0.129566,0.03049 0.259133,0.03049 0.137188,0 0.266755,-0.03811 0.137188,-0.04573 0.236269,-0.14481 0.09908,-0.09908 0.144809,-0.228647 0.04573,-0.137188 0.04573,-0.281998 0,-0.129567 -0.03811,-0.251512 -0.03811,-0.121945 -0.114324,-0.228647 -0.06859,-0.106702 -0.175296,-0.182918 -0.09908,-0.08384 -0.221025,-0.129567 -0.121945,-0.04573 -0.251512,-0.05335 -0.129567,-0.0076 -0.259133,-0.0076 v -0.914589 q 0.175296,0 0.350592,-0.03049 0.175296,-0.03811 0.304863,-0.14481 0.137188,-0.114323 0.205782,-0.281998 0.07622,-0.167674 0.07622,-0.34297 0,-0.114324 -0.03811,-0.236269 -0.03049,-0.121945 -0.106702,-0.213404 -0.07622,-0.09146 -0.190539,-0.137188 -0.114324,-0.04573 -0.236269,-0.04573 -0.114324,0 -0.228647,0.04573 -0.114324,0.03811 -0.190539,0.129566 -0.07622,0.08384 -0.114324,0.198161 -0.03049,0.114324 -0.03049,0.236269 v 0.02286 h -1.112749 v -0.06097 q 0,-0.205782 0.05335,-0.411565 0.05335,-0.213404 0.160053,-0.3887 0.114323,-0.182917 0.274376,-0.320106 0.167675,-0.137188 0.358214,-0.221025 0.198161,-0.08384 0.403943,-0.114324 0.213404,-0.03049 0.426808,-0.03049 0.213404,0 0.426808,0.03811 0.213404,0.03049 0.403943,0.121945 0.198161,0.08384 0.358214,0.228647 0.167674,0.14481 0.274376,0.327727 0.106702,0.182918 0.160053,0.396322 0.05335,0.205783 0.05335,0.419186 0,0.19054 -0.04573,0.381079 -0.04573,0.182918 -0.14481,0.350592 -0.09146,0.160053 -0.236268,0.297241 -0.137189,0.137189 -0.304863,0.228648 0.190539,0.09146 0.350592,0.228647 0.167674,0.137188 0.274376,0.320106 0.114324,0.175296 0.167675,0.381078 0.06097,0.205783 0.06097,0.419186 0,0.221026 -0.06097,0.442052 -0.06097,0.221025 -0.182918,0.411564 -0.114323,0.19054 -0.289619,0.342971 -0.175296,0.14481 -0.381079,0.236269 -0.205782,0.08384 -0.434429,0.114323 -0.221026,0.03811 -0.449673,0.03811 z"
             id="text68-8-8-5-4"
             style="font-weight:900;font-size:7.62157px;line-height:1;font-family:'Iosevka Sezimal QP';-inkscape-font-specification:'Iosevka Sezimal QP, Heavy';text-align:center;text-decoration-color:#d40000;text-anchor:middle;fill:#333333;stroke-width:0.571617"
             transform="rotate(-72)"
             aria-label="0󱹮0󱹯3" />
        <path
             d="m 12.747912,45.22719 q -0.228648,0 -0.457295,-0.03811 -0.228647,-0.03049 -0.442051,-0.121946 -0.205782,-0.09908 -0.381078,-0.259133 -0.167675,-0.160053 -0.281998,-0.358214 -0.106702,-0.198161 -0.152432,-0.426808 -0.04573,-0.228647 -0.04573,-0.457294 v -2.400795 q 0,-0.228647 0.04573,-0.457294 0.04573,-0.228647 0.152432,-0.426808 0.114323,-0.19816 0.281998,-0.358213 0.175296,-0.160053 0.381078,-0.251512 0.213404,-0.09908 0.442051,-0.129567 0.228647,-0.03811 0.457295,-0.03811 0.228647,0 0.457294,0.03811 0.228647,0.03049 0.434429,0.129567 0.213404,0.09146 0.381079,0.251512 0.175296,0.160053 0.281998,0.358213 0.114323,0.198161 0.160053,0.426808 0.04573,0.228647 0.04573,0.457294 v 2.400795 q 0,0.228647 -0.04573,0.457294 -0.04573,0.228647 -0.160053,0.426808 -0.106702,0.198161 -0.281998,0.358214 -0.167675,0.160053 -0.381079,0.259133 -0.205782,0.09146 -0.434429,0.121946 -0.228647,0.03811 -0.457294,0.03811 z m -0.647834,-2.850467 1.295667,-0.861237 v -0.350593 q 0,-0.137188 -0.03049,-0.274376 -0.03049,-0.14481 -0.121945,-0.251512 -0.08384,-0.114323 -0.221026,-0.167674 -0.137188,-0.05335 -0.274376,-0.05335 -0.137189,0 -0.274377,0.05335 -0.137188,0.05335 -0.228647,0.167674 -0.08384,0.106702 -0.114324,0.251512 -0.03049,0.137188 -0.03049,0.274376 z m 0.647834,1.935879 q 0.137188,0 0.274376,-0.05335 0.137188,-0.05335 0.221026,-0.160053 0.09146,-0.114324 0.121945,-0.251512 0.03049,-0.14481 0.03049,-0.281998 v -1.21183 l -1.295667,0.861238 v 0.350592 q 0,0.137188 0.03049,0.281998 0.03049,0.137188 0.114324,0.251512 0.09146,0.106702 0.228647,0.160053 0.137188,0.05335 0.274377,0.05335 z m 4.656782,2.217877 q 0.198161,-0.82313 0.297241,-1.661502 0.09908,-0.838373 0.09908,-1.684367 h 0.868859 q 0,0.845994 0.09908,1.684367 0.09908,0.838372 0.297241,1.661502 z m -0.167675,0 h -1.661502 q 0.198161,-0.82313 0.297241,-1.661502 0.09908,-0.838373 0.09908,-1.684367 h 0.868859 q 0,0.845994 0.09908,1.684367 0.09908,0.838372 0.297241,1.661502 z m 3.124847,-1.364261 V 44.251629 H 21.3984 v -2.499875 l -0.411565,0.983183 -0.792643,-0.266755 1.204208,-2.903818 h 1.105127 v 4.687265 h 0.92221 v 0.914589 z"
             id="text68-8-8-5-4-1"
             style="font-weight:900;font-size:7.62157px;line-height:1;font-family:'Iosevka Sezimal QP';-inkscape-font-specification:'Iosevka Sezimal QP, Heavy';text-align:center;text-decoration-color:#d40000;text-anchor:middle;fill:#333333;stroke-width:0.571617"
             transform="rotate(-36.000001)"
             aria-label="0󱹯1" />
        <path
             d="m 69.571385,14.365488 q -0.228647,0 -0.457294,-0.03811 -0.228648,-0.03049 -0.442051,-0.121946 -0.205783,-0.09908 -0.381079,-0.259133 -0.167675,-0.160053 -0.281998,-0.358214 -0.106702,-0.198161 -0.152431,-0.426808 -0.04573,-0.228647 -0.04573,-0.457294 v -2.400794 q 0,-0.228648 0.04573,-0.4572947 0.04573,-0.2286471 0.152431,-0.4268079 0.114323,-0.1981608 0.281998,-0.3582138 0.175296,-0.160053 0.381079,-0.2515118 0.213403,-0.09908 0.442051,-0.1295667 0.228647,-0.038108 0.457294,-0.038108 0.228647,0 0.457294,0.038108 0.228647,0.030486 0.434429,0.1295667 0.213404,0.091459 0.381079,0.2515118 0.175296,0.160053 0.281998,0.3582138 0.114324,0.1981608 0.160053,0.4268079 0.04573,0.2286467 0.04573,0.4572947 v 2.400794 q 0,0.228647 -0.04573,0.457294 -0.04573,0.228647 -0.160053,0.426808 -0.106702,0.198161 -0.281998,0.358214 -0.167675,0.160053 -0.381079,0.259133 -0.205782,0.09146 -0.434429,0.121946 -0.228647,0.03811 -0.457294,0.03811 z m -0.647834,-2.850467 1.295667,-0.861237 v -0.350592 q 0,-0.137189 -0.03049,-0.274377 -0.03049,-0.1448098 -0.121945,-0.2515118 -0.08384,-0.1143236 -0.221026,-0.1676745 -0.137188,-0.053351 -0.274376,-0.053351 -0.137188,0 -0.274377,0.053351 -0.137188,0.053351 -0.228647,0.1676745 -0.08384,0.106702 -0.114323,0.2515118 -0.03049,0.137188 -0.03049,0.274377 z m 0.647834,1.935879 q 0.137188,0 0.274376,-0.05335 0.137189,-0.05335 0.221026,-0.160053 0.09146,-0.114324 0.121945,-0.251512 0.03049,-0.14481 0.03049,-0.281998 v -1.21183 l -1.295667,0.861238 v 0.350592 q 0,0.137188 0.03049,0.281998 0.03049,0.137188 0.114323,0.251512 0.09146,0.106702 0.228647,0.160053 0.137189,0.05335 0.274377,0.05335 z m 4.641539,2.217877 h -1.661502 q 0.198161,-0.82313 0.297241,-1.661502 0.09908,-0.838373 0.09908,-1.684367 h 0.868859 q 0,0.845994 0.09908,1.684367 0.09908,0.838372 0.297241,1.661502 z m 1.448096,-1.364261 v -0.914589 h 1.036533 v -2.499875 l -0.411564,0.983183 -0.792644,-0.266755 1.204208,-2.9038182 h 1.105128 v 4.6872652 h 0.92221 v 0.914589 z m 6.188717,1.364261 q 0.198161,-0.82313 0.297242,-1.661502 0.09908,-0.838373 0.09908,-1.684367 h 0.868859 q 0,0.845994 0.09908,1.684367 0.09908,0.838372 0.297242,1.661502 z m -0.167674,0 H 80.02056 q 0.198161,-0.82313 0.297242,-1.661502 0.09908,-0.838373 0.09908,-1.684367 h 0.868859 q 0,0.845994 0.09908,1.684367 0.09908,0.838372 0.297241,1.661502 z m 4.946401,-1.364261 V 12.978363 H 84.639235 V 8.7026618 h 1.112749 v 3.3611122 h 0.87648 V 9.7696816 h 1.11275 v 4.5348344 z"
             id="text68-8-8-5-4-5"
             style="font-weight:900;font-size:7.62157px;line-height:1;font-family:'Iosevka Sezimal QP';-inkscape-font-specification:'Iosevka Sezimal QP, Heavy';text-align:center;text-decoration-color:#d40000;text-anchor:middle;fill:#333333;stroke-width:0.571617"
             aria-label="0󱹮1󱹯4" />
        <path
             d="m 104.07998,-46.204 q -0.22864,0 -0.45729,-0.03811 -0.22865,-0.03049 -0.44205,-0.121945 -0.20578,-0.09908 -0.38108,-0.259133 -0.16767,-0.160053 -0.282,-0.358214 -0.1067,-0.198161 -0.15243,-0.426808 -0.0457,-0.228647 -0.0457,-0.457294 v -2.400795 q 0,-0.228647 0.0457,-0.457294 0.0457,-0.228647 0.15243,-0.426808 0.11433,-0.198161 0.282,-0.358214 0.1753,-0.160053 0.38108,-0.251512 0.2134,-0.09908 0.44205,-0.129566 0.22865,-0.03811 0.45729,-0.03811 0.22865,0 0.4573,0.03811 0.22865,0.03049 0.43443,0.129566 0.2134,0.09146 0.38108,0.251512 0.17529,0.160053 0.282,0.358214 0.11432,0.198161 0.16005,0.426808 0.0457,0.228647 0.0457,0.457294 v 2.400795 q 0,0.228647 -0.0457,0.457294 -0.0457,0.228647 -0.16005,0.426808 -0.10671,0.198161 -0.282,0.358214 -0.16768,0.160052 -0.38108,0.259133 -0.20578,0.09146 -0.43443,0.121945 -0.22865,0.03811 -0.4573,0.03811 z m -0.64783,-2.850467 1.29567,-0.861238 v -0.350592 q 0,-0.137188 -0.0305,-0.274377 -0.0305,-0.144809 -0.12194,-0.251511 -0.0838,-0.114324 -0.22103,-0.167675 -0.13719,-0.05335 -0.27438,-0.05335 -0.13718,0 -0.27437,0.05335 -0.13719,0.05335 -0.22865,0.167675 -0.0838,0.106702 -0.11432,0.251511 -0.0305,0.137189 -0.0305,0.274377 z m 0.64783,1.935878 q 0.13719,0 0.27438,-0.05335 0.13719,-0.05335 0.22103,-0.160053 0.0915,-0.114323 0.12194,-0.251511 0.0305,-0.14481 0.0305,-0.281998 v -1.21183 l -1.29567,0.861237 v 0.350593 q 0,0.137188 0.0305,0.281998 0.0305,0.137188 0.11432,0.251511 0.0915,0.106702 0.22865,0.160053 0.13719,0.05335 0.27437,0.05335 z m 4.65679,2.217877 q 0.19816,-0.823129 0.29724,-1.661502 0.0991,-0.838373 0.0991,-1.684367 h 0.86886 q 0,0.845994 0.0991,1.684367 0.0991,0.838373 0.29724,1.661502 z m -0.16768,0 h -1.6615 q 0.19816,-0.823129 0.29724,-1.661502 0.0991,-0.838373 0.0991,-1.684367 h 0.86886 q 0,0.845994 0.0991,1.684367 0.0991,0.838373 0.29724,1.661502 z m 2.95717,-1.364261 v -0.914588 l 1.73772,-1.966365 q 0.1067,-0.121945 0.21341,-0.24389 0.1067,-0.121946 0.19054,-0.259134 0.0838,-0.137188 0.12956,-0.289619 0.0457,-0.160053 0.0457,-0.320106 0,-0.137189 -0.0305,-0.274377 -0.0229,-0.137188 -0.10671,-0.251512 -0.0762,-0.114323 -0.20578,-0.167674 -0.12957,-0.06097 -0.26675,-0.06097 -0.12195,0 -0.24389,0.03811 -0.11433,0.03811 -0.20579,0.129567 -0.0838,0.08384 -0.12194,0.205782 -0.0381,0.114324 -0.0381,0.236269 v 0.02286 h -1.11275 v -0.05335 q 0,-0.213404 0.0533,-0.419186 0.061,-0.213404 0.1753,-0.3887 0.11432,-0.182918 0.282,-0.320106 0.17529,-0.137188 0.37345,-0.221025 0.19816,-0.08384 0.41157,-0.114324 0.2134,-0.03049 0.42681,-0.03049 0.22864,0 0.44967,0.03811 0.22865,0.03811 0.43443,0.137188 0.20578,0.09908 0.37346,0.259133 0.16767,0.152432 0.27437,0.358214 0.1067,0.198161 0.14481,0.426808 0.0457,0.221025 0.0457,0.449673 0,0.24389 -0.061,0.480158 -0.061,0.236269 -0.18292,0.449673 -0.12194,0.213404 -0.282,0.403943 -0.15243,0.182918 -0.31248,0.358214 l -0.0152,0.02287 h -0.008 l -1.2042,1.364261 h 2.03496 v 0.914588 z"
             id="text68-8-8-5-4-4"
             style="font-weight:900;font-size:7.62157px;line-height:1;font-family:'Iosevka Sezimal QP';-inkscape-font-specification:'Iosevka Sezimal QP, Heavy';text-align:center;text-decoration-color:#d40000;text-anchor:middle;fill:#333333;stroke-width:0.571617"
             transform="rotate(36.000001)"
             aria-label="0󱹯2" />
        <path
             d="m 94.162236,-113.3458 q -0.228647,0 -0.457294,-0.0381 -0.228647,-0.0305 -0.442051,-0.12195 -0.205783,-0.0991 -0.381079,-0.25913 -0.167674,-0.16006 -0.281998,-0.35822 -0.106702,-0.19816 -0.152431,-0.4268 -0.04573,-0.22865 -0.04573,-0.4573 v -2.40079 q 0,-0.22865 0.04573,-0.4573 0.04573,-0.22864 0.152431,-0.42681 0.114324,-0.19816 0.281998,-0.35821 0.175296,-0.16005 0.381079,-0.25151 0.213404,-0.0991 0.442051,-0.12957 0.228647,-0.0381 0.457294,-0.0381 0.228647,0 0.457294,0.0381 0.228647,0.0305 0.43443,0.12957 0.213404,0.0915 0.381078,0.25151 0.175296,0.16005 0.281998,0.35821 0.114324,0.19817 0.160053,0.42681 0.04573,0.22865 0.04573,0.4573 v 2.40079 q 0,0.22865 -0.04573,0.4573 -0.04573,0.22864 -0.160053,0.4268 -0.106702,0.19816 -0.281998,0.35822 -0.167674,0.16005 -0.381078,0.25913 -0.205783,0.0915 -0.43443,0.12195 -0.228647,0.0381 -0.457294,0.0381 z m -0.647834,-2.85046 1.295667,-0.86124 v -0.35059 q 0,-0.13719 -0.03049,-0.27438 -0.03049,-0.14481 -0.121945,-0.25151 -0.08384,-0.11432 -0.221026,-0.16768 -0.137188,-0.0534 -0.274376,-0.0534 -0.137188,0 -0.274377,0.0534 -0.137188,0.0534 -0.228647,0.16768 -0.08384,0.1067 -0.114323,0.25151 -0.03049,0.13719 -0.03049,0.27438 z m 0.647834,1.93588 q 0.137188,0 0.274376,-0.0534 0.137189,-0.0534 0.221026,-0.16005 0.09146,-0.11432 0.121945,-0.25151 0.03049,-0.14481 0.03049,-0.282 v -1.21183 l -1.295667,0.86124 v 0.35059 q 0,0.13719 0.03049,0.282 0.03049,0.13719 0.114323,0.25151 0.09146,0.1067 0.228647,0.16005 0.137189,0.0534 0.274377,0.0534 z m 4.641539,2.21787 h -1.661502 q 0.198161,-0.82313 0.297241,-1.6615 0.09908,-0.83837 0.09908,-1.68437 h 0.868859 q 0,0.846 0.09908,1.68437 0.09908,0.83837 0.297241,1.6615 z m 3.002895,-1.30329 q -0.22102,0 -0.44205,-0.0305 -0.22103,-0.0305 -0.42681,-0.1067 -0.19816,-0.0838 -0.38108,-0.21341 -0.17529,-0.13719 -0.30486,-0.3201 -0.12194,-0.18292 -0.18292,-0.39633 -0.061,-0.2134 -0.061,-0.43443 v -0.0457 h 1.11275 v 0.0229 q 0,0.12957 0.0457,0.25151 0.0533,0.12195 0.15243,0.20578 0.0991,0.0838 0.22865,0.12195 0.12956,0.0305 0.25913,0.0305 0.13719,0 0.26676,-0.0381 0.13718,-0.0457 0.23626,-0.14481 0.0991,-0.0991 0.14481,-0.22865 0.0457,-0.13719 0.0457,-0.282 0,-0.12956 -0.0381,-0.25151 -0.0381,-0.12194 -0.11433,-0.22865 -0.0686,-0.1067 -0.17529,-0.18291 -0.0991,-0.0838 -0.22103,-0.12957 -0.12194,-0.0457 -0.25151,-0.0534 -0.12957,-0.008 -0.25913,-0.008 v -0.91459 q 0.17529,0 0.35059,-0.0305 0.17529,-0.0381 0.30486,-0.14481 0.13719,-0.11432 0.20578,-0.282 0.0762,-0.16767 0.0762,-0.34297 0,-0.11432 -0.0381,-0.23627 -0.0305,-0.12194 -0.1067,-0.2134 -0.0762,-0.0915 -0.19054,-0.13719 -0.11432,-0.0457 -0.23627,-0.0457 -0.11432,0 -0.22865,0.0457 -0.11432,0.0381 -0.19054,0.12957 -0.0762,0.0838 -0.11432,0.19816 -0.0305,0.11432 -0.0305,0.23627 v 0.0229 h -1.11275 v -0.061 q 0,-0.20578 0.0533,-0.41156 0.0534,-0.21341 0.16005,-0.3887 0.11432,-0.18292 0.27438,-0.32011 0.16767,-0.13719 0.35821,-0.22103 0.19816,-0.0838 0.40394,-0.11432 0.21341,-0.0305 0.42681,-0.0305 0.21341,0 0.42681,0.0381 0.2134,0.0305 0.40394,0.12195 0.19816,0.0838 0.35822,0.22864 0.16767,0.14481 0.27437,0.32773 0.1067,0.18292 0.16006,0.39632 0.0533,0.20579 0.0533,0.41919 0,0.19054 -0.0457,0.38108 -0.0457,0.18292 -0.14481,0.35059 -0.0915,0.16005 -0.23627,0.29724 -0.13719,0.13719 -0.30486,0.22865 0.19054,0.0915 0.35059,0.22865 0.16767,0.13718 0.27437,0.3201 0.11433,0.1753 0.16768,0.38108 0.061,0.20578 0.061,0.41919 0,0.22102 -0.061,0.44205 -0.061,0.22102 -0.18292,0.41156 -0.11432,0.19054 -0.28962,0.34297 -0.17529,0.14481 -0.38108,0.23627 -0.20578,0.0838 -0.43443,0.11433 -0.22102,0.0381 -0.44967,0.0381 z"
             id="text68-8-8-5-4-0"
             style="font-weight:900;font-size:7.62157px;line-height:1;font-family:'Iosevka Sezimal QP';-inkscape-font-specification:'Iosevka Sezimal QP, Heavy';text-align:center;text-decoration-color:#d40000;text-anchor:middle;fill:#333333;stroke-width:0.571617"
             transform="rotate(72)"
             aria-label="0󱹮3" />
        <path
             d="m -54.435427,166.88837 q -0.228647,0 -0.457294,-0.0381 -0.228647,-0.0305 -0.442051,-0.12195 -0.205782,-0.0991 -0.381078,-0.25913 -0.167675,-0.16005 -0.281998,-0.35822 -0.106702,-0.19816 -0.152432,-0.4268 -0.04573,-0.22865 -0.04573,-0.4573 v -2.40079 q 0,-0.22865 0.04573,-0.4573 0.04573,-0.22864 0.152432,-0.4268 0.114323,-0.19816 0.281998,-0.35822 0.175296,-0.16005 0.381078,-0.25151 0.213404,-0.0991 0.442051,-0.12957 0.228647,-0.0381 0.457294,-0.0381 0.228648,0 0.457295,0.0381 0.228647,0.0305 0.434429,0.12957 0.213404,0.0915 0.381079,0.25151 0.175296,0.16006 0.281998,0.35822 0.114323,0.19816 0.160053,0.4268 0.04573,0.22865 0.04573,0.4573 v 2.40079 q 0,0.22865 -0.04573,0.4573 -0.04573,0.22864 -0.160053,0.4268 -0.106702,0.19817 -0.281998,0.35822 -0.167675,0.16005 -0.381079,0.25913 -0.205782,0.0915 -0.434429,0.12195 -0.228647,0.0381 -0.457295,0.0381 z m -0.647833,-2.85047 1.295667,-0.86124 v -0.35059 q 0,-0.13719 -0.03049,-0.27438 -0.03049,-0.14481 -0.121946,-0.25151 -0.08384,-0.11432 -0.221025,-0.16767 -0.137188,-0.0534 -0.274377,-0.0534 -0.137188,0 -0.274376,0.0534 -0.137188,0.0533 -0.228647,0.16767 -0.08384,0.1067 -0.114324,0.25151 -0.03049,0.13719 -0.03049,0.27438 z m 0.647833,1.93588 q 0.137189,0 0.274377,-0.0533 0.137188,-0.0534 0.221025,-0.16006 0.09146,-0.11432 0.121946,-0.25151 0.03049,-0.14481 0.03049,-0.282 v -1.21183 l -1.295667,0.86124 v 0.35059 q 0,0.13719 0.03049,0.282 0.03049,0.13719 0.114324,0.25151 0.09146,0.1067 0.228647,0.16006 0.137188,0.0533 0.274376,0.0533 z m 4.656783,2.21787 q 0.198161,-0.82313 0.297241,-1.6615 0.09908,-0.83837 0.09908,-1.68437 h 0.868859 q 0,0.846 0.09908,1.68437 0.09908,0.83837 0.297241,1.6615 z m -0.167675,0 h -1.661502 q 0.198161,-0.82313 0.297241,-1.6615 0.09908,-0.83837 0.09908,-1.68437 h 0.868859 q 0,0.846 0.09908,1.68437 0.09908,0.83837 0.297241,1.6615 z m 4.679647,-1.30328 q -0.221025,0 -0.442051,-0.0305 -0.221025,-0.0305 -0.426808,-0.1067 -0.19816,-0.0838 -0.381078,-0.21341 -0.175296,-0.13719 -0.304863,-0.3201 -0.121945,-0.18292 -0.182918,-0.39632 -0.06097,-0.21341 -0.06097,-0.43443 v -0.0457 h 1.112749 v 0.0229 q 0,0.12957 0.04573,0.25151 0.05335,0.12195 0.152432,0.20579 0.09908,0.0838 0.228647,0.12194 0.129567,0.0305 0.259133,0.0305 0.137189,0 0.266755,-0.0381 0.137189,-0.0457 0.236269,-0.14481 0.09908,-0.0991 0.14481,-0.22865 0.04573,-0.13719 0.04573,-0.282 0,-0.12956 -0.03811,-0.25151 -0.03811,-0.12194 -0.114323,-0.22865 -0.06859,-0.1067 -0.175296,-0.18291 -0.09908,-0.0838 -0.221026,-0.12957 -0.121945,-0.0457 -0.251512,-0.0533 -0.129566,-0.008 -0.259133,-0.008 v -0.91459 q 0.175296,0 0.350592,-0.0305 0.175296,-0.0381 0.304863,-0.14481 0.137188,-0.11432 0.205782,-0.28199 0.07622,-0.16768 0.07622,-0.34298 0,-0.11432 -0.03811,-0.23626 -0.03049,-0.12195 -0.106702,-0.21341 -0.07622,-0.0915 -0.190539,-0.13719 -0.114324,-0.0457 -0.236269,-0.0457 -0.114323,0 -0.228647,0.0457 -0.114323,0.0381 -0.190539,0.12957 -0.07622,0.0838 -0.114324,0.19816 -0.03049,0.11432 -0.03049,0.23627 v 0.0229 h -1.112749 v -0.061 q 0,-0.20578 0.05335,-0.41156 0.05335,-0.21341 0.160053,-0.3887 0.114323,-0.18292 0.274376,-0.32011 0.167675,-0.13719 0.358214,-0.22102 0.198161,-0.0838 0.403943,-0.11433 0.213404,-0.0305 0.426808,-0.0305 0.213404,0 0.426808,0.0381 0.213404,0.0305 0.403943,0.12195 0.198161,0.0838 0.358214,0.22865 0.167675,0.14481 0.274377,0.32772 0.106702,0.18292 0.160053,0.39633 0.05335,0.20578 0.05335,0.41918 0,0.19054 -0.04573,0.38108 -0.04573,0.18292 -0.144809,0.35059 -0.09146,0.16006 -0.236269,0.29724 -0.137188,0.13719 -0.304863,0.22865 0.190539,0.0915 0.350592,0.22865 0.167675,0.13719 0.274377,0.3201 0.114323,0.1753 0.167674,0.38108 0.06097,0.20578 0.06097,0.41919 0,0.22102 -0.06097,0.44205 -0.06097,0.22103 -0.182917,0.41156 -0.114324,0.19054 -0.28962,0.34298 -0.175296,0.1448 -0.381079,0.23626 -0.205782,0.0838 -0.434429,0.11433 -0.221026,0.0381 -0.449673,0.0381 z"
             id="text68-8-8-5-4-7"
             style="font-weight:900;font-size:7.62157px;line-height:1;font-family:'Iosevka Sezimal QP';-inkscape-font-specification:'Iosevka Sezimal QP, Heavy';text-align:center;text-decoration-color:#d40000;text-anchor:middle;fill:#333333;stroke-width:0.571617"
             transform="rotate(-72)"
             aria-label="0󱹯3" />
        <path
             d="m 8.9012684,177.50838 q -0.2286471,0 -0.4572942,-0.0381 -0.2286471,-0.0305 -0.4420511,-0.12195 -0.2057824,-0.0991 -0.3810785,-0.25913 -0.1676746,-0.16005 -0.2819981,-0.35821 -0.106702,-0.19817 -0.1524314,-0.42681 -0.045729,-0.22865 -0.045729,-0.4573 v -2.40079 q 0,-0.22865 0.045729,-0.4573 0.045729,-0.22864 0.1524314,-0.4268 0.1143235,-0.19816 0.2819981,-0.35822 0.1752961,-0.16005 0.3810785,-0.25151 0.213404,-0.0991 0.4420511,-0.12957 0.2286471,-0.0381 0.4572942,-0.0381 0.2286471,0 0.4572942,0.0381 0.2286471,0.0305 0.4344295,0.12957 0.2134039,0.0915 0.3810789,0.25151 0.175296,0.16006 0.281998,0.35822 0.114323,0.19816 0.160053,0.4268 0.04573,0.22865 0.04573,0.4573 v 2.40079 q 0,0.22865 -0.04573,0.4573 -0.04573,0.22864 -0.160053,0.42681 -0.106702,0.19816 -0.281998,0.35821 -0.167675,0.16005 -0.3810789,0.25913 -0.2057824,0.0915 -0.4344295,0.12195 -0.2286471,0.0381 -0.4572942,0.0381 z m -0.6478335,-2.85047 1.2956669,-0.86124 v -0.35059 q 0,-0.13719 -0.030486,-0.27438 -0.030486,-0.14481 -0.1219451,-0.25151 -0.083837,-0.11432 -0.2210255,-0.16767 -0.1371883,-0.0534 -0.2743765,-0.0534 -0.1371883,0 -0.2743766,0.0534 -0.1371882,0.0533 -0.2286471,0.16767 -0.083837,0.1067 -0.1143235,0.25151 -0.030486,0.13719 -0.030486,0.27438 z m 0.6478335,1.93588 q 0.1371882,0 0.2743765,-0.0534 0.1371883,-0.0533 0.2210255,-0.16006 0.091459,-0.11432 0.1219451,-0.25151 0.030486,-0.14481 0.030486,-0.282 v -1.21183 l -1.2956669,0.86124 v 0.35059 q 0,0.13719 0.030486,0.282 0.030486,0.13719 0.1143235,0.25151 0.091459,0.10671 0.2286471,0.16006 0.1371883,0.0534 0.2743766,0.0534 z m 4.6415396,2.21787 h -1.661503 q 0.198161,-0.82313 0.297242,-1.6615 0.09908,-0.83837 0.09908,-1.68437 h 0.868859 q 0,0.846 0.09908,1.68437 0.09908,0.83837 0.297242,1.6615 z m 3.269651,-1.36426 v -1.32615 h -1.98923 v -4.2757 h 1.112749 v 3.36111 h 0.876481 v -2.29409 h 1.112749 v 4.53483 z m 4.367162,1.36426 q 0.198161,-0.82313 0.297241,-1.6615 0.09908,-0.83837 0.09908,-1.68437 h 0.868859 q 0,0.846 0.09908,1.68437 0.09908,0.83837 0.297241,1.6615 z m -0.167675,0 h -1.661502 q 0.198161,-0.82313 0.297241,-1.6615 0.09908,-0.83837 0.09908,-1.68437 h 0.868859 q 0,0.846 0.09908,1.68437 0.09908,0.83837 0.297241,1.6615 z m 3.124847,-1.36426 v -0.91459 h 1.036533 v -2.49987 l -0.411565,0.98318 -0.792643,-0.26675 1.204208,-2.90382 h 1.105128 v 4.68726 h 0.92221 v 0.91459 z"
             id="text68-8-8-5-4-9"
             style="font-weight:900;font-size:7.62157px;line-height:1;font-family:'Iosevka Sezimal QP';-inkscape-font-specification:'Iosevka Sezimal QP, Heavy';text-align:center;text-decoration-color:#d40000;text-anchor:middle;fill:#333333;stroke-width:0.571617"
             transform="rotate(-36.000001)"
             aria-label="0󱹮4󱹯1" />
        <path
             d="m 73.51515,146.69848 q -0.228647,0 -0.457294,-0.0381 -0.228647,-0.0305 -0.442051,-0.12195 -0.205782,-0.0991 -0.381079,-0.25913 -0.167674,-0.16005 -0.281998,-0.35822 -0.106702,-0.19816 -0.152431,-0.4268 -0.04573,-0.22865 -0.04573,-0.4573 v -2.40079 q 0,-0.22865 0.04573,-0.4573 0.04573,-0.22864 0.152431,-0.4268 0.114324,-0.19817 0.281998,-0.35822 0.175297,-0.16005 0.381079,-0.25151 0.213404,-0.0991 0.442051,-0.12957 0.228647,-0.0381 0.457294,-0.0381 0.228647,0 0.457294,0.0381 0.228648,0.0305 0.43443,0.12957 0.213404,0.0915 0.381078,0.25151 0.175297,0.16005 0.281998,0.35822 0.114324,0.19816 0.160053,0.4268 0.04573,0.22865 0.04573,0.4573 v 2.40079 q 0,0.22865 -0.04573,0.4573 -0.04573,0.22864 -0.160053,0.4268 -0.106701,0.19817 -0.281998,0.35822 -0.167674,0.16005 -0.381078,0.25913 -0.205782,0.0915 -0.43443,0.12195 -0.228647,0.0381 -0.457294,0.0381 z m -0.647833,-2.85046 1.295667,-0.86124 v -0.35059 q 0,-0.13719 -0.03049,-0.27438 -0.03049,-0.14481 -0.121945,-0.25151 -0.08384,-0.11432 -0.221025,-0.16767 -0.137189,-0.0534 -0.274377,-0.0534 -0.137188,0 -0.274376,0.0534 -0.137189,0.0533 -0.228647,0.16767 -0.08384,0.1067 -0.114324,0.25151 -0.03049,0.13719 -0.03049,0.27438 z m 0.647833,1.93588 q 0.137188,0 0.274377,-0.0533 0.137188,-0.0534 0.221025,-0.16006 0.09146,-0.11432 0.121945,-0.25151 0.03049,-0.14481 0.03049,-0.282 v -1.21183 l -1.295667,0.86124 v 0.35059 q 0,0.13719 0.03049,0.282 0.03049,0.13719 0.114324,0.25151 0.09146,0.1067 0.228647,0.16006 0.137188,0.0533 0.274376,0.0533 z m 4.656783,2.21787 q 0.19816,-0.82313 0.297241,-1.6615 0.09908,-0.83837 0.09908,-1.68437 h 0.868859 q 0,0.846 0.09908,1.68437 0.09908,0.83837 0.297241,1.6615 z m -0.167675,0 h -1.661502 q 0.198161,-0.82313 0.297241,-1.6615 0.09908,-0.83837 0.09908,-1.68437 h 0.868859 q 0,0.846 0.09908,1.68437 0.09908,0.83837 0.297241,1.6615 z m 4.946402,-1.36426 v -1.32615 h -1.98923 v -4.2757 h 1.11275 v 3.36111 h 0.87648 v -2.29409 h 1.112749 v 4.53483 z"
             id="text68-8-8-5-4-96"
             style="font-weight:900;font-size:7.62157px;line-height:1;font-family:'Iosevka Sezimal QP';-inkscape-font-specification:'Iosevka Sezimal QP, Heavy';text-align:center;text-decoration-color:#d40000;text-anchor:middle;fill:#333333;stroke-width:0.571617"
             aria-label="0󱹯4" />
        <path
             d="m 100.30382,86.09178 q -0.22865,0 -0.457292,-0.03811 -0.228647,-0.03049 -0.442051,-0.121945 -0.205783,-0.09908 -0.381079,-0.259133 -0.167674,-0.160053 -0.281998,-0.358214 -0.106702,-0.198161 -0.152431,-0.426808 -0.04573,-0.228647 -0.04573,-0.457294 v -2.400795 q 0,-0.228647 0.04573,-0.457294 0.04573,-0.228647 0.152431,-0.426808 0.114324,-0.198161 0.281998,-0.358214 0.175296,-0.160053 0.381079,-0.251512 0.213404,-0.09908 0.442051,-0.129566 0.228642,-0.03811 0.457292,-0.03811 0.22865,0 0.4573,0.03811 0.22864,0.03049 0.43443,0.129566 0.2134,0.09146 0.38107,0.251512 0.1753,0.160053 0.282,0.358214 0.11433,0.198161 0.16006,0.426808 0.0457,0.228647 0.0457,0.457294 v 2.400795 q 0,0.228647 -0.0457,0.457294 -0.0457,0.228647 -0.16006,0.426808 -0.1067,0.198161 -0.282,0.358214 -0.16767,0.160053 -0.38107,0.259133 -0.20579,0.09146 -0.43443,0.121945 -0.22865,0.03811 -0.4573,0.03811 z m -0.647832,-2.850467 1.295672,-0.861238 v -0.350592 q 0,-0.137188 -0.0305,-0.274376 -0.0305,-0.14481 -0.12195,-0.251512 -0.0838,-0.114324 -0.22102,-0.167675 -0.13719,-0.05335 -0.27438,-0.05335 -0.13719,0 -0.27437,0.05335 -0.137193,0.05335 -0.228652,0.167675 -0.08384,0.106702 -0.114323,0.251512 -0.03049,0.137188 -0.03049,0.274376 z m 0.647832,1.935879 q 0.13719,0 0.27438,-0.05335 0.13719,-0.05335 0.22102,-0.160053 0.0915,-0.114324 0.12195,-0.251512 0.0305,-0.14481 0.0305,-0.281998 v -1.21183 l -1.295672,0.861238 v 0.350592 q 0,0.137188 0.03049,0.281998 0.03049,0.137188 0.114323,0.251512 0.09146,0.106702 0.228652,0.160053 0.13718,0.05335 0.27437,0.05335 z m 4.64154,2.217877 h -1.6615 q 0.19816,-0.82313 0.29724,-1.661503 0.0991,-0.838372 0.0991,-1.684367 h 0.86886 q 0,0.845995 0.0991,1.684367 0.0991,0.838373 0.29724,1.661503 z m 3.0029,-1.303289 q -0.21341,0 -0.41919,-0.03049 -0.20578,-0.03049 -0.40394,-0.106702 -0.19054,-0.07622 -0.35822,-0.205783 -0.16767,-0.129566 -0.28962,-0.297241 -0.12194,-0.175296 -0.19054,-0.373457 -0.061,-0.205782 -0.0762,-0.411565 h 1.12037 q 0.0152,0.106702 0.061,0.213404 0.0533,0.09908 0.13719,0.167675 0.0838,0.06859 0.19054,0.09908 0.11432,0.03049 0.22865,0.03049 0.1067,0 0.20578,-0.03811 0.0991,-0.03811 0.1753,-0.106702 0.0762,-0.07622 0.12194,-0.167675 0.0534,-0.09908 0.0762,-0.198161 0.0305,-0.106702 0.0381,-0.213404 0.008,-0.106701 0.008,-0.213403 v -0.0076 q 0,-0.09908 -0.008,-0.205782 -0.008,-0.106702 -0.0381,-0.205783 -0.0229,-0.09908 -0.0686,-0.190539 -0.0381,-0.09908 -0.11432,-0.175296 -0.0686,-0.07622 -0.16768,-0.114324 -0.0915,-0.04573 -0.19816,-0.04573 -0.0915,0 -0.19054,0.01524 -0.0915,0.01524 -0.17529,0.06097 -0.0838,0.03811 -0.14481,0.121945 -0.061,0.07622 -0.061,0.175296 h -1.11275 v -3.239168 h 3.16295 v 0.914589 h -2.0502 v 1.097506 q 0.13718,-0.03049 0.28199,-0.03811 0.14481,-0.01524 0.28962,-0.01524 0.23627,0 0.47254,0.04573 0.23627,0.04573 0.44205,0.167675 0.21341,0.114323 0.36584,0.297241 0.16005,0.182918 0.25151,0.403943 0.0991,0.221026 0.13719,0.457295 0.0381,0.236268 0.0381,0.480159 0,0.236268 -0.0381,0.480158 -0.0381,0.236269 -0.13719,0.457295 -0.0991,0.221025 -0.26676,0.403943 -0.16005,0.182918 -0.37345,0.304863 -0.20579,0.114323 -0.44968,0.160053 -0.23626,0.04573 -0.47253,0.04573 z m 4.63391,1.303289 q 0.19817,-0.82313 0.29725,-1.661503 0.0991,-0.838372 0.0991,-1.684367 h 0.86886 q 0,0.845995 0.0991,1.684367 0.0991,0.838373 0.29724,1.661503 z m -0.16767,0 h -1.6615 q 0.19816,-0.82313 0.29724,-1.661503 0.0991,-0.838372 0.0991,-1.684367 h 0.86886 q 0,0.845995 0.0991,1.684367 0.0991,0.838373 0.29724,1.661503 z m 2.95717,-1.364262 v -0.914588 l 1.73772,-1.966365 q 0.1067,-0.121945 0.2134,-0.24389 0.10671,-0.121945 0.19054,-0.259134 0.0838,-0.137188 0.12957,-0.289619 0.0457,-0.160053 0.0457,-0.320106 0,-0.137189 -0.0305,-0.274377 -0.0229,-0.137188 -0.1067,-0.251512 -0.0762,-0.114323 -0.20578,-0.167674 -0.12957,-0.06097 -0.26676,-0.06097 -0.12194,0 -0.24389,0.03811 -0.11432,0.03811 -0.20578,0.129567 -0.0838,0.08384 -0.12194,0.205782 -0.0381,0.114324 -0.0381,0.236269 v 0.02286 h -1.11275 v -0.05335 q 0,-0.213404 0.0533,-0.419187 0.061,-0.213404 0.1753,-0.3887 0.11432,-0.182917 0.28199,-0.320106 0.1753,-0.137188 0.37346,-0.221025 0.19816,-0.08384 0.41157,-0.114324 0.2134,-0.03049 0.4268,-0.03049 0.22865,0 0.44968,0.03811 0.22864,0.03811 0.43443,0.137188 0.20578,0.09908 0.37345,0.259133 0.16768,0.152432 0.27438,0.358214 0.1067,0.198161 0.14481,0.426808 0.0457,0.221026 0.0457,0.449673 0,0.24389 -0.061,0.480159 -0.061,0.236268 -0.18292,0.449672 -0.12195,0.213404 -0.282,0.403944 -0.15243,0.182917 -0.31248,0.358213 l -0.0152,0.02286 h -0.008 l -1.20421,1.364261 h 2.03496 v 0.914588 z"
             id="text68-8-8-5-4-73"
             style="font-weight:900;font-size:7.62157px;line-height:1;font-family:'Iosevka Sezimal QP';-inkscape-font-specification:'Iosevka Sezimal QP, Heavy';text-align:center;text-decoration-color:#d40000;text-anchor:middle;fill:#333333;stroke-width:0.571617"
             transform="rotate(36.000001)"
             aria-label="0󱹮5󱹯2" />
        <path
             d="m 96.555343,19.199047 v -0.914588 h 1.036534 v -2.499875 l -0.411565,0.983182 -0.792643,-0.266755 1.204208,-2.903818 h 1.105127 v 4.687266 h 0.92221 v 0.914588 z"
             id="text68-8-8-5-4-56"
             style="font-weight:900;font-size:7.62157px;line-height:1;font-family:'Iosevka Sezimal QP';-inkscape-font-specification:'Iosevka Sezimal QP, Heavy';text-align:center;text-decoration-color:#d40000;text-anchor:middle;fill:#333333;stroke-width:0.571617"
             transform="rotate(72)"
             aria-label="1" />
        <path
             id="path72-8-4"
             style="fill:#ffffff;stroke-width:0.585487"
             d="M 90.738676,77.776016 A 12.962667,12.962667 0 0 1 77.776009,90.738684 12.962667,12.962667 0 0 1 64.813341,77.776016 12.962667,12.962667 0 0 1 77.776009,64.813349 12.962667,12.962667 0 0 1 90.738676,77.776016 Z" />
        <path
             d="m 70.861778,82.817665 v -1.646256 h 1.865756 v -4.499766 l -0.740815,1.769725 -1.426755,-0.480158 2.16757,-5.226863 h 1.989226 v 8.437062 h 1.659975 v 1.646256 z m 11.510078,0 v -2.387071 h -3.580607 v -7.696247 h 2.002945 v 6.049991 h 1.577662 v -4.129359 h 2.002945 v 8.162686 z"
             id="text73-5-74"
             style="font-weight:900;font-size:13.7188px;line-height:1.5;font-family:'Iosevka Sezimal QP';-inkscape-font-specification:'Iosevka Sezimal QP, Heavy';text-align:center;text-decoration-color:#d40000;text-anchor:middle;stroke-width:0.571617"
             aria-label="14" />
    </g>
</svg>
