<?xml version="1.0" encoding="UTF-8" standalone="no"?>
<!-- Created with Inkscape (http://www.inkscape.org/) -->

<svg
     width="155.552mm"
     height="155.552mm"
     viewBox="0 0 155.552 155.552"
     version="1.1"
     id="svg1"
     inkscape:version="1.3.2 (091e20ef0f, 2023-11-25, custom)"
     sodipodi:docname="circle_fraction_02.svg"
     xmlns:inkscape="http://www.inkscape.org/namespaces/inkscape"
     xmlns:sodipodi="http://sodipodi.sourceforge.net/DTD/sodipodi-0.dtd"
     xmlns="http://www.w3.org/2000/svg"
     xmlns:svg="http://www.w3.org/2000/svg">
    <sodipodi:namedview
         id="namedview1"
         pagecolor="#ffffff"
         bordercolor="#000000"
         borderopacity="0.25"
         inkscape:showpageshadow="2"
         inkscape:pageopacity="0.0"
         inkscape:pagecheckerboard="0"
         inkscape:deskcolor="#d1d1d1"
         inkscape:document-units="mm"
         inkscape:zoom="0.68862935"
         inkscape:cx="396.43968"
         inkscape:cy="482.8432"
         inkscape:window-width="1920"
         inkscape:window-height="1014"
         inkscape:window-x="0"
         inkscape:window-y="0"
         inkscape:window-maximized="1"
         inkscape:current-layer="layer1" />
    <defs
         id="defs1" />
    <g
         inkscape:label="Camada 1"
         inkscape:groupmode="layer"
         id="layer1">
        <path
             id="path1"
             style="fill:#ff8080;stroke-width:2.13086"
             d="M 155.552,77.776001 A 77.776001,77.776001 0 0 1 77.776001,155.552 77.776001,77.776001 0 0 1 0,77.776001 77.776001,77.776001 0 0 1 77.776001,0 77.776001,77.776001 0 0 1 155.552,77.776001 Z" />
        <path
             id="ellipse1"
             style="fill:#ffaaaa;stroke-width:2.13086"
             d="m 155.552,77.776001 a 77.776001,77.776001 0 0 1 -38.888,67.355989 77.776001,77.776001 0 0 1 -77.776002,0 A 77.776001,77.776001 0 0 1 0,77.776001 h 77.776001 z" />
        <path
             d="m 70.184912,20.089377 q -0.457293,0 -0.914586,-0.07622 -0.457293,-0.06097 -0.8841,-0.243889 -0.411563,-0.198161 -0.762155,-0.518266 -0.335348,-0.320105 -0.563994,-0.716425 -0.213404,-0.396321 -0.304862,-0.853614 -0.09146,-0.457293 -0.09146,-0.914586 v -4.801577 q 0,-0.457293 0.09146,-0.914586 0.09146,-0.457293 0.304862,-0.853613 0.228646,-0.3963208 0.563994,-0.7164259 0.350592,-0.3201051 0.762155,-0.5030223 0.426807,-0.1981603 0.8841,-0.2591327 0.457293,-0.076215 0.914586,-0.076215 0.457293,0 0.914586,0.076215 0.457293,0.060972 0.868857,0.2591327 0.426807,0.1829172 0.762155,0.5030223 0.350591,0.3201051 0.563995,0.7164259 0.228646,0.39632 0.320105,0.853613 0.09146,0.457293 0.09146,0.914586 v 4.801577 q 0,0.457293 -0.09146,0.914586 -0.09146,0.457293 -0.320105,0.853614 -0.213404,0.39632 -0.563995,0.716425 -0.335348,0.320105 -0.762155,0.518266 -0.411564,0.182917 -0.868857,0.243889 -0.457293,0.07622 -0.914586,0.07622 z m -1.295663,-5.70092 2.591327,-1.72247 v -0.701183 q 0,-0.274375 -0.06097,-0.548751 -0.06097,-0.289619 -0.243889,-0.503022 -0.167674,-0.228647 -0.44205,-0.335349 -0.274376,-0.106701 -0.548752,-0.106701 -0.274376,0 -0.548751,0.106701 -0.274376,0.106702 -0.457293,0.335349 -0.167675,0.213403 -0.228647,0.503022 -0.06097,0.274376 -0.06097,0.548751 z m 1.295663,3.871748 q 0.274376,0 0.548752,-0.106702 0.274376,-0.106702 0.44205,-0.320105 0.182917,-0.228647 0.243889,-0.503022 0.06097,-0.289619 0.06097,-0.563995 v -2.423653 l -2.591327,1.72247 v 0.701183 q 0,0.274376 0.06097,0.563995 0.06097,0.274375 0.228647,0.503022 0.182917,0.213403 0.457293,0.320105 0.274375,0.106702 0.548751,0.106702 z m 9.283054,4.435742 H 76.14497 q 0.39632,-1.646255 0.594481,-3.322996 0.19816,-1.676741 0.19816,-3.368725 h 1.737713 q 0,1.691984 0.198161,3.368725 0.19816,1.676741 0.594481,3.322996 z m 6.005775,-2.60657 q -0.44205,0 -0.8841,-0.06097 -0.44205,-0.06097 -0.853614,-0.213403 -0.39632,-0.167674 -0.762155,-0.426807 -0.350591,-0.274376 -0.609724,-0.64021 -0.243889,-0.365834 -0.365834,-0.792641 -0.121945,-0.426807 -0.121945,-0.868857 v -0.09146 h 2.225493 v 0.04573 q 0,0.259132 0.09146,0.503022 0.106702,0.24389 0.304862,0.411564 0.198161,0.167674 0.457293,0.243889 0.259133,0.06097 0.518266,0.06097 0.274375,0 0.533508,-0.07622 0.274376,-0.09146 0.472536,-0.289619 0.198161,-0.19816 0.289619,-0.457293 0.09146,-0.274375 0.09146,-0.563994 0,-0.259133 -0.07622,-0.503023 -0.07622,-0.243889 -0.228646,-0.457293 -0.137188,-0.213403 -0.350592,-0.365834 -0.19816,-0.167674 -0.442049,-0.259133 -0.24389,-0.09146 -0.503023,-0.106701 -0.259132,-0.01524 -0.518265,-0.01524 v -1.829172 q 0.350591,0 0.701182,-0.06097 0.350592,-0.07621 0.609724,-0.289619 0.274376,-0.228646 0.411564,-0.563995 0.152431,-0.335348 0.152431,-0.685939 0,-0.228647 -0.07622,-0.472536 -0.06097,-0.24389 -0.213404,-0.426807 -0.152431,-0.182917 -0.381077,-0.274376 -0.228647,-0.09146 -0.472536,-0.09146 -0.228647,0 -0.457293,0.09146 -0.228647,0.07622 -0.381078,0.259133 -0.152431,0.167674 -0.228646,0.396321 -0.06097,0.228646 -0.06097,0.472536 v 0.04573 h -2.225492 v -0.121945 q 0,-0.411564 0.106701,-0.823127 0.106702,-0.426807 0.320105,-0.777398 0.228647,-0.3658348 0.548752,-0.6402106 0.335348,-0.2743758 0.716426,-0.4420499 0.39632,-0.1676741 0.807884,-0.2286465 0.426807,-0.060972 0.853614,-0.060972 0.426806,0 0.853613,0.076215 0.426807,0.060972 0.807885,0.2438896 0.39632,0.1676741 0.716425,0.457293 0.335349,0.2896189 0.548752,0.6554533 0.213403,0.365834 0.320105,0.792641 0.106702,0.411564 0.106702,0.838371 0,0.381077 -0.09146,0.762155 -0.09146,0.365834 -0.289619,0.701182 -0.182917,0.320105 -0.472536,0.594481 -0.274376,0.274376 -0.609724,0.457293 0.381078,0.182917 0.701183,0.457293 0.335348,0.274376 0.548751,0.64021 0.228647,0.350592 0.335349,0.762155 0.121944,0.411564 0.121944,0.838371 0,0.44205 -0.121944,0.8841 -0.121945,0.44205 -0.365835,0.823127 -0.228646,0.381078 -0.579238,0.68594 -0.350591,0.289619 -0.762155,0.472536 -0.411563,0.167674 -0.868856,0.228646 -0.44205,0.07622 -0.899343,0.07622 z"
             id="text68-8-8-5-3"
             style="font-weight:900;font-size:15.2431px;line-height:1;font-family:'Iosevka Sezimal QP';-inkscape-font-specification:'Iosevka Sezimal QP, Heavy';text-align:center;text-decoration-color:#d40000;text-anchor:middle;fill:#333333;stroke-width:0.571617"
             aria-label="0󱹮3" />
        <path
             d="m 72.53363,146.78825 v -1.82917 h 2.073062 v -4.99974 l -0.823128,1.96636 -1.585282,-0.5335 2.40841,-5.80762 h 2.210249 v 9.3745 h 1.844415 v 1.82917 z"
             id="text68-8-8-5-3-4"
             style="font-weight:900;font-size:15.2431px;line-height:1;font-family:'Iosevka Sezimal QP';-inkscape-font-specification:'Iosevka Sezimal QP, Heavy';text-align:center;text-decoration-color:#d40000;text-anchor:middle;fill:#333333;stroke-width:0.571617"
             aria-label="1" />
        <path
             id="path72-8-9"
             style="fill:#ffffff;stroke-width:0.585487"
             d="M 90.738668,77.776001 A 12.962667,12.962667 0 0 1 77.776001,90.738668 12.962667,12.962667 0 0 1 64.813334,77.776001 12.962667,12.962667 0 0 1 77.776001,64.813334 12.962667,12.962667 0 0 1 90.738668,77.776001 Z" />
        <path
             d="m 74.702996,82.872543 v -1.646256 l 3.127886,-3.53945 q 0.192064,-0.219501 0.384127,-0.439001 0.192063,-0.219501 0.34297,-0.46644 0.150907,-0.246938 0.233219,-0.521314 0.08231,-0.288095 0.08231,-0.57619 0,-0.246938 -0.05487,-0.493876 -0.04116,-0.246939 -0.192063,-0.452721 -0.137188,-0.205782 -0.370408,-0.301813 -0.233219,-0.109751 -0.480158,-0.109751 -0.219501,0 -0.439001,0.06859 -0.205782,0.06859 -0.370408,0.23322 -0.150907,0.150907 -0.219501,0.370407 -0.06859,0.205782 -0.06859,0.425283 v 0.04116 h -2.002945 v -0.09603 q 0,-0.384126 0.09603,-0.754534 0.10975,-0.384126 0.315532,-0.699659 0.205782,-0.329251 0.507596,-0.576189 0.315532,-0.246939 0.672221,-0.397846 0.356689,-0.150906 0.740815,-0.205782 0.384127,-0.05488 0.768253,-0.05488 0.411564,0 0.809409,0.06859 0.411564,0.06859 0.781972,0.246939 0.370407,0.178344 0.672221,0.466439 0.301814,0.274376 0.493877,0.644783 0.192063,0.356689 0.260657,0.768253 0.08231,0.397845 0.08231,0.809409 0,0.439002 -0.109751,0.864285 -0.10975,0.425283 -0.329251,0.809409 -0.219501,0.384126 -0.507595,0.727096 -0.274376,0.329251 -0.562471,0.644784 l -0.02744,0.04116 h -0.01372 l -2.16757,2.455665 h 3.66292 v 1.646256 z"
             id="text73-5-6"
             style="font-weight:900;font-size:13.7188px;line-height:1.5;font-family:'Iosevka Sezimal QP';-inkscape-font-specification:'Iosevka Sezimal QP, Heavy';text-align:center;text-decoration-color:#d40000;text-anchor:middle;stroke-width:0.571617"
             aria-label="2" />
    </g>
</svg>
