<?xml version="1.0" encoding="UTF-8" standalone="no"?>
<!-- Created with Inkscape (http://www.inkscape.org/) -->

<svg
   version="1.1"
   id="svg1"
   xml:space="preserve"
   width="512"
   height="512"
   sodipodi:docname="digits_repeat.svg"
   viewBox="0 0 512 512"
   inkscape:version="1.3.2 (091e20ef0f, 2023-11-25, custom)"
   xmlns:inkscape="http://www.inkscape.org/namespaces/inkscape"
   xmlns:sodipodi="http://sodipodi.sourceforge.net/DTD/sodipodi-0.dtd"
   xmlns="http://www.w3.org/2000/svg"
   xmlns:svg="http://www.w3.org/2000/svg"><defs
     id="defs1" /><sodipodi:namedview
     id="namedview1"
     pagecolor="#000000"
     bordercolor="#000000"
     borderopacity="0.25"
     inkscape:showpageshadow="2"
     inkscape:pageopacity="0.0"
     inkscape:pagecheckerboard="0"
     inkscape:deskcolor="#d1d1d1"
     inkscape:zoom="0.84780824"
     inkscape:cx="296.05751"
     inkscape:cy="310.21166"
     inkscape:window-width="1920"
     inkscape:window-height="944"
     inkscape:window-x="0"
     inkscape:window-y="32"
     inkscape:window-maximized="1"
     inkscape:current-layer="svg1" /><inkscape:clipboard
     style="font-variation-settings:normal;opacity:1;vector-effect:none;fill:#ffffff;fill-opacity:1;stroke-width:7.55905512;stroke-linecap:round;stroke-linejoin:miter;stroke-miterlimit:4;stroke-dasharray:none;stroke-dashoffset:0;stroke-opacity:1;-inkscape-stroke:none;stop-color:#000000;stop-opacity:1;stroke:#000000"
     min="0.59051339,-6.0885944"
     max="596.24406,596.82875"
     geom-min="4.3700409,-1.7243717"
     geom-max="592.46453,592.46453" /><polygon
     points="22.808925,117.05 0.35,78.15 22.808925,39.25 67.726776,39.25 90.185702,78.15 67.726776,117.05 "
     style="opacity:0.5;fill:#0066ff;fill-opacity:1;stroke:#000000;stroke-width:2;stroke-linecap:round;stroke-dasharray:none;stroke-opacity:1"
     id="hexfill_1_1"
     transform="matrix(0,-5.5564537,-5.5564537,0,690.07233,507.52872)" /><path
     style="font-weight:900;font-size:266.667px;line-height:1.25;font-family:'Iosevka Sezimal QP';-inkscape-font-specification:'Iosevka Sezimal QP, Heavy';text-align:center;letter-spacing:0px;word-spacing:0px;text-anchor:middle;fill:#5f8dd3"
     d="m 396.00074,333.33344 q -8.00001,0 -16.00002,-1.33334 -8.00001,-1.06666 -15.46669,-4.26667 -7.20001,-3.46667 -13.33335,-8.80001 -6.13334,-5.6 -10.13334,-12.53335 -3.73334,-7.20001 -5.33334,-15.20002 -1.6,-8 -1.6,-16.00001 v -84.00011 q 0,-8.00001 1.6,-16.00002 1.6,-8.00001 5.33334,-14.93335 4,-6.93334 9.86668,-12.53335 6.13334,-5.6 13.33335,-8.80001 7.46667,-3.46667 15.46668,-4.53334 8.00001,-1.33333 16.00002,-1.33333 8.00001,0 16.00002,1.33333 8.00001,1.06667 15.20002,4.53334 7.46667,3.20001 13.33335,8.80001 6.13334,5.60001 9.86668,12.53335 4,6.93334 5.6,14.93335 1.60001,8.00001 1.60001,16.00002 v 11.73335 q 0,6.93334 -0.80001,13.86668 -0.8,6.93335 -3.2,13.60002 -2.13334,6.66668 -6.13334,12.53335 -3.73334,5.86667 -9.33334,10.13335 -5.33334,4.26667 -12.26669,6.13334 -6.66667,1.86666 -13.86668,1.86666 -5.86667,0 -12.00001,-1.33333 -5.86668,-1.33334 -11.20002,-4.53334 -5.06667,-3.2 -9.06668,-7.73334 -3.73333,-4.80001 -6.4,-10.40001 v 38.13338 q 0,5.06667 1.06666,9.86667 1.33334,4.80001 4.26668,8.80001 3.2,3.73334 7.73334,5.60001 4.8,1.86667 9.86668,1.86667 4.53334,0 8.80001,-1.06667 4.26667,-1.33333 7.46667,-4.26667 3.46667,-2.93334 5.06668,-7.20001 1.6,-4.26667 1.6,-8.80001 v -0.8 h 38.93338 v 1.86667 q 0,7.46668 -2.13334,14.93335 -2.13333,7.46668 -6.4,13.86668 -4.00001,6.40001 -10.13335,11.20002 -6.13334,4.53334 -13.33335,7.46667 -6.93334,2.66667 -14.66668,3.73334 -7.46668,1.06667 -15.20002,1.06667 z m -0.26667,-104.26679 q 4.80001,0 9.60001,-1.86667 4.80001,-1.86667 7.73334,-5.60001 3.20001,-4 4.26668,-8.80001 1.06666,-4.80001 1.06666,-9.86668 v -11.73335 q 0,-4.8 -1.06666,-9.60001 -1.06667,-5.06667 -4.26668,-8.80001 -2.93333,-4 -7.73334,-5.86667 -4.8,-1.86667 -9.60001,-1.86667 -4.80001,0 -9.60001,1.86667 -4.80001,1.86667 -8.00001,5.86667 -2.93334,3.73334 -4.00001,8.80001 -1.06666,4.80001 -1.06666,9.60001 v 11.73335 q 0,5.06667 1.06666,9.86668 1.06667,4.80001 4.00001,8.80001 3.2,3.73334 8.00001,5.60001 4.8,1.86667 9.60001,1.86667 z"
     id="path3" /><path
     style="font-weight:900;font-size:266.667px;line-height:1.25;font-family:'Iosevka Sezimal QP';-inkscape-font-specification:'Iosevka Sezimal QP, Heavy';text-align:center;letter-spacing:0px;word-spacing:0px;text-anchor:middle;fill:#ffffff"
     d="m 252.8,378.9335 h -58.1334 q 6.93334,-28.80004 10.40001,-58.13341 3.46667,-29.33337 3.46667,-58.9334 h 30.40004 q 0,29.60003 3.46667,58.9334 3.46667,29.33337 10.40001,58.13341 z"
     id="path2" /><path
     style="font-weight:900;font-size:266.667px;line-height:1.25;font-family:'Iosevka Sezimal QP';-inkscape-font-specification:'Iosevka Sezimal QP, Heavy';text-align:center;letter-spacing:0px;word-spacing:0px;text-anchor:middle;fill:#ffffff"
     d="m 258.66668,378.9335 q 6.93334,-28.80004 10.40001,-58.13341 3.46667,-29.33337 3.46667,-58.9334 h 30.40004 q 0,29.60003 3.46667,58.9334 3.46667,29.33337 10.40001,58.13341 z"
     id="path1" /><path
     style="font-weight:900;font-size:266.667px;line-height:1.25;font-family:'Iosevka Sezimal QP';-inkscape-font-specification:'Iosevka Sezimal QP, Heavy';text-align:center;letter-spacing:0px;word-spacing:0px;text-anchor:middle;fill:#5f8dd3"
     d="m 115.99974,333.33344 q -8.00001,0 -16.000017,-1.33334 -8.00001,-1.06666 -15.466686,-4.26667 -7.200008,-3.46667 -13.333349,-8.80001 -6.133341,-5.6 -10.133346,-12.53335 -3.733338,-7.20001 -5.33334,-15.20002 -1.600002,-8 -1.600002,-16.00001 v -84.00011 q 0,-8.00001 1.600002,-16.00002 1.600002,-8.00001 5.33334,-14.93335 4.000005,-6.93334 9.866679,-12.53335 6.133341,-5.6 13.333349,-8.80001 7.466676,-3.46667 15.466686,-4.53334 8.000014,-1.33333 16.000024,-1.33333 8,0 16.00001,1.33333 8.00001,1.06667 15.20002,4.53334 7.46667,3.20001 13.33335,8.80001 6.13334,5.60001 9.86668,12.53335 4,6.93334 5.6,14.93335 1.60001,8.00001 1.60001,16.00002 v 11.73335 q 0,6.93334 -0.80001,13.86668 -0.8,6.93335 -3.2,13.60002 -2.13334,6.66668 -6.13334,12.53335 -3.73334,5.86667 -9.33334,10.13335 -5.33334,4.26667 -12.26668,6.13334 -6.66668,1.86666 -13.86668,1.86666 -5.86667,0 -12.00002,-1.33333 -5.86667,-1.33334 -11.20001,-4.53334 -5.06668,-3.2 -9.066681,-7.73334 -3.733338,-4.80001 -6.400008,-10.40001 v 38.13338 q 0,5.06667 1.066668,9.86667 1.333335,4.80001 4.266672,8.80001 3.200009,3.73334 7.733339,5.60001 4.80001,1.86667 9.86668,1.86667 4.53335,0 8.80002,-1.06667 4.26667,-1.33333 7.46666,-4.26667 3.46667,-2.93334 5.06669,-7.20001 1.59999,-4.26667 1.59999,-8.80001 v -0.8 h 38.93338 v 1.86667 q 0,7.46668 -2.13334,14.93335 -2.13333,7.46668 -6.4,13.86668 -4.00001,6.40001 -10.13335,11.20002 -6.13334,4.53334 -13.33335,7.46667 -6.93334,2.66667 -14.66667,3.73334 -7.46668,1.06667 -15.20003,1.06667 z m -0.26666,-104.26679 q 4.80001,0 9.6,-1.86667 4.80001,-1.86667 7.73336,-5.60001 3.2,-4 4.26667,-8.80001 1.06665,-4.80001 1.06665,-9.86668 v -11.73335 q 0,-4.8 -1.06665,-9.60001 -1.06667,-5.06667 -4.26667,-8.80001 -2.93335,-4 -7.73336,-5.86667 -4.79999,-1.86667 -9.6,-1.86667 -4.80001,0 -9.60002,1.86667 -4.8,1.86667 -8.000006,5.86667 -2.933337,3.73334 -4.000005,8.80001 -1.066668,4.80001 -1.066668,9.60001 v 11.73335 q 0,5.06667 1.066668,9.86668 1.066668,4.80001 4.000005,8.80001 3.200006,3.73334 8.000006,5.60001 4.80001,1.86667 9.60002,1.86667 z"
     id="text5" /></svg>
