<?xml version="1.0" encoding="UTF-8" standalone="no"?>
<!-- Created with Inkscape (http://www.inkscape.org/) -->

<svg
   version="1.1"
   id="svg1"
   xml:space="preserve"
   width="512"
   height="512"
   sodipodi:docname="digits_wedge.svg"
   viewBox="0 0 512 512"
   inkscape:version="1.3.2 (091e20ef0f, 2023-11-25, custom)"
   xmlns:inkscape="http://www.inkscape.org/namespaces/inkscape"
   xmlns:sodipodi="http://sodipodi.sourceforge.net/DTD/sodipodi-0.dtd"
   xmlns="http://www.w3.org/2000/svg"
   xmlns:svg="http://www.w3.org/2000/svg"><defs
     id="defs1" /><sodipodi:namedview
     id="namedview1"
     pagecolor="#000000"
     bordercolor="#000000"
     borderopacity="0.25"
     inkscape:showpageshadow="2"
     inkscape:pageopacity="0.0"
     inkscape:pagecheckerboard="0"
     inkscape:deskcolor="#d1d1d1"
     inkscape:zoom="0.84780824"
     inkscape:cx="296.05751"
     inkscape:cy="310.21166"
     inkscape:window-width="1920"
     inkscape:window-height="944"
     inkscape:window-x="0"
     inkscape:window-y="32"
     inkscape:window-maximized="1"
     inkscape:current-layer="svg1" /><inkscape:clipboard
     style="font-variation-settings:normal;opacity:1;vector-effect:none;fill:#ffffff;fill-opacity:1;stroke-width:7.55905512;stroke-linecap:round;stroke-linejoin:miter;stroke-miterlimit:4;stroke-dasharray:none;stroke-dashoffset:0;stroke-opacity:1;-inkscape-stroke:none;stop-color:#000000;stop-opacity:1;stroke:#000000"
     min="0.59051339,-6.0885944"
     max="596.24406,596.82875"
     geom-min="4.3700409,-1.7243717"
     geom-max="592.46453,592.46453" /><polygon
     points="90.185702,78.15 67.726776,117.05 22.808925,117.05 0.35,78.15 22.808925,39.25 67.726776,39.25 "
     style="opacity:0.5;fill:#0066ff;fill-opacity:1;stroke:#000000;stroke-width:2;stroke-linecap:round;stroke-dasharray:none;stroke-opacity:1"
     id="hexfill_1_1"
     transform="matrix(0,-5.5564537,-5.5564537,0,690.23686,507.52872)" /><path
     d="m 228.11289,378.9335 q 6.93335,-28.80004 10.40002,-58.13341 3.46667,-29.33337 3.46667,-58.9334 h 30.40003 q 0,29.60003 3.46668,58.9334 3.46667,29.33337 10.40001,58.13341 z"
     id="text1"
     style="font-weight:900;font-size:266.667px;line-height:1.25;font-family:'Iosevka Sezimal QP';-inkscape-font-specification:'Iosevka Sezimal QP, Heavy';text-align:center;letter-spacing:0px;word-spacing:0px;text-anchor:middle;fill:#ffffff"
     aria-label="󱹮" /><path
     d="m 150.77927,333.33344 c -5.33334,0 -10.66668,-0.44445 -16.00002,-1.33334 -5.33334,-0.71111 -10.4889,-2.13333 -15.46669,-4.26667 -4.8,-2.31111 -9.24445,-5.24445 -13.33334,-8.80001 -4.0889,-3.73334 -7.466679,-7.91112 -10.133349,-12.53335 -2.48889,-4.80001 -4.26667,-9.86668 -5.33334,-15.20002 -1.06667,-5.33334 -1.6,-10.66668 -1.6,-16.00002 v -84.0001 c 0,-5.33334 0.53333,-10.66668 1.6,-16.00002 1.06667,-5.33334 2.84445,-10.31112 5.33334,-14.93335 2.66667,-4.62223 5.955559,-8.80001 9.866679,-12.53335 4.08889,-3.73334 8.53334,-6.66668 13.33335,-8.80001 4.97778,-2.31111 10.13334,-3.82223 15.46668,-4.53334 5.33334,-0.88889 10.66668,-1.33333 16.00002,-1.33333 5.33334,0 10.66668,0.44444 16.00002,1.33333 5.33334,0.71111 10.40001,2.22223 15.20002,4.53334 4.97779,2.13333 9.42224,5.06667 13.33335,8.80001 4.08889,3.73334 7.37779,7.91112 9.86668,12.53335 2.66667,4.62223 4.53334,9.60001 5.60001,14.93335 1.06667,5.33334 1.6,10.66668 1.6,16.00002 v 11.73335 c 0,4.62223 -0.26667,9.24445 -0.8,13.86668 -0.53333,4.62223 -1.6,9.15557 -3.20001,13.60002 -1.42222,4.44445 -3.46667,8.62223 -6.13334,12.53335 -2.48889,3.91111 -5.60001,7.28889 -9.33334,10.13334 -3.55556,2.84445 -7.64445,4.8889 -12.26668,6.13334 -4.44445,1.24445 -9.06668,1.86667 -13.86669,1.86667 -3.91111,0 -7.91112,-0.44444 -12.00001,-1.33333 -3.91112,-0.88889 -7.64446,-2.40001 -11.20002,-4.53334 -3.37778,-2.13333 -6.4,-4.71111 -9.06667,-7.73334 -2.48889,-3.20001 -4.62223,-6.66668 -6.40001,-10.40002 v 38.13338 c 0,3.37779 0.35556,6.66668 1.06667,9.86668 0.88889,3.20001 2.31111,6.13334 4.26667,8.80001 2.13333,2.48889 4.71111,4.35556 7.73334,5.60001 3.20001,1.24445 6.4889,1.86667 9.86668,1.86667 3.02223,0 5.95556,-0.35556 8.80001,-1.06667 2.84445,-0.88889 5.33334,-2.31111 7.46668,-4.26667 2.31111,-1.95556 4,-4.35556 5.06667,-7.20001 1.06667,-2.84445 1.6,-5.77778 1.6,-8.80001 v -0.8 h 38.93338 v 1.86667 c 0,4.97778 -0.71111,9.95556 -2.13333,14.93335 -1.42223,4.97778 -3.55556,9.60001 -6.40001,13.86668 -2.66667,4.26667 -6.04446,8.00001 -10.13335,11.20002 -4.08889,3.02223 -8.53334,5.51112 -13.33335,7.46667 -4.62223,1.77778 -9.51112,3.02223 -14.66668,3.73334 -4.97779,0.71111 -10.04446,1.06667 -15.20002,1.06667 z m -0.26667,-104.2668 c 3.20001,0 6.40001,-0.62222 9.60001,-1.86666 3.20001,-1.24445 5.77779,-3.11112 7.73335,-5.60001 2.13333,-2.66667 3.55556,-5.60001 4.26667,-8.80001 0.71111,-3.20001 1.06667,-6.4889 1.06667,-9.86668 v -11.73335 c 0,-3.2 -0.35556,-6.4 -1.06667,-9.60001 -0.71111,-3.37778 -2.13334,-6.31112 -4.26667,-8.80001 -1.95556,-2.66667 -4.53334,-4.62223 -7.73335,-5.86668 -3.2,-1.24444 -6.4,-1.86666 -9.60001,-1.86666 -3.2,0 -6.4,0.62222 -9.60001,1.86666 -3.2,1.24445 -5.86667,3.20001 -8.00001,5.86668 -1.95556,2.48889 -3.28889,5.42223 -4,8.80001 -0.71111,3.20001 -1.06667,6.40001 -1.06667,9.60001 v 11.73335 c 0,3.37778 0.35556,6.66667 1.06667,9.86668 0.71111,3.2 2.04444,6.13334 4,8.80001 2.13334,2.48889 4.80001,4.35556 8.00001,5.60001 3.20001,1.24444 6.40001,1.86666 9.60001,1.86666 z m 213.60056,104.2668 c -5.33334,0 -10.66668,-0.44445 -16.00002,-1.33334 -5.33334,-0.71111 -10.4889,-2.13333 -15.46668,-4.26667 -4.80001,-2.31111 -9.24446,-5.24445 -13.33335,-8.80001 -4.08889,-3.73334 -7.46668,-7.91112 -10.13335,-12.53335 -2.48889,-4.80001 -4.26667,-9.86668 -5.33334,-15.20002 -1.06667,-5.33334 -1.6,-10.66668 -1.6,-16.00002 v -84.0001 c 0,-5.33334 0.53333,-10.66668 1.6,-16.00002 1.06667,-5.33334 2.84445,-10.31112 5.33334,-14.93335 2.66667,-4.62223 5.95557,-8.80001 9.86668,-12.53335 4.08889,-3.73334 8.53334,-6.66668 13.33335,-8.80001 4.97779,-2.31111 10.13335,-3.82223 15.46669,-4.53334 5.33334,-0.88889 10.66668,-1.33333 16.00002,-1.33333 5.33334,0 10.66668,0.44444 16.00002,1.33333 5.33333,0.71111 10.4,2.22223 15.20001,4.53334 4.97779,2.13333 9.42224,5.06667 13.33335,8.80001 4.08889,3.73334 7.37779,7.91112 9.86668,12.53335 2.66667,4.62223 4.53334,9.60001 5.60001,14.93335 1.06667,5.33334 1.6,10.66668 1.6,16.00002 v 11.73335 c 0,4.62223 -0.26667,9.24445 -0.8,13.86668 -0.53333,4.62223 -1.6,9.15557 -3.2,13.60002 -1.42223,4.44445 -3.46667,8.62223 -6.13334,12.53335 -2.48889,3.91111 -5.60001,7.28889 -9.33335,10.13334 -3.55556,2.84445 -7.64445,4.8889 -12.26668,6.13334 -4.44445,1.24445 -9.06668,1.86667 -13.86668,1.86667 -3.91112,0 -7.91113,-0.44444 -12.00002,-1.33333 -3.91111,-0.88889 -7.64445,-2.40001 -11.20001,-4.53334 -3.37779,-2.13333 -6.40001,-4.71111 -9.06668,-7.73334 -2.48889,-3.20001 -4.62223,-6.66668 -6.40001,-10.40002 v 38.13338 c 0,3.37779 0.35556,6.66668 1.06667,9.86668 0.88889,3.20001 2.31111,6.13334 4.26667,8.80001 2.13334,2.48889 4.71112,4.35556 7.73334,5.60001 3.20001,1.24445 6.4889,1.86667 9.86668,1.86667 3.02223,0 5.95556,-0.35556 8.80001,-1.06667 2.84445,-0.88889 5.33335,-2.31111 7.46668,-4.26667 2.31111,-1.95556 4,-4.35556 5.06667,-7.20001 1.06667,-2.84445 1.6,-5.77778 1.6,-8.80001 v -0.8 h 38.93338 v 1.86667 c 0,4.97778 -0.71111,9.95556 -2.13333,14.93335 -1.42223,4.97778 -3.55556,9.60001 -6.40001,13.86668 -2.66667,4.26667 -6.04445,8.00001 -10.13334,11.20002 -4.0889,3.02223 -8.53335,5.51112 -13.33335,7.46667 -4.62223,1.77778 -9.51113,3.02223 -14.66669,3.73334 -4.97778,0.71111 -10.04445,1.06667 -15.20002,1.06667 z m -0.26666,-104.2668 c 3.2,0 6.4,-0.62222 9.60001,-1.86666 3.2,-1.24445 5.77778,-3.11112 7.73334,-5.60001 2.13333,-2.66667 3.55556,-5.60001 4.26667,-8.80001 0.71111,-3.20001 1.06667,-6.4889 1.06667,-9.86668 v -11.73335 c 0,-3.2 -0.35556,-6.4 -1.06667,-9.60001 -0.71111,-3.37778 -2.13334,-6.31112 -4.26667,-8.80001 -1.95556,-2.66667 -4.53334,-4.62223 -7.73334,-5.86668 -3.20001,-1.24444 -6.40001,-1.86666 -9.60001,-1.86666 -3.20001,0 -6.40001,0.62222 -9.60002,1.86666 -3.2,1.24445 -5.86667,3.20001 -8.00001,5.86668 -1.95555,2.48889 -3.28889,5.42223 -4,8.80001 -0.71111,3.20001 -1.06667,6.40001 -1.06667,9.60001 v 11.73335 c 0,3.37778 0.35556,6.66667 1.06667,9.86668 0.71111,3.2 2.04445,6.13334 4,8.80001 2.13334,2.48889 4.80001,4.35556 8.00001,5.60001 3.20001,1.24444 6.40001,1.86666 9.60002,1.86666 z"
     id="text5-5"
     style="font-weight:900;font-size:266.667px;line-height:1.25;font-family:'Iosevka Sezimal QP';-inkscape-font-specification:'Iosevka Sezimal QP, Heavy';text-align:center;letter-spacing:0px;word-spacing:0px;text-anchor:middle;fill:#87aade"
     aria-label="󱸅󱹬󱸅"
     sodipodi:nodetypes="sccccssssccccsccccssssccccsccccscccsccssccssccccssscsssccsssccssscsssccccssssccccsccccssssccccsccccscccsccssccssccccssscsssccsssccssscss" /></svg>
