<?xml version="1.0" encoding="UTF-8" standalone="no"?>
<!-- Created with Inkscape (http://www.inkscape.org/) -->

<svg
   version="1.1"
   id="svg1"
   xml:space="preserve"
   width="512"
   height="512"
   sodipodi:docname="digits_󱸄.svg"
   viewBox="0 0 512 512"
   inkscape:version="1.3.2 (091e20ef0f, 2023-11-25, custom)"
   xmlns:inkscape="http://www.inkscape.org/namespaces/inkscape"
   xmlns:sodipodi="http://sodipodi.sourceforge.net/DTD/sodipodi-0.dtd"
   xmlns="http://www.w3.org/2000/svg"
   xmlns:svg="http://www.w3.org/2000/svg"><defs
     id="defs1" /><sodipodi:namedview
     id="namedview1"
     pagecolor="#000000"
     bordercolor="#000000"
     borderopacity="0.25"
     inkscape:showpageshadow="2"
     inkscape:pageopacity="0.0"
     inkscape:pagecheckerboard="0"
     inkscape:deskcolor="#d1d1d1"
     inkscape:zoom="0.84780824"
     inkscape:cx="295.46776"
     inkscape:cy="301.95507"
     inkscape:window-width="1920"
     inkscape:window-height="944"
     inkscape:window-x="0"
     inkscape:window-y="32"
     inkscape:window-maximized="1"
     inkscape:current-layer="svg1" /><inkscape:clipboard
     style="font-variation-settings:normal;opacity:1;vector-effect:none;fill:#ffffff;fill-opacity:1;stroke-width:7.55905512;stroke-linecap:round;stroke-linejoin:miter;stroke-miterlimit:4;stroke-dasharray:none;stroke-dashoffset:0;stroke-opacity:1;-inkscape-stroke:none;stop-color:#000000;stop-opacity:1;stroke:#000000"
     min="0.59051339,-6.0885944"
     max="596.24406,596.82875"
     geom-min="4.3700409,-1.7243717"
     geom-max="592.46453,592.46453" /><g
     id="g5"
     style="opacity:0.5"><g
       id="g4"><g
         id="g3"><g
           id="g2"><g
             id="g1"
             transform="matrix(3.209591,0,0,3.209591,2.5827627,5.1704635)"><g
               id="g47"><path
                 id="hexfill_1_1"
                 style="fill:#0066ff;stroke:#000000;stroke-width:2;stroke-linecap:round"
                 transform="matrix(0,-1,-1,0,157.10624,157.10624)"
                 d="m 22.808925,39.25 h 44.917851 l 22.458926,38.9 -22.458926,38.9 H 22.808925 L 0.35,78.15 Z" /><path
                 id="hexfill_2_1"
                 style="fill:#0066ff;stroke:#000000;stroke-width:2;stroke-linecap:round"
                 transform="matrix(0,-1,-1,0,157.10624,157.10624)"
                 d="m 90.185702,0.35 h 44.917848 l 22.45893,38.9 -22.45893,38.9 H 90.185702 L 67.726776,39.25 Z" /><path
                 id="hexfill_2_2"
                 style="fill:#00ccff;stroke:#000000;stroke-width:2;stroke-linecap:round"
                 transform="matrix(0,-1,-1,0,157.10624,157.10624)"
                 d="m 90.185702,78.15 h 44.917848 l 22.45893,38.9 -22.45893,38.9 H 90.185702 l -22.458926,-38.9 z" /></g></g></g><path
           d="m 122.8908,218.43405 v -86.016 l -10.176,24.768 -20.160001,-6.72 30.336001,-73.151998 h 28.032 V 218.43405 Z"
           id="text1"
           style="font-weight:900;font-size:192px;line-height:1.25;font-family:'Iosevka Sezimal QP';-inkscape-font-specification:'Iosevka Sezimal QP, Heavy';text-align:center;letter-spacing:0px;word-spacing:0px;text-anchor:middle;fill:#ffffff"
           aria-label="1" /><path
           d="m 338.03699,218.43405 v -23.04 l 43.776,-49.536 q 2.688,-3.072 5.376,-6.144 2.688,-3.072 4.8,-6.528 2.112,-3.456 3.264,-7.296 1.152,-4.032 1.152,-8.064 0,-3.456 -0.768,-6.912 -0.576,-3.456 -2.688,-6.336 -1.92,-2.88 -5.184,-4.224 -3.264,-1.535998 -6.72,-1.535998 -3.072,0 -6.144,0.96 -2.88,0.959998 -5.184,3.263998 -2.112,2.112 -3.072,5.184 -0.96,2.88 -0.96,5.952 v 0.576 h -28.032 v -1.344 q 0,-5.376 1.344,-10.56 1.536,-5.375998 4.416,-9.791998 2.88,-4.608 7.104,-8.064 4.416,-3.456 9.408,-5.568 4.992,-2.112 10.368,-2.88 5.376,-0.768 10.752,-0.768 5.76,0 11.328,0.96 5.76,0.96 10.944,3.456 5.184,2.496 9.408,6.528 4.224,3.84 6.912,9.024 2.688,4.991998 3.648,10.751998 1.152,5.568 1.152,11.328 0,6.144 -1.536,12.096 -1.536,5.952 -4.608,11.328 -3.072,5.376 -7.104,10.176 -3.84,4.608 -7.872,9.024 l -0.384,0.576 h -0.192 l -30.336,34.368 h 51.264 v 23.04 z"
           id="text3"
           style="font-weight:900;font-size:192px;line-height:1.25;font-family:'Iosevka Sezimal QP';-inkscape-font-specification:'Iosevka Sezimal QP, Heavy';text-align:center;letter-spacing:0px;word-spacing:0px;text-anchor:middle;fill:#ffffff"
           aria-label="2" /><path
           d="m 213.18389,434.68594 v -23.04 l 43.776,-49.536 q 2.688,-3.072 5.376,-6.144 2.688,-3.072 4.8,-6.528 2.112,-3.456 3.264,-7.296 1.152,-4.032 1.152,-8.064 0,-3.456 -0.768,-6.912 -0.576,-3.456 -2.688,-6.336 -1.92,-2.88 -5.184,-4.224 -3.264,-1.536 -6.72,-1.536 -3.072,0 -6.144,0.96 -2.88,0.96 -5.184,3.264 -2.112,2.112 -3.072,5.184 -0.96,2.88 -0.96,5.952 v 0.576 h -28.032 v -1.344 q 0,-5.376 1.344,-10.56 1.536,-5.376 4.416,-9.792 2.88,-4.608 7.104,-8.064 4.416,-3.456 9.408,-5.568 4.992,-2.112 10.368,-2.88 5.376,-0.768 10.752,-0.768 5.76,0 11.328,0.96 5.76,0.96 10.944,3.456 5.184,2.496 9.408,6.528 4.224,3.84 6.912,9.024 2.688,4.992 3.648,10.752 1.152,5.568 1.152,11.328 0,6.144 -1.536,12.096 -1.536,5.952 -4.608,11.328 -3.072,5.376 -7.104,10.176 -3.84,4.608 -7.872,9.024 l -0.384,0.576 h -0.192 l -30.336,34.368 h 51.264 v 23.04 z"
           id="text4"
           style="font-weight:900;font-size:192px;line-height:1.25;font-family:'Iosevka Sezimal QP';-inkscape-font-specification:'Iosevka Sezimal QP, Heavy';text-align:center;letter-spacing:0px;word-spacing:0px;text-anchor:middle;fill:#ffffff"
           aria-label="2" /></g></g></g><path
     d="m 297.92905,438.95261 q -9.06666,0 -18.13332,-1.06667 -9.06667,-0.53333 -18.13333,-2.66666 -9.06666,-1.6 -17.59999,-4.8 -8.53332,-3.73333 -16.53332,-8 -7.46666,-4.79999 -14.93332,-10.66666 -6.93333,-6.39999 -12.8,-13.33332 -5.33333,-7.46666 -9.59999,-15.46666 -4.26666,-7.99999 -6.93333,-16.53332 -2.66666,-9.06666 -4.26666,-19.73332 -1.6,-10.66666 -1.6,-16.53333 v -7.99999 q 0,-5.33333 0.53333,-10.66666 0.53333,-5.33333 1.06667,-10.13333 1.06666,-5.33333 2.13333,-10.66666 1.06667,-5.33333 2.66666,-10.13333 2.13334,-5.33333 3.73334,-10.13332 2.13333,-4.8 4.79999,-9.6 2.66667,-4.79999 5.33333,-9.06666 2.66667,-4.8 5.86667,-9.06666 3.19999,-4.26666 6.39999,-8.53333 3.2,-4.26666 7.46666,-9.06666 4.26667,-4.8 7.46667,-8.53333 3.19999,-4.26666 5.86666,-6.93333 l 5.33333,-5.86666 1.06667,-1.6 h 0.53333 l 84.26661,-95.46661 H 179.52912 V 42.686183 H 417.39564 V 106.68614 L 280.86239,261.35272 q -3.2,3.73333 -6.39999,7.99999 -3.2,4.26667 -5.86667,8.53333 -2.66666,4.26666 -5.33333,9.06666 -2.13333,4.8 -3.73333,9.59999 -1.6,4.8 -3.2,10.66666 -1.06666,5.86667 -1.06666,9.06667 v 5.86666 q 0,5.86666 0.53333,12.26666 0.53333,5.86666 2.13333,11.73332 2.13333,5.86667 5.33333,11.2 3.2,4.79999 7.46666,8.53333 4.8,3.73333 11.73333,6.39999 6.93333,2.66667 10.66666,2.66667 h 4.8 q 5.33333,0 10.66666,-1.06667 5.33333,-1.06667 10.13333,-3.2 4.79999,-2.13333 8.53332,-5.86666 4.26667,-3.73333 6.93333,-8 3.2,-4.79999 4.8,-10.66666 1.6,-5.86666 1.6,-9.59999 v -5.86666 h 77.86662 v 3.73333 q 0,8.53333 -1.6,17.06665 -1.06667,8.53333 -3.73333,17.06666 -2.66667,8 -6.93333,15.99999 -3.73333,7.46666 -9.06666,14.39999 -5.33333,6.4 -12.26666,12.26666 -6.4,5.33333 -13.86666,10.13333 -6.93333,4.26666 -14.93332,7.99999 -8,3.2 -16.53333,5.33333 -8.53333,2.13334 -18.66665,3.2 -9.6,1.06667 -15.46666,1.06667 z"
     id="text5"
     style="font-weight:900;font-size:533.333px;line-height:1.25;font-family:'Iosevka Sezimal QP';-inkscape-font-specification:'Iosevka Sezimal QP, Heavy';letter-spacing:0px;word-spacing:0px;fill:#ffffff"
     aria-label="󱸄" /></svg>
