<?xml version="1.0" encoding="UTF-8" standalone="no"?>
<!-- Created with Inkscape (http://www.inkscape.org/) -->

<svg
   version="1.1"
   id="svg1"
   xml:space="preserve"
   width="323"
   height="323"
   sodipodi:docname="digits.svg"
   viewBox="0 0 323 323"
   inkscape:version="1.3.2 (091e20ef0f, 2023-11-25, custom)"
   xmlns:inkscape="http://www.inkscape.org/namespaces/inkscape"
   xmlns:sodipodi="http://sodipodi.sourceforge.net/DTD/sodipodi-0.dtd"
   xmlns="http://www.w3.org/2000/svg"
   xmlns:svg="http://www.w3.org/2000/svg"><defs
     id="defs1"><filter
       inkscape:collect="always"
       style="color-interpolation-filters:sRGB"
       id="filter1"
       x="-0.39719741"
       y="-0.24102036"
       width="1.7943948"
       height="1.4820407"><feGaussianBlur
         inkscape:collect="always"
         stdDeviation="5.5113374"
         id="feGaussianBlur1" /></filter></defs><sodipodi:namedview
     id="namedview1"
     pagecolor="#ffffff"
     bordercolor="#000000"
     borderopacity="0.25"
     inkscape:showpageshadow="2"
     inkscape:pageopacity="0.0"
     inkscape:pagecheckerboard="0"
     inkscape:deskcolor="#d1d1d1"
     inkscape:zoom="1.2782552"
     inkscape:cx="60.629521"
     inkscape:cy="234.69492"
     inkscape:window-width="1920"
     inkscape:window-height="944"
     inkscape:window-x="0"
     inkscape:window-y="32"
     inkscape:window-maximized="1"
     inkscape:current-layer="svg1" /><inkscape:clipboard
     style="font-variation-settings:normal;opacity:1;vector-effect:none;fill:#000000;fill-opacity:1;stroke-width:3.77952756;stroke-linecap:butt;stroke-linejoin:miter;stroke-miterlimit:4;stroke-dasharray:none;stroke-dashoffset:0;stroke-opacity:1;-inkscape-stroke:none;stop-color:#000000;stop-opacity:1"
     min="912.40842,1768.5963"
     max="2365.305,2684.9586"
     geom-min="913.77834,1769.9664"
     geom-max="2363.9349,2683.5886" /><polygon
     points="67.726776,117.05 22.808925,117.05 0.35,78.15 22.808925,39.25 67.726776,39.25 90.185702,78.15 "
     style="fill:#5500d4;fill-opacity:1;stroke:none;stroke-width:0.7;stroke-linecap:round"
     id="hexfill_1_1-6-7"
     transform="matrix(-1.3794344,0,0,-1.3797512,316.88587,322.99969)" /><polygon
     points="67.726776,194.85 22.808925,194.85 0.35,155.95 22.808925,117.05 67.726776,117.05 90.185702,155.95 "
     style="fill:#0000ff;fill-opacity:1;stroke:none;stroke-width:0.7;stroke-linecap:round"
     id="polygon1696-5-9"
     transform="matrix(-1.3794344,0,0,-1.3797512,316.88587,322.99969)" /><polygon
     points="135.10355,233.75 90.185702,233.75 67.726776,194.85 90.185702,155.95 135.10355,155.95 157.56248,194.85 "
     style="font-variation-settings:normal;vector-effect:none;fill:#0066ff;fill-opacity:1;stroke:none;stroke-width:0.7;stroke-linecap:round;stroke-linejoin:miter;stroke-miterlimit:4;stroke-dasharray:none;stroke-dashoffset:0;stroke-opacity:1;-inkscape-stroke:none;stop-color:#000000"
     id="polygon1700-9-2"
     transform="matrix(-1.3794344,0,0,-1.3797512,316.88587,322.99969)" /><polygon
     points="202.48033,194.85 157.56248,194.85 135.10355,155.95 157.56248,117.05 202.48033,117.05 224.93926,155.95 "
     style="font-variation-settings:normal;vector-effect:none;fill:#44aa00;fill-opacity:1;stroke:none;stroke-width:0.7;stroke-linecap:round;stroke-linejoin:miter;stroke-miterlimit:4;stroke-dasharray:none;stroke-dashoffset:0;stroke-opacity:1;-inkscape-stroke:none;stop-color:#000000"
     id="polygon1701-8-5"
     transform="matrix(-1.3794344,0,0,-1.3797512,316.88587,322.99969)" /><polygon
     points="202.48033,117.05 157.56248,117.05 135.10355,78.15 157.56248,39.25 202.48033,39.25 224.93926,78.15 "
     style="font-variation-settings:normal;vector-effect:none;fill:#ffcc00;fill-opacity:1;stroke:none;stroke-width:0.7;stroke-linecap:round;stroke-linejoin:miter;stroke-miterlimit:4;stroke-dasharray:none;stroke-dashoffset:0;stroke-opacity:1;-inkscape-stroke:none;stop-color:#000000"
     id="hexfill_3_1-4-12"
     transform="matrix(-1.3794344,0,0,-1.3797512,316.88587,322.99969)" /><polygon
     points="135.10355,78.15 90.185702,78.15 67.726776,39.25 90.185702,0.35 135.10355,0.35 157.56248,39.25 "
     style="font-variation-settings:normal;vector-effect:none;fill:#ff6600;fill-opacity:1;stroke:none;stroke-width:0.7;stroke-linecap:round;stroke-linejoin:miter;stroke-miterlimit:4;stroke-dasharray:none;stroke-dashoffset:0;stroke-opacity:1;-inkscape-stroke:none;stop-color:#000000"
     id="polygon1698-6-3"
     transform="matrix(-1.3794344,0,0,-1.3797512,316.88587,322.99969)" /><polygon
     points="135.10355,155.95 90.185702,155.95 67.726776,117.05 90.185702,78.15 135.10355,78.15 157.56248,117.05 "
     style="font-variation-settings:normal;vector-effect:none;fill:#d40000;fill-opacity:1;stroke:none;stroke-width:0.7;stroke-linecap:round;stroke-linejoin:miter;stroke-miterlimit:4;stroke-dasharray:none;stroke-dashoffset:0;stroke-opacity:1;-inkscape-stroke:none;stop-color:#000000"
     id="polygon1699-3-6"
     transform="matrix(-1.3794344,0,0,-1.3797512,316.88587,322.99969)" /><path
     d="m 156.12395,81.595184 v -22.40001 q -1.792,-0.373334 -3.43467,-1.120001 -1.64266,-0.746667 -3.06133,-1.866667 -1.41867,-1.120001 -2.464,-2.538668 -1.04534,-1.493334 -1.71734,-3.136002 -0.672,-1.717334 -0.97066,-3.434668 -0.224,-1.792001 -0.224,-3.658669 v -1.045333 q 0,-2.240001 0.448,-4.480003 0.448,-2.240001 1.49333,-4.181335 1.12,-1.941334 2.76267,-3.509335 1.71733,-1.568001 3.73333,-2.464001 2.09067,-0.970667 4.33067,-1.269334 2.24,-0.373333 4.48001,-0.373333 2.24,0 4.48,0.373333 2.24,0.298667 4.256,1.269334 2.09067,0.896 3.73333,2.464001 1.71734,1.568001 2.76267,3.509335 1.12,1.941334 1.568,4.181335 0.448,2.240002 0.448,4.480003 v 1.045333 q 0,1.792001 -0.29866,3.584002 -0.224,1.792001 -0.896,3.509335 -0.672,1.642668 -1.71734,3.136002 -1.04533,1.418667 -2.464,2.538668 -1.344,1.12 -2.98667,1.866667 -1.64266,0.746667 -3.43467,1.120001 v 22.40001 z m 5.37601,-30.762681 q 1.344,0 2.688,-0.522667 1.344,-0.522667 2.16533,-1.568001 0.896,-1.12 1.19467,-2.464001 0.29866,-1.418667 0.29866,-2.837335 v -1.045333 q 0,-1.344001 -0.29866,-2.688002 -0.29867,-1.418667 -1.19467,-2.464001 -0.82133,-1.12 -2.16533,-1.642667 -1.344,-0.522667 -2.688,-0.522667 -1.34401,0 -2.68801,0.522667 -1.344,0.522667 -2.24,1.642667 -0.82133,1.045334 -1.12,2.464001 -0.29866,1.344001 -0.29866,2.688002 v 1.045333 q 0,1.418668 0.29866,2.837335 0.29867,1.344001 1.12,2.464001 0.896,1.045334 2.24,1.568001 1.344,0.522667 2.68801,0.522667 z"
     id="text2"
     style="font-weight:900;font-size:74.6667px;line-height:1.25;font-family:'Iosevka Sezimal QP';-inkscape-font-specification:'Iosevka Sezimal QP, Heavy';text-align:center;letter-spacing:0px;word-spacing:0px;text-anchor:middle;fill:#ffffff"
     aria-label="󱸃" /><path
     d="m 52.131432,135.2675 v -29.19468 h 10.528005 7.24267 c 0.647111,0 1.269334,-0.0996 1.866668,-0.29867 0.597333,-0.24889 1.12,-0.59733 1.568,-1.04533 0.448001,-0.448 0.821334,-0.94578 1.120001,-1.49333 0.298667,-0.59733 0.522667,-1.19467 0.672,-1.792 0.149333,-0.59733 0.248889,-1.21956 0.298667,-1.866672 0.04978,-0.647111 0.07467,-1.269334 0.07467,-1.866667 0,-0.647112 -0.02489,-1.269335 -0.07467,-1.866668 -0.04978,-0.647111 -0.149336,-1.269334 -0.298667,-1.866668 -0.149333,-0.647111 -0.373333,-1.244445 -0.672,-1.792 -0.298667,-0.597334 -0.672,-1.095112 -1.120001,-1.493334 -0.448,-0.448001 -0.970667,-0.771557 -1.568,-0.970668 C 71.171441,89.471924 70.549218,89.34748 69.902107,89.34748 H 52.131432 v -8.960004 h 17.770675 c 1.543112,0 3.061335,0.149333 4.554669,0.448 1.493334,0.298667 2.887112,0.796445 4.181335,1.493334 1.344001,0.696889 2.538668,1.617779 3.584002,2.762668 1.045334,1.144889 1.866668,2.414223 2.464001,3.808002 0.647111,1.344001 1.095112,2.762668 1.344001,4.256002 0.248889,1.493334 0.373333,3.011557 0.373333,4.554669 0,1.493334 -0.124444,3.011559 -0.373333,4.554669 -0.248889,1.49333 -0.69689,2.93689 -1.344001,4.33067 -0.597333,1.344 -1.418667,2.58844 -2.464001,3.73333 -1.045334,1.09511 -2.240001,2.016 -3.584002,2.76267 -1.294223,0.69689 -2.688001,1.19467 -4.181335,1.49334 -1.493334,0.29867 -3.011557,0.448 -4.554669,0.448 h -7.24267 v 20.23467 z"
     id="text3"
     style="font-weight:900;font-size:74.6667px;line-height:1.25;font-family:'Iosevka Sezimal QP';-inkscape-font-specification:'Iosevka Sezimal QP, Heavy';text-align:center;letter-spacing:0px;word-spacing:0px;text-anchor:middle;fill:#ffffff"
     aria-label="󱸂"
     sodipodi:nodetypes="cccscscssscccccsccsscscssccccssccc" /><path
     d="m 74.307443,242.61215 v -20.16001 q -1.418668,0.224 -2.912002,0.37334 -1.418667,0.14933 -2.837335,0.14933 -2.314667,0 -4.629335,-0.37333 -2.314668,-0.37334 -4.405335,-1.41867 -2.016001,-1.04534 -3.658669,-2.688 -1.642667,-1.71734 -2.613334,-3.808 -0.896001,-2.16534 -1.120001,-4.48001 -0.224,-2.38933 -0.224,-4.704 V 187.73213 H 62.80877 v 17.77067 q 0,1.49334 0.149334,2.98667 0.149333,1.41867 0.821334,2.688 0.746667,1.26933 2.016001,2.09067 1.344,0.74667 2.762667,0.74667 1.418668,0 2.837335,-0.0747 1.493334,-0.14933 2.912002,-0.448 V 187.7321 h 10.901338 v 54.88002 z"
     id="path1"
     style="font-weight:900;font-size:74.6667px;line-height:1.25;font-family:'Iosevka Sezimal QP';-inkscape-font-specification:'Iosevka Sezimal QP, Heavy';text-align:center;letter-spacing:0px;word-spacing:0px;text-anchor:middle;fill:#d4aa00;stroke:none;filter:url(#filter1)"
     aria-label="󱸁" /><path
     d="m 74.307443,242.61215 v -20.16001 q -1.418668,0.224 -2.912002,0.37334 -1.418667,0.14933 -2.837335,0.14933 -2.314667,0 -4.629335,-0.37333 -2.314668,-0.37334 -4.405335,-1.41867 -2.016001,-1.04534 -3.658669,-2.688 -1.642667,-1.71734 -2.613334,-3.808 -0.896001,-2.16534 -1.120001,-4.48001 -0.224,-2.38933 -0.224,-4.704 V 187.73213 H 62.80877 v 17.77067 q 0,1.49334 0.149334,2.98667 0.149333,1.41867 0.821334,2.688 0.746667,1.26933 2.016001,2.09067 1.344,0.74667 2.762667,0.74667 1.418668,0 2.837335,-0.0747 1.493334,-0.14933 2.912002,-0.448 V 187.7321 h 10.901338 v 54.88002 z"
     id="text6"
     style="font-weight:900;font-size:74.6667px;line-height:1.25;font-family:'Iosevka Sezimal QP';-inkscape-font-specification:'Iosevka Sezimal QP, Heavy';text-align:center;letter-spacing:0px;word-spacing:0px;text-anchor:middle;fill:#ffffff"
     aria-label="󱸁" /><path
     d="m 161.49996,296.88179 q -2.24001,0 -4.48001,-0.37334 -2.24,-0.29866 -4.33067,-1.19466 -2.016,-0.97067 -3.73333,-2.53867 -1.64267,-1.568 -2.76267,-3.50934 -1.04533,-1.94133 -1.49333,-4.18133 -0.448,-2.24 -0.448,-4.48 v -23.52001 q 0,-2.24001 0.448,-4.48001 0.448,-2.24 1.49333,-4.18133 1.12,-1.94134 2.76267,-3.50934 1.71733,-1.568 3.73333,-2.464 2.09067,-0.97067 4.33067,-1.26933 2.24,-0.37334 4.48001,-0.37334 2.24,0 4.48,0.37334 2.24,0.29866 4.256,1.26933 2.09067,0.896 3.73333,2.464 1.71734,1.568 2.76267,3.50934 1.12,1.94133 1.568,4.18133 0.448,2.24 0.448,4.48001 v 23.52001 q 0,2.24 -0.448,4.48 -0.448,2.24 -1.568,4.18133 -1.04533,1.94134 -2.76267,3.50934 -1.64266,1.568 -3.73333,2.53867 -2.016,0.896 -4.256,1.19466 -2.24,0.37334 -4.48,0.37334 z m 0,-8.96001 q 1.344,0 2.688,-0.52266 1.344,-0.52267 2.16533,-1.568 0.896,-1.12 1.19467,-2.46401 0.29866,-1.41866 0.29866,-2.76266 v -23.52001 q 0,-1.344 -0.29866,-2.68801 -0.29867,-1.41866 -1.19467,-2.464 -0.82133,-1.12 -2.16533,-1.64266 -1.344,-0.52267 -2.688,-0.52267 -1.34401,0 -2.68801,0.52267 -1.344,0.52266 -2.24,1.64266 -0.82133,1.04534 -1.12,2.464 -0.29866,1.34401 -0.29866,2.68801 v 23.52001 q 0,1.344 0.29866,2.76266 0.29867,1.34401 1.12,2.46401 0.896,1.04533 2.24,1.568 1.344,0.52266 2.68801,0.52266 z m 0,-12.39467 q -0.67201,0 -1.26934,-0.224 -0.59733,-0.29867 -0.97067,-0.74667 -0.37333,-0.52266 -0.52266,-1.19466 -0.14934,-0.672 -0.14934,-1.26934 v -6.496 q 0,-0.59733 0.14934,-1.26933 0.14933,-0.672 0.52266,-1.12 0.37334,-0.52267 0.97067,-0.74667 0.59733,-0.29867 1.26934,-0.29867 0.672,0 1.26933,0.29867 0.59733,0.224 0.97067,0.74667 0.37333,0.448 0.52266,1.12 0.14934,0.672 0.14934,1.26933 v 6.496 q 0,0.59734 -0.14934,1.26934 -0.14933,0.672 -0.52266,1.19466 -0.37334,0.448 -0.97067,0.74667 -0.59733,0.224 -1.26933,0.224 z"
     id="text7"
     style="font-weight:900;font-size:74.6667px;line-height:1.25;font-family:'Iosevka Sezimal QP';-inkscape-font-specification:'Iosevka Sezimal QP, Heavy';text-align:center;letter-spacing:0px;word-spacing:0px;text-anchor:middle;fill:#ffffff"
     aria-label="󱸀" /><path
     d="m 254.36714,135.86484 q -1.26934,0 -2.53867,-0.14934 -1.26933,-0.0747 -2.53867,-0.37333 -1.26933,-0.224 -2.464,-0.672 -1.19467,-0.52267 -2.31467,-1.12 -1.04533,-0.672 -2.09067,-1.49334 -0.97066,-0.896 -1.792,-1.86666 -0.74666,-1.04534 -1.344,-2.16534 -0.59733,-1.12 -0.97066,-2.31467 -0.37334,-1.26933 -0.59734,-2.76266 -0.224,-1.49334 -0.224,-2.31467 v -1.12 q 0,-0.74667 0.0747,-1.49334 0.0747,-0.74666 0.14933,-1.41866 0.14934,-0.74667 0.29867,-1.49334 0.14933,-0.74666 0.37333,-1.41867 0.29867,-0.74666 0.52267,-1.41866 0.29867,-0.672 0.672,-1.344 0.37333,-0.672 0.74667,-1.26934 0.37333,-0.672 0.82133,-1.26933 0.448,-0.59733 0.896,-1.19467 0.448,-0.59733 1.04534,-1.26933 0.59733,-0.672 1.04533,-1.19467 0.448,-0.59733 0.82133,-0.97067 l 0.74667,-0.82133 0.14933,-0.224 h 0.0747 L 257.7272,89.34748 h -19.93601 v -8.960004 h 33.30135 v 8.960004 l -19.11468,21.65334 q -0.448,0.52267 -0.896,1.12 -0.448,0.59734 -0.82133,1.19467 -0.37333,0.59733 -0.74667,1.26934 -0.29867,0.672 -0.52267,1.344 -0.224,0.672 -0.448,1.49333 -0.14933,0.82133 -0.14933,1.26933 v 0.82134 q 0,0.82133 0.0747,1.71733 0.0747,0.82134 0.29866,1.64267 0.29867,0.82133 0.74667,1.568 0.448,0.672 1.04534,1.19467 0.672,0.52266 1.64266,0.896 0.97067,0.37333 1.49334,0.37333 h 0.672 q 0.74666,0 1.49333,-0.14933 0.74667,-0.14934 1.41867,-0.448 0.672,-0.29867 1.19467,-0.82134 0.59733,-0.52266 0.97066,-1.12 0.448,-0.672 0.672,-1.49333 0.224,-0.82133 0.224,-1.344 v -0.82134 h 10.90134 v 0.52267 q 0,1.19467 -0.224,2.38934 -0.14933,1.19466 -0.52267,2.38933 -0.37333,1.12 -0.97066,2.24 -0.52267,1.04534 -1.26934,2.016 -0.74666,0.896 -1.71733,1.71734 -0.896,0.74666 -1.94133,1.41866 -0.97067,0.59734 -2.09067,1.12 -1.12,0.44801 -2.31467,0.74667 -1.19467,0.29867 -2.61333,0.448 -1.34401,0.14934 -2.16534,0.14934 z"
     id="text8"
     style="font-weight:900;font-size:74.6667px;line-height:1.25;font-family:'Iosevka Sezimal QP';-inkscape-font-specification:'Iosevka Sezimal QP, Heavy';text-align:center;letter-spacing:0px;word-spacing:0px;text-anchor:middle;fill:#ffffff"
     aria-label="󱸄" /><path
     d="m 254.51647,243.20949 q -2.24,0 -4.48,-0.37334 -2.24,-0.29866 -4.33067,-1.19467 -2.016,-0.97066 -3.73334,-2.464 -1.71733,-1.568 -2.83733,-3.50933 -1.04533,-2.016 -1.49333,-4.256 -0.448,-2.24 -0.448,-4.48001 v -23.52001 q 0,-2.24 0.448,-4.48 0.448,-2.24 1.49333,-4.18133 1.12,-1.94134 2.76267,-3.50934 1.71733,-1.568 3.73333,-2.464 2.09067,-0.97067 4.33067,-1.26933 2.24,-0.37334 4.48,-0.37334 2.24001,0 4.48001,0.37334 2.24,0.29866 4.256,1.26933 2.09067,0.896 3.73333,2.464 1.71734,1.568 2.76267,3.50934 1.12,1.94133 1.568,4.18133 0.448,2.24 0.448,4.48 v 3.28534 q 0,1.94133 -0.224,3.88267 -0.224,1.94133 -0.896,3.808 -0.59733,1.86667 -1.71733,3.50933 -1.04534,1.64267 -2.61334,2.83734 -1.49333,1.19467 -3.43467,1.71733 -1.86666,0.52267 -3.88266,0.52267 -1.64267,0 -3.36001,-0.37333 -1.64266,-0.37334 -3.136,-1.26934 -1.41866,-0.896 -2.53866,-2.16533 -1.04534,-1.344 -1.79201,-2.912 v 10.67733 q 0,1.41867 0.29867,2.76267 0.37333,1.344 1.19467,2.464 0.896,1.04534 2.16533,1.568 1.344,0.52267 2.76267,0.52267 1.26933,0 2.464,-0.29867 1.19467,-0.37333 2.09067,-1.19466 0.97067,-0.82134 1.41867,-2.016 0.448,-1.19467 0.448,-2.464 v -0.224 h 10.90134 v 0.52266 q 0,2.09067 -0.59734,4.18134 -0.59733,2.09067 -1.792,3.88267 -1.12,1.792 -2.83733,3.136 -1.71734,1.26933 -3.73334,2.09067 -1.94133,0.74666 -4.10667,1.04533 -2.09066,0.29867 -4.256,0.29867 z m -0.0747,-29.19468 q 1.344,0 2.68801,-0.52267 1.344,-0.52267 2.16533,-1.568 0.896,-1.12 1.19467,-2.464 0.29866,-1.344 0.29866,-2.76267 v -3.28534 q 0,-1.344 -0.29866,-2.688 -0.29867,-1.41867 -1.19467,-2.464 -0.82133,-1.12 -2.16533,-1.64267 -1.34401,-0.52266 -2.68801,-0.52266 -1.344,0 -2.688,0.52266 -1.344,0.52267 -2.24,1.64267 -0.82133,1.04533 -1.12,2.464 -0.29867,1.344 -0.29867,2.688 v 3.28534 q 0,1.41867 0.29867,2.76267 0.29867,1.344 1.12,2.464 0.896,1.04533 2.24,1.568 1.344,0.52267 2.688,0.52267 z"
     id="text9"
     style="font-weight:900;font-size:74.6667px;line-height:1.25;font-family:'Iosevka Sezimal QP';-inkscape-font-specification:'Iosevka Sezimal QP, Heavy';text-align:center;letter-spacing:0px;word-spacing:0px;text-anchor:middle;fill:#ffffff"
     aria-label="󱸅" /><line
     x1="285.42242"
     y1="268.84445"
     x2="223.46124"
     y2="268.84445"
     style="stroke:#000000;stroke-width:0.965714;stroke-linecap:round;stroke-opacity:1"
     id="line1702-1-3" /><line
     x1="285.42242"
     y1="268.84445"
     x2="316.40305"
     y2="215.17213"
     style="stroke:#000000;stroke-width:0.965714;stroke-linecap:round;stroke-opacity:1"
     id="line1703-2-91" /><line
     x1="316.40305"
     y1="215.17213"
     x2="285.42242"
     y2="161.4998"
     style="stroke:#000000;stroke-width:0.965714;stroke-linecap:round;stroke-opacity:1"
     id="line1704-9-8" /><line
     x1="285.42242"
     y1="161.4998"
     x2="223.46124"
     y2="161.4998"
     style="stroke:#000000;stroke-width:0.965714;stroke-linecap:round;stroke-opacity:1"
     id="line1705-3-8" /><line
     x1="285.42242"
     y1="161.4998"
     x2="316.40305"
     y2="107.82748"
     style="stroke:#000000;stroke-width:0.965714;stroke-linecap:round;stroke-opacity:1"
     id="line1706-9-7" /><line
     x1="316.40305"
     y1="107.82748"
     x2="285.42242"
     y2="54.155167"
     style="stroke:#000000;stroke-width:0.965714;stroke-linecap:round;stroke-opacity:1"
     id="line1707-0-05" /><line
     x1="285.42242"
     y1="54.155167"
     x2="223.46124"
     y2="54.155167"
     style="stroke:#000000;stroke-width:0.965714;stroke-linecap:round;stroke-opacity:1"
     id="line1708-88-2" /><line
     x1="192.48062"
     y1="322.51678"
     x2="130.51938"
     y2="322.51678"
     style="fill:#000000;fill-opacity:1;stroke:#000000;stroke-width:0.965714;stroke-linecap:round;stroke-opacity:1"
     id="line1713-5-7" /><line
     x1="192.48062"
     y1="322.51678"
     x2="223.46124"
     y2="268.84445"
     style="fill:#000000;fill-opacity:1;stroke:#000000;stroke-width:0.965714;stroke-linecap:round;stroke-opacity:1"
     id="line1714-0-9" /><line
     x1="130.51938"
     y1="322.51678"
     x2="99.538734"
     y2="268.84445"
     style="fill:#000000;fill-opacity:1;stroke:#000000;stroke-width:0.965714;stroke-linecap:round;stroke-opacity:1"
     id="line1715-9-19" /><line
     x1="223.46124"
     y1="268.84445"
     x2="192.48062"
     y2="215.17213"
     style="fill:#000000;fill-opacity:1;stroke:#000000;stroke-width:0.965714;stroke-linecap:round;stroke-opacity:1"
     id="line1716-6-6" /><line
     x1="192.48062"
     y1="215.17213"
     x2="130.51938"
     y2="215.17213"
     style="fill:#000000;fill-opacity:1;stroke:#000000;stroke-width:0.965714;stroke-linecap:round;stroke-opacity:1"
     id="line1717-3-3" /><line
     x1="192.48062"
     y1="215.17213"
     x2="223.46124"
     y2="161.4998"
     style="stroke:#000000;stroke-width:0.965714;stroke-linecap:round;stroke-opacity:1"
     id="line1718-8-6" /><line
     x1="223.46124"
     y1="161.4998"
     x2="192.48062"
     y2="107.82748"
     style="stroke:#000000;stroke-width:0.965714;stroke-linecap:round;stroke-opacity:1"
     id="line1719-5-8" /><line
     x1="192.48062"
     y1="107.82748"
     x2="130.51938"
     y2="107.82748"
     style="stroke:#000000;stroke-width:0.965714;stroke-linecap:round;stroke-opacity:1"
     id="line1720-6-4" /><line
     x1="192.48062"
     y1="107.82748"
     x2="223.46124"
     y2="54.155167"
     style="stroke:#000000;stroke-width:0.965714;stroke-linecap:round;stroke-opacity:1"
     id="line1721-1-66" /><line
     x1="223.46124"
     y1="54.155167"
     x2="192.48062"
     y2="0.48285699"
     style="stroke:#000000;stroke-width:0.965714;stroke-linecap:round;stroke-opacity:1"
     id="line1722-1-72" /><line
     x1="192.48062"
     y1="0.48285699"
     x2="130.51938"
     y2="0.48285699"
     style="stroke:#000000;stroke-width:0.965714;stroke-linecap:round;stroke-opacity:1"
     id="line1723-5-7" /><line
     x1="99.538734"
     y1="268.84445"
     x2="37.577541"
     y2="268.84445"
     style="stroke:#000000;stroke-width:0.965714;stroke-linecap:round;stroke-opacity:1"
     id="line1724-9-4" /><line
     x1="99.538734"
     y1="268.84445"
     x2="130.51938"
     y2="215.17213"
     style="fill:#000000;fill-opacity:1;stroke:#000000;stroke-width:0.965714;stroke-linecap:round;stroke-opacity:1"
     id="line1725-8-1" /><line
     x1="130.51938"
     y1="215.17213"
     x2="99.538734"
     y2="161.4998"
     style="stroke:#000000;stroke-width:0.965714;stroke-linecap:round;stroke-opacity:1"
     id="line1726-48-0" /><line
     x1="99.538734"
     y1="161.4998"
     x2="37.577541"
     y2="161.4998"
     style="stroke:#000000;stroke-width:0.965714;stroke-linecap:round;stroke-opacity:1"
     id="line1727-1-0" /><line
     x1="99.538734"
     y1="161.4998"
     x2="130.51938"
     y2="107.82748"
     style="stroke:#000000;stroke-width:0.965714;stroke-linecap:round;stroke-opacity:1"
     id="line1728-0-6" /><line
     x1="130.51938"
     y1="107.82748"
     x2="99.538734"
     y2="54.155167"
     style="stroke:#000000;stroke-width:0.965714;stroke-linecap:round;stroke-opacity:1"
     id="line1729-3-4" /><line
     x1="99.538734"
     y1="54.155167"
     x2="37.577541"
     y2="54.155167"
     style="stroke:#000000;stroke-width:0.965714;stroke-linecap:round;stroke-opacity:1"
     id="line1730-0-4" /><line
     x1="99.538734"
     y1="54.155167"
     x2="130.51938"
     y2="0.48285699"
     style="stroke:#000000;stroke-width:0.965714;stroke-linecap:round;stroke-opacity:1"
     id="line1731-4-3" /><line
     x1="37.577541"
     y1="268.84445"
     x2="6.5969429"
     y2="215.17213"
     style="fill:#ff6600;stroke:#000000;stroke-width:0.965714;stroke-linecap:round;stroke-opacity:1"
     id="line1735-4-7" /><line
     x1="6.5969429"
     y1="215.17213"
     x2="37.577541"
     y2="161.4998"
     style="stroke:#000000;stroke-width:0.965714;stroke-linecap:round;stroke-opacity:1"
     id="line1736-4-3" /><line
     x1="37.577541"
     y1="161.4998"
     x2="6.5969429"
     y2="107.82748"
     style="stroke:#000000;stroke-width:0.965714;stroke-linecap:round;stroke-opacity:1"
     id="line1737-4-4" /><line
     x1="6.5969429"
     y1="107.82748"
     x2="37.577541"
     y2="54.155167"
     style="stroke:#000000;stroke-width:0.965714;stroke-linecap:round;stroke-opacity:1"
     id="line1738-7-7" /><path
     d="m 136.66797,147.13181 q -1.088,-4.544 -1.664,-9.28 -0.576,-4.736 -0.576,-9.408 h 9.344 q 0,4.672 -0.576,9.408 -0.576,4.736 -1.664,9.28 z m 17.85605,47.424 q 1.664,-6.912 2.496,-13.952 0.832,-7.04 0.832,-14.144 h 7.296 q 0,7.104 0.832,14.144 0.832,7.04 2.496,13.952 z m 26.944,-47.424 q -1.088,-4.544 -1.664,-9.28 -0.576,-4.736 -0.576,-9.408 h 9.344 q 0,4.672 -0.576,9.408 -0.576,4.736 -1.664,9.28 z"
     id="text1"
     style="font-weight:900;font-size:64px;line-height:1.25;font-family:'Iosevka Sezimal QP';-inkscape-font-specification:'Iosevka Sezimal QP, Heavy';text-align:center;letter-spacing:0px;word-spacing:0px;text-anchor:middle;fill:#ffffff"
     aria-label="󱹬󱹮󱹬" /></svg>
