<?xml version="1.0" encoding="UTF-8" standalone="no"?>
<!-- Created with Inkscape (http://www.inkscape.org/) -->

<svg
   version="1.1"
   id="svg1"
   xml:space="preserve"
   width="512"
   height="512"
   sodipodi:docname="digits_per_nif.svg"
   viewBox="0 0 512 512"
   inkscape:version="1.3.2 (091e20ef0f, 2023-11-25, custom)"
   xmlns:inkscape="http://www.inkscape.org/namespaces/inkscape"
   xmlns:sodipodi="http://sodipodi.sourceforge.net/DTD/sodipodi-0.dtd"
   xmlns="http://www.w3.org/2000/svg"
   xmlns:svg="http://www.w3.org/2000/svg"><defs
     id="defs1" /><sodipodi:namedview
     id="namedview1"
     pagecolor="#000000"
     bordercolor="#000000"
     borderopacity="0.25"
     inkscape:showpageshadow="2"
     inkscape:pageopacity="0.0"
     inkscape:pagecheckerboard="0"
     inkscape:deskcolor="#d1d1d1"
     inkscape:zoom="0.84780824"
     inkscape:cx="295.46776"
     inkscape:cy="310.21166"
     inkscape:window-width="1920"
     inkscape:window-height="944"
     inkscape:window-x="0"
     inkscape:window-y="32"
     inkscape:window-maximized="1"
     inkscape:current-layer="svg1" /><inkscape:clipboard
     style="font-variation-settings:normal;opacity:1;vector-effect:none;fill:#ffffff;fill-opacity:1;stroke-width:7.55905512;stroke-linecap:round;stroke-linejoin:miter;stroke-miterlimit:4;stroke-dasharray:none;stroke-dashoffset:0;stroke-opacity:1;-inkscape-stroke:none;stop-color:#000000;stop-opacity:1;stroke:#000000"
     min="0.59051339,-6.0885944"
     max="596.24406,596.82875"
     geom-min="4.3700409,-1.7243717"
     geom-max="592.46453,592.46453" /><polygon
     points="90.185702,78.15 67.726776,117.05 22.808925,117.05 0.35,78.15 22.808925,39.25 67.726776,39.25 "
     style="opacity:0.5;fill:#0066ff;fill-opacity:1;stroke:#000000;stroke-width:2;stroke-linecap:round;stroke-dasharray:none;stroke-opacity:1"
     id="hexfill_1_1"
     transform="matrix(0,-5.5564537,-5.5564537,0,690.23686,507.52872)" /><path
     d="m 166.8,273.19999 v -32.8 h 178.4 v 32.8 z m 70,-10.8 H 200 v -161.6 h 36.8 v 17.6 q 2.4,-4.8 6,-8.4 4,-4 8.8,-6.4 4.8,-2.4 10,-3.2 5.2,-1.200002 10.4,-1.200002 9.2,0 17.6,3.600002 8.8,3.2 14.4,10.4 5.6,6.8 7.6,16 2,8.8 2,17.6 v 22 q 0,9.2 -2,18.4 -2,8.8 -7.6,16 -5.6,6.8 -14.4,10.4 -8.4,3.2 -17.6,3.2 -5.2,0 -10.4,-0.8 -5.2,-1.2 -10,-3.6 -4.8,-2.4 -8.8,-6 -3.6,-4 -6,-8.8 z m 20,-75.6 q 4,0 7.6,-0.8 4,-0.8 6.8,-3.2 3.2,-2.8 4.4,-6.4 1.6,-3.6 1.6,-7.6 v -22 q 0,-3.6 -1.6,-7.2 -1.2,-3.6 -4.4,-6 -2.8,-2.8 -6.8,-3.6 -3.6,-0.8 -7.6,-0.8 -3.6,0 -7.6,0.8 -3.6,0.8 -6.8,3.6 -2.8,2.4 -4.4,6 -1.2,3.6 -1.2,7.2 v 22 q 0,4 1.2,7.6 1.6,3.6 4.4,6.4 3.2,2.4 6.8,3.2 4,0.8 7.6,0.8 z m -56.8,226 v -114.4 h 36.8 v 17.6 q 2.4,-4.8 6,-8.4 3.6,-4 8,-6.4 4.8,-2.4 10,-3.2 5.2,-1.2 10.4,-1.2 8.8,0 17.2,3.6 8.8,3.2 14,10.4 5.6,7.2 7.6,16 2,8.8 2,17.6 v 68.4 h -36.8 v -68.4 q 0,-3.6 -1.2,-7.2 -1.2,-3.6 -4,-6 -2.8,-2.4 -6.8,-3.2 -3.6,-1.2 -7.2,-1.2 -3.6,0 -7.6,1.2 -3.6,0.8 -6.4,3.2 -2.8,2.4 -4,6 -1.2,3.6 -1.2,7.2 v 68.4 z"
     id="text2"
     style="font-weight:900;font-size:400px;line-height:1.25;font-family:'Iosevka Sezimal QP';-inkscape-font-specification:'Iosevka Sezimal QP, Heavy';letter-spacing:0px;word-spacing:0px;fill:#ffffff"
     aria-label="󱹱" /></svg>
