<?xml version="1.0" encoding="UTF-8" standalone="no"?>
<svg
     width="512"
     height="512"
     viewBox="0 0 2572.8 2572.8"
     version="1.1"
     id="svg2"
     sodipodi:docname="month_04_hydra_white.svg"
     inkscape:version="1.4 (e7c3feb100, 2024-10-09)"
     xmlns:inkscape="http://www.inkscape.org/namespaces/inkscape"
     xmlns:sodipodi="http://sodipodi.sourceforge.net/DTD/sodipodi-0.dtd"
     xmlns="http://www.w3.org/2000/svg"
     xmlns:svg="http://www.w3.org/2000/svg">
    <defs
         id="defs2" />
    <sodipodi:namedview
         id="namedview2"
         pagecolor="#ffffff"
         bordercolor="#000000"
         borderopacity="0.25"
         inkscape:showpageshadow="2"
         inkscape:pageopacity="0.0"
         inkscape:pagecheckerboard="0"
         inkscape:deskcolor="#d1d1d1"
         inkscape:zoom="0.65"
         inkscape:cx="109.23077"
         inkscape:cy="75.384615"
         inkscape:window-width="1920"
         inkscape:window-height="1010"
         inkscape:window-x="0"
         inkscape:window-y="0"
         inkscape:window-maximized="1"
         inkscape:current-layer="svg2" />
    <path
         style="fill:none;stroke:#ffffff;stroke-width:128.64;stroke-linecap:butt;stroke-linejoin:round;stroke-miterlimit:4;stroke-dasharray:none;stroke-opacity:1"
         d="M 1286.4,1420.384 A 663.35998,663.35998 0 0 0 1430.144,697.568"
         id="path1" />
    <path
         style="clip-rule:nonzero;fill:none;stroke:#ffffff;stroke-width:128.64;stroke-linecap:round;stroke-linejoin:round;stroke-miterlimit:4;stroke-dasharray:none;stroke-opacity:1"
         d="m 214.40002,1822.4 a 758.14398,758.14398 0 0 1 1071.99998,0 758.14398,758.14398 0 0 0 1071.9999,0 m -2143.99988,-536 a 758.14398,758.14398 0 0 1 1071.99998,0 758.14398,758.14398 0 0 0 1071.9999,0 M 1286.4,2358.3999 a 663.35998,663.35998 0 0 1 0,-938.0159 m 267.968,-938.01599 a 268,268 0 1 0 -536,0.032 268,268 0 0 0 536,0 z"
         id="path2" />
</svg>
