<?xml version="1.0" encoding="UTF-8" standalone="no"?>
<svg
     width="512"
     height="512"
     viewBox="0 0 384 384"
     version="1.1"
     id="svg1"
     sodipodi:docname="month_13_aquarius_white.svg"
     inkscape:version="1.4 (e7c3feb100, 2024-10-09)"
     xmlns:inkscape="http://www.inkscape.org/namespaces/inkscape"
     xmlns:sodipodi="http://sodipodi.sourceforge.net/DTD/sodipodi-0.dtd"
     xmlns="http://www.w3.org/2000/svg"
     xmlns:svg="http://www.w3.org/2000/svg">
    <defs
         id="defs1" />
    <sodipodi:namedview
         id="namedview1"
         pagecolor="#ffffff"
         bordercolor="#000000"
         borderopacity="0.25"
         inkscape:showpageshadow="2"
         inkscape:pageopacity="0.0"
         inkscape:pagecheckerboard="0"
         inkscape:deskcolor="#d1d1d1"
         inkscape:zoom="0.86"
         inkscape:cx="236.04651"
         inkscape:cy="355.81395"
         inkscape:window-width="1920"
         inkscape:window-height="1010"
         inkscape:window-x="0"
         inkscape:window-y="0"
         inkscape:window-maximized="1"
         inkscape:current-layer="svg1" />
    <path
         d="m 32,248 a 56.64,56.64 0 0 1 80,0 56.544,56.544 0 0 0 80,0 56.64,56.64 0 0 1 80,0 56.544,56.544 0 0 0 80,0 M 32,136 a 56.64,56.64 0 0 1 80,0 56.544,56.544 0 0 0 80,0 56.64,56.64 0 0 1 80,0 56.544,56.544 0 0 0 80,0"
         style="clip-rule:nonzero;fill:none;stroke:#ffffff;stroke-width:19.2;stroke-linecap:round;stroke-linejoin:round;stroke-miterlimit:4;stroke-dasharray:none;stroke-opacity:1"
         id="path1" />
</svg>
