<?xml version="1.0" encoding="UTF-8" standalone="no"?>
<svg
   id="sezimal_time"
   width="432mm"
   height="432mm"
   viewBox="0 0 432 432"
   version="1.1"
   sodipodi:docname="now-icon.svg"
   inkscape:version="1.3.2 (091e20ef0f, 2023-11-25, custom)"
   inkscape:export-filename="sezimal_clock.png"
   inkscape:export-xdpi="96"
   inkscape:export-ydpi="96"
   xmlns:inkscape="http://www.inkscape.org/namespaces/inkscape"
   xmlns:sodipodi="http://sodipodi.sourceforge.net/DTD/sodipodi-0.dtd"
   xmlns="http://www.w3.org/2000/svg"
   xmlns:svg="http://www.w3.org/2000/svg">
  <defs
     id="defs5" />
  <sodipodi:namedview
     id="sezimal_time_view"
     pagecolor="#ffffff"
     bordercolor="#000000"
     borderopacity="0.25"
     inkscape:showpageshadow="2"
     inkscape:pageopacity="0.0"
     inkscape:pagecheckerboard="0"
     inkscape:deskcolor="#d1d1d1"
     inkscape:zoom="0.39187386"
     inkscape:cx="733.65445"
     inkscape:cy="543.54225"
     inkscape:window-width="1920"
     inkscape:window-height="944"
     inkscape:window-x="0"
     inkscape:window-y="32"
     inkscape:window-maximized="1"
     inkscape:current-layer="g3"
     inkscape:document-units="mm" />
  <g
     id="g3"
     inkscape:label="face"
     style="display:inline">
    <rect
       style="fill:#d40000;stroke-width:64.8988;stroke-linecap:round;stroke-linejoin:round"
       id="rect8"
       width="432"
       height="432"
       x="0"
       y="0"
       inkscape:label="background_red" />
    <circle
       style="fill:#ffffff;stroke-width:19.2613;stroke-linecap:round;-inkscape-stroke:none"
       id="background_white"
       cx="295.06146"
       cy="79.061485"
       r="143.99998"
       transform="rotate(29.999998)"
       inkscape:label="background_white" />
    <rect
       style="fill:#000000;fill-opacity:1;stroke:none;stroke-width:0.977899;stroke-dasharray:none;stroke-opacity:1"
       id="smaller_marker_55"
       width="2.3999999"
       height="7.1999993"
       x="-176.41048"
       y="-394.22647"
       transform="rotate(170)"
       inkscape:label="smaller_marker_55" />
    <rect
       style="fill:#000000;fill-opacity:1;stroke:none;stroke-width:0.977899;stroke-dasharray:none;stroke-opacity:1"
       id="rect54"
       width="2.3999999"
       height="7.1999993"
       x="-130.29726"
       y="-420.84995"
       transform="rotate(160)"
       inkscape:label="smaller_marker_54" />
    <rect
       style="fill:#000000;fill-opacity:1;stroke:none;stroke-width:0.977899;stroke-dasharray:none;stroke-opacity:1"
       id="rect51"
       width="2.3999999"
       height="7.1999993"
       x="-80.261482"
       y="-439.06149"
       transform="rotate(150)"
       inkscape:label="smaller_marker_53" />
    <rect
       style="fill:#000000;fill-opacity:1;stroke:none;stroke-width:0.977899;stroke-dasharray:none;stroke-opacity:1"
       id="rect48"
       width="2.3999996"
       height="7.1999993"
       x="-27.823467"
       y="-448.30771"
       transform="rotate(140)"
       inkscape:label="smaller_marker_52" />
    <rect
       style="fill:#000000;fill-opacity:1;stroke:none;stroke-width:0.977899;stroke-dasharray:none;stroke-opacity:1"
       id="rect45"
       width="2.3999996"
       height="7.1999998"
       x="25.423487"
       y="-448.30771"
       transform="rotate(130)"
       inkscape:label="smaller_marker_51" />
    <rect
       style="fill:#000000;fill-opacity:1;stroke:none;stroke-width:0.977899;stroke-dasharray:none;stroke-opacity:1"
       id="rect42"
       width="2.3999999"
       height="7.1999998"
       x="127.89726"
       y="-420.84995"
       transform="rotate(110)"
       inkscape:label="smaller_marker_45" />
    <rect
       style="fill:#000000;fill-opacity:1;stroke:none;stroke-width:0.977899;stroke-dasharray:none;stroke-opacity:1"
       id="rect39"
       width="2.3999999"
       height="7.1999998"
       x="174.01047"
       y="-394.2265"
       transform="rotate(100)"
       inkscape:label="smaller_marker_44" />
    <rect
       style="fill:#000000;fill-opacity:1;stroke:none;stroke-width:0.977899;stroke-dasharray:none;stroke-opacity:1"
       id="rect36"
       width="2.3999999"
       height="7.1999998"
       x="214.8"
       y="-360"
       transform="rotate(90)"
       inkscape:label="smaller_marker_43" />
    <rect
       style="fill:#000000;fill-opacity:1;stroke:none;stroke-width:0.977899;stroke-dasharray:none;stroke-opacity:1"
       id="rect33"
       width="2.3999999"
       height="7.1999998"
       x="249.02647"
       y="-319.21048"
       transform="rotate(79.999999)"
       inkscape:label="smaller_marker_42" />
    <rect
       style="fill:#000000;fill-opacity:1;stroke:none;stroke-width:0.977899;stroke-dasharray:none;stroke-opacity:1"
       id="rect30"
       width="2.3999999"
       height="7.1999998"
       x="275.64996"
       y="-273.09723"
       transform="rotate(69.999999)"
       inkscape:label="smaller_marker_41" />
    <rect
       style="fill:#000000;fill-opacity:1;stroke:none;stroke-width:0.977899;stroke-dasharray:none;stroke-opacity:1"
       id="rect27"
       width="2.3999996"
       height="7.1999998"
       x="303.10773"
       y="-170.62346"
       transform="rotate(49.999998)"
       inkscape:label="smaller_marker_35" />
    <rect
       style="fill:#000000;fill-opacity:1;stroke:none;stroke-width:0.977899;stroke-dasharray:none;stroke-opacity:1"
       id="rect24"
       width="2.3999996"
       height="7.1999993"
       x="303.10773"
       y="-117.37649"
       transform="rotate(39.999998)"
       inkscape:label="smaller_marker_34" />
    <rect
       style="fill:#000000;fill-opacity:1;stroke:none;stroke-width:0.977899;stroke-dasharray:none;stroke-opacity:1"
       id="rect21"
       width="2.3999999"
       height="7.1999993"
       x="293.86148"
       y="-64.938492"
       transform="rotate(29.999998)"
       inkscape:label="smaller_marker_33" />
    <rect
       style="fill:#000000;fill-opacity:1;stroke:none;stroke-width:0.977899;stroke-dasharray:none;stroke-opacity:1"
       id="rect18"
       width="2.3999999"
       height="7.1999993"
       x="275.64996"
       y="-14.902721"
       transform="rotate(19.999998)"
       inkscape:label="smaller_marker_32" />
    <rect
       style="fill:#000000;fill-opacity:1;stroke:none;stroke-width:0.977899;stroke-dasharray:none;stroke-opacity:1"
       id="smaller_marker_31"
       width="2.3999999"
       height="7.1999993"
       x="249.02649"
       y="31.210495"
       transform="rotate(9.9999993)"
       inkscape:label="smaller_marker_31" />
    <rect
       style="fill:#000000;fill-opacity:1;stroke:none;stroke-width:0.977899;stroke-dasharray:none;stroke-opacity:1"
       id="rect58"
       width="2.3999999"
       height="7.1999993"
       x="-176.41048"
       y="-113.42651"
       transform="rotate(170)"
       inkscape:label="smaller_marker_25" />
    <rect
       style="fill:#000000;fill-opacity:1;stroke:none;stroke-width:0.977899;stroke-dasharray:none;stroke-opacity:1"
       id="rect55"
       width="2.3999999"
       height="7.1999993"
       x="-130.29726"
       y="-140.04999"
       transform="rotate(160)"
       inkscape:label="smaller_marker_24" />
    <rect
       style="fill:#000000;fill-opacity:1;stroke:none;stroke-width:0.977899;stroke-dasharray:none;stroke-opacity:1"
       id="rect52"
       width="2.3999999"
       height="7.1999993"
       x="-80.261482"
       y="-158.26151"
       transform="rotate(150)"
       inkscape:label="smaller_marker_23" />
    <rect
       style="fill:#000000;fill-opacity:1;stroke:none;stroke-width:0.977899;stroke-dasharray:none;stroke-opacity:1"
       id="rect49"
       width="2.3999996"
       height="7.1999993"
       x="-27.823467"
       y="-167.50775"
       transform="rotate(140)"
       inkscape:label="smaller_marker_22" />
    <rect
       style="fill:#000000;fill-opacity:1;stroke:none;stroke-width:0.977899;stroke-dasharray:none;stroke-opacity:1"
       id="rect46"
       width="2.3999996"
       height="7.1999998"
       x="25.423487"
       y="-167.50775"
       transform="rotate(130)"
       inkscape:label="smaller_marker_21" />
    <rect
       style="fill:#000000;fill-opacity:1;stroke:none;stroke-width:0.977899;stroke-dasharray:none;stroke-opacity:1"
       id="rect43"
       width="2.3999999"
       height="7.1999998"
       x="127.89726"
       y="-140.04999"
       transform="rotate(110)"
       inkscape:label="smaller_marker_15" />
    <rect
       style="fill:#000000;fill-opacity:1;stroke:none;stroke-width:0.977899;stroke-dasharray:none;stroke-opacity:1"
       id="rect40"
       width="2.3999999"
       height="7.1999998"
       x="174.01047"
       y="-113.4265"
       transform="rotate(100)"
       inkscape:label="smaller_marker_14" />
    <rect
       style="fill:#000000;fill-opacity:1;stroke:none;stroke-width:0.977899;stroke-dasharray:none;stroke-opacity:1"
       id="rect37"
       width="2.3999999"
       height="7.1999998"
       x="214.8"
       y="-79.20002"
       transform="rotate(90)"
       inkscape:label="smaller_marker_13" />
    <rect
       style="fill:#000000;fill-opacity:1;stroke:none;stroke-width:0.977899;stroke-dasharray:none;stroke-opacity:1"
       id="rect34"
       width="2.3999999"
       height="7.1999998"
       x="249.02647"
       y="-38.41048"
       transform="rotate(79.999999)"
       inkscape:label="smaller_marker_12" />
    <rect
       style="fill:#000000;fill-opacity:1;stroke:none;stroke-width:0.977899;stroke-dasharray:none;stroke-opacity:1"
       id="rect31"
       width="2.3999999"
       height="7.1999998"
       x="275.64996"
       y="7.7027345"
       transform="rotate(69.999999)"
       inkscape:label="smaller_marker_11" />
    <rect
       style="fill:#000000;fill-opacity:1;stroke:none;stroke-width:0.977899;stroke-dasharray:none;stroke-opacity:1"
       id="rect28"
       width="2.3999996"
       height="7.1999998"
       x="303.10773"
       y="110.17652"
       transform="rotate(49.999998)"
       inkscape:label="smaller_marker_05" />
    <rect
       style="fill:#000000;fill-opacity:1;stroke:none;stroke-width:0.977899;stroke-dasharray:none;stroke-opacity:1"
       id="rect25"
       width="2.3999996"
       height="7.1999993"
       x="303.10773"
       y="163.42346"
       transform="rotate(39.999998)"
       inkscape:label="smaller_marker_04" />
    <rect
       style="fill:#000000;fill-opacity:1;stroke:none;stroke-width:0.977899;stroke-dasharray:none;stroke-opacity:1"
       id="rect22"
       width="2.3999999"
       height="7.1999993"
       x="293.86148"
       y="215.86148"
       transform="rotate(29.999998)"
       inkscape:label="smaller_marker_03" />
    <rect
       style="fill:#000000;fill-opacity:1;stroke:none;stroke-width:0.977899;stroke-dasharray:none;stroke-opacity:1"
       id="smaller_marker_02"
       width="2.3999999"
       height="7.1999993"
       x="275.64996"
       y="265.89725"
       transform="rotate(19.999998)"
       inkscape:label="smaller_marker_02" />
    <rect
       style="fill:#000000;fill-opacity:1;stroke:none;stroke-width:0.977899;stroke-dasharray:none;stroke-opacity:1"
       id="smaller_marker_01"
       width="2.3999999"
       height="7.1999993"
       x="249.02649"
       y="312.01047"
       transform="rotate(9.9999993)"
       inkscape:label="smaller_marker_01" />
    <rect
       style="display:inline;fill:#000000;fill-opacity:1;stroke:none;stroke-width:1.9558;stroke-dasharray:none;stroke-opacity:1"
       id="bigger_marker_5"
       width="4.7999997"
       height="14.4"
       x="76.661499"
       y="-439.06149"
       transform="rotate(120)"
       inkscape:label="bigger_marker_5" />
    <rect
       style="display:inline;fill:#000000;fill-opacity:1;stroke:none;stroke-width:1.9558;stroke-dasharray:none;stroke-opacity:1"
       id="bigger_marker_4"
       width="4.7999997"
       height="14.4"
       x="292.6615"
       y="-223.06148"
       transform="rotate(59.999998)"
       inkscape:label="bigger_marker_4" />
    <rect
       style="display:inline;fill:#000000;fill-opacity:1;stroke:none;stroke-width:1.9558;stroke-dasharray:none;stroke-opacity:1"
       id="bigger_marker_3"
       width="4.7999997"
       height="14.399999"
       x="213.60001"
       y="72.000023"
       inkscape:label="bigger_marker_3" />
    <rect
       style="display:inline;fill:#000000;fill-opacity:1;stroke:none;stroke-width:1.9558;stroke-dasharray:none;stroke-opacity:1"
       id="bigger_marker_2"
       width="4.7999997"
       height="14.4"
       x="76.661499"
       y="-165.46152"
       transform="rotate(120)"
       inkscape:label="bigger_marker_2" />
    <rect
       style="display:inline;fill:#000000;fill-opacity:1;stroke:none;stroke-width:1.9558;stroke-dasharray:none;stroke-opacity:1"
       id="bigger_marker_1"
       width="4.7999997"
       height="14.4"
       x="292.6615"
       y="50.538513"
       transform="rotate(59.999998)"
       inkscape:label="bigger_marker_1" />
    <rect
       style="fill:#000000;fill-opacity:1;stroke:none;stroke-width:1.9558;stroke-dasharray:none;stroke-opacity:1"
       id="bigger_marker_0"
       width="4.7999997"
       height="14.399999"
       x="213.60001"
       y="345.60001"
       inkscape:label="bigger_marker_0" />
    <path
       d="m 297.76053,273.04011 v -18.71474 h 19.63325 v 6.08516 q -1.28592,-0.27555 -2.96221,-0.3674 -1.67629,-0.0919 -3.12295,-0.0919 h -7.57775 v 7.34811 q 0.57407,-0.27555 1.69925,-0.52814 1.14815,-0.27556 2.20444,-0.27556 3.19184,0 5.69479,1.28592 2.52592,1.28592 3.97258,3.62814 1.46962,2.34221 1.46962,5.53405 0,3.58221 -1.7911,6.15405 -1.76814,2.57184 -4.73035,3.94961 -2.96221,1.37777 -6.56739,1.37777 -2.66369,0 -5.07479,-0.5511 -2.4111,-0.52815 -4.56961,-1.86 l 0.91851,-6.4296 q 2.31925,1.85999 4.43184,2.5948 2.11258,0.73482 4.52368,0.73482 2.75555,0 4.59258,-1.6074 1.83703,-1.63037 1.83703,-4.24814 0,-1.85999 -0.96444,-3.07702 -0.94148,-1.21703 -2.52592,-1.81407 -1.56147,-0.62 -3.3985,-0.62 -1.81407,0 -3.69703,0.34445 -1.85999,0.32148 -3.99553,1.14814 z"
       id="mayor_5"
       style="display:inline;font-weight:bold;font-size:16px;font-family:'Andika Tauga';-inkscape-font-specification:'Andika Tauga, Bold';text-align:center;text-anchor:middle;stroke-width:1.92"
       inkscape:label="bigger_number_5"
       aria-label="5" />
    <path
       d="m 297.63461,164.86161 2.29629,-25.14434 h 6.08516 l -2.06666,19.9777 h 18.82955 v 5.16664 z m 15.38512,8.38145 v -27.09619 h 6.08516 v 27.09619 z"
       id="text7"
       style="font-weight:bold;font-size:16px;font-family:'Andika Tauga';-inkscape-font-specification:'Andika Tauga, Bold';text-align:center;text-anchor:middle;stroke-width:1.92"
       inkscape:label="bigger_number_4"
       aria-label="4" />
    <path
       d="m 210.49117,107.43913 h 2.06666 q 2.08962,0 3.69702,-0.73481 1.60741,-0.73481 2.52592,-1.85999 0.91852,-1.14814 0.91852,-2.38814 0,-1.56147 -1.46963,-2.479989 -1.44666,-0.918515 -3.14591,-0.918515 -2.64073,0 -4.89109,0.780738 -2.2274,0.780736 -4.17925,2.778506 l -0.8037,-5.281459 q 1.37777,-1.561475 4.06443,-2.617767 2.70962,-1.056292 5.57998,-1.056292 3.30665,0 5.83257,0.96444 2.54888,0.941478 3.97258,2.732582 1.44665,1.768141 1.44665,4.225166 0,2.08962 -1.1711,3.85777 -1.14814,1.74517 -2.8474,2.91628 -1.69925,1.14814 -3.32961,1.49259 1.21703,0.20665 2.68665,0.73481 1.46963,0.50518 2.77851,1.49258 1.33185,0.96444 2.18147,2.52592 0.84963,1.56147 0.84963,3.85776 0,2.68666 -1.72222,4.93702 -1.72221,2.25036 -4.70739,3.60517 -2.98517,1.33185 -6.77404,1.33185 -3.05406,0 -5.74072,-0.94148 -2.66369,-0.94148 -4.47776,-2.61777 l 0.8037,-6.31479 q 1.88296,2.11259 4.50072,3.30665 2.61777,1.17111 5.37332,1.17111 1.65332,0 3.05406,-0.59703 1.42369,-0.59704 2.27332,-1.69925 0.87259,-1.10222 0.87259,-2.64074 0,-2.11258 -2.13555,-3.5822 -2.11258,-1.46963 -6.01627,-1.46963 h -2.06666 z"
       id="mayor_3"
       style="display:inline;font-weight:bold;font-size:16px;font-family:'Andika Tauga';-inkscape-font-specification:'Andika Tauga, Bold';text-align:center;text-anchor:middle;stroke-width:1.92"
       inkscape:label="bigger_number_3"
       aria-label="3" />
    <path
       d="m 132.83514,167.55974 v 5.97035 h -22.50362 v -5.05184 q 2.34221,-1.67628 4.91406,-3.88072 2.5948,-2.2274 4.84516,-4.70739 2.27333,-2.47999 3.69702,-4.95998 1.4237,-2.50295 1.4237,-4.70739 0,-2.04369 -1.23999,-3.53628 -1.24,-1.51555 -3.88073,-1.51555 -2.11258,0 -4.47776,1.19407 -2.36517,1.19407 -3.90369,3.05406 l -1.49258,-5.51109 q 1.05629,-1.28592 2.75554,-2.29628 1.72222,-1.01037 3.71999,-1.58444 2.02073,-0.59703 3.97257,-0.59703 3.32962,0 5.83257,1.19406 2.52592,1.17111 3.92665,3.32962 1.40074,2.15851 1.40074,5.12072 0,2.80147 -1.30889,5.53405 -1.28592,2.70962 -3.30665,5.16665 -2.02073,2.45702 -4.27109,4.54665 -2.2274,2.06666 -4.11036,3.5822 h 6.08516 q 2.27333,0 3.67406,-0.0229 1.40074,-0.0229 2.36518,-0.0918 0.96444,-0.0689 1.88296,-0.22965 z"
       id="mayor_2"
       style="display:inline;font-weight:bold;font-size:16px;font-family:'Andika Tauga';-inkscape-font-specification:'Andika Tauga, Bold';text-align:center;text-anchor:middle;stroke-width:1.92"
       inkscape:label="bigger_number_2"
       aria-label="2" />
    <path
       d="m 125.44967,254.61238 v 22.61843 q 0,1.46962 0.0459,3.55924 0.0689,2.08962 0.16075,4.08739 0.11481,1.99777 0.2526,3.26073 h -6.77405 v -26.86656 l -6.4296,3.49036 -0.8037,-5.97035 7.2333,-4.17924 z"
       id="mayor_1"
       style="font-weight:bold;font-size:16px;font-family:'Andika Tauga';-inkscape-font-specification:'Andika Tauga, Bold';text-align:center;text-anchor:middle;display:inline;stroke-width:1.92"
       inkscape:label="bigger_number_1"
       aria-label="1" />
    <path
       d="m 221.74072,324.10012 q 0,-6.38368 -1.40073,-9.39182 -1.37777,-3.00813 -4.33998,-3.00813 -2.80147,0 -4.2711,2.87036 -1.46962,2.84739 -1.46962,8.8407 0,6.36072 1.4237,9.39181 1.42369,3.00814 4.31702,3.00814 2.80147,0 4.27109,-2.87036 1.46962,-2.87036 1.46962,-8.8407 z m 6.54442,-0.57408 q 0,6.63628 -1.6074,10.49404 -1.58444,3.8348 -4.40887,5.46516 -2.80147,1.6074 -6.49849,1.6074 -3.6511,0 -6.36072,-1.6074 -2.70961,-1.63036 -4.2022,-5.37331 -1.49259,-3.76591 -1.49259,-10.12663 0,-6.47553 1.6074,-10.31033 1.6074,-3.85776 4.40887,-5.55701 2.82444,-1.69925 6.4985,-1.69925 3.90368,0 6.59034,1.67629 2.68666,1.65332 4.06443,5.41923 1.40073,3.74295 1.40073,10.01181 z"
       id="mayor_0"
       style="font-weight:bold;font-size:16px;font-family:'Andika Tauga';-inkscape-font-specification:'Andika Tauga, Bold';text-align:center;text-anchor:middle;stroke-width:1.92"
       inkscape:label="bigger_number_0"
       aria-label="0" />
    <text
       xml:space="preserve"
       style="font-style:normal;font-variant:normal;font-weight:normal;font-stretch:normal;line-height:1.25;font-family:sans-serif;-inkscape-font-specification:'sans-serif, ';font-variant-ligatures:normal;font-variant-caps:normal;font-variant-numeric:normal;font-variant-east-asian:normal;text-align:center;letter-spacing:0px;word-spacing:0px;baseline-shift:baseline;text-anchor:middle;fill:#000000;fill-opacity:1;stroke:none;stroke-width:0.264583;font-size:12px"
       x="216.024"
       y="260.65927"
       id="text2"
       inkscape:label="date"><tspan
         sodipodi:role="line"
         x="216.024"
         y="260.65927" id="date-1">213 212</tspan><tspan
         sodipodi:role="line"
         x="216.024"
         y="275.65927" id="date-2">11</tspan><tspan
         sodipodi:role="line"
         x="216.024"
         y="290.65927" id="date-3">01</tspan></text>
    <text
       xml:space="preserve"
       style="font-style:italic;font-variant:normal;font-weight:900;font-stretch:expanded;font-size:11.2889px;line-height:1.25;font-family:sans-serif;-inkscape-font-specification:'sans-serif, Normal';font-variant-ligatures:normal;font-variant-caps:normal;font-variant-numeric:normal;font-variant-east-asian:normal;letter-spacing:0px;word-spacing:0px;display:inline;fill:#000000;fill-opacity:1;stroke:none;stroke-width:0.264583"
       x="187.45392"
       y="159.51123"
       id="text2-1"
       inkscape:label="mark"><tspan
         sodipodi:role="line"
         id="tspan3"
         x="187.45392"
         y="159.51123">swixknife</tspan></text>
  </g>
  <g
     id="g2"
     inkscape:label="uta"
     sodipodi:insensitive="true"
     style="display:inline">
    <animateTransform
       attributeName="transform"
       begin="0s"
       dur="86400s"
       type="rotate"
       from="0 216 216"
       to="360 216 216"
       repeatCount="indefinite" />
    <g
       id="face_uta" transform="rotate(290,216,216)"
       inkscape:label="face_uta">
      <rect
         style="fill:#000000;stroke-width:0.438183"
         id="rect4"
         width="7.1999998"
         height="83.199997"
         x="212.39999"
         y="216"
         inkscape:label="hand_uta" />
      <circle
         style="fill:#000000;stroke-width:3.87064"
         id="circle5"
         cx="216"
         cy="216"
         inkscape:label="anchor_hand_uta"
         r="3.6" />
    </g>
  </g>
  <g
     id="g5"
     inkscape:label="posha"
     sodipodi:insensitive="true"
     style="display:inline">
    <animateTransform
       attributeName="transform"
       begin="0s"
       dur="2400s"
       type="rotate"
       from="0 216 216"
       to="360 216 216"
       repeatCount="indefinite" />
    <g
       id="face_posha" transform="rotate(140,216,216)"
       inkscape:label="face_posha">
      <rect
         style="fill:#000000;stroke-width:0.438183"
         id="rect1"
         width="4.8000002"
         height="104"
         x="213.60001"
         y="216"
         inkscape:label="hand_posha" />
      <circle
         style="fill:#000000;stroke-width:3.87064"
         id="circle2"
         cx="216"
         cy="216"
         inkscape:label="anchor_hand_posha"
         r="2.4" />
    </g>
  </g>
</svg>
