<?xml version="1.0" encoding="UTF-8" standalone="no"?>
<svg
   id="now-icon"
   width="432mm"
   height="432mm"
   viewBox="0 0 432 432"
   version="1.1"
   sodipodi:docname="now-icon-sd-mono.svg"
   inkscape:version="1.3.2 (091e20ef0f, 2023-11-25, custom)"
   inkscape:export-filename="now-icon.png"
   inkscape:export-xdpi="96"
   inkscape:export-ydpi="96"
   xmlns:inkscape="http://www.inkscape.org/namespaces/inkscape"
   xmlns:sodipodi="http://sodipodi.sourceforge.net/DTD/sodipodi-0.dtd"
   xmlns="http://www.w3.org/2000/svg"
   xmlns:svg="http://www.w3.org/2000/svg">
  <defs
     id="defs5" />
  <sodipodi:namedview
     id="sezimal_time_view"
     pagecolor="#ffffff"
     bordercolor="#000000"
     borderopacity="0.25"
     inkscape:showpageshadow="2"
     inkscape:pageopacity="0.0"
     inkscape:pagecheckerboard="0"
     inkscape:deskcolor="#d1d1d1"
     inkscape:zoom="0.39187386"
     inkscape:cx="711.96379"
     inkscape:cy="931.42217"
     inkscape:window-width="1920"
     inkscape:window-height="944"
     inkscape:window-x="0"
     inkscape:window-y="32"
     inkscape:window-maximized="1"
     inkscape:current-layer="now-icon"
     inkscape:document-units="mm" />
  <path
     id="background_white"
     style="fill:#d40000;fill-opacity:1;stroke-width:19.2613;stroke-linecap:round"
     inkscape:label="monochrome"
     d="m 220.98305,-44.445882 0.13436,0.232716 c 1.39185,-0.790437 2.79679,-1.557613 4.21422,-2.301207 l -0.19146,-0.331621 z m 4.34858,-2.068491 7.00836,12.138831 -4.15712,2.400112 -7.06546,-12.237736 c -6.15337,3.675548 -12.02374,7.805389 -17.56214,12.355086 l 4.49238,5.353279 -1.83875,1.54255 -4.57815,-5.455325 c -5.76335,4.91907 -11.12945,10.285359 -16.04832,16.048879 l 5.45571,4.5775136 -1.54317,1.8385174 -5.35309,-4.49176 c -4.79252,5.8557718 -9.11603,12.08019031 -12.93035,18.6154274 l 5.97758,3.4515631 -1.20001,2.0783805 -5.92816,-3.4228116 c -3.71915,6.5824516 -6.91412,13.4475806 -9.55529,20.5317166 l 6.41622,2.33547 -0.82078,2.255651 -6.43421,-2.341799 c -2.54191,7.122524 -4.51878,14.434222 -5.91227,21.867244 l 6.79363,1.198048 -0.417,2.363845 -6.88748,-1.214872 c -1.20185,7.069362 -1.87397,14.218623 -2.01075,21.388115 l 14.22852,3.7e-5 1e-4,4.799867 -14.22853,-3.8e-5 c 0.1368,7.16929 0.80891,14.318348 2.01072,21.387512 l 6.8873,-1.21422 0.41716,2.36378 -6.79405,1.19798 c 1.39351,7.43321 3.37043,14.74509 5.91241,21.86779 l 6.43437,-2.34186 0.82113,2.25527 -6.41671,2.33524 c 2.64124,7.08417 5.83629,13.94934 9.55553,20.53181 l 5.92799,-3.42253 1.20019,2.07878 -5.97767,3.45121 c 3.81434,6.53528 8.13787,12.75973 12.93043,18.61553 l 5.35328,-4.49239 1.54255,1.83875 -5.45532,4.57815 c 4.91907,5.76335 10.28535,11.12946 16.04887,16.04833 l 4.57752,-5.45571 1.83851,1.54316 -4.49175,5.35309 c 5.53828,4.54959 11.40851,8.67935 17.56173,12.35483 l 7.06583,-12.23765 4.15676,2.40002 -7.00833,12.13881 c 6.26049,3.47346 12.7713,6.47519 19.47828,8.98022 l 2.33547,-6.41622 2.25565,0.82079 -2.3418,6.4342 c 7.12253,2.54191 14.43423,4.51878 21.86725,5.91227 l 1.19805,-6.79363 2.36384,0.417 -1.21487,6.88748 c 7.46246,1.29162 15.01518,1.99252 22.58788,2.09617 l -7e-5,-7.11391 2.39993,-4e-5 8e-5,7.11391 c 7.57263,-0.10367 15.12528,-0.80457 22.58767,-2.09619 l -1.21422,-6.8873 2.36378,-0.41716 1.19798,6.79405 c 7.43321,-1.39351 14.7451,-3.37043 21.8678,-5.91241 l -2.34186,-6.43437 2.25526,-0.82113 2.33524,6.41671 c 6.70703,-2.50501 13.21789,-5.50672 19.47843,-8.98018 l -7.00836,-12.13883 4.15712,-2.40011 7.06546,12.23774 c 6.15338,-3.67555 12.02374,-7.80539 17.56215,-12.35509 l -4.49194,-5.35354 1.8383,-1.54229 4.57816,5.45533 c 5.76335,-4.91907 11.12945,-10.28536 16.04832,-16.04888 l -5.45571,-4.57752 1.54316,-1.83851 5.35309,4.49176 c 4.79252,-5.85577 9.11603,-12.08019 12.93035,-18.61543 l -5.97757,-3.45156 1.2,-2.07838 5.92816,3.42281 c 3.71915,-6.58245 6.91413,-13.44758 9.5553,-20.53172 l -6.41623,-2.33547 0.82079,-2.25565 6.4342,2.3418 c 2.54191,-7.12253 4.51878,-14.43423 5.91227,-21.86725 l -6.79363,-1.19804 0.41701,-2.36385 6.88747,1.21487 c 1.20185,-7.069361 1.87397,-14.21862 2.01075,-21.388111 l -14.22852,-3.8e-5 -9e-5,-4.799866 14.34127,-1.6e-5 c -0.12065,-7.177581 -0.77785,-14.336092 -1.9661,-21.41566 l -7.04467,1.242423 -0.41716,-2.363784 7.05159,-1.242839 c -1.37029,-7.455407 -3.32713,-14.790975 -5.85228,-21.938312 l -6.75204,2.457239 -0.82087,-2.254815 6.72823,-2.448865 C 427.27503,21.597614 424.06442,14.718958 420.32738,8.1250512 L 414.134,11.700802 412.93381,9.6220201 419.1442,6.036451 c -3.84052,-6.5357476 -8.19114,-12.7580262 -13.01129,-18.608819 l -5.5054,4.6195892 -1.54229,-1.8383034 5.48004,-4.5983888 c -4.92024,-5.764944 -10.28793,-11.132443 -16.05306,-16.052468 l -4.59805,5.480094 -1.83851,-1.543162 4.61902,-5.504737 c -5.53721,-4.571664 -11.40862,-8.722754 -17.56509,-12.418531 l -7.18973,12.452992 -4.15676,-2.400013 7.17084,-12.420603 c -6.27557,-3.485932 -12.80302,-6.497706 -19.52777,-9.010131 l -2.4485,6.727921 -2.25565,-0.820787 2.45794,-6.751871 c -7.14722,-2.525348 -14.48268,-4.482405 -21.938,-5.852924 l -1.24343,7.051951 -2.36385,-0.417004 1.24244,-7.045409 c -7.47421,-1.259139 -15.03616,-1.9262 -22.61538,-1.994965 l 10e-6,7.170636 -2.39994,4.6e-5 -3.3e-4,-7.114357 c -7.57256,0.103829 -15.12513,0.80488 -22.58742,2.09663 l 1.21422,6.887303 -2.36378,0.417159 -1.19798,-6.79405 c -7.43321,1.393511 -14.74509,3.37043 -21.86779,5.912411 l 2.34186,6.43437 -2.25482,0.820871 -2.33569,-6.41645 c -6.70703,2.505004 -13.21789,5.506721 -19.47843,8.980176 z m 19.47843,-8.980176 c 0.74721,-0.285839 1.49678,-0.565445 2.24865,-0.838791 l -0.12038,-0.331489 -2.25526,0.82113 z m 24.11644,-6.751202 c 0.78108,-0.176662 1.56362,-0.346805 2.34754,-0.510412 l -0.036,-0.202964 -2.3636,0.416453 z m 24.93496,-2.607042 c 0.39884,-0.03032 0.79781,-0.05897 1.19689,-0.08596 l -1.19695,7.4e-5 z m 2.40026,-0.05633 -1.3e-4,-0.02916 -1.19119,-2.72e-4 c 0.39715,0.0082 0.79426,0.01798 1.19132,0.02944 z m 22.61538,1.994965 c 0.78941,0.130249 1.57771,0.267074 2.36484,0.410462 l 0.007,-0.03862 -2.36384,-0.417004 z m 24.30284,6.263386 c 0.75107,0.275335 1.49983,0.556924 2.24621,0.844737 l 0.0139,-0.03788 -2.2552,-0.821045 z m 21.77398,9.854868 c 1.40494,0.765953 2.79702,1.55527 4.17565,2.367624 l 0.0105,-0.01799 -4.1572,-2.399755 z m 21.74074,14.786155 c 0.61019,0.517543 1.21606,1.040163 1.81754,1.567805 l 0.03,-0.03584 -1.83871,-1.542457 z m 17.8706,17.620273 c 0.52759,0.601336 1.05016,1.207058 1.56765,1.817103 l 0.0102,-0.0082 -1.54255,-1.838751 z M 419.1442,6.036451 c 0.40019,0.6929007 0.7946,1.3891249 1.18318,2.0886002 l 0.0421,-0.024288 -1.20019,-2.0787817 z m 10.7851,22.660455 c 0.2878,0.746454 0.56937,1.495294 0.84468,2.246441 l 0.0138,-0.005 -0.82113,-2.255263 z m 6.69696,24.184753 c 0.14331,0.786914 0.28006,1.575008 0.41024,2.3642 l 0.0456,-0.0078 -0.41645,-2.363595 z m 2.37634,23.77986 c 0.0262,0.796851 0.0458,1.593906 0.0588,2.391083 l 2.5e-4,-2.391153 z m -0.11266,4.79992 0.17134,1.34e-4 3.5e-4,-2.397179 c -0.0506,0.799479 -0.10779,1.598521 -0.17169,2.397045 z m -2.01075,21.388111 c -0.16376,0.78375 -0.33404,1.56611 -0.51085,2.34702 l 0.29694,0.0523 0.417,-2.36384 z m -6.42312,24.21427 c -0.27333,0.75209 -0.55293,1.50189 -0.83876,2.24932 l 0.34957,0.12696 0.82105,-2.2552 z m -10.39406,22.78104 c -0.37767,0.70556 -0.76121,1.40796 -1.15059,2.10713 l 0.25782,0.1489 1.19975,-2.07882 z m -14.08094,20.72256 c -0.47482,0.64542 -0.95501,1.28687 -1.44054,1.92427 l 0.0602,0.0506 1.54245,-1.83871 z m -17.48886,17.97315 c -0.63749,0.48551 -1.27902,0.9657 -1.92452,1.4405 l 0.1359,0.16201 1.83875,-1.54255 z m -19.48667,13.79559 c -1.39185,0.79044 -2.79679,1.55761 -4.21422,2.3012 l 0.19172,0.33207 4.15712,-2.40011 z m -23.69265,11.28138 c -0.7472,0.28584 -1.49678,0.56544 -2.24864,0.83879 l 0.12037,0.33149 2.25526,-0.82113 z m -24.11644,6.7512 c -0.78108,0.17666 -1.56362,0.3468 -2.34754,0.51041 l 0.036,0.20297 2.3636,-0.41646 z m -24.93521,2.6066 c -0.39985,0.0303 -0.79982,0.0589 -1.19991,0.0859 l 1.20023,4.2e-4 z m -1.19991,0.0859 c -0.40013,-0.0269 -0.80014,-0.0556 -1.20003,-0.0859 l 6e-5,0.0859 z m -23.78791,-2.18204 c -0.78375,-0.16376 -1.56611,-0.33404 -2.34702,-0.51085 l -0.0523,0.29694 2.36384,0.417 z m -24.21427,-6.42312 c -0.75209,-0.27334 -1.50189,-0.55294 -2.24932,-0.83877 l -0.12696,0.34958 2.25565,0.82079 z m -21.7276,-9.81899 c -1.41745,-0.74358 -2.82239,-1.51075 -4.21426,-2.30118 l -0.1344,0.23334 4.15721,2.39975 z m -21.77599,-14.65601 c -0.64542,-0.47482 -1.28687,-0.95501 -1.92428,-1.44054 l -0.0506,0.0602 1.83871,1.54245 z m -17.97315,-17.48887 c -0.48552,-0.63748 -0.9657,-1.27901 -1.44051,-1.92451 l -0.16201,0.1359 1.54255,1.83875 z m -14.37094,-20.54004 c -0.38935,-0.69928 -0.77287,-1.40179 -1.15051,-2.10746 l -0.30701,0.17725 1.20019,2.07878 z M 160.50543,129.3129 c -0.28584,-0.74721 -0.56544,-1.49678 -0.83879,-2.24865 l -0.33149,0.12038 0.82113,2.25526 z m -6.7512,-24.11644 c -0.17666,-0.78108 -0.3468,-1.56362 -0.51041,-2.34754 l -0.20297,0.036 0.41646,2.3636 z M 151.2331,81.461418 c -0.064,-0.79844 -0.12125,-1.5974 -0.17188,-2.396796 l 1e-4,2.39692 z m -9e-5,-4.799866 -0.17133,-1.35e-4 -3.5e-4,2.397179 c 0.0506,-0.799478 0.10779,-1.598521 0.17168,-2.397044 z m 2.01075,-21.388115 c 0.16376,-0.783747 0.33404,-1.566114 0.51085,-2.347021 l -0.29694,-0.05233 -0.417,2.363845 z m 6.42312,-24.214265 c 0.27334,-0.752092 0.55294,-1.501892 0.83877,-2.249322 l -0.34958,-0.126959 -0.82079,2.255652 z M 170.06094,8.2781334 c 0.37767,-0.7055623 0.76121,-1.4079641 1.15059,-2.107132 l -0.25782,-0.1489039 -1.19975,2.0788276 z m 14.08094,-20.7225594 c 0.47482,-0.64542 0.95502,-1.286866 1.44055,-1.924271 l -0.0602,-0.05056 -1.54246,1.838707 z m 17.48887,-17.97315 c 0.63749,-0.485514 1.27902,-0.965699 1.92452,-1.440504 l -0.13591,-0.16201 -1.83875,1.54255 z m 32.32274,3.494821 c 2.10153,-1.213316 4.21754,-1.834405 6.34779,-1.863436 2.13026,-0.02903 4.1556,0.548478 6.07626,1.732161 1.90491,1.156387 3.57422,2.976453 5.00814,5.460076 1.79634,3.111352 2.55802,6.037517 2.28487,8.778921 -0.26162,2.698345 -1.44921,5.021593 -3.5631,6.9698516 l 5.64901,9.7843711 -6.1003,3.5220071 -5.649,-9.7843712 c -2.65078,0.7662313 -5.25044,0.6116483 -7.79996,-0.4636905 -2.52224,-1.0910979 -4.68165,-3.1923669 -6.478,-6.3037186 -2.14299,-3.7117885 -2.82078,-7.1234065 -2.03329,-10.2345385 0.78748,-3.111126 2.87331,-5.643716 6.25758,-7.597633 z m 2.75437,4.959833 c -1.61027,0.929684 -2.46069,2.166939 -2.55154,3.711381 -0.0793,1.501392 0.51901,3.357713 1.79536,5.568412 1.27633,2.210699 2.60032,3.6838837 3.97173,4.4204807 1.38295,0.6935459 2.89309,0.5679286 4.53064,-0.3775162 1.61027,-0.9296846 2.44726,-2.1591835 2.51081,-3.6878685 0.0751,-1.571735 -0.5253,-3.462677 -1.80165,-5.673376 -1.27635,-2.210697 -2.59824,-3.649262 -3.96544,-4.315517 -1.35564,-0.709303 -2.85236,-0.591441 -4.48991,0.354004 z m -55.21163,33.725043 108.77159,62.799387 3.92821,1.36e-4 10.26773,-17.784663 5.19595,3.000016 -8.53591,14.784631 71.93788,-8.4e-5 -1.8e-4,8.999654 -67.20609,-8.9e-5 15.9368,9.201363 -1.5001,2.598329 -20.43724,-11.799766 -3.92679,2.42e-4 -44.51002,77.092333 6.71613,11.63267 c 1.13872,1.97232 2.16008,3.70994 3.06386,5.21376 0.8961,1.49048 1.64813,2.5937 2.25635,3.30865 l -5.99692,3.46233 -7.67498,-13.29347 c -0.62001,0.92656 -1.36391,1.85398 -2.23205,2.78164 -0.86813,0.92766 -2.21507,1.91855 -4.04079,2.97262 -1.49257,0.86174 -3.09132,1.38498 -4.79685,1.57008 -1.70553,0.18511 -3.33794,-0.0718 -4.89663,-0.77108 -1.54535,-0.70697 -2.83709,-1.96016 -3.87578,-3.75923 -1.13872,-1.97231 -2.22564,-3.82351 -3.26024,-5.55388 -1.03459,-1.73035 -1.85587,-2.9535 -2.46408,-3.66847 l 5.99691,-3.46232 1.36194,2.35894 1.69653,2.93848 1.67354,2.89866 c 0.86174,1.49257 1.90411,2.43663 3.12743,2.832 1.22893,0.37436 2.48973,0.18799 3.7824,-0.55834 1.35929,-0.78478 2.46635,-1.63717 3.32116,-2.55714 0.20745,-0.22168 0.36184,-0.43007 0.54445,-0.64551 l -4.25701,-2.4579 2.69254,-4.66398 -3.54862,-6.14639 5.99692,-3.46232 c 0.25408,0.71311 0.80769,1.78995 1.41009,2.92604 l 40.98524,-70.988346 -17.93816,1.36e-4 1.8e-4,-8.999655 13.20521,1.07e-4 -104.2707,-60.201243 z m 118.35809,71.798916 6.00054,7.4e-5 z m -10.85472,6.7e-5 6.92848,1.73e-4 z M 174.99769,59.965224 c 2.09027,-1.206813 4.12487,-1.913996 6.10429,-2.120857 1.97943,-0.206883 3.81728,0.145465 5.51317,1.056582 1.68795,0.897356 3.13996,2.398969 4.3558,4.504853 1.22377,2.119637 1.82911,4.210747 1.81593,6.273776 -0.008,2.041805 -0.57401,3.937723 -1.69717,5.687289 -1.12315,1.749573 -2.74906,3.238863 -4.87804,4.468026 -1.3548,0.782193 -2.67189,1.451053 -3.95132,2.006214 l 1.04877,1.816529 c 1.1761,2.037061 2.22983,3.832899 3.16156,5.387086 0.94461,1.546739 1.71579,2.688963 2.31366,3.426535 l -6.09627,3.519681 c -0.33486,-0.907776 -0.93848,-2.146728 -1.81064,-3.716956 -0.8801,-1.583987 -1.90892,-3.394209 -3.08502,-5.43127 l -3.63311,-6.292734 5.5458,-3.201871 c 2.7e-4,-9.7e-5 6.1e-4,-3.97e-4 9e-4,-5.17e-4 0.44584,-0.168487 0.96187,-0.394334 1.55286,-0.681731 0.59653,-0.307685 1.19102,-0.633334 1.78455,-0.976009 1.87091,-1.080173 3.03065,-2.364581 3.47884,-3.852935 0.44025,-1.502105 0.12363,-3.18204 -0.94916,-5.040172 -0.86618,-1.500264 -2.00767,-2.465065 -3.42543,-2.894447 -1.40487,-0.436842 -3.12682,-0.06661 -5.16547,1.110412 -0.74837,0.432068 -1.34685,0.795777 -1.79544,1.091496 -0.45656,0.281954 -0.9478,0.592951 -1.47387,0.933282 l 0.002,0.0036 -5.5476,3.202905 c -0.13168,-0.222071 -0.2719,-0.463442 -0.40178,-0.680399 -1.03503,-1.733125 -1.86185,-2.971739 -2.48057,-3.715639 0.80988,-0.504304 1.7806,-1.101706 2.91306,-1.79225 1.12451,-0.704312 2.28975,-1.413422 3.49467,-2.12744 1.20992,-0.735151 2.31144,-1.389411 3.30496,-1.963019 z m 152.47696,-88.032606 19.48864,-11.251767 2.52594,4.375063 c -0.79352,1.748534 -1.56507,3.687897 -2.31512,5.817914 -0.75564,2.150916 -1.36987,4.317212 -1.84245,6.499151 -0.48585,2.18959 -0.72638,4.237478 -0.72169,6.143869 0.0124,1.919638 0.38585,3.515671 1.12066,4.788403 0.68123,1.179923 1.6283,1.9941798 2.84173,2.4425961 1.2211,0.4616691 2.59418,0.2523968 4.1188,-0.6278413 1.21969,-0.7041918 2.31348,-1.7948918 3.28099,-3.2726778 0.9675,-1.477781 1.58534,-3.010022 1.85361,-4.596727 l 4.04786,4.026263 c -0.18121,1.094521 -0.59371,2.216775 -1.23799,3.366522 -0.65753,1.1574075 -1.46752,2.2348652 -2.42957,3.2322228 -0.96766,1.0182641 -2.01485,1.8524698 -3.14174,2.5030819 -1.92236,1.1098709 -3.80505,1.737628 -5.64815,1.8825625 -1.8487,0.165829 -3.53714,-0.1413952 -5.06535,-0.9207024 -1.52822,-0.7793049 -2.78617,-2.0238818 -3.77357,-3.7341111 -0.93382,-1.6174263 -1.47824,-3.4331467 -1.63342,-5.4470917 -0.16077,-1.993034 -0.0672,-4.035661 0.28045,-6.127803 0.34766,-2.092134 0.82289,-4.116342 1.4256,-6.072906 0.5971,-1.935651 1.1866,-3.654807 1.76855,-5.157457 l -5.27012,3.042708 c -1.31251,0.757775 -2.36906,1.376403 -3.17013,1.85653 -0.80109,0.480137 -1.46851,0.901017 -2.00236,1.262276 -0.53385,0.361258 -1.03936,0.741266 -1.51608,1.140248 z m -74.25958,55.932741 c 0.24767,-0.142992 0.48974,-0.212949 0.72593,-0.210267 0.23894,-0.0076 0.4301,0.112441 0.57309,0.360112 0.1731,0.29981 0.22412,0.591561 0.1535,0.875655 -0.0706,0.284094 -0.28825,0.53161 -0.65324,0.742336 -0.26071,0.150519 -0.50751,0.227646 -0.73993,0.231481 -0.22967,-0.0064 -0.4161,-0.133656 -0.55909,-0.381325 -0.18815,-0.325882 -0.23636,-0.628131 -0.14518,-0.906716 0.0912,-0.278585 0.306,-0.515602 0.64492,-0.711276 z M 274.03914,15.84258 c 0.24767,-0.142993 0.48974,-0.212949 0.72592,-0.210267 0.23894,-0.0076 0.42966,0.1127 0.57265,0.360369 0.1731,0.299812 0.22456,0.591304 0.15395,0.875398 -0.0706,0.284093 -0.2887,0.531868 -0.65369,0.742594 -0.26071,0.150518 -0.50707,0.227387 -0.73949,0.231223 -0.22966,-0.0064 -0.41609,-0.133655 -0.55909,-0.381326 -0.18814,-0.325882 -0.2368,-0.627874 -0.14562,-0.906457 0.0912,-0.278585 0.30645,-0.515861 0.64537,-0.711534 z m 4.34967,-2.354948 c 0.25419,-0.146754 0.51686,-0.263508 0.78812,-0.350596 0.26749,-0.09361 0.50746,-0.145192 0.71931,-0.154537 l 0.25867,1.532186 c -0.11759,0.0071 -0.23914,0.02962 -0.36499,0.06752 -0.11934,0.03414 -0.23128,0.08102 -0.33557,0.141226 -0.24115,0.13923 -0.32182,0.33813 -0.24226,0.596351 l 0.11935,0.387578 1.00694,-0.58136 0.48868,1.568851 -0.9971,0.575675 1.66359,5.139675 c 0.12774,0.386828 0.18428,0.762941 0.16911,1.128002 -0.005,0.367814 -0.1073,0.709399 -0.30753,1.024876 -0.19646,0.321992 -0.51652,0.610885 -0.95972,0.866767 -0.16945,0.09784 -0.3559,0.188326 -0.55996,0.271382 -0.20406,0.08305 -0.37105,0.140128 -0.50067,0.17151 l -0.83535,-1.446868 c 0.1063,-0.02661 0.21185,-0.06152 0.31714,-0.104929 0.10905,-0.03689 0.20595,-0.08012 0.29068,-0.12904 0.23464,-0.135467 0.38272,-0.285736 0.4436,-0.451234 0.0674,-0.169261 0.0655,-0.368142 -0.005,-0.59653 l -1.56327,-4.806751 -0.79168,0.457078 -0.32006,-1.027722 0.63418,-0.978962 -0.12477,-0.396977 c -0.21685,-0.691679 -0.24137,-1.268477 -0.0735,-1.730365 0.17436,-0.465652 0.5351,-0.856714 1.08258,-1.172803 z m -17.25612,10.028464 1.84741,-1.066601 1.16398,3.550874 c 0.0625,0.198554 0.1231,0.424435 0.18211,0.677147 0.0655,0.248949 0.11094,0.439817 0.13581,0.573195 l 0.0389,-0.02248 0.58604,-3.296829 2.1119,-1.219306 -0.93538,3.798665 3.02016,2.205923 -2.09176,1.207678 -1.74301,-1.483143 -0.33209,0.530666 0.59869,1.80488 -1.84786,1.06686 z M 241.80173,37.24446 c 0.35196,-0.2032 0.69918,-0.347178 1.0414,-0.431782 0.34872,-0.08837 0.70871,-0.126728 1.08029,-0.115314 l 0.11741,1.535571 c -0.25023,-0.01196 -0.51562,0.0023 -0.79642,0.04271 -0.27427,0.03669 -0.50585,0.109464 -0.69486,0.21859 -0.24116,0.139229 -0.29994,0.316619 -0.17576,0.531701 0.0527,0.09125 0.14872,0.144353 0.28786,0.159602 0.14568,0.01149 0.36127,0.0089 0.64684,-0.0083 0.92014,-0.06197 1.57216,0.239494 1.95598,0.904294 0.38759,0.671316 0.45731,1.295662 0.20878,1.873661 -0.24578,0.567721 -0.73708,1.064624 -1.47357,1.489839 -0.35847,0.206963 -0.6959,0.366875 -1.01278,0.480304 -0.31036,0.109666 -0.59846,0.17573 -0.86347,0.19838 l -0.85783,-1.485803 c 0.38737,-0.0064 0.72348,-0.04872 1.00878,-0.126533 0.28806,-0.0881 0.56264,-0.207285 0.82334,-0.357804 0.0782,-0.04516 0.16244,-0.102657 0.25268,-0.172137 0.093,-0.07976 0.16236,-0.162991 0.20771,-0.250007 0.0519,-0.09078 0.0494,-0.185195 -0.007,-0.282958 -0.0414,-0.07169 -0.0952,-0.127564 -0.16169,-0.167408 -0.0665,-0.03984 -0.17432,-0.06837 -0.32376,-0.08637 -0.14943,-0.018 -0.36887,-0.02205 -0.6582,-0.01143 -0.44804,0.0067 -0.81836,-0.062 -1.11025,-0.206321 -0.28914,-0.154605 -0.53128,-0.401375 -0.72696,-0.740293 -0.29351,-0.508375 -0.35143,-1.022113 -0.17358,-1.541922 0.1806,-0.530089 0.64906,-1.013802 1.40509,-1.450306 z m 29.00673,-16.747039 c 0.33892,-0.195673 0.65415,-0.281842 0.9455,-0.258868 0.28759,0.01646 0.54807,0.113627 0.7813,0.291817 0.22947,0.171673 0.42482,0.397844 0.58663,0.678102 0.10536,0.182494 0.19969,0.375592 0.28275,0.579656 0.0896,0.200299 0.16701,0.394875 0.23225,0.583149 l 1.05338,3.223894 -1.84786,1.066859 -1.08874,-3.307896 c -0.0294,-0.09602 -0.07,-0.211548 -0.12198,-0.346672 -0.0557,-0.141642 -0.11553,-0.268306 -0.1795,-0.379106 -0.079,-0.13687 -0.17301,-0.217183 -0.28233,-0.240967 -0.11309,-0.0303 -0.21845,-0.01709 -0.31621,0.03935 -0.18249,0.105363 -0.28601,0.317456 -0.31073,0.635883 -0.022,0.308148 0.0574,0.731434 0.23807,1.270183 l 0.96631,2.961483 -1.8474,1.066601 -1.97737,-6.0666 1.47596,-0.852144 0.37597,0.786595 0.0394,-0.02274 c -8.8e-4,-0.40793 0.0782,-0.7449 0.23753,-1.01072 0.1659,-0.269581 0.41817,-0.502192 0.75709,-0.697866 z m 12.57249,-7.258729 c 0.60614,-0.349956 1.16134,-0.48771 1.66482,-0.413406 0.50348,0.0743 0.88639,0.339478 1.14979,0.795713 0.34243,0.593105 0.38783,1.206063 0.13581,1.83822 -0.25203,0.632159 -0.88323,1.239704 -1.89346,1.822964 l -0.28329,0.163555 0.0452,0.07832 c 0.27093,0.469271 0.66686,0.55361 1.18827,0.252573 0.27374,-0.158044 0.50682,-0.349108 0.69906,-0.573066 0.19875,-0.227722 0.39699,-0.494502 0.59446,-0.799698 l 0.75629,1.309923 c -0.20399,0.308959 -0.43603,0.599687 -0.69619,0.871555 -0.25365,0.268107 -0.61525,0.537806 -1.08452,0.808738 -0.68435,0.395112 -1.32168,0.510479 -1.91144,0.346946 -0.59352,-0.170053 -1.08208,-0.587483 -1.4659,-1.252281 -0.25589,-0.4432 -0.44028,-0.905508 -0.55351,-1.387615 -0.11048,-0.492389 -0.1328,-0.975217 -0.0668,-1.447855 0.066,-0.472636 0.23678,-0.914609 0.51219,-1.325634 0.27817,-0.421307 0.68123,-0.784151 1.20916,-1.08895 z m -39.01019,22.65322 1.74045,-1.004848 1.52394,2.639538 c 0.1016,0.175976 0.19829,0.358834 0.29062,0.548854 0.0923,0.190019 0.17539,0.363598 0.2489,0.521028 l 0.0389,-0.02248 c -0.0512,-0.179001 -0.0957,-0.36155 -0.13384,-0.548077 -0.0419,-0.193045 -0.0799,-0.371049 -0.11333,-0.53426 l -0.55515,-3.355204 1.94541,-1.123187 1.39837,2.738294 c 0.0499,0.101528 0.12453,0.245085 0.22337,0.431342 0.0988,0.186257 0.19728,0.394141 0.29539,0.624275 l 0.0389,-0.02248 c -0.0542,-0.229396 -0.10043,-0.436972 -0.1386,-0.623499 -0.0354,-0.196808 -0.07,-0.407267 -0.10363,-0.631154 l -0.43299,-3.256269 1.83801,-1.061176 0.55019,6.890581 -2.01434,1.162978 -1.16763,-2.180521 c -0.12995,-0.255196 -0.28071,-0.554735 -0.45306,-0.898422 -0.17613,-0.350207 -0.32643,-0.663314 -0.45088,-0.93907 l -0.0394,0.02274 c 0.0891,0.304853 0.16791,0.637052 0.23673,0.99707 0.0688,0.360019 0.12393,0.658873 0.16513,0.895795 l 0.44795,2.830532 -1.94542,1.123187 z m 8.80875,-5.085736 1.85726,-1.072286 1.96797,6.072026 -1.84786,1.06686 z m 2.6297,-1.518253 2.01389,-1.16272 1.22556,1.286618 0.0262,-2.009313 2.18977,-1.264264 -0.63336,4.028263 2.62057,2.032653 -2.04342,1.179773 -1.28435,-1.34398 -0.1039,2.145481 -2.16068,1.247469 0.66706,-4.060846 z m 18.19392,-10.504268 1.8577,-1.072544 1.96753,6.072284 -1.84741,1.066601 z m 9.89484,-4.175069 c -0.14339,0.08278 -0.24456,0.215437 -0.30442,0.397734 -0.0533,0.178532 -0.0706,0.375116 -0.051,0.58973 0.0159,0.208096 0.0599,0.404214 0.13165,0.588725 l 0.13694,-0.07906 c 0.41713,-0.24083 0.66198,-0.486305 0.73461,-0.736801 0.0689,-0.257015 0.0563,-0.46684 -0.0378,-0.629781 -0.0602,-0.104282 -0.14152,-0.170323 -0.24433,-0.19787 -0.10656,-0.03407 -0.22882,-0.01169 -0.36569,0.06733 z m 110.04004,51.620479 c 1.76491,-1.018981 3.63075,-1.570026 5.59731,-1.653316 1.94614,-0.08932 3.79711,0.330963 5.55298,1.260939 1.73545,0.923923 3.17848,2.38196 4.329,4.374727 0.91888,1.591537 1.35912,3.263507 1.32088,5.015313 -0.0382,1.751822 -0.52309,3.404641 -1.45427,4.958702 -0.9516,1.548009 -2.30951,2.831731 -4.07445,3.850715 -1.21894,0.703756 -2.52536,1.109839 -3.91848,1.218697 -1.18598,0.08626 -2.37088,0.0065 -3.55518,-0.234599 0.92436,1.407437 1.82197,2.574731 2.69153,3.488821 1.27166,1.352197 2.48618,2.282479 3.64335,2.791306 1.1572,0.508837 2.2655,0.698222 3.3247,0.568162 1.03878,-0.136107 2.02779,-0.475582 2.96741,-1.018067 0.91419,-0.527812 1.78394,-1.235027 2.60944,-2.121768 0.8128,-0.879417 1.38484,-1.985433 1.71598,-3.317885 l 3.98199,4.521965 c -1.09537,2.237329 -2.89378,4.078449 -5.39516,5.522615 -2.26012,1.304888 -4.4492,1.9265 -6.56693,1.865245 -2.12545,-0.07463 -4.12361,-0.633046 -5.99479,-1.674772 -1.88387,-1.034399 -3.59023,-2.376473 -5.11841,-4.026368 -1.52819,-1.649893 -2.82495,-3.397435 -3.89053,-5.243083 -1.07331,-1.859023 -1.89928,-3.744871 -2.47858,-5.657285 -0.58704,-1.925785 -0.84384,-3.792655 -0.77026,-5.600539 0.0609,-1.800554 0.53138,-3.463131 1.41177,-4.987869 0.85997,-1.530774 2.21688,-2.831355 4.0707,-3.901656 z m 3.02656,4.538334 c -3.34422,1.93079 -3.87232,5.306799 -1.59723,10.121611 0.69321,0.1661 1.41821,0.267199 2.17787,0.296432 1.6795,0.06461 3.25578,-0.328279 4.72866,-1.178654 1.4221,-0.821048 2.30194,-1.935784 2.64028,-3.343729 0.33064,-1.421323 0.0752,-2.860814 -0.76647,-4.318608 -0.67951,-1.176938 -1.69426,-1.937501 -3.04415,-2.28158 -1.34986,-0.344079 -2.72956,-0.10919 -4.13896,0.704528 z m -56.49491,86.483971 c 2.25378,-1.30121 4.43565,-1.91561 6.54555,-1.84335 2.10225,0.059 4.17873,0.94609 6.22949,2.66108 2.05636,1.69408 4.12953,4.35068 6.21915,7.96999 2.21209,3.83146 3.49681,7.12877 3.8547,9.89184 0.36349,2.74217 0.002,5.05458 -1.08524,6.93735 -1.08163,1.86185 -2.68986,3.40934 -4.82432,4.64168 -2.10797,1.21703 -4.21229,1.81298 -6.31249,1.78816 -2.10785,-0.0381 -4.21615,-0.88907 -6.32553,-2.55252 -2.11705,-1.67672 -4.23594,-4.351 -6.35618,-8.02336 -2.15849,-3.73863 -3.41274,-6.98315 -3.76297,-9.73296 -0.35789,-2.76308 -0.0111,-5.10194 1.03995,-7.01682 1.06428,-1.92254 2.65667,-3.4964 4.77789,-4.72109 z m 2.44222,4.68894 c -1.61743,0.93382 -2.37254,2.47431 -2.26424,4.62137 0.10064,2.13382 1.1503,4.93071 3.14807,8.39095 2.12024,3.67235 4.09645,6.14615 5.92879,7.42158 1.82467,1.26219 3.57225,1.411 5.24271,0.44656 1.61743,-0.93383 2.37209,-2.47405 2.26379,-4.62112 -0.1083,-2.14707 -1.15796,-4.94397 -3.14807,-8.39094 -2.12789,-3.68562 -4.09723,-6.16339 -5.90864,-7.43321 -1.79817,-1.27749 -3.55218,-1.42259 -5.26241,-0.43519 z"
     transform="rotate(29.999998)"
     sodipodi:nodetypes="cccccccccccccccccccccccccccccccccccccccccccccccccccccccccccccccccccccccccccccccccccccccccccccccccccccccccccccccccccccccccccccccccccccccccccccccccccccccccccccccccccccccccccccccccccccccccccccccccccccccccccccccccccccccccccccccccccccccccccccccccccccccccccccccccccccccccccccccccccccccccccccccccccccccccccccccccccccccccccccccccccccccccccccscccsscsccccccsssscscscscsccccccccccccccsccccssscssccccscsccccccccccccccccccccccscsscsccccsccccscscsccccccccsccccccscssccccscsscsccsssccsccsscssssccsscssssccccsccccccccsscccsccccccccsccccccccccccccccsccscssccscsccccsccsssccscssccsscccccscscccccccccsssssscssccccscscscsccsscccccccsccccccccccccscccccccccccccccscccccccccccscccscscssccsscssccscscccsccsscccsscsscssssccsccsscsccsscscssscsscssscc" />
</svg>
