<?xml version="1.0" encoding="UTF-8" standalone="no"?>
<svg
   id="now-icon"
   width="432mm"
   height="432mm"
   viewBox="0 0 432 432"
   version="1.1"
   sodipodi:docname="now-icon.svg"
   inkscape:version="1.3.2 (091e20ef0f, 2023-11-25, custom)"
   inkscape:export-filename="now-icon.png"
   inkscape:export-xdpi="96"
   inkscape:export-ydpi="96"
   xmlns:inkscape="http://www.inkscape.org/namespaces/inkscape"
   xmlns:sodipodi="http://sodipodi.sourceforge.net/DTD/sodipodi-0.dtd"
   xmlns="http://www.w3.org/2000/svg"
   xmlns:svg="http://www.w3.org/2000/svg">
  <defs
     id="defs5" />
  <sodipodi:namedview
     id="sezimal_time_view"
     pagecolor="#ffffff"
     bordercolor="#000000"
     borderopacity="0.25"
     inkscape:showpageshadow="2"
     inkscape:pageopacity="0.0"
     inkscape:pagecheckerboard="0"
     inkscape:deskcolor="#d1d1d1"
     inkscape:zoom="0.39187386"
     inkscape:cx="733.65445"
     inkscape:cy="543.54225"
     inkscape:window-width="1920"
     inkscape:window-height="944"
     inkscape:window-x="0"
     inkscape:window-y="32"
     inkscape:window-maximized="1"
     inkscape:current-layer="g3"
     inkscape:document-units="mm" />
  <g
     id="g3"
     inkscape:label="face"
     style="display:inline">
    <rect
       style="fill:#d40000;stroke-width:64.8988;stroke-linecap:round;stroke-linejoin:round"
       id="rect8"
       width="432"
       height="432"
       x="0"
       y="0"
       inkscape:label="background_red" />
    <circle
       style="fill:#ffffff;stroke-width:19.2613;stroke-linecap:round;-inkscape-stroke:none"
       id="background_white"
       cx="295.06146"
       cy="79.061485"
       r="143.99998"
       transform="rotate(29.999998)"
       inkscape:label="background_white" />
    <rect
       style="fill:#000000;fill-opacity:1;stroke:none;stroke-width:0.977899;stroke-dasharray:none;stroke-opacity:1"
       id="smaller_marker_55"
       width="2.3999999"
       height="7.1999993"
       x="-176.41048"
       y="-394.22647"
       transform="rotate(170)"
       inkscape:label="smaller_marker_55" />
    <rect
       style="fill:#000000;fill-opacity:1;stroke:none;stroke-width:0.977899;stroke-dasharray:none;stroke-opacity:1"
       id="rect54"
       width="2.3999999"
       height="7.1999993"
       x="-130.29726"
       y="-420.84995"
       transform="rotate(160)"
       inkscape:label="smaller_marker_54" />
    <rect
       style="fill:#000000;fill-opacity:1;stroke:none;stroke-width:0.977899;stroke-dasharray:none;stroke-opacity:1"
       id="rect51"
       width="2.3999999"
       height="7.1999993"
       x="-80.261482"
       y="-439.06149"
       transform="rotate(150)"
       inkscape:label="smaller_marker_53" />
    <rect
       style="fill:#000000;fill-opacity:1;stroke:none;stroke-width:0.977899;stroke-dasharray:none;stroke-opacity:1"
       id="rect48"
       width="2.3999996"
       height="7.1999993"
       x="-27.823467"
       y="-448.30771"
       transform="rotate(140)"
       inkscape:label="smaller_marker_52" />
    <rect
       style="fill:#000000;fill-opacity:1;stroke:none;stroke-width:0.977899;stroke-dasharray:none;stroke-opacity:1"
       id="rect45"
       width="2.3999996"
       height="7.1999998"
       x="25.423487"
       y="-448.30771"
       transform="rotate(130)"
       inkscape:label="smaller_marker_51" />
    <rect
       style="fill:#000000;fill-opacity:1;stroke:none;stroke-width:0.977899;stroke-dasharray:none;stroke-opacity:1"
       id="rect42"
       width="2.3999999"
       height="7.1999998"
       x="127.89726"
       y="-420.84995"
       transform="rotate(110)"
       inkscape:label="smaller_marker_45" />
    <rect
       style="fill:#000000;fill-opacity:1;stroke:none;stroke-width:0.977899;stroke-dasharray:none;stroke-opacity:1"
       id="rect39"
       width="2.3999999"
       height="7.1999998"
       x="174.01047"
       y="-394.2265"
       transform="rotate(100)"
       inkscape:label="smaller_marker_44" />
    <rect
       style="fill:#000000;fill-opacity:1;stroke:none;stroke-width:0.977899;stroke-dasharray:none;stroke-opacity:1"
       id="rect36"
       width="2.3999999"
       height="7.1999998"
       x="214.8"
       y="-360"
       transform="rotate(90)"
       inkscape:label="smaller_marker_43" />
    <rect
       style="fill:#000000;fill-opacity:1;stroke:none;stroke-width:0.977899;stroke-dasharray:none;stroke-opacity:1"
       id="rect33"
       width="2.3999999"
       height="7.1999998"
       x="249.02647"
       y="-319.21048"
       transform="rotate(79.999999)"
       inkscape:label="smaller_marker_42" />
    <rect
       style="fill:#000000;fill-opacity:1;stroke:none;stroke-width:0.977899;stroke-dasharray:none;stroke-opacity:1"
       id="rect30"
       width="2.3999999"
       height="7.1999998"
       x="275.64996"
       y="-273.09723"
       transform="rotate(69.999999)"
       inkscape:label="smaller_marker_41" />
    <rect
       style="fill:#000000;fill-opacity:1;stroke:none;stroke-width:0.977899;stroke-dasharray:none;stroke-opacity:1"
       id="rect27"
       width="2.3999996"
       height="7.1999998"
       x="303.10773"
       y="-170.62346"
       transform="rotate(49.999998)"
       inkscape:label="smaller_marker_35" />
    <rect
       style="fill:#000000;fill-opacity:1;stroke:none;stroke-width:0.977899;stroke-dasharray:none;stroke-opacity:1"
       id="rect24"
       width="2.3999996"
       height="7.1999993"
       x="303.10773"
       y="-117.37649"
       transform="rotate(39.999998)"
       inkscape:label="smaller_marker_34" />
    <rect
       style="fill:#000000;fill-opacity:1;stroke:none;stroke-width:0.977899;stroke-dasharray:none;stroke-opacity:1"
       id="rect21"
       width="2.3999999"
       height="7.1999993"
       x="293.86148"
       y="-64.938492"
       transform="rotate(29.999998)"
       inkscape:label="smaller_marker_33" />
    <rect
       style="fill:#000000;fill-opacity:1;stroke:none;stroke-width:0.977899;stroke-dasharray:none;stroke-opacity:1"
       id="rect18"
       width="2.3999999"
       height="7.1999993"
       x="275.64996"
       y="-14.902721"
       transform="rotate(19.999998)"
       inkscape:label="smaller_marker_32" />
    <rect
       style="fill:#000000;fill-opacity:1;stroke:none;stroke-width:0.977899;stroke-dasharray:none;stroke-opacity:1"
       id="smaller_marker_31"
       width="2.3999999"
       height="7.1999993"
       x="249.02649"
       y="31.210495"
       transform="rotate(9.9999993)"
       inkscape:label="smaller_marker_31" />
    <rect
       style="fill:#000000;fill-opacity:1;stroke:none;stroke-width:0.977899;stroke-dasharray:none;stroke-opacity:1"
       id="rect58"
       width="2.3999999"
       height="7.1999993"
       x="-176.41048"
       y="-113.42651"
       transform="rotate(170)"
       inkscape:label="smaller_marker_25" />
    <rect
       style="fill:#000000;fill-opacity:1;stroke:none;stroke-width:0.977899;stroke-dasharray:none;stroke-opacity:1"
       id="rect55"
       width="2.3999999"
       height="7.1999993"
       x="-130.29726"
       y="-140.04999"
       transform="rotate(160)"
       inkscape:label="smaller_marker_24" />
    <rect
       style="fill:#000000;fill-opacity:1;stroke:none;stroke-width:0.977899;stroke-dasharray:none;stroke-opacity:1"
       id="rect52"
       width="2.3999999"
       height="7.1999993"
       x="-80.261482"
       y="-158.26151"
       transform="rotate(150)"
       inkscape:label="smaller_marker_23" />
    <rect
       style="fill:#000000;fill-opacity:1;stroke:none;stroke-width:0.977899;stroke-dasharray:none;stroke-opacity:1"
       id="rect49"
       width="2.3999996"
       height="7.1999993"
       x="-27.823467"
       y="-167.50775"
       transform="rotate(140)"
       inkscape:label="smaller_marker_22" />
    <rect
       style="fill:#000000;fill-opacity:1;stroke:none;stroke-width:0.977899;stroke-dasharray:none;stroke-opacity:1"
       id="rect46"
       width="2.3999996"
       height="7.1999998"
       x="25.423487"
       y="-167.50775"
       transform="rotate(130)"
       inkscape:label="smaller_marker_21" />
    <rect
       style="fill:#000000;fill-opacity:1;stroke:none;stroke-width:0.977899;stroke-dasharray:none;stroke-opacity:1"
       id="rect43"
       width="2.3999999"
       height="7.1999998"
       x="127.89726"
       y="-140.04999"
       transform="rotate(110)"
       inkscape:label="smaller_marker_15" />
    <rect
       style="fill:#000000;fill-opacity:1;stroke:none;stroke-width:0.977899;stroke-dasharray:none;stroke-opacity:1"
       id="rect40"
       width="2.3999999"
       height="7.1999998"
       x="174.01047"
       y="-113.4265"
       transform="rotate(100)"
       inkscape:label="smaller_marker_14" />
    <rect
       style="fill:#000000;fill-opacity:1;stroke:none;stroke-width:0.977899;stroke-dasharray:none;stroke-opacity:1"
       id="rect37"
       width="2.3999999"
       height="7.1999998"
       x="214.8"
       y="-79.20002"
       transform="rotate(90)"
       inkscape:label="smaller_marker_13" />
    <rect
       style="fill:#000000;fill-opacity:1;stroke:none;stroke-width:0.977899;stroke-dasharray:none;stroke-opacity:1"
       id="rect34"
       width="2.3999999"
       height="7.1999998"
       x="249.02647"
       y="-38.41048"
       transform="rotate(79.999999)"
       inkscape:label="smaller_marker_12" />
    <rect
       style="fill:#000000;fill-opacity:1;stroke:none;stroke-width:0.977899;stroke-dasharray:none;stroke-opacity:1"
       id="rect31"
       width="2.3999999"
       height="7.1999998"
       x="275.64996"
       y="7.7027345"
       transform="rotate(69.999999)"
       inkscape:label="smaller_marker_11" />
    <rect
       style="fill:#000000;fill-opacity:1;stroke:none;stroke-width:0.977899;stroke-dasharray:none;stroke-opacity:1"
       id="rect28"
       width="2.3999996"
       height="7.1999998"
       x="303.10773"
       y="110.17652"
       transform="rotate(49.999998)"
       inkscape:label="smaller_marker_05" />
    <rect
       style="fill:#000000;fill-opacity:1;stroke:none;stroke-width:0.977899;stroke-dasharray:none;stroke-opacity:1"
       id="rect25"
       width="2.3999996"
       height="7.1999993"
       x="303.10773"
       y="163.42346"
       transform="rotate(39.999998)"
       inkscape:label="smaller_marker_04" />
    <rect
       style="fill:#000000;fill-opacity:1;stroke:none;stroke-width:0.977899;stroke-dasharray:none;stroke-opacity:1"
       id="rect22"
       width="2.3999999"
       height="7.1999993"
       x="293.86148"
       y="215.86148"
       transform="rotate(29.999998)"
       inkscape:label="smaller_marker_03" />
    <rect
       style="fill:#000000;fill-opacity:1;stroke:none;stroke-width:0.977899;stroke-dasharray:none;stroke-opacity:1"
       id="smaller_marker_02"
       width="2.3999999"
       height="7.1999993"
       x="275.64996"
       y="265.89725"
       transform="rotate(19.999998)"
       inkscape:label="smaller_marker_02" />
    <rect
       style="fill:#000000;fill-opacity:1;stroke:none;stroke-width:0.977899;stroke-dasharray:none;stroke-opacity:1"
       id="smaller_marker_01"
       width="2.3999999"
       height="7.1999993"
       x="249.02649"
       y="312.01047"
       transform="rotate(9.9999993)"
       inkscape:label="smaller_marker_01" />
    <rect
       style="display:inline;fill:#000000;fill-opacity:1;stroke:none;stroke-width:1.9558;stroke-dasharray:none;stroke-opacity:1"
       id="bigger_marker_5"
       width="4.7999997"
       height="14.4"
       x="76.661499"
       y="-439.06149"
       transform="rotate(120)"
       inkscape:label="bigger_marker_5" />
    <rect
       style="display:inline;fill:#000000;fill-opacity:1;stroke:none;stroke-width:1.9558;stroke-dasharray:none;stroke-opacity:1"
       id="bigger_marker_4"
       width="4.7999997"
       height="14.4"
       x="292.6615"
       y="-223.06148"
       transform="rotate(59.999998)"
       inkscape:label="bigger_marker_4" />
    <rect
       style="display:inline;fill:#000000;fill-opacity:1;stroke:none;stroke-width:1.9558;stroke-dasharray:none;stroke-opacity:1"
       id="bigger_marker_3"
       width="4.7999997"
       height="14.399999"
       x="213.60001"
       y="72.000023"
       inkscape:label="bigger_marker_3" />
    <rect
       style="display:inline;fill:#000000;fill-opacity:1;stroke:none;stroke-width:1.9558;stroke-dasharray:none;stroke-opacity:1"
       id="bigger_marker_2"
       width="4.7999997"
       height="14.4"
       x="76.661499"
       y="-165.46152"
       transform="rotate(120)"
       inkscape:label="bigger_marker_2" />
    <rect
       style="display:inline;fill:#000000;fill-opacity:1;stroke:none;stroke-width:1.9558;stroke-dasharray:none;stroke-opacity:1"
       id="bigger_marker_1"
       width="4.7999997"
       height="14.4"
       x="292.6615"
       y="50.538513"
       transform="rotate(59.999998)"
       inkscape:label="bigger_marker_1" />
    <rect
       style="fill:#000000;fill-opacity:1;stroke:none;stroke-width:1.9558;stroke-dasharray:none;stroke-opacity:1"
       id="bigger_marker_0"
       width="4.7999997"
       height="14.399999"
       x="213.60001"
       y="345.60001"
       inkscape:label="bigger_marker_0" />
    <path
       d="m -325.969,279.85621 1.21884,-5.75563 q 1.46712,1.44455 3.22767,1.96369 1.78312,0.51913 3.40823,0.51913 1.67027,0 3.15996,-0.58684 1.51226,-0.60942 2.66339,-2.09912 1.15112,-1.48969 1.80568,-4.13051 0.67714,-2.66339 0.67714,-6.7939 0,-9.86356 -6.70362,-9.86356 -2.50539,0 -4.04022,1.42197 -1.53484,1.42198 -1.53484,3.40824 0,2.46025 1.53484,4.01765 1.53483,1.53484 4.06279,1.53484 2.61825,0 4.80765,-1.30912 2.18939,-1.30913 3.4308,-3.22767 l 1.60255,2.77624 q -1.08341,1.80569 -2.70853,3.31795 -1.60255,1.4897 -3.56623,2.39254 -1.94112,0.88027 -4.10794,0.88027 -3.13739,0 -5.59763,-1.26398 -2.43768,-1.28655 -3.83709,-3.47595 -1.39941,-2.18939 -1.39941,-4.87535 0,-3.3631 1.60255,-5.80077 1.62512,-2.46025 4.28851,-3.76938 2.68596,-1.33169 5.82334,-1.33169 3.29538,0 5.6202,1.30912 2.3474,1.28655 3.81452,3.52109 1.48969,2.23454 2.18939,5.10107 0.69971,2.84396 0.69971,5.98134 0,3.11481 -0.76742,6.31991 -0.76742,3.20509 -2.48282,5.89105 -1.69283,2.68596 -4.46908,4.33365 -2.77624,1.62512 -6.7939,1.62512 -4.4465,0 -7.62903,-2.0314 z"
       id="text3"
       style="font-weight:bold;font-size:46.2256px;line-height:1.25;font-family:'Andika Tauga';-inkscape-font-specification:'Andika Tauga, Bold';letter-spacing:0px;word-spacing:0px;stroke-width:1.15564"
       inkscape:label="bigger_number_5"
       transform="scale(-0.97436448,1.02631)"
       aria-label="9" />
    <path
       d="m 297.635,145.40058 v -5.97035 h 22.50363 v 5.05184 q -2.34221,1.67628 -4.91407,3.88072 -2.59479,2.2274 -4.84515,4.70739 -2.27333,2.47998 -3.69703,4.95998 -1.42369,2.50295 -1.42369,4.70739 0,2.04369 1.23999,3.53628 1.24,1.51555 3.88072,1.51555 2.11258,0 4.47776,-1.19407 2.36516,-1.19407 3.90369,-3.05406 l 1.49257,5.51109 q -1.05629,1.28592 -2.75554,2.29628 -1.72222,1.01037 -3.71998,1.58444 -2.02073,0.59702 -3.97257,0.59702 -3.32962,0 -5.83258,-1.19405 -2.52591,-1.17111 -3.92665,-3.32963 -1.40073,-2.15851 -1.40073,-5.12072 0,-2.80147 1.30888,-5.53405 1.28593,-2.70961 3.30665,-5.16665 2.02073,-2.45702 4.27109,-4.54665 2.2274,-2.06666 4.11037,-3.5822 h -6.08516 q -2.27333,0 -3.67405,0.0229 -1.40075,0.0229 -2.36519,0.0918 -0.96444,0.0689 -1.88296,0.22965 z"
       id="path2"
       style="font-weight:bold;font-size:16px;font-family:'Andika Tauga';-inkscape-font-specification:'Andika Tauga, Bold';text-align:center;text-anchor:middle;display:inline;stroke-width:1.92"
       inkscape:label="bigger_number_4"
       aria-label="2" />
    <path
       d="m 212.47823,131.28967 v -11.29805 q -4.01814,-0.99272 -6.52356,-4.30177 -2.45816,-3.30906 -2.45816,-8.69809 0,-6.42902 3.35633,-9.87989 3.35632,-3.45087 9.21808,-3.45087 3.63996,0 6.42902,1.559982 2.78906,1.559983 4.39631,4.538132 1.60726,2.930876 1.60726,7.232646 0,5.38903 -2.41089,8.74536 -2.36361,3.30905 -6.57083,4.2545 v 11.29805 z m 3.54542,-16.54527 q 2.78906,0 4.01813,-1.93816 1.27635,-1.98543 1.27635,-5.81448 0,-3.82905 -1.27635,-5.71994 -1.22907,-1.938156 -4.06541,-1.938156 -2.78906,0 -4.06541,1.938156 -1.22907,1.89089 -1.22907,5.71994 0,3.82905 1.22907,5.81448 1.27635,1.93816 4.11269,1.93816 z"
       id="text7"
       style="font-weight:bold;font-size:47.2722px;line-height:1.25;font-family:'Andika Tauga';-inkscape-font-specification:'Andika Tauga, Bold';letter-spacing:0px;word-spacing:0px;stroke-width:0.264583"
       inkscape:label="bigger_number_3"
       aria-label="ϙ" />
    <path
       id="text4"
       style="font-weight:bold;font-size:47.2722px;line-height:1.25;font-family:'Andika Tauga';-inkscape-font-specification:'Andika Tauga, Bold';letter-spacing:0px;word-spacing:0px;display:inline;stroke-width:1.1796"
       d="m 121.5698,139.43032 c -1.14722,0 -2.4283,0.0158 -3.8437,0.0475 -1.4005,0.0159 -2.76418,0.0474 -4.09019,0.0951 -1.32601,0.0318 -2.46538,0.0638 -3.41891,0.0956 0.16388,0.9536 0.26062,2.43968 0.29042,4.45813 0.004,0.25283 0.005,0.53197 0.008,0.79013 h 6.40581 v -0.004 c 0.62576,-0.0317 1.20668,-0.0554 1.74305,-0.0713 0.53636,-0.0318 1.2365,-0.0475 2.10064,-0.0475 2.35404,0 4.03041,0.54034 5.02864,1.62109 1.01313,1.08074 1.51928,2.48702 1.51928,4.21938 0,2.14559 -0.56576,3.75875 -1.69808,4.83949 -1.13232,1.06486 -2.77889,1.59732 -4.93924,1.59732 -0.68535,0 -1.36301,-0.0157 -2.03346,-0.0475 -0.65551,-0.0466 -1.21533,-0.10903 -1.68569,-0.18604 -3.1e-4,-4e-5 -7.2e-4,5e-5 -0.001,0 h -6.40375 v 7.26623 c 0,2.3522 -0.0146,4.4343 -0.0444,6.24613 -0.0298,1.79594 -0.12653,3.1707 -0.29042,4.12429 h 7.03936 c -0.14898,-0.93769 -0.24572,-2.31246 -0.29042,-4.12429 -0.0298,-1.81183 -0.0444,-3.89393 -0.0444,-6.24613 v -2.09755 c 1.3856,0.15893 2.86066,0.23823 4.42505,0.23823 2.45833,0 4.61105,-0.47681 6.45852,-1.43041 1.84747,-0.95359 3.28541,-2.3126 4.31343,-4.07675 1.04293,-1.78005 1.56425,-3.89366 1.56425,-6.34121 0,-2.43167 -0.50667,-4.45811 -1.5198,-6.07922 -1.01313,-1.637 -2.42858,-2.86105 -4.24626,-3.6716 -1.81767,-0.81057 -3.93326,-1.21544 -6.34689,-1.21544 z"
       inkscape:label="bigger_number_2" />
    <path
       style="font-weight:bold;font-size:47.2722px;line-height:1.25;font-family:'Andika Tauga';-inkscape-font-specification:'Andika Tauga, Bold';letter-spacing:0px;word-spacing:0px;display:inline;stroke-width:0.264583"
       d="m 130.82935,254.612 h 6.92464 q -0.2539,1.38493 -0.30007,4.01629 -0.0462,2.60828 -0.0462,6.02444 v 13.61846 q 0,3.41616 0.0462,6.04752 0.0462,2.60828 0.30007,3.99321 h -6.92464 V 272.9623 q -1.50034,0.73863 -3.32383,1.2926 -1.82349,0.55397 -4.98574,0.55397 -2.5852,0 -4.93958,-1.0387 -2.35438,-1.03869 -3.85472,-3.11608 -1.47725,-2.0774 -1.47725,-5.19349 0,-3.41615 -0.0462,-6.43991 -0.0462,-3.02376 -0.30007,-4.40869 h 6.92464 q 0,1.10794 0,2.72369 0,1.61575 0,3.39308 0,1.77732 0,3.34691 0,2.5852 1.2926,4.01629 1.31568,1.40801 3.55465,1.40801 2.35438,0 4.15479,-0.55397 1.82348,-0.55397 3.00067,-1.2926 z"
       id="text6"
       aria-label="Ч"
       inkscape:label="bigger_number_1" />
    <path
       d="m 221.74072,324.10012 q 0,-6.38368 -1.40073,-9.39182 -1.37777,-3.00813 -4.33998,-3.00813 -2.80147,0 -4.2711,2.87036 -1.46962,2.84739 -1.46962,8.8407 0,6.36072 1.4237,9.39181 1.42369,3.00814 4.31702,3.00814 2.80147,0 4.27109,-2.87036 1.46962,-2.87036 1.46962,-8.8407 z m 6.54442,-0.57408 q 0,6.63628 -1.6074,10.49404 -1.58444,3.8348 -4.40887,5.46516 -2.80147,1.6074 -6.49849,1.6074 -3.6511,0 -6.36072,-1.6074 -2.70961,-1.63036 -4.2022,-5.37331 -1.49259,-3.76591 -1.49259,-10.12663 0,-6.47553 1.6074,-10.31033 1.6074,-3.85776 4.40887,-5.55701 2.82444,-1.69925 6.4985,-1.69925 3.90368,0 6.59034,1.67629 2.68666,1.65332 4.06443,5.41923 1.40073,3.74295 1.40073,10.01181 z"
       id="mayor_0"
       style="font-weight:bold;font-size:16px;font-family:'Andika Tauga';-inkscape-font-specification:'Andika Tauga, Bold';text-align:center;text-anchor:middle;stroke-width:1.92"
       inkscape:label="bigger_number_0"
       aria-label="0" />
    <text
       xml:space="preserve"
       style="font-style:normal;font-variant:normal;font-weight:bold;font-stretch:normal;line-height:1.25;font-family:'Iosevka Sezimal QP', 'Iosevka Sezimal', sans-serif;-inkscape-font-specification:'Iosevka Sezimal QP, Iosevka Sezimal, sans-serif, ';font-variant-ligatures:normal;font-variant-caps:normal;font-variant-numeric:normal;font-variant-east-asian:normal;text-align:center;letter-spacing:0px;word-spacing:0px;baseline-shift:baseline;text-anchor:middle;fill:#000000;fill-opacity:1;stroke:none;stroke-width:0.264583;font-size:12px"
       x="216.024"
       y="260.65927"
       id="text2"
       inkscape:label="date"><tspan
         sodipodi:role="line"
         x="216.024"
         y="260.65927" id="date-1">213 212</tspan><tspan
         sodipodi:role="line"
         x="216.024"
         y="275.65927" id="date-2">11</tspan><tspan
         sodipodi:role="line"
         x="216.024"
         y="290.65927" id="date-3">01</tspan></text>
    <text
       xml:space="preserve"
       style="font-style:italic;font-variant:normal;font-weight:900;font-stretch:expanded;font-size:11.2889px;line-height:1.25;font-family:sans-serif;-inkscape-font-specification:'sans-serif, Normal';font-variant-ligatures:normal;font-variant-caps:normal;font-variant-numeric:normal;font-variant-east-asian:normal;letter-spacing:0px;word-spacing:0px;display:inline;fill:#000000;fill-opacity:1;stroke:none;stroke-width:0.264583"
       x="187.45392"
       y="159.51123"
       id="text2-1"
       inkscape:label="mark"><tspan
         sodipodi:role="line"
         id="tspan3"
         x="187.45392"
         y="159.51123">swixknife</tspan></text>
  </g>
  <g
     id="g2"
     inkscape:label="uta"
     sodipodi:insensitive="true"
     style="display:inline">
    <animateTransform
       attributeName="transform"
       begin="0s"
       dur="86400s"
       type="rotate"
       from="0 216 216"
       to="360 216 216"
       repeatCount="indefinite" />
    <g
       id="face_uta" transform="rotate(300,216,216)"
       inkscape:label="face_uta">
      <rect
         style="fill:#000000;"
         id="rect4"
         width="9"
         height="102"
         x="211.5"
         y="192"
         inkscape:label="hand_uta" />
<!--      <circle
         style="fill:#d40000;"
         id="circle5"
         cx="216"
         cy="216"
         inkscape:label="anchor_hand_uta"
         r="3.6" />-->
    </g>
  </g>
  <g
     id="g5"
     inkscape:label="posha"
     sodipodi:insensitive="true"
     style="display:inline">
    <animateTransform
       attributeName="transform"
       begin="0s"
       dur="2400s"
       type="rotate"
       from="0 216 216"
       to="360 216 216"
       repeatCount="indefinite" />
    <g
       id="face_posha" transform="rotate(60,216,216)"
       inkscape:label="face_posha">
       <rect
         style="fill:#000000;"
         id="rect1"
         width="6"
         height="126"
         x="213"
         y="192"
         inkscape:label="hand_posha" />
       <circle
         style="fill:#d40000;"
         id="circle5"
         cx="216"
         cy="216"
         inkscape:label="anchor_hand_posha"
         r="3.2" />
    </g>
  </g>
<g
     id="g6"
     inkscape:label="agrima"
     sodipodi:insensitive="true"
     style="display:inline">
    <animateTransform
       attributeName="transform"
       begin="0s"
       dur="66667ms"
       type="rotate"
       from="0 216 216"
       to="360 216 216"
       repeatCount="indefinite" />
    <g
       id="face_agrima" transform="rotate(150,216,216)"
       inkscape:label="face_agrima">
       <rect
         style="fill:#d40000;"
         id="rect1"
         width="3"
         height="162"
         x="214.5"
         y="186"
         inkscape:label="hand_agrima" />
       <circle
         style="fill:#d40000;"
         id="circle5"
         cx="216"
         cy="216"
         inkscape:label="anchor_hand_agrima"
         r="3.2" />
    </g>
  </g>
</svg>
