<?xml version="1.0" encoding="UTF-8" standalone="no"?>
<svg
   id="now-icon"
   width="432mm"
   height="432mm"
   viewBox="0 0 432 432"
   version="1.1"
   sodipodi:docname="now-icon-mono.svg"
   inkscape:version="1.3.2 (091e20ef0f, 2023-11-25, custom)"
   inkscape:export-filename="now-icon.png"
   inkscape:export-xdpi="96"
   inkscape:export-ydpi="96"
   xmlns:inkscape="http://www.inkscape.org/namespaces/inkscape"
   xmlns:sodipodi="http://sodipodi.sourceforge.net/DTD/sodipodi-0.dtd"
   xmlns="http://www.w3.org/2000/svg"
   xmlns:svg="http://www.w3.org/2000/svg">
  <defs
     id="defs5" />
  <sodipodi:namedview
     id="sezimal_time_view"
     pagecolor="#ffffff"
     bordercolor="#000000"
     borderopacity="0.25"
     inkscape:showpageshadow="2"
     inkscape:pageopacity="0.0"
     inkscape:pagecheckerboard="0"
     inkscape:deskcolor="#d1d1d1"
     inkscape:zoom="0.27709666"
     inkscape:cx="882.36356"
     inkscape:cy="988.82461"
     inkscape:window-width="1920"
     inkscape:window-height="944"
     inkscape:window-x="0"
     inkscape:window-y="32"
     inkscape:window-maximized="1"
     inkscape:current-layer="now-icon"
     inkscape:document-units="mm" />
  <path
     id="background_white"
     style="fill:#d40000;stroke-width:19.2613;stroke-linecap:round;fill-opacity:1"
     inkscape:label="monochrome"
     d="m 220.98305,-44.445882 0.13436,0.232716 c 1.39185,-0.790437 2.79679,-1.557613 4.21422,-2.301207 l -0.19146,-0.331621 z m 4.34858,-2.068491 7.00836,12.138831 -4.15712,2.400112 -7.06546,-12.237736 c -6.15337,3.675548 -12.02374,7.805389 -17.56214,12.355086 l 4.49238,5.353279 -1.83875,1.54255 -4.57815,-5.455325 c -5.76335,4.91907 -11.12945,10.285359 -16.04832,16.048879 l 5.45571,4.5775136 -1.54317,1.8385174 -5.35309,-4.49176 c -4.79252,5.8557718 -9.11603,12.08019031 -12.93035,18.6154274 l 5.97758,3.4515631 -1.20001,2.0783805 -5.92816,-3.4228116 c -3.71915,6.5824516 -6.91412,13.4475806 -9.55529,20.5317166 l 6.41622,2.33547 -0.82078,2.255651 -6.43421,-2.341799 c -2.54191,7.122524 -4.51878,14.434222 -5.91227,21.867244 l 6.79363,1.198048 -0.417,2.363845 -6.88748,-1.214872 c -1.20185,7.069362 -1.87397,14.218623 -2.01075,21.388115 l 14.22852,3.7e-5 1e-4,4.799867 -14.22853,-3.8e-5 c 0.1368,7.16929 0.80891,14.318348 2.01072,21.387512 l 6.8873,-1.21422 0.41716,2.36378 -6.79405,1.19798 c 1.39351,7.43321 3.37043,14.74509 5.91241,21.86779 l 6.43437,-2.34186 0.82113,2.25527 -6.41671,2.33524 c 2.64124,7.08417 5.83629,13.94934 9.55553,20.53181 l 5.92799,-3.42253 1.20019,2.07878 -5.97767,3.45121 c 3.81434,6.53528 8.13787,12.75973 12.93043,18.61553 l 5.35328,-4.49239 1.54255,1.83875 -5.45532,4.57815 c 4.91907,5.76335 10.28535,11.12946 16.04887,16.04833 l 4.57752,-5.45571 1.83851,1.54316 -4.49175,5.35309 c 5.53828,4.54959 11.40851,8.67935 17.56173,12.35483 l 7.06583,-12.23765 4.15676,2.40002 -7.00833,12.13881 c 6.26049,3.47346 12.7713,6.47519 19.47828,8.98022 l 2.33547,-6.41622 2.25565,0.82079 -2.3418,6.4342 c 7.12253,2.54191 14.43423,4.51878 21.86725,5.91227 l 1.19805,-6.79363 2.36384,0.417 -1.21487,6.88748 c 7.46246,1.29162 15.01518,1.99252 22.58788,2.09617 l -7e-5,-7.11391 2.39993,-4e-5 8e-5,7.11391 c 7.57263,-0.10367 15.12528,-0.80457 22.58767,-2.09619 l -1.21422,-6.8873 2.36378,-0.41716 1.19798,6.79405 c 7.43321,-1.39351 14.7451,-3.37043 21.8678,-5.91241 l -2.34186,-6.43437 2.25526,-0.82113 2.33524,6.41671 c 6.70703,-2.50501 13.21789,-5.50672 19.47843,-8.98018 l -7.00836,-12.13883 4.15712,-2.40011 7.06546,12.23774 c 6.15338,-3.67555 12.02374,-7.80539 17.56215,-12.35509 l -4.49194,-5.35354 1.8383,-1.54229 4.57816,5.45533 c 5.76335,-4.91907 11.12945,-10.28536 16.04832,-16.04888 l -5.45571,-4.57752 1.54316,-1.83851 5.35309,4.49176 c 4.79252,-5.85577 9.11603,-12.08019 12.93035,-18.61543 l -5.97757,-3.45156 1.2,-2.07838 5.92816,3.42281 c 3.71915,-6.58245 6.91413,-13.44758 9.5553,-20.53172 l -6.41623,-2.33547 0.82079,-2.25565 6.4342,2.3418 c 2.54191,-7.12253 4.51878,-14.43423 5.91227,-21.86725 l -6.79363,-1.19804 0.41701,-2.36385 6.88747,1.21487 c 1.20185,-7.069361 1.87397,-14.21862 2.01075,-21.388111 l -14.22852,-3.8e-5 -9e-5,-4.799866 14.34127,-1.6e-5 c -0.12065,-7.177581 -0.77785,-14.336092 -1.9661,-21.41566 l -7.04467,1.242423 -0.41716,-2.363784 7.05159,-1.242839 c -1.37029,-7.455407 -3.32713,-14.790975 -5.85228,-21.938312 l -6.75204,2.457239 -0.82087,-2.254815 6.72823,-2.448865 C 427.27503,21.597614 424.06442,14.718958 420.32738,8.1250512 L 414.134,11.700802 412.93381,9.6220201 419.1442,6.036451 c -3.84052,-6.5357476 -8.19114,-12.7580262 -13.01129,-18.608819 l -5.5054,4.6195892 -1.54229,-1.8383034 5.48004,-4.5983888 c -4.92024,-5.764944 -10.28793,-11.132443 -16.05306,-16.052468 l -4.59805,5.480094 -1.83851,-1.543162 4.61902,-5.504737 c -5.53721,-4.571664 -11.40862,-8.722754 -17.56509,-12.418531 l -7.18973,12.452992 -4.15676,-2.400013 7.17084,-12.420603 c -6.27557,-3.485932 -12.80302,-6.497706 -19.52777,-9.010131 l -2.4485,6.727921 -2.25565,-0.820787 2.45794,-6.751871 c -7.14722,-2.525348 -14.48268,-4.482405 -21.938,-5.852924 l -1.24343,7.051951 -2.36385,-0.417004 1.24244,-7.045409 c -7.47421,-1.259139 -15.03616,-1.9262 -22.61538,-1.994965 l 10e-6,7.170636 -2.39994,4.6e-5 -3.3e-4,-7.114357 c -7.57256,0.103829 -15.12513,0.80488 -22.58742,2.09663 l 1.21422,6.887303 -2.36378,0.417159 -1.19798,-6.79405 c -7.43321,1.393511 -14.74509,3.37043 -21.86779,5.912411 l 2.34186,6.43437 -2.25482,0.820871 -2.33569,-6.41645 c -6.70703,2.505004 -13.21789,5.506721 -19.47843,8.980176 z m 19.47843,-8.980176 c 0.74721,-0.285839 1.49678,-0.565445 2.24865,-0.838791 l -0.12038,-0.331489 -2.25526,0.82113 z m 24.11644,-6.751202 c 0.78108,-0.176662 1.56362,-0.346805 2.34754,-0.510412 l -0.036,-0.202964 -2.3636,0.416453 z m 24.93496,-2.607042 c 0.39884,-0.03032 0.79781,-0.05897 1.19689,-0.08596 l -1.19695,7.4e-5 z m 2.40026,-0.05633 -1.3e-4,-0.02916 -1.19119,-2.72e-4 c 0.39715,0.0082 0.79426,0.01798 1.19132,0.02944 z m 22.61538,1.994965 c 0.78941,0.130249 1.57771,0.267074 2.36484,0.410462 l 0.007,-0.03862 -2.36384,-0.417004 z m 24.30284,6.263386 c 0.75107,0.275335 1.49983,0.556924 2.24621,0.844737 l 0.0139,-0.03788 -2.2552,-0.821045 z m 21.77398,9.854868 c 1.40494,0.765953 2.79702,1.55527 4.17565,2.367624 l 0.0105,-0.01799 -4.1572,-2.399755 z m 21.74074,14.786155 c 0.61019,0.517543 1.21606,1.040163 1.81754,1.567805 l 0.03,-0.03584 -1.83871,-1.542457 z m 17.8706,17.620273 c 0.52759,0.601336 1.05016,1.207058 1.56765,1.817103 l 0.0102,-0.0082 -1.54255,-1.838751 z M 419.1442,6.036451 c 0.40019,0.6929007 0.7946,1.3891249 1.18318,2.0886002 l 0.0421,-0.024288 -1.20019,-2.0787817 z m 10.7851,22.660455 c 0.2878,0.746454 0.56937,1.495294 0.84468,2.246441 l 0.0138,-0.005 -0.82113,-2.255263 z m 6.69696,24.184753 c 0.14331,0.786914 0.28006,1.575008 0.41024,2.3642 l 0.0456,-0.0078 -0.41645,-2.363595 z m 2.37634,23.77986 c 0.0262,0.796851 0.0458,1.593906 0.0588,2.391083 l 2.5e-4,-2.391153 z m -0.11266,4.79992 0.17134,1.34e-4 3.5e-4,-2.397179 c -0.0506,0.799479 -0.10779,1.598521 -0.17169,2.397045 z m -2.01075,21.388111 c -0.16376,0.78375 -0.33404,1.56611 -0.51085,2.34702 l 0.29694,0.0523 0.417,-2.36384 z m -6.42312,24.21427 c -0.27333,0.75209 -0.55293,1.50189 -0.83876,2.24932 l 0.34957,0.12696 0.82105,-2.2552 z m -10.39406,22.78104 c -0.37767,0.70556 -0.76121,1.40796 -1.15059,2.10713 l 0.25782,0.1489 1.19975,-2.07882 z m -14.08094,20.72256 c -0.47482,0.64542 -0.95501,1.28687 -1.44054,1.92427 l 0.0602,0.0506 1.54245,-1.83871 z m -17.48886,17.97315 c -0.63749,0.48551 -1.27902,0.9657 -1.92452,1.4405 l 0.1359,0.16201 1.83875,-1.54255 z m -19.48667,13.79559 c -1.39185,0.79044 -2.79679,1.55761 -4.21422,2.3012 l 0.19172,0.33207 4.15712,-2.40011 z m -23.69265,11.28138 c -0.7472,0.28584 -1.49678,0.56544 -2.24864,0.83879 l 0.12037,0.33149 2.25526,-0.82113 z m -24.11644,6.7512 c -0.78108,0.17666 -1.56362,0.3468 -2.34754,0.51041 l 0.036,0.20297 2.3636,-0.41646 z m -24.93521,2.6066 c -0.39985,0.0303 -0.79982,0.0589 -1.19991,0.0859 l 1.20023,4.2e-4 z m -1.19991,0.0859 c -0.40013,-0.0269 -0.80014,-0.0556 -1.20003,-0.0859 l 6e-5,0.0859 z m -23.78791,-2.18204 c -0.78375,-0.16376 -1.56611,-0.33404 -2.34702,-0.51085 l -0.0523,0.29694 2.36384,0.417 z m -24.21427,-6.42312 c -0.75209,-0.27334 -1.50189,-0.55294 -2.24932,-0.83877 l -0.12696,0.34958 2.25565,0.82079 z m -21.7276,-9.81899 c -1.41745,-0.74358 -2.82239,-1.51075 -4.21426,-2.30118 l -0.1344,0.23334 4.15721,2.39975 z m -21.77599,-14.65601 c -0.64542,-0.47482 -1.28687,-0.95501 -1.92428,-1.44054 l -0.0506,0.0602 1.83871,1.54245 z m -17.97315,-17.48887 c -0.48552,-0.63748 -0.9657,-1.27901 -1.44051,-1.92451 l -0.16201,0.1359 1.54255,1.83875 z m -14.37094,-20.54004 c -0.38935,-0.69928 -0.77287,-1.40179 -1.15051,-2.10746 l -0.30701,0.17725 1.20019,2.07878 z m -10.70604,-22.63927 c -0.28584,-0.74721 -0.56544,-1.49678 -0.83879,-2.24865 l -0.33149,0.12038 0.82113,2.25526 z m -6.7512,-24.11644 c -0.17666,-0.78108 -0.3468,-1.56362 -0.51041,-2.34754 l -0.20297,0.036 0.41646,2.3636 z M 151.2331,81.461418 c -0.064,-0.79844 -0.12125,-1.5974 -0.17188,-2.396796 l 1e-4,2.39692 z m -9e-5,-4.799866 -0.17133,-1.35e-4 -3.5e-4,2.397179 c 0.0506,-0.799478 0.10779,-1.598521 0.17168,-2.397044 z m 2.01075,-21.388115 c 0.16376,-0.783747 0.33404,-1.566114 0.51085,-2.347021 l -0.29694,-0.05233 -0.417,2.363845 z m 6.42312,-24.214265 c 0.27334,-0.752092 0.55294,-1.501892 0.83877,-2.249322 l -0.34958,-0.126959 -0.82079,2.255652 z M 170.06094,8.2781334 c 0.37767,-0.7055623 0.76121,-1.4079641 1.15059,-2.107132 l -0.25782,-0.1489039 -1.19975,2.0788276 z m 14.08094,-20.7225594 c 0.47482,-0.64542 0.95502,-1.286866 1.44055,-1.924271 l -0.0602,-0.05056 -1.54246,1.838707 z m 17.48887,-17.97315 c 0.63749,-0.485514 1.27902,-0.965699 1.92452,-1.440504 l -0.13591,-0.16201 -1.83875,1.54255 z m 31.26907,4.103759 c 1.90908,-1.102215 3.7536,-1.796114 5.53342,-2.081266 1.78542,-0.306064 3.38749,-0.179166 4.8065,0.38036 1.42459,0.53862 2.54661,1.516982 3.36562,2.935544 0.69652,1.20644 1.00127,2.515813 0.91452,3.927019 -0.0812,1.390285 -0.41714,2.706546 -1.00784,3.949103 -0.59835,1.229294 -1.31077,2.214906 -2.13724,2.957226 0.77154,-0.286367 1.6696,-0.522 2.69414,-0.70694 1.01688,-0.198209 2.06776,-0.230633 3.15258,-0.09685 1.09042,0.11287 2.14098,0.478588 3.152,1.096901 1.01102,0.618304 1.89939,1.590725 2.66482,2.916487 0.89555,1.5511399 1.22136,3.2628773 0.97715,5.1361929 -0.2442,1.8733121 -1.00238,3.6990291 -2.27427,5.47628537 -1.27954,1.76399703 -3.01289,3.27720663 -5.20039,4.54016063 -1.76326,1.018018 -3.57744,1.7029769 -5.44239,2.0549657 -1.85171,0.3443323 -3.58072,0.3348049 -5.18682,-0.028311 l -2.46127,-5.87016604 c 1.79133,0.59204995 3.64175,0.79599044 5.55113,0.6127951 1.90174,-0.19644886 3.64826,-0.75358991 5.23918,-1.67210468 0.95454,-0.55110548 1.73651,-1.23277728 2.34622,-2.04438438 0.62295,-0.8192629 0.996,-1.6885357 1.11913,-2.6081051 0.13638,-0.9272285 -0.0521,-1.8347695 -0.5649,-2.7230327 -0.7042,-1.2196962 -1.91748,-1.8980149 -3.64031,-2.0346499 -1.70957,-0.144298 -3.6912,0.4340791 -5.94499,1.7353064 l -1.79013,1.0335286 -2.75564,-4.772919 1.79012,-1.033528 c 1.20644,-0.696538 2.15112,-1.524814 2.83422,-2.484855 0.6831,-0.960044 1.10237,-1.917845 1.25761,-2.873636 0.1476,-0.969051 0.0146,-1.811274 -0.39872,-2.527186 -0.52049,-0.901514 -1.35809,-1.372432 -2.51275,-1.412863 -1.1414,-0.04809 -2.20291,0.210905 -3.18397,0.77732 -1.52463,0.880243 -2.80602,1.920672 -3.84502,3.121548 -1.02575,1.193223 -1.76934,2.692143 -2.23031,4.49617 l -3.33658,-4.171983 c 0.27497,-1.360773 1.01182,-2.793968 2.21087,-4.299368 1.2123,-1.513055 2.6471,-2.747979 4.30431,-3.704764 z m -51.40359,38.075938 108.77159,62.799387 3.92821,1.36e-4 10.26773,-17.784663 5.19595,3.000016 -8.53591,14.784631 71.93788,-8.4e-5 -1.8e-4,8.999654 -67.20609,-8.9e-5 15.9368,9.201363 -1.5001,2.598329 -20.43724,-11.799766 -3.92679,2.42e-4 -49.2687,85.334843 -5.19595,-3.00002 47.53617,-82.334996 -17.93816,1.36e-4 1.8e-4,-8.999655 13.20521,1.07e-4 -104.2707,-60.201243 z m 102.7706,62.799571 6.00099,-1.84e-4 z m 16.85697,-6.4e-5 -6.92777,1.6e-5 z m -1.26893,8.999407 6.00054,7.4e-5 z m -10.85527,6.9e-5 6.92848,1.73e-4 z M 174.21407,60.417651 c 1.92234,-1.109871 3.80486,-1.736931 5.64795,-1.881857 1.84871,-0.165832 3.53733,0.140691 5.06555,0.919997 1.52822,0.779301 2.78572,2.02414 3.77311,3.734369 0.93383,1.617426 1.4787,3.432885 1.63387,5.446834 0.16078,1.993035 0.0672,4.035663 -0.28045,6.127802 -0.34766,2.092134 -0.82289,4.116342 -1.42559,6.072907 -0.59711,1.935649 -1.18661,3.654808 -1.76856,5.157457 l 5.26968,-3.04245 c 1.3125,-0.757775 2.3695,-1.376658 3.17057,-1.856789 0.80109,-0.480133 1.46851,-0.901017 2.00236,-1.262275 0.53385,-0.361259 1.03936,-0.741267 1.51608,-1.140249 l 2.98509,5.170327 -19.48863,11.251767 -2.52595,-4.375064 c 0.79352,-1.748533 1.56534,-3.687453 2.31539,-5.817466 0.75563,-2.150919 1.36961,-4.31766 1.84218,-6.499599 0.48585,-2.189595 0.72639,-4.237485 0.72169,-6.143869 -0.0123,-1.919641 -0.38584,-3.515671 -1.12066,-4.788403 -0.68121,-1.179921 -1.62874,-1.993922 -2.84218,-2.442337 -1.22109,-0.46167 -2.59373,-0.25266 -4.11834,0.627583 -1.2197,0.704191 -2.31323,1.795339 -3.28074,3.273125 -0.96751,1.477784 -1.58534,3.010025 -1.85361,4.596727 l -4.04856,-4.026452 c 0.18121,-1.094521 0.59415,-2.217034 1.23843,-3.36678 0.65753,-1.157409 1.46707,-2.234604 2.42913,-3.231965 0.96766,-1.01827 2.01529,-1.852729 3.14219,-2.50334 z m 155.39236,-89.384645 5.26968,-3.04245 8.19938,18.33482 7.85506,-4.535123 -6.77426,-11.733369 5.27013,-3.042708 6.77426,11.733369 3.1815,-1.836839 2.5833,4.474415 -3.1815,1.836839 4.1907,7.2585058 -5.27012,3.0427082 -4.1907,-7.258506 -13.3239,7.6925533 z m -76.39136,56.832353 c 0.24767,-0.142993 0.48974,-0.212953 0.72593,-0.210267 0.23893,-0.0076 0.4301,0.11244 0.57309,0.360112 0.1731,0.29981 0.22412,0.591561 0.1535,0.875655 -0.0706,0.284095 -0.28825,0.53161 -0.65324,0.742336 -0.2607,0.150517 -0.50751,0.22765 -0.73993,0.231481 -0.22967,-0.0064 -0.4161,-0.133655 -0.55909,-0.381325 -0.18815,-0.32588 -0.23636,-0.628132 -0.14518,-0.906716 0.0912,-0.27859 0.306,-0.515603 0.64492,-0.711276 z M 274.03914,15.84258 c 0.24767,-0.142994 0.48974,-0.212954 0.72592,-0.210267 0.23894,-0.0076 0.42966,0.112699 0.57265,0.360369 0.1731,0.299812 0.22456,0.591303 0.15395,0.875398 -0.0706,0.284093 -0.2887,0.531867 -0.65369,0.742594 -0.26071,0.15052 -0.50706,0.227391 -0.73949,0.231223 -0.22966,-0.0064 -0.41609,-0.133654 -0.55909,-0.381326 -0.18814,-0.325879 -0.2368,-0.627874 -0.14562,-0.906457 0.0912,-0.278591 0.30645,-0.515862 0.64537,-0.711534 z m 4.34967,-2.354948 c 0.25419,-0.146755 0.51686,-0.263501 0.78812,-0.350596 0.26748,-0.09362 0.50745,-0.145207 0.71931,-0.154537 l 0.25867,1.532186 c -0.11758,0.0071 -0.23914,0.02963 -0.36499,0.06752 -0.11936,0.03411 -0.23129,0.08102 -0.33557,0.141226 -0.24115,0.13923 -0.32182,0.338131 -0.24226,0.596351 l 0.11909,0.387131 1.00694,-0.58136 0.48868,1.56885 -0.9971,0.575676 1.66385,5.140122 c 0.12774,0.386824 0.18429,0.762941 0.16911,1.128002 -0.005,0.367816 -0.10756,0.708955 -0.30779,1.024428 -0.19646,0.321997 -0.51625,0.611332 -0.95946,0.867215 -0.16945,0.09784 -0.35614,0.187904 -0.56022,0.270934 -0.20407,0.08303 -0.3708,0.140547 -0.50041,0.171958 l -0.83535,-1.446868 c 0.10632,-0.02659 0.21187,-0.06148 0.31714,-0.104929 0.10906,-0.03688 0.20595,-0.08012 0.29068,-0.12904 0.23463,-0.135467 0.38272,-0.285738 0.4436,-0.451234 0.0674,-0.169259 0.0655,-0.36814 -0.005,-0.59653 l -1.56327,-4.806751 -0.79168,0.457078 -0.32006,-1.027722 0.63418,-0.978962 -0.12477,-0.396977 c -0.21686,-0.691679 -0.24138,-1.268478 -0.0735,-1.730365 0.17436,-0.465655 0.5351,-0.856713 1.08258,-1.172803 z m -17.25612,10.028464 1.84741,-1.066601 1.16398,3.550874 c 0.0625,0.198543 0.12312,0.424427 0.18211,0.677147 0.0655,0.248953 0.11095,0.439816 0.13581,0.573195 l 0.0389,-0.02248 0.58649,-3.297088 2.11145,-1.219047 -0.93538,3.798665 3.0206,2.205665 -2.0922,1.207936 -1.74301,-1.483143 -0.33209,0.530666 0.59869,1.80488 -1.84786,1.06686 z M 241.80173,37.24446 c 0.35196,-0.2032 0.69918,-0.347177 1.0414,-0.431782 0.34871,-0.08837 0.70871,-0.126725 1.08029,-0.115314 l 0.11741,1.535571 c -0.25023,-0.01195 -0.51562,0.0023 -0.79642,0.04271 -0.27426,0.0367 -0.50585,0.109463 -0.69486,0.21859 -0.24116,0.13923 -0.29994,0.316621 -0.17576,0.531701 0.0527,0.09125 0.14872,0.14436 0.28786,0.159602 0.14568,0.01149 0.36127,0.0089 0.64684,-0.0083 0.92014,-0.06197 1.57216,0.239493 1.95598,0.904294 0.38759,0.671318 0.45732,1.295663 0.20878,1.873661 -0.24578,0.56772 -0.73707,1.064623 -1.47357,1.489839 -0.35847,0.206963 -0.6959,0.366869 -1.01278,0.480304 -0.31036,0.109672 -0.59845,0.175738 -0.86347,0.19838 l -0.85783,-1.485803 c 0.38737,-0.0064 0.72348,-0.04872 1.00878,-0.126533 0.28806,-0.0881 0.56264,-0.207287 0.82334,-0.357804 0.0782,-0.04516 0.16245,-0.102645 0.25268,-0.172137 0.093,-0.07978 0.16235,-0.163018 0.20771,-0.250007 0.0519,-0.09077 0.0494,-0.18518 -0.007,-0.282958 -0.0414,-0.0717 -0.0953,-0.127549 -0.16169,-0.167408 -0.0665,-0.03983 -0.17435,-0.06835 -0.32376,-0.08637 -0.14943,-0.018 -0.36886,-0.02205 -0.6582,-0.01143 -0.44804,0.0067 -0.81836,-0.062 -1.11025,-0.206321 -0.28914,-0.154603 -0.53128,-0.401377 -0.72696,-0.740293 -0.29351,-0.508378 -0.35098,-1.022376 -0.17313,-1.54218 0.1806,-0.530094 0.64861,-1.013545 1.40464,-1.450048 z m 29.00673,-16.747039 c 0.33892,-0.195675 0.65415,-0.281846 0.9455,-0.258868 0.28759,0.01645 0.54807,0.113626 0.7813,0.291817 0.22947,0.171674 0.42526,0.397581 0.58707,0.677844 0.10537,0.182494 0.19928,0.37584 0.28231,0.579914 0.0896,0.200311 0.16698,0.394891 0.23225,0.583149 l 1.05338,3.223894 -1.84786,1.066859 -1.08874,-3.307896 c -0.0294,-0.09603 -0.07,-0.21157 -0.12198,-0.346672 -0.0557,-0.141654 -0.11553,-0.268307 -0.1795,-0.379106 -0.079,-0.136872 -0.17301,-0.21718 -0.28233,-0.240967 -0.11309,-0.0303 -0.21844,-0.01709 -0.31621,0.03935 -0.18249,0.10536 -0.28601,0.317449 -0.31073,0.635883 -0.022,0.308145 0.0574,0.731431 0.23807,1.270183 l 0.96676,2.961224 -1.84785,1.06686 -1.97737,-6.0666 1.47596,-0.852144 0.37597,0.786595 0.0394,-0.02274 c -8.8e-4,-0.407925 0.0782,-0.744899 0.23753,-1.01072 0.1659,-0.269583 0.41817,-0.502193 0.75709,-0.697866 z m 12.57249,-7.258729 c 0.60614,-0.349953 1.16133,-0.487705 1.66482,-0.413406 0.50348,0.07431 0.88639,0.33948 1.14979,0.795713 0.34243,0.593105 0.38783,1.206063 0.13581,1.83822 -0.25203,0.632162 -0.88323,1.239704 -1.89346,1.822964 l -0.28329,0.163555 0.0452,0.07832 c 0.27093,0.46927 0.66686,0.553609 1.18827,0.252573 0.27374,-0.158043 0.50682,-0.349106 0.69906,-0.573066 0.19875,-0.22772 0.39699,-0.494501 0.59446,-0.799698 l 0.75629,1.309923 c -0.20399,0.308961 -0.43602,0.599689 -0.69619,0.871555 -0.25364,0.268107 -0.61524,0.537803 -1.08452,0.808738 -0.68435,0.39511 -1.32168,0.51048 -1.91144,0.346946 -0.59351,-0.170052 -1.08208,-0.587481 -1.4659,-1.252281 -0.25588,-0.443197 -0.44027,-0.905506 -0.55351,-1.387615 -0.11048,-0.49239 -0.13281,-0.975219 -0.0668,-1.447855 0.066,-0.47264 0.23704,-0.914167 0.51245,-1.325187 0.27817,-0.42131 0.68097,-0.784599 1.2089,-1.089397 z m -39.01019,22.65322 1.74045,-1.004848 1.52394,2.639538 c 0.1016,0.175976 0.19831,0.358826 0.29062,0.548854 0.0923,0.190026 0.17495,0.363845 0.24846,0.521287 l 0.0394,-0.02274 c -0.0512,-0.178994 -0.0957,-0.361543 -0.13384,-0.548077 -0.0419,-0.19304 -0.0799,-0.371041 -0.11333,-0.53426 l -0.55515,-3.355204 1.94541,-1.123187 1.39837,2.738294 c 0.0499,0.101529 0.12453,0.245081 0.22337,0.431342 0.0988,0.186261 0.19686,0.394382 0.29494,0.624533 l 0.0394,-0.02274 c -0.0542,-0.229398 -0.10042,-0.436969 -0.1386,-0.623499 -0.0354,-0.196806 -0.07,-0.407266 -0.10363,-0.631154 l -0.43299,-3.256269 1.83801,-1.061176 0.54974,6.890839 -2.01389,1.16272 -1.16763,-2.180521 c -0.12994,-0.255205 -0.28112,-0.5545 -0.45351,-0.898164 -0.1761,-0.350216 -0.3264,-0.663329 -0.45088,-0.93907 l -0.0389,0.02248 c 0.0891,0.304857 0.16791,0.637059 0.23673,0.99707 0.0688,0.360022 0.12392,0.658874 0.16513,0.895795 l 0.44795,2.830532 -1.94542,1.123187 z m 8.80875,-5.085736 1.85726,-1.072286 1.96797,6.072026 -1.84786,1.06686 z m 2.6297,-1.518253 2.01389,-1.16272 1.22556,1.286618 0.0262,-2.009313 2.18977,-1.264264 -0.63336,4.028263 2.62057,2.032653 -2.04342,1.179773 -1.28435,-1.34398 -0.1039,2.145481 -2.16068,1.247469 0.66706,-4.060846 z m 18.19392,-10.504268 1.8577,-1.072544 1.96753,6.072284 -1.84741,1.066601 z m 9.89529,-4.175327 c -0.14339,0.08278 -0.24501,0.215696 -0.30487,0.397992 -0.0533,0.178531 -0.0701,0.374861 -0.0505,0.589471 0.0159,0.208102 0.0594,0.404476 0.13121,0.588984 l 0.13694,-0.07906 c 0.41713,-0.24083 0.66198,-0.486302 0.73461,-0.736801 0.0689,-0.257013 0.0563,-0.466841 -0.0378,-0.629781 -0.0602,-0.104281 -0.14152,-0.17032 -0.24433,-0.19787 -0.10657,-0.03407 -0.22837,-0.01195 -0.36524,0.06707 z m 101.13263,56.763764 17.0026,-9.816454 3.04245,5.269678 c -0.83427,0.269551 -1.75054,0.657119 -2.74895,1.162852 -0.99844,0.505703 -1.9152,0.999523 -2.75043,1.481743 l -6.56259,3.788915 3.67419,6.363892 c 0.23959,-0.350445 0.64199,-0.786046 1.20742,-1.306937 0.57103,-0.541811 1.1616,-0.988696 1.77145,-1.340793 1.84281,-1.063944 3.70094,-1.642024 5.57464,-1.733914 1.88698,-0.09955 3.63877,0.285614 5.25472,1.155674 1.62922,0.8624 2.97585,2.214965 4.0398,4.057771 1.19407,2.068186 1.70274,4.143319 1.52593,6.225199 -0.16356,2.074229 -0.87091,4.002855 -2.12189,5.78571 -1.25097,1.782857 -2.91737,3.275172 -4.99882,4.476897 -1.53788,0.887895 -3.0947,1.574275 -4.67045,2.059797 -1.5681,0.498771 -3.19727,0.72365 -4.88744,0.674209 l -2.41908,-6.027585 c 1.95902,0.300782 3.67073,0.311122 5.13537,0.03117 1.46463,-0.279943 2.89305,-0.82179 4.2851,-1.625488 1.59092,-0.918514 2.64883,-2.147691 3.17364,-3.688063 0.51716,-1.553636 0.33941,-3.086334 -0.53318,-4.597702 -0.62,-1.073863 -1.41146,-1.801028 -2.37395,-2.1822 -0.94924,-0.388826 -1.98092,-0.491754 -3.09471,-0.30831 -1.10818,0.162533 -2.19242,0.549743 -3.25303,1.162084 -1.04734,0.60469 -2.05698,1.320449 -3.02929,2.146969 -0.96671,0.805602 -1.92879,1.803108 -2.88619,2.992225 z m -154.55107,89.561268 5.46883,-3.15743 11.30913,19.58799 c 0.48987,0.84848 1.09653,1.86845 1.81957,3.0596 0.7363,1.18346 1.46377,2.33637 2.18272,3.45916 0.73221,1.11514 1.3487,2.01433 1.84924,2.69757 l -5.86669,3.38714 -13.43329,-23.26714 -3.82281,6.23786 -3.68125,-4.76899 z m 109.98968,-3.68199 c 2.25378,-1.30121 4.43565,-1.91561 6.54555,-1.84335 2.10225,0.059 4.17873,0.94609 6.22949,2.66108 2.05636,1.69408 4.12953,4.35068 6.21915,7.96999 2.21209,3.83146 3.49681,7.12877 3.8547,9.89184 0.36349,2.74217 0.002,5.05458 -1.08524,6.93735 -1.08163,1.86185 -2.68986,3.40934 -4.82432,4.64168 -2.10797,1.21703 -4.21229,1.81298 -6.31249,1.78816 -2.10785,-0.0381 -4.21615,-0.88907 -6.32553,-2.55252 -2.11705,-1.67672 -4.23594,-4.351 -6.35618,-8.02336 -2.15849,-3.73863 -3.41274,-6.98315 -3.76297,-9.73296 -0.35789,-2.76308 -0.0111,-5.10194 1.03995,-7.01682 1.06428,-1.92254 2.65667,-3.4964 4.77789,-4.72109 z m 2.44222,4.68894 c -1.61743,0.93382 -2.37254,2.47431 -2.26424,4.62137 0.10064,2.13382 1.1503,4.93071 3.14807,8.39095 2.12024,3.67235 4.09645,6.14615 5.92879,7.42158 1.82467,1.26219 3.57225,1.411 5.24271,0.44656 1.61743,-0.93383 2.37209,-2.47405 2.26379,-4.62112 -0.1083,-2.14707 -1.15796,-4.94397 -3.14807,-8.39094 -2.12789,-3.68562 -4.09723,-6.16339 -5.90864,-7.43321 -1.79817,-1.27749 -3.55218,-1.42259 -5.26241,-0.43519 z"
     transform="rotate(29.999998)"
     sodipodi:nodetypes="cccccccccccccccccccccccccccccccccccccccccccccccccccccccccccccccccccccccccccccccccccccccccccccccccccccccccccccccccccccccccccccccccccccccccccccccccccccccccccccccccccccccccccccccccccccccccccccccccccccccccccccccccccccccccccccccccccccccccccccccccccccccccccccccccccccccccccccccccccccccccccccccccccccccccccccccccccccccccccccccccccccccccccccccccsccscccccssscsccccsccscsccsscscsccccscccccccccccccccccccccccccccccccccscsscsccssscccccccscssccccscccccccccccccccscssscsssscssscssssccccsccccccccsscccsccccccccsccccccccccccccccsccccssccscsccccsccscsccscssccsccccccscscccccccccsssssscssccccscscscsccsscccccccsccccccccccccscccccccccccccccccccccccccccscccscscscccsscccsccscsscccsscsccscccccsccccccccsccsccsccsccsscscssscs" />
</svg>
