<?xml version="1.0" encoding="UTF-8" standalone="no"?>
<svg
     id="sezimal_time"
     width="25.924999mm"
     height="25.924999mm"
     viewBox="0 0 97.984249 97.984249"
     version="1.1"
     sodipodi:docname="sezimal_clock_uta_posha_agrima_anuga_sezimal_digits.svg"
     inkscape:version="1.3.2 (091e20ef0f, 2023-11-25, custom)"
     inkscape:export-filename="sezimal_clock.png"
     inkscape:export-xdpi="96"
     inkscape:export-ydpi="96"
     xmlns:inkscape="http://www.inkscape.org/namespaces/inkscape"
     xmlns:sodipodi="http://sodipodi.sourceforge.net/DTD/sodipodi-0.dtd"
     xmlns="http://www.w3.org/2000/svg"
     xmlns:svg="http://www.w3.org/2000/svg">
    <defs
         id="defs5" />
    <sodipodi:namedview
         id="sezimal_time_view"
         pagecolor="#ffffff"
         bordercolor="#000000"
         borderopacity="0.25"
         inkscape:showpageshadow="2"
         inkscape:pageopacity="0.0"
         inkscape:pagecheckerboard="0"
         inkscape:deskcolor="#d1d1d1"
         inkscape:zoom="3.6062446"
         inkscape:cx="7.2097162"
         inkscape:cy="81.109307"
         inkscape:window-width="1920"
         inkscape:window-height="1014"
         inkscape:window-x="0"
         inkscape:window-y="0"
         inkscape:window-maximized="1"
         inkscape:current-layer="face"
         inkscape:document-units="mm" />
    <g
         id="face"
         inkscape:label="face"
         sodipodi:insensitive="true">
        <circle
             style="fill:#ffffff;stroke-width:6.55315;stroke-linecap:round;-inkscape-stroke:none"
             id="background_white"
             cx="66.924484"
             cy="17.932362"
             r="48.992126"
             transform="rotate(30,7.9999531e-6,-5.1733804e-6)"
             inkscape:label="background_white"
             sodipodi:insensitive="true" />
        <rect
             style="fill:#000000;fill-opacity:1;stroke:none;stroke-width:0.665408;stroke-dasharray:none;stroke-opacity:1"
             id="bigger_marker_0"
             width="1.6330709"
             height="4.8992128"
             x="48.175591"
             y="93.085045"
             inkscape:label="bigger_marker_0"
             sodipodi:insensitive="true" />
        <rect
             style="fill:#000000;fill-opacity:1;stroke:none;stroke-width:0.665408;stroke-dasharray:none;stroke-opacity:1"
             id="bigger_marker_3"
             width="1.6330709"
             height="4.8992128"
             x="48.175591"
             y="0"
             inkscape:label="bigger_marker_3"
             sodipodi:insensitive="true" />
        <rect
             style="fill:#000000;fill-opacity:1;stroke:none;stroke-width:0.665408;stroke-dasharray:none;stroke-opacity:1"
             id="bigger_marker_1"
             width="1.6330709"
             height="4.8992128"
             x="66.107956"
             y="26.160553"
             transform="rotate(60)"
             inkscape:label="bigger_marker_1"
             sodipodi:insensitive="true" />
        <rect
             style="fill:#000000;fill-opacity:1;stroke:none;stroke-width:0.665408;stroke-dasharray:none;stroke-opacity:1"
             id="bigger_marker_4"
             width="1.6330709"
             height="4.8992128"
             x="66.107956"
             y="-66.924492"
             transform="rotate(60)"
             inkscape:label="bigger_marker_4"
             sodipodi:insensitive="true" />
        <rect
             style="fill:#000000;fill-opacity:1;stroke:none;stroke-width:0.665408;stroke-dasharray:none;stroke-opacity:1"
             id="bigger_marker_5"
             width="1.6330709"
             height="4.8992128"
             x="17.115828"
             y="-115.91662"
             transform="rotate(120)"
             inkscape:label="bigger_marker_5"
             sodipodi:insensitive="true" />
        <rect
             style="fill:#000000;fill-opacity:1;stroke:none;stroke-width:0.665408;stroke-dasharray:none;stroke-opacity:1"
             id="bigger_marker_2"
             width="1.6330709"
             height="4.8992128"
             x="17.115828"
             y="-22.831575"
             transform="rotate(120)"
             inkscape:label="bigger_marker_2"
             sodipodi:insensitive="true" />
        <rect
             style="fill:#000000;fill-opacity:1;stroke:none;stroke-width:0.332704;stroke-dasharray:none;stroke-opacity:1"
             id="smaller_marker_01"
             width="0.81653547"
             height="2.4496064"
             x="56.346951"
             y="86.282959"
             transform="rotate(10)"
             inkscape:label="smaller_marker_01"
             sodipodi:insensitive="true" />
        <rect
             style="fill:#000000;fill-opacity:1;stroke:none;stroke-width:0.332704;stroke-dasharray:none;stroke-opacity:1"
             id="smaller_marker_31"
             width="0.81653547"
             height="2.4496064"
             x="56.346951"
             y="-9.2516937"
             transform="rotate(10)"
             inkscape:label="smaller_marker_31"
             sodipodi:insensitive="true" />
        <rect
             style="fill:#000000;fill-opacity:1;stroke:none;stroke-width:0.332704;stroke-dasharray:none;stroke-opacity:1"
             id="smaller_marker_02"
             width="0.81653547"
             height="2.4496064"
             x="62.385567"
             y="75.823769"
             transform="rotate(20)"
             inkscape:label="smaller_marker_02"
             sodipodi:insensitive="true" />
        <rect
             style="fill:#000000;fill-opacity:1;stroke:none;stroke-width:0.332704;stroke-dasharray:none;stroke-opacity:1"
             id="rect18"
             width="0.81653547"
             height="2.4496064"
             x="62.385567"
             y="-19.710882"
             transform="rotate(20)"
             inkscape:label="smaller_marker_32"
             sodipodi:insensitive="true" />
        <rect
             style="fill:#000000;fill-opacity:1;stroke:none;stroke-width:0.332704;stroke-dasharray:none;stroke-opacity:1"
             id="rect22"
             width="0.81653547"
             height="2.4496064"
             x="66.51622"
             y="64.474884"
             transform="rotate(30)"
             inkscape:label="smaller_marker_03"
             sodipodi:insensitive="true" />
        <rect
             style="fill:#000000;fill-opacity:1;stroke:none;stroke-width:0.332704;stroke-dasharray:none;stroke-opacity:1"
             id="rect21"
             width="0.81653547"
             height="2.4496064"
             x="66.51622"
             y="-31.059765"
             transform="rotate(30)"
             inkscape:label="smaller_marker_33"
             sodipodi:insensitive="true" />
        <rect
             style="fill:#000000;fill-opacity:1;stroke:none;stroke-width:0.332704;stroke-dasharray:none;stroke-opacity:1"
             id="rect25"
             width="0.81653541"
             height="2.4496064"
             x="68.613411"
             y="52.581135"
             transform="rotate(40)"
             inkscape:label="smaller_marker_04"
             sodipodi:insensitive="true" />
        <rect
             style="fill:#000000;fill-opacity:1;stroke:none;stroke-width:0.332704;stroke-dasharray:none;stroke-opacity:1"
             id="rect24"
             width="0.81653541"
             height="2.4496064"
             x="68.613411"
             y="-42.95351"
             transform="rotate(40)"
             inkscape:label="smaller_marker_34"
             sodipodi:insensitive="true" />
        <rect
             style="fill:#000000;fill-opacity:1;stroke:none;stroke-width:0.332704;stroke-dasharray:none;stroke-opacity:1"
             id="rect28"
             width="0.81653541"
             height="2.4496064"
             x="68.613411"
             y="40.503906"
             transform="rotate(50)"
             inkscape:label="smaller_marker_05"
             sodipodi:insensitive="true" />
        <rect
             style="fill:#000000;fill-opacity:1;stroke:none;stroke-width:0.332704;stroke-dasharray:none;stroke-opacity:1"
             id="rect27"
             width="0.81653541"
             height="2.4496064"
             x="68.613411"
             y="-55.030743"
             transform="rotate(50)"
             inkscape:label="smaller_marker_35"
             sodipodi:insensitive="true" />
        <rect
             style="fill:#000000;fill-opacity:1;stroke:none;stroke-width:0.332704;stroke-dasharray:none;stroke-opacity:1"
             id="rect31"
             width="0.81653547"
             height="2.4496064"
             x="62.385567"
             y="17.261274"
             transform="rotate(70)"
             inkscape:label="smaller_marker_11"
             sodipodi:insensitive="true" />
        <rect
             style="fill:#000000;fill-opacity:1;stroke:none;stroke-width:0.332704;stroke-dasharray:none;stroke-opacity:1"
             id="rect30"
             width="0.81653547"
             height="2.4496064"
             x="62.385567"
             y="-78.273369"
             transform="rotate(70)"
             inkscape:label="smaller_marker_41"
             sodipodi:insensitive="true" />
        <rect
             style="fill:#000000;fill-opacity:1;stroke:none;stroke-width:0.332704;stroke-dasharray:none;stroke-opacity:1"
             id="rect34"
             width="0.81653547"
             height="2.4496064"
             x="56.346951"
             y="6.8020883"
             transform="rotate(80)"
             inkscape:label="smaller_marker_12"
             sodipodi:insensitive="true" />
        <rect
             style="fill:#000000;fill-opacity:1;stroke:none;stroke-width:0.332704;stroke-dasharray:none;stroke-opacity:1"
             id="rect33"
             width="0.81653547"
             height="2.4496064"
             x="56.346951"
             y="-88.732567"
             transform="rotate(80)"
             inkscape:label="smaller_marker_42"
             sodipodi:insensitive="true" />
        <rect
             style="fill:#000000;fill-opacity:1;stroke:none;stroke-width:0.332704;stroke-dasharray:none;stroke-opacity:1"
             id="rect37"
             width="0.81653547"
             height="2.4496064"
             x="48.583858"
             y="-2.4496064"
             transform="rotate(90)"
             inkscape:label="smaller_marker_23"
             sodipodi:insensitive="true" />
        <rect
             style="fill:#000000;fill-opacity:1;stroke:none;stroke-width:0.332704;stroke-dasharray:none;stroke-opacity:1"
             id="rect36"
             width="0.81653547"
             height="2.4496064"
             x="48.583858"
             y="-97.984253"
             transform="rotate(90)"
             inkscape:label="smaller_marker_43"
             sodipodi:insensitive="true" />
        <rect
             style="fill:#000000;fill-opacity:1;stroke:none;stroke-width:0.332704;stroke-dasharray:none;stroke-opacity:1"
             id="rect40"
             width="0.81653547"
             height="2.4496064"
             x="39.332165"
             y="-10.212699"
             transform="rotate(100)"
             inkscape:label="smaller_marker_24"
             sodipodi:insensitive="true" />
        <rect
             style="fill:#000000;fill-opacity:1;stroke:none;stroke-width:0.332704;stroke-dasharray:none;stroke-opacity:1"
             id="rect39"
             width="0.81653547"
             height="2.4496064"
             x="39.332165"
             y="-105.74735"
             transform="rotate(100)"
             inkscape:label="smaller_marker_44"
             sodipodi:insensitive="true" />
        <rect
             style="fill:#000000;fill-opacity:1;stroke:none;stroke-width:0.332704;stroke-dasharray:none;stroke-opacity:1"
             id="rect43"
             width="0.81653547"
             height="2.4496064"
             x="28.872978"
             y="-16.251314"
             transform="rotate(110)"
             inkscape:label="smaller_marker_15"
             sodipodi:insensitive="true" />
        <rect
             style="fill:#000000;fill-opacity:1;stroke:none;stroke-width:0.332704;stroke-dasharray:none;stroke-opacity:1"
             id="rect42"
             width="0.81653547"
             height="2.4496064"
             x="28.872978"
             y="-111.78596"
             transform="rotate(110)"
             inkscape:label="smaller_marker_45"
             sodipodi:insensitive="true" />
        <rect
             style="fill:#000000;fill-opacity:1;stroke:none;stroke-width:0.332704;stroke-dasharray:none;stroke-opacity:1"
             id="rect46"
             width="0.81653541"
             height="2.4496064"
             x="5.6303473"
             y="-22.47916"
             transform="rotate(130)"
             inkscape:label="smaller_marker_21"
             sodipodi:insensitive="true" />
        <rect
             style="fill:#000000;fill-opacity:1;stroke:none;stroke-width:0.332704;stroke-dasharray:none;stroke-opacity:1"
             id="rect45"
             width="0.81653541"
             height="2.4496064"
             x="5.6303473"
             y="-118.0138"
             transform="rotate(130)"
             inkscape:label="smaller_marker_51"
             sodipodi:insensitive="true" />
        <rect
             style="fill:#000000;fill-opacity:1;stroke:none;stroke-width:0.332704;stroke-dasharray:none;stroke-opacity:1"
             id="rect49"
             width="0.81653541"
             height="2.4496064"
             x="-6.4468818"
             y="-22.47916"
             transform="rotate(140)"
             inkscape:label="smaller_marker_22"
             sodipodi:insensitive="true" />
        <rect
             style="fill:#000000;fill-opacity:1;stroke:none;stroke-width:0.332704;stroke-dasharray:none;stroke-opacity:1"
             id="rect48"
             width="0.81653541"
             height="2.4496064"
             x="-6.4468818"
             y="-118.01381"
             transform="rotate(140)"
             inkscape:label="smaller_marker_52"
             sodipodi:insensitive="true" />
        <rect
             style="fill:#000000;fill-opacity:1;stroke:none;stroke-width:0.332704;stroke-dasharray:none;stroke-opacity:1"
             id="rect52"
             width="0.81653547"
             height="2.4496064"
             x="-18.34063"
             y="-20.381969"
             transform="rotate(150)"
             inkscape:label="smaller_marker_23"
             sodipodi:insensitive="true" />
        <rect
             style="fill:#000000;fill-opacity:1;stroke:none;stroke-width:0.332704;stroke-dasharray:none;stroke-opacity:1"
             id="rect51"
             width="0.81653547"
             height="2.4496064"
             x="-18.34063"
             y="-115.91662"
             transform="rotate(150)"
             inkscape:label="smaller_marker_53"
             sodipodi:insensitive="true" />
        <rect
             style="fill:#000000;fill-opacity:1;stroke:none;stroke-width:0.332704;stroke-dasharray:none;stroke-opacity:1"
             id="rect55"
             width="0.81653547"
             height="2.4496064"
             x="-29.689514"
             y="-16.251314"
             transform="rotate(160)"
             inkscape:label="smaller_marker_24"
             sodipodi:insensitive="true" />
        <rect
             style="fill:#000000;fill-opacity:1;stroke:none;stroke-width:0.332704;stroke-dasharray:none;stroke-opacity:1"
             id="rect54"
             width="0.81653547"
             height="2.4496064"
             x="-29.689514"
             y="-111.78596"
             transform="rotate(160)"
             inkscape:label="smaller_marker_54"
             sodipodi:insensitive="true" />
        <rect
             style="fill:#000000;fill-opacity:1;stroke:none;stroke-width:0.332704;stroke-dasharray:none;stroke-opacity:1"
             id="rect58"
             width="0.81653547"
             height="2.4496064"
             x="-40.148701"
             y="-10.212699"
             transform="rotate(170)"
             inkscape:label="smaller_marker_25"
             sodipodi:insensitive="true" />
        <rect
             style="fill:#000000;fill-opacity:1;stroke:none;stroke-width:0.332704;stroke-dasharray:none;stroke-opacity:1"
             id="smaller_marker_55"
             width="0.81653547"
             height="2.4496064"
             x="-40.148701"
             y="-105.74735"
             transform="rotate(170)"
             inkscape:label="smaller_marker_55"
             sodipodi:insensitive="true" />
        <path
             d="m 15.389598,39.16312 v -7.242679 h 2.464005 2.03467 c 0.161778,0 0.323556,-0.02489 0.485334,-0.07467 0.174223,-0.04978 0.323556,-0.130669 0.448001,-0.242667 0.136889,-0.112001 0.24889,-0.242668 0.336001,-0.392001 0.08711,-0.149333 0.155556,-0.304889 0.205333,-0.466668 0.04978,-0.174222 0.08089,-0.348444 0.09333,-0.522667 0.02489,-0.174223 0.03733,-0.342223 0.03733,-0.504001 0,-0.174223 -0.01244,-0.348445 -0.03733,-0.522668 -0.01245,-0.174223 -0.04356,-0.342223 -0.09333,-0.504001 -0.04978,-0.161778 -0.118224,-0.317334 -0.205333,-0.466667 -0.08711,-0.149334 -0.199112,-0.280001 -0.336001,-0.392001 -0.124445,-0.112 -0.273778,-0.192889 -0.448001,-0.242667 -0.161778,-0.06222 -0.323556,-0.09333 -0.485334,-0.09333 h -4.424008 v -2.053337 h 4.424008 c 0.373334,0 0.740446,0.03733 1.101335,0.112 0.373334,0.06222 0.721779,0.186665 1.045336,0.373334 0.336001,0.174223 0.628446,0.404445 0.877335,0.690668 0.261333,0.273778 0.466667,0.578667 0.616001,0.914668 0.161778,0.336001 0.273778,0.690668 0.336,1.064002 0.06222,0.373334 0.09333,0.746668 0.09333,1.120002 0,0.373334 -0.03111,0.746668 -0.09333,1.120002 -0.06222,0.360889 -0.17422,0.715557 -0.336,1.064002 -0.149334,0.336001 -0.354668,0.647112 -0.616001,0.933335 -0.248889,0.273778 -0.541334,0.497778 -0.877335,0.672001 -0.323557,0.174223 -0.672002,0.298667 -1.045336,0.373334 -0.360889,0.06222 -0.728001,0.09333 -1.101335,0.09333 h -2.03467 v 5.189342 z"
             id="text1"
             style="font-weight:800;font-size:18.6667px;line-height:1;font-family:'Iosevka Sezimal QP';-inkscape-font-specification:'Iosevka Sezimal QP, Ultra-Bold';text-align:center;text-decoration-color:#d40000;text-anchor:middle;stroke-width:2.01994"
             inkscape:label="bigger_number_2"
             aria-label="󱸂"
             sodipodi:nodetypes="cccsccsccscssccsccsccccsscccccsccc"
             sodipodi:insensitive="true" />
        <path
             d="M 21.406423,73.056786 V 67.88611 q -0.410667,0.09333 -0.840001,0.130666 -0.410668,0.03733 -0.821335,0.03733 -0.578668,0 -1.157335,-0.07467 -0.560002,-0.09333 -1.082669,-0.336001 -0.504001,-0.261333 -0.914668,-0.672001 -0.392001,-0.429334 -0.634668,-0.952001 -0.224001,-0.522668 -0.280001,-1.082669 -0.056,-0.578668 -0.056,-1.157335 v -4.442675 h 2.464005 v 4.442675 q 0,0.392 0.056,0.802668 0.056,0.392 0.28,0.728001 0.224001,0.317334 0.578668,0.504001 0.354667,0.186667 0.746668,0.186667 0.410667,0 0.821335,-0.03733 0.429334,-0.056 0.840001,-0.130666 v -6.496012 h 2.464005 v 13.720025 z"
             id="text3"
             style="font-weight:800;font-size:18.6667px;line-height:1;font-family:'Iosevka Sezimal QP';-inkscape-font-specification:'Iosevka Sezimal QP, Ultra-Bold';text-align:center;text-decoration-color:#d40000;text-anchor:middle;stroke-width:2.01994"
             inkscape:label="bigger_number_1"
             aria-label="󱸁"
             sodipodi:insensitive="true" />
        <path
             d="m 49.203606,89.969806 q -0.560001,0 -1.120002,-0.09333 -0.560001,-0.09333 -1.064002,-0.317334 -0.504001,-0.242667 -0.933335,-0.616001 -0.410667,-0.392001 -0.672001,-0.877335 -0.261334,-0.504001 -0.373334,-1.045335 -0.112,-0.560001 -0.112,-1.120002 v -5.880011 q 0,-0.560001 0.112,-1.101335 0.112,-0.560001 0.373334,-1.045336 0.261334,-0.504 0.672001,-0.877334 0.429334,-0.392001 0.933335,-0.616002 0.504001,-0.242667 1.064002,-0.336 0.560001,-0.09333 1.120002,-0.09333 0.560001,0 1.120002,0.09333 0.560001,0.09333 1.064002,0.336 0.504001,0.224001 0.914668,0.616002 0.429334,0.373334 0.690668,0.877334 0.261334,0.485335 0.373334,1.045336 0.112,0.541334 0.112,1.101335 v 5.880011 q 0,0.560001 -0.112,1.120002 -0.112,0.541334 -0.373334,1.045335 -0.261334,0.485334 -0.690668,0.877335 -0.410667,0.373334 -0.914668,0.616001 -0.504001,0.224 -1.064002,0.317334 -0.560001,0.09333 -1.120002,0.09333 z m 0,-2.053337 q 0.392001,0 0.746668,-0.130667 0.373334,-0.149333 0.616001,-0.448 0.261334,-0.298668 0.354667,-0.672002 0.09333,-0.373334 0.09333,-0.765334 v -5.880011 q 0,-0.392001 -0.09333,-0.765335 -0.09333,-0.373334 -0.354667,-0.672001 -0.242667,-0.298667 -0.616001,-0.429334 -0.354667,-0.149334 -0.746668,-0.149334 -0.392001,0 -0.765335,0.149334 -0.354667,0.130667 -0.616001,0.429334 -0.242667,0.298667 -0.336001,0.672001 -0.09333,0.373334 -0.09333,0.765335 v 5.880011 q 0,0.392 0.09333,0.765334 0.09333,0.373334 0.336001,0.672002 0.261334,0.298667 0.616001,0.448 0.373334,0.130667 0.765335,0.130667 z m 0,-3.378672 q -0.186667,0 -0.354667,-0.056 -0.168001,-0.07467 -0.280001,-0.224 -0.112,-0.149334 -0.149334,-0.317334 -0.03733,-0.186667 -0.03733,-0.373334 v -1.213335 q 0,-0.186667 0.03733,-0.354668 0.03733,-0.186667 0.149334,-0.336 0.112,-0.149334 0.280001,-0.205334 0.168,-0.07467 0.354667,-0.07467 0.186667,0 0.354667,0.07467 0.168001,0.056 0.280001,0.205334 0.112,0.149333 0.149333,0.336 0.03733,0.168001 0.03733,0.354668 v 1.213335 q 0,0.186667 -0.03733,0.373334 -0.03733,0.168 -0.149333,0.317334 -0.112,0.149334 -0.280001,0.224 -0.168,0.056 -0.354667,0.056 z"
             id="text4"
             style="font-weight:800;font-size:18.6667px;line-height:1;font-family:'Iosevka Sezimal QP';-inkscape-font-specification:'Iosevka Sezimal QP, Ultra-Bold';text-align:center;text-decoration-color:#d40000;text-anchor:middle;stroke-width:2.01994"
             inkscape:label="bigger_number_0"
             aria-label="󱸀"
             sodipodi:insensitive="true" />
        <path
             d="m 78.469309,72.839824 q -0.560001,0 -1.120002,-0.09333 -0.560001,-0.09333 -1.064002,-0.317334 -0.504001,-0.242667 -0.933335,-0.616001 -0.429334,-0.392001 -0.690668,-0.877335 -0.261334,-0.485334 -0.373334,-1.045335 -0.112,-0.560001 -0.112,-1.120002 v -5.880011 q 0,-0.560001 0.112,-1.101335 0.112,-0.560001 0.373334,-1.045336 0.261334,-0.504 0.672001,-0.877334 0.429334,-0.392001 0.933335,-0.616002 0.504001,-0.242667 1.064002,-0.336 0.560001,-0.09333 1.120002,-0.09333 0.560001,0 1.120002,0.09333 0.560001,0.09333 1.064002,0.336 0.504001,0.224001 0.914668,0.616002 0.429334,0.373334 0.690668,0.877334 0.261334,0.485335 0.373334,1.045336 0.112,0.541334 0.112,1.101335 v 0.728001 q 0,0.504001 -0.056,0.989335 -0.056,0.485335 -0.224,0.952002 -0.168001,0.466668 -0.448001,0.896002 -0.280001,0.410667 -0.690668,0.709334 -0.392001,0.280001 -0.877335,0.410668 -0.466667,0.112 -0.970668,0.112 -0.429334,0 -0.877335,-0.09333 -0.429334,-0.09333 -0.802668,-0.317334 -0.373334,-0.242667 -0.672002,-0.578668 -0.28,-0.336001 -0.466667,-0.746668 v 2.818672 q 0,0.392 0.09333,0.784001 0.112001,0.373334 0.354668,0.672001 0.242667,0.280001 0.616001,0.429334 0.373334,0.130667 0.765335,0.130667 0.354667,0 0.690668,-0.09333 0.336,-0.09333 0.597334,-0.317334 0.261334,-0.224001 0.392001,-0.541334 0.149333,-0.336001 0.149333,-0.672002 v -0.056 h 2.464005 v 0.112 q 0,0.522668 -0.149334,1.045336 -0.149334,0.504001 -0.448001,0.952001 -0.28,0.429335 -0.709334,0.765335 -0.429334,0.317334 -0.914669,0.522668 -0.485334,0.186667 -1.026668,0.261334 -0.522668,0.07467 -1.045335,0.07467 z m -0.01867,-7.205346 q 0.392001,0 0.746668,-0.130667 0.373334,-0.149334 0.616001,-0.429334 0.261334,-0.298667 0.354667,-0.672001 0.09333,-0.392001 0.09333,-0.784002 v -0.728001 q 0,-0.392001 -0.09333,-0.765335 -0.09333,-0.373334 -0.354667,-0.672001 -0.242667,-0.298667 -0.616001,-0.429334 -0.354667,-0.149334 -0.746668,-0.149334 -0.392001,0 -0.765335,0.149334 -0.354667,0.130667 -0.616001,0.429334 -0.242667,0.298667 -0.336001,0.672001 -0.09333,0.373334 -0.09333,0.765335 v 0.728001 q 0,0.392001 0.09333,0.784002 0.09333,0.373334 0.336001,0.672001 0.261334,0.28 0.616001,0.429334 0.373334,0.130667 0.765335,0.130667 z"
             id="text5"
             style="font-weight:800;font-size:18.6667px;line-height:1;font-family:'Iosevka Sezimal QP';-inkscape-font-specification:'Iosevka Sezimal QP, Ultra-Bold';text-align:center;text-decoration-color:#d40000;text-anchor:middle;stroke-width:2.01994"
             inkscape:label="bigger_number_5"
             aria-label="󱸅"
             sodipodi:insensitive="true" />
        <path
             d="m 78.220496,38.946159 q -0.317334,0 -0.634668,-0.03733 -0.317334,-0.01867 -0.634668,-0.09333 -0.298667,-0.056 -0.597334,-0.168 -0.298667,-0.112 -0.578668,-0.261334 -0.261334,-0.168 -0.504001,-0.373334 -0.242667,-0.224 -0.448,-0.466668 -0.186667,-0.242667 -0.336001,-0.522667 -0.149334,-0.280001 -0.242667,-0.578668 -0.09333,-0.298667 -0.149334,-0.672001 -0.056,-0.373334 -0.056,-0.578668 v -0.28 q 0,-0.186667 0.01867,-0.373334 0.01867,-0.186667 0.03733,-0.373334 0.03733,-0.186667 0.07467,-0.354668 0.056,-0.186667 0.112,-0.354667 0.07467,-0.186667 0.149334,-0.354667 0.07467,-0.168001 0.149333,-0.336001 0.09333,-0.168 0.186667,-0.317334 0.112001,-0.168 0.205334,-0.317334 0.112,-0.149333 0.224001,-0.298667 0.112,-0.149333 0.261333,-0.317334 0.149334,-0.186667 0.261334,-0.317334 0.112,-0.130667 0.205334,-0.224 l 0.205334,-0.224 3.173339,-3.62134 h -5.189343 v -2.053337 h 8.250681 v 2.053337 l -4.405341,4.984009 q -0.168,0.186667 -0.336,0.373334 -0.168001,0.186667 -0.336001,0.392 -0.149334,0.205334 -0.280001,0.410668 -0.130666,0.205334 -0.242667,0.448001 -0.09333,0.224 -0.186667,0.522667 -0.07467,0.280001 -0.07467,0.448001 v 0.205334 q 0,0.242667 0.01867,0.466667 0.03733,0.224001 0.112,0.448001 0.07467,0.224 0.205334,0.429334 0.149334,0.186667 0.336001,0.317334 0.186667,0.130667 0.448001,0.224 0.261333,0.09333 0.410667,0.09333 h 0.186667 q 0.205334,0 0.410667,-0.03733 0.224001,-0.03733 0.410668,-0.112001 0.186667,-0.07467 0.336,-0.205333 0.168001,-0.149334 0.280001,-0.317334 0.130667,-0.168001 0.205334,-0.410668 0.07467,-0.242667 0.07467,-0.373334 v -0.224 h 2.464005 v 0.112 q 0,0.298667 -0.056,0.597335 -0.03733,0.298667 -0.130667,0.597334 -0.09333,0.28 -0.224001,0.541334 -0.130666,0.261334 -0.317333,0.504001 -0.186667,0.224001 -0.429335,0.429334 -0.224,0.186667 -0.485334,0.354668 -0.242667,0.149333 -0.522667,0.261333 -0.280001,0.112001 -0.578668,0.186667 -0.280001,0.07467 -0.634668,0.112001 -0.336,0.03733 -0.541334,0.03733 z"
             id="text7"
             style="font-weight:800;font-size:18.6667px;line-height:1;font-family:'Iosevka Sezimal QP';-inkscape-font-specification:'Iosevka Sezimal QP, Ultra-Bold';text-align:center;text-decoration-color:#d40000;text-anchor:middle;stroke-width:2.01994"
             inkscape:label="bigger_number_4"
             aria-label="󱸄"
             sodipodi:insensitive="true" />
        <path
             d="m 47.567308,22.033138 v -5.562676 q -0.466667,-0.09333 -0.896001,-0.261334 -0.410668,-0.186667 -0.784002,-0.466668 -0.354667,-0.28 -0.634668,-0.653334 -0.261333,-0.373334 -0.448,-0.784002 -0.168001,-0.429334 -0.242668,-0.877335 -0.056,-0.466667 -0.056,-0.933335 v -0.261333 q 0,-0.560001 0.112001,-1.101336 0.112,-0.560001 0.373334,-1.045335 0.261333,-0.5040009 0.672001,-0.8773349 0.429334,-0.3920007 0.933335,-0.6160011 0.504001,-0.2426671 1.064002,-0.3360006 0.560001,-0.093333 1.120002,-0.093333 0.560001,0 1.120002,0.093333 0.560001,0.093333 1.064002,0.3360006 0.504001,0.2240004 0.914668,0.6160011 0.429334,0.373334 0.690668,0.8773349 0.261334,0.485334 0.373334,1.045335 0.112,0.541335 0.112,1.101336 v 0.261333 q 0,0.466668 -0.07467,0.914669 -0.056,0.448001 -0.242667,0.877335 -0.168,0.429334 -0.448001,0.802668 -0.261333,0.354667 -0.616001,0.634668 -0.354667,0.28 -0.784001,0.466667 -0.429334,0.186667 -0.877335,0.280001 v 5.562676 z m 1.213336,-7.52268 q 0.392,0 0.746668,-0.130667 0.373334,-0.149333 0.616001,-0.429334 0.261334,-0.298667 0.354667,-0.672001 0.09333,-0.392001 0.09333,-0.784002 v -0.261333 q 0,-0.392001 -0.09333,-0.765335 -0.09333,-0.373334 -0.354667,-0.672001 -0.242667,-0.298668 -0.616001,-0.429334 -0.354668,-0.149334 -0.746668,-0.149334 -0.392001,0 -0.765335,0.149334 -0.354667,0.130666 -0.616001,0.429334 -0.242667,0.298667 -0.336001,0.672001 -0.09333,0.373334 -0.09333,0.765335 v 0.261333 q 0,0.392001 0.09333,0.784002 0.09333,0.373334 0.336001,0.672001 0.261334,0.280001 0.616001,0.429334 0.373334,0.130667 0.765335,0.130667 z"
             id="text2"
             style="font-weight:800;font-size:18.6667px;line-height:1;font-family:'Iosevka Sezimal QP';-inkscape-font-specification:'Iosevka Sezimal QP, Ultra-Bold';text-align:center;text-decoration-color:#d40000;text-anchor:middle;stroke-width:2.01994"
             inkscape:label="bigger_number_3"
             aria-label="󱸃"
             sodipodi:insensitive="true" />
    </g>
    <g
         id="uta"
         inkscape:label="uta"
         style="display:inline"
         sodipodi:insensitive="true">
        <animateTransform
             attributeName="transform"
             begin="0s"
             dur="86400s"
             type="rotate"
             from="0 48.992123 48.992123"
             to="360 48.992123 48.992123"
             repeatCount="indefinite" />
        <circle
             style="fill:#ffffff;fill-opacity:0;stroke-width:6.55315;stroke-linecap:round;-inkscape-stroke:none"
             id="circle4"
             cx="48.992123"
             cy="48.992123"
             r="48.992126"
             inkscape:label="anchor_uta"
             sodipodi:insensitive="true" />
        <g
             id="g5"
             inkscape:label="face_uta"
             sodipodi:insensitive="true">
            <rect
                 style="fill:#0066ff;fill-opacity:1;stroke-width:0.14908"
                 id="rect4"
                 width="2.4491341"
                 height="28.306562"
                 x="47.767555"
                 y="48.992126"
                 inkscape:label="hand_uta"
                 sodipodi:insensitive="true" />
            <circle
                 style="fill:#0066ff;fill-opacity:1;stroke-width:1.31688"
                 id="circle5"
                 cx="48.992123"
                 cy="48.992123"
                 r="1.2245671"
                 inkscape:label="anchor_hand_uta"
                 sodipodi:insensitive="true" />
        </g>
    </g>
    <g
         id="posha"
         inkscape:label="posha"
         style="display:inline"
         sodipodi:insensitive="true">
        <animateTransform
             attributeName="transform"
             begin="0s"
             dur="2400s"
             type="rotate"
             from="0 48.992123 48.992123"
             to="360 48.992123 48.992123"
             repeatCount="indefinite" />
        <circle
             style="fill:#ffffff;fill-opacity:0;stroke-width:6.55315;stroke-linecap:round;-inkscape-stroke:none"
             id="circle1"
             cx="48.992123"
             cy="48.992123"
             r="48.992126"
             inkscape:label="anchor_posha"
             sodipodi:insensitive="true" />
        <g
             id="g2"
             inkscape:label="face_posha"
             sodipodi:insensitive="true">
            <rect
                 style="fill:#44aa00;fill-opacity:1;stroke-width:0.14908"
                 id="rect1"
                 width="1.6330709"
                 height="35.383938"
                 x="48.175591"
                 y="48.992126"
                 inkscape:label="hand_posha"
                 sodipodi:insensitive="true" />
            <circle
                 style="fill:#44aa00;fill-opacity:1;stroke-width:1.31688"
                 id="circle2"
                 cx="48.992123"
                 cy="48.992123"
                 r="0.81653547"
                 inkscape:label="anchor_hand_posha"
                 sodipodi:insensitive="true" />
        </g>
    </g>
    <g
         id="agrima"
         inkscape:label="agrima"
         style="display:inline"
         sodipodi:insensitive="true">
        <animateTransform
             attributeName="transform"
             begin="0s"
             dur="66666.666ms"
             type="rotate"
             from="0 48.992123 48.992123"
             to="360 48.992123 48.992123"
             repeatCount="indefinite" />
        <circle
             style="fill:#ffffff;fill-opacity:0;stroke-width:6.55315;stroke-linecap:round;-inkscape-stroke:none"
             id="circle3"
             cx="48.992123"
             cy="48.992123"
             r="48.992126"
             inkscape:label="anchor_agrima"
             sodipodi:insensitive="true" />
        <g
             id="g6"
             inkscape:label="face_agrima"
             sodipodi:insensitive="true">
            <rect
                 style="fill:#ffcc00;stroke-width:0.115464"
                 id="rect3"
                 width="0.816378"
                 height="42.459843"
                 x="48.583935"
                 y="48.992126"
                 inkscape:label="hand_agrima"
                 sodipodi:insensitive="true" />
            <circle
                 style="fill:#ffcc00;stroke-width:0.658313"
                 id="circle6"
                 cx="48.992123"
                 cy="48.992123"
                 r="0.408189"
                 inkscape:label="anchor_hand_agrima"
                 sodipodi:insensitive="true" />
        </g>
    </g>
    <g
         id="anuga"
         inkscape:label="anuga"
         style="display:inline"
         sodipodi:insensitive="true">
        <animateTransform
             attributeName="transform"
             begin="0s"
             dur="1851.851ms"
             type="rotate"
             from="0 48.992123 48.992123"
             to="360 48.992123 48.992123"
             repeatCount="indefinite" />
        <circle
             style="fill:#ffffff;fill-opacity:0;stroke-width:6.55315;stroke-linecap:round;-inkscape-stroke:none"
             id="circle7"
             cx="48.992123"
             cy="48.992123"
             r="48.992126"
             inkscape:label="anchor_anuga"
             sodipodi:insensitive="true" />
        <g
             id="g8"
             inkscape:label="face_anuga"
             sodipodi:insensitive="true">
            <rect
                 style="fill:#d40000;stroke-width:0.115464"
                 id="rect7"
                 width="0.612284"
                 height="42.459843"
                 x="48.685982"
                 y="48.992126"
                 inkscape:label="hand_anuga"
                 sodipodi:insensitive="true" />
            <circle
                 style="fill:#d40000;stroke-width:0.658313"
                 id="circle8"
                 cx="48.992123"
                 cy="48.992123"
                 r="0.306142"
                 inkscape:label="anchor_hand_anuga"
                 sodipodi:insensitive="true" />
        </g>
    </g>
</svg>
