<?xml version="1.0" encoding="UTF-8" standalone="no"?>
<!-- Created with Inkscape (http://www.inkscape.org/) -->

<svg
   width="465"
   height="323"
   viewBox="0 0 464.99983 322.99988"
   version="1.1"
   id="svg1"
   inkscape:version="1.3.2 (091e20ef0f, 2023-11-25, custom)"
   sodipodi:docname="shastadari-units-black-background.svg"
   xmlns:inkscape="http://www.inkscape.org/namespaces/inkscape"
   xmlns:sodipodi="http://sodipodi.sourceforge.net/DTD/sodipodi-0.dtd"
   xmlns="http://www.w3.org/2000/svg"
   xmlns:svg="http://www.w3.org/2000/svg">
  <sodipodi:namedview
     id="namedview1"
     pagecolor="#ffffff"
     bordercolor="#000000"
     borderopacity="0.25"
     inkscape:showpageshadow="2"
     inkscape:pageopacity="0.0"
     inkscape:pagecheckerboard="0"
     inkscape:deskcolor="#d1d1d1"
     inkscape:document-units="px"
     inkscape:zoom="0.82106906"
     inkscape:cx="266.11647"
     inkscape:cy="118.13866"
     inkscape:window-width="1920"
     inkscape:window-height="944"
     inkscape:window-x="0"
     inkscape:window-y="32"
     inkscape:window-maximized="1"
     inkscape:current-layer="layer1"
     showgrid="false" />
  <defs
     id="defs1">
    <filter
       inkscape:collect="always"
       style="color-interpolation-filters:sRGB"
       id="filter11"
       x="-0.24238966"
       y="-0.51402269"
       width="1.4847793"
       height="2.0280454">
      <feGaussianBlur
         inkscape:collect="always"
         stdDeviation="5.3847561"
         id="feGaussianBlur11" />
    </filter>
    <filter
       inkscape:collect="always"
       style="color-interpolation-filters:sRGB"
       id="filter1"
       x="-0.34599559"
       y="-0.78541133"
       width="1.6919912"
       height="2.5708227">
      <feGaussianBlur
         inkscape:collect="always"
         stdDeviation="8.2277494"
         id="feGaussianBlur1" />
    </filter>
  </defs>
  <g
     inkscape:label="Camada 1"
     inkscape:groupmode="layer"
     id="layer1"
     style="display:inline"
     transform="translate(-1.3691438e-5)">
    <ellipse
       style="fill:#aa00d4;stroke:#000000;stroke-width:0.965741;stroke-linecap:round;stroke-miterlimit:2.6;stroke-dasharray:none;stroke-opacity:1"
       id="circle1749-7-59-6"
       cx="-410.85745"
       cy="-215.17238"
       transform="scale(-1)"
       rx="53.659729"
       ry="53.67205" />
    <ellipse
       style="font-variation-settings:normal;vector-effect:none;fill:#d40055;fill-opacity:1;stroke:#000000;stroke-width:0.965741;stroke-linecap:round;stroke-linejoin:miter;stroke-miterlimit:2.6;stroke-dasharray:none;stroke-dashoffset:0;stroke-opacity:1;-inkscape-stroke:none;stop-color:#000000"
       id="circle1823-9-97"
       cx="-410.85748"
       cy="-107.82774"
       transform="scale(-1)"
       rx="53.659729"
       ry="53.67205" />
    <polygon
       points="22.808925,39.25 67.726776,39.25 90.185702,78.15 67.726776,117.05 22.808925,117.05 0.35,78.15 "
       style="fill:#5500d4;fill-opacity:1;stroke:none;stroke-width:0.7;stroke-linecap:round"
       id="hexfill_1_1-6-7"
       transform="matrix(-1.3794344,0,0,-1.3797512,310.77174,322.99976)" />
    <polygon
       points="22.808925,117.05 67.726776,117.05 90.185702,155.95 67.726776,194.85 22.808925,194.85 0.35,155.95 "
       style="fill:#0000ff;fill-opacity:1;stroke:none;stroke-width:0.7;stroke-linecap:round"
       id="polygon1696-5-9"
       transform="matrix(-1.3794344,0,0,-1.3797512,310.77174,322.99976)" />
    <polygon
       points="90.185702,0.35 135.10355,0.35 157.56248,39.25 135.10355,78.15 90.185702,78.15 67.726776,39.25 "
       style="font-variation-settings:normal;vector-effect:none;fill:#ff6600;fill-opacity:1;stroke:none;stroke-width:0.7;stroke-linecap:round;stroke-linejoin:miter;stroke-miterlimit:4;stroke-dasharray:none;stroke-dashoffset:0;stroke-opacity:1;-inkscape-stroke:none;stop-color:#000000"
       id="polygon1698-6-3"
       transform="matrix(-1.3794344,0,0,-1.3797512,310.77174,322.99976)" />
    <polygon
       points="90.185702,78.15 135.10355,78.15 157.56248,117.05 135.10355,155.95 90.185702,155.95 67.726776,117.05 "
       style="font-variation-settings:normal;vector-effect:none;fill:#d40000;fill-opacity:1;stroke:none;stroke-width:0.7;stroke-linecap:round;stroke-linejoin:miter;stroke-miterlimit:4;stroke-dasharray:none;stroke-dashoffset:0;stroke-opacity:1;-inkscape-stroke:none;stop-color:#000000"
       id="polygon1699-3-6"
       transform="matrix(-1.3794344,0,0,-1.3797512,310.77174,322.99976)" />
    <polygon
       points="90.185702,155.95 135.10355,155.95 157.56248,194.85 135.10355,233.75 90.185702,233.75 67.726776,194.85 "
       style="font-variation-settings:normal;vector-effect:none;fill:#0066ff;fill-opacity:1;stroke:none;stroke-width:0.7;stroke-linecap:round;stroke-linejoin:miter;stroke-miterlimit:4;stroke-dasharray:none;stroke-dashoffset:0;stroke-opacity:1;-inkscape-stroke:none;stop-color:#000000"
       id="polygon1700-9-2"
       transform="matrix(-1.3794344,0,0,-1.3797512,310.77174,322.99976)" />
    <polygon
       points="157.56248,39.25 202.48033,39.25 224.93926,78.15 202.48033,117.05 157.56248,117.05 135.10355,78.15 "
       style="font-variation-settings:normal;vector-effect:none;fill:#ffcc00;fill-opacity:1;stroke:none;stroke-width:0.7;stroke-linecap:round;stroke-linejoin:miter;stroke-miterlimit:4;stroke-dasharray:none;stroke-dashoffset:0;stroke-opacity:1;-inkscape-stroke:none;stop-color:#000000"
       id="hexfill_3_1-4-12"
       transform="matrix(-1.3794344,0,0,-1.3797512,310.77174,322.99976)" />
    <polygon
       points="157.56248,117.05 202.48033,117.05 224.93926,155.95 202.48033,194.85 157.56248,194.85 135.10355,155.95 "
       style="font-variation-settings:normal;vector-effect:none;fill:#44aa00;fill-opacity:1;stroke:none;stroke-width:0.7;stroke-linecap:round;stroke-linejoin:miter;stroke-miterlimit:4;stroke-dasharray:none;stroke-dashoffset:0;stroke-opacity:1;-inkscape-stroke:none;stop-color:#000000"
       id="polygon1701-8-5"
       transform="matrix(-1.3794344,0,0,-1.3797512,310.77174,322.99976)" />
    <path
       d="m 382.87976,227.60789 v -17.59582 h 4.93923 v 2.57169 q 0.23681,-0.60908 0.60895,-1.15049 0.37213,-0.54141 0.87958,-0.91363 0.50746,-0.40606 1.11641,-0.57525 0.64277,-0.20303 1.28555,-0.20303 0.81193,0 1.5562,0.30455 0.74426,0.2707 1.28555,0.84595 0.57512,0.54141 0.94725,1.25201 0.37213,0.7106 0.57511,1.48888 0.16916,-0.77828 0.50746,-1.48888 0.3383,-0.7106 0.87959,-1.25201 0.57512,-0.57525 1.31938,-0.84595 0.74427,-0.30455 1.52237,-0.30455 0.7781,0 1.52236,0.30455 0.7781,0.2707 1.31939,0.84595 0.57511,0.54141 0.91342,1.25201 0.37213,0.7106 0.57511,1.48888 0.20299,0.77827 0.27065,1.55655 0.10149,0.77828 0.10149,1.59039 v 10.8282 h -4.93923 v -10.8282 q 0,-0.50757 -0.0677,-0.9813 -0.0677,-0.50758 -0.27065,-0.94747 -0.20298,-0.4399 -0.60894,-0.74444 -0.40597,-0.30454 -0.87959,-0.30454 -0.50746,0 -0.91342,0.30454 -0.37214,0.30454 -0.57512,0.74444 -0.20298,0.43989 -0.27064,0.94747 -0.0677,0.47373 -0.0677,0.9813 v 10.8282 h -4.93923 v -10.8282 q 0,-0.50757 -0.0677,-0.9813 -0.0677,-0.50758 -0.27065,-0.94747 -0.20298,-0.4399 -0.60894,-0.74444 -0.37214,-0.30454 -0.87959,-0.30454 -0.47363,0 -0.87959,0.30454 -0.40597,0.30454 -0.60895,0.74444 -0.20298,0.43989 -0.27064,0.94747 -0.0677,0.47373 -0.0677,0.9813 v 10.8282 z m 32.5786,0.2707 q -0.87959,0 -1.75918,-0.23686 -0.84576,-0.23687 -1.52236,-0.77828 -0.67661,-0.57525 -1.15024,-1.31969 -0.47362,-0.74444 -0.74426,-1.59039 -0.27065,-0.84595 -0.37214,-1.6919 -0.10149,-0.8798 -0.10149,-1.75959 v -3.38381 q 0,-0.87979 0.10149,-1.72574 0.10149,-0.87979 0.37214,-1.72575 0.27064,-0.84595 0.74426,-1.59039 0.47363,-0.74444 1.15024,-1.28585 0.6766,-0.57524 1.52236,-0.81211 0.87959,-0.23687 1.75918,-0.23687 0.74427,0 1.48854,0.16919 0.74426,0.16919 1.35321,0.57525 0.64278,0.40606 1.1164,0.98131 0.50746,0.57524 0.81193,1.25201 v -9.98225 h 4.93923 v 24.87102 h -4.93923 v -2.70705 q -0.30447,0.67676 -0.81193,1.25201 -0.47362,0.57525 -1.1164,0.9813 -0.60895,0.40606 -1.35321,0.57525 -0.74427,0.16919 -1.48854,0.16919 z m 2.02982,-4.06057 q 0.60895,0 1.18406,-0.23687 0.57512,-0.2707 0.94725,-0.74444 0.37214,-0.50757 0.47363,-1.11665 0.13532,-0.60909 0.13532,-1.21818 v -3.38381 q 0,-0.60908 -0.13532,-1.21817 -0.10149,-0.60909 -0.47363,-1.08282 -0.37213,-0.50757 -0.94725,-0.74444 -0.57511,-0.2707 -1.18406,-0.2707 -0.60894,0 -1.18406,0.2707 -0.57512,0.23687 -0.94725,0.74444 -0.37213,0.47373 -0.50746,1.08282 -0.10149,0.60909 -0.10149,1.21817 v 3.38381 q 0,0.60909 0.10149,1.21818 0.13533,0.60908 0.50746,1.11665 0.37213,0.47374 0.94725,0.74444 0.57512,0.23687 1.18406,0.23687 z m 19.99375,4.06057 q -0.7781,0 -1.52236,-0.16919 -0.74427,-0.13535 -1.42088,-0.50757 -0.64278,-0.40606 -1.15023,-0.98131 -0.47363,-0.60908 -0.7781,-1.31968 -0.30447,-0.7106 -0.43979,-1.45504 -0.10149,-0.74444 -0.10149,-1.52272 v -19.18621 h 4.93923 v 19.18621 q 0,0.16919 0,0.37222 0,0.16919 0,0.37222 0.0338,0.16919 0.0677,0.33838 0.0338,0.16919 0.10149,0.33838 0.0677,0.1692 0.16915,0.33839 0.13532,0.13535 0.3383,0.13535 0.27065,0 0.4398,-0.20303 0.16915,-0.23687 0.23681,-0.47373 0.10149,-0.27071 0.13532,-0.54141 0.0338,-0.27071 0.0677,-0.54141 l 4.26263,1.04898 q -0.10149,1.01514 -0.54129,1.92877 -0.40596,0.91363 -1.15023,1.59039 -0.71044,0.67676 -1.69152,0.98131 -0.98108,0.2707 -1.96216,0.2707 z"
       id="text1748-8-7-2-5"
       style="font-weight:900;font-size:25.4px;line-height:1;font-family:'Iosevka Sezimal QP';-inkscape-font-specification:'Iosevka Sezimal QP, Heavy';text-align:center;text-decoration-color:#d40000;text-anchor:middle;mix-blend-mode:normal;fill:#eeaaff;stroke:none;stroke-width:0.499999;stroke-linecap:round;stroke-miterlimit:2.6;stroke-dasharray:none;stroke-opacity:1;filter:url(#filter11)"
       aria-label="mdl" />
    <path
       d="m 393.8746,127.80916 q -0.87958,0 -1.72534,-0.10152 -0.84576,-0.0677 -1.69152,-0.33838 -0.81193,-0.23686 -1.59003,-0.67676 -0.74426,-0.43989 -1.31938,-1.08282 -0.54129,-0.64292 -0.87959,-1.48888 -0.30447,-0.81211 -0.3383,-1.65806 h 4.93923 q 0,0.40605 0.30447,0.67676 0.3383,0.2707 0.71044,0.40606 0.40596,0.13535 0.7781,0.16919 0.40596,0.0338 0.81192,0.0338 0.60895,0 1.15024,-0.2707 0.57511,-0.23687 0.91342,-0.74444 0.37213,-0.47373 0.47362,-1.08282 0.13532,-0.60909 0.13532,-1.21817 v -2.87624 q -0.30447,0.67676 -0.81193,1.25201 -0.47362,0.57525 -1.1164,0.9813 -0.60894,0.40606 -1.35321,0.57525 -0.74427,0.16919 -1.48854,0.16919 -0.87959,0 -1.75917,-0.23686 -0.84576,-0.23687 -1.52237,-0.77828 -0.67661,-0.57525 -1.15023,-1.31969 -0.47363,-0.74444 -0.74427,-1.59039 -0.27064,-0.84595 -0.37213,-1.6919 -0.10149,-0.8798 -0.10149,-1.75959 v -3.38381 q 0,-0.87979 0.10149,-1.72574 0.10149,-0.87979 0.37213,-1.72575 0.27064,-0.84595 0.74427,-1.59039 0.47362,-0.74444 1.15023,-1.28585 0.67661,-0.57524 1.52237,-0.81211 0.87958,-0.23687 1.75917,-0.23687 0.74427,0 1.48854,0.16919 0.74427,0.16919 1.35321,0.57525 0.64278,0.40606 1.1164,0.98131 0.50746,0.57524 0.81193,1.25201 v -2.70705 h 4.93923 v 17.76501 q 0,1.01514 -0.20298,1.99645 -0.16915,1.01514 -0.64278,1.89493 -0.47362,0.87979 -1.21789,1.59039 -0.74427,0.7106 -1.65769,1.11666 -0.87958,0.4399 -1.89449,0.60909 -0.98109,0.16919 -1.996,0.16919 z m -0.0677,-11.33577 q 0.60895,0 1.18407,-0.23687 0.57511,-0.2707 0.94725,-0.74444 0.37213,-0.50757 0.47362,-1.11665 0.13532,-0.60909 0.13532,-1.21818 v -3.38381 q 0,-0.60908 -0.13532,-1.21817 -0.10149,-0.60909 -0.47362,-1.08282 -0.37214,-0.50757 -0.94725,-0.74444 -0.57512,-0.2707 -1.18407,-0.2707 -0.60894,0 -1.18406,0.2707 -0.57511,0.23687 -0.94725,0.74444 -0.37213,0.47373 -0.50745,1.08282 -0.10149,0.60909 -0.10149,1.21817 v 3.38381 q 0,0.60909 0.10149,1.21818 0.13532,0.60908 0.50745,1.11665 0.37214,0.47374 0.94725,0.74444 0.57512,0.23687 1.18406,0.23687 z m 20.43355,4.06057 q -1.01491,0 -2.02982,-0.16919 -1.01492,-0.13535 -1.96216,-0.54141 -0.91342,-0.43989 -1.69152,-1.15049 -0.74427,-0.7106 -1.25173,-1.59039 -0.47362,-0.8798 -0.6766,-1.89494 -0.20298,-1.01514 -0.20298,-2.03029 v -3.38381 q 0,-1.01514 0.20298,-2.03029 0.20298,-1.01514 0.6766,-1.89493 0.50746,-0.87979 1.25173,-1.59039 0.7781,-0.7106 1.69152,-1.11666 0.94724,-0.4399 1.96216,-0.57525 1.01491,-0.16919 2.02982,-0.16919 1.01491,0 2.02982,0.16919 1.01491,0.13535 1.92833,0.57525 0.94725,0.40606 1.69152,1.11666 0.77809,0.7106 1.25172,1.59039 0.50745,0.87979 0.71044,1.89493 0.20298,1.01515 0.20298,2.03029 v 3.38381 q 0,1.01515 -0.20298,2.03029 -0.20299,1.01514 -0.71044,1.89494 -0.47363,0.87979 -1.25172,1.59039 -0.74427,0.7106 -1.69152,1.15049 -0.91342,0.40606 -1.92833,0.54141 -1.01491,0.16919 -2.02982,0.16919 z m 0,-4.06057 q 0.60894,0 1.21789,-0.23687 0.60895,-0.23686 0.98108,-0.7106 0.40596,-0.50757 0.54128,-1.11666 0.13533,-0.64292 0.13533,-1.25201 v -3.38381 q 0,-0.60908 -0.13533,-1.21817 -0.13532,-0.64293 -0.54128,-1.11666 -0.37213,-0.50757 -0.98108,-0.74444 -0.60895,-0.23686 -1.21789,-0.23686 -0.60895,0 -1.2179,0.23686 -0.60894,0.23687 -1.01491,0.74444 -0.37213,0.47373 -0.50745,1.11666 -0.13532,0.60909 -0.13532,1.21817 v 3.38381 q 0,0.60909 0.13532,1.25201 0.13532,0.60909 0.50745,1.11666 0.40597,0.47374 1.01491,0.7106 0.60895,0.23687 1.2179,0.23687 z m 19.85843,4.06057 q -0.7781,0 -1.52237,-0.16919 -0.74427,-0.13535 -1.42087,-0.50757 -0.64278,-0.40606 -1.15024,-0.9813 -0.47362,-0.60909 -0.77809,-1.31969 -0.30448,-0.7106 -0.4398,-1.45504 -0.10149,-0.74444 -0.10149,-1.52272 V 95.392241 h 4.93923 v 19.186209 q 0,0.16919 0,0.37222 0,0.16919 0,0.37222 0.0338,0.16919 0.0677,0.33838 0.0338,0.16919 0.10149,0.33839 0.0677,0.16919 0.16915,0.33838 0.13533,0.13535 0.33831,0.13535 0.27064,0 0.43979,-0.20303 0.16915,-0.23687 0.23682,-0.47373 0.10149,-0.27071 0.13532,-0.54141 0.0338,-0.27071 0.0677,-0.54141 l 4.26262,1.04898 q -0.10149,1.01514 -0.54128,1.92877 -0.40597,0.91363 -1.15024,1.59039 -0.71043,0.67677 -1.69151,0.98131 -0.98108,0.2707 -1.96216,0.2707 z"
       id="text1823-64-68-5"
       style="font-weight:900;font-size:25.4px;line-height:1;font-family:'Iosevka Sezimal QP';-inkscape-font-specification:'Iosevka Sezimal QP, Heavy';text-align:center;text-decoration-color:#d40000;baseline-shift:baseline;text-anchor:middle;mix-blend-mode:normal;fill:#ffaacc;stroke:none;stroke-width:0.499999;stroke-linecap:round;stroke-miterlimit:2.6;stroke-dasharray:none;stroke-opacity:1;filter:url(#filter11)"
       aria-label="gol" />
    <path
       d="m 230.19459,227.87841 q -0.74426,0 -1.48853,-0.16919 -0.74427,-0.1692 -1.38705,-0.57525 -0.60894,-0.40606 -1.1164,-0.98131 -0.47362,-0.57525 -0.7781,-1.25201 v 2.70705 h -4.93923 v -24.87102 h 4.93923 v 9.98225 q 0.33831,-0.67676 0.81193,-1.25201 0.47363,-0.57525 1.1164,-0.98131 0.64278,-0.40605 1.35322,-0.57524 0.74427,-0.1692 1.48853,-0.1692 0.87959,0 1.72535,0.23687 0.87959,0.23687 1.5562,0.81212 0.67661,0.54141 1.15023,1.28584 0.47363,0.74444 0.74427,1.5904 0.27064,0.84595 0.37213,1.72574 0.10149,0.84595 0.10149,1.72574 v 3.38382 q 0,0.87979 -0.10149,1.75958 -0.10149,0.84595 -0.37213,1.6919 -0.27064,0.84596 -0.74427,1.5904 -0.47362,0.74443 -1.15023,1.31968 -0.67661,0.54141 -1.5562,0.77828 -0.84576,0.23687 -1.72535,0.23687 z m -2.02982,-4.06058 q 0.60895,0 1.18407,-0.23687 0.57511,-0.2707 0.94725,-0.74443 0.37213,-0.50758 0.47362,-1.11666 0.13532,-0.60909 0.13532,-1.21817 v -3.38382 q 0,-0.60908 -0.13532,-1.21817 -0.10149,-0.60908 -0.47362,-1.08282 -0.37214,-0.50757 -0.94725,-0.74444 -0.57512,-0.2707 -1.18407,-0.2707 -0.60894,0 -1.18406,0.2707 -0.57512,0.23687 -0.94725,0.74444 -0.37213,0.47374 -0.50745,1.08282 -0.1015,0.60909 -0.1015,1.21817 v 3.38382 q 0,0.60908 0.1015,1.21817 0.13532,0.60908 0.50745,1.11666 0.37213,0.47373 0.94725,0.74443 0.57512,0.23687 1.18406,0.23687 z m 12.61874,3.78987 v -24.87102 h 4.93923 v 9.94841 q 0.30447,-0.64292 0.7781,-1.21817 0.47362,-0.57525 1.08257,-0.98131 0.60894,-0.40605 1.31938,-0.57524 0.74427,-0.1692 1.45471,-0.1692 0.87959,0 1.72534,0.27071 0.84576,0.23687 1.52237,0.81211 0.67661,0.54141 1.1164,1.28585 0.4398,0.74444 0.71044,1.59039 0.27064,0.81212 0.3383,1.69191 0.10149,0.84595 0.10149,1.72574 v 10.48982 h -4.93923 v -10.48982 q 0,-0.60908 -0.13532,-1.18433 -0.10149,-0.60909 -0.43979,-1.08282 -0.30448,-0.50757 -0.87959,-0.77828 -0.54129,-0.2707 -1.15023,-0.2707 -0.60895,0 -1.18407,0.2707 -0.54128,0.27071 -0.87959,0.77828 -0.30447,0.47373 -0.43979,1.08282 -0.10149,0.57525 -0.10149,1.18433 v 10.48982 z m 30.00753,0.27071 q -0.94725,0 -1.8945,-0.23687 -0.91342,-0.23687 -1.69151,-0.77828 -0.74427,-0.57525 -1.31939,-1.35352 -0.54128,-0.81212 -0.87959,-1.69191 -0.30447,-0.91363 -0.40596,-1.82726 -0.10149,-0.94746 -0.10149,-1.92877 v -5.98935 h -2.87558 v -4.06057 h 2.87558 v -7.2752 h 4.9054 v 7.2752 h 5.85265 v 4.06057 H 269.404 v 5.98935 q 0,0.37222 0,0.74444 0.0338,0.33838 0.0677,0.7106 0.0677,0.37222 0.13532,0.7106 0.0677,0.33838 0.20298,0.67676 0.13532,0.33838 0.37214,0.64293 0.27064,0.2707 0.60894,0.2707 0.4398,0 0.71044,-0.33838 0.30447,-0.33838 0.43979,-0.74444 0.13533,-0.40606 0.16916,-0.81211 0.0677,-0.4399 0.0677,-0.84596 v -0.0677 h 4.93923 v 0.13535 q 0,0.87979 -0.16915,1.72574 -0.16916,0.84596 -0.54129,1.65807 -0.37213,0.77828 -0.94725,1.45504 -0.57511,0.67676 -1.31938,1.11666 -0.74427,0.40606 -1.62386,0.57525 -0.84576,0.20303 -1.72535,0.20303 z"
       id="text3-6-2-4"
       style="font-weight:900;font-size:25.4px;line-height:1;font-family:'Iosevka Sezimal QP';-inkscape-font-specification:'Iosevka Sezimal QP, Heavy';text-align:center;text-decoration-color:#d40000;text-anchor:middle;mix-blend-mode:normal;fill:#ccaaff;stroke:none;stroke-width:0.499999;stroke-linecap:round;stroke-miterlimit:2.6;stroke-dasharray:none;stroke-opacity:1;filter:url(#filter11)"
       aria-label="bht" />
    <path
       d="m 42.078108,127.80896 q -0.879589,0 -1.725348,-0.10151 -0.845759,-0.0677 -1.691517,-0.33838 -0.811929,-0.23687 -1.590027,-0.67676 -0.744268,-0.4399 -1.319384,-1.08282 -0.541285,-0.64293 -0.879589,-1.48888 -0.304473,-0.81212 -0.338303,-1.65807 h 4.939231 q 0,0.40606 0.304473,0.67676 0.338304,0.27071 0.710437,0.40606 0.405965,0.13535 0.778099,0.16919 0.405964,0.0338 0.811928,0.0338 0.608946,0 1.150232,-0.27071 0.575116,-0.23686 0.913419,-0.74443 0.372134,-0.47374 0.473625,-1.08282 0.135322,-0.60909 0.135322,-1.21818 v -2.87624 q -0.304473,0.67677 -0.811929,1.25201 -0.473625,0.57525 -1.116401,0.98131 -0.608947,0.40606 -1.353214,0.57525 -0.744268,0.16919 -1.488536,0.16919 -0.879589,0 -1.759178,-0.23687 -0.845759,-0.23687 -1.522366,-0.77827 -0.676607,-0.57525 -1.150232,-1.31969 -0.473625,-0.74444 -0.744268,-1.59039 -0.270642,-0.84596 -0.372133,-1.69191 -0.101491,-0.87979 -0.101491,-1.75958 v -3.38381 q 0,-0.87979 0.101491,-1.72575 0.101491,-0.87979 0.372133,-1.72574 0.270643,-0.84595 0.744268,-1.59039 0.473625,-0.74444 1.150232,-1.28585 0.676607,-0.57525 1.522366,-0.81212 0.879589,-0.23686 1.759178,-0.23686 0.744268,0 1.488536,0.16919 0.744267,0.16919 1.353214,0.57525 0.642776,0.40605 1.116401,0.9813 0.507456,0.57525 0.811929,1.25201 v -2.70705 h 4.939231 v 17.76501 q 0,1.01515 -0.202982,1.99645 -0.169152,1.01515 -0.642777,1.89494 -0.473625,0.87979 -1.217892,1.59039 -0.744268,0.7106 -1.657688,1.11666 -0.879589,0.43989 -1.894499,0.60908 -0.98108,0.16919 -1.995991,0.16919 z m -0.06766,-11.33577 q 0.608947,0 1.184063,-0.23686 0.575116,-0.27071 0.947249,-0.74444 0.372134,-0.50757 0.473625,-1.11666 0.135322,-0.60909 0.135322,-1.21817 v -3.38381 q 0,-0.60909 -0.135322,-1.21818 -0.101491,-0.60908 -0.473625,-1.08282 -0.372133,-0.50757 -0.947249,-0.74443 -0.575116,-0.27071 -1.184063,-0.27071 -0.608946,0 -1.184062,0.27071 -0.575116,0.23686 -0.94725,0.74443 -0.372134,0.47374 -0.507455,1.08282 -0.101491,0.60909 -0.101491,1.21818 v 3.38381 q 0,0.60908 0.101491,1.21817 0.135321,0.60909 0.507455,1.11666 0.372134,0.47373 0.94725,0.74444 0.575116,0.23686 1.184062,0.23686 z m 22.598687,4.06058 q -0.94725,0 -1.8945,-0.23687 -0.913419,-0.23687 -1.691517,-0.77827 -0.744268,-0.57525 -1.319384,-1.35353 -0.541286,-0.81211 -0.879589,-1.69191 -0.304473,-0.91362 -0.405964,-1.82725 -0.101491,-0.94747 -0.101491,-1.92878 v -5.98934 h -2.87558 v -4.06058 h 2.87558 v -7.275194 h 4.905401 v 7.275194 h 5.85265 v 4.06058 h -5.85265 v 5.98934 q 0,0.37222 0,0.74444 0.03383,0.33838 0.06766,0.7106 0.06766,0.37222 0.135322,0.7106 0.06766,0.33838 0.202982,0.67677 0.135321,0.33838 0.372134,0.64292 0.270643,0.2707 0.608946,0.2707 0.439795,0 0.710437,-0.33838 0.304474,-0.33838 0.439795,-0.74444 0.135321,-0.40605 0.169152,-0.81211 0.06766,-0.4399 0.06766,-0.84595 v -0.0677 h 4.939232 v 0.13535 q 0,0.87979 -0.169152,1.72575 -0.169152,0.84595 -0.541286,1.65806 -0.372133,0.77828 -0.947249,1.45504 -0.575116,0.67677 -1.319384,1.11666 -0.744268,0.40606 -1.623857,0.57525 -0.845759,0.20303 -1.725348,0.20303 z m 11.231689,-0.27071 V 95.392046 h 4.905401 v 14.042824 l 4.80391,-6.76763 h 5.649668 l -6.427767,8.08731 6.427767,9.50851 h -5.480517 l -3.653678,-6.09086 -1.319383,1.65807 v 4.43279 z"
       id="text10-1-7-7"
       style="font-weight:900;font-size:25.4px;line-height:1;font-family:'Iosevka Sezimal QP';-inkscape-font-specification:'Iosevka Sezimal QP, Heavy';font-variation-settings:normal;text-align:center;text-decoration-color:#d40000;text-anchor:middle;mix-blend-mode:normal;fill:#aade87;fill-opacity:1;stroke:none;stroke-width:0.499999;stroke-linecap:round;stroke-linejoin:miter;stroke-miterlimit:2.6;stroke-dasharray:none;stroke-dashoffset:0;stroke-opacity:1;filter:url(#filter11);stop-color:#000000"
       aria-label="gtk" />
    <path
       d="m 132.92247,66.861452 q -0.87959,0 -1.75918,-0.236866 -0.84576,-0.236867 -1.52237,-0.778277 -0.6766,-0.575248 -1.15023,-1.319687 -0.47362,-0.744438 -0.74427,-1.590391 -0.27064,-0.845953 -0.37213,-1.691906 -0.10149,-0.879791 -0.10149,-1.759582 v -3.383812 q 0,-0.879791 0.10149,-1.725744 0.10149,-0.879791 0.37213,-1.725744 0.27065,-0.845953 0.74427,-1.590392 0.47363,-0.744439 1.15023,-1.285848 0.67661,-0.575249 1.52237,-0.812115 0.87959,-0.236867 1.75918,-0.236867 0.74427,0 1.48853,0.16919 0.74427,0.169191 1.35322,0.575248 0.64277,0.406058 1.1164,0.981306 0.50745,0.575248 0.81193,1.25201 V 41.71973 h 4.93923 v 24.871018 h -4.93923 v -2.70705 q -0.30448,0.676762 -0.81193,1.25201 -0.47363,0.575248 -1.1164,0.981306 -0.60895,0.406057 -1.35322,0.575248 -0.74426,0.16919 -1.48853,0.16919 z m 2.02982,-4.060574 q 0.60895,0 1.18406,-0.236867 0.57512,-0.270705 0.94725,-0.744438 0.37214,-0.507572 0.47363,-1.116658 0.13532,-0.609086 0.13532,-1.218172 v -3.383812 q 0,-0.609086 -0.13532,-1.218173 -0.10149,-0.609086 -0.47363,-1.082819 -0.37213,-0.507572 -0.94725,-0.744439 -0.57511,-0.270705 -1.18406,-0.270705 -0.60895,0 -1.18406,0.270705 -0.57512,0.236867 -0.94725,0.744439 -0.37214,0.473733 -0.50746,1.082819 -0.10149,0.609087 -0.10149,1.218173 v 3.383812 q 0,0.609086 0.10149,1.218172 0.13532,0.609086 0.50746,1.116658 0.37213,0.473733 0.94725,0.744438 0.57511,0.236867 1.18406,0.236867 z m 18.40372,4.060574 q -0.71044,0 -1.45471,-0.101514 -0.71043,-0.101514 -1.38704,-0.372219 -0.67661,-0.270705 -1.25172,-0.744439 -0.57512,-0.473733 -0.98108,-1.08282 -0.37213,-0.609086 -0.54129,-1.319686 -0.16915,-0.744439 -0.16915,-1.455039 0,-1.015144 0.30448,-1.962611 0.30447,-0.981306 0.94724,-1.691906 0.67661,-0.744439 1.5562,-1.218172 0.87959,-0.507572 1.82684,-0.778277 0.98108,-0.270705 1.96216,-0.372219 0.98108,-0.101515 1.96216,-0.101515 h 2.2328 v -0.507572 q 0,-0.575248 -0.20298,-1.116658 -0.20298,-0.541409 -0.67661,-0.913629 -0.43979,-0.372219 -1.01491,-0.507572 -0.54128,-0.135352 -1.1164,-0.135352 -0.50745,0 -1.01491,0.06768 -0.47362,0.06768 -0.94725,0.304543 -0.43979,0.203029 -0.74427,0.609086 -0.30447,0.406058 -0.30447,0.91363 v 0.03384 h -4.5671 v -0.135353 q 0,-0.879791 0.30448,-1.725744 0.30447,-0.845953 0.84575,-1.488877 0.57512,-0.676762 1.31939,-1.150496 0.7781,-0.473734 1.62385,-0.710601 0.84576,-0.270704 1.72535,-0.372219 0.87959,-0.101514 1.75918,-0.101514 0.94725,0 1.86067,0.135352 0.94725,0.101515 1.82684,0.439896 0.87959,0.338381 1.62386,0.913629 0.77809,0.575248 1.28555,1.387363 0.54128,0.778277 0.74427,1.691906 0.23681,0.913629 0.23681,1.861096 v 11.437285 h -4.5671 v -2.504021 q -0.3383,0.676762 -0.87959,1.218172 -0.54128,0.54141 -1.21789,0.913629 -0.64278,0.37222 -1.38704,0.507572 -0.74427,0.135352 -1.52237,0.135352 z m 1.86067,-3.756031 q 0.60895,0 1.21789,-0.135352 0.60895,-0.169191 1.04874,-0.575248 0.47363,-0.406058 0.67661,-0.981306 0.20298,-0.609086 0.20298,-1.218172 v -0.778277 h -2.2328 q -0.40597,0 -0.81193,0.03384 -0.40596,0 -0.81193,0.06768 -0.40596,0.06768 -0.81193,0.203028 -0.37213,0.101515 -0.74426,0.304544 -0.33831,0.16919 -0.57512,0.541409 -0.23681,0.338382 -0.23681,0.744439 0,0.507572 0.3383,0.913629 0.3383,0.37222 0.7781,0.575248 0.47362,0.169191 0.98108,0.236867 0.50745,0.06768 0.98108,0.06768 z m 13.05853,3.485327 v -4.060575 h 2.46961 V 53.0555 h -2.46961 v -4.060574 h 7.37501 v 3.214621 q 0.33831,-0.744439 0.7781,-1.387363 0.47363,-0.676762 1.08257,-1.150496 0.64278,-0.507572 1.42088,-0.7106 0.7781,-0.236867 1.59003,-0.236867 0.6766,0 1.31938,0.270705 0.64278,0.236867 1.08257,0.744438 0.47363,0.507572 0.74427,1.150496 0.30447,0.609087 0.43979,1.285849 0.13532,0.676762 0.16915,1.353525 0.0677,0.676762 0.0677,1.353524 h -4.90541 q 0,-0.338381 -0.0677,-0.676762 -0.0338,-0.372219 -0.16915,-0.676762 -0.13532,-0.338381 -0.43979,-0.54141 -0.27065,-0.203029 -0.64278,-0.203029 -0.47362,0 -0.91342,0.236867 -0.40596,0.203029 -0.71044,0.609086 -0.27064,0.372219 -0.43979,0.845953 -0.13532,0.439896 -0.23681,0.913629 -0.10149,0.439896 -0.13532,0.913629 -0.0338,0.473734 -0.0338,0.947468 v 5.278746 h 2.97708 v 4.060575 z"
       id="text12-5-5-6"
       style="font-weight:900;font-size:25.4px;line-height:1;font-family:'Iosevka Sezimal QP';-inkscape-font-specification:'Iosevka Sezimal QP, Heavy';font-variation-settings:normal;text-align:center;text-decoration-color:#d40000;text-anchor:middle;mix-blend-mode:normal;fill:#aaccff;fill-opacity:1;stroke:none;stroke-width:0.499999;stroke-linecap:round;stroke-linejoin:miter;stroke-miterlimit:2.6;stroke-dasharray:none;stroke-dashoffset:0;stroke-opacity:1;filter:url(#filter11);stop-color:#000000"
       aria-label="dar" />
    <path
       d="m 127.54344,288.55523 v -24.87102 h 4.93923 v 2.70705 q 0.30448,-0.67676 0.7781,-1.25201 0.50746,-0.57525 1.1164,-0.9813 0.64278,-0.40606 1.38705,-0.57525 0.74427,-0.16919 1.48853,-0.16919 0.87959,0 1.72535,0.23686 0.87959,0.23687 1.5562,0.81212 0.6766,0.54141 1.15023,1.28585 0.47362,0.74444 0.74427,1.59039 0.27064,0.84595 0.37213,1.72574 0.10149,0.84596 0.10149,1.72575 v 3.38381 q 0,0.87979 -0.10149,1.75958 -0.10149,0.84595 -0.37213,1.69191 -0.27065,0.84595 -0.74427,1.59039 -0.47363,0.74444 -1.15023,1.31968 -0.67661,0.54141 -1.5562,0.77828 -0.84576,0.23687 -1.72535,0.23687 -0.74426,0 -1.48853,-0.16919 -0.74427,-0.16919 -1.38705,-0.57525 -0.60894,-0.40606 -1.1164,-0.98131 -0.47362,-0.57524 -0.7781,-1.25201 v 9.98225 z m 7.67949,-11.06507 q 0.60895,0 1.18406,-0.23686 0.57512,-0.27071 0.94725,-0.74444 0.37214,-0.50757 0.47363,-1.11666 0.13532,-0.60909 0.13532,-1.21817 v -3.38381 q 0,-0.60909 -0.13532,-1.21818 -0.10149,-0.60908 -0.47363,-1.08282 -0.37213,-0.50757 -0.94725,-0.74443 -0.57511,-0.27071 -1.18406,-0.27071 -0.60894,0 -1.18406,0.27071 -0.57512,0.23686 -0.94725,0.74443 -0.37213,0.47374 -0.50746,1.08282 -0.10149,0.60909 -0.10149,1.21818 v 3.38381 q 0,0.60908 0.10149,1.21817 0.13533,0.60909 0.50746,1.11666 0.37213,0.47373 0.94725,0.74444 0.57512,0.23686 1.18406,0.23686 z m 18.13308,4.06058 q -0.71044,0 -1.45471,-0.10152 -0.71043,-0.10151 -1.38704,-0.37222 -0.67661,-0.2707 -1.25172,-0.74443 -0.57512,-0.47374 -0.98108,-1.08282 -0.37213,-0.60909 -0.54129,-1.31969 -0.16915,-0.74444 -0.16915,-1.45504 0,-1.01514 0.30448,-1.96261 0.30447,-0.98131 0.94724,-1.69191 0.67661,-0.74444 1.5562,-1.21817 0.87959,-0.50757 1.82684,-0.77828 0.98108,-0.2707 1.96216,-0.37221 0.98108,-0.10152 1.96216,-0.10152 h 2.2328 v -0.50757 q 0,-0.57525 -0.20298,-1.11666 -0.20298,-0.54141 -0.67661,-0.91363 -0.43979,-0.37222 -1.01491,-0.50757 -0.54128,-0.13535 -1.1164,-0.13535 -0.50745,0 -1.01491,0.0677 -0.47362,0.0677 -0.94725,0.30455 -0.43979,0.20303 -0.74427,0.60908 -0.30447,0.40606 -0.30447,0.91363 v 0.0338 h -4.5671 v -0.13535 q 0,-0.87979 0.30448,-1.72575 0.30447,-0.84595 0.84575,-1.48887 0.57512,-0.67677 1.31939,-1.1505 0.7781,-0.47373 1.62385,-0.7106 0.84576,-0.2707 1.72535,-0.37222 0.87959,-0.10151 1.75918,-0.10151 0.94725,0 1.86067,0.13535 0.94725,0.10151 1.82684,0.43989 0.87959,0.33839 1.62386,0.91363 0.77809,0.57525 1.28555,1.38737 0.54128,0.77827 0.74427,1.6919 0.23681,0.91363 0.23681,1.8611 v 11.43728 h -4.5671 V 278.776 q -0.3383,0.67676 -0.87959,1.21817 -0.54128,0.54141 -1.21789,0.91363 -0.64278,0.37222 -1.38704,0.50758 -0.74427,0.13535 -1.52237,0.13535 z m 1.86067,-3.75603 q 0.60895,0 1.21789,-0.13536 0.60895,-0.16919 1.04874,-0.57524 0.47363,-0.40606 0.67661,-0.98131 0.20298,-0.60909 0.20298,-1.21817 v -0.77828 h -2.2328 q -0.40597,0 -0.81193,0.0338 -0.40596,0 -0.81193,0.0677 -0.40596,0.0677 -0.81193,0.20303 -0.37213,0.10151 -0.74426,0.30454 -0.33831,0.16919 -0.57512,0.54141 -0.23681,0.33838 -0.23681,0.74444 0,0.50757 0.3383,0.91363 0.3383,0.37222 0.7781,0.57524 0.47362,0.16919 0.98108,0.23687 0.50745,0.0677 0.98108,0.0677 z m 18.30223,3.75603 q -0.87959,0 -1.75918,-0.23687 -0.84575,-0.23687 -1.52236,-0.77828 -0.67661,-0.57524 -1.15023,-1.31968 -0.47363,-0.74444 -0.74427,-1.59039 -0.27064,-0.84596 -0.37213,-1.69191 -0.1015,-0.87979 -0.1015,-1.75958 v -3.38381 q 0,-0.87979 0.1015,-1.72575 0.10149,-0.87979 0.37213,-1.72574 0.27064,-0.84595 0.74427,-1.59039 0.47362,-0.74444 1.15023,-1.28585 0.67661,-0.57525 1.52236,-0.81212 0.87959,-0.23686 1.75918,-0.23686 0.74427,0 1.48854,0.16919 0.74427,0.16919 1.35321,0.57525 0.64278,0.40605 1.1164,0.9813 0.50746,0.57525 0.81193,1.25201 v -9.98224 h 4.93923 v 24.87101 h -4.93923 v -2.70705 q -0.30447,0.67677 -0.81193,1.25201 -0.47362,0.57525 -1.1164,0.98131 -0.60894,0.40606 -1.35321,0.57525 -0.74427,0.16919 -1.48854,0.16919 z m 2.02982,-4.06058 q 0.60895,0 1.18407,-0.23686 0.57511,-0.27071 0.94725,-0.74444 0.37213,-0.50757 0.47362,-1.11666 0.13532,-0.60909 0.13532,-1.21817 v -3.38381 q 0,-0.60909 -0.13532,-1.21818 -0.10149,-0.60908 -0.47362,-1.08282 -0.37214,-0.50757 -0.94725,-0.74443 -0.57512,-0.27071 -1.18407,-0.27071 -0.60894,0 -1.18406,0.27071 -0.57511,0.23686 -0.94725,0.74443 -0.37213,0.47374 -0.50745,1.08282 -0.10149,0.60909 -0.10149,1.21818 v 3.38381 q 0,0.60908 0.10149,1.21817 0.13532,0.60909 0.50745,1.11666 0.37214,0.47373 0.94725,0.74444 0.57512,0.23686 1.18406,0.23686 z"
       id="text14-6-8-5"
       style="font-weight:900;font-size:25.4px;line-height:1;font-family:'Iosevka Sezimal QP';-inkscape-font-specification:'Iosevka Sezimal QP, Heavy';font-variation-settings:normal;text-align:center;text-decoration-color:#d40000;text-anchor:middle;mix-blend-mode:normal;fill:#ffccaa;fill-opacity:1;stroke:none;stroke-width:0.499999;stroke-linecap:round;stroke-linejoin:miter;stroke-miterlimit:2.6;stroke-dasharray:none;stroke-dashoffset:0;stroke-opacity:1;filter:url(#filter11);stop-color:#000000"
       aria-label="pad" />
    <path
       d="m 39.980626,227.87841 q -0.879589,0 -1.759178,-0.23687 -0.845759,-0.23687 -1.522366,-0.77828 -0.676607,-0.57525 -1.150232,-1.31968 -0.473625,-0.74444 -0.744268,-1.5904 -0.270642,-0.84595 -0.372133,-1.6919 -0.101491,-0.87979 -0.101491,-1.75958 v -3.38382 q 0,-0.87979 0.101491,-1.72574 0.101491,-0.87979 0.372133,-1.72574 0.270643,-0.84596 0.744268,-1.5904 0.473625,-0.74443 1.150232,-1.28584 0.676607,-0.57525 1.522366,-0.81212 0.879589,-0.23687 1.759178,-0.23687 0.744268,0 1.488536,0.1692 0.744267,0.16919 1.353214,0.57524 0.642776,0.40606 1.116401,0.98131 0.507456,0.57525 0.811929,1.25201 v -9.98225 h 4.939231 v 24.87102 h -4.939231 v -2.70705 q -0.304473,0.67676 -0.811929,1.25201 -0.473625,0.57525 -1.116401,0.98131 -0.608947,0.40605 -1.353214,0.57525 -0.744268,0.16919 -1.488536,0.16919 z m 2.029821,-4.06058 q 0.608947,0 1.184063,-0.23687 0.575116,-0.2707 0.947249,-0.74443 0.372134,-0.50758 0.473625,-1.11666 0.135322,-0.60909 0.135322,-1.21817 v -3.38382 q 0,-0.60908 -0.135322,-1.21817 -0.101491,-0.60908 -0.473625,-1.08282 -0.372133,-0.50757 -0.947249,-0.74444 -0.575116,-0.2707 -1.184063,-0.2707 -0.608946,0 -1.184062,0.2707 -0.575116,0.23687 -0.94725,0.74444 -0.372134,0.47374 -0.507455,1.08282 -0.101491,0.60909 -0.101491,1.21817 v 3.38382 q 0,0.60908 0.101491,1.21817 0.135321,0.60908 0.507455,1.11666 0.372134,0.47373 0.94725,0.74443 0.575116,0.23687 1.184062,0.23687 z m 13.024698,3.78987 v -4.06057 h 2.469615 v -9.47468 h -2.469615 v -4.06057 h 7.375016 v 3.21462 q 0.338304,-0.74444 0.778098,-1.38736 0.473625,-0.67676 1.082572,-1.1505 0.642776,-0.50757 1.420874,-0.7106 0.778098,-0.23687 1.590027,-0.23687 0.676607,0 1.319384,0.27071 0.642776,0.23687 1.082571,0.74444 0.473625,0.50757 0.744267,1.15049 0.304474,0.60909 0.439795,1.28585 0.135321,0.67676 0.169152,1.35353 0.06766,0.67676 0.06766,1.35352 H 66.19916 q 0,-0.33838 -0.06766,-0.67676 -0.03383,-0.37222 -0.169152,-0.67676 -0.135321,-0.33838 -0.439794,-0.54141 -0.270643,-0.20303 -0.642777,-0.20303 -0.473625,0 -0.91342,0.23687 -0.405964,0.20302 -0.710437,0.60908 -0.270643,0.37222 -0.439795,0.84595 -0.135321,0.4399 -0.236812,0.91363 -0.101491,0.4399 -0.135321,0.91363 -0.03383,0.47374 -0.03383,0.94747 v 5.27875 h 2.977071 v 4.06057 z m 30.548819,0 h -5.683499 l -5.818821,-17.59582 h 5.209875 l 3.383035,11.74183 q 0.03383,0.0338 0.03383,0.10151 0.03383,0.0677 0.03383,0.10152 0,-0.0338 0,-0.10152 0.03383,-0.0677 0.06766,-0.10151 l 3.383035,-11.74183 h 5.209874 z"
       id="text7-1-5-6"
       style="font-weight:900;font-size:25.4px;line-height:1;font-family:'Iosevka Sezimal QP';-inkscape-font-specification:'Iosevka Sezimal QP, Heavy';font-variation-settings:normal;text-align:center;text-decoration-color:#d40000;text-anchor:middle;mix-blend-mode:normal;fill:#937500;fill-opacity:1;stroke:none;stroke-width:0.5;stroke-linecap:round;stroke-linejoin:miter;stroke-miterlimit:2.6;stroke-dasharray:none;stroke-dashoffset:0;stroke-opacity:1;filter:url(#filter1);stop-color:#000000"
       aria-label="drv" />
    <path
       d="m 220.48528,127.53826 v -24.87102 h 4.93923 v 2.70705 q 0.30448,-0.67676 0.7781,-1.25201 0.50746,-0.57525 1.1164,-0.9813 0.64278,-0.40606 1.38705,-0.57525 0.74427,-0.16919 1.48853,-0.16919 0.87959,0 1.72535,0.23686 0.87959,0.23687 1.5562,0.81212 0.67661,0.54141 1.15023,1.28585 0.47363,0.74444 0.74427,1.59039 0.27064,0.84595 0.37213,1.72574 0.10149,0.84596 0.10149,1.72575 v 3.38381 q 0,0.87979 -0.10149,1.75958 -0.10149,0.84595 -0.37213,1.69191 -0.27064,0.84595 -0.74427,1.59039 -0.47362,0.74444 -1.15023,1.31969 -0.67661,0.5414 -1.5562,0.77827 -0.84576,0.23687 -1.72535,0.23687 -0.74426,0 -1.48853,-0.16919 -0.74427,-0.16919 -1.38705,-0.57525 -0.60894,-0.40606 -1.1164,-0.98131 -0.47362,-0.57524 -0.7781,-1.25201 v 9.98225 z m 7.67949,-11.06507 q 0.60895,0 1.18407,-0.23686 0.57511,-0.27071 0.94725,-0.74444 0.37213,-0.50757 0.47362,-1.11666 0.13532,-0.60909 0.13532,-1.21817 v -3.38381 q 0,-0.60909 -0.13532,-1.21818 -0.10149,-0.60908 -0.47362,-1.08282 -0.37214,-0.50757 -0.94725,-0.74443 -0.57512,-0.27071 -1.18407,-0.27071 -0.60894,0 -1.18406,0.27071 -0.57512,0.23686 -0.94725,0.74443 -0.37213,0.47374 -0.50745,1.08282 -0.1015,0.60909 -0.1015,1.21818 v 3.38381 q 0,0.60908 0.1015,1.21817 0.13532,0.60909 0.50745,1.11666 0.37213,0.47373 0.94725,0.74444 0.57512,0.23686 1.18406,0.23686 z m 13.26151,3.78987 V 95.392046 h 4.90541 v 14.042824 l 4.80391,-6.76763 h 5.64966 l -6.42776,8.08731 6.42776,9.50851 h -5.48051 l -3.65368,-6.09086 -1.31938,1.65807 v 4.43279 z m 19.01267,0 5.6835,-8.79791 -5.6835,-8.79791 h 5.88649 l 2.30046,4.29744 2.30046,-4.29744 h 5.88649 l -5.6835,8.79791 5.6835,8.79791 h -5.88649 l -2.30046,-4.29744 -2.30046,4.29744 z"
       id="text5-8-2-9"
       style="font-weight:900;font-size:25.4px;line-height:1;font-family:'Iosevka Sezimal QP';-inkscape-font-specification:'Iosevka Sezimal QP, Heavy';text-align:center;text-decoration-color:#d40000;text-anchor:middle;mix-blend-mode:normal;fill:#aaaaff;stroke:none;stroke-width:0.499999;stroke-linecap:round;stroke-miterlimit:2.6;stroke-dasharray:none;stroke-opacity:1;filter:url(#filter11)"
       aria-label="pkx" />
    <path
       d="m 133.05779,174.2061 q -0.71044,0 -1.45471,-0.10151 -0.71043,-0.10152 -1.38704,-0.37222 -0.67661,-0.27071 -1.25172,-0.74444 -0.57512,-0.47374 -0.98108,-1.08282 -0.37214,-0.60909 -0.54129,-1.31969 -0.16915,-0.74444 -0.16915,-1.45504 0,-1.01514 0.30447,-1.96261 0.30448,-0.9813 0.94725,-1.6919 0.67661,-0.74444 1.5562,-1.21818 0.87959,-0.50757 1.82684,-0.77827 0.98108,-0.27071 1.96216,-0.37222 0.98108,-0.10152 1.96216,-0.10152 h 2.2328 v -0.50757 q 0,-0.57525 -0.20298,-1.11666 -0.20298,-0.54141 -0.67661,-0.91363 -0.43979,-0.37221 -1.01491,-0.50757 -0.54128,-0.13535 -1.1164,-0.13535 -0.50745,0 -1.01491,0.0677 -0.47362,0.0677 -0.94725,0.30454 -0.43979,0.20303 -0.74427,0.60909 -0.30447,0.40605 -0.30447,0.91362 v 0.0338 h -4.5671 v -0.13535 q 0,-0.87979 0.30447,-1.72574 0.30448,-0.84596 0.84576,-1.48888 0.57512,-0.67676 1.31939,-1.1505 0.7781,-0.47373 1.62385,-0.7106 0.84576,-0.2707 1.72535,-0.37222 0.87959,-0.10151 1.75918,-0.10151 0.94725,0 1.86067,0.13535 0.94725,0.10152 1.82684,0.4399 0.87959,0.33838 1.62386,0.91363 0.77809,0.57524 1.28555,1.38736 0.54128,0.77828 0.74427,1.69191 0.23681,0.91362 0.23681,1.86109 v 11.43729 h -4.5671 v -2.50403 q -0.3383,0.67677 -0.87959,1.21818 -0.54128,0.54141 -1.21789,0.91363 -0.64278,0.37222 -1.38704,0.50757 -0.74427,0.13535 -1.52237,0.13535 z m 1.86067,-3.75603 q 0.60895,0 1.21789,-0.13535 0.60895,-0.16919 1.04874,-0.57525 0.47363,-0.40606 0.67661,-0.98131 0.20298,-0.60908 0.20298,-1.21817 v -0.77828 h -2.2328 q -0.40597,0 -0.81193,0.0338 -0.40596,0 -0.81193,0.0677 -0.40596,0.0677 -0.81193,0.20303 -0.37213,0.10151 -0.74426,0.30454 -0.33831,0.16919 -0.57512,0.54141 -0.23681,0.33838 -0.23681,0.74444 0,0.50757 0.3383,0.91363 0.3383,0.37222 0.7781,0.57525 0.47362,0.16919 0.98108,0.23686 0.50745,0.0677 0.98108,0.0677 z m 12.92321,3.48533 v -17.59583 h 4.93922 v 2.67322 q 0.30448,-0.64293 0.7781,-1.21818 0.47363,-0.57524 1.08257,-0.9813 0.60895,-0.40606 1.31939,-0.57525 0.74426,-0.16919 1.4547,-0.16919 0.87959,0 1.72535,0.2707 0.84576,0.23687 1.52237,0.81212 0.6766,0.54141 1.1164,1.28585 0.43979,0.74444 0.71043,1.59039 0.27065,0.81211 0.33831,1.6919 0.10149,0.84596 0.10149,1.72575 v 10.48982 h -4.93923 v -10.48982 q 0,-0.60909 -0.13532,-1.18434 -0.10149,-0.60908 -0.4398,-1.08282 -0.30447,-0.50757 -0.87959,-0.77827 -0.54128,-0.27071 -1.15023,-0.27071 -0.60895,0 -1.18406,0.27071 -0.54129,0.2707 -0.87959,0.77827 -0.30447,0.47374 -0.43979,1.08282 -0.1015,0.57525 -0.1015,1.18434 v 10.48982 z m 27.77472,7.5459 q -0.87958,0 -1.72534,-0.10152 -0.84576,-0.0677 -1.69152,-0.33838 -0.81193,-0.23687 -1.59003,-0.67676 -0.74427,-0.4399 -1.31938,-1.08282 -0.54129,-0.64293 -0.87959,-1.48888 -0.30447,-0.81211 -0.3383,-1.65807 h 4.93923 q 0,0.40606 0.30447,0.67677 0.3383,0.2707 0.71044,0.40605 0.40596,0.13536 0.7781,0.16919 0.40596,0.0338 0.81192,0.0338 0.60895,0 1.15024,-0.2707 0.57511,-0.23687 0.91342,-0.74444 0.37213,-0.47374 0.47362,-1.08282 0.13532,-0.60909 0.13532,-1.21817 v -2.87624 q -0.30447,0.67676 -0.81193,1.25201 -0.47362,0.57524 -1.1164,0.9813 -0.60894,0.40606 -1.35321,0.57525 -0.74427,0.16919 -1.48854,0.16919 -0.87959,0 -1.75918,-0.23687 -0.84575,-0.23686 -1.52236,-0.77827 -0.67661,-0.57525 -1.15023,-1.31969 -0.47363,-0.74444 -0.74427,-1.59039 -0.27064,-0.84595 -0.37213,-1.69191 -0.1015,-0.87979 -0.1015,-1.75958 v -3.38381 q 0,-0.87979 0.1015,-1.72575 0.10149,-0.87979 0.37213,-1.72574 0.27064,-0.84595 0.74427,-1.59039 0.47362,-0.74444 1.15023,-1.28585 0.67661,-0.57525 1.52236,-0.81211 0.87959,-0.23687 1.75918,-0.23687 0.74427,0 1.48854,0.16919 0.74427,0.16919 1.35321,0.57525 0.64278,0.40606 1.1164,0.9813 0.50746,0.57525 0.81193,1.25201 v -2.70705 h 4.93923 v 17.76502 q 0,1.01514 -0.20298,1.99645 -0.16915,1.01514 -0.64278,1.89493 -0.47362,0.87979 -1.21789,1.59039 -0.74427,0.7106 -1.65769,1.11666 -0.87958,0.43989 -1.89449,0.60909 -0.98108,0.16919 -1.996,0.16919 z m -0.0677,-11.33577 q 0.60895,0 1.18407,-0.23687 0.57511,-0.27071 0.94725,-0.74444 0.37213,-0.50757 0.47362,-1.11666 0.13532,-0.60908 0.13532,-1.21817 v -3.38381 q 0,-0.60909 -0.13532,-1.21817 -0.10149,-0.60909 -0.47362,-1.08282 -0.37214,-0.50757 -0.94725,-0.74444 -0.57512,-0.27071 -1.18407,-0.27071 -0.60894,0 -1.18406,0.27071 -0.57511,0.23687 -0.94725,0.74444 -0.37213,0.47373 -0.50745,1.08282 -0.10149,0.60908 -0.10149,1.21817 v 3.38381 q 0,0.60909 0.10149,1.21817 0.13532,0.60909 0.50745,1.11666 0.37214,0.47373 0.94725,0.74444 0.57512,0.23687 1.18406,0.23687 z"
       id="text3-8-7-5-3"
       style="font-weight:900;font-size:25.4px;line-height:1;font-family:'Iosevka Sezimal QP';-inkscape-font-specification:'Iosevka Sezimal QP, Heavy';font-variation-settings:normal;text-align:center;text-decoration-color:#d40000;text-anchor:middle;mix-blend-mode:normal;fill:#ffaaaa;fill-opacity:1;stroke:none;stroke-width:0.499999;stroke-linecap:round;stroke-linejoin:miter;stroke-miterlimit:2.6;stroke-dasharray:none;stroke-dashoffset:0;stroke-opacity:1;filter:url(#filter11);stop-color:#000000"
       aria-label="ang" />
    <line
       x1="279.30832"
       y1="268.84451"
       x2="217.34711"
       y2="268.84451"
       style="stroke:#000000;stroke-width:0.965714;stroke-linecap:round;stroke-opacity:1"
       id="line1702-1-3" />
    <line
       x1="279.30832"
       y1="268.84451"
       x2="310.28894"
       y2="215.1722"
       style="stroke:#000000;stroke-width:0.965714;stroke-linecap:round;stroke-opacity:1"
       id="line1703-2-91" />
    <line
       x1="310.28894"
       y1="215.1722"
       x2="279.30832"
       y2="161.49986"
       style="stroke:#000000;stroke-width:0.965714;stroke-linecap:round;stroke-opacity:1"
       id="line1704-9-8" />
    <line
       x1="279.30832"
       y1="161.49986"
       x2="217.34711"
       y2="161.49986"
       style="stroke:#000000;stroke-width:0.965714;stroke-linecap:round;stroke-opacity:1"
       id="line1705-3-8" />
    <line
       x1="279.30832"
       y1="161.49986"
       x2="310.28894"
       y2="107.82755"
       style="stroke:#000000;stroke-width:0.965714;stroke-linecap:round;stroke-opacity:1"
       id="line1706-9-7" />
    <line
       x1="310.28894"
       y1="107.82755"
       x2="279.30832"
       y2="54.155235"
       style="stroke:#000000;stroke-width:0.965714;stroke-linecap:round;stroke-opacity:1"
       id="line1707-0-05" />
    <line
       x1="279.30832"
       y1="54.155235"
       x2="217.34711"
       y2="54.155235"
       style="stroke:#000000;stroke-width:0.965714;stroke-linecap:round;stroke-opacity:1"
       id="line1708-88-2" />
    <line
       x1="186.36649"
       y1="322.51685"
       x2="124.40525"
       y2="322.51685"
       style="fill:#000000;fill-opacity:1;stroke:#000000;stroke-width:0.965714;stroke-linecap:round;stroke-opacity:1"
       id="line1713-5-7" />
    <line
       x1="186.36649"
       y1="322.51685"
       x2="217.34711"
       y2="268.84451"
       style="fill:#000000;fill-opacity:1;stroke:#000000;stroke-width:0.965714;stroke-linecap:round;stroke-opacity:1"
       id="line1714-0-9" />
    <line
       x1="124.40525"
       y1="322.51685"
       x2="93.424614"
       y2="268.84451"
       style="fill:#000000;fill-opacity:1;stroke:#000000;stroke-width:0.965714;stroke-linecap:round;stroke-opacity:1"
       id="line1715-9-19" />
    <line
       x1="217.34711"
       y1="268.84451"
       x2="186.36649"
       y2="215.1722"
       style="fill:#000000;fill-opacity:1;stroke:#000000;stroke-width:0.965714;stroke-linecap:round;stroke-opacity:1"
       id="line1716-6-6" />
    <line
       x1="186.36649"
       y1="215.1722"
       x2="124.40525"
       y2="215.1722"
       style="fill:#000000;fill-opacity:1;stroke:#000000;stroke-width:0.965714;stroke-linecap:round;stroke-opacity:1"
       id="line1717-3-3" />
    <line
       x1="186.36649"
       y1="215.1722"
       x2="217.34711"
       y2="161.49986"
       style="stroke:#000000;stroke-width:0.965714;stroke-linecap:round;stroke-opacity:1"
       id="line1718-8-6" />
    <line
       x1="217.34711"
       y1="161.49986"
       x2="186.36649"
       y2="107.82755"
       style="stroke:#000000;stroke-width:0.965714;stroke-linecap:round;stroke-opacity:1"
       id="line1719-5-8" />
    <line
       x1="186.36649"
       y1="107.82755"
       x2="124.40525"
       y2="107.82755"
       style="stroke:#000000;stroke-width:0.965714;stroke-linecap:round;stroke-opacity:1"
       id="line1720-6-4" />
    <line
       x1="186.36649"
       y1="107.82755"
       x2="217.34711"
       y2="54.155235"
       style="stroke:#000000;stroke-width:0.965714;stroke-linecap:round;stroke-opacity:1"
       id="line1721-1-66" />
    <line
       x1="217.34711"
       y1="54.155235"
       x2="186.36649"
       y2="0.48292556"
       style="stroke:#000000;stroke-width:0.965714;stroke-linecap:round;stroke-opacity:1"
       id="line1722-1-72" />
    <line
       x1="186.36649"
       y1="0.48292556"
       x2="124.40525"
       y2="0.48292556"
       style="stroke:#000000;stroke-width:0.965714;stroke-linecap:round;stroke-opacity:1"
       id="line1723-5-7" />
    <line
       x1="93.424614"
       y1="268.84451"
       x2="31.463415"
       y2="268.84451"
       style="stroke:#000000;stroke-width:0.965714;stroke-linecap:round;stroke-opacity:1"
       id="line1724-9-4" />
    <line
       x1="93.424614"
       y1="268.84451"
       x2="124.40525"
       y2="215.1722"
       style="fill:#000000;fill-opacity:1;stroke:#000000;stroke-width:0.965714;stroke-linecap:round;stroke-opacity:1"
       id="line1725-8-1" />
    <line
       x1="124.40525"
       y1="215.1722"
       x2="93.424614"
       y2="161.49986"
       style="stroke:#000000;stroke-width:0.965714;stroke-linecap:round;stroke-opacity:1"
       id="line1726-48-0" />
    <line
       x1="93.424614"
       y1="161.49986"
       x2="31.463415"
       y2="161.49986"
       style="stroke:#000000;stroke-width:0.965714;stroke-linecap:round;stroke-opacity:1"
       id="line1727-1-0" />
    <line
       x1="93.424614"
       y1="161.49986"
       x2="124.40525"
       y2="107.82755"
       style="stroke:#000000;stroke-width:0.965714;stroke-linecap:round;stroke-opacity:1"
       id="line1728-0-6" />
    <line
       x1="124.40525"
       y1="107.82755"
       x2="93.424614"
       y2="54.155235"
       style="stroke:#000000;stroke-width:0.965714;stroke-linecap:round;stroke-opacity:1"
       id="line1729-3-4" />
    <line
       x1="93.424614"
       y1="54.155235"
       x2="31.463415"
       y2="54.155235"
       style="stroke:#000000;stroke-width:0.965714;stroke-linecap:round;stroke-opacity:1"
       id="line1730-0-4" />
    <line
       x1="93.424614"
       y1="54.155235"
       x2="124.40525"
       y2="0.48292556"
       style="stroke:#000000;stroke-width:0.965714;stroke-linecap:round;stroke-opacity:1"
       id="line1731-4-3" />
    <line
       x1="31.463415"
       y1="268.84451"
       x2="0.48281592"
       y2="215.1722"
       style="fill:#ff6600;stroke:#000000;stroke-width:0.965714;stroke-linecap:round;stroke-opacity:1"
       id="line1735-4-7" />
    <line
       x1="0.48281592"
       y1="215.1722"
       x2="31.463415"
       y2="161.49986"
       style="stroke:#000000;stroke-width:0.965714;stroke-linecap:round;stroke-opacity:1"
       id="line1736-4-3" />
    <line
       x1="31.463415"
       y1="161.49986"
       x2="0.48281592"
       y2="107.82755"
       style="stroke:#000000;stroke-width:0.965714;stroke-linecap:round;stroke-opacity:1"
       id="line1737-4-4" />
    <line
       x1="0.48281592"
       y1="107.82755"
       x2="31.463415"
       y2="54.155235"
       style="stroke:#000000;stroke-width:0.965714;stroke-linecap:round;stroke-opacity:1"
       id="line1738-7-7" />
    <path
       d="m 382.87976,227.60789 v -17.59582 h 4.93923 v 2.57169 q 0.23681,-0.60908 0.60895,-1.15049 0.37213,-0.54141 0.87958,-0.91363 0.50746,-0.40606 1.11641,-0.57525 0.64277,-0.20303 1.28555,-0.20303 0.81193,0 1.5562,0.30455 0.74426,0.2707 1.28555,0.84595 0.57512,0.54141 0.94725,1.25201 0.37213,0.7106 0.57511,1.48888 0.16916,-0.77828 0.50746,-1.48888 0.3383,-0.7106 0.87959,-1.25201 0.57512,-0.57525 1.31938,-0.84595 0.74427,-0.30455 1.52237,-0.30455 0.7781,0 1.52236,0.30455 0.7781,0.2707 1.31939,0.84595 0.57511,0.54141 0.91342,1.25201 0.37213,0.7106 0.57511,1.48888 0.20299,0.77827 0.27065,1.55655 0.10149,0.77828 0.10149,1.59039 v 10.8282 h -4.93923 v -10.8282 q 0,-0.50757 -0.0677,-0.9813 -0.0677,-0.50758 -0.27065,-0.94747 -0.20298,-0.4399 -0.60894,-0.74444 -0.40597,-0.30454 -0.87959,-0.30454 -0.50746,0 -0.91342,0.30454 -0.37214,0.30454 -0.57512,0.74444 -0.20298,0.43989 -0.27064,0.94747 -0.0677,0.47373 -0.0677,0.9813 v 10.8282 h -4.93923 v -10.8282 q 0,-0.50757 -0.0677,-0.9813 -0.0677,-0.50758 -0.27065,-0.94747 -0.20298,-0.4399 -0.60894,-0.74444 -0.37214,-0.30454 -0.87959,-0.30454 -0.47363,0 -0.87959,0.30454 -0.40597,0.30454 -0.60895,0.74444 -0.20298,0.43989 -0.27064,0.94747 -0.0677,0.47373 -0.0677,0.9813 v 10.8282 z m 32.5786,0.2707 q -0.87959,0 -1.75918,-0.23686 -0.84576,-0.23687 -1.52236,-0.77828 -0.67661,-0.57525 -1.15024,-1.31969 -0.47362,-0.74444 -0.74426,-1.59039 -0.27065,-0.84595 -0.37214,-1.6919 -0.10149,-0.8798 -0.10149,-1.75959 v -3.38381 q 0,-0.87979 0.10149,-1.72574 0.10149,-0.87979 0.37214,-1.72575 0.27064,-0.84595 0.74426,-1.59039 0.47363,-0.74444 1.15024,-1.28585 0.6766,-0.57524 1.52236,-0.81211 0.87959,-0.23687 1.75918,-0.23687 0.74427,0 1.48854,0.16919 0.74426,0.16919 1.35321,0.57525 0.64278,0.40606 1.1164,0.98131 0.50746,0.57524 0.81193,1.25201 v -9.98225 h 4.93923 v 24.87102 h -4.93923 v -2.70705 q -0.30447,0.67676 -0.81193,1.25201 -0.47362,0.57525 -1.1164,0.9813 -0.60895,0.40606 -1.35321,0.57525 -0.74427,0.16919 -1.48854,0.16919 z m 2.02982,-4.06057 q 0.60895,0 1.18406,-0.23687 0.57512,-0.2707 0.94725,-0.74444 0.37214,-0.50757 0.47363,-1.11665 0.13532,-0.60909 0.13532,-1.21818 v -3.38381 q 0,-0.60908 -0.13532,-1.21817 -0.10149,-0.60909 -0.47363,-1.08282 -0.37213,-0.50757 -0.94725,-0.74444 -0.57511,-0.2707 -1.18406,-0.2707 -0.60894,0 -1.18406,0.2707 -0.57512,0.23687 -0.94725,0.74444 -0.37213,0.47373 -0.50746,1.08282 -0.10149,0.60909 -0.10149,1.21817 v 3.38381 q 0,0.60909 0.10149,1.21818 0.13533,0.60908 0.50746,1.11665 0.37213,0.47374 0.94725,0.74444 0.57512,0.23687 1.18406,0.23687 z m 19.99375,4.06057 q -0.7781,0 -1.52236,-0.16919 -0.74427,-0.13535 -1.42088,-0.50757 -0.64278,-0.40606 -1.15023,-0.98131 -0.47363,-0.60908 -0.7781,-1.31968 -0.30447,-0.7106 -0.43979,-1.45504 -0.10149,-0.74444 -0.10149,-1.52272 v -19.18621 h 4.93923 v 19.18621 q 0,0.16919 0,0.37222 0,0.16919 0,0.37222 0.0338,0.16919 0.0677,0.33838 0.0338,0.16919 0.10149,0.33838 0.0677,0.1692 0.16915,0.33839 0.13532,0.13535 0.3383,0.13535 0.27065,0 0.4398,-0.20303 0.16915,-0.23687 0.23681,-0.47373 0.10149,-0.27071 0.13532,-0.54141 0.0338,-0.27071 0.0677,-0.54141 l 4.26263,1.04898 q -0.10149,1.01514 -0.54129,1.92877 -0.40596,0.91363 -1.15023,1.59039 -0.71044,0.67676 -1.69152,0.98131 -0.98108,0.2707 -1.96216,0.2707 z"
       id="text1748-8-7-2"
       style="font-weight:900;font-size:25.4px;line-height:1;font-family:'Iosevka Sezimal QP';-inkscape-font-specification:'Iosevka Sezimal QP, Heavy';text-align:center;text-decoration-color:#d40000;text-anchor:middle;mix-blend-mode:normal;fill:#ffffff;stroke:none;stroke-width:0.499999;stroke-linecap:round;stroke-miterlimit:2.6;stroke-dasharray:none;stroke-opacity:1"
       aria-label="mdl" />
    <path
       d="m 393.8746,127.80916 q -0.87958,0 -1.72534,-0.10152 -0.84576,-0.0677 -1.69152,-0.33838 -0.81193,-0.23686 -1.59003,-0.67676 -0.74426,-0.43989 -1.31938,-1.08282 -0.54129,-0.64292 -0.87959,-1.48888 -0.30447,-0.81211 -0.3383,-1.65806 h 4.93923 q 0,0.40605 0.30447,0.67676 0.3383,0.2707 0.71044,0.40606 0.40596,0.13535 0.7781,0.16919 0.40596,0.0338 0.81192,0.0338 0.60895,0 1.15024,-0.2707 0.57511,-0.23687 0.91342,-0.74444 0.37213,-0.47373 0.47362,-1.08282 0.13532,-0.60909 0.13532,-1.21817 v -2.87624 q -0.30447,0.67676 -0.81193,1.25201 -0.47362,0.57525 -1.1164,0.9813 -0.60894,0.40606 -1.35321,0.57525 -0.74427,0.16919 -1.48854,0.16919 -0.87959,0 -1.75917,-0.23686 -0.84576,-0.23687 -1.52237,-0.77828 -0.67661,-0.57525 -1.15023,-1.31969 -0.47363,-0.74444 -0.74427,-1.59039 -0.27064,-0.84595 -0.37213,-1.6919 -0.10149,-0.8798 -0.10149,-1.75959 v -3.38381 q 0,-0.87979 0.10149,-1.72574 0.10149,-0.87979 0.37213,-1.72575 0.27064,-0.84595 0.74427,-1.59039 0.47362,-0.74444 1.15023,-1.28585 0.67661,-0.57524 1.52237,-0.81211 0.87958,-0.23687 1.75917,-0.23687 0.74427,0 1.48854,0.16919 0.74427,0.16919 1.35321,0.57525 0.64278,0.40606 1.1164,0.98131 0.50746,0.57524 0.81193,1.25201 v -2.70705 h 4.93923 v 17.76501 q 0,1.01514 -0.20298,1.99645 -0.16915,1.01514 -0.64278,1.89493 -0.47362,0.87979 -1.21789,1.59039 -0.74427,0.7106 -1.65769,1.11666 -0.87958,0.4399 -1.89449,0.60909 -0.98109,0.16919 -1.996,0.16919 z m -0.0677,-11.33577 q 0.60895,0 1.18407,-0.23687 0.57511,-0.2707 0.94725,-0.74444 0.37213,-0.50757 0.47362,-1.11665 0.13532,-0.60909 0.13532,-1.21818 v -3.38381 q 0,-0.60908 -0.13532,-1.21817 -0.10149,-0.60909 -0.47362,-1.08282 -0.37214,-0.50757 -0.94725,-0.74444 -0.57512,-0.2707 -1.18407,-0.2707 -0.60894,0 -1.18406,0.2707 -0.57511,0.23687 -0.94725,0.74444 -0.37213,0.47373 -0.50745,1.08282 -0.10149,0.60909 -0.10149,1.21817 v 3.38381 q 0,0.60909 0.10149,1.21818 0.13532,0.60908 0.50745,1.11665 0.37214,0.47374 0.94725,0.74444 0.57512,0.23687 1.18406,0.23687 z m 20.43355,4.06057 q -1.01491,0 -2.02982,-0.16919 -1.01492,-0.13535 -1.96216,-0.54141 -0.91342,-0.43989 -1.69152,-1.15049 -0.74427,-0.7106 -1.25173,-1.59039 -0.47362,-0.8798 -0.6766,-1.89494 -0.20298,-1.01514 -0.20298,-2.03029 v -3.38381 q 0,-1.01514 0.20298,-2.03029 0.20298,-1.01514 0.6766,-1.89493 0.50746,-0.87979 1.25173,-1.59039 0.7781,-0.7106 1.69152,-1.11666 0.94724,-0.4399 1.96216,-0.57525 1.01491,-0.16919 2.02982,-0.16919 1.01491,0 2.02982,0.16919 1.01491,0.13535 1.92833,0.57525 0.94725,0.40606 1.69152,1.11666 0.77809,0.7106 1.25172,1.59039 0.50745,0.87979 0.71044,1.89493 0.20298,1.01515 0.20298,2.03029 v 3.38381 q 0,1.01515 -0.20298,2.03029 -0.20299,1.01514 -0.71044,1.89494 -0.47363,0.87979 -1.25172,1.59039 -0.74427,0.7106 -1.69152,1.15049 -0.91342,0.40606 -1.92833,0.54141 -1.01491,0.16919 -2.02982,0.16919 z m 0,-4.06057 q 0.60894,0 1.21789,-0.23687 0.60895,-0.23686 0.98108,-0.7106 0.40596,-0.50757 0.54128,-1.11666 0.13533,-0.64292 0.13533,-1.25201 v -3.38381 q 0,-0.60908 -0.13533,-1.21817 -0.13532,-0.64293 -0.54128,-1.11666 -0.37213,-0.50757 -0.98108,-0.74444 -0.60895,-0.23686 -1.21789,-0.23686 -0.60895,0 -1.2179,0.23686 -0.60894,0.23687 -1.01491,0.74444 -0.37213,0.47373 -0.50745,1.11666 -0.13532,0.60909 -0.13532,1.21817 v 3.38381 q 0,0.60909 0.13532,1.25201 0.13532,0.60909 0.50745,1.11666 0.40597,0.47374 1.01491,0.7106 0.60895,0.23687 1.2179,0.23687 z m 19.85843,4.06057 q -0.7781,0 -1.52237,-0.16919 -0.74427,-0.13535 -1.42087,-0.50757 -0.64278,-0.40606 -1.15024,-0.9813 -0.47362,-0.60909 -0.77809,-1.31969 -0.30448,-0.7106 -0.4398,-1.45504 -0.10149,-0.74444 -0.10149,-1.52272 V 95.392241 h 4.93923 v 19.186209 q 0,0.16919 0,0.37222 0,0.16919 0,0.37222 0.0338,0.16919 0.0677,0.33838 0.0338,0.16919 0.10149,0.33839 0.0677,0.16919 0.16915,0.33838 0.13533,0.13535 0.33831,0.13535 0.27064,0 0.43979,-0.20303 0.16915,-0.23687 0.23682,-0.47373 0.10149,-0.27071 0.13532,-0.54141 0.0338,-0.27071 0.0677,-0.54141 l 4.26262,1.04898 q -0.10149,1.01514 -0.54128,1.92877 -0.40597,0.91363 -1.15024,1.59039 -0.71043,0.67677 -1.69151,0.98131 -0.98108,0.2707 -1.96216,0.2707 z"
       id="text1823-64-68"
       style="font-weight:900;font-size:25.4px;line-height:1;font-family:'Iosevka Sezimal QP';-inkscape-font-specification:'Iosevka Sezimal QP, Heavy';text-align:center;text-decoration-color:#d40000;baseline-shift:baseline;text-anchor:middle;mix-blend-mode:normal;fill:#ffffff;stroke:none;stroke-width:0.499999;stroke-linecap:round;stroke-miterlimit:2.6;stroke-dasharray:none;stroke-opacity:1"
       aria-label="gol" />
    <path
       d="m 230.19459,227.87841 q -0.74426,0 -1.48853,-0.16919 -0.74427,-0.1692 -1.38705,-0.57525 -0.60894,-0.40606 -1.1164,-0.98131 -0.47362,-0.57525 -0.7781,-1.25201 v 2.70705 h -4.93923 v -24.87102 h 4.93923 v 9.98225 q 0.33831,-0.67676 0.81193,-1.25201 0.47363,-0.57525 1.1164,-0.98131 0.64278,-0.40605 1.35322,-0.57524 0.74427,-0.1692 1.48853,-0.1692 0.87959,0 1.72535,0.23687 0.87959,0.23687 1.5562,0.81212 0.67661,0.54141 1.15023,1.28584 0.47363,0.74444 0.74427,1.5904 0.27064,0.84595 0.37213,1.72574 0.10149,0.84595 0.10149,1.72574 v 3.38382 q 0,0.87979 -0.10149,1.75958 -0.10149,0.84595 -0.37213,1.6919 -0.27064,0.84596 -0.74427,1.5904 -0.47362,0.74443 -1.15023,1.31968 -0.67661,0.54141 -1.5562,0.77828 -0.84576,0.23687 -1.72535,0.23687 z m -2.02982,-4.06058 q 0.60895,0 1.18407,-0.23687 0.57511,-0.2707 0.94725,-0.74443 0.37213,-0.50758 0.47362,-1.11666 0.13532,-0.60909 0.13532,-1.21817 v -3.38382 q 0,-0.60908 -0.13532,-1.21817 -0.10149,-0.60908 -0.47362,-1.08282 -0.37214,-0.50757 -0.94725,-0.74444 -0.57512,-0.2707 -1.18407,-0.2707 -0.60894,0 -1.18406,0.2707 -0.57512,0.23687 -0.94725,0.74444 -0.37213,0.47374 -0.50745,1.08282 -0.1015,0.60909 -0.1015,1.21817 v 3.38382 q 0,0.60908 0.1015,1.21817 0.13532,0.60908 0.50745,1.11666 0.37213,0.47373 0.94725,0.74443 0.57512,0.23687 1.18406,0.23687 z m 12.61874,3.78987 v -24.87102 h 4.93923 v 9.94841 q 0.30447,-0.64292 0.7781,-1.21817 0.47362,-0.57525 1.08257,-0.98131 0.60894,-0.40605 1.31938,-0.57524 0.74427,-0.1692 1.45471,-0.1692 0.87959,0 1.72534,0.27071 0.84576,0.23687 1.52237,0.81211 0.67661,0.54141 1.1164,1.28585 0.4398,0.74444 0.71044,1.59039 0.27064,0.81212 0.3383,1.69191 0.10149,0.84595 0.10149,1.72574 v 10.48982 h -4.93923 v -10.48982 q 0,-0.60908 -0.13532,-1.18433 -0.10149,-0.60909 -0.43979,-1.08282 -0.30448,-0.50757 -0.87959,-0.77828 -0.54129,-0.2707 -1.15023,-0.2707 -0.60895,0 -1.18407,0.2707 -0.54128,0.27071 -0.87959,0.77828 -0.30447,0.47373 -0.43979,1.08282 -0.10149,0.57525 -0.10149,1.18433 v 10.48982 z m 30.00753,0.27071 q -0.94725,0 -1.8945,-0.23687 -0.91342,-0.23687 -1.69151,-0.77828 -0.74427,-0.57525 -1.31939,-1.35352 -0.54128,-0.81212 -0.87959,-1.69191 -0.30447,-0.91363 -0.40596,-1.82726 -0.10149,-0.94746 -0.10149,-1.92877 v -5.98935 h -2.87558 v -4.06057 h 2.87558 v -7.2752 h 4.9054 v 7.2752 h 5.85265 v 4.06057 H 269.404 v 5.98935 q 0,0.37222 0,0.74444 0.0338,0.33838 0.0677,0.7106 0.0677,0.37222 0.13532,0.7106 0.0677,0.33838 0.20298,0.67676 0.13532,0.33838 0.37214,0.64293 0.27064,0.2707 0.60894,0.2707 0.4398,0 0.71044,-0.33838 0.30447,-0.33838 0.43979,-0.74444 0.13533,-0.40606 0.16916,-0.81211 0.0677,-0.4399 0.0677,-0.84596 v -0.0677 h 4.93923 v 0.13535 q 0,0.87979 -0.16915,1.72574 -0.16916,0.84596 -0.54129,1.65807 -0.37213,0.77828 -0.94725,1.45504 -0.57511,0.67676 -1.31938,1.11666 -0.74427,0.40606 -1.62386,0.57525 -0.84576,0.20303 -1.72535,0.20303 z"
       id="text3-6-2"
       style="font-weight:900;font-size:25.4px;line-height:1;font-family:'Iosevka Sezimal QP';-inkscape-font-specification:'Iosevka Sezimal QP, Heavy';text-align:center;text-decoration-color:#d40000;text-anchor:middle;mix-blend-mode:normal;fill:#ffffff;stroke:none;stroke-width:0.499999;stroke-linecap:round;stroke-miterlimit:2.6;stroke-dasharray:none;stroke-opacity:1"
       aria-label="bht" />
    <path
       d="m 42.078108,127.80896 q -0.879589,0 -1.725348,-0.10151 -0.845759,-0.0677 -1.691517,-0.33838 -0.811929,-0.23687 -1.590027,-0.67676 -0.744268,-0.4399 -1.319384,-1.08282 -0.541285,-0.64293 -0.879589,-1.48888 -0.304473,-0.81212 -0.338303,-1.65807 h 4.939231 q 0,0.40606 0.304473,0.67676 0.338304,0.27071 0.710437,0.40606 0.405965,0.13535 0.778099,0.16919 0.405964,0.0338 0.811928,0.0338 0.608946,0 1.150232,-0.27071 0.575116,-0.23686 0.913419,-0.74443 0.372134,-0.47374 0.473625,-1.08282 0.135322,-0.60909 0.135322,-1.21818 v -2.87624 q -0.304473,0.67677 -0.811929,1.25201 -0.473625,0.57525 -1.116401,0.98131 -0.608947,0.40606 -1.353214,0.57525 -0.744268,0.16919 -1.488536,0.16919 -0.879589,0 -1.759178,-0.23687 -0.845759,-0.23687 -1.522366,-0.77827 -0.676607,-0.57525 -1.150232,-1.31969 -0.473625,-0.74444 -0.744268,-1.59039 -0.270642,-0.84596 -0.372133,-1.69191 -0.101491,-0.87979 -0.101491,-1.75958 v -3.38381 q 0,-0.87979 0.101491,-1.72575 0.101491,-0.87979 0.372133,-1.72574 0.270643,-0.84595 0.744268,-1.59039 0.473625,-0.74444 1.150232,-1.28585 0.676607,-0.57525 1.522366,-0.81212 0.879589,-0.23686 1.759178,-0.23686 0.744268,0 1.488536,0.16919 0.744267,0.16919 1.353214,0.57525 0.642776,0.40605 1.116401,0.9813 0.507456,0.57525 0.811929,1.25201 v -2.70705 h 4.939231 v 17.76501 q 0,1.01515 -0.202982,1.99645 -0.169152,1.01515 -0.642777,1.89494 -0.473625,0.87979 -1.217892,1.59039 -0.744268,0.7106 -1.657688,1.11666 -0.879589,0.43989 -1.894499,0.60908 -0.98108,0.16919 -1.995991,0.16919 z m -0.06766,-11.33577 q 0.608947,0 1.184063,-0.23686 0.575116,-0.27071 0.947249,-0.74444 0.372134,-0.50757 0.473625,-1.11666 0.135322,-0.60909 0.135322,-1.21817 v -3.38381 q 0,-0.60909 -0.135322,-1.21818 -0.101491,-0.60908 -0.473625,-1.08282 -0.372133,-0.50757 -0.947249,-0.74443 -0.575116,-0.27071 -1.184063,-0.27071 -0.608946,0 -1.184062,0.27071 -0.575116,0.23686 -0.94725,0.74443 -0.372134,0.47374 -0.507455,1.08282 -0.101491,0.60909 -0.101491,1.21818 v 3.38381 q 0,0.60908 0.101491,1.21817 0.135321,0.60909 0.507455,1.11666 0.372134,0.47373 0.94725,0.74444 0.575116,0.23686 1.184062,0.23686 z m 22.598687,4.06058 q -0.94725,0 -1.8945,-0.23687 -0.913419,-0.23687 -1.691517,-0.77827 -0.744268,-0.57525 -1.319384,-1.35353 -0.541286,-0.81211 -0.879589,-1.69191 -0.304473,-0.91362 -0.405964,-1.82725 -0.101491,-0.94747 -0.101491,-1.92878 v -5.98934 h -2.87558 v -4.06058 h 2.87558 v -7.275194 h 4.905401 v 7.275194 h 5.85265 v 4.06058 h -5.85265 v 5.98934 q 0,0.37222 0,0.74444 0.03383,0.33838 0.06766,0.7106 0.06766,0.37222 0.135322,0.7106 0.06766,0.33838 0.202982,0.67677 0.135321,0.33838 0.372134,0.64292 0.270643,0.2707 0.608946,0.2707 0.439795,0 0.710437,-0.33838 0.304474,-0.33838 0.439795,-0.74444 0.135321,-0.40605 0.169152,-0.81211 0.06766,-0.4399 0.06766,-0.84595 v -0.0677 h 4.939232 v 0.13535 q 0,0.87979 -0.169152,1.72575 -0.169152,0.84595 -0.541286,1.65806 -0.372133,0.77828 -0.947249,1.45504 -0.575116,0.67677 -1.319384,1.11666 -0.744268,0.40606 -1.623857,0.57525 -0.845759,0.20303 -1.725348,0.20303 z m 11.231689,-0.27071 V 95.392046 h 4.905401 v 14.042824 l 4.80391,-6.76763 h 5.649668 l -6.427767,8.08731 6.427767,9.50851 h -5.480517 l -3.653678,-6.09086 -1.319383,1.65807 v 4.43279 z"
       id="text10-1-7"
       style="font-weight:900;font-size:25.4px;line-height:1;font-family:'Iosevka Sezimal QP';-inkscape-font-specification:'Iosevka Sezimal QP, Heavy';font-variation-settings:normal;text-align:center;text-decoration-color:#d40000;text-anchor:middle;mix-blend-mode:normal;fill:#ffffff;fill-opacity:1;stroke:none;stroke-width:0.499999;stroke-linecap:round;stroke-linejoin:miter;stroke-miterlimit:2.6;stroke-dasharray:none;stroke-dashoffset:0;stroke-opacity:1;stop-color:#000000"
       aria-label="gtk" />
    <path
       d="m 132.92247,66.861452 q -0.87959,0 -1.75918,-0.236866 -0.84576,-0.236867 -1.52237,-0.778277 -0.6766,-0.575248 -1.15023,-1.319687 -0.47362,-0.744438 -0.74427,-1.590391 -0.27064,-0.845953 -0.37213,-1.691906 -0.10149,-0.879791 -0.10149,-1.759582 v -3.383812 q 0,-0.879791 0.10149,-1.725744 0.10149,-0.879791 0.37213,-1.725744 0.27065,-0.845953 0.74427,-1.590392 0.47363,-0.744439 1.15023,-1.285848 0.67661,-0.575249 1.52237,-0.812115 0.87959,-0.236867 1.75918,-0.236867 0.74427,0 1.48853,0.16919 0.74427,0.169191 1.35322,0.575248 0.64277,0.406058 1.1164,0.981306 0.50745,0.575248 0.81193,1.25201 V 41.71973 h 4.93923 v 24.871018 h -4.93923 v -2.70705 q -0.30448,0.676762 -0.81193,1.25201 -0.47363,0.575248 -1.1164,0.981306 -0.60895,0.406057 -1.35322,0.575248 -0.74426,0.16919 -1.48853,0.16919 z m 2.02982,-4.060574 q 0.60895,0 1.18406,-0.236867 0.57512,-0.270705 0.94725,-0.744438 0.37214,-0.507572 0.47363,-1.116658 0.13532,-0.609086 0.13532,-1.218172 v -3.383812 q 0,-0.609086 -0.13532,-1.218173 -0.10149,-0.609086 -0.47363,-1.082819 -0.37213,-0.507572 -0.94725,-0.744439 -0.57511,-0.270705 -1.18406,-0.270705 -0.60895,0 -1.18406,0.270705 -0.57512,0.236867 -0.94725,0.744439 -0.37214,0.473733 -0.50746,1.082819 -0.10149,0.609087 -0.10149,1.218173 v 3.383812 q 0,0.609086 0.10149,1.218172 0.13532,0.609086 0.50746,1.116658 0.37213,0.473733 0.94725,0.744438 0.57511,0.236867 1.18406,0.236867 z m 18.40372,4.060574 q -0.71044,0 -1.45471,-0.101514 -0.71043,-0.101514 -1.38704,-0.372219 -0.67661,-0.270705 -1.25172,-0.744439 -0.57512,-0.473733 -0.98108,-1.08282 -0.37213,-0.609086 -0.54129,-1.319686 -0.16915,-0.744439 -0.16915,-1.455039 0,-1.015144 0.30448,-1.962611 0.30447,-0.981306 0.94724,-1.691906 0.67661,-0.744439 1.5562,-1.218172 0.87959,-0.507572 1.82684,-0.778277 0.98108,-0.270705 1.96216,-0.372219 0.98108,-0.101515 1.96216,-0.101515 h 2.2328 v -0.507572 q 0,-0.575248 -0.20298,-1.116658 -0.20298,-0.541409 -0.67661,-0.913629 -0.43979,-0.372219 -1.01491,-0.507572 -0.54128,-0.135352 -1.1164,-0.135352 -0.50745,0 -1.01491,0.06768 -0.47362,0.06768 -0.94725,0.304543 -0.43979,0.203029 -0.74427,0.609086 -0.30447,0.406058 -0.30447,0.91363 v 0.03384 h -4.5671 v -0.135353 q 0,-0.879791 0.30448,-1.725744 0.30447,-0.845953 0.84575,-1.488877 0.57512,-0.676762 1.31939,-1.150496 0.7781,-0.473734 1.62385,-0.710601 0.84576,-0.270704 1.72535,-0.372219 0.87959,-0.101514 1.75918,-0.101514 0.94725,0 1.86067,0.135352 0.94725,0.101515 1.82684,0.439896 0.87959,0.338381 1.62386,0.913629 0.77809,0.575248 1.28555,1.387363 0.54128,0.778277 0.74427,1.691906 0.23681,0.913629 0.23681,1.861096 v 11.437285 h -4.5671 v -2.504021 q -0.3383,0.676762 -0.87959,1.218172 -0.54128,0.54141 -1.21789,0.913629 -0.64278,0.37222 -1.38704,0.507572 -0.74427,0.135352 -1.52237,0.135352 z m 1.86067,-3.756031 q 0.60895,0 1.21789,-0.135352 0.60895,-0.169191 1.04874,-0.575248 0.47363,-0.406058 0.67661,-0.981306 0.20298,-0.609086 0.20298,-1.218172 v -0.778277 h -2.2328 q -0.40597,0 -0.81193,0.03384 -0.40596,0 -0.81193,0.06768 -0.40596,0.06768 -0.81193,0.203028 -0.37213,0.101515 -0.74426,0.304544 -0.33831,0.16919 -0.57512,0.541409 -0.23681,0.338382 -0.23681,0.744439 0,0.507572 0.3383,0.913629 0.3383,0.37222 0.7781,0.575248 0.47362,0.169191 0.98108,0.236867 0.50745,0.06768 0.98108,0.06768 z m 13.05853,3.485327 v -4.060575 h 2.46961 V 53.0555 h -2.46961 v -4.060574 h 7.37501 v 3.214621 q 0.33831,-0.744439 0.7781,-1.387363 0.47363,-0.676762 1.08257,-1.150496 0.64278,-0.507572 1.42088,-0.7106 0.7781,-0.236867 1.59003,-0.236867 0.6766,0 1.31938,0.270705 0.64278,0.236867 1.08257,0.744438 0.47363,0.507572 0.74427,1.150496 0.30447,0.609087 0.43979,1.285849 0.13532,0.676762 0.16915,1.353525 0.0677,0.676762 0.0677,1.353524 h -4.90541 q 0,-0.338381 -0.0677,-0.676762 -0.0338,-0.372219 -0.16915,-0.676762 -0.13532,-0.338381 -0.43979,-0.54141 -0.27065,-0.203029 -0.64278,-0.203029 -0.47362,0 -0.91342,0.236867 -0.40596,0.203029 -0.71044,0.609086 -0.27064,0.372219 -0.43979,0.845953 -0.13532,0.439896 -0.23681,0.913629 -0.10149,0.439896 -0.13532,0.913629 -0.0338,0.473734 -0.0338,0.947468 v 5.278746 h 2.97708 v 4.060575 z"
       id="text12-5-5"
       style="font-weight:900;font-size:25.4px;line-height:1;font-family:'Iosevka Sezimal QP';-inkscape-font-specification:'Iosevka Sezimal QP, Heavy';font-variation-settings:normal;text-align:center;text-decoration-color:#d40000;text-anchor:middle;mix-blend-mode:normal;fill:#ffffff;fill-opacity:1;stroke:none;stroke-width:0.499999;stroke-linecap:round;stroke-linejoin:miter;stroke-miterlimit:2.6;stroke-dasharray:none;stroke-dashoffset:0;stroke-opacity:1;stop-color:#000000"
       aria-label="dar" />
    <path
       d="m 127.54344,288.55523 v -24.87102 h 4.93923 v 2.70705 q 0.30448,-0.67676 0.7781,-1.25201 0.50746,-0.57525 1.1164,-0.9813 0.64278,-0.40606 1.38705,-0.57525 0.74427,-0.16919 1.48853,-0.16919 0.87959,0 1.72535,0.23686 0.87959,0.23687 1.5562,0.81212 0.6766,0.54141 1.15023,1.28585 0.47362,0.74444 0.74427,1.59039 0.27064,0.84595 0.37213,1.72574 0.10149,0.84596 0.10149,1.72575 v 3.38381 q 0,0.87979 -0.10149,1.75958 -0.10149,0.84595 -0.37213,1.69191 -0.27065,0.84595 -0.74427,1.59039 -0.47363,0.74444 -1.15023,1.31968 -0.67661,0.54141 -1.5562,0.77828 -0.84576,0.23687 -1.72535,0.23687 -0.74426,0 -1.48853,-0.16919 -0.74427,-0.16919 -1.38705,-0.57525 -0.60894,-0.40606 -1.1164,-0.98131 -0.47362,-0.57524 -0.7781,-1.25201 v 9.98225 z m 7.67949,-11.06507 q 0.60895,0 1.18406,-0.23686 0.57512,-0.27071 0.94725,-0.74444 0.37214,-0.50757 0.47363,-1.11666 0.13532,-0.60909 0.13532,-1.21817 v -3.38381 q 0,-0.60909 -0.13532,-1.21818 -0.10149,-0.60908 -0.47363,-1.08282 -0.37213,-0.50757 -0.94725,-0.74443 -0.57511,-0.27071 -1.18406,-0.27071 -0.60894,0 -1.18406,0.27071 -0.57512,0.23686 -0.94725,0.74443 -0.37213,0.47374 -0.50746,1.08282 -0.10149,0.60909 -0.10149,1.21818 v 3.38381 q 0,0.60908 0.10149,1.21817 0.13533,0.60909 0.50746,1.11666 0.37213,0.47373 0.94725,0.74444 0.57512,0.23686 1.18406,0.23686 z m 18.13308,4.06058 q -0.71044,0 -1.45471,-0.10152 -0.71043,-0.10151 -1.38704,-0.37222 -0.67661,-0.2707 -1.25172,-0.74443 -0.57512,-0.47374 -0.98108,-1.08282 -0.37213,-0.60909 -0.54129,-1.31969 -0.16915,-0.74444 -0.16915,-1.45504 0,-1.01514 0.30448,-1.96261 0.30447,-0.98131 0.94724,-1.69191 0.67661,-0.74444 1.5562,-1.21817 0.87959,-0.50757 1.82684,-0.77828 0.98108,-0.2707 1.96216,-0.37221 0.98108,-0.10152 1.96216,-0.10152 h 2.2328 v -0.50757 q 0,-0.57525 -0.20298,-1.11666 -0.20298,-0.54141 -0.67661,-0.91363 -0.43979,-0.37222 -1.01491,-0.50757 -0.54128,-0.13535 -1.1164,-0.13535 -0.50745,0 -1.01491,0.0677 -0.47362,0.0677 -0.94725,0.30455 -0.43979,0.20303 -0.74427,0.60908 -0.30447,0.40606 -0.30447,0.91363 v 0.0338 h -4.5671 v -0.13535 q 0,-0.87979 0.30448,-1.72575 0.30447,-0.84595 0.84575,-1.48887 0.57512,-0.67677 1.31939,-1.1505 0.7781,-0.47373 1.62385,-0.7106 0.84576,-0.2707 1.72535,-0.37222 0.87959,-0.10151 1.75918,-0.10151 0.94725,0 1.86067,0.13535 0.94725,0.10151 1.82684,0.43989 0.87959,0.33839 1.62386,0.91363 0.77809,0.57525 1.28555,1.38737 0.54128,0.77827 0.74427,1.6919 0.23681,0.91363 0.23681,1.8611 v 11.43728 h -4.5671 V 278.776 q -0.3383,0.67676 -0.87959,1.21817 -0.54128,0.54141 -1.21789,0.91363 -0.64278,0.37222 -1.38704,0.50758 -0.74427,0.13535 -1.52237,0.13535 z m 1.86067,-3.75603 q 0.60895,0 1.21789,-0.13536 0.60895,-0.16919 1.04874,-0.57524 0.47363,-0.40606 0.67661,-0.98131 0.20298,-0.60909 0.20298,-1.21817 v -0.77828 h -2.2328 q -0.40597,0 -0.81193,0.0338 -0.40596,0 -0.81193,0.0677 -0.40596,0.0677 -0.81193,0.20303 -0.37213,0.10151 -0.74426,0.30454 -0.33831,0.16919 -0.57512,0.54141 -0.23681,0.33838 -0.23681,0.74444 0,0.50757 0.3383,0.91363 0.3383,0.37222 0.7781,0.57524 0.47362,0.16919 0.98108,0.23687 0.50745,0.0677 0.98108,0.0677 z m 18.30223,3.75603 q -0.87959,0 -1.75918,-0.23687 -0.84575,-0.23687 -1.52236,-0.77828 -0.67661,-0.57524 -1.15023,-1.31968 -0.47363,-0.74444 -0.74427,-1.59039 -0.27064,-0.84596 -0.37213,-1.69191 -0.1015,-0.87979 -0.1015,-1.75958 v -3.38381 q 0,-0.87979 0.1015,-1.72575 0.10149,-0.87979 0.37213,-1.72574 0.27064,-0.84595 0.74427,-1.59039 0.47362,-0.74444 1.15023,-1.28585 0.67661,-0.57525 1.52236,-0.81212 0.87959,-0.23686 1.75918,-0.23686 0.74427,0 1.48854,0.16919 0.74427,0.16919 1.35321,0.57525 0.64278,0.40605 1.1164,0.9813 0.50746,0.57525 0.81193,1.25201 v -9.98224 h 4.93923 v 24.87101 h -4.93923 v -2.70705 q -0.30447,0.67677 -0.81193,1.25201 -0.47362,0.57525 -1.1164,0.98131 -0.60894,0.40606 -1.35321,0.57525 -0.74427,0.16919 -1.48854,0.16919 z m 2.02982,-4.06058 q 0.60895,0 1.18407,-0.23686 0.57511,-0.27071 0.94725,-0.74444 0.37213,-0.50757 0.47362,-1.11666 0.13532,-0.60909 0.13532,-1.21817 v -3.38381 q 0,-0.60909 -0.13532,-1.21818 -0.10149,-0.60908 -0.47362,-1.08282 -0.37214,-0.50757 -0.94725,-0.74443 -0.57512,-0.27071 -1.18407,-0.27071 -0.60894,0 -1.18406,0.27071 -0.57511,0.23686 -0.94725,0.74443 -0.37213,0.47374 -0.50745,1.08282 -0.10149,0.60909 -0.10149,1.21818 v 3.38381 q 0,0.60908 0.10149,1.21817 0.13532,0.60909 0.50745,1.11666 0.37214,0.47373 0.94725,0.74444 0.57512,0.23686 1.18406,0.23686 z"
       id="text14-6-8"
       style="font-weight:900;font-size:25.4px;line-height:1;font-family:'Iosevka Sezimal QP';-inkscape-font-specification:'Iosevka Sezimal QP, Heavy';font-variation-settings:normal;text-align:center;text-decoration-color:#d40000;text-anchor:middle;mix-blend-mode:normal;fill:#ffffff;fill-opacity:1;stroke:none;stroke-width:0.499999;stroke-linecap:round;stroke-linejoin:miter;stroke-miterlimit:2.6;stroke-dasharray:none;stroke-dashoffset:0;stroke-opacity:1;stop-color:#000000"
       aria-label="pad" />
    <path
       d="m 39.557779,227.74307 q -0.87959,0 -1.75918,-0.23687 -0.84576,-0.23687 -1.52237,-0.77828 -0.6766,-0.57525 -1.15023,-1.31968 -0.47362,-0.74444 -0.74427,-1.5904 -0.27064,-0.84595 -0.37213,-1.6919 -0.10149,-0.87979 -0.10149,-1.75958 v -3.38382 q 0,-0.87979 0.10149,-1.72574 0.10149,-0.87979 0.37213,-1.72574 0.27065,-0.84596 0.74427,-1.5904 0.47363,-0.74443 1.15023,-1.28584 0.67661,-0.57525 1.52237,-0.81212 0.87959,-0.23687 1.75918,-0.23687 0.74427,0 1.48853,0.1692 0.74427,0.16919 1.35322,0.57524 0.64277,0.40606 1.1164,0.98131 0.507455,0.57525 0.811928,1.25201 v -9.98225 h 4.939231 v 24.87102 h -4.939231 v -2.70705 q -0.304473,0.67676 -0.811928,1.25201 -0.47363,0.57525 -1.1164,0.98131 -0.60895,0.40605 -1.35322,0.57525 -0.74426,0.16919 -1.48853,0.16919 z m 2.02982,-4.06058 q 0.60895,0 1.18406,-0.23687 0.57512,-0.2707 0.94725,-0.74443 0.372135,-0.50758 0.473626,-1.11666 0.135322,-0.60909 0.135322,-1.21817 v -3.38382 q 0,-0.60908 -0.135322,-1.21817 -0.101491,-0.60908 -0.473626,-1.08282 -0.37213,-0.50757 -0.94725,-0.74444 -0.57511,-0.2707 -1.18406,-0.2707 -0.60895,0 -1.18406,0.2707 -0.57512,0.23687 -0.94725,0.74444 -0.37214,0.47374 -0.50746,1.08282 -0.10149,0.60909 -0.10149,1.21817 v 3.38382 q 0,0.60908 0.10149,1.21817 0.13532,0.60908 0.50746,1.11666 0.37213,0.47373 0.94725,0.74443 0.57511,0.23687 1.18406,0.23687 z m 13.024697,3.78987 v -4.06057 h 2.469615 v -9.47468 h -2.469615 v -4.06057 h 7.375016 v 3.21462 q 0.338304,-0.74444 0.778098,-1.38736 0.473625,-0.67676 1.082572,-1.1505 0.642776,-0.50757 1.420874,-0.7106 0.778098,-0.23687 1.590027,-0.23687 0.676607,0 1.319384,0.27071 0.642776,0.23687 1.082571,0.74444 0.473625,0.50757 0.744267,1.15049 0.304474,0.60909 0.439795,1.28585 0.135321,0.67676 0.169152,1.35353 0.06766,0.67676 0.06766,1.35352 h -4.905401 q 0,-0.33838 -0.06766,-0.67676 -0.03383,-0.37222 -0.169152,-0.67676 -0.135321,-0.33838 -0.439794,-0.54141 -0.270643,-0.20303 -0.642777,-0.20303 -0.473625,0 -0.91342,0.23687 -0.405964,0.20302 -0.710437,0.60908 -0.270643,0.37222 -0.439795,0.84595 -0.135321,0.4399 -0.236812,0.91363 -0.101491,0.4399 -0.135321,0.91363 -0.03383,0.47374 -0.03383,0.94747 v 5.27875 h 2.977071 v 4.06057 z m 30.548819,0 h -5.683499 l -5.818821,-17.59582 h 5.209875 l 3.383035,11.74183 q 0.03383,0.0338 0.03383,0.10151 0.03383,0.0677 0.03383,0.10152 0,-0.0338 0,-0.10152 0.03383,-0.0677 0.06766,-0.10151 l 3.383035,-11.74183 h 5.209874 z"
       id="text7-1-5"
       style="font-weight:900;font-size:25.4px;line-height:1;font-family:'Iosevka Sezimal QP';-inkscape-font-specification:'Iosevka Sezimal QP, Heavy';font-variation-settings:normal;text-align:center;text-decoration-color:#d40000;text-anchor:middle;mix-blend-mode:normal;fill:#ffffff;fill-opacity:1;stroke:none;stroke-width:0.499999;stroke-linecap:round;stroke-linejoin:miter;stroke-miterlimit:2.6;stroke-dasharray:none;stroke-dashoffset:0;stroke-opacity:1;stop-color:#000000"
       aria-label="drv" />
    <path
       d="m 220.48528,127.53826 v -24.87102 h 4.93923 v 2.70705 q 0.30448,-0.67676 0.7781,-1.25201 0.50746,-0.57525 1.1164,-0.9813 0.64278,-0.40606 1.38705,-0.57525 0.74427,-0.16919 1.48853,-0.16919 0.87959,0 1.72535,0.23686 0.87959,0.23687 1.5562,0.81212 0.67661,0.54141 1.15023,1.28585 0.47363,0.74444 0.74427,1.59039 0.27064,0.84595 0.37213,1.72574 0.10149,0.84596 0.10149,1.72575 v 3.38381 q 0,0.87979 -0.10149,1.75958 -0.10149,0.84595 -0.37213,1.69191 -0.27064,0.84595 -0.74427,1.59039 -0.47362,0.74444 -1.15023,1.31969 -0.67661,0.5414 -1.5562,0.77827 -0.84576,0.23687 -1.72535,0.23687 -0.74426,0 -1.48853,-0.16919 -0.74427,-0.16919 -1.38705,-0.57525 -0.60894,-0.40606 -1.1164,-0.98131 -0.47362,-0.57524 -0.7781,-1.25201 v 9.98225 z m 7.67949,-11.06507 q 0.60895,0 1.18407,-0.23686 0.57511,-0.27071 0.94725,-0.74444 0.37213,-0.50757 0.47362,-1.11666 0.13532,-0.60909 0.13532,-1.21817 v -3.38381 q 0,-0.60909 -0.13532,-1.21818 -0.10149,-0.60908 -0.47362,-1.08282 -0.37214,-0.50757 -0.94725,-0.74443 -0.57512,-0.27071 -1.18407,-0.27071 -0.60894,0 -1.18406,0.27071 -0.57512,0.23686 -0.94725,0.74443 -0.37213,0.47374 -0.50745,1.08282 -0.1015,0.60909 -0.1015,1.21818 v 3.38381 q 0,0.60908 0.1015,1.21817 0.13532,0.60909 0.50745,1.11666 0.37213,0.47373 0.94725,0.74444 0.57512,0.23686 1.18406,0.23686 z m 13.26151,3.78987 V 95.392046 h 4.90541 v 14.042824 l 4.80391,-6.76763 h 5.64966 l -6.42776,8.08731 6.42776,9.50851 h -5.48051 l -3.65368,-6.09086 -1.31938,1.65807 v 4.43279 z m 19.01267,0 5.6835,-8.79791 -5.6835,-8.79791 h 5.88649 l 2.30046,4.29744 2.30046,-4.29744 h 5.88649 l -5.6835,8.79791 5.6835,8.79791 h -5.88649 l -2.30046,-4.29744 -2.30046,4.29744 z"
       id="text5-8-2"
       style="font-weight:900;font-size:25.4px;line-height:1;font-family:'Iosevka Sezimal QP';-inkscape-font-specification:'Iosevka Sezimal QP, Heavy';text-align:center;text-decoration-color:#d40000;text-anchor:middle;mix-blend-mode:normal;fill:#ffffff;stroke:none;stroke-width:0.499999;stroke-linecap:round;stroke-miterlimit:2.6;stroke-dasharray:none;stroke-opacity:1"
       aria-label="pkx" />
    <path
       d="m 133.05779,174.2061 q -0.71044,0 -1.45471,-0.10151 -0.71043,-0.10152 -1.38704,-0.37222 -0.67661,-0.27071 -1.25172,-0.74444 -0.57512,-0.47374 -0.98108,-1.08282 -0.37214,-0.60909 -0.54129,-1.31969 -0.16915,-0.74444 -0.16915,-1.45504 0,-1.01514 0.30447,-1.96261 0.30448,-0.9813 0.94725,-1.6919 0.67661,-0.74444 1.5562,-1.21818 0.87959,-0.50757 1.82684,-0.77827 0.98108,-0.27071 1.96216,-0.37222 0.98108,-0.10152 1.96216,-0.10152 h 2.2328 v -0.50757 q 0,-0.57525 -0.20298,-1.11666 -0.20298,-0.54141 -0.67661,-0.91363 -0.43979,-0.37221 -1.01491,-0.50757 -0.54128,-0.13535 -1.1164,-0.13535 -0.50745,0 -1.01491,0.0677 -0.47362,0.0677 -0.94725,0.30454 -0.43979,0.20303 -0.74427,0.60909 -0.30447,0.40605 -0.30447,0.91362 v 0.0338 h -4.5671 v -0.13535 q 0,-0.87979 0.30447,-1.72574 0.30448,-0.84596 0.84576,-1.48888 0.57512,-0.67676 1.31939,-1.1505 0.7781,-0.47373 1.62385,-0.7106 0.84576,-0.2707 1.72535,-0.37222 0.87959,-0.10151 1.75918,-0.10151 0.94725,0 1.86067,0.13535 0.94725,0.10152 1.82684,0.4399 0.87959,0.33838 1.62386,0.91363 0.77809,0.57524 1.28555,1.38736 0.54128,0.77828 0.74427,1.69191 0.23681,0.91362 0.23681,1.86109 v 11.43729 h -4.5671 v -2.50403 q -0.3383,0.67677 -0.87959,1.21818 -0.54128,0.54141 -1.21789,0.91363 -0.64278,0.37222 -1.38704,0.50757 -0.74427,0.13535 -1.52237,0.13535 z m 1.86067,-3.75603 q 0.60895,0 1.21789,-0.13535 0.60895,-0.16919 1.04874,-0.57525 0.47363,-0.40606 0.67661,-0.98131 0.20298,-0.60908 0.20298,-1.21817 v -0.77828 h -2.2328 q -0.40597,0 -0.81193,0.0338 -0.40596,0 -0.81193,0.0677 -0.40596,0.0677 -0.81193,0.20303 -0.37213,0.10151 -0.74426,0.30454 -0.33831,0.16919 -0.57512,0.54141 -0.23681,0.33838 -0.23681,0.74444 0,0.50757 0.3383,0.91363 0.3383,0.37222 0.7781,0.57525 0.47362,0.16919 0.98108,0.23686 0.50745,0.0677 0.98108,0.0677 z m 12.92321,3.48533 v -17.59583 h 4.93922 v 2.67322 q 0.30448,-0.64293 0.7781,-1.21818 0.47363,-0.57524 1.08257,-0.9813 0.60895,-0.40606 1.31939,-0.57525 0.74426,-0.16919 1.4547,-0.16919 0.87959,0 1.72535,0.2707 0.84576,0.23687 1.52237,0.81212 0.6766,0.54141 1.1164,1.28585 0.43979,0.74444 0.71043,1.59039 0.27065,0.81211 0.33831,1.6919 0.10149,0.84596 0.10149,1.72575 v 10.48982 h -4.93923 v -10.48982 q 0,-0.60909 -0.13532,-1.18434 -0.10149,-0.60908 -0.4398,-1.08282 -0.30447,-0.50757 -0.87959,-0.77827 -0.54128,-0.27071 -1.15023,-0.27071 -0.60895,0 -1.18406,0.27071 -0.54129,0.2707 -0.87959,0.77827 -0.30447,0.47374 -0.43979,1.08282 -0.1015,0.57525 -0.1015,1.18434 v 10.48982 z m 27.77472,7.5459 q -0.87958,0 -1.72534,-0.10152 -0.84576,-0.0677 -1.69152,-0.33838 -0.81193,-0.23687 -1.59003,-0.67676 -0.74427,-0.4399 -1.31938,-1.08282 -0.54129,-0.64293 -0.87959,-1.48888 -0.30447,-0.81211 -0.3383,-1.65807 h 4.93923 q 0,0.40606 0.30447,0.67677 0.3383,0.2707 0.71044,0.40605 0.40596,0.13536 0.7781,0.16919 0.40596,0.0338 0.81192,0.0338 0.60895,0 1.15024,-0.2707 0.57511,-0.23687 0.91342,-0.74444 0.37213,-0.47374 0.47362,-1.08282 0.13532,-0.60909 0.13532,-1.21817 v -2.87624 q -0.30447,0.67676 -0.81193,1.25201 -0.47362,0.57524 -1.1164,0.9813 -0.60894,0.40606 -1.35321,0.57525 -0.74427,0.16919 -1.48854,0.16919 -0.87959,0 -1.75918,-0.23687 -0.84575,-0.23686 -1.52236,-0.77827 -0.67661,-0.57525 -1.15023,-1.31969 -0.47363,-0.74444 -0.74427,-1.59039 -0.27064,-0.84595 -0.37213,-1.69191 -0.1015,-0.87979 -0.1015,-1.75958 v -3.38381 q 0,-0.87979 0.1015,-1.72575 0.10149,-0.87979 0.37213,-1.72574 0.27064,-0.84595 0.74427,-1.59039 0.47362,-0.74444 1.15023,-1.28585 0.67661,-0.57525 1.52236,-0.81211 0.87959,-0.23687 1.75918,-0.23687 0.74427,0 1.48854,0.16919 0.74427,0.16919 1.35321,0.57525 0.64278,0.40606 1.1164,0.9813 0.50746,0.57525 0.81193,1.25201 v -2.70705 h 4.93923 v 17.76502 q 0,1.01514 -0.20298,1.99645 -0.16915,1.01514 -0.64278,1.89493 -0.47362,0.87979 -1.21789,1.59039 -0.74427,0.7106 -1.65769,1.11666 -0.87958,0.43989 -1.89449,0.60909 -0.98108,0.16919 -1.996,0.16919 z m -0.0677,-11.33577 q 0.60895,0 1.18407,-0.23687 0.57511,-0.27071 0.94725,-0.74444 0.37213,-0.50757 0.47362,-1.11666 0.13532,-0.60908 0.13532,-1.21817 v -3.38381 q 0,-0.60909 -0.13532,-1.21817 -0.10149,-0.60909 -0.47362,-1.08282 -0.37214,-0.50757 -0.94725,-0.74444 -0.57512,-0.27071 -1.18407,-0.27071 -0.60894,0 -1.18406,0.27071 -0.57511,0.23687 -0.94725,0.74444 -0.37213,0.47373 -0.50745,1.08282 -0.10149,0.60908 -0.10149,1.21817 v 3.38381 q 0,0.60909 0.10149,1.21817 0.13532,0.60909 0.50745,1.11666 0.37214,0.47373 0.94725,0.74444 0.57512,0.23687 1.18406,0.23687 z"
       id="text3-8-7-5"
       style="font-weight:900;font-size:25.4px;line-height:1;font-family:'Iosevka Sezimal QP';-inkscape-font-specification:'Iosevka Sezimal QP, Heavy';font-variation-settings:normal;text-align:center;text-decoration-color:#d40000;text-anchor:middle;mix-blend-mode:normal;fill:#ffffff;fill-opacity:1;stroke:none;stroke-width:0.499999;stroke-linecap:round;stroke-linejoin:miter;stroke-miterlimit:2.6;stroke-dasharray:none;stroke-dashoffset:0;stroke-opacity:1;stop-color:#000000"
       aria-label="ang" />
    <g
       id="g1823-7-3-0"
       style="display:inline"
       transform="matrix(1.3319036,0,0,1.3322094,132.1239,98.33037)" />
  </g>
</svg>
