<?xml version="1.0" encoding="UTF-8" standalone="no"?>
<!-- Created with Inkscape (http://www.inkscape.org/) -->

<svg
   version="1.1"
   id="svg1"
   xml:space="preserve"
   width="323"
   height="323"
   sodipodi:docname="shastadari-prefixes-black-background-bz.svg"
   viewBox="0 0 323 323"
   inkscape:version="1.3.2 (091e20ef0f, 2023-11-25, custom)"
   xmlns:inkscape="http://www.inkscape.org/namespaces/inkscape"
   xmlns:sodipodi="http://sodipodi.sourceforge.net/DTD/sodipodi-0.dtd"
   xmlns="http://www.w3.org/2000/svg"
   xmlns:svg="http://www.w3.org/2000/svg"><defs
     id="defs1"><filter
       inkscape:collect="always"
       style="color-interpolation-filters:sRGB"
       id="filter67"
       x="-1.321134"
       y="-0.80370382"
       width="3.642268"
       height="2.6074076"><feGaussianBlur
         inkscape:collect="always"
         stdDeviation="7.4839156"
         id="feGaussianBlur67" /></filter><filter
       inkscape:collect="always"
       style="color-interpolation-filters:sRGB"
       id="filter68"
       x="-1.265154"
       y="-0.79513949"
       width="3.530308"
       height="2.590279"><feGaussianBlur
         inkscape:collect="always"
         stdDeviation="7.4839156"
         id="feGaussianBlur68" /></filter><filter
       inkscape:collect="always"
       style="color-interpolation-filters:sRGB"
       id="filter69"
       x="-1.3389074"
       y="-0.81245255"
       width="3.6778147"
       height="2.6249051"><feGaussianBlur
         inkscape:collect="always"
         stdDeviation="7.4839156"
         id="feGaussianBlur69" /></filter><filter
       inkscape:collect="always"
       style="color-interpolation-filters:sRGB"
       id="filter70"
       x="-1.3095454"
       y="-0.80370493"
       width="3.6190909"
       height="2.6074099"><feGaussianBlur
         inkscape:collect="always"
         stdDeviation="7.4839156"
         id="feGaussianBlur70" /></filter><filter
       inkscape:collect="always"
       style="color-interpolation-filters:sRGB"
       id="filter71"
       x="-0.57863613"
       y="-0.79514357"
       width="2.1572723"
       height="2.5902871"><feGaussianBlur
         inkscape:collect="always"
         stdDeviation="7.4839156"
         id="feGaussianBlur71" /></filter><filter
       inkscape:collect="always"
       style="color-interpolation-filters:sRGB"
       id="filter72"
       x="-0.61689353"
       y="-0.79514336"
       width="2.2337871"
       height="2.5902867"><feGaussianBlur
         inkscape:collect="always"
         stdDeviation="7.4839156"
         id="feGaussianBlur72" /></filter><filter
       inkscape:collect="always"
       style="color-interpolation-filters:sRGB"
       id="filter73"
       x="-1.9643189"
       y="-0.81245281"
       width="4.9286378"
       height="2.6249056"><feGaussianBlur
         inkscape:collect="always"
         stdDeviation="7.4839156"
         id="feGaussianBlur73" /></filter><filter
       inkscape:collect="always"
       style="color-interpolation-filters:sRGB"
       id="filter4"
       x="-0.40287827"
       y="-0.80049555"
       width="1.8057565"
       height="2.6009911"><feGaussianBlur
         inkscape:collect="always"
         stdDeviation="5.377352"
         id="feGaussianBlur4" /></filter><filter
       inkscape:collect="always"
       style="color-interpolation-filters:sRGB"
       id="filter3"
       x="-0.19845808"
       y="-0.62499513"
       width="1.3969162"
       height="2.2499903"><feGaussianBlur
         inkscape:collect="always"
         stdDeviation="4.4666319"
         id="feGaussianBlur3" /></filter><filter
       inkscape:collect="always"
       style="color-interpolation-filters:sRGB"
       id="filter6"
       x="-0.21845662"
       y="-0.48513265"
       width="1.4369132"
       height="1.9702653"><feGaussianBlur
         inkscape:collect="always"
         stdDeviation="4.8060476"
         id="feGaussianBlur6" /></filter></defs><sodipodi:namedview
     id="namedview1"
     pagecolor="#ffffff"
     bordercolor="#000000"
     borderopacity="0.25"
     inkscape:showpageshadow="2"
     inkscape:pageopacity="0.0"
     inkscape:pagecheckerboard="0"
     inkscape:deskcolor="#d1d1d1"
     inkscape:zoom="2.2382872"
     inkscape:cx="151.90186"
     inkscape:cy="169.3259"
     inkscape:window-width="1920"
     inkscape:window-height="944"
     inkscape:window-x="0"
     inkscape:window-y="32"
     inkscape:window-maximized="1"
     inkscape:current-layer="svg1" /><inkscape:clipboard
     style="font-variation-settings:normal;opacity:1;vector-effect:none;fill:#000000;fill-opacity:1;stroke-width:3.77952756;stroke-linecap:butt;stroke-linejoin:miter;stroke-miterlimit:4;stroke-dasharray:none;stroke-dashoffset:0;stroke-opacity:1;-inkscape-stroke:none;stop-color:#000000;stop-opacity:1"
     min="912.40842,1768.5963"
     max="2365.305,2684.9586"
     geom-min="913.77834,1769.9664"
     geom-max="2363.9349,2683.5886" /><polygon
     points="67.726776,117.05 22.808925,117.05 0.35,78.15 22.808925,39.25 67.726776,39.25 90.185702,78.15 "
     style="fill:#5500d4;fill-opacity:1;stroke:none;stroke-width:0.7;stroke-linecap:round"
     id="hexfill_1_1-6-7"
     transform="matrix(-1.3794344,0,0,-1.3797512,316.88587,322.99969)" /><polygon
     points="67.726776,194.85 22.808925,194.85 0.35,155.95 22.808925,117.05 67.726776,117.05 90.185702,155.95 "
     style="fill:#0000ff;fill-opacity:1;stroke:none;stroke-width:0.7;stroke-linecap:round"
     id="polygon1696-5-9"
     transform="matrix(-1.3794344,0,0,-1.3797512,316.88587,322.99969)" /><polygon
     points="135.10355,233.75 90.185702,233.75 67.726776,194.85 90.185702,155.95 135.10355,155.95 157.56248,194.85 "
     style="font-variation-settings:normal;vector-effect:none;fill:#0066ff;fill-opacity:1;stroke:none;stroke-width:0.7;stroke-linecap:round;stroke-linejoin:miter;stroke-miterlimit:4;stroke-dasharray:none;stroke-dashoffset:0;stroke-opacity:1;-inkscape-stroke:none;stop-color:#000000"
     id="polygon1700-9-2"
     transform="matrix(-1.3794344,0,0,-1.3797512,316.88587,322.99969)" /><polygon
     points="202.48033,194.85 157.56248,194.85 135.10355,155.95 157.56248,117.05 202.48033,117.05 224.93926,155.95 "
     style="font-variation-settings:normal;vector-effect:none;fill:#44aa00;fill-opacity:1;stroke:none;stroke-width:0.7;stroke-linecap:round;stroke-linejoin:miter;stroke-miterlimit:4;stroke-dasharray:none;stroke-dashoffset:0;stroke-opacity:1;-inkscape-stroke:none;stop-color:#000000"
     id="polygon1701-8-5"
     transform="matrix(-1.3794344,0,0,-1.3797512,316.88587,322.99969)" /><polygon
     points="202.48033,117.05 157.56248,117.05 135.10355,78.15 157.56248,39.25 202.48033,39.25 224.93926,78.15 "
     style="font-variation-settings:normal;vector-effect:none;fill:#ffcc00;fill-opacity:1;stroke:none;stroke-width:0.7;stroke-linecap:round;stroke-linejoin:miter;stroke-miterlimit:4;stroke-dasharray:none;stroke-dashoffset:0;stroke-opacity:1;-inkscape-stroke:none;stop-color:#000000"
     id="hexfill_3_1-4-12"
     transform="matrix(-1.3794344,0,0,-1.3797512,316.88587,322.99969)" /><polygon
     points="135.10355,78.15 90.185702,78.15 67.726776,39.25 90.185702,0.35 135.10355,0.35 157.56248,39.25 "
     style="font-variation-settings:normal;vector-effect:none;fill:#ff6600;fill-opacity:1;stroke:none;stroke-width:0.7;stroke-linecap:round;stroke-linejoin:miter;stroke-miterlimit:4;stroke-dasharray:none;stroke-dashoffset:0;stroke-opacity:1;-inkscape-stroke:none;stop-color:#000000"
     id="polygon1698-6-3"
     transform="matrix(-1.3794344,0,0,-1.3797512,316.88587,322.99969)" /><polygon
     points="135.10355,155.95 90.185702,155.95 67.726776,117.05 90.185702,78.15 135.10355,78.15 157.56248,117.05 "
     style="font-variation-settings:normal;vector-effect:none;fill:#d40000;fill-opacity:1;stroke:none;stroke-width:0.7;stroke-linecap:round;stroke-linejoin:miter;stroke-miterlimit:4;stroke-dasharray:none;stroke-dashoffset:0;stroke-opacity:1;-inkscape-stroke:none;stop-color:#000000"
     id="polygon1699-3-6"
     transform="matrix(-1.3794344,0,0,-1.3797512,316.88587,322.99969)" /><path
     d="m 142.4275,187.71364 q -0.96,0 -1.92,-0.16 -0.96,-0.16 -1.824,-0.544 -0.864,-0.416 -1.6,-1.056 -0.704,-0.672 -1.184,-1.504 -0.448,-0.864 -0.64,-1.792 -0.16,-0.96 -0.16,-1.92 v -3.2 q 0,-0.96 0.192,-1.888 0.192,-0.96 0.64,-1.792 0.448,-0.864 1.152,-1.504 0.736,-0.672 1.6,-1.056 0.864,-0.416 1.824,-0.576 0.96,-0.16 1.92,-0.16 0.96,0 1.92,0.16 0.96,0.16 1.824,0.576 0.864,0.384 1.568,1.056 0.736,0.64 1.184,1.504 0.448,0.832 0.64,1.792 0.192,0.928 0.192,1.888 v 3.296 h -10.56 q 0,0.672 0.192,1.344 0.192,0.64 0.64,1.152 0.448,0.512 1.088,0.736 0.64,0.224 1.312,0.224 0.512,0 1.024,-0.064 0.512,-0.064 0.96,-0.256 0.48,-0.224 0.832,-0.608 0.352,-0.416 0.352,-0.928 h 4.096 q 0,0.832 -0.32,1.632 -0.288,0.8 -0.832,1.44 -0.544,0.64 -1.28,1.088 -0.736,0.416 -1.536,0.672 -0.8,0.256 -1.632,0.352 -0.832,0.096 -1.664,0.096 z m -3.232,-10.272 h 6.464 q 0,-0.672 -0.192,-1.312 -0.192,-0.672 -0.64,-1.184 -0.448,-0.512 -1.088,-0.736 -0.64,-0.224 -1.312,-0.224 -0.672,0 -1.312,0.224 -0.64,0.224 -1.088,0.736 -0.448,0.512 -0.64,1.184 -0.192,0.64 -0.192,1.312 z m 25.50401,10.016 -3.872,-6.08 -1.44,1.76 v 4.32 h -4.224 v -23.52 h 4.224 v 13.696 l 5.12,-6.816 h 4.928 l -6.24,7.648 6.24,8.992 z m 14.30401,0.256 q -0.672,0 -1.376,-0.096 -0.704,-0.096 -1.344,-0.352 -0.64,-0.256 -1.184,-0.704 -0.544,-0.448 -0.928,-1.024 -0.352,-0.608 -0.512,-1.28 -0.16,-0.672 -0.16,-1.376 0,-0.928 0.288,-1.824 0.288,-0.896 0.896,-1.568 0.64,-0.704 1.472,-1.152 0.832,-0.448 1.696,-0.704 0.896,-0.288 1.824,-0.352 0.928,-0.096 1.856,-0.096 h 2.272 v -0.64 q 0,-0.544 -0.224,-1.088 -0.224,-0.544 -0.672,-0.864 -0.448,-0.352 -1.024,-0.48 -0.544,-0.128 -1.088,-0.128 -0.48,0 -0.992,0.064 -0.48,0.064 -0.928,0.288 -0.448,0.192 -0.768,0.608 -0.32,0.384 -0.32,0.864 v 0.032 h -4.096 v -0.096 q 0,-0.832 0.288,-1.6 0.288,-0.8 0.8,-1.408 0.544,-0.64 1.248,-1.056 0.736,-0.448 1.504,-0.672 0.8,-0.256 1.6,-0.352 0.832,-0.096 1.664,-0.096 0.864,0 1.728,0.128 0.896,0.096 1.728,0.416 0.832,0.32 1.536,0.864 0.704,0.512 1.184,1.248 0.512,0.736 0.704,1.6 0.224,0.864 0.224,1.728 v 10.912 h -4.096 v -2.432 q -0.352,0.64 -0.864,1.184 -0.48,0.544 -1.12,0.896 -0.64,0.32 -1.376,0.448 -0.704,0.16 -1.44,0.16 z m 1.664,-3.424 q 0.608,0 1.216,-0.16 0.608,-0.16 1.056,-0.544 0.448,-0.416 0.64,-0.992 0.224,-0.576 0.224,-1.184 v -0.8 h -2.272 q -0.384,0 -0.8,0.032 -0.384,0 -0.8,0.064 -0.384,0.064 -0.768,0.192 -0.384,0.096 -0.736,0.288 -0.352,0.192 -0.608,0.544 -0.224,0.32 -0.224,0.736 0,0.48 0.32,0.896 0.352,0.416 0.8,0.608 0.448,0.192 0.96,0.256 0.512,0.064 0.992,0.064 z"
     id="text6"
     style="font-weight:800;font-size:32px;line-height:1.25;font-family:'Iosevka Sezimal QP';-inkscape-font-specification:'Iosevka Sezimal QP, Ultra-Bold';text-align:center;letter-spacing:0px;word-spacing:0px;text-anchor:middle;fill:#ffffff;filter:url(#filter6)"
     aria-label="eka" /><path
     d="m 142.4275,187.71364 q -0.96,0 -1.92,-0.16 -0.96,-0.16 -1.824,-0.544 -0.864,-0.416 -1.6,-1.056 -0.704,-0.672 -1.184,-1.504 -0.448,-0.864 -0.64,-1.792 -0.16,-0.96 -0.16,-1.92 v -3.2 q 0,-0.96 0.192,-1.888 0.192,-0.96 0.64,-1.792 0.448,-0.864 1.152,-1.504 0.736,-0.672 1.6,-1.056 0.864,-0.416 1.824,-0.576 0.96,-0.16 1.92,-0.16 0.96,0 1.92,0.16 0.96,0.16 1.824,0.576 0.864,0.384 1.568,1.056 0.736,0.64 1.184,1.504 0.448,0.832 0.64,1.792 0.192,0.928 0.192,1.888 v 3.296 h -10.56 q 0,0.672 0.192,1.344 0.192,0.64 0.64,1.152 0.448,0.512 1.088,0.736 0.64,0.224 1.312,0.224 0.512,0 1.024,-0.064 0.512,-0.064 0.96,-0.256 0.48,-0.224 0.832,-0.608 0.352,-0.416 0.352,-0.928 h 4.096 q 0,0.832 -0.32,1.632 -0.288,0.8 -0.832,1.44 -0.544,0.64 -1.28,1.088 -0.736,0.416 -1.536,0.672 -0.8,0.256 -1.632,0.352 -0.832,0.096 -1.664,0.096 z m -3.232,-10.272 h 6.464 q 0,-0.672 -0.192,-1.312 -0.192,-0.672 -0.64,-1.184 -0.448,-0.512 -1.088,-0.736 -0.64,-0.224 -1.312,-0.224 -0.672,0 -1.312,0.224 -0.64,0.224 -1.088,0.736 -0.448,0.512 -0.64,1.184 -0.192,0.64 -0.192,1.312 z m 25.50401,10.016 -3.872,-6.08 -1.44,1.76 v 4.32 h -4.224 v -23.52 h 4.224 v 13.696 l 5.12,-6.816 h 4.928 l -6.24,7.648 6.24,8.992 z m 14.30401,0.256 q -0.672,0 -1.376,-0.096 -0.704,-0.096 -1.344,-0.352 -0.64,-0.256 -1.184,-0.704 -0.544,-0.448 -0.928,-1.024 -0.352,-0.608 -0.512,-1.28 -0.16,-0.672 -0.16,-1.376 0,-0.928 0.288,-1.824 0.288,-0.896 0.896,-1.568 0.64,-0.704 1.472,-1.152 0.832,-0.448 1.696,-0.704 0.896,-0.288 1.824,-0.352 0.928,-0.096 1.856,-0.096 h 2.272 v -0.64 q 0,-0.544 -0.224,-1.088 -0.224,-0.544 -0.672,-0.864 -0.448,-0.352 -1.024,-0.48 -0.544,-0.128 -1.088,-0.128 -0.48,0 -0.992,0.064 -0.48,0.064 -0.928,0.288 -0.448,0.192 -0.768,0.608 -0.32,0.384 -0.32,0.864 v 0.032 h -4.096 v -0.096 q 0,-0.832 0.288,-1.6 0.288,-0.8 0.8,-1.408 0.544,-0.64 1.248,-1.056 0.736,-0.448 1.504,-0.672 0.8,-0.256 1.6,-0.352 0.832,-0.096 1.664,-0.096 0.864,0 1.728,0.128 0.896,0.096 1.728,0.416 0.832,0.32 1.536,0.864 0.704,0.512 1.184,1.248 0.512,0.736 0.704,1.6 0.224,0.864 0.224,1.728 v 10.912 h -4.096 v -2.432 q -0.352,0.64 -0.864,1.184 -0.48,0.544 -1.12,0.896 -0.64,0.32 -1.376,0.448 -0.704,0.16 -1.44,0.16 z m 1.664,-3.424 q 0.608,0 1.216,-0.16 0.608,-0.16 1.056,-0.544 0.448,-0.416 0.64,-0.992 0.224,-0.576 0.224,-1.184 v -0.8 h -2.272 q -0.384,0 -0.8,0.032 -0.384,0 -0.8,0.064 -0.384,0.064 -0.768,0.192 -0.384,0.096 -0.736,0.288 -0.352,0.192 -0.608,0.544 -0.224,0.32 -0.224,0.736 0,0.48 0.32,0.896 0.352,0.416 0.8,0.608 0.448,0.192 0.96,0.256 0.512,0.064 0.992,0.064 z"
     id="text5"
     style="font-weight:800;font-size:32px;line-height:1.25;font-family:'Iosevka Sezimal QP';-inkscape-font-specification:'Iosevka Sezimal QP, Ultra-Bold';text-align:center;letter-spacing:0px;word-spacing:0px;text-anchor:middle;fill:#ffffff"
     aria-label="eka" /><path
     d="m 160.32694,157.3941 v -13.47512 l -1.59416,3.88011 -3.15823,-1.05274 4.75239,-11.45987 h 4.39144 v 22.10762 z"
     id="path15"
     style="font-weight:900;font-size:30.0784px;line-height:1;font-family:'Iosevka Sezimal QP';-inkscape-font-specification:'Iosevka Sezimal QP, Heavy';text-align:center;text-decoration-color:#d40000;text-anchor:middle;fill:#ffffff;stroke-width:4.18823;stroke-linecap:round;stroke-miterlimit:2.6;filter:url(#filter73)" /><path
     d="M 244.15502,103.84209 V 90.366964 l -1.59415,3.880113 -3.15824,-1.052744 4.75239,-11.45987 h 4.39145 v 22.107627 z m 19.34042,0.24062 q -0.90235,0 -1.8047,-0.15039 -0.90235,-0.12031 -1.74455,-0.48125 -0.81212,-0.39102 -1.50392,-1.02267 -0.66172,-0.63164 -1.1129,-1.41368 -0.4211,-0.78204 -0.60157,-1.684393 -0.18047,-0.902352 -0.18047,-1.804704 v -9.474696 q 0,-0.902352 0.18047,-1.804704 0.18047,-0.902352 0.60157,-1.68439 0.45118,-0.782039 1.1129,-1.413685 0.6918,-0.631647 1.50392,-0.992587 0.8422,-0.39102 1.74455,-0.511333 0.90235,-0.150392 1.8047,-0.150392 0.90235,0 1.80471,0.150392 0.90235,0.120313 1.71447,0.511333 0.84219,0.36094 1.50392,0.992587 0.6918,0.631646 1.1129,1.413685 0.45117,0.782038 0.63164,1.68439 0.18047,0.902352 0.18047,1.804704 v 9.474696 q 0,0.902352 -0.18047,1.804704 -0.18047,0.902353 -0.63164,1.684393 -0.4211,0.78204 -1.1129,1.41368 -0.66173,0.63165 -1.50392,1.02267 -0.81212,0.36094 -1.71447,0.48125 -0.90236,0.15039 -1.80471,0.15039 z m 2.55667,-11.249317 v -4.782466 q 0,-0.541411 -0.12032,-1.082822 -0.12031,-0.57149 -0.48125,-0.992588 -0.33086,-0.451176 -0.87227,-0.661724 -0.54142,-0.210549 -1.08283,-0.210549 -0.54141,0 -1.08282,0.210549 -0.54141,0.210548 -0.90235,0.661724 -0.33086,0.421098 -0.45118,0.992588 -0.12031,0.541411 -0.12031,1.082822 v 1.383606 z m -2.55667,7.639917 q 0.54141,0 1.08283,-0.21055 0.54141,-0.21055 0.87227,-0.631649 0.36094,-0.451176 0.48125,-0.992587 0.12032,-0.57149 0.12032,-1.112901 v -1.383607 l -5.11333,-3.398859 v 4.782466 q 0,0.541411 0.12031,1.112901 0.12032,0.541411 0.45118,0.992587 0.36094,0.421099 0.90235,0.631649 0.54141,0.21055 1.08282,0.21055 z"
     id="path27"
     style="font-weight:900;font-size:30.0784px;line-height:1;font-family:'Iosevka Sezimal QP';-inkscape-font-specification:'Iosevka Sezimal QP, Heavy';text-align:center;text-decoration-color:#d40000;text-anchor:middle;fill:#ffffff;stroke-width:4.18823;stroke-linecap:round;stroke-miterlimit:2.6;filter:url(#filter71)" /><path
     d="m 66.572957,211.42738 q -0.872274,0 -1.744548,-0.12031 -0.872273,-0.12032 -1.68439,-0.4211 -0.782038,-0.33086 -1.50392,-0.8422 -0.691803,-0.54141 -1.203136,-1.26329 -0.481254,-0.72188 -0.721882,-1.56408 -0.240627,-0.84219 -0.240627,-1.71447 v -0.18047 h 4.391447 v 0.0902 q 0,0.51133 0.18047,0.99259 0.210549,0.48125 0.601568,0.81211 0.391019,0.33087 0.902352,0.48126 0.511333,0.12031 1.022666,0.12031 0.541411,0 1.052744,-0.15039 0.541411,-0.18047 0.93243,-0.57149 0.391019,-0.39102 0.571489,-0.90235 0.180471,-0.54141 0.180471,-1.1129 0,-0.51134 -0.150392,-0.99259 -0.150392,-0.48125 -0.451176,-0.90235 -0.270706,-0.4211 -0.691803,-0.72188 -0.391019,-0.33087 -0.872274,-0.51134 -0.481254,-0.18047 -0.992587,-0.21055 -0.511333,-0.0301 -1.022666,-0.0301 v -3.60941 q 0.691804,0 1.383607,-0.12032 0.691803,-0.15039 1.203136,-0.57148 0.541411,-0.45118 0.812116,-1.11291 0.300784,-0.66172 0.300784,-1.35352 0,-0.45118 -0.150392,-0.93243 -0.120313,-0.48126 -0.421097,-0.8422 -0.300784,-0.36094 -0.75196,-0.54141 -0.451176,-0.18047 -0.93243,-0.18047 -0.451176,0 -0.902352,0.18047 -0.451176,0.15039 -0.75196,0.51133 -0.300784,0.33086 -0.451176,0.78204 -0.120314,0.45118 -0.120314,0.93243 v 0.0902 h -4.391446 v -0.24063 q 0,-0.81212 0.210548,-1.62423 0.210549,-0.8422 0.631647,-1.534 0.451176,-0.72188 1.082822,-1.2633 0.661725,-0.54141 1.413685,-0.87227 0.782038,-0.33086 1.594155,-0.45118 0.842195,-0.12031 1.684391,-0.12031 0.842195,0 1.68439,0.15039 0.842195,0.12032 1.594155,0.48126 0.782038,0.33086 1.413685,0.90235 0.661725,0.57149 1.082822,1.29337 0.421098,0.72188 0.631647,1.56408 0.210548,0.81211 0.210548,1.65431 0,0.75196 -0.18047,1.50392 -0.18047,0.72188 -0.57149,1.38361 -0.36094,0.63164 -0.93243,1.17305 -0.541411,0.54141 -1.203136,0.90236 0.75196,0.36094 1.383606,0.90235 0.661725,0.54141 1.082823,1.26329 0.451176,0.6918 0.661725,1.50392 0.240627,0.81212 0.240627,1.65431 0,0.87228 -0.240627,1.74455 -0.240628,0.87227 -0.721882,1.62423 -0.451176,0.75196 -1.142979,1.35353 -0.691803,0.57149 -1.50392,0.93243 -0.812117,0.33086 -1.714469,0.45118 -0.872273,0.15039 -1.774625,0.15039 z"
     id="path21"
     style="font-weight:900;font-size:30.0784px;line-height:1;font-family:'Iosevka Sezimal QP';-inkscape-font-specification:'Iosevka Sezimal QP, Heavy';text-align:center;text-decoration-color:#d40000;text-anchor:middle;fill:#907300;stroke-width:4.18823;stroke-linecap:round;stroke-miterlimit:2.6;filter:url(#filter68)" /><path
     d="m 53.368539,241.50578 q -0.842195,0 -1.68439,-0.21055 -0.812117,-0.21055 -1.50392,-0.6918 -0.661725,-0.51134 -1.173058,-1.20314 -0.481254,-0.72188 -0.782038,-1.50392 -0.270706,-0.81212 -0.360941,-1.62423 -0.09023,-0.8422 -0.09023,-1.71447 v -5.32388 h -2.556664 v -3.60941 h 2.556664 v -6.46685 h 4.361368 v 6.46685 h 5.203563 v 3.60941 H 52.13533 v 5.32388 q 0,0.33086 0,0.66172 0.03008,0.30079 0.06016,0.63165 0.06016,0.33086 0.120314,0.63165 0.06016,0.30078 0.18047,0.60156 0.120314,0.30079 0.330863,0.57149 0.240627,0.24063 0.541411,0.24063 0.391019,0 0.631646,-0.30078 0.270706,-0.30079 0.39102,-0.66173 0.120313,-0.36094 0.150392,-0.72188 0.06016,-0.39102 0.06016,-0.75196 v -0.0602 H 58.9932 v 0.12032 q 0,0.78204 -0.150392,1.534 -0.150392,0.75196 -0.481255,1.47384 -0.330862,0.6918 -0.842195,1.29337 -0.511333,0.60157 -1.173057,0.99259 -0.661725,0.36094 -1.443764,0.51133 -0.75196,0.18047 -1.533998,0.18047 z m 9.534863,-0.24063 v -3.60941 h 2.195724 v -8.42195 h -2.195724 v -3.60941 h 6.557092 v 2.85745 q 0.300784,-0.66172 0.691803,-1.23321 0.421097,-0.60157 0.962509,-1.02267 0.571489,-0.45117 1.263292,-0.63164 0.691804,-0.21055 1.413685,-0.21055 0.601568,0 1.173058,0.24062 0.571489,0.21055 0.962508,0.66173 0.421098,0.45117 0.661725,1.02266 0.270706,0.54142 0.391019,1.14298 0.120314,0.60157 0.150392,1.20314 0.06016,0.60157 0.06016,1.20314 h -4.361368 q 0,-0.30079 -0.06016,-0.60157 -0.03008,-0.33086 -0.150392,-0.60157 -0.120314,-0.30078 -0.39102,-0.48125 -0.240627,-0.18048 -0.571489,-0.18048 -0.421098,0 -0.812117,0.21055 -0.360941,0.18047 -0.631646,0.54141 -0.240628,0.33087 -0.39102,0.75196 -0.120313,0.39102 -0.210548,0.81212 -0.09024,0.39102 -0.120314,0.81212 -0.03008,0.4211 -0.03008,0.84219 v 4.69223 h 2.646899 v 3.60941 z m 24.243201,0.24063 q -0.691803,0 -1.353528,-0.15039 -0.661725,-0.12032 -1.263293,-0.45118 -0.571489,-0.36094 -1.022665,-0.87227 -0.421098,-0.54141 -0.691803,-1.17306 -0.270706,-0.63165 -0.39102,-1.29337 -0.09024,-0.66173 -0.09024,-1.35353 v -6.97819 h -1.834782 v -3.60941 h 6.226229 v 10.5876 q 0,0.15039 0,0.33086 0,0.1504 0,0.33087 0.03008,0.15039 0.06016,0.30078 0.03008,0.15039 0.09024,0.30078 0.06016,0.1504 0.150392,0.30079 0.120313,0.12031 0.300784,0.12031 0.240627,0 0.391019,-0.18047 0.150392,-0.21055 0.210549,-0.4211 0.09024,-0.24062 0.120313,-0.48125 0.03008,-0.24063 0.06016,-0.48126 l 3.789878,0.93243 q -0.09023,0.90236 -0.481254,1.71447 -0.360941,0.81212 -1.022666,1.41369 -0.631646,0.60157 -1.50392,0.87227 -0.872273,0.24063 -1.744547,0.24063 z m -2.616821,-17.6861 q -0.541411,0 -1.082822,-0.15039 -0.541411,-0.18047 -0.93243,-0.54141 -0.360941,-0.39102 -0.541411,-0.93243 -0.150392,-0.54141 -0.150392,-1.08283 0,-0.54141 0.150392,-1.08282 0.18047,-0.54141 0.541411,-0.90235 0.391019,-0.39102 0.93243,-0.54141 0.541411,-0.18047 1.082822,-0.18047 0.541412,0 1.082823,0.18047 0.541411,0.15039 0.902352,0.54141 0.391019,0.36094 0.541411,0.90235 0.18047,0.54141 0.18047,1.08282 0,0.54142 -0.18047,1.08283 -0.150392,0.54141 -0.541411,0.93243 -0.360941,0.36094 -0.902352,0.54141 -0.541411,0.15039 -1.082823,0.15039 z"
     id="path22"
     style="font-weight:900;font-size:30.0784px;line-height:1;font-family:'Iosevka Sezimal QP';-inkscape-font-specification:'Iosevka Sezimal QP, Heavy';text-align:center;text-decoration-color:#d40000;text-anchor:middle;fill:#907300;stroke-width:4.18823;stroke-linecap:round;stroke-miterlimit:2.6;filter:url(#filter68)" /><path
     d="M 68.152098,103.72179 V 98.488145 H 61.474693 V 81.614163 h 4.391447 v 13.264574 h 2.285958 v -9.053598 h 4.391447 v 9.053598 h 2.346115 v 3.609408 h -2.346115 v 5.233645 z"
     id="path19"
     style="font-weight:900;font-size:30.0784px;line-height:1;font-family:'Iosevka Sezimal QP';-inkscape-font-specification:'Iosevka Sezimal QP, Heavy';text-align:center;text-decoration-color:#d40000;text-anchor:middle;fill:#ffffff;stroke-width:4.18823;stroke-linecap:round;stroke-miterlimit:2.6;filter:url(#filter69)" /><path
     d="m 153.07802,264.85907 v -3.60941 l 6.85787,-7.76023 q 0.4211,-0.48125 0.8422,-0.9625 0.4211,-0.48126 0.75196,-1.02267 0.33086,-0.54141 0.51133,-1.14298 0.18047,-0.63165 0.18047,-1.26329 0,-0.54141 -0.12031,-1.08282 -0.0902,-0.54142 -0.4211,-0.99259 -0.30078,-0.45118 -0.81212,-0.66173 -0.51133,-0.24062 -1.05274,-0.24062 -0.48125,0 -0.96251,0.15039 -0.45117,0.15039 -0.81212,0.51133 -0.33086,0.33086 -0.48125,0.81212 -0.15039,0.45117 -0.15039,0.93243 v 0.0902 h -4.39145 v -0.21054 q 0,-0.8422 0.21055,-1.65432 0.24063,-0.84219 0.6918,-1.534 0.45118,-0.72188 1.1129,-1.26329 0.69181,-0.54141 1.47385,-0.87227 0.78203,-0.33086 1.62423,-0.45118 0.84219,-0.12031 1.68439,-0.12031 0.90235,0 1.77463,0.15039 0.90235,0.15039 1.71446,0.54141 0.81212,0.39102 1.47385,1.02267 0.66172,0.60157 1.08282,1.41368 0.4211,0.78204 0.57149,1.68439 0.18047,0.87228 0.18047,1.77463 0,0.96251 -0.24063,1.89494 -0.24063,0.93243 -0.72188,1.77462 -0.48125,0.8422 -1.1129,1.59416 -0.60157,0.72188 -1.23322,1.41368 l -0.0601,0.0902 h -0.0301 l -4.75239,5.38403 h 8.03093 v 3.60941 z"
     id="path23"
     style="font-weight:900;font-size:30.0784px;line-height:1;font-family:'Iosevka Sezimal QP';-inkscape-font-specification:'Iosevka Sezimal QP, Heavy';text-align:center;text-decoration-color:#d40000;text-anchor:middle;fill:#ffffff;stroke-width:4.18823;stroke-linecap:round;stroke-miterlimit:2.6;filter:url(#filter67)" /><path
     d="m 151.84481,295.1781 q -0.78204,0 -1.56408,-0.21055 -0.75196,-0.21055 -1.35353,-0.69181 -0.60156,-0.51133 -1.02266,-1.17305 -0.4211,-0.66173 -0.66173,-1.41369 -0.24062,-0.75196 -0.33086,-1.50392 -0.0902,-0.78204 -0.0902,-1.56407 v -3.00784 q 0,-0.78204 0.0902,-1.534 0.0902,-0.78204 0.33086,-1.534 0.24063,-0.75196 0.66173,-1.41369 0.4211,-0.66172 1.02266,-1.14298 0.60157,-0.51133 1.35353,-0.72188 0.78204,-0.21055 1.56408,-0.21055 0.66172,0 1.32345,0.1504 0.66172,0.15039 1.20314,0.51133 0.57148,0.36094 0.99258,0.87227 0.45118,0.51134 0.72188,1.1129 v -8.87312 h 4.39145 v 22.10762 h -4.39145 v -2.40627 q -0.2707,0.60157 -0.72188,1.1129 -0.4211,0.51133 -0.99258,0.87227 -0.54142,0.36094 -1.20314,0.51133 -0.66173,0.1504 -1.32345,0.1504 z m 1.8047,-3.60941 q 0.54141,0 1.05275,-0.21055 0.51133,-0.24063 0.84219,-0.66172 0.33087,-0.45118 0.4211,-0.99259 0.12031,-0.54141 0.12031,-1.08282 v -3.00784 q 0,-0.54142 -0.12031,-1.08283 -0.0902,-0.54141 -0.4211,-0.96251 -0.33086,-0.45117 -0.84219,-0.66172 -0.51134,-0.24063 -1.05275,-0.24063 -0.54141,0 -1.05274,0.24063 -0.51133,0.21055 -0.8422,0.66172 -0.33086,0.4211 -0.45117,0.96251 -0.0902,0.54141 -0.0902,1.08283 v 3.00784 q 0,0.54141 0.0902,1.08282 0.12031,0.54141 0.45117,0.99259 0.33087,0.42109 0.8422,0.66172 0.51133,0.21055 1.05274,0.21055 z m 17.77635,3.60941 q -0.6918,0 -1.35353,-0.1504 -0.66172,-0.12031 -1.26329,-0.45117 -0.57149,-0.36094 -1.02267,-0.87227 -0.4211,-0.54142 -0.6918,-1.17306 -0.27071,-0.63165 -0.39102,-1.29337 -0.0902,-0.66173 -0.0902,-1.35353 v -6.97819 h -1.83478 v -3.60941 h 6.22623 v 10.5876 q 0,0.15039 0,0.33086 0,0.15039 0,0.33086 0.0301,0.1504 0.0602,0.30079 0.0301,0.15039 0.0902,0.30078 0.0602,0.15039 0.15039,0.30079 0.12032,0.12031 0.30079,0.12031 0.24063,0 0.39102,-0.18047 0.15039,-0.21055 0.21055,-0.4211 0.0902,-0.24063 0.12031,-0.48125 0.0301,-0.24063 0.0602,-0.48126 l 3.78988,0.93243 q -0.0902,0.90235 -0.48126,1.71447 -0.36094,0.81212 -1.02266,1.41369 -0.63165,0.60156 -1.50392,0.87227 -0.87228,0.24063 -1.74455,0.24063 z m -2.61682,-17.6861 q -0.54141,0 -1.08282,-0.15039 -0.54142,-0.18047 -0.93243,-0.54142 -0.36095,-0.39101 -0.54142,-0.93243 -0.15039,-0.54141 -0.15039,-1.08282 0,-0.54141 0.15039,-1.08282 0.18047,-0.54141 0.54142,-0.90235 0.39101,-0.39102 0.93243,-0.54141 0.54141,-0.18047 1.08282,-0.18047 0.54141,0 1.08282,0.18047 0.54141,0.15039 0.90235,0.54141 0.39102,0.36094 0.54141,0.90235 0.18047,0.54141 0.18047,1.08282 0,0.54141 -0.18047,1.08282 -0.15039,0.54142 -0.54141,0.93243 -0.36094,0.36095 -0.90235,0.54142 -0.54141,0.15039 -1.08282,0.15039 z"
     id="path24"
     style="font-weight:900;font-size:30.0784px;line-height:1;font-family:'Iosevka Sezimal QP';-inkscape-font-specification:'Iosevka Sezimal QP, Heavy';text-align:center;text-decoration-color:#d40000;text-anchor:middle;fill:#ffffff;stroke-width:4.18823;stroke-linecap:round;stroke-miterlimit:2.6;filter:url(#filter67)" /><path
     d="m 161.59021,47.176994 q -0.84219,0 -1.65431,-0.120313 -0.81211,-0.120314 -1.59415,-0.421098 -0.75196,-0.300784 -1.41369,-0.812117 -0.66172,-0.511333 -1.14298,-1.173057 -0.48125,-0.691804 -0.75196,-1.473842 -0.24062,-0.812117 -0.30078,-1.624234 h 4.42152 q 0.0602,0.421098 0.24063,0.842196 0.21055,0.391019 0.54141,0.661724 0.33086,0.270706 0.75196,0.39102 0.45118,0.120313 0.90235,0.120313 0.4211,0 0.81212,-0.150392 0.39102,-0.150392 0.6918,-0.421097 0.30079,-0.300784 0.48126,-0.661725 0.21055,-0.391019 0.30078,-0.782039 0.12032,-0.421097 0.15039,-0.842195 0.0301,-0.421097 0.0301,-0.842195 v -0.03008 q 0,-0.391019 -0.0301,-0.812117 -0.0301,-0.421098 -0.15039,-0.812117 -0.0902,-0.391019 -0.2707,-0.75196 -0.1504,-0.391019 -0.45118,-0.691803 -0.2707,-0.300784 -0.66172,-0.451176 -0.36094,-0.18047 -0.78204,-0.18047 -0.36094,0 -0.75196,0.06016 -0.36094,0.06016 -0.69181,0.240628 -0.33086,0.150392 -0.57148,0.481254 -0.24063,0.300784 -0.24063,0.691803 h -4.39145 v -12.78332 h 12.48254 v 3.609408 h -8.09109 v 4.33129 q 0.54141,-0.120314 1.1129,-0.150392 0.57149,-0.06016 1.14298,-0.06016 0.93243,0 1.86486,0.18047 0.93243,0.180471 1.74455,0.661725 0.84219,0.451176 1.44376,1.173058 0.63165,0.721881 0.99259,1.594155 0.39102,0.872274 0.54141,1.804704 0.15039,0.93243 0.15039,1.894939 0,0.932431 -0.15039,1.894939 -0.15039,0.932431 -0.54141,1.804704 -0.39102,0.872274 -1.05275,1.594155 -0.63164,0.721882 -1.47384,1.203136 -0.81212,0.451176 -1.77463,0.631647 -0.93243,0.18047 -1.86486,0.180471 z"
     id="path17"
     style="font-weight:900;font-size:30.0784px;line-height:1;font-family:'Iosevka Sezimal QP';-inkscape-font-specification:'Iosevka Sezimal QP, Heavy';text-align:center;text-decoration-color:#d40000;text-anchor:middle;fill:#ffffff;stroke-width:4.18823;stroke-linecap:round;stroke-miterlimit:2.6;filter:url(#filter70)" /><path
     d="M 136.74544,83.481623 V 61.373999 h 4.39145 v 2.406272 q 0.27071,-0.601568 0.6918,-1.112901 0.45118,-0.511333 0.99259,-0.872274 0.57149,-0.36094 1.23322,-0.511332 0.66172,-0.150392 1.32345,-0.150392 0.78203,0 1.53399,0.210548 0.78204,0.210549 1.38361,0.721882 0.60157,0.481254 1.02267,1.142979 0.42109,0.661725 0.66172,1.413685 0.24063,0.75196 0.33086,1.533998 0.0902,0.75196 0.0902,1.533999 v 3.00784 q 0,0.782038 -0.0902,1.564077 -0.0902,0.75196 -0.33086,1.50392 -0.24063,0.75196 -0.66172,1.413684 -0.4211,0.661725 -1.02267,1.173058 -0.60157,0.481254 -1.38361,0.691803 -0.75196,0.210549 -1.53399,0.210549 -0.66173,0 -1.32345,-0.150392 -0.66173,-0.150392 -1.23322,-0.511333 -0.54141,-0.360941 -0.99259,-0.872273 -0.42109,-0.511333 -0.6918,-1.112901 v 8.873128 z m 6.8278,-9.835637 q 0.54141,0 1.05275,-0.210549 0.51133,-0.240627 0.84219,-0.661725 0.33086,-0.451176 0.4211,-0.992587 0.12031,-0.541411 0.12031,-1.082822 v -3.00784 q 0,-0.541411 -0.12031,-1.082823 -0.0902,-0.541411 -0.4211,-0.962508 -0.33086,-0.451176 -0.84219,-0.661725 -0.51134,-0.240627 -1.05275,-0.240627 -0.54141,0 -1.05274,0.240627 -0.51134,0.210549 -0.8422,0.661725 -0.33086,0.421097 -0.45117,0.962508 -0.0902,0.541412 -0.0902,1.082823 v 3.00784 q 0,0.541411 0.0902,1.082822 0.12031,0.541411 0.45117,0.992587 0.33086,0.421098 0.8422,0.661725 0.51133,0.210549 1.05274,0.210549 z m 16.12203,3.609408 q -0.63164,0 -1.29337,-0.09023 -0.63164,-0.09024 -1.23321,-0.330863 -0.60157,-0.240627 -1.1129,-0.661724 -0.51133,-0.421098 -0.87228,-0.962509 -0.33086,-0.541411 -0.48125,-1.173058 -0.15039,-0.661725 -0.15039,-1.293371 0,-0.902352 0.2707,-1.744547 0.27071,-0.872274 0.8422,-1.50392 0.60157,-0.661725 1.38361,-1.082823 0.78203,-0.451176 1.62423,-0.691803 0.87227,-0.240627 1.74455,-0.330862 0.87227,-0.09024 1.74454,-0.09024 h 1.98518 v -0.451176 q 0,-0.511333 -0.18047,-0.992588 -0.18047,-0.481254 -0.60157,-0.812116 -0.39102,-0.330863 -0.90235,-0.451176 -0.48126,-0.120314 -0.99259,-0.120314 -0.45118,0 -0.90235,0.06016 -0.4211,0.06016 -0.8422,0.270705 -0.39102,0.180471 -0.66172,0.541412 -0.27071,0.36094 -0.27071,0.812116 v 0.03008 h -4.06058 v -0.120314 q 0,-0.782038 0.2707,-1.533998 0.27071,-0.75196 0.75196,-1.32345 0.51134,-0.601568 1.17306,-1.022665 0.6918,-0.421098 1.44376,-0.631647 0.75196,-0.240627 1.534,-0.330862 0.78204,-0.09023 1.56408,-0.09023 0.8422,0 1.65431,0.120313 0.8422,0.09023 1.62424,0.391019 0.78203,0.300784 1.44376,0.812117 0.6918,0.511333 1.14298,1.233215 0.48125,0.691803 0.66172,1.50392 0.21055,0.812116 0.21055,1.654312 v 10.166499 h -4.06058 v -2.225802 q -0.30079,0.601568 -0.78204,1.082823 -0.48126,0.481254 -1.08282,0.812116 -0.57149,0.330863 -1.23322,0.451176 -0.66172,0.120314 -1.35353,0.120314 z m 1.65432,-3.338702 q 0.54141,0 1.08282,-0.120314 0.54141,-0.150392 0.93243,-0.511333 0.4211,-0.360941 0.60157,-0.872273 0.18047,-0.541412 0.18047,-1.082823 v -0.691803 h -1.98518 q -0.36094,0 -0.72188,0.03008 -0.36094,0 -0.72188,0.06016 -0.36094,0.06016 -0.72188,0.180471 -0.33086,0.09024 -0.66173,0.270705 -0.30078,0.150392 -0.51133,0.481255 -0.21055,0.300784 -0.21055,0.661724 0,0.451176 0.30079,0.812117 0.30078,0.330863 0.6918,0.511333 0.4211,0.150392 0.87227,0.210549 0.45118,0.06016 0.87228,0.06016 z m 11.48996,3.098075 V 61.373999 h 4.39144 v 2.376193 q 0.27071,-0.571489 0.69181,-1.082822 0.42109,-0.511333 0.9625,-0.872274 0.54142,-0.36094 1.17306,-0.511332 0.66173,-0.150392 1.29337,-0.150392 0.78204,0 1.534,0.240627 0.75196,0.210549 1.35353,0.721881 0.60157,0.481255 0.99259,1.14298 0.39102,0.661724 0.63164,1.413684 0.24063,0.721882 0.30079,1.50392 0.0902,0.75196 0.0902,1.533999 v 9.324304 h -4.39144 v -9.324304 q 0,-0.541411 -0.12032,-1.052744 -0.0902,-0.541411 -0.39102,-0.962509 -0.2707,-0.451176 -0.78204,-0.691803 -0.48125,-0.240627 -1.02266,-0.240627 -0.54141,0 -1.05275,0.240627 -0.48125,0.240627 -0.78203,0.691803 -0.27071,0.421098 -0.39102,0.962509 -0.0902,0.511333 -0.0902,1.052744 v 9.324304 z"
     id="path18"
     style="font-weight:900;font-size:30.0784px;line-height:1;font-family:'Iosevka Sezimal QP';-inkscape-font-specification:'Iosevka Sezimal QP, Heavy';text-align:center;text-decoration-color:#d40000;text-anchor:middle;fill:#ffffff;stroke-width:4.18823;stroke-linecap:round;stroke-miterlimit:2.6;filter:url(#filter70)" /><path
     d="m 234.65023,211.18675 v -13.47512 l -1.59415,3.88011 -3.15823,-1.05274 4.75238,-11.45987 h 4.39145 v 22.10762 z m 19.34043,0.24063 q -0.90236,0 -1.80471,-0.15039 -0.90235,-0.12032 -1.74455,-0.48126 -0.81211,-0.39102 -1.50392,-1.02266 -0.66172,-0.63165 -1.1129,-1.41369 -0.42109,-0.78204 -0.60156,-1.68439 -0.18048,-0.90235 -0.18048,-1.8047 v -9.4747 q 0,-0.90235 0.18048,-1.8047 0.18047,-0.90235 0.60156,-1.68439 0.45118,-0.78204 1.1129,-1.41369 0.69181,-0.63164 1.50392,-0.99258 0.8422,-0.39102 1.74455,-0.51134 0.90235,-0.15039 1.80471,-0.15039 0.90235,0 1.8047,0.15039 0.90235,0.12032 1.71447,0.51134 0.84219,0.36094 1.50392,0.99258 0.6918,0.63165 1.1129,1.41369 0.45117,0.78204 0.63165,1.68439 0.18047,0.90235 0.18047,1.8047 v 9.4747 q 0,0.90235 -0.18047,1.8047 -0.18048,0.90235 -0.63165,1.68439 -0.4211,0.78204 -1.1129,1.41369 -0.66173,0.63164 -1.50392,1.02266 -0.81212,0.36094 -1.71447,0.48126 -0.90235,0.15039 -1.8047,0.15039 z m 2.55666,-11.24932 v -4.78247 q 0,-0.54141 -0.12031,-1.08282 -0.12032,-0.57149 -0.48126,-0.99259 -0.33086,-0.45117 -0.87227,-0.66172 -0.54141,-0.21055 -1.08282,-0.21055 -0.54142,0 -1.08283,0.21055 -0.54141,0.21055 -0.90235,0.66172 -0.33086,0.4211 -0.45118,0.99259 -0.12031,0.54141 -0.12031,1.08282 v 1.38361 z m -2.55666,7.63991 q 0.54141,0 1.08282,-0.21055 0.54141,-0.21055 0.87227,-0.63164 0.36094,-0.45118 0.48126,-0.99259 0.12031,-0.57149 0.12031,-1.1129 v -1.38361 l -5.11333,-3.39886 v 4.78247 q 0,0.54141 0.12031,1.1129 0.12032,0.54141 0.45118,0.99259 0.36094,0.42109 0.90235,0.63164 0.54141,0.21055 1.08283,0.21055 z m 18.04705,3.60941 q -0.90236,0 -1.80471,-0.15039 -0.90235,-0.12032 -1.74455,-0.48126 -0.81211,-0.39102 -1.50392,-1.02266 -0.66172,-0.63165 -1.1129,-1.41369 -0.42109,-0.78204 -0.60156,-1.68439 -0.18047,-0.90235 -0.18047,-1.8047 v -9.4747 q 0,-0.90235 0.18047,-1.8047 0.18047,-0.90235 0.60156,-1.68439 0.45118,-0.78204 1.1129,-1.41369 0.69181,-0.63164 1.50392,-0.99258 0.8422,-0.39102 1.74455,-0.51134 0.90235,-0.15039 1.80471,-0.15039 0.90235,0 1.8047,0.15039 0.90235,0.12032 1.71447,0.51134 0.84219,0.36094 1.50392,0.99258 0.6918,0.63165 1.1129,1.41369 0.45118,0.78204 0.63165,1.68439 0.18047,0.90235 0.18047,1.8047 v 9.4747 q 0,0.90235 -0.18047,1.8047 -0.18047,0.90235 -0.63165,1.68439 -0.4211,0.78204 -1.1129,1.41369 -0.66173,0.63164 -1.50392,1.02266 -0.81212,0.36094 -1.71447,0.48126 -0.90235,0.15039 -1.8047,0.15039 z m 2.55666,-11.24932 v -4.78247 q 0,-0.54141 -0.12031,-1.08282 -0.12032,-0.57149 -0.48126,-0.99259 -0.33086,-0.45117 -0.87227,-0.66172 -0.54141,-0.21055 -1.08282,-0.21055 -0.54142,0 -1.08283,0.21055 -0.54141,0.21055 -0.90235,0.66172 -0.33086,0.4211 -0.45117,0.99259 -0.12032,0.54141 -0.12032,1.08282 v 1.38361 z m -2.55666,7.63991 q 0.54141,0 1.08282,-0.21055 0.54141,-0.21055 0.87227,-0.63164 0.36094,-0.45118 0.48126,-0.99259 0.12031,-0.57149 0.12031,-1.1129 v -1.38361 l -5.11333,-3.39886 v 4.78247 q 0,0.54141 0.12032,1.1129 0.12031,0.54141 0.45117,0.99259 0.36094,0.42109 0.90235,0.63164 0.54141,0.21055 1.08283,0.21055 z"
     id="path25"
     style="font-weight:900;font-size:30.0784px;line-height:1;font-family:'Iosevka Sezimal QP';-inkscape-font-specification:'Iosevka Sezimal QP, Heavy';text-align:center;text-decoration-color:#d40000;text-anchor:middle;fill:#ffffff;stroke-width:4.18823;stroke-linecap:round;stroke-miterlimit:2.6;filter:url(#filter72)" /><path
     d="m 241.2675,241.26515 v -15.64077 h 4.39144 v 2.3762 q 0.27071,-0.57149 0.69181,-1.08282 0.4211,-0.51134 0.96251,-0.87228 0.54141,-0.36094 1.17305,-0.51133 0.66173,-0.15039 1.29338,-0.15039 0.78203,0 1.53399,0.24062 0.75196,0.21055 1.35353,0.72189 0.60157,0.48125 0.99259,1.14297 0.39102,0.66173 0.63165,1.41369 0.24062,0.72188 0.30078,1.50392 0.0902,0.75196 0.0902,1.534 v 9.3243 h -4.39144 v -9.3243 q 0,-0.54141 -0.12032,-1.05275 -0.0902,-0.54141 -0.39101,-0.9625 -0.27071,-0.45118 -0.78204,-0.69181 -0.48126,-0.24063 -1.02267,-0.24063 -0.54141,0 -1.05274,0.24063 -0.48126,0.24063 -0.78204,0.69181 -0.27071,0.42109 -0.39102,0.9625 -0.0902,0.51134 -0.0902,1.05275 v 9.3243 z m 24.36351,0.24063 q -0.6918,0 -1.35353,-0.15039 -0.66172,-0.12032 -1.26329,-0.45118 -0.57149,-0.36094 -1.02266,-0.87227 -0.4211,-0.54141 -0.69181,-1.17306 -0.2707,-0.63165 -0.39102,-1.29337 -0.0902,-0.66173 -0.0902,-1.35353 v -6.97819 h -1.83478 v -3.60941 h 6.22623 v 10.5876 q 0,0.15039 0,0.33086 0,0.1504 0,0.33087 0.0301,0.15039 0.0601,0.30078 0.0301,0.15039 0.0902,0.30078 0.0601,0.1504 0.15039,0.30079 0.12031,0.12031 0.30078,0.12031 0.24063,0 0.39102,-0.18047 0.15039,-0.21055 0.21055,-0.4211 0.0902,-0.24062 0.12031,-0.48125 0.0301,-0.24063 0.0602,-0.48126 l 3.78988,0.93243 q -0.0902,0.90236 -0.48125,1.71447 -0.36095,0.81212 -1.02267,1.41369 -0.63165,0.60157 -1.50392,0.87227 -0.87227,0.24063 -1.74455,0.24063 z m -2.61682,-17.6861 q -0.54141,0 -1.08282,-0.15039 -0.54141,-0.18047 -0.93243,-0.54141 -0.36094,-0.39102 -0.54141,-0.93243 -0.15039,-0.54141 -0.15039,-1.08283 0,-0.54141 0.15039,-1.08282 0.18047,-0.54141 0.54141,-0.90235 0.39102,-0.39102 0.93243,-0.54141 0.54141,-0.18047 1.08282,-0.18047 0.54141,0 1.08282,0.18047 0.54142,0.15039 0.90236,0.54141 0.39102,0.36094 0.54141,0.90235 0.18047,0.54141 0.18047,1.08282 0,0.54142 -0.18047,1.08283 -0.15039,0.54141 -0.54141,0.93243 -0.36094,0.36094 -0.90236,0.54141 -0.54141,0.15039 -1.08282,0.15039 z"
     id="path26"
     style="font-weight:900;font-size:30.0784px;line-height:1;font-family:'Iosevka Sezimal QP';-inkscape-font-specification:'Iosevka Sezimal QP, Heavy';text-align:center;text-decoration-color:#d40000;text-anchor:middle;fill:#ffffff;stroke-width:4.18823;stroke-linecap:round;stroke-miterlimit:2.6;filter:url(#filter72)" /><path
     d="m 160.32645,157.39436 v -13.47512 l -1.59416,3.88011 -3.15823,-1.05274 4.75239,-11.45987 h 4.39144 v 22.10762 z"
     id="path7"
     style="font-weight:900;font-size:30.0784px;line-height:1;font-family:'Iosevka Sezimal QP';-inkscape-font-specification:'Iosevka Sezimal QP, Heavy';text-align:center;text-decoration-color:#d40000;text-anchor:middle;fill:#ffffff;stroke-width:4.18823;stroke-linecap:round;stroke-miterlimit:2.6" /><path
     d="M 244.15453,103.84234 V 90.367219 l -1.59415,3.880113 -3.15824,-1.052744 4.75239,-11.45987 h 4.39145 v 22.107622 z m 19.34042,0.24063 q -0.90235,0 -1.8047,-0.15039 -0.90235,-0.12032 -1.74455,-0.48126 -0.81212,-0.39101 -1.50392,-1.02267 -0.66172,-0.63164 -1.1129,-1.41368 -0.4211,-0.78204 -0.60157,-1.684388 -0.18047,-0.902352 -0.18047,-1.804704 v -9.474696 q 0,-0.902352 0.18047,-1.804704 0.18047,-0.902352 0.60157,-1.68439 0.45118,-0.782039 1.1129,-1.413685 0.6918,-0.631647 1.50392,-0.992587 0.8422,-0.39102 1.74455,-0.511333 0.90235,-0.150392 1.8047,-0.150392 0.90235,0 1.80471,0.150392 0.90235,0.120313 1.71447,0.511333 0.84219,0.36094 1.50392,0.992587 0.6918,0.631646 1.1129,1.413685 0.45117,0.782038 0.63164,1.68439 0.18047,0.902352 0.18047,1.804704 v 9.474696 q 0,0.902352 -0.18047,1.804704 -0.18047,0.902348 -0.63164,1.684388 -0.4211,0.78204 -1.1129,1.41368 -0.66173,0.63165 -1.50392,1.02267 -0.81212,0.36094 -1.71447,0.48126 -0.90236,0.15039 -1.80471,0.15039 z m 2.55667,-11.249322 v -4.782466 q 0,-0.541411 -0.12032,-1.082822 -0.12031,-0.57149 -0.48125,-0.992588 -0.33086,-0.451176 -0.87227,-0.661724 -0.54142,-0.210549 -1.08283,-0.210549 -0.54141,0 -1.08282,0.210549 -0.54141,0.210548 -0.90235,0.661724 -0.33086,0.421098 -0.45118,0.992588 -0.12031,0.541411 -0.12031,1.082822 v 1.383606 z m -2.55667,7.639912 q 0.54141,0 1.08283,-0.21055 0.54141,-0.21055 0.87227,-0.631644 0.36094,-0.451176 0.48125,-0.992587 0.12032,-0.57149 0.12032,-1.112901 v -1.383607 l -5.11333,-3.398859 v 4.782466 q 0,0.541411 0.12031,1.112901 0.12032,0.541411 0.45118,0.992587 0.36094,0.421094 0.90235,0.631644 0.54141,0.21055 1.08282,0.21055 z"
     id="path9"
     style="font-weight:900;font-size:30.0784px;line-height:1;font-family:'Iosevka Sezimal QP';-inkscape-font-specification:'Iosevka Sezimal QP, Heavy';text-align:center;text-decoration-color:#d40000;text-anchor:middle;fill:#ffffff;stroke-width:4.18823;stroke-linecap:round;stroke-miterlimit:2.6" /><path
     d="m 66.572468,211.42763 q -0.872274,0 -1.744548,-0.1203 -0.872273,-0.12032 -1.68439,-0.4211 -0.782038,-0.33086 -1.50392,-0.8422 -0.691803,-0.54141 -1.203136,-1.26329 -0.481254,-0.72188 -0.721882,-1.56408 -0.240627,-0.84219 -0.240627,-1.71447 v -0.18048 h 4.391447 v 0.0902 q 0,0.51132 0.18047,0.99259 0.210549,0.48125 0.601568,0.81211 0.391019,0.33087 0.902352,0.48125 0.511333,0.12031 1.022666,0.12031 0.541411,0 1.052744,-0.15039 0.541411,-0.18047 0.93243,-0.57149 0.391019,-0.39102 0.571489,-0.90235 0.180471,-0.54141 0.180471,-1.1129 0,-0.51134 -0.150392,-0.99259 -0.150392,-0.48125 -0.451176,-0.90235 -0.270706,-0.4211 -0.691803,-0.72188 -0.391019,-0.33087 -0.872274,-0.51134 -0.481254,-0.18047 -0.992587,-0.21055 -0.511333,-0.0301 -1.022666,-0.0301 v -3.60941 q 0.691804,0 1.383607,-0.12032 0.691803,-0.15039 1.203136,-0.57148 0.541411,-0.45118 0.812116,-1.11291 0.300784,-0.66172 0.300784,-1.35352 0,-0.45118 -0.150392,-0.93243 -0.120313,-0.48126 -0.421097,-0.8422 -0.300784,-0.36094 -0.75196,-0.54141 -0.451176,-0.18047 -0.93243,-0.18047 -0.451176,0 -0.902352,0.18047 -0.451176,0.15039 -0.75196,0.51133 -0.300784,0.33086 -0.451176,0.78204 -0.120314,0.45118 -0.120314,0.93243 v 0.0902 H 59.95522 v -0.24063 q 0,-0.81212 0.210548,-1.62423 0.210549,-0.8422 0.631647,-1.534 0.451176,-0.72188 1.082822,-1.2633 0.661725,-0.54141 1.413685,-0.87227 0.782038,-0.33086 1.594155,-0.45118 0.842195,-0.12031 1.684391,-0.12031 0.842195,0 1.68439,0.15039 0.842195,0.12032 1.594155,0.48126 0.782038,0.33086 1.413685,0.90235 0.661725,0.57149 1.082822,1.29337 0.421098,0.72188 0.631647,1.56408 0.210548,0.81211 0.210548,1.65431 0,0.75196 -0.18047,1.50392 -0.18047,0.72188 -0.57149,1.38361 -0.36094,0.63164 -0.93243,1.17305 -0.541411,0.54141 -1.203136,0.90236 0.75196,0.36094 1.383606,0.90235 0.661725,0.54141 1.082823,1.26329 0.451176,0.6918 0.661725,1.50392 0.240627,0.81212 0.240627,1.65431 0,0.87228 -0.240627,1.74455 -0.240628,0.87227 -0.721882,1.62423 -0.451176,0.75196 -1.142979,1.35353 -0.691803,0.5715 -1.50392,0.93244 -0.812117,0.33086 -1.714469,0.45118 -0.872273,0.15038 -1.774625,0.15038 z"
     id="path5"
     style="font-weight:900;font-size:30.0784px;line-height:1;font-family:'Iosevka Sezimal QP';-inkscape-font-specification:'Iosevka Sezimal QP, Heavy';text-align:center;text-decoration-color:#d40000;text-anchor:middle;fill:#ffffff;stroke-width:4.18823;stroke-linecap:round;stroke-miterlimit:2.6" /><path
     d="m 53.36805,241.50603 q -0.842195,0 -1.68439,-0.21055 -0.812117,-0.21055 -1.50392,-0.6918 -0.661725,-0.51134 -1.173058,-1.20314 -0.481254,-0.72188 -0.782038,-1.50392 -0.270706,-0.81212 -0.360941,-1.62423 -0.09023,-0.8422 -0.09023,-1.71447 v -5.32388 h -2.556664 v -3.60941 h 2.556664 v -6.46685 h 4.361368 v 6.46685 h 5.203563 v 3.60941 h -5.203563 v 5.32388 q 0,0.33086 0,0.66172 0.03008,0.30079 0.06016,0.63165 0.06016,0.33086 0.120314,0.63165 0.06016,0.30078 0.18047,0.60156 0.120314,0.3008 0.330863,0.5715 0.240627,0.24063 0.541411,0.24063 0.391019,0 0.631646,-0.30078 0.270706,-0.30079 0.39102,-0.66173 0.120313,-0.36094 0.150392,-0.72188 0.06016,-0.39102 0.06016,-0.75196 v -0.0602 h 4.391434 v 0.12031 q 0,0.78204 -0.150392,1.534 -0.150392,0.75196 -0.481255,1.47384 -0.330862,0.6918 -0.842195,1.29337 -0.511333,0.60158 -1.173057,0.99259 -0.661725,0.36094 -1.443764,0.51133 -0.75196,0.18048 -1.533998,0.18048 z m 9.534863,-0.24063 v -3.60941 h 2.195724 v -8.42195 h -2.195724 v -3.60941 h 6.557092 v 2.85745 q 0.300784,-0.66172 0.691803,-1.23321 0.421097,-0.60157 0.962509,-1.02267 0.571489,-0.45117 1.263292,-0.63164 0.691804,-0.21055 1.413685,-0.21055 0.601568,0 1.173058,0.24062 0.571489,0.21055 0.962508,0.66173 0.421098,0.45117 0.661725,1.02266 0.270706,0.54142 0.391019,1.14298 0.120314,0.60157 0.150392,1.20314 0.06016,0.60157 0.06016,1.20314 h -4.361368 q 0,-0.30079 -0.06016,-0.60157 -0.03008,-0.33086 -0.150392,-0.60157 -0.120314,-0.30078 -0.39102,-0.48125 -0.240627,-0.18048 -0.571489,-0.18048 -0.421098,0 -0.812117,0.21055 -0.360941,0.18047 -0.631646,0.54141 -0.240628,0.33087 -0.39102,0.75196 -0.120313,0.39102 -0.210548,0.81212 -0.09024,0.39102 -0.120314,0.81212 -0.03008,0.4211 -0.03008,0.84219 v 4.69223 h 2.646899 v 3.60941 z m 24.243201,0.24063 q -0.691803,0 -1.353528,-0.15039 -0.661725,-0.12031 -1.263293,-0.45117 -0.571489,-0.36094 -1.022665,-0.87227 -0.421098,-0.54141 -0.691803,-1.17306 -0.270706,-0.63165 -0.39102,-1.29337 -0.09024,-0.66173 -0.09024,-1.35353 v -6.9782 h -1.834782 v -3.60941 h 6.226229 v 10.58761 q 0,0.15038 0,0.33086 0,0.1504 0,0.33087 0.03008,0.15039 0.06016,0.30078 0.03008,0.15039 0.09024,0.30078 0.06016,0.1504 0.150392,0.30079 0.120313,0.12031 0.300784,0.12031 0.240627,0 0.391019,-0.18047 0.150392,-0.21056 0.210549,-0.4211 0.09024,-0.24063 0.120313,-0.48125 0.03008,-0.24063 0.06016,-0.48126 l 3.789878,0.93243 q -0.09023,0.90236 -0.481254,1.71447 -0.360941,0.81212 -1.022666,1.41369 -0.631646,0.60157 -1.50392,0.87227 -0.872273,0.24063 -1.744547,0.24063 z m -2.616821,-17.6861 q -0.541411,0 -1.082822,-0.15039 -0.541411,-0.18047 -0.93243,-0.54141 -0.360941,-0.39102 -0.541411,-0.93243 -0.150392,-0.54141 -0.150392,-1.08283 0,-0.54141 0.150392,-1.08282 0.18047,-0.54141 0.541411,-0.90235 0.391019,-0.39102 0.93243,-0.54141 0.541411,-0.18047 1.082822,-0.18047 0.541412,0 1.082823,0.18047 0.541411,0.15039 0.902352,0.54141 0.391019,0.36094 0.541411,0.90235 0.18047,0.54141 0.18047,1.08282 0,0.54142 -0.18047,1.08283 -0.150392,0.54141 -0.541411,0.93243 -0.360941,0.36094 -0.902352,0.54141 -0.541411,0.15039 -1.082823,0.15039 z"
     id="path6"
     style="font-weight:900;font-size:30.0784px;line-height:1;font-family:'Iosevka Sezimal QP';-inkscape-font-specification:'Iosevka Sezimal QP, Heavy';text-align:center;text-decoration-color:#d40000;text-anchor:middle;fill:#ffffff;stroke-width:4.18823;stroke-linecap:round;stroke-miterlimit:2.6" /><path
     d="M 68.151609,103.72204 V 98.4884 H 61.474204 V 81.614418 h 4.391447 v 13.264574 h 2.285958 v -9.053598 h 4.391447 v 9.053598 h 2.346115 V 98.4884 h -2.346115 v 5.23364 z"
     id="path3"
     style="font-weight:900;font-size:30.0784px;line-height:1;font-family:'Iosevka Sezimal QP';-inkscape-font-specification:'Iosevka Sezimal QP, Heavy';text-align:center;text-decoration-color:#d40000;text-anchor:middle;fill:#ffffff;stroke-width:4.18823;stroke-linecap:round;stroke-miterlimit:2.6" /><path
     d="m 153.07753,264.85932 v -3.60941 l 6.85787,-7.76023 q 0.4211,-0.48125 0.8422,-0.9625 0.4211,-0.48126 0.75196,-1.02267 0.33086,-0.54141 0.51133,-1.14298 0.18047,-0.63165 0.18047,-1.26329 0,-0.54141 -0.12031,-1.08282 -0.0902,-0.54142 -0.4211,-0.99259 -0.30078,-0.45118 -0.81212,-0.66173 -0.51133,-0.24062 -1.05274,-0.24062 -0.48125,0 -0.96251,0.15039 -0.45117,0.15039 -0.81212,0.51133 -0.33086,0.33086 -0.48125,0.81212 -0.15039,0.45117 -0.15039,0.93243 v 0.0902 h -4.39145 v -0.21054 q 0,-0.8422 0.21055,-1.65432 0.24063,-0.84219 0.6918,-1.534 0.45118,-0.72188 1.1129,-1.26329 0.69181,-0.54141 1.47385,-0.87227 0.78203,-0.33086 1.62423,-0.45118 0.84219,-0.12031 1.68439,-0.12031 0.90235,0 1.77463,0.15039 0.90235,0.15039 1.71446,0.54141 0.81212,0.39102 1.47385,1.02267 0.66172,0.60157 1.08282,1.41368 0.4211,0.78204 0.57149,1.68439 0.18047,0.87228 0.18047,1.77463 0,0.96251 -0.24063,1.89494 -0.24063,0.93243 -0.72188,1.77462 -0.48125,0.8422 -1.1129,1.59416 -0.60157,0.72188 -1.23322,1.41368 l -0.0601,0.0902 h -0.0301 l -4.75239,5.38403 h 8.03093 v 3.60941 z"
     id="path13"
     style="font-weight:900;font-size:30.0784px;line-height:1;font-family:'Iosevka Sezimal QP';-inkscape-font-specification:'Iosevka Sezimal QP, Heavy';text-align:center;text-decoration-color:#d40000;text-anchor:middle;fill:#ffffff;stroke-width:4.18823;stroke-linecap:round;stroke-miterlimit:2.6" /><path
     d="m 151.84432,295.17835 q -0.78204,0 -1.56408,-0.21055 -0.75196,-0.21055 -1.35353,-0.69181 -0.60156,-0.51133 -1.02266,-1.17305 -0.4211,-0.66173 -0.66173,-1.41369 -0.24062,-0.75196 -0.33086,-1.50392 -0.0902,-0.78203 -0.0902,-1.56407 v -3.00784 q 0,-0.78204 0.0902,-1.53399 0.0902,-0.78204 0.33086,-1.534 0.24063,-0.75196 0.66173,-1.41369 0.4211,-0.66172 1.02266,-1.14298 0.60157,-0.51133 1.35353,-0.72188 0.78204,-0.21055 1.56408,-0.21055 0.66172,0 1.32345,0.15039 0.66172,0.1504 1.20314,0.51133 0.57148,0.36095 0.99258,0.87227 0.45118,0.51135 0.72188,1.11291 v -8.87312 h 4.39145 v 22.10762 h -4.39145 v -2.40627 q -0.2707,0.60157 -0.72188,1.1129 -0.4211,0.51133 -0.99258,0.87227 -0.54142,0.36094 -1.20314,0.51133 -0.66173,0.1504 -1.32345,0.15039 z m 1.8047,-3.60941 q 0.54141,0 1.05275,-0.21055 0.51133,-0.24063 0.84219,-0.66172 0.33087,-0.45118 0.4211,-0.99259 0.12031,-0.54141 0.12031,-1.08282 v -3.00784 q 0,-0.54142 -0.12031,-1.08283 -0.0902,-0.54141 -0.4211,-0.96251 -0.33086,-0.45117 -0.84219,-0.66172 -0.51134,-0.24063 -1.05275,-0.24063 -0.54141,0 -1.05274,0.24063 -0.51133,0.21055 -0.8422,0.66172 -0.33086,0.4211 -0.45117,0.96251 -0.0902,0.54141 -0.0902,1.08283 v 3.00784 q 0,0.54141 0.0902,1.08282 0.12031,0.54141 0.45117,0.99259 0.33087,0.42109 0.8422,0.66172 0.51133,0.21055 1.05274,0.21055 z m 17.77635,3.60941 q -0.6918,0 -1.35353,-0.1504 -0.66172,-0.12031 -1.26329,-0.45117 -0.57149,-0.36094 -1.02267,-0.87227 -0.4211,-0.54142 -0.6918,-1.17306 -0.27071,-0.63165 -0.39102,-1.29337 -0.0902,-0.66173 -0.0902,-1.35353 v -6.97819 h -1.83478 v -3.60941 h 6.22623 v 10.5876 q 0,0.15039 0,0.33086 0,0.15039 0,0.33086 0.0301,0.1504 0.0602,0.30079 0.0301,0.15039 0.0902,0.30078 0.0602,0.15039 0.15039,0.30079 0.12032,0.12031 0.30079,0.12031 0.24063,0 0.39102,-0.18047 0.15039,-0.21055 0.21055,-0.4211 0.0902,-0.24063 0.12031,-0.48125 0.0301,-0.24063 0.0602,-0.48126 l 3.78988,0.93243 q -0.0902,0.90235 -0.48126,1.71447 -0.36094,0.81212 -1.02266,1.41369 -0.63165,0.60156 -1.50392,0.87227 -0.87228,0.24063 -1.74455,0.24063 z m -2.61682,-17.6861 q -0.54141,0 -1.08282,-0.15039 -0.54142,-0.18047 -0.93243,-0.54142 -0.36095,-0.39101 -0.54142,-0.93243 -0.15039,-0.54141 -0.15039,-1.08282 0,-0.54141 0.15039,-1.08282 0.18047,-0.54141 0.54142,-0.90235 0.39101,-0.39102 0.93243,-0.54141 0.54141,-0.18047 1.08282,-0.18047 0.54141,0 1.08282,0.18047 0.54141,0.15039 0.90235,0.54141 0.39102,0.36094 0.54141,0.90235 0.18047,0.54141 0.18047,1.08282 0,0.54141 -0.18047,1.08282 -0.15039,0.54142 -0.54141,0.93243 -0.36094,0.36095 -0.90235,0.54142 -0.54141,0.15039 -1.08282,0.15039 z"
     id="path14"
     style="font-weight:900;font-size:30.0784px;line-height:1;font-family:'Iosevka Sezimal QP';-inkscape-font-specification:'Iosevka Sezimal QP, Heavy';text-align:center;text-decoration-color:#d40000;text-anchor:middle;fill:#ffffff;stroke-width:4.18823;stroke-linecap:round;stroke-miterlimit:2.6" /><path
     d="m 161.58972,47.177249 q -0.84219,0 -1.65431,-0.120313 -0.81211,-0.120314 -1.59415,-0.421098 -0.75196,-0.300784 -1.41369,-0.812117 -0.66172,-0.511333 -1.14298,-1.173057 -0.48125,-0.691804 -0.75196,-1.473842 -0.24062,-0.812117 -0.30078,-1.624234 h 4.42152 q 0.0602,0.421098 0.24063,0.842196 0.21055,0.391019 0.54141,0.661724 0.33086,0.270706 0.75196,0.39102 0.45118,0.120313 0.90235,0.120313 0.4211,0 0.81212,-0.150392 0.39102,-0.150392 0.6918,-0.421097 0.30079,-0.300784 0.48126,-0.661725 0.21055,-0.391019 0.30078,-0.782039 0.12032,-0.421097 0.15039,-0.842195 0.0301,-0.421097 0.0301,-0.842195 v -0.03008 q 0,-0.391019 -0.0301,-0.812117 -0.0301,-0.421098 -0.15039,-0.812117 -0.0902,-0.391019 -0.2707,-0.75196 -0.1504,-0.391019 -0.45118,-0.691803 -0.2707,-0.300784 -0.66172,-0.451176 -0.36094,-0.18047 -0.78204,-0.18047 -0.36094,0 -0.75196,0.06016 -0.36094,0.06016 -0.69181,0.240628 -0.33086,0.150392 -0.57148,0.481254 -0.24063,0.300784 -0.24063,0.691803 h -4.39145 V 24.829 h 12.48254 v 3.609408 h -8.09109 v 4.33129 q 0.54141,-0.120314 1.1129,-0.150392 0.57149,-0.06016 1.14298,-0.06016 0.93243,0 1.86486,0.18047 0.93243,0.180471 1.74455,0.661725 0.84219,0.451176 1.44376,1.173058 0.63165,0.721881 0.99259,1.594155 0.39102,0.872274 0.54141,1.804704 0.15039,0.93243 0.15039,1.894939 0,0.932431 -0.15039,1.894939 -0.15039,0.932431 -0.54141,1.804704 -0.39102,0.872274 -1.05275,1.594155 -0.63164,0.721882 -1.47384,1.203136 -0.81212,0.451176 -1.77463,0.631647 -0.93243,0.18047 -1.86486,0.180471 z"
     id="path1"
     style="font-weight:900;font-size:30.0784px;line-height:1;font-family:'Iosevka Sezimal QP';-inkscape-font-specification:'Iosevka Sezimal QP, Heavy';text-align:center;text-decoration-color:#d40000;text-anchor:middle;fill:#ffffff;stroke-width:4.18823;stroke-linecap:round;stroke-miterlimit:2.6" /><path
     d="M 136.74495,83.481878 V 61.374254 h 4.39145 v 2.406272 q 0.27071,-0.601568 0.6918,-1.112901 0.45118,-0.511333 0.99259,-0.872274 0.57149,-0.36094 1.23322,-0.511332 0.66172,-0.150392 1.32345,-0.150392 0.78203,0 1.53399,0.210548 0.78204,0.210549 1.38361,0.721882 0.60157,0.481254 1.02267,1.142979 0.42109,0.661725 0.66172,1.413685 0.24063,0.75196 0.33086,1.533998 0.0902,0.75196 0.0902,1.533999 v 3.00784 q 0,0.782038 -0.0902,1.564077 -0.0902,0.75196 -0.33086,1.50392 -0.24063,0.75196 -0.66172,1.413684 -0.4211,0.661725 -1.02267,1.173058 -0.60157,0.481254 -1.38361,0.691803 -0.75196,0.210549 -1.53399,0.210549 -0.66173,0 -1.32345,-0.150392 -0.66173,-0.150392 -1.23322,-0.511333 -0.54141,-0.360941 -0.99259,-0.872273 -0.42109,-0.511333 -0.6918,-1.112901 v 8.873128 z m 6.8278,-9.835637 q 0.54141,0 1.05275,-0.210549 0.51133,-0.240627 0.84219,-0.661725 0.33086,-0.451176 0.4211,-0.992587 0.12031,-0.541411 0.12031,-1.082822 v -3.00784 q 0,-0.541411 -0.12031,-1.082823 -0.0902,-0.541411 -0.4211,-0.962508 -0.33086,-0.451176 -0.84219,-0.661725 -0.51134,-0.240627 -1.05275,-0.240627 -0.54141,0 -1.05274,0.240627 -0.51134,0.210549 -0.8422,0.661725 -0.33086,0.421097 -0.45117,0.962508 -0.0902,0.541412 -0.0902,1.082823 v 3.00784 q 0,0.541411 0.0902,1.082822 0.12031,0.541411 0.45117,0.992587 0.33086,0.421098 0.8422,0.661725 0.51133,0.210549 1.05274,0.210549 z m 16.12203,3.609408 q -0.63164,0 -1.29337,-0.09023 -0.63164,-0.09024 -1.23321,-0.330863 -0.60157,-0.240627 -1.1129,-0.661724 -0.51133,-0.421098 -0.87228,-0.962509 -0.33086,-0.541411 -0.48125,-1.173058 -0.15039,-0.661725 -0.15039,-1.293371 0,-0.902352 0.2707,-1.744547 0.27071,-0.872274 0.8422,-1.50392 0.60157,-0.661725 1.38361,-1.082823 0.78203,-0.451176 1.62423,-0.691803 0.87227,-0.240627 1.74455,-0.330862 0.87227,-0.09024 1.74454,-0.09024 h 1.98518 v -0.451176 q 0,-0.511333 -0.18047,-0.992588 -0.18047,-0.481254 -0.60157,-0.812116 -0.39102,-0.330863 -0.90235,-0.451176 -0.48126,-0.120314 -0.99259,-0.120314 -0.45118,0 -0.90235,0.06016 -0.4211,0.06016 -0.8422,0.270705 -0.39102,0.180471 -0.66172,0.541412 -0.27071,0.36094 -0.27071,0.812116 v 0.03008 h -4.06058 v -0.120314 q 0,-0.782038 0.2707,-1.533998 0.27071,-0.75196 0.75196,-1.32345 0.51134,-0.601568 1.17306,-1.022665 0.6918,-0.421098 1.44376,-0.631647 0.75196,-0.240627 1.534,-0.330862 0.78204,-0.09023 1.56408,-0.09023 0.8422,0 1.65431,0.120313 0.8422,0.09023 1.62424,0.391019 0.78203,0.300784 1.44376,0.812117 0.6918,0.511333 1.14298,1.233215 0.48125,0.691803 0.66172,1.50392 0.21055,0.812116 0.21055,1.654312 v 10.166499 h -4.06058 v -2.225802 q -0.30079,0.601568 -0.78204,1.082823 -0.48126,0.481254 -1.08282,0.812116 -0.57149,0.330863 -1.23322,0.451176 -0.66172,0.120314 -1.35353,0.120314 z m 1.65432,-3.338702 q 0.54141,0 1.08282,-0.120314 0.54141,-0.150392 0.93243,-0.511333 0.4211,-0.360941 0.60157,-0.872273 0.18047,-0.541412 0.18047,-1.082823 v -0.691803 h -1.98518 q -0.36094,0 -0.72188,0.03008 -0.36094,0 -0.72188,0.06016 -0.36094,0.06016 -0.72188,0.180471 -0.33086,0.09024 -0.66173,0.270705 -0.30078,0.150392 -0.51133,0.481255 -0.21055,0.300784 -0.21055,0.661724 0,0.451176 0.30079,0.812117 0.30078,0.330863 0.6918,0.511333 0.4211,0.150392 0.87227,0.210549 0.45118,0.06016 0.87228,0.06016 z m 11.48996,3.098075 V 61.374254 h 4.39144 v 2.376193 q 0.27071,-0.571489 0.69181,-1.082822 0.42109,-0.511333 0.9625,-0.872274 0.54142,-0.36094 1.17306,-0.511332 0.66173,-0.150392 1.29337,-0.150392 0.78204,0 1.534,0.240627 0.75196,0.210549 1.35353,0.721881 0.60157,0.481255 0.99259,1.14298 0.39102,0.661724 0.63164,1.413684 0.24063,0.721882 0.30079,1.50392 0.0902,0.75196 0.0902,1.533999 v 9.324304 h -4.39144 v -9.324304 q 0,-0.541411 -0.12032,-1.052744 -0.0902,-0.541411 -0.39102,-0.962509 -0.2707,-0.451176 -0.78204,-0.691803 -0.48125,-0.240627 -1.02266,-0.240627 -0.54141,0 -1.05275,0.240627 -0.48125,0.240627 -0.78203,0.691803 -0.27071,0.421098 -0.39102,0.962509 -0.0902,0.511333 -0.0902,1.052744 v 9.324304 z"
     id="path2"
     style="font-weight:900;font-size:30.0784px;line-height:1;font-family:'Iosevka Sezimal QP';-inkscape-font-specification:'Iosevka Sezimal QP, Heavy';text-align:center;text-decoration-color:#d40000;text-anchor:middle;fill:#ffffff;stroke-width:4.18823;stroke-linecap:round;stroke-miterlimit:2.6" /><path
     d="m 234.64974,211.187 v -13.47512 l -1.59415,3.88011 -3.15823,-1.05274 4.75238,-11.45987 h 4.39145 V 211.187 Z m 19.34043,0.24063 q -0.90236,0 -1.80471,-0.15038 -0.90235,-0.12032 -1.74455,-0.48126 -0.81211,-0.39102 -1.50392,-1.02266 -0.66172,-0.63165 -1.1129,-1.41369 -0.42109,-0.78204 -0.60156,-1.68439 -0.18048,-0.90236 -0.18048,-1.8047 v -9.47471 q 0,-0.90235 0.18048,-1.8047 0.18047,-0.90235 0.60156,-1.68439 0.45118,-0.78204 1.1129,-1.41369 0.69181,-0.63164 1.50392,-0.99258 0.8422,-0.39102 1.74455,-0.51134 0.90235,-0.15038 1.80471,-0.15038 0.90235,0 1.8047,0.15038 0.90235,0.12032 1.71447,0.51134 0.84219,0.36094 1.50392,0.99258 0.6918,0.63165 1.1129,1.41369 0.45117,0.78204 0.63165,1.68439 0.18047,0.90236 0.18047,1.8047 v 9.47471 q 0,0.90235 -0.18047,1.8047 -0.18048,0.90235 -0.63165,1.68439 -0.4211,0.78204 -1.1129,1.41369 -0.66173,0.63164 -1.50392,1.02266 -0.81212,0.36094 -1.71447,0.48126 -0.90235,0.15038 -1.8047,0.15038 z m 2.55666,-11.24932 v -4.78247 q 0,-0.54141 -0.12031,-1.08282 -0.12032,-0.57149 -0.48126,-0.99259 -0.33086,-0.45116 -0.87227,-0.66172 -0.54141,-0.21055 -1.08282,-0.21055 -0.54142,0 -1.08283,0.21055 -0.54141,0.21056 -0.90235,0.66172 -0.33086,0.4211 -0.45118,0.99259 -0.12031,0.54142 -0.12031,1.08282 v 1.38362 z m -2.55666,7.63991 q 0.54141,0 1.08282,-0.21055 0.54141,-0.21055 0.87227,-0.63164 0.36094,-0.45118 0.48126,-0.99259 0.12031,-0.57149 0.12031,-1.1129 v -1.38361 l -5.11333,-3.39886 v 4.78247 q 0,0.54141 0.12031,1.1129 0.12032,0.54141 0.45118,0.99259 0.36094,0.42109 0.90235,0.63164 0.54141,0.21055 1.08283,0.21055 z m 18.04705,3.60941 q -0.90236,0 -1.80471,-0.15038 -0.90235,-0.12032 -1.74455,-0.48126 -0.81211,-0.39102 -1.50392,-1.02266 -0.66172,-0.63165 -1.1129,-1.41369 -0.42109,-0.78204 -0.60156,-1.68439 -0.18047,-0.90236 -0.18047,-1.8047 v -9.47471 q 0,-0.90235 0.18047,-1.8047 0.18047,-0.90235 0.60156,-1.68439 0.45118,-0.78204 1.1129,-1.41369 0.69181,-0.63164 1.50392,-0.99258 0.8422,-0.39102 1.74455,-0.51134 0.90235,-0.15038 1.80471,-0.15038 0.90235,0 1.8047,0.15038 0.90235,0.12032 1.71447,0.51134 0.84219,0.36094 1.50392,0.99258 0.6918,0.63165 1.1129,1.41369 0.45118,0.78204 0.63165,1.68439 0.18047,0.90236 0.18047,1.8047 v 9.47471 q 0,0.90235 -0.18047,1.8047 -0.18047,0.90235 -0.63165,1.68439 -0.4211,0.78204 -1.1129,1.41369 -0.66173,0.63164 -1.50392,1.02266 -0.81212,0.36094 -1.71447,0.48126 -0.90235,0.15038 -1.8047,0.15038 z m 2.55666,-11.24932 v -4.78247 q 0,-0.54141 -0.12031,-1.08282 -0.12032,-0.57149 -0.48126,-0.99259 -0.33086,-0.45116 -0.87227,-0.66172 -0.54141,-0.21055 -1.08282,-0.21055 -0.54142,0 -1.08283,0.21055 -0.54141,0.21056 -0.90235,0.66172 -0.33086,0.4211 -0.45117,0.99259 -0.12032,0.54142 -0.12032,1.08282 v 1.38362 z m -2.55666,7.63991 q 0.54141,0 1.08282,-0.21055 0.54141,-0.21055 0.87227,-0.63164 0.36094,-0.45118 0.48126,-0.99259 0.12031,-0.57149 0.12031,-1.1129 v -1.38361 l -5.11333,-3.39886 v 4.78247 q 0,0.54141 0.12032,1.1129 0.12031,0.54141 0.45117,0.99259 0.36094,0.42109 0.90235,0.63164 0.54141,0.21055 1.08283,0.21055 z"
     id="path11"
     style="font-weight:900;font-size:30.0784px;line-height:1;font-family:'Iosevka Sezimal QP';-inkscape-font-specification:'Iosevka Sezimal QP, Heavy';text-align:center;text-decoration-color:#d40000;text-anchor:middle;fill:#ffffff;stroke-width:4.18823;stroke-linecap:round;stroke-miterlimit:2.6" /><path
     d="m 241.26701,241.26541 v -15.64078 h 4.39144 v 2.37621 q 0.27071,-0.5715 0.69181,-1.08282 0.4211,-0.51134 0.96251,-0.87228 0.54141,-0.36094 1.17305,-0.51133 0.66173,-0.15039 1.29338,-0.15039 0.78203,0 1.53399,0.24062 0.75196,0.21055 1.35353,0.72189 0.60157,0.48125 0.99259,1.14297 0.39102,0.66173 0.63165,1.41369 0.24062,0.72188 0.30078,1.50392 0.0902,0.75196 0.0902,1.534 v 9.3243 h -4.39144 v -9.3243 q 0,-0.54141 -0.12032,-1.05275 -0.0902,-0.54141 -0.39101,-0.9625 -0.27071,-0.45118 -0.78204,-0.69181 -0.48126,-0.24063 -1.02267,-0.24063 -0.54141,0 -1.05274,0.24063 -0.48126,0.24063 -0.78204,0.69181 -0.27071,0.42109 -0.39102,0.9625 -0.0902,0.51134 -0.0902,1.05275 v 9.3243 z m 24.36351,0.24063 q -0.6918,0 -1.35353,-0.15039 -0.66172,-0.12032 -1.26329,-0.45118 -0.57149,-0.36094 -1.02266,-0.87227 -0.4211,-0.54141 -0.69181,-1.17306 -0.2707,-0.63165 -0.39102,-1.29337 -0.0902,-0.66173 -0.0902,-1.35353 v -6.97819 h -1.83478 v -3.60941 h 6.22623 v 10.5876 q 0,0.15039 0,0.33086 0,0.1504 0,0.33087 0.0301,0.15039 0.0601,0.30078 0.0301,0.15039 0.0902,0.30078 0.0601,0.1504 0.15039,0.30079 0.12031,0.12031 0.30078,0.12031 0.24063,0 0.39102,-0.18047 0.15039,-0.21055 0.21055,-0.4211 0.0902,-0.24062 0.12031,-0.48125 0.0301,-0.24063 0.0602,-0.48126 l 3.78988,0.93243 q -0.0902,0.90236 -0.48125,1.71447 -0.36095,0.81212 -1.02267,1.41369 -0.63165,0.60157 -1.50392,0.87227 -0.87227,0.24063 -1.74455,0.24063 z m -2.61682,-17.6861 q -0.54141,0 -1.08282,-0.15039 -0.54141,-0.18047 -0.93243,-0.54141 -0.36094,-0.39102 -0.54141,-0.93244 -0.15039,-0.54141 -0.15039,-1.08283 0,-0.54141 0.15039,-1.08282 0.18047,-0.54141 0.54141,-0.90235 0.39102,-0.39102 0.93243,-0.54141 0.54141,-0.18047 1.08282,-0.18047 0.54141,0 1.08282,0.18047 0.54142,0.15039 0.90236,0.54141 0.39102,0.36094 0.54141,0.90235 0.18047,0.54142 0.18047,1.08282 0,0.54142 -0.18047,1.08283 -0.15039,0.54142 -0.54141,0.93244 -0.36094,0.36094 -0.90236,0.54141 -0.54141,0.15039 -1.08282,0.15039 z"
     id="path12"
     style="font-weight:900;font-size:30.0784px;line-height:1;font-family:'Iosevka Sezimal QP';-inkscape-font-specification:'Iosevka Sezimal QP, Heavy';text-align:center;text-decoration-color:#d40000;text-anchor:middle;fill:#ffffff;stroke-width:4.18823;stroke-linecap:round;stroke-miterlimit:2.6" /><line
     x1="285.42242"
     y1="268.84445"
     x2="223.46124"
     y2="268.84445"
     style="stroke:#000000;stroke-width:0.965714;stroke-linecap:round;stroke-opacity:1"
     id="line1702-1-3" /><line
     x1="285.42242"
     y1="268.84445"
     x2="316.40305"
     y2="215.17213"
     style="stroke:#000000;stroke-width:0.965714;stroke-linecap:round;stroke-opacity:1"
     id="line1703-2-91" /><line
     x1="316.40305"
     y1="215.17213"
     x2="285.42242"
     y2="161.4998"
     style="stroke:#000000;stroke-width:0.965714;stroke-linecap:round;stroke-opacity:1"
     id="line1704-9-8" /><line
     x1="285.42242"
     y1="161.4998"
     x2="223.46124"
     y2="161.4998"
     style="stroke:#000000;stroke-width:0.965714;stroke-linecap:round;stroke-opacity:1"
     id="line1705-3-8" /><line
     x1="285.42242"
     y1="161.4998"
     x2="316.40305"
     y2="107.82748"
     style="stroke:#000000;stroke-width:0.965714;stroke-linecap:round;stroke-opacity:1"
     id="line1706-9-7" /><line
     x1="316.40305"
     y1="107.82748"
     x2="285.42242"
     y2="54.155167"
     style="stroke:#000000;stroke-width:0.965714;stroke-linecap:round;stroke-opacity:1"
     id="line1707-0-05" /><line
     x1="285.42242"
     y1="54.155167"
     x2="223.46124"
     y2="54.155167"
     style="stroke:#000000;stroke-width:0.965714;stroke-linecap:round;stroke-opacity:1"
     id="line1708-88-2" /><line
     x1="192.48062"
     y1="322.51678"
     x2="130.51938"
     y2="322.51678"
     style="fill:#000000;fill-opacity:1;stroke:#000000;stroke-width:0.965714;stroke-linecap:round;stroke-opacity:1"
     id="line1713-5-7" /><line
     x1="192.48062"
     y1="322.51678"
     x2="223.46124"
     y2="268.84445"
     style="fill:#000000;fill-opacity:1;stroke:#000000;stroke-width:0.965714;stroke-linecap:round;stroke-opacity:1"
     id="line1714-0-9" /><line
     x1="130.51938"
     y1="322.51678"
     x2="99.538734"
     y2="268.84445"
     style="fill:#000000;fill-opacity:1;stroke:#000000;stroke-width:0.965714;stroke-linecap:round;stroke-opacity:1"
     id="line1715-9-19" /><line
     x1="223.46124"
     y1="268.84445"
     x2="192.48062"
     y2="215.17213"
     style="fill:#000000;fill-opacity:1;stroke:#000000;stroke-width:0.965714;stroke-linecap:round;stroke-opacity:1"
     id="line1716-6-6" /><line
     x1="192.48062"
     y1="215.17213"
     x2="130.51938"
     y2="215.17213"
     style="fill:#000000;fill-opacity:1;stroke:#000000;stroke-width:0.965714;stroke-linecap:round;stroke-opacity:1"
     id="line1717-3-3" /><line
     x1="192.48062"
     y1="215.17213"
     x2="223.46124"
     y2="161.4998"
     style="stroke:#000000;stroke-width:0.965714;stroke-linecap:round;stroke-opacity:1"
     id="line1718-8-6" /><line
     x1="223.46124"
     y1="161.4998"
     x2="192.48062"
     y2="107.82748"
     style="stroke:#000000;stroke-width:0.965714;stroke-linecap:round;stroke-opacity:1"
     id="line1719-5-8" /><line
     x1="192.48062"
     y1="107.82748"
     x2="130.51938"
     y2="107.82748"
     style="stroke:#000000;stroke-width:0.965714;stroke-linecap:round;stroke-opacity:1"
     id="line1720-6-4" /><line
     x1="192.48062"
     y1="107.82748"
     x2="223.46124"
     y2="54.155167"
     style="stroke:#000000;stroke-width:0.965714;stroke-linecap:round;stroke-opacity:1"
     id="line1721-1-66" /><line
     x1="223.46124"
     y1="54.155167"
     x2="192.48062"
     y2="0.48285699"
     style="stroke:#000000;stroke-width:0.965714;stroke-linecap:round;stroke-opacity:1"
     id="line1722-1-72" /><line
     x1="192.48062"
     y1="0.48285699"
     x2="130.51938"
     y2="0.48285699"
     style="stroke:#000000;stroke-width:0.965714;stroke-linecap:round;stroke-opacity:1"
     id="line1723-5-7" /><line
     x1="99.538734"
     y1="268.84445"
     x2="37.577541"
     y2="268.84445"
     style="stroke:#000000;stroke-width:0.965714;stroke-linecap:round;stroke-opacity:1"
     id="line1724-9-4" /><line
     x1="99.538734"
     y1="268.84445"
     x2="130.51938"
     y2="215.17213"
     style="fill:#000000;fill-opacity:1;stroke:#000000;stroke-width:0.965714;stroke-linecap:round;stroke-opacity:1"
     id="line1725-8-1" /><line
     x1="130.51938"
     y1="215.17213"
     x2="99.538734"
     y2="161.4998"
     style="stroke:#000000;stroke-width:0.965714;stroke-linecap:round;stroke-opacity:1"
     id="line1726-48-0" /><line
     x1="99.538734"
     y1="161.4998"
     x2="37.577541"
     y2="161.4998"
     style="stroke:#000000;stroke-width:0.965714;stroke-linecap:round;stroke-opacity:1"
     id="line1727-1-0" /><line
     x1="99.538734"
     y1="161.4998"
     x2="130.51938"
     y2="107.82748"
     style="stroke:#000000;stroke-width:0.965714;stroke-linecap:round;stroke-opacity:1"
     id="line1728-0-6" /><line
     x1="130.51938"
     y1="107.82748"
     x2="99.538734"
     y2="54.155167"
     style="stroke:#000000;stroke-width:0.965714;stroke-linecap:round;stroke-opacity:1"
     id="line1729-3-4" /><line
     x1="99.538734"
     y1="54.155167"
     x2="37.577541"
     y2="54.155167"
     style="stroke:#000000;stroke-width:0.965714;stroke-linecap:round;stroke-opacity:1"
     id="line1730-0-4" /><line
     x1="99.538734"
     y1="54.155167"
     x2="130.51938"
     y2="0.48285699"
     style="stroke:#000000;stroke-width:0.965714;stroke-linecap:round;stroke-opacity:1"
     id="line1731-4-3" /><line
     x1="37.577541"
     y1="268.84445"
     x2="6.5969429"
     y2="215.17213"
     style="fill:#ff6600;stroke:#000000;stroke-width:0.965714;stroke-linecap:round;stroke-opacity:1"
     id="line1735-4-7" /><line
     x1="6.5969429"
     y1="215.17213"
     x2="37.577541"
     y2="161.4998"
     style="stroke:#000000;stroke-width:0.965714;stroke-linecap:round;stroke-opacity:1"
     id="line1736-4-3" /><line
     x1="37.577541"
     y1="161.4998"
     x2="6.5969429"
     y2="107.82748"
     style="stroke:#000000;stroke-width:0.965714;stroke-linecap:round;stroke-opacity:1"
     id="line1737-4-4" /><line
     x1="6.5969429"
     y1="107.82748"
     x2="37.577541"
     y2="54.155167"
     style="stroke:#000000;stroke-width:0.965714;stroke-linecap:round;stroke-opacity:1"
     id="line1738-7-7" /><path
     d="m 238.42455,133.92091 5.05318,-7.82041 -5.05318,-7.82041 h 5.23365 l 2.04534,3.81997 2.04534,-3.81997 h 5.23366 l -5.05319,7.82041 5.05319,7.82041 h -5.23366 l -2.04534,-3.81997 -2.04534,3.81997 z m 23.52139,0.24063 q -0.63164,0 -1.29337,-0.0902 -0.63165,-0.0902 -1.23322,-0.33087 -0.60157,-0.24063 -1.1129,-0.66172 -0.51134,-0.4211 -0.87228,-0.96252 -0.33086,-0.54141 -0.48126,-1.17306 -0.15039,-0.66172 -0.15039,-1.29337 0,-0.90236 0.27071,-1.74456 0.2707,-0.87227 0.8422,-1.50392 0.60157,-0.66173 1.38361,-1.08283 0.78204,-0.45118 1.62424,-0.6918 0.87227,-0.24063 1.74455,-0.33087 0.87227,-0.0902 1.74455,-0.0902 h 1.98518 v -0.45118 q 0,-0.51133 -0.18047,-0.99259 -0.18047,-0.48126 -0.60157,-0.81212 -0.39102,-0.33086 -0.90235,-0.45118 -0.48126,-0.12031 -0.99259,-0.12031 -0.45118,0 -0.90236,0.0602 -0.4211,0.0602 -0.8422,0.2707 -0.39102,0.18047 -0.66172,0.54142 -0.27071,0.36094 -0.27071,0.81211 v 0.0301 h -4.0606 v -0.12031 q 0,-0.78204 0.27071,-1.534 0.2707,-0.75197 0.75196,-1.32346 0.51134,-0.60157 1.17306,-1.02267 0.69181,-0.4211 1.44377,-0.63165 0.75196,-0.24062 1.534,-0.33086 0.78204,-0.0902 1.56409,-0.0902 0.84219,0 1.65431,0.12031 0.8422,0.0902 1.62424,0.39102 0.78204,0.30078 1.44377,0.81212 0.69181,0.51133 1.14298,1.23322 0.48126,0.6918 0.66173,1.50392 0.21055,0.81212 0.21055,1.65432 v 10.16653 h -4.0606 v -2.22581 q -0.30078,0.60157 -0.78204,1.08283 -0.48125,0.48126 -1.08282,0.81212 -0.5715,0.33086 -1.23322,0.45118 -0.66173,0.12031 -1.35354,0.12031 z m 1.65432,-3.33871 q 0.54141,0 1.08283,-0.12032 0.54141,-0.15039 0.93243,-0.51133 0.4211,-0.36094 0.60157,-0.87228 0.18047,-0.54141 0.18047,-1.08282 v -0.69181 h -1.98518 q -0.36094,0 -0.72188,0.0301 -0.36094,0 -0.72189,0.0602 -0.36094,0.0601 -0.72188,0.18047 -0.33086,0.0902 -0.66173,0.2707 -0.30078,0.1504 -0.51133,0.48126 -0.21055,0.30079 -0.21055,0.66173 0,0.45118 0.30078,0.81212 0.30079,0.33086 0.69181,0.51133 0.4211,0.15039 0.87228,0.21055 0.45117,0.0602 0.87227,0.0602 z"
     id="text4"
     style="font-weight:900;font-size:30.0785px;line-height:1.25;font-family:'Iosevka Sezimal QP';-inkscape-font-specification:'Iosevka Sezimal QP, Heavy';letter-spacing:0px;word-spacing:0px;fill:#ffffff;stroke-width:0.751961;filter:url(#filter4)"
     aria-label="xa" /><path
     d="m 238.42455,133.92091 5.05318,-7.82041 -5.05318,-7.82041 h 5.23365 l 2.04534,3.81997 2.04534,-3.81997 h 5.23366 l -5.05319,7.82041 5.05319,7.82041 h -5.23366 l -2.04534,-3.81997 -2.04534,3.81997 z m 23.52139,0.24063 q -0.63164,0 -1.29337,-0.0902 -0.63165,-0.0902 -1.23322,-0.33087 -0.60157,-0.24063 -1.1129,-0.66172 -0.51134,-0.4211 -0.87228,-0.96252 -0.33086,-0.54141 -0.48126,-1.17306 -0.15039,-0.66172 -0.15039,-1.29337 0,-0.90236 0.27071,-1.74456 0.2707,-0.87227 0.8422,-1.50392 0.60157,-0.66173 1.38361,-1.08283 0.78204,-0.45118 1.62424,-0.6918 0.87227,-0.24063 1.74455,-0.33087 0.87227,-0.0902 1.74455,-0.0902 h 1.98518 v -0.45118 q 0,-0.51133 -0.18047,-0.99259 -0.18047,-0.48126 -0.60157,-0.81212 -0.39102,-0.33086 -0.90235,-0.45118 -0.48126,-0.12031 -0.99259,-0.12031 -0.45118,0 -0.90236,0.0602 -0.4211,0.0602 -0.8422,0.2707 -0.39102,0.18047 -0.66172,0.54142 -0.27071,0.36094 -0.27071,0.81211 v 0.0301 h -4.0606 v -0.12031 q 0,-0.78204 0.27071,-1.534 0.2707,-0.75197 0.75196,-1.32346 0.51134,-0.60157 1.17306,-1.02267 0.69181,-0.4211 1.44377,-0.63165 0.75196,-0.24062 1.534,-0.33086 0.78204,-0.0902 1.56409,-0.0902 0.84219,0 1.65431,0.12031 0.8422,0.0902 1.62424,0.39102 0.78204,0.30078 1.44377,0.81212 0.69181,0.51133 1.14298,1.23322 0.48126,0.6918 0.66173,1.50392 0.21055,0.81212 0.21055,1.65432 v 10.16653 h -4.0606 v -2.22581 q -0.30078,0.60157 -0.78204,1.08283 -0.48125,0.48126 -1.08282,0.81212 -0.5715,0.33086 -1.23322,0.45118 -0.66173,0.12031 -1.35354,0.12031 z m 1.65432,-3.33871 q 0.54141,0 1.08283,-0.12032 0.54141,-0.15039 0.93243,-0.51133 0.4211,-0.36094 0.60157,-0.87228 0.18047,-0.54141 0.18047,-1.08282 v -0.69181 h -1.98518 q -0.36094,0 -0.72188,0.0301 -0.36094,0 -0.72189,0.0602 -0.36094,0.0601 -0.72188,0.18047 -0.33086,0.0902 -0.66173,0.2707 -0.30078,0.1504 -0.51133,0.48126 -0.21055,0.30079 -0.21055,0.66173 0,0.45118 0.30078,0.81212 0.30079,0.33086 0.69181,0.51133 0.4211,0.15039 0.87228,0.21055 0.45117,0.0602 0.87227,0.0602 z"
     id="text1-0"
     style="font-weight:900;font-size:30.0785px;line-height:1.25;font-family:'Iosevka Sezimal QP';-inkscape-font-specification:'Iosevka Sezimal QP, Heavy';letter-spacing:0px;word-spacing:0px;fill:#ffffff;stroke-width:0.751961"
     aria-label="xa" /><path
     d="m 41.549674,133.78523 5.344,-8.32 -5.344,-8.32 h 5.056 l 2.56,4.448 2.56,-4.448 h 5.056 l -5.344,8.32 5.344,8.32 h -5.056 l -2.56,-4.448 -2.56,4.448 z m 24.992012,0.256 q -0.672,0 -1.376,-0.096 -0.704,-0.096 -1.344,-0.352 -0.64,-0.256 -1.184,-0.704 -0.544,-0.448 -0.928,-1.024 -0.352,-0.608 -0.512,-1.28 -0.16,-0.672 -0.16,-1.376 0,-0.928 0.288,-1.824 0.288,-0.896 0.896,-1.568 0.64,-0.704 1.472,-1.152 0.832,-0.448 1.696,-0.704 0.896,-0.288 1.824,-0.352 0.928,-0.096 1.856,-0.096 h 2.272 v -0.64 q 0,-0.544 -0.224,-1.088 -0.224,-0.544 -0.672,-0.864 -0.448,-0.352 -1.024,-0.48 -0.544,-0.128 -1.088,-0.128 -0.48,0 -0.992,0.064 -0.48,0.064 -0.928,0.288 -0.448,0.192 -0.768,0.608 -0.32,0.384 -0.32,0.864 v 0.032 h -4.096 v -0.096 q 0,-0.832 0.288,-1.6 0.288,-0.8 0.8,-1.408 0.544,-0.64 1.248,-1.056 0.736,-0.448 1.504,-0.672 0.8,-0.256 1.6,-0.352 0.832,-0.096 1.664,-0.096 0.864,0 1.728,0.128 0.896,0.096 1.728,0.416 0.832,0.32 1.536,0.864 0.704,0.512 1.184,1.248 0.512,0.736 0.704,1.6 0.224,0.864 0.224,1.728 v 10.912 h -4.096 v -2.432 q -0.352,0.64 -0.864,1.184 -0.48,0.544 -1.12,0.896 -0.64,0.32 -1.376,0.448 -0.704,0.16 -1.44,0.16 z m 1.664,-3.424 q 0.608,0 1.216,-0.16 0.608,-0.16 1.056,-0.544 0.448,-0.416 0.64,-0.992 0.224,-0.576 0.224,-1.184 v -0.8 h -2.272 q -0.384,0 -0.8,0.032 -0.384,0 -0.8,0.064 -0.384,0.064 -0.768,0.192 -0.384,0.096 -0.736,0.288 -0.352,0.192 -0.608,0.544 -0.224,0.32 -0.224,0.736 0,0.48 0.32,0.896 0.352,0.416 0.8,0.608 0.448,0.192 0.96,0.256 0.512,0.064 0.992,0.064 z m 12.352012,3.168 v -3.52 h 2.528 v -9.6 h -2.528 v -3.52 h 6.752 v 3.104 q 0.288,-0.704 0.704,-1.344 0.448,-0.64 1.056,-1.088 0.608,-0.48 1.344,-0.704 0.768,-0.224 1.504,-0.224 0.64,0 1.248,0.224 0.608,0.192 1.024,0.672 0.448,0.448 0.704,1.024 0.288,0.576 0.416,1.184 0.16,0.608 0.192,1.248 0.064,0.608 0.064,1.248 h -4.224 q 0,-0.352 -0.064,-0.704 -0.032,-0.352 -0.192,-0.672 -0.128,-0.32 -0.448,-0.512 -0.32,-0.192 -0.672,-0.192 -0.48,0 -0.928,0.224 -0.448,0.224 -0.768,0.608 -0.288,0.384 -0.48,0.864 -0.192,0.448 -0.288,0.928 -0.096,0.448 -0.16,0.96 -0.032,0.48 -0.032,0.96 v 5.312 h 3.072 v 3.52 z"
     id="text3"
     style="font-weight:800;font-size:32px;line-height:1.25;font-family:'Iosevka Sezimal QP';-inkscape-font-specification:'Iosevka Sezimal QP, Ultra-Bold';text-align:center;letter-spacing:0px;word-spacing:0px;text-anchor:middle;fill:#ffffff;filter:url(#filter3)"
     aria-label="xar" /><path
     d="m 41.549674,133.78523 5.344,-8.32 -5.344,-8.32 h 5.056 l 2.56,4.448 2.56,-4.448 h 5.056 l -5.344,8.32 5.344,8.32 h -5.056 l -2.56,-4.448 -2.56,4.448 z m 24.992012,0.256 q -0.672,0 -1.376,-0.096 -0.704,-0.096 -1.344,-0.352 -0.64,-0.256 -1.184,-0.704 -0.544,-0.448 -0.928,-1.024 -0.352,-0.608 -0.512,-1.28 -0.16,-0.672 -0.16,-1.376 0,-0.928 0.288,-1.824 0.288,-0.896 0.896,-1.568 0.64,-0.704 1.472,-1.152 0.832,-0.448 1.696,-0.704 0.896,-0.288 1.824,-0.352 0.928,-0.096 1.856,-0.096 h 2.272 v -0.64 q 0,-0.544 -0.224,-1.088 -0.224,-0.544 -0.672,-0.864 -0.448,-0.352 -1.024,-0.48 -0.544,-0.128 -1.088,-0.128 -0.48,0 -0.992,0.064 -0.48,0.064 -0.928,0.288 -0.448,0.192 -0.768,0.608 -0.32,0.384 -0.32,0.864 v 0.032 h -4.096 v -0.096 q 0,-0.832 0.288,-1.6 0.288,-0.8 0.8,-1.408 0.544,-0.64 1.248,-1.056 0.736,-0.448 1.504,-0.672 0.8,-0.256 1.6,-0.352 0.832,-0.096 1.664,-0.096 0.864,0 1.728,0.128 0.896,0.096 1.728,0.416 0.832,0.32 1.536,0.864 0.704,0.512 1.184,1.248 0.512,0.736 0.704,1.6 0.224,0.864 0.224,1.728 v 10.912 h -4.096 v -2.432 q -0.352,0.64 -0.864,1.184 -0.48,0.544 -1.12,0.896 -0.64,0.32 -1.376,0.448 -0.704,0.16 -1.44,0.16 z m 1.664,-3.424 q 0.608,0 1.216,-0.16 0.608,-0.16 1.056,-0.544 0.448,-0.416 0.64,-0.992 0.224,-0.576 0.224,-1.184 v -0.8 h -2.272 q -0.384,0 -0.8,0.032 -0.384,0 -0.8,0.064 -0.384,0.064 -0.768,0.192 -0.384,0.096 -0.736,0.288 -0.352,0.192 -0.608,0.544 -0.224,0.32 -0.224,0.736 0,0.48 0.32,0.896 0.352,0.416 0.8,0.608 0.448,0.192 0.96,0.256 0.512,0.064 0.992,0.064 z m 12.352012,3.168 v -3.52 h 2.528 v -9.6 h -2.528 v -3.52 h 6.752 v 3.104 q 0.288,-0.704 0.704,-1.344 0.448,-0.64 1.056,-1.088 0.608,-0.48 1.344,-0.704 0.768,-0.224 1.504,-0.224 0.64,0 1.248,0.224 0.608,0.192 1.024,0.672 0.448,0.448 0.704,1.024 0.288,0.576 0.416,1.184 0.16,0.608 0.192,1.248 0.064,0.608 0.064,1.248 h -4.224 q 0,-0.352 -0.064,-0.704 -0.032,-0.352 -0.192,-0.672 -0.128,-0.32 -0.448,-0.512 -0.32,-0.192 -0.672,-0.192 -0.48,0 -0.928,0.224 -0.448,0.224 -0.768,0.608 -0.288,0.384 -0.48,0.864 -0.192,0.448 -0.288,0.928 -0.096,0.448 -0.16,0.96 -0.032,0.48 -0.032,0.96 v 5.312 h 3.072 v 3.52 z"
     id="text2"
     style="font-weight:800;font-size:32px;line-height:1.25;font-family:'Iosevka Sezimal QP';-inkscape-font-specification:'Iosevka Sezimal QP, Ultra-Bold';text-align:center;letter-spacing:0px;word-spacing:0px;text-anchor:middle;fill:#ffffff"
     aria-label="xar" /></svg>
