<?xml version="1.0" encoding="UTF-8" standalone="no"?>
<!-- Created with Inkscape (http://www.inkscape.org/) -->

<svg
   version="1.1"
   id="svg1"
   xml:space="preserve"
   width="323"
   height="323"
   sodipodi:docname="shastadari-prefixes-black-background.svg"
   viewBox="0 0 323 323"
   inkscape:version="1.3.2 (091e20ef0f, 2023-11-25, custom)"
   xmlns:inkscape="http://www.inkscape.org/namespaces/inkscape"
   xmlns:sodipodi="http://sodipodi.sourceforge.net/DTD/sodipodi-0.dtd"
   xmlns="http://www.w3.org/2000/svg"
   xmlns:svg="http://www.w3.org/2000/svg"><defs
     id="defs1"><filter
       inkscape:collect="always"
       style="color-interpolation-filters:sRGB"
       id="filter67"
       x="-0.6118353"
       y="-0.34103504"
       width="2.2236706"
       height="1.6820701"><feGaussianBlur
         inkscape:collect="always"
         stdDeviation="7.4839156"
         id="feGaussianBlur67" /></filter><filter
       inkscape:collect="always"
       style="color-interpolation-filters:sRGB"
       id="filter68"
       x="-0.38476317"
       y="-0.34103452"
       width="1.7695263"
       height="1.682069"><feGaussianBlur
         inkscape:collect="always"
         stdDeviation="7.4839156"
         id="feGaussianBlur68" /></filter><filter
       inkscape:collect="always"
       style="color-interpolation-filters:sRGB"
       id="filter69"
       x="-0.26110717"
       y="-0.34259944"
       width="1.5222143"
       height="1.6851989"><feGaussianBlur
         inkscape:collect="always"
         stdDeviation="7.4839156"
         id="feGaussianBlur69" /></filter><filter
       inkscape:collect="always"
       style="color-interpolation-filters:sRGB"
       id="filter70"
       x="-0.36279027"
       y="-0.30623217"
       width="1.7255805"
       height="1.6124643"><feGaussianBlur
         inkscape:collect="always"
         stdDeviation="7.4839156"
         id="feGaussianBlur70" /></filter><filter
       inkscape:collect="always"
       style="color-interpolation-filters:sRGB"
       id="filter71"
       x="-0.36234982"
       y="-0.34103417"
       width="1.7246996"
       height="1.6820683"><feGaussianBlur
         inkscape:collect="always"
         stdDeviation="7.4839156"
         id="feGaussianBlur71" /></filter><filter
       inkscape:collect="always"
       style="color-interpolation-filters:sRGB"
       id="filter72"
       x="-0.36590223"
       y="-0.34103523"
       width="1.7318045"
       height="1.6820705"><feGaussianBlur
         inkscape:collect="always"
         stdDeviation="7.4839156"
         id="feGaussianBlur72" /></filter><filter
       inkscape:collect="always"
       style="color-interpolation-filters:sRGB"
       id="filter73"
       x="-0.36103537"
       y="-0.34259994"
       width="1.7220707"
       height="1.6851999"><feGaussianBlur
         inkscape:collect="always"
         stdDeviation="7.4839156"
         id="feGaussianBlur73" /></filter></defs><sodipodi:namedview
     id="namedview1"
     pagecolor="#ffffff"
     bordercolor="#000000"
     borderopacity="0.25"
     inkscape:showpageshadow="2"
     inkscape:pageopacity="0.0"
     inkscape:pagecheckerboard="0"
     inkscape:deskcolor="#d1d1d1"
     inkscape:zoom="1.1191436"
     inkscape:cx="176.921"
     inkscape:cy="172.45329"
     inkscape:window-width="1920"
     inkscape:window-height="944"
     inkscape:window-x="0"
     inkscape:window-y="32"
     inkscape:window-maximized="1"
     inkscape:current-layer="svg1" /><inkscape:clipboard
     style="font-variation-settings:normal;opacity:1;vector-effect:none;fill:#000000;fill-opacity:1;stroke-width:3.77952756;stroke-linecap:butt;stroke-linejoin:miter;stroke-miterlimit:4;stroke-dasharray:none;stroke-dashoffset:0;stroke-opacity:1;-inkscape-stroke:none;stop-color:#000000;stop-opacity:1"
     min="912.40842,1768.5963"
     max="2365.305,2684.9586"
     geom-min="913.77834,1769.9664"
     geom-max="2363.9349,2683.5886" /><polygon
     points="67.726776,117.05 22.808925,117.05 0.35,78.15 22.808925,39.25 67.726776,39.25 90.185702,78.15 "
     style="fill:#5500d4;fill-opacity:1;stroke:none;stroke-width:0.7;stroke-linecap:round"
     id="hexfill_1_1-6-7"
     transform="matrix(-1.3794344,0,0,-1.3797512,316.88587,322.99969)" /><polygon
     points="67.726776,194.85 22.808925,194.85 0.35,155.95 22.808925,117.05 67.726776,117.05 90.185702,155.95 "
     style="fill:#0000ff;fill-opacity:1;stroke:none;stroke-width:0.7;stroke-linecap:round"
     id="polygon1696-5-9"
     transform="matrix(-1.3794344,0,0,-1.3797512,316.88587,322.99969)" /><polygon
     points="135.10355,233.75 90.185702,233.75 67.726776,194.85 90.185702,155.95 135.10355,155.95 157.56248,194.85 "
     style="font-variation-settings:normal;vector-effect:none;fill:#0066ff;fill-opacity:1;stroke:none;stroke-width:0.7;stroke-linecap:round;stroke-linejoin:miter;stroke-miterlimit:4;stroke-dasharray:none;stroke-dashoffset:0;stroke-opacity:1;-inkscape-stroke:none;stop-color:#000000"
     id="polygon1700-9-2"
     transform="matrix(-1.3794344,0,0,-1.3797512,316.88587,322.99969)" /><polygon
     points="202.48033,194.85 157.56248,194.85 135.10355,155.95 157.56248,117.05 202.48033,117.05 224.93926,155.95 "
     style="font-variation-settings:normal;vector-effect:none;fill:#44aa00;fill-opacity:1;stroke:none;stroke-width:0.7;stroke-linecap:round;stroke-linejoin:miter;stroke-miterlimit:4;stroke-dasharray:none;stroke-dashoffset:0;stroke-opacity:1;-inkscape-stroke:none;stop-color:#000000"
     id="polygon1701-8-5"
     transform="matrix(-1.3794344,0,0,-1.3797512,316.88587,322.99969)" /><polygon
     points="202.48033,117.05 157.56248,117.05 135.10355,78.15 157.56248,39.25 202.48033,39.25 224.93926,78.15 "
     style="font-variation-settings:normal;vector-effect:none;fill:#ffcc00;fill-opacity:1;stroke:none;stroke-width:0.7;stroke-linecap:round;stroke-linejoin:miter;stroke-miterlimit:4;stroke-dasharray:none;stroke-dashoffset:0;stroke-opacity:1;-inkscape-stroke:none;stop-color:#000000"
     id="hexfill_3_1-4-12"
     transform="matrix(-1.3794344,0,0,-1.3797512,316.88587,322.99969)" /><polygon
     points="135.10355,78.15 90.185702,78.15 67.726776,39.25 90.185702,0.35 135.10355,0.35 157.56248,39.25 "
     style="font-variation-settings:normal;vector-effect:none;fill:#ff6600;fill-opacity:1;stroke:none;stroke-width:0.7;stroke-linecap:round;stroke-linejoin:miter;stroke-miterlimit:4;stroke-dasharray:none;stroke-dashoffset:0;stroke-opacity:1;-inkscape-stroke:none;stop-color:#000000"
     id="polygon1698-6-3"
     transform="matrix(-1.3794344,0,0,-1.3797512,316.88587,322.99969)" /><polygon
     points="135.10355,155.95 90.185702,155.95 67.726776,117.05 90.185702,78.15 135.10355,78.15 157.56248,117.05 "
     style="font-variation-settings:normal;vector-effect:none;fill:#d40000;fill-opacity:1;stroke:none;stroke-width:0.7;stroke-linecap:round;stroke-linejoin:miter;stroke-miterlimit:4;stroke-dasharray:none;stroke-dashoffset:0;stroke-opacity:1;-inkscape-stroke:none;stop-color:#000000"
     id="polygon1699-3-6"
     transform="matrix(-1.3794344,0,0,-1.3797512,316.88587,322.99969)" /><g
     id="g28"><g
       id="text55"
       style="font-weight:900;font-size:30.0784px;line-height:1;font-family:'Iosevka Sezimal QP';-inkscape-font-specification:'Iosevka Sezimal QP, Heavy';text-align:center;text-decoration-color:#d40000;text-anchor:middle;fill:#ffffff;stroke-width:4.18823;stroke-linecap:round;stroke-miterlimit:2.6;filter:url(#filter73)"
       aria-label="1&#10;eka"><path
         d="m 160.32694,157.3941 v -13.47512 l -1.59416,3.88011 -3.15823,-1.05274 4.75239,-11.45987 h 4.39144 v 22.10762 z"
         id="path15" /><path
         d="m 143.57326,187.71313 q -0.90235,0 -1.80471,-0.15039 -0.90235,-0.12031 -1.74454,-0.51133 -0.81212,-0.39102 -1.50392,-0.99259 -0.66173,-0.63165 -1.1129,-1.41369 -0.4211,-0.78203 -0.60157,-1.68439 -0.18047,-0.90235 -0.18047,-1.8047 v -3.00784 q 0,-0.90235 0.18047,-1.8047 0.18047,-0.90236 0.60157,-1.68439 0.45117,-0.78204 1.1129,-1.41369 0.6918,-0.63165 1.50392,-0.99259 0.84219,-0.39102 1.74454,-0.51133 0.90236,-0.15039 1.80471,-0.15039 0.90235,0 1.8047,0.15039 0.90235,0.12031 1.71447,0.51133 0.8422,0.36094 1.50392,0.99259 0.6918,0.63165 1.1129,1.41369 0.45118,0.78203 0.63165,1.68439 0.18047,0.90235 0.18047,1.8047 v 3.15823 h -9.83564 q 0,0.60157 0.18047,1.20314 0.18047,0.57149 0.57149,1.02266 0.39102,0.4211 0.96251,0.63165 0.57149,0.21055 1.17306,0.21055 0.45117,0 0.90235,-0.0602 0.48125,-0.0602 0.87227,-0.24063 0.4211,-0.21054 0.72189,-0.57149 0.33086,-0.39101 0.33086,-0.84219 h 4.06058 q 0,0.81212 -0.30078,1.56408 -0.27071,0.75196 -0.78204,1.3836 -0.51133,0.60157 -1.20314,1.02267 -0.6918,0.4211 -1.47384,0.66172 -0.75196,0.24063 -1.56407,0.33087 -0.78204,0.0902 -1.56408,0.0902 z m 2.88752,-9.71532 q 0,-0.60157 -0.18047,-1.17306 -0.18047,-0.60157 -0.57149,-1.02267 -0.39101,-0.45117 -0.9625,-0.66172 -0.57149,-0.21055 -1.17306,-0.21055 -0.60157,0 -1.17306,0.21055 -0.57149,0.21055 -0.96251,0.66172 -0.39102,0.4211 -0.57149,1.02267 -0.18047,0.57149 -0.18047,1.17306 z m 9.02354,9.47469 v -22.10762 h 4.36136 v 12.48254 l 4.27114,-6.01568 h 5.02309 l -5.7149,7.18873 5.7149,8.45203 h -4.8727 l -3.24847,-5.41411 -1.17306,1.47384 v 3.94027 z m 22.37834,0.24063 q -0.63165,0 -1.29338,-0.0902 -0.63164,-0.0902 -1.23321,-0.33087 -0.60157,-0.24062 -1.1129,-0.66172 -0.51133,-0.4211 -0.87227,-0.96251 -0.33087,-0.54141 -0.48126,-1.17306 -0.15039,-0.66172 -0.15039,-1.29337 0,-0.90235 0.2707,-1.74455 0.27071,-0.87227 0.8422,-1.50392 0.60157,-0.66172 1.38361,-1.08282 0.78203,-0.45117 1.62423,-0.6918 0.87227,-0.24063 1.74455,-0.33086 0.87227,-0.0902 1.74454,-0.0902 h 1.98518 V 177.306 q 0,-0.51133 -0.18047,-0.99258 -0.18047,-0.48126 -0.60157,-0.81212 -0.39102,-0.33086 -0.90235,-0.45118 -0.48126,-0.12031 -0.99259,-0.12031 -0.45117,0 -0.90235,0.0602 -0.4211,0.0601 -0.8422,0.2707 -0.39102,0.18047 -0.66172,0.54141 -0.27071,0.36095 -0.27071,0.81212 v 0.0301 h -4.06058 v -0.12031 q 0,-0.78204 0.27071,-1.534 0.2707,-0.75196 0.75196,-1.32345 0.51133,-0.60157 1.17305,-1.02267 0.69181,-0.42109 1.44377,-0.63164 0.75196,-0.24063 1.53399,-0.33087 0.78204,-0.0902 1.56408,-0.0902 0.8422,0 1.65431,0.12031 0.8422,0.0902 1.62424,0.39102 0.78204,0.30079 1.44376,0.81212 0.6918,0.51133 1.14298,1.23321 0.48125,0.69181 0.66172,1.50392 0.21055,0.81212 0.21055,1.65431 v 10.1665 h -4.06058 v -2.2258 q -0.30079,0.60157 -0.78204,1.08282 -0.48125,0.48126 -1.08282,0.81212 -0.57149,0.33086 -1.23322,0.45118 -0.66172,0.12031 -1.35352,0.12031 z m 1.65431,-3.3387 q 0.54141,0 1.08282,-0.12032 0.54141,-0.15039 0.93243,-0.51133 0.4211,-0.36094 0.60157,-0.87227 0.18047,-0.54141 0.18047,-1.08282 v -0.69181 h -1.98518 q -0.36094,0 -0.72188,0.0301 -0.36094,0 -0.72188,0.0602 -0.36094,0.0602 -0.72188,0.18047 -0.33086,0.0902 -0.66173,0.2707 -0.30078,0.1504 -0.51133,0.48126 -0.21055,0.30078 -0.21055,0.66172 0,0.45118 0.30079,0.81212 0.30078,0.33086 0.6918,0.51133 0.4211,0.15039 0.87227,0.21055 0.45118,0.0602 0.87228,0.0602 z"
         id="path16" /></g><g
       id="text57"
       style="font-weight:900;font-size:30.0784px;line-height:1;font-family:'Iosevka Sezimal QP';-inkscape-font-specification:'Iosevka Sezimal QP, Heavy';text-align:center;text-decoration-color:#d40000;text-anchor:middle;fill:#ffffff;stroke-width:4.18823;stroke-linecap:round;stroke-miterlimit:2.6;filter:url(#filter71)"
       aria-label="10&#10;sha"><path
         d="M 244.15502,103.84209 V 90.366964 l -1.59415,3.880113 -3.15824,-1.052744 4.75239,-11.45987 h 4.39145 v 22.107627 z m 19.34042,0.24062 q -0.90235,0 -1.8047,-0.15039 -0.90235,-0.12031 -1.74455,-0.48125 -0.81212,-0.39102 -1.50392,-1.02267 -0.66172,-0.63164 -1.1129,-1.41368 -0.4211,-0.78204 -0.60157,-1.684393 -0.18047,-0.902352 -0.18047,-1.804704 v -9.474696 q 0,-0.902352 0.18047,-1.804704 0.18047,-0.902352 0.60157,-1.68439 0.45118,-0.782039 1.1129,-1.413685 0.6918,-0.631647 1.50392,-0.992587 0.8422,-0.39102 1.74455,-0.511333 0.90235,-0.150392 1.8047,-0.150392 0.90235,0 1.80471,0.150392 0.90235,0.120313 1.71447,0.511333 0.84219,0.36094 1.50392,0.992587 0.6918,0.631646 1.1129,1.413685 0.45117,0.782038 0.63164,1.68439 0.18047,0.902352 0.18047,1.804704 v 9.474696 q 0,0.902352 -0.18047,1.804704 -0.18047,0.902353 -0.63164,1.684393 -0.4211,0.78204 -1.1129,1.41368 -0.66173,0.63165 -1.50392,1.02267 -0.81212,0.36094 -1.71447,0.48125 -0.90236,0.15039 -1.80471,0.15039 z m 2.55667,-11.249317 v -4.782466 q 0,-0.541411 -0.12032,-1.082822 -0.12031,-0.57149 -0.48125,-0.992588 -0.33086,-0.451176 -0.87227,-0.661724 -0.54142,-0.210549 -1.08283,-0.210549 -0.54141,0 -1.08282,0.210549 -0.54141,0.210548 -0.90235,0.661724 -0.33086,0.421098 -0.45118,0.992588 -0.12031,0.541411 -0.12031,1.082822 v 1.383606 z m -2.55667,7.639917 q 0.54141,0 1.08283,-0.21055 0.54141,-0.21055 0.87227,-0.631649 0.36094,-0.451176 0.48125,-0.992587 0.12032,-0.57149 0.12032,-1.112901 v -1.383607 l -5.11333,-3.398859 v 4.782466 q 0,0.541411 0.12031,1.112901 0.12032,0.541411 0.45118,0.992587 0.36094,0.421099 0.90235,0.631649 0.54141,0.21055 1.08282,0.21055 z"
         id="path27" /><path
         d="m 236.39479,134.16111 q -0.75196,0 -1.534,-0.0902 -0.75196,-0.0602 -1.47384,-0.24063 -0.72188,-0.21055 -1.41369,-0.57149 -0.66172,-0.36094 -1.20313,-0.90235 -0.51134,-0.54141 -0.81212,-1.26329 -0.30078,-0.72188 -0.30078,-1.47384 v -0.21055 h 4.06058 v 0.0301 q 0,0.4211 0.33086,0.72189 0.33087,0.30078 0.72188,0.45117 0.39102,0.12032 0.78204,0.18047 0.4211,0.0301 0.8422,0.0301 0.4211,0 0.81212,-0.0301 0.42109,-0.0301 0.81211,-0.15039 0.39102,-0.12031 0.72188,-0.39102 0.33087,-0.2707 0.33087,-0.6918 0,-0.39102 -0.27071,-0.6918 -0.24063,-0.33087 -0.60157,-0.51134 -0.33086,-0.21055 -0.72188,-0.30078 -0.39102,-0.0902 -0.78204,-0.15039 -0.39102,-0.0602 -0.78204,-0.12032 -0.39102,-0.0602 -0.78203,-0.15039 -0.36095,-0.0902 -0.75196,-0.18047 -0.36095,-0.12031 -0.75196,-0.24063 -0.36095,-0.15039 -0.72189,-0.33086 -0.33086,-0.18047 -0.66172,-0.39102 -0.33086,-0.21055 -0.63165,-0.45117 -0.30078,-0.27071 -0.57149,-0.57149 -0.24062,-0.30079 -0.45117,-0.63165 -0.21055,-0.36094 -0.36094,-0.72188 -0.12032,-0.36094 -0.21055,-0.75196 -0.0602,-0.39102 -0.0602,-0.78204 0,-0.75196 0.27071,-1.44376 0.2707,-0.72188 0.75196,-1.2633 0.51133,-0.54141 1.17305,-0.90235 0.66173,-0.36094 1.35353,-0.57149 0.72188,-0.21055 1.44377,-0.2707 0.75196,-0.0902 1.50392,-0.0902 0.75196,0 1.47384,0.0902 0.75196,0.0602 1.44376,0.2707 0.72188,0.21055 1.38361,0.57149 0.66172,0.36094 1.14298,0.90235 0.51133,0.54142 0.78203,1.2633 0.27071,0.6918 0.27071,1.44376 v 0.21055 h -4.06058 v -0.0602 q 0,-0.39102 -0.27071,-0.66172 -0.27071,-0.30079 -0.63165,-0.45118 -0.36094,-0.15039 -0.75196,-0.18047 -0.39102,-0.0602 -0.78203,-0.0602 -0.39102,0 -0.78204,0.0301 -0.36094,0.0301 -0.72188,0.18047 -0.36095,0.12032 -0.66173,0.39102 -0.27071,0.27071 -0.27071,0.63165 0,0.39102 0.24063,0.72188 0.27071,0.33086 0.60157,0.51133 0.36094,0.18047 0.75196,0.30079 0.39102,0.0902 0.75196,0.15039 0.39102,0.0602 0.78204,0.12031 0.39102,0.0602 0.78204,0.15039 0.39102,0.0902 0.75196,0.21055 0.39102,0.0902 0.75196,0.24063 0.36094,0.12031 0.72188,0.30078 0.36094,0.18047 0.6918,0.39102 0.33086,0.21055 0.63165,0.48126 0.30078,0.24062 0.54141,0.54141 0.2707,0.30078 0.45118,0.66172 0.21054,0.33087 0.36094,0.69181 0.15039,0.36094 0.21054,0.75196 0.0902,0.39102 0.0902,0.78204 0,0.75196 -0.30078,1.47384 -0.27071,0.72188 -0.81212,1.26329 -0.51133,0.54141 -1.20314,0.90235 -0.6918,0.36094 -1.41368,0.57149 -0.72188,0.18047 -1.50392,0.24063 -0.75196,0.0902 -1.50392,0.0902 z m 11.36964,-0.24062 v -22.10763 h 4.39145 v 8.84305 q 0.27071,-0.57149 0.6918,-1.08282 0.4211,-0.51133 0.96251,-0.87227 0.54141,-0.36094 1.17306,-0.51134 0.66172,-0.15039 1.29337,-0.15039 0.78204,0 1.534,0.24063 0.75196,0.21055 1.35353,0.72188 0.60157,0.48125 0.99258,1.14298 0.39102,0.66172 0.63165,1.41368 0.24063,0.72189 0.30079,1.50392 0.0902,0.75196 0.0902,1.534 v 9.32431 h -4.39145 v -9.32431 q 0,-0.54141 -0.12031,-1.05274 -0.0902,-0.54141 -0.39102,-0.96251 -0.2707,-0.45118 -0.78204,-0.6918 -0.48125,-0.24063 -1.02266,-0.24063 -0.54141,0 -1.05275,0.24063 -0.48125,0.24062 -0.78204,0.6918 -0.2707,0.4211 -0.39101,0.96251 -0.0902,0.51133 -0.0902,1.05274 v 9.32431 z m 22.94983,0.24062 q -0.63164,0 -1.29337,-0.0902 -0.63164,-0.0902 -1.23321,-0.33086 -0.60157,-0.24063 -1.1129,-0.66173 -0.51134,-0.4211 -0.87228,-0.96251 -0.33086,-0.54141 -0.48125,-1.17306 -0.15039,-0.66172 -0.15039,-1.29337 0,-0.90235 0.2707,-1.74454 0.27071,-0.87228 0.8422,-1.50392 0.60157,-0.66173 1.3836,-1.08283 0.78204,-0.45117 1.62424,-0.6918 0.87227,-0.24063 1.74455,-0.33086 0.87227,-0.0902 1.74454,-0.0902 h 1.98518 v -0.45117 q 0,-0.51134 -0.18047,-0.99259 -0.18047,-0.48125 -0.60157,-0.81212 -0.39102,-0.33086 -0.90235,-0.45117 -0.48126,-0.12032 -0.99259,-0.12032 -0.45118,0 -0.90235,0.0602 -0.4211,0.0602 -0.8422,0.27071 -0.39102,0.18047 -0.66172,0.54141 -0.27071,0.36094 -0.27071,0.81211 v 0.0301 h -4.06058 v -0.12031 q 0,-0.78204 0.2707,-1.534 0.27071,-0.75196 0.75196,-1.32345 0.51134,-0.60157 1.17306,-1.02266 0.6918,-0.4211 1.44376,-0.63165 0.75196,-0.24063 1.534,-0.33086 0.78204,-0.0902 1.56408,-0.0902 0.84219,0 1.65431,0.12032 0.8422,0.0902 1.62423,0.39101 0.78204,0.30079 1.44377,0.81212 0.6918,0.51133 1.14298,1.23322 0.48125,0.6918 0.66172,1.50392 0.21055,0.81211 0.21055,1.65431 v 10.1665 h -4.06058 v -2.22581 q -0.30079,0.60157 -0.78204,1.08283 -0.48126,0.48125 -1.08282,0.81211 -0.57149,0.33087 -1.23322,0.45118 -0.66172,0.12031 -1.35353,0.12031 z m 1.65432,-3.3387 q 0.54141,0 1.08282,-0.12031 0.54141,-0.15039 0.93243,-0.51134 0.4211,-0.36094 0.60157,-0.87227 0.18047,-0.54141 0.18047,-1.08282 v -0.6918 h -1.98518 q -0.36094,0 -0.72188,0.0301 -0.36094,0 -0.72188,0.0602 -0.36094,0.0602 -0.72188,0.18047 -0.33086,0.0902 -0.66173,0.27071 -0.30078,0.15039 -0.51133,0.48125 -0.21055,0.30079 -0.21055,0.66173 0,0.45117 0.30079,0.81211 0.30078,0.33087 0.6918,0.51134 0.4211,0.15039 0.87227,0.21054 0.45118,0.0602 0.87228,0.0602 z"
         id="path28" /></g><g
       id="text59"
       style="font-weight:900;font-size:30.0784px;line-height:1;font-family:'Iosevka Sezimal QP';-inkscape-font-specification:'Iosevka Sezimal QP, Heavy';text-align:center;text-decoration-color:#d40000;text-anchor:middle;fill:#907300;stroke-width:4.18823;stroke-linecap:round;stroke-miterlimit:2.6;filter:url(#filter68)"
       aria-label="3&#10;tri"><path
         d="m 66.572957,211.42738 q -0.872274,0 -1.744548,-0.12031 -0.872273,-0.12032 -1.68439,-0.4211 -0.782038,-0.33086 -1.50392,-0.8422 -0.691803,-0.54141 -1.203136,-1.26329 -0.481254,-0.72188 -0.721882,-1.56408 -0.240627,-0.84219 -0.240627,-1.71447 v -0.18047 h 4.391447 v 0.0902 q 0,0.51133 0.18047,0.99259 0.210549,0.48125 0.601568,0.81211 0.391019,0.33087 0.902352,0.48126 0.511333,0.12031 1.022666,0.12031 0.541411,0 1.052744,-0.15039 0.541411,-0.18047 0.93243,-0.57149 0.391019,-0.39102 0.571489,-0.90235 0.180471,-0.54141 0.180471,-1.1129 0,-0.51134 -0.150392,-0.99259 -0.150392,-0.48125 -0.451176,-0.90235 -0.270706,-0.4211 -0.691803,-0.72188 -0.391019,-0.33087 -0.872274,-0.51134 -0.481254,-0.18047 -0.992587,-0.21055 -0.511333,-0.0301 -1.022666,-0.0301 v -3.60941 q 0.691804,0 1.383607,-0.12032 0.691803,-0.15039 1.203136,-0.57148 0.541411,-0.45118 0.812116,-1.11291 0.300784,-0.66172 0.300784,-1.35352 0,-0.45118 -0.150392,-0.93243 -0.120313,-0.48126 -0.421097,-0.8422 -0.300784,-0.36094 -0.75196,-0.54141 -0.451176,-0.18047 -0.93243,-0.18047 -0.451176,0 -0.902352,0.18047 -0.451176,0.15039 -0.75196,0.51133 -0.300784,0.33086 -0.451176,0.78204 -0.120314,0.45118 -0.120314,0.93243 v 0.0902 h -4.391446 v -0.24063 q 0,-0.81212 0.210548,-1.62423 0.210549,-0.8422 0.631647,-1.534 0.451176,-0.72188 1.082822,-1.2633 0.661725,-0.54141 1.413685,-0.87227 0.782038,-0.33086 1.594155,-0.45118 0.842195,-0.12031 1.684391,-0.12031 0.842195,0 1.68439,0.15039 0.842195,0.12032 1.594155,0.48126 0.782038,0.33086 1.413685,0.90235 0.661725,0.57149 1.082822,1.29337 0.421098,0.72188 0.631647,1.56408 0.210548,0.81211 0.210548,1.65431 0,0.75196 -0.18047,1.50392 -0.18047,0.72188 -0.57149,1.38361 -0.36094,0.63164 -0.93243,1.17305 -0.541411,0.54141 -1.203136,0.90236 0.75196,0.36094 1.383606,0.90235 0.661725,0.54141 1.082823,1.26329 0.451176,0.6918 0.661725,1.50392 0.240627,0.81212 0.240627,1.65431 0,0.87228 -0.240627,1.74455 -0.240628,0.87227 -0.721882,1.62423 -0.451176,0.75196 -1.142979,1.35353 -0.691803,0.57149 -1.50392,0.93243 -0.812117,0.33086 -1.714469,0.45118 -0.872273,0.15039 -1.774625,0.15039 z"
         id="path21" /><path
         d="m 53.368539,241.50578 q -0.842195,0 -1.68439,-0.21055 -0.812117,-0.21055 -1.50392,-0.6918 -0.661725,-0.51134 -1.173058,-1.20314 -0.481254,-0.72188 -0.782038,-1.50392 -0.270706,-0.81212 -0.360941,-1.62423 -0.09023,-0.8422 -0.09023,-1.71447 v -5.32388 h -2.556664 v -3.60941 h 2.556664 v -6.46685 h 4.361368 v 6.46685 h 5.203563 v 3.60941 h -5.203563 v 5.32388 q 0,0.33086 0,0.66172 0.03008,0.30079 0.06016,0.63165 0.06016,0.33086 0.120314,0.63165 0.06016,0.30078 0.18047,0.60156 0.120314,0.30079 0.330863,0.57149 0.240627,0.24063 0.541411,0.24063 0.391019,0 0.631646,-0.30078 0.270706,-0.30079 0.39102,-0.66173 0.120313,-0.36094 0.150392,-0.72188 0.06016,-0.39102 0.06016,-0.75196 v -0.0602 H 58.9932 v 0.12032 q 0,0.78204 -0.150392,1.534 -0.150392,0.75196 -0.481255,1.47384 -0.330862,0.6918 -0.842195,1.29337 -0.511333,0.60157 -1.173057,0.99259 -0.661725,0.36094 -1.443764,0.51133 -0.75196,0.18047 -1.533998,0.18047 z m 9.534863,-0.24063 v -3.60941 h 2.195724 v -8.42195 h -2.195724 v -3.60941 h 6.557092 v 2.85745 q 0.300784,-0.66172 0.691803,-1.23321 0.421097,-0.60157 0.962509,-1.02267 0.571489,-0.45117 1.263292,-0.63164 0.691804,-0.21055 1.413685,-0.21055 0.601568,0 1.173058,0.24062 0.571489,0.21055 0.962508,0.66173 0.421098,0.45117 0.661725,1.02266 0.270706,0.54142 0.391019,1.14298 0.120314,0.60157 0.150392,1.20314 0.06016,0.60157 0.06016,1.20314 h -4.361368 q 0,-0.30079 -0.06016,-0.60157 -0.03008,-0.33086 -0.150392,-0.60157 -0.120314,-0.30078 -0.39102,-0.48125 -0.240627,-0.18048 -0.571489,-0.18048 -0.421098,0 -0.812117,0.21055 -0.360941,0.18047 -0.631646,0.54141 -0.240628,0.33087 -0.39102,0.75196 -0.120313,0.39102 -0.210548,0.81212 -0.09024,0.39102 -0.120314,0.81212 -0.03008,0.4211 -0.03008,0.84219 v 4.69223 h 2.646899 v 3.60941 z m 24.243201,0.24063 q -0.691803,0 -1.353528,-0.15039 -0.661725,-0.12032 -1.263293,-0.45118 -0.571489,-0.36094 -1.022665,-0.87227 -0.421098,-0.54141 -0.691803,-1.17306 -0.270706,-0.63165 -0.39102,-1.29337 -0.09024,-0.66173 -0.09024,-1.35353 v -6.97819 h -1.834782 v -3.60941 h 6.226229 v 10.5876 q 0,0.15039 0,0.33086 0,0.1504 0,0.33087 0.03008,0.15039 0.06016,0.30078 0.03008,0.15039 0.09024,0.30078 0.06016,0.1504 0.150392,0.30079 0.120313,0.12031 0.300784,0.12031 0.240627,0 0.391019,-0.18047 0.150392,-0.21055 0.210549,-0.4211 0.09024,-0.24062 0.120313,-0.48125 0.03008,-0.24063 0.06016,-0.48126 l 3.789878,0.93243 q -0.09023,0.90236 -0.481254,1.71447 -0.360941,0.81212 -1.022666,1.41369 -0.631646,0.60157 -1.50392,0.87227 -0.872273,0.24063 -1.744547,0.24063 z m -2.616821,-17.6861 q -0.541411,0 -1.082822,-0.15039 -0.541411,-0.18047 -0.93243,-0.54141 -0.360941,-0.39102 -0.541411,-0.93243 -0.150392,-0.54141 -0.150392,-1.08283 0,-0.54141 0.150392,-1.08282 0.18047,-0.54141 0.541411,-0.90235 0.391019,-0.39102 0.93243,-0.54141 0.541411,-0.18047 1.082822,-0.18047 0.541412,0 1.082823,0.18047 0.541411,0.15039 0.902352,0.54141 0.391019,0.36094 0.541411,0.90235 0.18047,0.54141 0.18047,1.08282 0,0.54142 -0.18047,1.08283 -0.150392,0.54141 -0.541411,0.93243 -0.360941,0.36094 -0.902352,0.54141 -0.541411,0.15039 -1.082823,0.15039 z"
         id="path22" /></g><g
       id="text61"
       style="font-weight:900;font-size:30.0784px;line-height:1;font-family:'Iosevka Sezimal QP';-inkscape-font-specification:'Iosevka Sezimal QP, Heavy';text-align:center;text-decoration-color:#d40000;text-anchor:middle;fill:#ffffff;stroke-width:4.18823;stroke-linecap:round;stroke-miterlimit:2.6;filter:url(#filter69)"
       aria-label="4&#10;char"><path
         d="M 68.152098,103.72179 V 98.488145 H 61.474693 V 81.614163 h 4.391447 v 13.264574 h 2.285958 v -9.053598 h 4.391447 v 9.053598 h 2.346115 v 3.609408 h -2.346115 v 5.233645 z"
         id="path19" /><path
         d="m 41.021364,134.04081 q -0.902352,0 -1.804704,-0.15039 -0.872273,-0.15039 -1.714468,-0.51133 -0.812117,-0.39102 -1.473842,-0.99259 -0.661725,-0.63165 -1.112901,-1.41368 -0.421097,-0.81212 -0.601568,-1.68439 -0.150392,-0.90236 -0.150392,-1.80471 v -3.00784 q 0,-0.90235 0.150392,-1.77462 0.180471,-0.90236 0.601568,-1.68439 0.451176,-0.81212 1.112901,-1.41369 0.661725,-0.63164 1.473842,-0.99259 0.842195,-0.39101 1.714468,-0.54141 0.902352,-0.15039 1.804704,-0.15039 0.842196,0 1.684391,0.12031 0.872273,0.12032 1.654312,0.45118 0.782038,0.30078 1.443763,0.8422 0.691803,0.54141 1.142979,1.26329 0.481255,0.72188 0.691803,1.56408 0.240628,0.81211 0.240628,1.65431 v 0.21055 h -4.391447 v -0.0902 q 0,-0.48125 -0.18047,-0.96251 -0.150392,-0.48125 -0.511333,-0.81211 -0.330862,-0.33087 -0.812117,-0.48126 -0.481254,-0.15039 -0.962509,-0.15039 -0.541411,0 -1.082822,0.21055 -0.511333,0.21055 -0.842195,0.66172 -0.300784,0.45118 -0.421098,0.99259 -0.120313,0.54141 -0.120313,1.08282 v 3.00784 q 0,0.54141 0.120313,1.08282 0.120314,0.54142 0.421098,0.99259 0.330862,0.45118 0.842195,0.66173 0.541411,0.21055 1.082822,0.21055 0.481255,0 0.962509,-0.1504 0.481255,-0.15039 0.812117,-0.48125 0.360941,-0.33086 0.511333,-0.81212 0.18047,-0.48125 0.18047,-0.96251 v -0.0902 h 4.391447 v 0.21055 q 0,0.84219 -0.240628,1.68439 -0.210548,0.81211 -0.691803,1.534 -0.451176,0.72188 -1.142979,1.26329 -0.661725,0.54141 -1.443763,0.87227 -0.782039,0.30079 -1.654312,0.4211 -0.842195,0.12031 -1.684391,0.12031 z m 11.429803,-0.24062 v -22.10763 h 4.391446 v 8.84305 q 0.270706,-0.57149 0.691804,-1.08282 0.421097,-0.51133 0.962508,-0.87227 0.541412,-0.36094 1.173058,-0.51134 0.661725,-0.15039 1.293371,-0.15039 0.782039,0 1.533999,0.24063 0.75196,0.21055 1.353527,0.72188 0.601568,0.48125 0.992588,1.14298 0.391019,0.66172 0.631646,1.41368 0.240627,0.72189 0.300784,1.50392 0.09024,0.75196 0.09024,1.534 v 9.32431 h -4.391446 v -9.32431 q 0,-0.54141 -0.120314,-1.05274 -0.09023,-0.54141 -0.391019,-0.96251 -0.270705,-0.45118 -0.782038,-0.6918 -0.481255,-0.24063 -1.022666,-0.24063 -0.541411,0 -1.052744,0.24063 -0.481254,0.24062 -0.782038,0.6918 -0.270706,0.4211 -0.391019,0.96251 -0.09024,0.51133 -0.09024,1.05274 v 9.32431 z m 22.94983,0.24062 q -0.631647,0 -1.293372,-0.0902 -0.631646,-0.0902 -1.233214,-0.33086 -0.601568,-0.24063 -1.112901,-0.66173 -0.511333,-0.4211 -0.872273,-0.96251 -0.330863,-0.54141 -0.481255,-1.17306 -0.150392,-0.66172 -0.150392,-1.29337 0,-0.90235 0.270706,-1.74454 0.270705,-0.87228 0.842195,-1.50392 0.601568,-0.66173 1.383606,-1.08283 0.782039,-0.45117 1.624234,-0.6918 0.872274,-0.24063 1.744547,-0.33086 0.872274,-0.0902 1.744547,-0.0902 H 79.8526 v -0.45117 q 0,-0.51134 -0.180471,-0.99259 -0.18047,-0.48125 -0.601568,-0.81212 -0.391019,-0.33086 -0.902352,-0.45117 -0.481254,-0.12032 -0.992587,-0.12032 -0.451176,0 -0.902352,0.0602 -0.421097,0.0602 -0.842195,0.27071 -0.391019,0.18047 -0.661725,0.54141 -0.270705,0.36094 -0.270705,0.81211 v 0.0301 h -4.060584 v -0.12031 q 0,-0.78204 0.270705,-1.534 0.270706,-0.75196 0.75196,-1.32345 0.511333,-0.60157 1.173058,-1.02266 0.691803,-0.4211 1.443763,-0.63165 0.75196,-0.24063 1.533998,-0.33086 0.782039,-0.0902 1.564077,-0.0902 0.842195,0 1.654312,0.12031 0.842195,0.0902 1.624234,0.39102 0.782038,0.30079 1.443763,0.81212 0.691803,0.51133 1.142979,1.23322 0.481255,0.6918 0.661725,1.50392 0.210549,0.81211 0.210549,1.65431 v 10.1665 H 79.8526 v -2.22581 q -0.300784,0.60157 -0.782039,1.08283 -0.481254,0.48125 -1.082822,0.81211 -0.57149,0.33087 -1.233214,0.45118 -0.661725,0.12031 -1.353528,0.12031 z m 1.654312,-3.3387 q 0.541411,0 1.082822,-0.12031 0.541411,-0.15039 0.93243,-0.51134 0.421098,-0.36094 0.601568,-0.87227 0.180471,-0.54141 0.180471,-1.08282 v -0.6918 h -1.985175 q -0.36094,0 -0.721881,0.0301 -0.360941,0 -0.721882,0.0602 -0.360941,0.0602 -0.721881,0.18047 -0.330863,0.0902 -0.661725,0.27071 -0.300784,0.15039 -0.511333,0.48125 -0.210549,0.30079 -0.210549,0.66173 0,0.45117 0.300784,0.81211 0.300784,0.33086 0.691803,0.51134 0.421098,0.15039 0.872274,0.21054 0.451176,0.0602 0.872274,0.0602 z m 11.610273,3.09808 v -3.60941 h 2.195723 v -8.42195 h -2.195723 v -3.60941 h 6.557091 v 2.85745 q 0.300784,-0.66173 0.691803,-1.23322 0.421097,-0.60157 0.962509,-1.02266 0.571489,-0.45118 1.263292,-0.63165 0.691804,-0.21055 1.413685,-0.21055 0.601568,0 1.173058,0.24063 0.57149,0.21055 0.96251,0.66172 0.4211,0.45118 0.66172,1.02267 0.27071,0.54141 0.39102,1.14298 0.12032,0.60157 0.15039,1.20313 0.0602,0.60157 0.0602,1.20314 h -4.361367 q 0,-0.30078 -0.06016,-0.60157 -0.03008,-0.33086 -0.150392,-0.60157 -0.120314,-0.30078 -0.39102,-0.48125 -0.240627,-0.18047 -0.571489,-0.18047 -0.421098,0 -0.812117,0.21055 -0.360941,0.18047 -0.631646,0.54141 -0.240628,0.33086 -0.39102,0.75196 -0.120313,0.39102 -0.210548,0.81212 -0.09024,0.39102 -0.120314,0.81211 -0.03008,0.4211 -0.03008,0.8422 v 4.69223 h 2.646899 v 3.60941 z"
         id="path20" /></g><g
       id="text63"
       style="font-weight:900;font-size:30.0784px;line-height:1;font-family:'Iosevka Sezimal QP';-inkscape-font-specification:'Iosevka Sezimal QP, Heavy';text-align:center;text-decoration-color:#d40000;text-anchor:middle;fill:#ffffff;stroke-width:4.18823;stroke-linecap:round;stroke-miterlimit:2.6;filter:url(#filter67)"
       aria-label="2&#10;di"><path
         d="m 153.07802,264.85907 v -3.60941 l 6.85787,-7.76023 q 0.4211,-0.48125 0.8422,-0.9625 0.4211,-0.48126 0.75196,-1.02267 0.33086,-0.54141 0.51133,-1.14298 0.18047,-0.63165 0.18047,-1.26329 0,-0.54141 -0.12031,-1.08282 -0.0902,-0.54142 -0.4211,-0.99259 -0.30078,-0.45118 -0.81212,-0.66173 -0.51133,-0.24062 -1.05274,-0.24062 -0.48125,0 -0.96251,0.15039 -0.45117,0.15039 -0.81212,0.51133 -0.33086,0.33086 -0.48125,0.81212 -0.15039,0.45117 -0.15039,0.93243 v 0.0902 h -4.39145 v -0.21054 q 0,-0.8422 0.21055,-1.65432 0.24063,-0.84219 0.6918,-1.534 0.45118,-0.72188 1.1129,-1.26329 0.69181,-0.54141 1.47385,-0.87227 0.78203,-0.33086 1.62423,-0.45118 0.84219,-0.12031 1.68439,-0.12031 0.90235,0 1.77463,0.15039 0.90235,0.15039 1.71446,0.54141 0.81212,0.39102 1.47385,1.02267 0.66172,0.60157 1.08282,1.41368 0.4211,0.78204 0.57149,1.68439 0.18047,0.87228 0.18047,1.77463 0,0.96251 -0.24063,1.89494 -0.24063,0.93243 -0.72188,1.77462 -0.48125,0.8422 -1.1129,1.59416 -0.60157,0.72188 -1.23322,1.41368 l -0.0601,0.0902 h -0.0301 l -4.75239,5.38403 h 8.03093 v 3.60941 z"
         id="path23" /><path
         d="m 151.84481,295.1781 q -0.78204,0 -1.56408,-0.21055 -0.75196,-0.21055 -1.35353,-0.69181 -0.60156,-0.51133 -1.02266,-1.17305 -0.4211,-0.66173 -0.66173,-1.41369 -0.24062,-0.75196 -0.33086,-1.50392 -0.0902,-0.78204 -0.0902,-1.56407 v -3.00784 q 0,-0.78204 0.0902,-1.534 0.0902,-0.78204 0.33086,-1.534 0.24063,-0.75196 0.66173,-1.41369 0.4211,-0.66172 1.02266,-1.14298 0.60157,-0.51133 1.35353,-0.72188 0.78204,-0.21055 1.56408,-0.21055 0.66172,0 1.32345,0.1504 0.66172,0.15039 1.20314,0.51133 0.57148,0.36094 0.99258,0.87227 0.45118,0.51134 0.72188,1.1129 v -8.87312 h 4.39145 v 22.10762 h -4.39145 v -2.40627 q -0.2707,0.60157 -0.72188,1.1129 -0.4211,0.51133 -0.99258,0.87227 -0.54142,0.36094 -1.20314,0.51133 -0.66173,0.1504 -1.32345,0.1504 z m 1.8047,-3.60941 q 0.54141,0 1.05275,-0.21055 0.51133,-0.24063 0.84219,-0.66172 0.33087,-0.45118 0.4211,-0.99259 0.12031,-0.54141 0.12031,-1.08282 v -3.00784 q 0,-0.54142 -0.12031,-1.08283 -0.0902,-0.54141 -0.4211,-0.96251 -0.33086,-0.45117 -0.84219,-0.66172 -0.51134,-0.24063 -1.05275,-0.24063 -0.54141,0 -1.05274,0.24063 -0.51133,0.21055 -0.8422,0.66172 -0.33086,0.4211 -0.45117,0.96251 -0.0902,0.54141 -0.0902,1.08283 v 3.00784 q 0,0.54141 0.0902,1.08282 0.12031,0.54141 0.45117,0.99259 0.33087,0.42109 0.8422,0.66172 0.51133,0.21055 1.05274,0.21055 z m 17.77635,3.60941 q -0.6918,0 -1.35353,-0.1504 -0.66172,-0.12031 -1.26329,-0.45117 -0.57149,-0.36094 -1.02267,-0.87227 -0.4211,-0.54142 -0.6918,-1.17306 -0.27071,-0.63165 -0.39102,-1.29337 -0.0902,-0.66173 -0.0902,-1.35353 v -6.97819 h -1.83478 v -3.60941 h 6.22623 v 10.5876 q 0,0.15039 0,0.33086 0,0.15039 0,0.33086 0.0301,0.1504 0.0602,0.30079 0.0301,0.15039 0.0902,0.30078 0.0602,0.15039 0.15039,0.30079 0.12032,0.12031 0.30079,0.12031 0.24063,0 0.39102,-0.18047 0.15039,-0.21055 0.21055,-0.4211 0.0902,-0.24063 0.12031,-0.48125 0.0301,-0.24063 0.0602,-0.48126 l 3.78988,0.93243 q -0.0902,0.90235 -0.48126,1.71447 -0.36094,0.81212 -1.02266,1.41369 -0.63165,0.60156 -1.50392,0.87227 -0.87228,0.24063 -1.74455,0.24063 z m -2.61682,-17.6861 q -0.54141,0 -1.08282,-0.15039 -0.54142,-0.18047 -0.93243,-0.54142 -0.36095,-0.39101 -0.54142,-0.93243 -0.15039,-0.54141 -0.15039,-1.08282 0,-0.54141 0.15039,-1.08282 0.18047,-0.54141 0.54142,-0.90235 0.39101,-0.39102 0.93243,-0.54141 0.54141,-0.18047 1.08282,-0.18047 0.54141,0 1.08282,0.18047 0.54141,0.15039 0.90235,0.54141 0.39102,0.36094 0.54141,0.90235 0.18047,0.54141 0.18047,1.08282 0,0.54141 -0.18047,1.08282 -0.15039,0.54142 -0.54141,0.93243 -0.36094,0.36095 -0.90235,0.54142 -0.54141,0.15039 -1.08282,0.15039 z"
         id="path24" /></g><g
       id="text65"
       style="font-weight:900;font-size:30.0784px;line-height:1;font-family:'Iosevka Sezimal QP';-inkscape-font-specification:'Iosevka Sezimal QP, Heavy';text-align:center;text-decoration-color:#d40000;text-anchor:middle;fill:#ffffff;stroke-width:4.18823;stroke-linecap:round;stroke-miterlimit:2.6;filter:url(#filter70)"
       aria-label="5&#10;pan"><path
         d="m 161.59021,47.176994 q -0.84219,0 -1.65431,-0.120313 -0.81211,-0.120314 -1.59415,-0.421098 -0.75196,-0.300784 -1.41369,-0.812117 -0.66172,-0.511333 -1.14298,-1.173057 -0.48125,-0.691804 -0.75196,-1.473842 -0.24062,-0.812117 -0.30078,-1.624234 h 4.42152 q 0.0602,0.421098 0.24063,0.842196 0.21055,0.391019 0.54141,0.661724 0.33086,0.270706 0.75196,0.39102 0.45118,0.120313 0.90235,0.120313 0.4211,0 0.81212,-0.150392 0.39102,-0.150392 0.6918,-0.421097 0.30079,-0.300784 0.48126,-0.661725 0.21055,-0.391019 0.30078,-0.782039 0.12032,-0.421097 0.15039,-0.842195 0.0301,-0.421097 0.0301,-0.842195 v -0.03008 q 0,-0.391019 -0.0301,-0.812117 -0.0301,-0.421098 -0.15039,-0.812117 -0.0902,-0.391019 -0.2707,-0.75196 -0.1504,-0.391019 -0.45118,-0.691803 -0.2707,-0.300784 -0.66172,-0.451176 -0.36094,-0.18047 -0.78204,-0.18047 -0.36094,0 -0.75196,0.06016 -0.36094,0.06016 -0.69181,0.240628 -0.33086,0.150392 -0.57148,0.481254 -0.24063,0.300784 -0.24063,0.691803 h -4.39145 v -12.78332 h 12.48254 v 3.609408 h -8.09109 v 4.33129 q 0.54141,-0.120314 1.1129,-0.150392 0.57149,-0.06016 1.14298,-0.06016 0.93243,0 1.86486,0.18047 0.93243,0.180471 1.74455,0.661725 0.84219,0.451176 1.44376,1.173058 0.63165,0.721881 0.99259,1.594155 0.39102,0.872274 0.54141,1.804704 0.15039,0.93243 0.15039,1.894939 0,0.932431 -0.15039,1.894939 -0.15039,0.932431 -0.54141,1.804704 -0.39102,0.872274 -1.05275,1.594155 -0.63164,0.721882 -1.47384,1.203136 -0.81212,0.451176 -1.77463,0.631647 -0.93243,0.18047 -1.86486,0.18047 z"
         id="path17" /><path
         d="M 136.74544,83.481623 V 61.373999 h 4.39145 v 2.406272 q 0.27071,-0.601568 0.6918,-1.112901 0.45118,-0.511333 0.99259,-0.872274 0.57149,-0.36094 1.23322,-0.511332 0.66172,-0.150392 1.32345,-0.150392 0.78203,0 1.53399,0.210548 0.78204,0.210549 1.38361,0.721882 0.60157,0.481254 1.02267,1.142979 0.42109,0.661725 0.66172,1.413685 0.24063,0.75196 0.33086,1.533998 0.0902,0.75196 0.0902,1.533999 v 3.00784 q 0,0.782038 -0.0902,1.564077 -0.0902,0.75196 -0.33086,1.50392 -0.24063,0.75196 -0.66172,1.413684 -0.4211,0.661725 -1.02267,1.173058 -0.60157,0.481254 -1.38361,0.691803 -0.75196,0.210549 -1.53399,0.210549 -0.66173,0 -1.32345,-0.150392 -0.66173,-0.150392 -1.23322,-0.511333 -0.54141,-0.360941 -0.99259,-0.872273 -0.42109,-0.511333 -0.6918,-1.112901 v 8.873128 z m 6.8278,-9.835637 q 0.54141,0 1.05275,-0.210549 0.51133,-0.240627 0.84219,-0.661725 0.33086,-0.451176 0.4211,-0.992587 0.12031,-0.541411 0.12031,-1.082822 v -3.00784 q 0,-0.541411 -0.12031,-1.082823 -0.0902,-0.541411 -0.4211,-0.962508 -0.33086,-0.451176 -0.84219,-0.661725 -0.51134,-0.240627 -1.05275,-0.240627 -0.54141,0 -1.05274,0.240627 -0.51134,0.210549 -0.8422,0.661725 -0.33086,0.421097 -0.45117,0.962508 -0.0902,0.541412 -0.0902,1.082823 v 3.00784 q 0,0.541411 0.0902,1.082822 0.12031,0.541411 0.45117,0.992587 0.33086,0.421098 0.8422,0.661725 0.51133,0.210549 1.05274,0.210549 z m 16.12203,3.609408 q -0.63164,0 -1.29337,-0.09023 -0.63164,-0.09024 -1.23321,-0.330863 -0.60157,-0.240627 -1.1129,-0.661724 -0.51133,-0.421098 -0.87228,-0.962509 -0.33086,-0.541411 -0.48125,-1.173058 -0.15039,-0.661725 -0.15039,-1.293371 0,-0.902352 0.2707,-1.744547 0.27071,-0.872274 0.8422,-1.50392 0.60157,-0.661725 1.38361,-1.082823 0.78203,-0.451176 1.62423,-0.691803 0.87227,-0.240627 1.74455,-0.330862 0.87227,-0.09024 1.74454,-0.09024 h 1.98518 v -0.451176 q 0,-0.511333 -0.18047,-0.992588 -0.18047,-0.481254 -0.60157,-0.812116 -0.39102,-0.330863 -0.90235,-0.451176 -0.48126,-0.120314 -0.99259,-0.120314 -0.45118,0 -0.90235,0.06016 -0.4211,0.06016 -0.8422,0.270705 -0.39102,0.180471 -0.66172,0.541412 -0.27071,0.36094 -0.27071,0.812116 v 0.03008 h -4.06058 v -0.120314 q 0,-0.782038 0.2707,-1.533998 0.27071,-0.75196 0.75196,-1.32345 0.51134,-0.601568 1.17306,-1.022665 0.6918,-0.421098 1.44376,-0.631647 0.75196,-0.240627 1.534,-0.330862 0.78204,-0.09023 1.56408,-0.09023 0.8422,0 1.65431,0.120313 0.8422,0.09023 1.62424,0.391019 0.78203,0.300784 1.44376,0.812117 0.6918,0.511333 1.14298,1.233215 0.48125,0.691803 0.66172,1.50392 0.21055,0.812116 0.21055,1.654312 v 10.166499 h -4.06058 v -2.225802 q -0.30079,0.601568 -0.78204,1.082823 -0.48126,0.481254 -1.08282,0.812116 -0.57149,0.330863 -1.23322,0.451176 -0.66172,0.120314 -1.35353,0.120314 z m 1.65432,-3.338702 q 0.54141,0 1.08282,-0.120314 0.54141,-0.150392 0.93243,-0.511333 0.4211,-0.360941 0.60157,-0.872273 0.18047,-0.541412 0.18047,-1.082823 v -0.691803 h -1.98518 q -0.36094,0 -0.72188,0.03008 -0.36094,0 -0.72188,0.06016 -0.36094,0.06016 -0.72188,0.180471 -0.33086,0.09024 -0.66173,0.270705 -0.30078,0.150392 -0.51133,0.481255 -0.21055,0.300784 -0.21055,0.661724 0,0.451176 0.30079,0.812117 0.30078,0.330863 0.6918,0.511333 0.4211,0.150392 0.87227,0.210549 0.45118,0.06016 0.87228,0.06016 z m 11.48996,3.098075 V 61.373999 h 4.39144 v 2.376193 q 0.27071,-0.571489 0.69181,-1.082822 0.42109,-0.511333 0.9625,-0.872274 0.54142,-0.36094 1.17306,-0.511332 0.66173,-0.150392 1.29337,-0.150392 0.78204,0 1.534,0.240627 0.75196,0.210549 1.35353,0.721881 0.60157,0.481255 0.99259,1.14298 0.39102,0.661724 0.63164,1.413684 0.24063,0.721882 0.30079,1.50392 0.0902,0.75196 0.0902,1.533999 v 9.324304 h -4.39144 v -9.324304 q 0,-0.541411 -0.12032,-1.052744 -0.0902,-0.541411 -0.39102,-0.962509 -0.2707,-0.451176 -0.78204,-0.691803 -0.48125,-0.240627 -1.02266,-0.240627 -0.54141,0 -1.05275,0.240627 -0.48125,0.240627 -0.78203,0.691803 -0.27071,0.421098 -0.39102,0.962509 -0.0902,0.511333 -0.0902,1.052744 v 9.324304 z"
         id="path18" /></g><g
       id="text67"
       style="font-weight:900;font-size:30.0784px;line-height:1;font-family:'Iosevka Sezimal QP';-inkscape-font-specification:'Iosevka Sezimal QP, Heavy';text-align:center;text-decoration-color:#d40000;text-anchor:middle;fill:#ffffff;stroke-width:4.18823;stroke-linecap:round;stroke-miterlimit:2.6;filter:url(#filter72)"
       aria-label="100&#10;ni"><path
         d="m 234.65023,211.18675 v -13.47512 l -1.59415,3.88011 -3.15823,-1.05274 4.75238,-11.45987 h 4.39145 v 22.10762 z m 19.34043,0.24063 q -0.90236,0 -1.80471,-0.15039 -0.90235,-0.12032 -1.74455,-0.48126 -0.81211,-0.39102 -1.50392,-1.02266 -0.66172,-0.63165 -1.1129,-1.41369 -0.42109,-0.78204 -0.60156,-1.68439 -0.18048,-0.90235 -0.18048,-1.8047 v -9.4747 q 0,-0.90235 0.18048,-1.8047 0.18047,-0.90235 0.60156,-1.68439 0.45118,-0.78204 1.1129,-1.41369 0.69181,-0.63164 1.50392,-0.99258 0.8422,-0.39102 1.74455,-0.51134 0.90235,-0.15039 1.80471,-0.15039 0.90235,0 1.8047,0.15039 0.90235,0.12032 1.71447,0.51134 0.84219,0.36094 1.50392,0.99258 0.6918,0.63165 1.1129,1.41369 0.45117,0.78204 0.63165,1.68439 0.18047,0.90235 0.18047,1.8047 v 9.4747 q 0,0.90235 -0.18047,1.8047 -0.18048,0.90235 -0.63165,1.68439 -0.4211,0.78204 -1.1129,1.41369 -0.66173,0.63164 -1.50392,1.02266 -0.81212,0.36094 -1.71447,0.48126 -0.90235,0.15039 -1.8047,0.15039 z m 2.55666,-11.24932 v -4.78247 q 0,-0.54141 -0.12031,-1.08282 -0.12032,-0.57149 -0.48126,-0.99259 -0.33086,-0.45117 -0.87227,-0.66172 -0.54141,-0.21055 -1.08282,-0.21055 -0.54142,0 -1.08283,0.21055 -0.54141,0.21055 -0.90235,0.66172 -0.33086,0.4211 -0.45118,0.99259 -0.12031,0.54141 -0.12031,1.08282 v 1.38361 z m -2.55666,7.63991 q 0.54141,0 1.08282,-0.21055 0.54141,-0.21055 0.87227,-0.63164 0.36094,-0.45118 0.48126,-0.99259 0.12031,-0.57149 0.12031,-1.1129 v -1.38361 l -5.11333,-3.39886 v 4.78247 q 0,0.54141 0.12031,1.1129 0.12032,0.54141 0.45118,0.99259 0.36094,0.42109 0.90235,0.63164 0.54141,0.21055 1.08283,0.21055 z m 18.04705,3.60941 q -0.90236,0 -1.80471,-0.15039 -0.90235,-0.12032 -1.74455,-0.48126 -0.81211,-0.39102 -1.50392,-1.02266 -0.66172,-0.63165 -1.1129,-1.41369 -0.42109,-0.78204 -0.60156,-1.68439 -0.18047,-0.90235 -0.18047,-1.8047 v -9.4747 q 0,-0.90235 0.18047,-1.8047 0.18047,-0.90235 0.60156,-1.68439 0.45118,-0.78204 1.1129,-1.41369 0.69181,-0.63164 1.50392,-0.99258 0.8422,-0.39102 1.74455,-0.51134 0.90235,-0.15039 1.80471,-0.15039 0.90235,0 1.8047,0.15039 0.90235,0.12032 1.71447,0.51134 0.84219,0.36094 1.50392,0.99258 0.6918,0.63165 1.1129,1.41369 0.45118,0.78204 0.63165,1.68439 0.18047,0.90235 0.18047,1.8047 v 9.4747 q 0,0.90235 -0.18047,1.8047 -0.18047,0.90235 -0.63165,1.68439 -0.4211,0.78204 -1.1129,1.41369 -0.66173,0.63164 -1.50392,1.02266 -0.81212,0.36094 -1.71447,0.48126 -0.90235,0.15039 -1.8047,0.15039 z m 2.55666,-11.24932 v -4.78247 q 0,-0.54141 -0.12031,-1.08282 -0.12032,-0.57149 -0.48126,-0.99259 -0.33086,-0.45117 -0.87227,-0.66172 -0.54141,-0.21055 -1.08282,-0.21055 -0.54142,0 -1.08283,0.21055 -0.54141,0.21055 -0.90235,0.66172 -0.33086,0.4211 -0.45117,0.99259 -0.12032,0.54141 -0.12032,1.08282 v 1.38361 z m -2.55666,7.63991 q 0.54141,0 1.08282,-0.21055 0.54141,-0.21055 0.87227,-0.63164 0.36094,-0.45118 0.48126,-0.99259 0.12031,-0.57149 0.12031,-1.1129 v -1.38361 l -5.11333,-3.39886 v 4.78247 q 0,0.54141 0.12032,1.1129 0.12031,0.54141 0.45117,0.99259 0.36094,0.42109 0.90235,0.63164 0.54141,0.21055 1.08283,0.21055 z"
         id="path25" /><path
         d="m 241.2675,241.26515 v -15.64077 h 4.39144 v 2.3762 q 0.27071,-0.57149 0.69181,-1.08282 0.4211,-0.51134 0.96251,-0.87228 0.54141,-0.36094 1.17305,-0.51133 0.66173,-0.15039 1.29338,-0.15039 0.78203,0 1.53399,0.24062 0.75196,0.21055 1.35353,0.72189 0.60157,0.48125 0.99259,1.14297 0.39102,0.66173 0.63165,1.41369 0.24062,0.72188 0.30078,1.50392 0.0902,0.75196 0.0902,1.534 v 9.3243 h -4.39144 v -9.3243 q 0,-0.54141 -0.12032,-1.05275 -0.0902,-0.54141 -0.39101,-0.9625 -0.27071,-0.45118 -0.78204,-0.69181 -0.48126,-0.24063 -1.02267,-0.24063 -0.54141,0 -1.05274,0.24063 -0.48126,0.24063 -0.78204,0.69181 -0.27071,0.42109 -0.39102,0.9625 -0.0902,0.51134 -0.0902,1.05275 v 9.3243 z m 24.36351,0.24063 q -0.6918,0 -1.35353,-0.15039 -0.66172,-0.12032 -1.26329,-0.45118 -0.57149,-0.36094 -1.02266,-0.87227 -0.4211,-0.54141 -0.69181,-1.17306 -0.2707,-0.63165 -0.39102,-1.29337 -0.0902,-0.66173 -0.0902,-1.35353 v -6.97819 h -1.83478 v -3.60941 h 6.22623 v 10.5876 q 0,0.15039 0,0.33086 0,0.1504 0,0.33087 0.0301,0.15039 0.0601,0.30078 0.0301,0.15039 0.0902,0.30078 0.0601,0.1504 0.15039,0.30079 0.12031,0.12031 0.30078,0.12031 0.24063,0 0.39102,-0.18047 0.15039,-0.21055 0.21055,-0.4211 0.0902,-0.24062 0.12031,-0.48125 0.0301,-0.24063 0.0602,-0.48126 l 3.78988,0.93243 q -0.0902,0.90236 -0.48125,1.71447 -0.36095,0.81212 -1.02267,1.41369 -0.63165,0.60157 -1.50392,0.87227 -0.87227,0.24063 -1.74455,0.24063 z m -2.61682,-17.6861 q -0.54141,0 -1.08282,-0.15039 -0.54141,-0.18047 -0.93243,-0.54141 -0.36094,-0.39102 -0.54141,-0.93243 -0.15039,-0.54141 -0.15039,-1.08283 0,-0.54141 0.15039,-1.08282 0.18047,-0.54141 0.54141,-0.90235 0.39102,-0.39102 0.93243,-0.54141 0.54141,-0.18047 1.08282,-0.18047 0.54141,0 1.08282,0.18047 0.54142,0.15039 0.90236,0.54141 0.39102,0.36094 0.54141,0.90235 0.18047,0.54141 0.18047,1.08282 0,0.54142 -0.18047,1.08283 -0.15039,0.54141 -0.54141,0.93243 -0.36094,0.36094 -0.90236,0.54141 -0.54141,0.15039 -1.08282,0.15039 z"
         id="path26" /></g></g><g
     id="g14"
     transform="translate(-4.89e-4,2.55e-4)"><g
       id="text14-6"
       style="font-weight:900;font-size:30.0784px;line-height:1;font-family:'Iosevka Sezimal QP';-inkscape-font-specification:'Iosevka Sezimal QP, Heavy';text-align:center;text-decoration-color:#d40000;text-anchor:middle;fill:#ffffff;stroke-width:4.18823;stroke-linecap:round;stroke-miterlimit:2.6"
       aria-label="1&#10;eka"><path
         d="m 160.32694,157.3941 v -13.47512 l -1.59416,3.88011 -3.15823,-1.05274 4.75239,-11.45987 h 4.39144 v 22.10762 z"
         id="path7" /><path
         d="m 143.57326,187.71313 q -0.90235,0 -1.80471,-0.15039 -0.90235,-0.12031 -1.74454,-0.51133 -0.81212,-0.39102 -1.50392,-0.99259 -0.66173,-0.63165 -1.1129,-1.41369 -0.4211,-0.78203 -0.60157,-1.68439 -0.18047,-0.90235 -0.18047,-1.8047 v -3.00784 q 0,-0.90235 0.18047,-1.8047 0.18047,-0.90236 0.60157,-1.68439 0.45117,-0.78204 1.1129,-1.41369 0.6918,-0.63165 1.50392,-0.99259 0.84219,-0.39102 1.74454,-0.51133 0.90236,-0.15039 1.80471,-0.15039 0.90235,0 1.8047,0.15039 0.90235,0.12031 1.71447,0.51133 0.8422,0.36094 1.50392,0.99259 0.6918,0.63165 1.1129,1.41369 0.45118,0.78203 0.63165,1.68439 0.18047,0.90235 0.18047,1.8047 v 3.15823 h -9.83564 q 0,0.60157 0.18047,1.20314 0.18047,0.57149 0.57149,1.02266 0.39102,0.4211 0.96251,0.63165 0.57149,0.21055 1.17306,0.21055 0.45117,0 0.90235,-0.0602 0.48125,-0.0602 0.87227,-0.24063 0.4211,-0.21054 0.72189,-0.57149 0.33086,-0.39101 0.33086,-0.84219 h 4.06058 q 0,0.81212 -0.30078,1.56408 -0.27071,0.75196 -0.78204,1.3836 -0.51133,0.60157 -1.20314,1.02267 -0.6918,0.4211 -1.47384,0.66172 -0.75196,0.24063 -1.56407,0.33087 -0.78204,0.0902 -1.56408,0.0902 z m 2.88752,-9.71532 q 0,-0.60157 -0.18047,-1.17306 -0.18047,-0.60157 -0.57149,-1.02267 -0.39101,-0.45117 -0.9625,-0.66172 -0.57149,-0.21055 -1.17306,-0.21055 -0.60157,0 -1.17306,0.21055 -0.57149,0.21055 -0.96251,0.66172 -0.39102,0.4211 -0.57149,1.02267 -0.18047,0.57149 -0.18047,1.17306 z m 9.02354,9.47469 v -22.10762 h 4.36136 v 12.48254 l 4.27114,-6.01568 h 5.02309 l -5.7149,7.18873 5.7149,8.45203 h -4.8727 l -3.24847,-5.41411 -1.17306,1.47384 v 3.94027 z m 22.37834,0.24063 q -0.63165,0 -1.29338,-0.0902 -0.63164,-0.0902 -1.23321,-0.33087 -0.60157,-0.24062 -1.1129,-0.66172 -0.51133,-0.4211 -0.87227,-0.96251 -0.33087,-0.54141 -0.48126,-1.17306 -0.15039,-0.66172 -0.15039,-1.29337 0,-0.90235 0.2707,-1.74455 0.27071,-0.87227 0.8422,-1.50392 0.60157,-0.66172 1.38361,-1.08282 0.78203,-0.45117 1.62423,-0.6918 0.87227,-0.24063 1.74455,-0.33086 0.87227,-0.0902 1.74454,-0.0902 h 1.98518 V 177.306 q 0,-0.51133 -0.18047,-0.99258 -0.18047,-0.48126 -0.60157,-0.81212 -0.39102,-0.33086 -0.90235,-0.45118 -0.48126,-0.12031 -0.99259,-0.12031 -0.45117,0 -0.90235,0.0602 -0.4211,0.0601 -0.8422,0.2707 -0.39102,0.18047 -0.66172,0.54141 -0.27071,0.36095 -0.27071,0.81212 v 0.0301 h -4.06058 v -0.12031 q 0,-0.78204 0.27071,-1.534 0.2707,-0.75196 0.75196,-1.32345 0.51133,-0.60157 1.17305,-1.02267 0.69181,-0.42109 1.44377,-0.63164 0.75196,-0.24063 1.53399,-0.33087 0.78204,-0.0902 1.56408,-0.0902 0.8422,0 1.65431,0.12031 0.8422,0.0902 1.62424,0.39102 0.78204,0.30079 1.44376,0.81212 0.6918,0.51133 1.14298,1.23321 0.48125,0.69181 0.66172,1.50392 0.21055,0.81212 0.21055,1.65431 v 10.1665 h -4.06058 v -2.2258 q -0.30079,0.60157 -0.78204,1.08282 -0.48125,0.48126 -1.08282,0.81212 -0.57149,0.33086 -1.23322,0.45118 -0.66172,0.12031 -1.35352,0.12031 z m 1.65431,-3.3387 q 0.54141,0 1.08282,-0.12032 0.54141,-0.15039 0.93243,-0.51133 0.4211,-0.36094 0.60157,-0.87227 0.18047,-0.54141 0.18047,-1.08282 v -0.69181 h -1.98518 q -0.36094,0 -0.72188,0.0301 -0.36094,0 -0.72188,0.0602 -0.36094,0.0602 -0.72188,0.18047 -0.33086,0.0902 -0.66173,0.2707 -0.30078,0.1504 -0.51133,0.48126 -0.21055,0.30078 -0.21055,0.66172 0,0.45118 0.30079,0.81212 0.30078,0.33086 0.6918,0.51133 0.4211,0.15039 0.87227,0.21055 0.45118,0.0602 0.87228,0.0602 z"
         id="path8" /></g><g
       id="text3-6"
       style="font-weight:900;font-size:30.0784px;line-height:1;font-family:'Iosevka Sezimal QP';-inkscape-font-specification:'Iosevka Sezimal QP, Heavy';text-align:center;text-decoration-color:#d40000;text-anchor:middle;fill:#ffffff;stroke-width:4.18823;stroke-linecap:round;stroke-miterlimit:2.6"
       aria-label="10&#10;sha"><path
         d="M 244.15502,103.84209 V 90.366964 l -1.59415,3.880113 -3.15824,-1.052744 4.75239,-11.45987 h 4.39145 v 22.107627 z m 19.34042,0.24062 q -0.90235,0 -1.8047,-0.15039 -0.90235,-0.12031 -1.74455,-0.48125 -0.81212,-0.39102 -1.50392,-1.02267 -0.66172,-0.63164 -1.1129,-1.41368 -0.4211,-0.78204 -0.60157,-1.684393 -0.18047,-0.902352 -0.18047,-1.804704 v -9.474696 q 0,-0.902352 0.18047,-1.804704 0.18047,-0.902352 0.60157,-1.68439 0.45118,-0.782039 1.1129,-1.413685 0.6918,-0.631647 1.50392,-0.992587 0.8422,-0.39102 1.74455,-0.511333 0.90235,-0.150392 1.8047,-0.150392 0.90235,0 1.80471,0.150392 0.90235,0.120313 1.71447,0.511333 0.84219,0.36094 1.50392,0.992587 0.6918,0.631646 1.1129,1.413685 0.45117,0.782038 0.63164,1.68439 0.18047,0.902352 0.18047,1.804704 v 9.474696 q 0,0.902352 -0.18047,1.804704 -0.18047,0.902353 -0.63164,1.684393 -0.4211,0.78204 -1.1129,1.41368 -0.66173,0.63165 -1.50392,1.02267 -0.81212,0.36094 -1.71447,0.48125 -0.90236,0.15039 -1.80471,0.15039 z m 2.55667,-11.249317 v -4.782466 q 0,-0.541411 -0.12032,-1.082822 -0.12031,-0.57149 -0.48125,-0.992588 -0.33086,-0.451176 -0.87227,-0.661724 -0.54142,-0.210549 -1.08283,-0.210549 -0.54141,0 -1.08282,0.210549 -0.54141,0.210548 -0.90235,0.661724 -0.33086,0.421098 -0.45118,0.992588 -0.12031,0.541411 -0.12031,1.082822 v 1.383606 z m -2.55667,7.639917 q 0.54141,0 1.08283,-0.21055 0.54141,-0.21055 0.87227,-0.631649 0.36094,-0.451176 0.48125,-0.992587 0.12032,-0.57149 0.12032,-1.112901 v -1.383607 l -5.11333,-3.398859 v 4.782466 q 0,0.541411 0.12031,1.112901 0.12032,0.541411 0.45118,0.992587 0.36094,0.421099 0.90235,0.631649 0.54141,0.21055 1.08282,0.21055 z"
         id="path9" /><path
         d="m 236.39479,134.16111 q -0.75196,0 -1.534,-0.0902 -0.75196,-0.0602 -1.47384,-0.24063 -0.72188,-0.21055 -1.41369,-0.57149 -0.66172,-0.36094 -1.20313,-0.90235 -0.51134,-0.54141 -0.81212,-1.26329 -0.30078,-0.72188 -0.30078,-1.47384 v -0.21055 h 4.06058 v 0.0301 q 0,0.4211 0.33086,0.72189 0.33087,0.30078 0.72188,0.45117 0.39102,0.12032 0.78204,0.18047 0.4211,0.0301 0.8422,0.0301 0.4211,0 0.81212,-0.0301 0.42109,-0.0301 0.81211,-0.15039 0.39102,-0.12031 0.72188,-0.39102 0.33087,-0.2707 0.33087,-0.6918 0,-0.39102 -0.27071,-0.6918 -0.24063,-0.33087 -0.60157,-0.51134 -0.33086,-0.21055 -0.72188,-0.30078 -0.39102,-0.0902 -0.78204,-0.15039 -0.39102,-0.0602 -0.78204,-0.12032 -0.39102,-0.0602 -0.78203,-0.15039 -0.36095,-0.0902 -0.75196,-0.18047 -0.36095,-0.12031 -0.75196,-0.24063 -0.36095,-0.15039 -0.72189,-0.33086 -0.33086,-0.18047 -0.66172,-0.39102 -0.33086,-0.21055 -0.63165,-0.45117 -0.30078,-0.27071 -0.57149,-0.57149 -0.24062,-0.30079 -0.45117,-0.63165 -0.21055,-0.36094 -0.36094,-0.72188 -0.12032,-0.36094 -0.21055,-0.75196 -0.0602,-0.39102 -0.0602,-0.78204 0,-0.75196 0.27071,-1.44376 0.2707,-0.72188 0.75196,-1.2633 0.51133,-0.54141 1.17305,-0.90235 0.66173,-0.36094 1.35353,-0.57149 0.72188,-0.21055 1.44377,-0.2707 0.75196,-0.0902 1.50392,-0.0902 0.75196,0 1.47384,0.0902 0.75196,0.0602 1.44376,0.2707 0.72188,0.21055 1.38361,0.57149 0.66172,0.36094 1.14298,0.90235 0.51133,0.54142 0.78203,1.2633 0.27071,0.6918 0.27071,1.44376 v 0.21055 h -4.06058 v -0.0602 q 0,-0.39102 -0.27071,-0.66172 -0.27071,-0.30079 -0.63165,-0.45118 -0.36094,-0.15039 -0.75196,-0.18047 -0.39102,-0.0602 -0.78203,-0.0602 -0.39102,0 -0.78204,0.0301 -0.36094,0.0301 -0.72188,0.18047 -0.36095,0.12032 -0.66173,0.39102 -0.27071,0.27071 -0.27071,0.63165 0,0.39102 0.24063,0.72188 0.27071,0.33086 0.60157,0.51133 0.36094,0.18047 0.75196,0.30079 0.39102,0.0902 0.75196,0.15039 0.39102,0.0602 0.78204,0.12031 0.39102,0.0602 0.78204,0.15039 0.39102,0.0902 0.75196,0.21055 0.39102,0.0902 0.75196,0.24063 0.36094,0.12031 0.72188,0.30078 0.36094,0.18047 0.6918,0.39102 0.33086,0.21055 0.63165,0.48126 0.30078,0.24062 0.54141,0.54141 0.2707,0.30078 0.45118,0.66172 0.21054,0.33087 0.36094,0.69181 0.15039,0.36094 0.21054,0.75196 0.0902,0.39102 0.0902,0.78204 0,0.75196 -0.30078,1.47384 -0.27071,0.72188 -0.81212,1.26329 -0.51133,0.54141 -1.20314,0.90235 -0.6918,0.36094 -1.41368,0.57149 -0.72188,0.18047 -1.50392,0.24063 -0.75196,0.0902 -1.50392,0.0902 z m 11.36964,-0.24062 v -22.10763 h 4.39145 v 8.84305 q 0.27071,-0.57149 0.6918,-1.08282 0.4211,-0.51133 0.96251,-0.87227 0.54141,-0.36094 1.17306,-0.51134 0.66172,-0.15039 1.29337,-0.15039 0.78204,0 1.534,0.24063 0.75196,0.21055 1.35353,0.72188 0.60157,0.48125 0.99258,1.14298 0.39102,0.66172 0.63165,1.41368 0.24063,0.72189 0.30079,1.50392 0.0902,0.75196 0.0902,1.534 v 9.32431 h -4.39145 v -9.32431 q 0,-0.54141 -0.12031,-1.05274 -0.0902,-0.54141 -0.39102,-0.96251 -0.2707,-0.45118 -0.78204,-0.6918 -0.48125,-0.24063 -1.02266,-0.24063 -0.54141,0 -1.05275,0.24063 -0.48125,0.24062 -0.78204,0.6918 -0.2707,0.4211 -0.39101,0.96251 -0.0902,0.51133 -0.0902,1.05274 v 9.32431 z m 22.94983,0.24062 q -0.63164,0 -1.29337,-0.0902 -0.63164,-0.0902 -1.23321,-0.33086 -0.60157,-0.24063 -1.1129,-0.66173 -0.51134,-0.4211 -0.87228,-0.96251 -0.33086,-0.54141 -0.48125,-1.17306 -0.15039,-0.66172 -0.15039,-1.29337 0,-0.90235 0.2707,-1.74454 0.27071,-0.87228 0.8422,-1.50392 0.60157,-0.66173 1.3836,-1.08283 0.78204,-0.45117 1.62424,-0.6918 0.87227,-0.24063 1.74455,-0.33086 0.87227,-0.0902 1.74454,-0.0902 h 1.98518 v -0.45117 q 0,-0.51134 -0.18047,-0.99259 -0.18047,-0.48125 -0.60157,-0.81212 -0.39102,-0.33086 -0.90235,-0.45117 -0.48126,-0.12032 -0.99259,-0.12032 -0.45118,0 -0.90235,0.0602 -0.4211,0.0602 -0.8422,0.27071 -0.39102,0.18047 -0.66172,0.54141 -0.27071,0.36094 -0.27071,0.81211 v 0.0301 h -4.06058 v -0.12031 q 0,-0.78204 0.2707,-1.534 0.27071,-0.75196 0.75196,-1.32345 0.51134,-0.60157 1.17306,-1.02266 0.6918,-0.4211 1.44376,-0.63165 0.75196,-0.24063 1.534,-0.33086 0.78204,-0.0902 1.56408,-0.0902 0.84219,0 1.65431,0.12032 0.8422,0.0902 1.62423,0.39101 0.78204,0.30079 1.44377,0.81212 0.6918,0.51133 1.14298,1.23322 0.48125,0.6918 0.66172,1.50392 0.21055,0.81211 0.21055,1.65431 v 10.1665 h -4.06058 v -2.22581 q -0.30079,0.60157 -0.78204,1.08283 -0.48126,0.48125 -1.08282,0.81211 -0.57149,0.33087 -1.23322,0.45118 -0.66172,0.12031 -1.35353,0.12031 z m 1.65432,-3.3387 q 0.54141,0 1.08282,-0.12031 0.54141,-0.15039 0.93243,-0.51134 0.4211,-0.36094 0.60157,-0.87227 0.18047,-0.54141 0.18047,-1.08282 v -0.6918 h -1.98518 q -0.36094,0 -0.72188,0.0301 -0.36094,0 -0.72188,0.0602 -0.36094,0.0602 -0.72188,0.18047 -0.33086,0.0902 -0.66173,0.27071 -0.30078,0.15039 -0.51133,0.48125 -0.21055,0.30079 -0.21055,0.66173 0,0.45117 0.30079,0.81211 0.30078,0.33087 0.6918,0.51134 0.4211,0.15039 0.87227,0.21054 0.45118,0.0602 0.87228,0.0602 z"
         id="path10" /></g><g
       id="text10-1"
       style="font-weight:900;font-size:30.0784px;line-height:1;font-family:'Iosevka Sezimal QP';-inkscape-font-specification:'Iosevka Sezimal QP, Heavy';text-align:center;text-decoration-color:#d40000;text-anchor:middle;fill:#ffffff;stroke-width:4.18823;stroke-linecap:round;stroke-miterlimit:2.6"
       aria-label="3&#10;tri"><path
         d="m 66.572957,211.42738 q -0.872274,0 -1.744548,-0.12031 -0.872273,-0.12032 -1.68439,-0.4211 -0.782038,-0.33086 -1.50392,-0.8422 -0.691803,-0.54141 -1.203136,-1.26329 -0.481254,-0.72188 -0.721882,-1.56408 -0.240627,-0.84219 -0.240627,-1.71447 v -0.18047 h 4.391447 v 0.0902 q 0,0.51133 0.18047,0.99259 0.210549,0.48125 0.601568,0.81211 0.391019,0.33087 0.902352,0.48126 0.511333,0.12031 1.022666,0.12031 0.541411,0 1.052744,-0.15039 0.541411,-0.18047 0.93243,-0.57149 0.391019,-0.39102 0.571489,-0.90235 0.180471,-0.54141 0.180471,-1.1129 0,-0.51134 -0.150392,-0.99259 -0.150392,-0.48125 -0.451176,-0.90235 -0.270706,-0.4211 -0.691803,-0.72188 -0.391019,-0.33087 -0.872274,-0.51134 -0.481254,-0.18047 -0.992587,-0.21055 -0.511333,-0.0301 -1.022666,-0.0301 v -3.60941 q 0.691804,0 1.383607,-0.12032 0.691803,-0.15039 1.203136,-0.57148 0.541411,-0.45118 0.812116,-1.11291 0.300784,-0.66172 0.300784,-1.35352 0,-0.45118 -0.150392,-0.93243 -0.120313,-0.48126 -0.421097,-0.8422 -0.300784,-0.36094 -0.75196,-0.54141 -0.451176,-0.18047 -0.93243,-0.18047 -0.451176,0 -0.902352,0.18047 -0.451176,0.15039 -0.75196,0.51133 -0.300784,0.33086 -0.451176,0.78204 -0.120314,0.45118 -0.120314,0.93243 v 0.0902 h -4.391446 v -0.24063 q 0,-0.81212 0.210548,-1.62423 0.210549,-0.8422 0.631647,-1.534 0.451176,-0.72188 1.082822,-1.2633 0.661725,-0.54141 1.413685,-0.87227 0.782038,-0.33086 1.594155,-0.45118 0.842195,-0.12031 1.684391,-0.12031 0.842195,0 1.68439,0.15039 0.842195,0.12032 1.594155,0.48126 0.782038,0.33086 1.413685,0.90235 0.661725,0.57149 1.082822,1.29337 0.421098,0.72188 0.631647,1.56408 0.210548,0.81211 0.210548,1.65431 0,0.75196 -0.18047,1.50392 -0.18047,0.72188 -0.57149,1.38361 -0.36094,0.63164 -0.93243,1.17305 -0.541411,0.54141 -1.203136,0.90236 0.75196,0.36094 1.383606,0.90235 0.661725,0.54141 1.082823,1.26329 0.451176,0.6918 0.661725,1.50392 0.240627,0.81212 0.240627,1.65431 0,0.87228 -0.240627,1.74455 -0.240628,0.87227 -0.721882,1.62423 -0.451176,0.75196 -1.142979,1.35353 -0.691803,0.57149 -1.50392,0.93243 -0.812117,0.33086 -1.714469,0.45118 -0.872273,0.15039 -1.774625,0.15039 z"
         id="path5" /><path
         d="m 53.368539,241.50578 q -0.842195,0 -1.68439,-0.21055 -0.812117,-0.21055 -1.50392,-0.6918 -0.661725,-0.51134 -1.173058,-1.20314 -0.481254,-0.72188 -0.782038,-1.50392 -0.270706,-0.81212 -0.360941,-1.62423 -0.09023,-0.8422 -0.09023,-1.71447 v -5.32388 h -2.556664 v -3.60941 h 2.556664 v -6.46685 h 4.361368 v 6.46685 h 5.203563 v 3.60941 H 52.13533 v 5.32388 q 0,0.33086 0,0.66172 0.03008,0.30079 0.06016,0.63165 0.06016,0.33086 0.120314,0.63165 0.06016,0.30078 0.18047,0.60156 0.120314,0.30079 0.330863,0.57149 0.240627,0.24063 0.541411,0.24063 0.391019,0 0.631646,-0.30078 0.270706,-0.30079 0.39102,-0.66173 0.120313,-0.36094 0.150392,-0.72188 0.06016,-0.39102 0.06016,-0.75196 v -0.0602 H 58.9932 v 0.12032 q 0,0.78204 -0.150392,1.534 -0.150392,0.75196 -0.481255,1.47384 -0.330862,0.6918 -0.842195,1.29337 -0.511333,0.60157 -1.173057,0.99259 -0.661725,0.36094 -1.443764,0.51133 -0.75196,0.18047 -1.533998,0.18047 z m 9.534863,-0.24063 v -3.60941 h 2.195724 v -8.42195 h -2.195724 v -3.60941 h 6.557092 v 2.85745 q 0.300784,-0.66172 0.691803,-1.23321 0.421097,-0.60157 0.962509,-1.02267 0.571489,-0.45117 1.263292,-0.63164 0.691804,-0.21055 1.413685,-0.21055 0.601568,0 1.173058,0.24062 0.571489,0.21055 0.962508,0.66173 0.421098,0.45117 0.661725,1.02266 0.270706,0.54142 0.391019,1.14298 0.120314,0.60157 0.150392,1.20314 0.06016,0.60157 0.06016,1.20314 h -4.361368 q 0,-0.30079 -0.06016,-0.60157 -0.03008,-0.33086 -0.150392,-0.60157 -0.120314,-0.30078 -0.39102,-0.48125 -0.240627,-0.18048 -0.571489,-0.18048 -0.421098,0 -0.812117,0.21055 -0.360941,0.18047 -0.631646,0.54141 -0.240628,0.33087 -0.39102,0.75196 -0.120313,0.39102 -0.210548,0.81212 -0.09024,0.39102 -0.120314,0.81212 -0.03008,0.4211 -0.03008,0.84219 v 4.69223 h 2.646899 v 3.60941 z m 24.243201,0.24063 q -0.691803,0 -1.353528,-0.15039 -0.661725,-0.12032 -1.263293,-0.45118 -0.571489,-0.36094 -1.022665,-0.87227 -0.421098,-0.54141 -0.691803,-1.17306 -0.270706,-0.63165 -0.39102,-1.29337 -0.09024,-0.66173 -0.09024,-1.35353 v -6.97819 h -1.834782 v -3.60941 h 6.226229 v 10.5876 q 0,0.15039 0,0.33086 0,0.1504 0,0.33087 0.03008,0.15039 0.06016,0.30078 0.03008,0.15039 0.09024,0.30078 0.06016,0.1504 0.150392,0.30079 0.120313,0.12031 0.300784,0.12031 0.240627,0 0.391019,-0.18047 0.150392,-0.21055 0.210549,-0.4211 0.09024,-0.24062 0.120313,-0.48125 0.03008,-0.24063 0.06016,-0.48126 l 3.789878,0.93243 q -0.09023,0.90236 -0.481254,1.71447 -0.360941,0.81212 -1.022666,1.41369 -0.631646,0.60157 -1.50392,0.87227 -0.872273,0.24063 -1.744547,0.24063 z m -2.616821,-17.6861 q -0.541411,0 -1.082822,-0.15039 -0.541411,-0.18047 -0.93243,-0.54141 -0.360941,-0.39102 -0.541411,-0.93243 -0.150392,-0.54141 -0.150392,-1.08283 0,-0.54141 0.150392,-1.08282 0.18047,-0.54141 0.541411,-0.90235 0.391019,-0.39102 0.93243,-0.54141 0.541411,-0.18047 1.082822,-0.18047 0.541412,0 1.082823,0.18047 0.541411,0.15039 0.902352,0.54141 0.391019,0.36094 0.541411,0.90235 0.18047,0.54141 0.18047,1.08282 0,0.54142 -0.18047,1.08283 -0.150392,0.54141 -0.541411,0.93243 -0.360941,0.36094 -0.902352,0.54141 -0.541411,0.15039 -1.082823,0.15039 z"
         id="path6" /></g><g
       id="text12-5"
       style="font-weight:900;font-size:30.0784px;line-height:1;font-family:'Iosevka Sezimal QP';-inkscape-font-specification:'Iosevka Sezimal QP, Heavy';text-align:center;text-decoration-color:#d40000;text-anchor:middle;fill:#ffffff;stroke-width:4.18823;stroke-linecap:round;stroke-miterlimit:2.6"
       aria-label="4&#10;char"><path
         d="M 68.152098,103.72179 V 98.488145 H 61.474693 V 81.614163 h 4.391447 v 13.264574 h 2.285958 v -9.053598 h 4.391447 v 9.053598 h 2.346115 v 3.609408 h -2.346115 v 5.233645 z"
         id="path3" /><path
         d="m 41.021364,134.04081 q -0.902352,0 -1.804704,-0.15039 -0.872273,-0.15039 -1.714468,-0.51133 -0.812117,-0.39102 -1.473842,-0.99259 -0.661725,-0.63165 -1.112901,-1.41368 -0.421097,-0.81212 -0.601568,-1.68439 -0.150392,-0.90236 -0.150392,-1.80471 v -3.00784 q 0,-0.90235 0.150392,-1.77462 0.180471,-0.90236 0.601568,-1.68439 0.451176,-0.81212 1.112901,-1.41369 0.661725,-0.63164 1.473842,-0.99259 0.842195,-0.39101 1.714468,-0.54141 0.902352,-0.15039 1.804704,-0.15039 0.842196,0 1.684391,0.12031 0.872273,0.12032 1.654312,0.45118 0.782038,0.30078 1.443763,0.8422 0.691803,0.54141 1.142979,1.26329 0.481255,0.72188 0.691803,1.56408 0.240628,0.81211 0.240628,1.65431 v 0.21055 h -4.391447 v -0.0902 q 0,-0.48125 -0.18047,-0.96251 -0.150392,-0.48125 -0.511333,-0.81211 -0.330862,-0.33087 -0.812117,-0.48126 -0.481254,-0.15039 -0.962509,-0.15039 -0.541411,0 -1.082822,0.21055 -0.511333,0.21055 -0.842195,0.66172 -0.300784,0.45118 -0.421098,0.99259 -0.120313,0.54141 -0.120313,1.08282 v 3.00784 q 0,0.54141 0.120313,1.08282 0.120314,0.54142 0.421098,0.99259 0.330862,0.45118 0.842195,0.66173 0.541411,0.21055 1.082822,0.21055 0.481255,0 0.962509,-0.1504 0.481255,-0.15039 0.812117,-0.48125 0.360941,-0.33086 0.511333,-0.81212 0.18047,-0.48125 0.18047,-0.96251 v -0.0902 h 4.391447 v 0.21055 q 0,0.84219 -0.240628,1.68439 -0.210548,0.81211 -0.691803,1.534 -0.451176,0.72188 -1.142979,1.26329 -0.661725,0.54141 -1.443763,0.87227 -0.782039,0.30079 -1.654312,0.4211 -0.842195,0.12031 -1.684391,0.12031 z m 11.429803,-0.24062 v -22.10763 h 4.391446 v 8.84305 q 0.270706,-0.57149 0.691804,-1.08282 0.421097,-0.51133 0.962508,-0.87227 0.541412,-0.36094 1.173058,-0.51134 0.661725,-0.15039 1.293371,-0.15039 0.782039,0 1.533999,0.24063 0.75196,0.21055 1.353527,0.72188 0.601568,0.48125 0.992588,1.14298 0.391019,0.66172 0.631646,1.41368 0.240627,0.72189 0.300784,1.50392 0.09024,0.75196 0.09024,1.534 v 9.32431 h -4.391446 v -9.32431 q 0,-0.54141 -0.120314,-1.05274 -0.09023,-0.54141 -0.391019,-0.96251 -0.270705,-0.45118 -0.782038,-0.6918 -0.481255,-0.24063 -1.022666,-0.24063 -0.541411,0 -1.052744,0.24063 -0.481254,0.24062 -0.782038,0.6918 -0.270706,0.4211 -0.391019,0.96251 -0.09024,0.51133 -0.09024,1.05274 v 9.32431 z m 22.94983,0.24062 q -0.631647,0 -1.293372,-0.0902 -0.631646,-0.0902 -1.233214,-0.33086 -0.601568,-0.24063 -1.112901,-0.66173 -0.511333,-0.4211 -0.872273,-0.96251 -0.330863,-0.54141 -0.481255,-1.17306 -0.150392,-0.66172 -0.150392,-1.29337 0,-0.90235 0.270706,-1.74454 0.270705,-0.87228 0.842195,-1.50392 0.601568,-0.66173 1.383606,-1.08283 0.782039,-0.45117 1.624234,-0.6918 0.872274,-0.24063 1.744547,-0.33086 0.872274,-0.0902 1.744547,-0.0902 H 79.8526 v -0.45117 q 0,-0.51134 -0.180471,-0.99259 -0.18047,-0.48125 -0.601568,-0.81212 -0.391019,-0.33086 -0.902352,-0.45117 -0.481254,-0.12032 -0.992587,-0.12032 -0.451176,0 -0.902352,0.0602 -0.421097,0.0602 -0.842195,0.27071 -0.391019,0.18047 -0.661725,0.54141 -0.270705,0.36094 -0.270705,0.81211 v 0.0301 h -4.060584 v -0.12031 q 0,-0.78204 0.270705,-1.534 0.270706,-0.75196 0.75196,-1.32345 0.511333,-0.60157 1.173058,-1.02266 0.691803,-0.4211 1.443763,-0.63165 0.75196,-0.24063 1.533998,-0.33086 0.782039,-0.0902 1.564077,-0.0902 0.842195,0 1.654312,0.12031 0.842195,0.0902 1.624234,0.39102 0.782038,0.30079 1.443763,0.81212 0.691803,0.51133 1.142979,1.23322 0.481255,0.6918 0.661725,1.50392 0.210549,0.81211 0.210549,1.65431 v 10.1665 H 79.8526 v -2.22581 q -0.300784,0.60157 -0.782039,1.08283 -0.481254,0.48125 -1.082822,0.81211 -0.57149,0.33087 -1.233214,0.45118 -0.661725,0.12031 -1.353528,0.12031 z m 1.654312,-3.3387 q 0.541411,0 1.082822,-0.12031 0.541411,-0.15039 0.93243,-0.51134 0.421098,-0.36094 0.601568,-0.87227 0.180471,-0.54141 0.180471,-1.08282 v -0.6918 h -1.985175 q -0.36094,0 -0.721881,0.0301 -0.360941,0 -0.721882,0.0602 -0.360941,0.0602 -0.721881,0.18047 -0.330863,0.0902 -0.661725,0.27071 -0.300784,0.15039 -0.511333,0.48125 -0.210549,0.30079 -0.210549,0.66173 0,0.45117 0.300784,0.81211 0.300784,0.33086 0.691803,0.51134 0.421098,0.15039 0.872274,0.21054 0.451176,0.0602 0.872274,0.0602 z m 11.610273,3.09808 v -3.60941 h 2.195723 v -8.42195 h -2.195723 v -3.60941 h 6.557091 v 2.85745 q 0.300784,-0.66173 0.691803,-1.23322 0.421097,-0.60157 0.962509,-1.02266 0.571489,-0.45118 1.263292,-0.63165 0.691804,-0.21055 1.413685,-0.21055 0.601568,0 1.173058,0.24063 0.57149,0.21055 0.96251,0.66172 0.4211,0.45118 0.66172,1.02267 0.27071,0.54141 0.39102,1.14298 0.12032,0.60157 0.15039,1.20313 0.0602,0.60157 0.0602,1.20314 h -4.361367 q 0,-0.30078 -0.06016,-0.60157 -0.03008,-0.33086 -0.150392,-0.60157 -0.120314,-0.30078 -0.39102,-0.48125 -0.240627,-0.18047 -0.571489,-0.18047 -0.421098,0 -0.812117,0.21055 -0.360941,0.18047 -0.631646,0.54141 -0.240628,0.33086 -0.39102,0.75196 -0.120313,0.39102 -0.210548,0.81212 -0.09024,0.39102 -0.120314,0.81211 -0.03008,0.4211 -0.03008,0.8422 v 4.69223 h 2.646899 v 3.60941 z"
         id="path4" /></g><g
       id="text7-1"
       style="font-weight:900;font-size:30.0784px;line-height:1;font-family:'Iosevka Sezimal QP';-inkscape-font-specification:'Iosevka Sezimal QP, Heavy';text-align:center;text-decoration-color:#d40000;text-anchor:middle;fill:#ffffff;stroke-width:4.18823;stroke-linecap:round;stroke-miterlimit:2.6"
       aria-label="2&#10;di"><path
         d="m 153.07802,264.85907 v -3.60941 l 6.85787,-7.76023 q 0.4211,-0.48125 0.8422,-0.9625 0.4211,-0.48126 0.75196,-1.02267 0.33086,-0.54141 0.51133,-1.14298 0.18047,-0.63165 0.18047,-1.26329 0,-0.54141 -0.12031,-1.08282 -0.0902,-0.54142 -0.4211,-0.99259 -0.30078,-0.45118 -0.81212,-0.66173 -0.51133,-0.24062 -1.05274,-0.24062 -0.48125,0 -0.96251,0.15039 -0.45117,0.15039 -0.81212,0.51133 -0.33086,0.33086 -0.48125,0.81212 -0.15039,0.45117 -0.15039,0.93243 v 0.0902 h -4.39145 v -0.21054 q 0,-0.8422 0.21055,-1.65432 0.24063,-0.84219 0.6918,-1.534 0.45118,-0.72188 1.1129,-1.26329 0.69181,-0.54141 1.47385,-0.87227 0.78203,-0.33086 1.62423,-0.45118 0.84219,-0.12031 1.68439,-0.12031 0.90235,0 1.77463,0.15039 0.90235,0.15039 1.71446,0.54141 0.81212,0.39102 1.47385,1.02267 0.66172,0.60157 1.08282,1.41368 0.4211,0.78204 0.57149,1.68439 0.18047,0.87228 0.18047,1.77463 0,0.96251 -0.24063,1.89494 -0.24063,0.93243 -0.72188,1.77462 -0.48125,0.8422 -1.1129,1.59416 -0.60157,0.72188 -1.23322,1.41368 l -0.0601,0.0902 h -0.0301 l -4.75239,5.38403 h 8.03093 v 3.60941 z"
         id="path13" /><path
         d="m 151.84481,295.1781 q -0.78204,0 -1.56408,-0.21055 -0.75196,-0.21055 -1.35353,-0.69181 -0.60156,-0.51133 -1.02266,-1.17305 -0.4211,-0.66173 -0.66173,-1.41369 -0.24062,-0.75196 -0.33086,-1.50392 -0.0902,-0.78204 -0.0902,-1.56407 v -3.00784 q 0,-0.78204 0.0902,-1.534 0.0902,-0.78204 0.33086,-1.534 0.24063,-0.75196 0.66173,-1.41369 0.4211,-0.66172 1.02266,-1.14298 0.60157,-0.51133 1.35353,-0.72188 0.78204,-0.21055 1.56408,-0.21055 0.66172,0 1.32345,0.1504 0.66172,0.15039 1.20314,0.51133 0.57148,0.36094 0.99258,0.87227 0.45118,0.51134 0.72188,1.1129 v -8.87312 h 4.39145 v 22.10762 h -4.39145 v -2.40627 q -0.2707,0.60157 -0.72188,1.1129 -0.4211,0.51133 -0.99258,0.87227 -0.54142,0.36094 -1.20314,0.51133 -0.66173,0.1504 -1.32345,0.1504 z m 1.8047,-3.60941 q 0.54141,0 1.05275,-0.21055 0.51133,-0.24063 0.84219,-0.66172 0.33087,-0.45118 0.4211,-0.99259 0.12031,-0.54141 0.12031,-1.08282 v -3.00784 q 0,-0.54142 -0.12031,-1.08283 -0.0902,-0.54141 -0.4211,-0.96251 -0.33086,-0.45117 -0.84219,-0.66172 -0.51134,-0.24063 -1.05275,-0.24063 -0.54141,0 -1.05274,0.24063 -0.51133,0.21055 -0.8422,0.66172 -0.33086,0.4211 -0.45117,0.96251 -0.0902,0.54141 -0.0902,1.08283 v 3.00784 q 0,0.54141 0.0902,1.08282 0.12031,0.54141 0.45117,0.99259 0.33087,0.42109 0.8422,0.66172 0.51133,0.21055 1.05274,0.21055 z m 17.77635,3.60941 q -0.6918,0 -1.35353,-0.1504 -0.66172,-0.12031 -1.26329,-0.45117 -0.57149,-0.36094 -1.02267,-0.87227 -0.4211,-0.54142 -0.6918,-1.17306 -0.27071,-0.63165 -0.39102,-1.29337 -0.0902,-0.66173 -0.0902,-1.35353 v -6.97819 h -1.83478 v -3.60941 h 6.22623 v 10.5876 q 0,0.15039 0,0.33086 0,0.15039 0,0.33086 0.0301,0.1504 0.0602,0.30079 0.0301,0.15039 0.0902,0.30078 0.0602,0.15039 0.15039,0.30079 0.12032,0.12031 0.30079,0.12031 0.24063,0 0.39102,-0.18047 0.15039,-0.21055 0.21055,-0.4211 0.0902,-0.24063 0.12031,-0.48125 0.0301,-0.24063 0.0602,-0.48126 l 3.78988,0.93243 q -0.0902,0.90235 -0.48126,1.71447 -0.36094,0.81212 -1.02266,1.41369 -0.63165,0.60156 -1.50392,0.87227 -0.87228,0.24063 -1.74455,0.24063 z m -2.61682,-17.6861 q -0.54141,0 -1.08282,-0.15039 -0.54142,-0.18047 -0.93243,-0.54142 -0.36095,-0.39101 -0.54142,-0.93243 -0.15039,-0.54141 -0.15039,-1.08282 0,-0.54141 0.15039,-1.08282 0.18047,-0.54141 0.54142,-0.90235 0.39101,-0.39102 0.93243,-0.54141 0.54141,-0.18047 1.08282,-0.18047 0.54141,0 1.08282,0.18047 0.54141,0.15039 0.90235,0.54141 0.39102,0.36094 0.54141,0.90235 0.18047,0.54141 0.18047,1.08282 0,0.54141 -0.18047,1.08282 -0.15039,0.54142 -0.54141,0.93243 -0.36094,0.36095 -0.90235,0.54142 -0.54141,0.15039 -1.08282,0.15039 z"
         id="path14" /></g><g
       id="text5-8"
       style="font-weight:900;font-size:30.0784px;line-height:1;font-family:'Iosevka Sezimal QP';-inkscape-font-specification:'Iosevka Sezimal QP, Heavy';text-align:center;text-decoration-color:#d40000;text-anchor:middle;fill:#ffffff;stroke-width:4.18823;stroke-linecap:round;stroke-miterlimit:2.6"
       aria-label="5&#10;pan"><path
         d="m 161.59021,47.176994 q -0.84219,0 -1.65431,-0.120313 -0.81211,-0.120314 -1.59415,-0.421098 -0.75196,-0.300784 -1.41369,-0.812117 -0.66172,-0.511333 -1.14298,-1.173057 -0.48125,-0.691804 -0.75196,-1.473842 -0.24062,-0.812117 -0.30078,-1.624234 h 4.42152 q 0.0602,0.421098 0.24063,0.842196 0.21055,0.391019 0.54141,0.661724 0.33086,0.270706 0.75196,0.39102 0.45118,0.120313 0.90235,0.120313 0.4211,0 0.81212,-0.150392 0.39102,-0.150392 0.6918,-0.421097 0.30079,-0.300784 0.48126,-0.661725 0.21055,-0.391019 0.30078,-0.782039 0.12032,-0.421097 0.15039,-0.842195 0.0301,-0.421097 0.0301,-0.842195 v -0.03008 q 0,-0.391019 -0.0301,-0.812117 -0.0301,-0.421098 -0.15039,-0.812117 -0.0902,-0.391019 -0.2707,-0.75196 -0.1504,-0.391019 -0.45118,-0.691803 -0.2707,-0.300784 -0.66172,-0.451176 -0.36094,-0.18047 -0.78204,-0.18047 -0.36094,0 -0.75196,0.06016 -0.36094,0.06016 -0.69181,0.240628 -0.33086,0.150392 -0.57148,0.481254 -0.24063,0.300784 -0.24063,0.691803 h -4.39145 v -12.78332 h 12.48254 v 3.609408 h -8.09109 v 4.33129 q 0.54141,-0.120314 1.1129,-0.150392 0.57149,-0.06016 1.14298,-0.06016 0.93243,0 1.86486,0.18047 0.93243,0.180471 1.74455,0.661725 0.84219,0.451176 1.44376,1.173058 0.63165,0.721881 0.99259,1.594155 0.39102,0.872274 0.54141,1.804704 0.15039,0.93243 0.15039,1.894939 0,0.932431 -0.15039,1.894939 -0.15039,0.932431 -0.54141,1.804704 -0.39102,0.872274 -1.05275,1.594155 -0.63164,0.721882 -1.47384,1.203136 -0.81212,0.451176 -1.77463,0.631647 -0.93243,0.18047 -1.86486,0.180471 z"
         id="path1" /><path
         d="M 136.74544,83.481623 V 61.373999 h 4.39145 v 2.406272 q 0.27071,-0.601568 0.6918,-1.112901 0.45118,-0.511333 0.99259,-0.872274 0.57149,-0.36094 1.23322,-0.511332 0.66172,-0.150392 1.32345,-0.150392 0.78203,0 1.53399,0.210548 0.78204,0.210549 1.38361,0.721882 0.60157,0.481254 1.02267,1.142979 0.42109,0.661725 0.66172,1.413685 0.24063,0.75196 0.33086,1.533998 0.0902,0.75196 0.0902,1.533999 v 3.00784 q 0,0.782038 -0.0902,1.564077 -0.0902,0.75196 -0.33086,1.50392 -0.24063,0.75196 -0.66172,1.413684 -0.4211,0.661725 -1.02267,1.173058 -0.60157,0.481254 -1.38361,0.691803 -0.75196,0.210549 -1.53399,0.210549 -0.66173,0 -1.32345,-0.150392 -0.66173,-0.150392 -1.23322,-0.511333 -0.54141,-0.360941 -0.99259,-0.872273 -0.42109,-0.511333 -0.6918,-1.112901 v 8.873128 z m 6.8278,-9.835637 q 0.54141,0 1.05275,-0.210549 0.51133,-0.240627 0.84219,-0.661725 0.33086,-0.451176 0.4211,-0.992587 0.12031,-0.541411 0.12031,-1.082822 v -3.00784 q 0,-0.541411 -0.12031,-1.082823 -0.0902,-0.541411 -0.4211,-0.962508 -0.33086,-0.451176 -0.84219,-0.661725 -0.51134,-0.240627 -1.05275,-0.240627 -0.54141,0 -1.05274,0.240627 -0.51134,0.210549 -0.8422,0.661725 -0.33086,0.421097 -0.45117,0.962508 -0.0902,0.541412 -0.0902,1.082823 v 3.00784 q 0,0.541411 0.0902,1.082822 0.12031,0.541411 0.45117,0.992587 0.33086,0.421098 0.8422,0.661725 0.51133,0.210549 1.05274,0.210549 z m 16.12203,3.609408 q -0.63164,0 -1.29337,-0.09023 -0.63164,-0.09024 -1.23321,-0.330863 -0.60157,-0.240627 -1.1129,-0.661724 -0.51133,-0.421098 -0.87228,-0.962509 -0.33086,-0.541411 -0.48125,-1.173058 -0.15039,-0.661725 -0.15039,-1.293371 0,-0.902352 0.2707,-1.744547 0.27071,-0.872274 0.8422,-1.50392 0.60157,-0.661725 1.38361,-1.082823 0.78203,-0.451176 1.62423,-0.691803 0.87227,-0.240627 1.74455,-0.330862 0.87227,-0.09024 1.74454,-0.09024 h 1.98518 v -0.451176 q 0,-0.511333 -0.18047,-0.992588 -0.18047,-0.481254 -0.60157,-0.812116 -0.39102,-0.330863 -0.90235,-0.451176 -0.48126,-0.120314 -0.99259,-0.120314 -0.45118,0 -0.90235,0.06016 -0.4211,0.06016 -0.8422,0.270705 -0.39102,0.180471 -0.66172,0.541412 -0.27071,0.36094 -0.27071,0.812116 v 0.03008 h -4.06058 v -0.120314 q 0,-0.782038 0.2707,-1.533998 0.27071,-0.75196 0.75196,-1.32345 0.51134,-0.601568 1.17306,-1.022665 0.6918,-0.421098 1.44376,-0.631647 0.75196,-0.240627 1.534,-0.330862 0.78204,-0.09023 1.56408,-0.09023 0.8422,0 1.65431,0.120313 0.8422,0.09023 1.62424,0.391019 0.78203,0.300784 1.44376,0.812117 0.6918,0.511333 1.14298,1.233215 0.48125,0.691803 0.66172,1.50392 0.21055,0.812116 0.21055,1.654312 v 10.166499 h -4.06058 v -2.225802 q -0.30079,0.601568 -0.78204,1.082823 -0.48126,0.481254 -1.08282,0.812116 -0.57149,0.330863 -1.23322,0.451176 -0.66172,0.120314 -1.35353,0.120314 z m 1.65432,-3.338702 q 0.54141,0 1.08282,-0.120314 0.54141,-0.150392 0.93243,-0.511333 0.4211,-0.360941 0.60157,-0.872273 0.18047,-0.541412 0.18047,-1.082823 v -0.691803 h -1.98518 q -0.36094,0 -0.72188,0.03008 -0.36094,0 -0.72188,0.06016 -0.36094,0.06016 -0.72188,0.180471 -0.33086,0.09024 -0.66173,0.270705 -0.30078,0.150392 -0.51133,0.481255 -0.21055,0.300784 -0.21055,0.661724 0,0.451176 0.30079,0.812117 0.30078,0.330863 0.6918,0.511333 0.4211,0.150392 0.87227,0.210549 0.45118,0.06016 0.87228,0.06016 z m 11.48996,3.098075 V 61.373999 h 4.39144 v 2.376193 q 0.27071,-0.571489 0.69181,-1.082822 0.42109,-0.511333 0.9625,-0.872274 0.54142,-0.36094 1.17306,-0.511332 0.66173,-0.150392 1.29337,-0.150392 0.78204,0 1.534,0.240627 0.75196,0.210549 1.35353,0.721881 0.60157,0.481255 0.99259,1.14298 0.39102,0.661724 0.63164,1.413684 0.24063,0.721882 0.30079,1.50392 0.0902,0.75196 0.0902,1.533999 v 9.324304 h -4.39144 v -9.324304 q 0,-0.541411 -0.12032,-1.052744 -0.0902,-0.541411 -0.39102,-0.962509 -0.2707,-0.451176 -0.78204,-0.691803 -0.48125,-0.240627 -1.02266,-0.240627 -0.54141,0 -1.05275,0.240627 -0.48125,0.240627 -0.78203,0.691803 -0.27071,0.421098 -0.39102,0.962509 -0.0902,0.511333 -0.0902,1.052744 v 9.324304 z"
         id="path2" /></g><g
       id="text3-8-7"
       style="font-weight:900;font-size:30.0784px;line-height:1;font-family:'Iosevka Sezimal QP';-inkscape-font-specification:'Iosevka Sezimal QP, Heavy';text-align:center;text-decoration-color:#d40000;text-anchor:middle;fill:#ffffff;stroke-width:4.18823;stroke-linecap:round;stroke-miterlimit:2.6"
       aria-label="100&#10;ni"><path
         d="m 234.65023,211.18675 v -13.47512 l -1.59415,3.88011 -3.15823,-1.05274 4.75238,-11.45987 h 4.39145 v 22.10762 z m 19.34043,0.24063 q -0.90236,0 -1.80471,-0.15039 -0.90235,-0.12032 -1.74455,-0.48126 -0.81211,-0.39102 -1.50392,-1.02266 -0.66172,-0.63165 -1.1129,-1.41369 -0.42109,-0.78204 -0.60156,-1.68439 -0.18048,-0.90235 -0.18048,-1.8047 v -9.4747 q 0,-0.90235 0.18048,-1.8047 0.18047,-0.90235 0.60156,-1.68439 0.45118,-0.78204 1.1129,-1.41369 0.69181,-0.63164 1.50392,-0.99258 0.8422,-0.39102 1.74455,-0.51134 0.90235,-0.15039 1.80471,-0.15039 0.90235,0 1.8047,0.15039 0.90235,0.12032 1.71447,0.51134 0.84219,0.36094 1.50392,0.99258 0.6918,0.63165 1.1129,1.41369 0.45117,0.78204 0.63165,1.68439 0.18047,0.90235 0.18047,1.8047 v 9.4747 q 0,0.90235 -0.18047,1.8047 -0.18048,0.90235 -0.63165,1.68439 -0.4211,0.78204 -1.1129,1.41369 -0.66173,0.63164 -1.50392,1.02266 -0.81212,0.36094 -1.71447,0.48126 -0.90235,0.15039 -1.8047,0.15039 z m 2.55666,-11.24932 v -4.78247 q 0,-0.54141 -0.12031,-1.08282 -0.12032,-0.57149 -0.48126,-0.99259 -0.33086,-0.45117 -0.87227,-0.66172 -0.54141,-0.21055 -1.08282,-0.21055 -0.54142,0 -1.08283,0.21055 -0.54141,0.21055 -0.90235,0.66172 -0.33086,0.4211 -0.45118,0.99259 -0.12031,0.54141 -0.12031,1.08282 v 1.38361 z m -2.55666,7.63991 q 0.54141,0 1.08282,-0.21055 0.54141,-0.21055 0.87227,-0.63164 0.36094,-0.45118 0.48126,-0.99259 0.12031,-0.57149 0.12031,-1.1129 v -1.38361 l -5.11333,-3.39886 v 4.78247 q 0,0.54141 0.12031,1.1129 0.12032,0.54141 0.45118,0.99259 0.36094,0.42109 0.90235,0.63164 0.54141,0.21055 1.08283,0.21055 z m 18.04705,3.60941 q -0.90236,0 -1.80471,-0.15039 -0.90235,-0.12032 -1.74455,-0.48126 -0.81211,-0.39102 -1.50392,-1.02266 -0.66172,-0.63165 -1.1129,-1.41369 -0.42109,-0.78204 -0.60156,-1.68439 -0.18047,-0.90235 -0.18047,-1.8047 v -9.4747 q 0,-0.90235 0.18047,-1.8047 0.18047,-0.90235 0.60156,-1.68439 0.45118,-0.78204 1.1129,-1.41369 0.69181,-0.63164 1.50392,-0.99258 0.8422,-0.39102 1.74455,-0.51134 0.90235,-0.15039 1.80471,-0.15039 0.90235,0 1.8047,0.15039 0.90235,0.12032 1.71447,0.51134 0.84219,0.36094 1.50392,0.99258 0.6918,0.63165 1.1129,1.41369 0.45118,0.78204 0.63165,1.68439 0.18047,0.90235 0.18047,1.8047 v 9.4747 q 0,0.90235 -0.18047,1.8047 -0.18047,0.90235 -0.63165,1.68439 -0.4211,0.78204 -1.1129,1.41369 -0.66173,0.63164 -1.50392,1.02266 -0.81212,0.36094 -1.71447,0.48126 -0.90235,0.15039 -1.8047,0.15039 z m 2.55666,-11.24932 v -4.78247 q 0,-0.54141 -0.12031,-1.08282 -0.12032,-0.57149 -0.48126,-0.99259 -0.33086,-0.45117 -0.87227,-0.66172 -0.54141,-0.21055 -1.08282,-0.21055 -0.54142,0 -1.08283,0.21055 -0.54141,0.21055 -0.90235,0.66172 -0.33086,0.4211 -0.45117,0.99259 -0.12032,0.54141 -0.12032,1.08282 v 1.38361 z m -2.55666,7.63991 q 0.54141,0 1.08282,-0.21055 0.54141,-0.21055 0.87227,-0.63164 0.36094,-0.45118 0.48126,-0.99259 0.12031,-0.57149 0.12031,-1.1129 v -1.38361 l -5.11333,-3.39886 v 4.78247 q 0,0.54141 0.12032,1.1129 0.12031,0.54141 0.45117,0.99259 0.36094,0.42109 0.90235,0.63164 0.54141,0.21055 1.08283,0.21055 z"
         id="path11" /><path
         d="m 241.2675,241.26515 v -15.64077 h 4.39144 v 2.3762 q 0.27071,-0.57149 0.69181,-1.08282 0.4211,-0.51134 0.96251,-0.87228 0.54141,-0.36094 1.17305,-0.51133 0.66173,-0.15039 1.29338,-0.15039 0.78203,0 1.53399,0.24062 0.75196,0.21055 1.35353,0.72189 0.60157,0.48125 0.99259,1.14297 0.39102,0.66173 0.63165,1.41369 0.24062,0.72188 0.30078,1.50392 0.0902,0.75196 0.0902,1.534 v 9.3243 h -4.39144 v -9.3243 q 0,-0.54141 -0.12032,-1.05275 -0.0902,-0.54141 -0.39101,-0.9625 -0.27071,-0.45118 -0.78204,-0.69181 -0.48126,-0.24063 -1.02267,-0.24063 -0.54141,0 -1.05274,0.24063 -0.48126,0.24063 -0.78204,0.69181 -0.27071,0.42109 -0.39102,0.9625 -0.0902,0.51134 -0.0902,1.05275 v 9.3243 z m 24.36351,0.24063 q -0.6918,0 -1.35353,-0.15039 -0.66172,-0.12032 -1.26329,-0.45118 -0.57149,-0.36094 -1.02266,-0.87227 -0.4211,-0.54141 -0.69181,-1.17306 -0.2707,-0.63165 -0.39102,-1.29337 -0.0902,-0.66173 -0.0902,-1.35353 v -6.97819 h -1.83478 v -3.60941 h 6.22623 v 10.5876 q 0,0.15039 0,0.33086 0,0.1504 0,0.33087 0.0301,0.15039 0.0601,0.30078 0.0301,0.15039 0.0902,0.30078 0.0601,0.1504 0.15039,0.30079 0.12031,0.12031 0.30078,0.12031 0.24063,0 0.39102,-0.18047 0.15039,-0.21055 0.21055,-0.4211 0.0902,-0.24062 0.12031,-0.48125 0.0301,-0.24063 0.0602,-0.48126 l 3.78988,0.93243 q -0.0902,0.90236 -0.48125,1.71447 -0.36095,0.81212 -1.02267,1.41369 -0.63165,0.60157 -1.50392,0.87227 -0.87227,0.24063 -1.74455,0.24063 z m -2.61682,-17.6861 q -0.54141,0 -1.08282,-0.15039 -0.54141,-0.18047 -0.93243,-0.54141 -0.36094,-0.39102 -0.54141,-0.93243 -0.15039,-0.54141 -0.15039,-1.08283 0,-0.54141 0.15039,-1.08282 0.18047,-0.54141 0.54141,-0.90235 0.39102,-0.39102 0.93243,-0.54141 0.54141,-0.18047 1.08282,-0.18047 0.54141,0 1.08282,0.18047 0.54142,0.15039 0.90236,0.54141 0.39102,0.36094 0.54141,0.90235 0.18047,0.54141 0.18047,1.08282 0,0.54142 -0.18047,1.08283 -0.15039,0.54141 -0.54141,0.93243 -0.36094,0.36094 -0.90236,0.54141 -0.54141,0.15039 -1.08282,0.15039 z"
         id="path12" /></g></g><line
     x1="285.42242"
     y1="268.84445"
     x2="223.46124"
     y2="268.84445"
     style="stroke:#000000;stroke-width:0.965714;stroke-linecap:round;stroke-opacity:1"
     id="line1702-1-3" /><line
     x1="285.42242"
     y1="268.84445"
     x2="316.40305"
     y2="215.17213"
     style="stroke:#000000;stroke-width:0.965714;stroke-linecap:round;stroke-opacity:1"
     id="line1703-2-91" /><line
     x1="316.40305"
     y1="215.17213"
     x2="285.42242"
     y2="161.4998"
     style="stroke:#000000;stroke-width:0.965714;stroke-linecap:round;stroke-opacity:1"
     id="line1704-9-8" /><line
     x1="285.42242"
     y1="161.4998"
     x2="223.46124"
     y2="161.4998"
     style="stroke:#000000;stroke-width:0.965714;stroke-linecap:round;stroke-opacity:1"
     id="line1705-3-8" /><line
     x1="285.42242"
     y1="161.4998"
     x2="316.40305"
     y2="107.82748"
     style="stroke:#000000;stroke-width:0.965714;stroke-linecap:round;stroke-opacity:1"
     id="line1706-9-7" /><line
     x1="316.40305"
     y1="107.82748"
     x2="285.42242"
     y2="54.155167"
     style="stroke:#000000;stroke-width:0.965714;stroke-linecap:round;stroke-opacity:1"
     id="line1707-0-05" /><line
     x1="285.42242"
     y1="54.155167"
     x2="223.46124"
     y2="54.155167"
     style="stroke:#000000;stroke-width:0.965714;stroke-linecap:round;stroke-opacity:1"
     id="line1708-88-2" /><line
     x1="192.48062"
     y1="322.51678"
     x2="130.51938"
     y2="322.51678"
     style="fill:#000000;fill-opacity:1;stroke:#000000;stroke-width:0.965714;stroke-linecap:round;stroke-opacity:1"
     id="line1713-5-7" /><line
     x1="192.48062"
     y1="322.51678"
     x2="223.46124"
     y2="268.84445"
     style="fill:#000000;fill-opacity:1;stroke:#000000;stroke-width:0.965714;stroke-linecap:round;stroke-opacity:1"
     id="line1714-0-9" /><line
     x1="130.51938"
     y1="322.51678"
     x2="99.538734"
     y2="268.84445"
     style="fill:#000000;fill-opacity:1;stroke:#000000;stroke-width:0.965714;stroke-linecap:round;stroke-opacity:1"
     id="line1715-9-19" /><line
     x1="223.46124"
     y1="268.84445"
     x2="192.48062"
     y2="215.17213"
     style="fill:#000000;fill-opacity:1;stroke:#000000;stroke-width:0.965714;stroke-linecap:round;stroke-opacity:1"
     id="line1716-6-6" /><line
     x1="192.48062"
     y1="215.17213"
     x2="130.51938"
     y2="215.17213"
     style="fill:#000000;fill-opacity:1;stroke:#000000;stroke-width:0.965714;stroke-linecap:round;stroke-opacity:1"
     id="line1717-3-3" /><line
     x1="192.48062"
     y1="215.17213"
     x2="223.46124"
     y2="161.4998"
     style="stroke:#000000;stroke-width:0.965714;stroke-linecap:round;stroke-opacity:1"
     id="line1718-8-6" /><line
     x1="223.46124"
     y1="161.4998"
     x2="192.48062"
     y2="107.82748"
     style="stroke:#000000;stroke-width:0.965714;stroke-linecap:round;stroke-opacity:1"
     id="line1719-5-8" /><line
     x1="192.48062"
     y1="107.82748"
     x2="130.51938"
     y2="107.82748"
     style="stroke:#000000;stroke-width:0.965714;stroke-linecap:round;stroke-opacity:1"
     id="line1720-6-4" /><line
     x1="192.48062"
     y1="107.82748"
     x2="223.46124"
     y2="54.155167"
     style="stroke:#000000;stroke-width:0.965714;stroke-linecap:round;stroke-opacity:1"
     id="line1721-1-66" /><line
     x1="223.46124"
     y1="54.155167"
     x2="192.48062"
     y2="0.48285699"
     style="stroke:#000000;stroke-width:0.965714;stroke-linecap:round;stroke-opacity:1"
     id="line1722-1-72" /><line
     x1="192.48062"
     y1="0.48285699"
     x2="130.51938"
     y2="0.48285699"
     style="stroke:#000000;stroke-width:0.965714;stroke-linecap:round;stroke-opacity:1"
     id="line1723-5-7" /><line
     x1="99.538734"
     y1="268.84445"
     x2="37.577541"
     y2="268.84445"
     style="stroke:#000000;stroke-width:0.965714;stroke-linecap:round;stroke-opacity:1"
     id="line1724-9-4" /><line
     x1="99.538734"
     y1="268.84445"
     x2="130.51938"
     y2="215.17213"
     style="fill:#000000;fill-opacity:1;stroke:#000000;stroke-width:0.965714;stroke-linecap:round;stroke-opacity:1"
     id="line1725-8-1" /><line
     x1="130.51938"
     y1="215.17213"
     x2="99.538734"
     y2="161.4998"
     style="stroke:#000000;stroke-width:0.965714;stroke-linecap:round;stroke-opacity:1"
     id="line1726-48-0" /><line
     x1="99.538734"
     y1="161.4998"
     x2="37.577541"
     y2="161.4998"
     style="stroke:#000000;stroke-width:0.965714;stroke-linecap:round;stroke-opacity:1"
     id="line1727-1-0" /><line
     x1="99.538734"
     y1="161.4998"
     x2="130.51938"
     y2="107.82748"
     style="stroke:#000000;stroke-width:0.965714;stroke-linecap:round;stroke-opacity:1"
     id="line1728-0-6" /><line
     x1="130.51938"
     y1="107.82748"
     x2="99.538734"
     y2="54.155167"
     style="stroke:#000000;stroke-width:0.965714;stroke-linecap:round;stroke-opacity:1"
     id="line1729-3-4" /><line
     x1="99.538734"
     y1="54.155167"
     x2="37.577541"
     y2="54.155167"
     style="stroke:#000000;stroke-width:0.965714;stroke-linecap:round;stroke-opacity:1"
     id="line1730-0-4" /><line
     x1="99.538734"
     y1="54.155167"
     x2="130.51938"
     y2="0.48285699"
     style="stroke:#000000;stroke-width:0.965714;stroke-linecap:round;stroke-opacity:1"
     id="line1731-4-3" /><line
     x1="37.577541"
     y1="268.84445"
     x2="6.5969429"
     y2="215.17213"
     style="fill:#ff6600;stroke:#000000;stroke-width:0.965714;stroke-linecap:round;stroke-opacity:1"
     id="line1735-4-7" /><line
     x1="6.5969429"
     y1="215.17213"
     x2="37.577541"
     y2="161.4998"
     style="stroke:#000000;stroke-width:0.965714;stroke-linecap:round;stroke-opacity:1"
     id="line1736-4-3" /><line
     x1="37.577541"
     y1="161.4998"
     x2="6.5969429"
     y2="107.82748"
     style="stroke:#000000;stroke-width:0.965714;stroke-linecap:round;stroke-opacity:1"
     id="line1737-4-4" /><line
     x1="6.5969429"
     y1="107.82748"
     x2="37.577541"
     y2="54.155167"
     style="stroke:#000000;stroke-width:0.965714;stroke-linecap:round;stroke-opacity:1"
     id="line1738-7-7" /></svg>
