<?xml version="1.0" encoding="UTF-8" standalone="no"?>
<!-- Created with Inkscape (http://www.inkscape.org/) -->

<svg
     width="35mm"
     height="95mm"
     viewBox="0 0 35 95"
     version="1.1"
     id="svg1"
     inkscape:version="1.3.2 (091e20ef0f, 2023-11-25, custom)"
     sodipodi:docname="speed_veg_mph.svg"
     xmlns:inkscape="http://www.inkscape.org/namespaces/inkscape"
     xmlns:sodipodi="http://sodipodi.sourceforge.net/DTD/sodipodi-0.dtd"
     xmlns="http://www.w3.org/2000/svg"
     xmlns:svg="http://www.w3.org/2000/svg">
    <sodipodi:namedview
         id="namedview1"
         pagecolor="#ffffff"
         bordercolor="#000000"
         borderopacity="0.25"
         inkscape:showpageshadow="2"
         inkscape:pageopacity="0.0"
         inkscape:pagecheckerboard="0"
         inkscape:deskcolor="#d1d1d1"
         inkscape:document-units="mm"
         inkscape:zoom="1.050338"
         inkscape:cx="126.14987"
         inkscape:cy="193.74716"
         inkscape:window-width="1920"
         inkscape:window-height="1014"
         inkscape:window-x="0"
         inkscape:window-y="0"
         inkscape:window-maximized="1"
         inkscape:current-layer="layer1" />
    <defs
         id="defs1" />
    <g
         inkscape:label="Camada 1"
         inkscape:groupmode="layer"
         id="layer1">
        <g
             id="g319"
             transform="translate(67.100105,-3.1746907)">
            <rect
                 style="fill:#000000;stroke-width:0.291501;-inkscape-stroke:none"
                 id="rect317"
                 width="35"
                 height="95"
                 x="-67.100105"
                 y="3.1746907" />
            <path
                 d="m -37.609281,93.698143 q 0,0.26665 -0.09612,0.489892 -0.09612,0.221692 -0.2651,0.356568 -0.168982,0.133325 -0.389124,0.133325 -0.220141,0 -0.382922,-0.133325 -0.161231,-0.134876 -0.249597,-0.356568 -0.08837,-0.223242 -0.08837,-0.489892 0,-0.266651 0.08992,-0.489893 0.08992,-0.223242 0.257349,-0.356567 0.168982,-0.134876 0.403076,-0.134876 0.227893,0 0.389123,0.133325 0.161231,0.131775 0.246497,0.355017 0.08527,0.223243 0.08527,0.492994 z m -0.455786,0.05736 q 0,-0.42478 -0.08062,-0.626318 -0.08062,-0.203088 -0.213941,-0.203088 -0.136426,0 -0.201538,0.15813 -0.06356,0.158129 -0.06356,0.547253 0,0.42478 0.07286,0.630969 0.07286,0.206189 0.221692,0.206189 0.137976,0 0.201538,-0.15968 0.06356,-0.16123 0.06356,-0.553455 z"
                 id="path77"
                 style="font-weight:800;font-size:3.175px;font-family:'Gentium Book Plus';-inkscape-font-specification:'Gentium Book Plus, Ultra-Bold';text-align:center;text-anchor:middle;fill:#ffffff"
                 aria-label="0" />
            <path
                 d="m -42.371954,10.400878 v -0.20016 q 0.173633,-0.04582 0.217041,-0.07958 0.04582,-0.03617 0.04582,-0.06752 V 8.9708242 q 0,-0.197748 -0.02653,-0.286976 -0.02653,-0.09164 -0.08199,-0.115756 -0.05547,-0.02412 -0.139871,-0.02412 -0.08682,0 -0.214629,0.04341 -0.125402,0.041 -0.272507,0.142283 v 1.3239498 q 0,0.03135 0.05064,0.06511 0.05064,0.03376 0.241157,0.08199 v 0.20016 h -1.205783 v -0.20016 q 0.173632,-0.04582 0.217041,-0.07958 0.04582,-0.03617 0.04582,-0.06752 V 8.9708212 q 0,-0.197748 -0.01929,-0.286976 -0.01929,-0.09164 -0.06994,-0.115756 -0.04823,-0.02412 -0.135047,-0.02412 -0.08923,0 -0.217041,0.041 -0.125402,0.03859 -0.294212,0.144695 v 1.3239498 q 0,0.03617 0.06752,0.07476 0.06752,0.03858 0.221864,0.07235 v 0.20016 H -45.1959 v -0.20016 q 0.313504,-0.08199 0.313504,-0.147106 V 8.7586062 q 0,-0.127813 -0.01447,-0.18569 -0.01206,-0.06029 -0.07717,-0.08441 -0.06511,-0.02412 -0.221865,-0.041 v -0.192925 q 0.272507,-0.02894 0.453375,-0.06752 0.183279,-0.03859 0.366558,-0.101286 l 0.108521,0.108521 0.02653,0.214629 q 0.286977,-0.212218 0.475079,-0.267684 0.188102,-0.05547 0.361735,-0.05547 0.229099,0 0.347266,0.101286 0.118166,0.101286 0.15434,0.20016 l 0.0096,0.02653 q 0.294211,-0.212218 0.484725,-0.270095 0.190514,-0.05788 0.366559,-0.05788 0.15434,0 0.286976,0.0627 0.132636,0.06029 0.21463,0.202571 0.08199,0.142283 0.08199,0.38344 V 10.05361 q 0,0.03135 0.07476,0.06511 0.07476,0.03376 0.265273,0.08199 v 0.20016 z m 3.019282,0.07235 q -0.139871,0 -0.282153,-0.05788 -0.139871,-0.05547 -0.364147,-0.202572 v 0.995978 q 0,0.03859 0.08923,0.07717 0.09164,0.03858 0.318327,0.07235 v 0.20016 h -1.372182 v -0.20016 q 0.313504,-0.07476 0.313504,-0.149517 V 8.7586042 q 0,-0.120578 -0.01447,-0.18569 -0.01447,-0.06511 -0.07958,-0.09164 -0.06511,-0.02653 -0.219453,-0.03376 v -0.192925 q 0.207395,-0.02412 0.340031,-0.04582 0.135048,-0.0217 0.241157,-0.05064 0.10852,-0.02894 0.238745,-0.07235 l 0.108521,0.108521 0.0217,0.236333 q 0.27733,-0.217041 0.455786,-0.279742 0.180867,-0.06511 0.318327,-0.06511 0.219452,0 0.407555,0.115755 0.190514,0.113344 0.306269,0.356912 0.118167,0.243569 0.118167,0.631831 0,0.24598 -0.09405,0.475079 -0.09164,0.229099 -0.238745,0.4123778 -0.147105,0.183279 -0.311092,0.289388 -0.161575,0.106109 -0.301446,0.106109 z m -0.217041,-1.9413118 q -0.05788,0 -0.101286,0.0096 -0.04341,0.0072 -0.115755,0.04582 -0.06994,0.03858 -0.212218,0.125402 v 1.126201 q 0.180868,0.09646 0.286977,0.139871 0.10852,0.041 0.180867,0.05064 0.07476,0.0096 0.149517,0.0096 0.163987,0 0.26045,-0.1736312 0.09887,-0.173633 0.09887,-0.49196 0,-0.318327 -0.08199,-0.501606 -0.08199,-0.183279 -0.207395,-0.260449 -0.125402,-0.07958 -0.258038,-0.07958 z m 2.898704,1.8689648 v -0.20016 q 0.173633,-0.04582 0.243568,-0.07958 0.06994,-0.03617 0.06994,-0.06752 V 9.0672812 q 0,-0.294211 -0.06029,-0.395497 -0.05788,-0.103698 -0.200161,-0.103698 -0.130224,0 -0.260449,0.06029 -0.127813,0.05788 -0.311092,0.159163 v 1.2660728 q 0,0.08199 0.313504,0.147106 v 0.20016 h -1.278131 v -0.20016 q 0.313504,-0.08199 0.313504,-0.147106 V 7.3671262 q 0,-0.135048 -0.01447,-0.195337 -0.01206,-0.06029 -0.07717,-0.08199 -0.06511,-0.02412 -0.221864,-0.041 v -0.192925 q 0.294211,-0.03858 0.47749,-0.07958 0.18328,-0.04341 0.373793,-0.113344 l 0.113344,0.106109 v 1.668805 q 0.299034,-0.20016 0.530545,-0.274919 0.23151,-0.07717 0.419613,-0.07717 0.13987,0 0.260449,0.0627 0.120578,0.06029 0.195337,0.202571 0.07717,0.142283 0.07717,0.38344 v 1.3191268 q 0,0.03135 0.06029,0.06511 0.0627,0.03376 0.253215,0.08199 v 0.20016 z"
                 id="text78"
                 style="font-weight:800;font-size:4.93889px;line-height:1;font-family:'Gentium Book Plus';-inkscape-font-specification:'Gentium Book Plus, Ultra-Bold';text-align:center;text-decoration-color:#d40000;text-anchor:middle;fill:#ffffff;stroke-width:0.196181"
                 aria-label="mph" />
            <path
                 id="path78"
                 style="fill:#ffffff;stroke-width:0.77144"
                 d="m -45.935249,93.757807 v -0.12 h 6 v 0.12 z" />
            <path
                 id="path79"
                 style="fill:#ffffff;stroke-width:0.96225"
                 d="m -45.935249,90.563956 v -0.12 h 2 v 0.12 z" />
            <path
                 id="path80"
                 style="fill:#ffffff;stroke-width:0.514276"
                 d="m -45.935249,77.788554 v -0.12 h 2 v 0.12 z" />
            <path
                 id="path81"
                 style="fill:#ffffff;stroke-width:1.36083"
                 d="m -45.935249,87.370106 v -0.12 h 4 v 0.12 z" />
            <path
                 id="path82"
                 style="fill:#ffffff;stroke-width:0.96225"
                 d="m -45.935249,84.176255 v -0.12 h 2 v 0.12 z" />
            <path
                 id="path83"
                 style="fill:#ffffff;stroke-width:1.36083"
                 d="m -45.935249,80.982405 v -0.12 h 4 v 0.12 z" />
            <path
                 id="path84"
                 style="fill:#ffffff;stroke-width:1.36083"
                 d="m -45.935249,74.594703 v -0.12 h 4 v 0.12 z" />
            <path
                 id="path85"
                 style="fill:#ffffff;stroke-width:0.96225"
                 d="m -45.935249,71.400853 v -0.12 h 2 v 0.12 z" />
            <path
                 id="path86"
                 style="fill:#ffffff;stroke-width:1.36083"
                 d="m -45.935249,68.207002 v -0.12 h 4 v 0.12 z" />
            <path
                 id="path87"
                 style="fill:#ffffff;stroke-width:0.96225"
                 d="m -45.935249,65.013152 v -0.12 h 2 v 0.12 z" />
            <path
                 id="path88"
                 style="fill:#ffffff;stroke-width:0.77144"
                 d="m -45.935249,61.819301 v -0.12 h 6 v 0.12 z" />
            <path
                 d="m -37.734862,62.057734 q 0,0.179834 -0.07441,0.336414 -0.07441,0.155029 -0.234094,0.251147 -0.159681,0.09457 -0.413929,0.09457 -0.142627,0 -0.316259,-0.06511 -0.173633,-0.06511 -0.306958,-0.189136 l 0.08527,-0.150378 q 0.164331,0.113171 0.289904,0.150378 0.125574,0.03721 0.213941,0.03721 0.139526,0 0.238745,-0.110071 0.09922,-0.111621 0.09922,-0.288354 0,-0.21239 -0.10387,-0.31781 -0.10387,-0.10542 -0.257349,-0.10542 -0.142626,0 -0.230993,0.03876 -0.08837,0.03876 -0.170532,0.100769 l -0.07286,-0.05116 q 0.01395,-0.08372 0.03411,-0.212391 0.02015,-0.130224 0.03876,-0.271301 0.02015,-0.142627 0.03411,-0.269751 0.0155,-0.128674 0.02015,-0.21084 h 0.861963 q 0.08837,0 0.137976,-0.01395 0.04961,-0.01395 0.04961,-0.01395 l 0.06046,0.06046 q -0.0217,0.03256 -0.06666,0.09302 -0.04341,0.05891 -0.08837,0.113171 -0.04341,0.05271 -0.06821,0.07131 h -0.692981 q -0.0046,0.08992 -0.02325,0.206189 -0.0186,0.114722 -0.03256,0.182934 0.07131,-0.03411 0.15813,-0.05271 0.08682,-0.0186 0.190686,-0.0186 0.215491,0 0.356567,0.08837 0.142627,0.08682 0.21239,0.226342 0.07131,0.137977 0.07131,0.289905 z m 1.733227,-0.297656 q 0,0.26665 -0.09612,0.489893 -0.09612,0.221691 -0.2651,0.356567 -0.168982,0.133325 -0.389123,0.133325 -0.220142,0 -0.382923,-0.133325 -0.16123,-0.134876 -0.249597,-0.356567 -0.08837,-0.223243 -0.08837,-0.489893 0,-0.26665 0.08992,-0.489893 0.08992,-0.223242 0.257349,-0.356567 0.168982,-0.134875 0.403076,-0.134875 0.227893,0 0.389124,0.133325 0.16123,0.131775 0.246496,0.355017 0.08527,0.223242 0.08527,0.492993 z m -0.455786,0.05736 q 0,-0.42478 -0.08061,-0.626319 -0.08061,-0.203088 -0.21394,-0.203088 -0.136426,0 -0.201539,0.15813 -0.06356,0.15813 -0.06356,0.547253 0,0.424781 0.07286,0.63097 0.07286,0.206189 0.221692,0.206189 0.137976,0 0.201538,-0.159681 0.06356,-0.16123 0.06356,-0.553454 z"
                 id="text88"
                 style="font-weight:800;font-size:3.175px;line-height:1;font-family:'Gentium Book Plus';-inkscape-font-specification:'Gentium Book Plus, Ultra-Bold';text-align:center;text-decoration-color:#d40000;text-anchor:middle;fill:#ffffff;stroke-width:0.196181"
                 aria-label="50" />
            <path
                 d="m -39.01075,30.762599 v -0.144178 q 0.243396,-0.02946 0.330212,-0.06821 0.08837,-0.03876 0.08837,-0.07131 v -1.11156 q 0,-0.06201 -0.0047,-0.09612 -0.0047,-0.03566 -0.02325,-0.05581 -0.0186,-0.02015 -0.10232,-0.02015 -0.08372,-0.0016 -0.288354,0.04186 l -0.04806,-0.141076 q 0.06666,-0.0124 0.178283,-0.04496 0.113172,-0.03411 0.237195,-0.07596 0.124024,-0.04186 0.230994,-0.08062 0.10852,-0.03876 0.165881,-0.06201 l 0.07286,0.06976 v 1.576648 q 0,0.02946 0.07596,0.06976 0.07751,0.04031 0.311609,0.06976 v 0.144178 z m 2.970361,-0.933277 q 0,0.266651 -0.09612,0.489893 -0.09612,0.221692 -0.2651,0.356567 -0.168982,0.133326 -0.389124,0.133326 -0.220141,0 -0.382922,-0.133326 -0.161231,-0.134875 -0.249597,-0.356567 -0.08837,-0.223242 -0.08837,-0.489893 0,-0.26665 0.08992,-0.489892 0.08992,-0.223242 0.257349,-0.356568 0.168982,-0.134875 0.403076,-0.134875 0.227893,0 0.389123,0.133325 0.161231,0.131775 0.246497,0.355017 0.08527,0.223242 0.08527,0.492993 z m -0.455786,0.05736 q 0,-0.42478 -0.08061,-0.626318 -0.08062,-0.203089 -0.213941,-0.203089 -0.136425,0 -0.201538,0.15813 -0.06356,0.15813 -0.06356,0.547254 0,0.42478 0.07286,0.630969 0.07286,0.206189 0.221692,0.206189 0.137976,0 0.201538,-0.15968 0.06356,-0.161231 0.06356,-0.553455 z m 2.100647,-0.05736 q 0,0.266651 -0.09612,0.489893 -0.09612,0.221692 -0.2651,0.356567 -0.168982,0.133326 -0.389124,0.133326 -0.220141,0 -0.382922,-0.133326 -0.161231,-0.134875 -0.249597,-0.356567 -0.08837,-0.223242 -0.08837,-0.489893 0,-0.26665 0.08992,-0.489892 0.08992,-0.223242 0.257349,-0.356568 0.168982,-0.134875 0.403076,-0.134875 0.227893,0 0.389123,0.133325 0.161231,0.131775 0.246497,0.355017 0.08527,0.223242 0.08527,0.492993 z m -0.455786,0.05736 q 0,-0.42478 -0.08062,-0.626318 -0.08062,-0.203089 -0.213941,-0.203089 -0.136426,0 -0.201538,0.15813 -0.06356,0.15813 -0.06356,0.547254 0,0.42478 0.07286,0.630969 0.07286,0.206189 0.221692,0.206189 0.137976,0 0.201538,-0.15968 0.06356,-0.161231 0.06356,-0.553455 z"
                 id="text108"
                 style="font-weight:800;font-size:3.175px;line-height:1;font-family:'Gentium Book Plus';-inkscape-font-specification:'Gentium Book Plus, Ultra-Bold';text-align:center;text-decoration-color:#d40000;text-anchor:middle;fill:#ffffff;stroke-width:0.196181"
                 aria-label="100" />
            <path
                 d="m -39.048474,87.937976 v -0.09612 q 0.162264,-0.01964 0.220142,-0.04547 0.05891,-0.02584 0.05891,-0.04754 v -0.741042 q 0,-0.04134 -0.0031,-0.06408 -0.0031,-0.02377 -0.0155,-0.03721 -0.0124,-0.01344 -0.06821,-0.01344 -0.05581,-0.001 -0.192237,0.02791 l -0.03204,-0.09405 q 0.04444,-0.0083 0.118856,-0.02997 0.07545,-0.02274 0.15813,-0.05064 0.08268,-0.02791 0.153996,-0.05374 0.07235,-0.02584 0.110587,-0.04134 l 0.04858,0.04651 v 1.051101 q 0,0.01964 0.05064,0.04651 0.05168,0.02687 0.20774,0.04651 v 0.09612 z m 1.980244,-0.622186 q 0,0.177768 -0.06408,0.326596 -0.06408,0.147795 -0.176734,0.237712 -0.112654,0.08888 -0.259416,0.08888 -0.146761,0 -0.255282,-0.08888 -0.107487,-0.08992 -0.166398,-0.237712 -0.05891,-0.148828 -0.05891,-0.326596 0,-0.177767 0.05994,-0.326595 0.05994,-0.148828 0.171566,-0.237712 0.112654,-0.08992 0.268717,-0.08992 0.151929,0 0.259417,0.08888 0.107487,0.08785 0.164331,0.236679 0.05684,0.148828 0.05684,0.328662 z m -0.303858,0.03824 q 0,-0.283187 -0.05374,-0.417546 -0.05374,-0.135393 -0.142628,-0.135393 -0.09095,0 -0.134359,0.10542 -0.04237,0.105421 -0.04237,0.364837 0,0.283187 0.04858,0.420646 0.04858,0.13746 0.147794,0.13746 0.09198,0 0.134359,-0.106454 0.04238,-0.107487 0.04238,-0.36897 z"
                 id="text119"
                 style="font-weight:800;font-size:2.11667px;line-height:1;font-family:'Gentium Book Plus';-inkscape-font-specification:'Gentium Book Plus, Ultra-Bold';text-align:center;text-decoration-color:#d40000;text-anchor:middle;fill:#ffffff;stroke-width:0.196181"
                 aria-label="10" />
            <path
                 d="m -38.188578,81.545108 h -0.861964 l -0.02997,-0.07648 q 0.180867,-0.212907 0.297656,-0.356568 0.116789,-0.144694 0.182935,-0.239779 0.06615,-0.09612 0.09198,-0.16123 0.02687,-0.06615 0.02687,-0.120923 0,-0.08578 -0.03411,-0.141594 -0.03411,-0.05581 -0.111622,-0.05581 -0.06925,0 -0.103353,0.04548 -0.03411,0.04548 -0.03411,0.107487 0,0.02687 0.0062,0.05478 -0.02274,0.0124 -0.07235,0.02791 -0.04858,0.0155 -0.100253,0.02791 -0.05168,0.0124 -0.08372,0.0155 l -0.03824,-0.08268 q 0,-0.05374 0.03824,-0.109554 0.03928,-0.05581 0.107488,-0.103353 0.06821,-0.04858 0.15813,-0.07751 0.08992,-0.02997 0.192236,-0.02997 0.171566,0 0.270785,0.06511 0.09922,0.06408 0.09922,0.186036 0,0.06925 -0.02997,0.14056 -0.02997,0.07131 -0.09819,0.162264 -0.06718,0.08992 -0.181901,0.217041 -0.113688,0.126091 -0.28112,0.307992 h 0.406177 q 0.03411,0 0.05581,-0.03411 0.02274,-0.03514 0.03514,-0.08475 0.0124,-0.05064 0.01447,-0.09612 l 0.09302,0.02274 z m 1.162722,-0.622186 q 0,0.177768 -0.06408,0.326596 -0.06408,0.147795 -0.176734,0.237712 -0.112655,0.08888 -0.259416,0.08888 -0.146761,0 -0.255282,-0.08888 -0.107487,-0.08992 -0.166398,-0.237712 -0.05891,-0.148828 -0.05891,-0.326596 0,-0.177767 0.05994,-0.326595 0.05994,-0.148829 0.171566,-0.237712 0.112655,-0.08992 0.268718,-0.08992 0.151929,0 0.259416,0.08888 0.107487,0.08785 0.164331,0.236679 0.05684,0.148828 0.05684,0.328662 z m -0.303858,0.03824 q 0,-0.283187 -0.05374,-0.417546 -0.05374,-0.135393 -0.142627,-0.135393 -0.09095,0 -0.134359,0.10542 -0.04238,0.105421 -0.04238,0.364837 0,0.283187 0.04858,0.420646 0.04858,0.13746 0.147795,0.13746 0.09198,0 0.134359,-0.106454 0.04237,-0.107487 0.04237,-0.36897 z"
                 id="text120"
                 style="font-weight:800;font-size:2.11667px;line-height:1;font-family:'Gentium Book Plus';-inkscape-font-specification:'Gentium Book Plus, Ultra-Bold';text-align:center;text-decoration-color:#d40000;text-anchor:middle;fill:#ffffff;stroke-width:0.196181"
                 aria-label="20" />
            <path
                 d="m -38.184444,74.76363 q 0,0.115755 -0.06201,0.212907 -0.06201,0.09612 -0.171566,0.153996 -0.109554,0.05788 -0.251147,0.05788 -0.05374,0 -0.127125,-0.01964 -0.07235,-0.0186 -0.147794,-0.05684 -0.07442,-0.03927 -0.136426,-0.09819 l 0.04547,-0.110588 q 0.09405,0.06925 0.173633,0.100253 0.08061,0.02997 0.15813,0.02997 0.08888,0 0.153996,-0.05684 0.06511,-0.05788 0.06511,-0.189136 0,-0.09302 -0.03617,-0.145728 -0.03617,-0.05374 -0.08578,-0.07545 -0.04961,-0.0217 -0.08992,-0.0217 -0.02894,0 -0.04548,0.001 -0.01654,0.001 -0.04548,0.0062 l -0.01964,-0.103353 q 0.115755,-0.03101 0.171566,-0.07545 0.05581,-0.04547 0.07338,-0.09508 0.0186,-0.04961 0.0186,-0.09198 0,-0.07131 -0.02687,-0.12609 -0.02687,-0.05478 -0.09922,-0.05478 -0.03617,0 -0.06615,0.03307 -0.02997,0.03307 -0.02997,0.08475 0,0.02481 0.0072,0.04961 -0.04444,0.02584 -0.11989,0.05168 -0.07545,0.02481 -0.137459,0.02997 l -0.03721,-0.07338 q 0,-0.05788 0.05478,-0.128158 0.05478,-0.07028 0.153996,-0.120923 0.100252,-0.05064 0.233578,-0.05064 0.134359,0 0.213941,0.04237 0.08062,0.04237 0.116788,0.10852 0.03617,0.06511 0.03617,0.135393 0,0.05168 -0.02791,0.106453 -0.02791,0.05478 -0.07751,0.09922 -0.04961,0.04341 -0.114722,0.06305 0.129191,0.01344 0.203606,0.107487 0.07545,0.09405 0.07545,0.220142 z m 1.158588,-0.228411 q 0,0.177768 -0.06408,0.326596 -0.06408,0.147795 -0.176734,0.237712 -0.112655,0.08888 -0.259416,0.08888 -0.146761,0 -0.255282,-0.08888 -0.107487,-0.08992 -0.166398,-0.237712 -0.05891,-0.148828 -0.05891,-0.326596 0,-0.177767 0.05994,-0.326595 0.05994,-0.148828 0.171566,-0.237712 0.112655,-0.08992 0.268718,-0.08992 0.151929,0 0.259416,0.08888 0.107487,0.08785 0.164331,0.236679 0.05684,0.148828 0.05684,0.328662 z m -0.303858,0.03824 q 0,-0.283187 -0.05374,-0.417546 -0.05374,-0.135393 -0.142627,-0.135393 -0.09095,0 -0.134359,0.10542 -0.04238,0.105421 -0.04238,0.364837 0,0.283187 0.04858,0.420646 0.04858,0.13746 0.147795,0.13746 0.09198,0 0.134359,-0.106454 0.04237,-0.107487 0.04237,-0.36897 z"
                 id="text121"
                 style="font-weight:800;font-size:2.11667px;line-height:1;font-family:'Gentium Book Plus';-inkscape-font-specification:'Gentium Book Plus, Ultra-Bold';text-align:center;text-decoration-color:#d40000;text-anchor:middle;fill:#ffffff;stroke-width:0.196181"
                 aria-label="30" />
            <path
                 d="m -38.120363,68.309786 q -0.0217,0.03307 -0.05581,0.07028 -0.03307,0.03617 -0.05684,0.05374 h -0.05168 v 0.192237 q 0,0.0155 0.02894,0.02997 0.02997,0.01344 0.114721,0.03307 v 0.08578 h -0.629419 v -0.08578 q 0.135392,-0.02274 0.1757,-0.03927 0.04134,-0.01757 0.04134,-0.03514 v -0.180868 h -0.482659 l -0.04444,-0.04444 0.49196,-0.817523 q 0.05168,-0.01757 0.128158,-0.04134 0.07751,-0.02481 0.127124,-0.04237 l 0.04858,0.04651 v 0.744142 h 0.137459 z m -0.433049,-0.527101 -0.312126,0.496095 h 0.312126 z m 1.551329,0.370004 q 0,0.177767 -0.06408,0.326596 -0.06408,0.147795 -0.176734,0.237712 -0.112654,0.08888 -0.259416,0.08888 -0.146761,0 -0.255282,-0.08888 -0.107487,-0.08992 -0.166398,-0.237712 -0.05891,-0.148829 -0.05891,-0.326596 0,-0.177767 0.05994,-0.326595 0.05994,-0.148829 0.171566,-0.237712 0.112655,-0.08992 0.268718,-0.08992 0.151929,0 0.259416,0.08888 0.107488,0.08785 0.164332,0.236679 0.05684,0.148828 0.05684,0.328662 z m -0.303858,0.03824 q 0,-0.283187 -0.05374,-0.417546 -0.05374,-0.135393 -0.142627,-0.135393 -0.09095,0 -0.134359,0.10542 -0.04237,0.10542 -0.04237,0.364836 0,0.283188 0.04857,0.420647 0.04858,0.13746 0.147795,0.13746 0.09198,0 0.134359,-0.106454 0.04238,-0.107487 0.04238,-0.36897 z"
                 id="text122"
                 style="font-weight:800;font-size:2.11667px;line-height:1;font-family:'Gentium Book Plus';-inkscape-font-specification:'Gentium Book Plus, Ultra-Bold';text-align:center;text-decoration-color:#d40000;text-anchor:middle;fill:#ffffff;stroke-width:0.196181"
                 aria-label="40" />
            <path
                 d="m -38.117266,55.575722 q 0,0.07235 -0.02894,0.151929 -0.0279,0.07958 -0.08475,0.148828 -0.05684,0.06925 -0.14056,0.112655 -0.08372,0.04341 -0.195338,0.04341 -0.136425,0 -0.248047,-0.06511 -0.111621,-0.06511 -0.177767,-0.181902 -0.06615,-0.117822 -0.06615,-0.272852 0,-0.195337 0.09095,-0.363802 0.09198,-0.169499 0.270785,-0.285255 0.179834,-0.116789 0.442351,-0.152962 l 0.02997,0.102319 q -0.206706,0.04341 -0.323495,0.139527 -0.116789,0.09509 -0.164331,0.224276 -0.04651,0.128158 -0.04651,0.269751 0,0.244947 0.06201,0.346233 0.06201,0.100252 0.149862,0.100252 0.05581,0 0.08578,-0.03617 0.031,-0.03617 0.04237,-0.09405 0.0124,-0.05788 0.0124,-0.120923 0,-0.129192 -0.02377,-0.193271 -0.02377,-0.06511 -0.06201,-0.08682 -0.03824,-0.0217 -0.08062,-0.0217 -0.05994,0 -0.135392,0.05994 -0.07441,0.05994 -0.135393,0.155029 l -0.02377,-0.14056 q 0.08165,-0.109554 0.183969,-0.169499 0.102319,-0.05994 0.183968,-0.05994 0.178801,0 0.280087,0.110588 0.102319,0.110588 0.102319,0.280087 z m 1.10071,-0.196371 q 0,0.177767 -0.06408,0.326595 -0.06408,0.147795 -0.176734,0.237712 -0.112654,0.08888 -0.259416,0.08888 -0.146761,0 -0.255282,-0.08888 -0.107487,-0.08992 -0.166398,-0.237712 -0.05891,-0.148828 -0.05891,-0.326595 0,-0.177767 0.05994,-0.326596 0.05994,-0.148828 0.171566,-0.237712 0.112655,-0.08992 0.268718,-0.08992 0.151929,0 0.259416,0.08888 0.107488,0.08785 0.164332,0.236678 0.05684,0.148829 0.05684,0.328663 z m -0.303858,0.03824 q 0,-0.283188 -0.05374,-0.417547 -0.05374,-0.135392 -0.142627,-0.135392 -0.09095,0 -0.134359,0.10542 -0.04237,0.10542 -0.04237,0.364836 0,0.283187 0.04858,0.420647 0.04857,0.137459 0.147794,0.137459 0.09199,0 0.134359,-0.106453 0.04238,-0.107487 0.04238,-0.36897 z"
                 id="text123"
                 style="font-weight:800;font-size:2.11667px;line-height:1;font-family:'Gentium Book Plus';-inkscape-font-specification:'Gentium Book Plus, Ultra-Bold';text-align:center;text-decoration-color:#d40000;text-anchor:middle;fill:#ffffff;stroke-width:0.196181"
                 aria-label="60" />
            <path
                 d="m -38.137937,48.400471 q -0.07131,0.166398 -0.138494,0.335897 -0.06718,0.168465 -0.125057,0.323495 -0.05684,0.15503 -0.102319,0.282154 -0.04444,0.12609 -0.07131,0.208773 -0.02377,0.01654 -0.07028,0.03411 -0.04651,0.01654 -0.09612,0.02997 -0.04961,0.01344 -0.08372,0.02274 l -0.05271,-0.04444 q 0.08992,-0.158131 0.160197,-0.289389 0.07028,-0.131258 0.128158,-0.249081 0.05788,-0.118856 0.111621,-0.236678 0.05374,-0.118856 0.110588,-0.250114 h -0.458888 q -0.01964,0 -0.04444,0.0093 -0.02481,0.0093 -0.05271,0.04548 -0.02687,0.03514 -0.05684,0.115755 l -0.07855,-0.02894 q 0.0031,-0.02377 0.0093,-0.07131 0.0072,-0.04858 0.01447,-0.103353 0.0083,-0.05581 0.01654,-0.103353 0.0083,-0.04754 0.01447,-0.07028 h 0.831992 z m 1.117246,0.583944 q 0,0.177768 -0.06408,0.326596 -0.06408,0.147795 -0.176734,0.237712 -0.112655,0.08888 -0.259416,0.08888 -0.146761,0 -0.255282,-0.08888 -0.107487,-0.08992 -0.166398,-0.237712 -0.05891,-0.148828 -0.05891,-0.326596 0,-0.177767 0.05994,-0.326595 0.05994,-0.148829 0.171566,-0.237712 0.112655,-0.08992 0.268718,-0.08992 0.151929,0 0.259416,0.08888 0.107487,0.08785 0.164332,0.236679 0.05684,0.148828 0.05684,0.328662 z m -0.303858,0.03824 q 0,-0.283187 -0.05374,-0.417546 -0.05374,-0.135393 -0.142627,-0.135393 -0.09095,0 -0.134359,0.10542 -0.04237,0.10542 -0.04237,0.364837 0,0.283187 0.04858,0.420646 0.04858,0.13746 0.147795,0.13746 0.09198,0 0.134359,-0.106454 0.04238,-0.107487 0.04238,-0.36897 z"
                 id="text124"
                 style="font-weight:800;font-size:2.11667px;line-height:1;font-family:'Gentium Book Plus';-inkscape-font-specification:'Gentium Book Plus, Ultra-Bold';text-align:center;text-decoration-color:#d40000;text-anchor:middle;fill:#ffffff;stroke-width:0.196181"
                 aria-label="70" />
            <path
                 d="m -38.115195,42.855095 q 0,0.106454 -0.06511,0.196371 -0.06408,0.08992 -0.1757,0.144694 -0.111622,0.05374 -0.251148,0.05374 -0.148828,0 -0.249081,-0.04548 -0.100252,-0.04651 -0.151929,-0.120923 -0.05064,-0.07441 -0.05064,-0.159164 0,-0.115755 0.09612,-0.216007 0.09612,-0.100253 0.239779,-0.162265 l 0.125058,0.03824 q -0.07855,0.07235 -0.11989,0.143661 -0.04134,0.07028 -0.04134,0.165365 0,0.107487 0.05891,0.165364 0.05994,0.05685 0.12299,0.05685 0.07545,0 0.118856,-0.06305 0.04341,-0.06305 0.04341,-0.152962 0,-0.09095 -0.04341,-0.145728 -0.04237,-0.05581 -0.109554,-0.09198 -0.06718,-0.03617 -0.142627,-0.06615 -0.07545,-0.02997 -0.142627,-0.06718 -0.06718,-0.03824 -0.110588,-0.09819 -0.04238,-0.05994 -0.04238,-0.157097 0,-0.09612 0.05788,-0.170532 0.05788,-0.07441 0.156063,-0.116789 0.09819,-0.04341 0.217041,-0.04341 0.209807,0 0.309026,0.07751 0.09922,0.07751 0.09922,0.197404 0,0.09405 -0.08785,0.169499 -0.08682,0.07545 -0.208773,0.14366 l -0.124024,-0.04444 q 0.133325,-0.116789 0.131258,-0.236679 -0.001,-0.107487 -0.04858,-0.142627 -0.04754,-0.03617 -0.102319,-0.03617 -0.06098,0 -0.09612,0.04858 -0.03411,0.04754 -0.03411,0.117823 0,0.06304 0.04444,0.104386 0.04548,0.04031 0.115755,0.07131 0.07131,0.02997 0.150896,0.06304 0.07958,0.03204 0.149862,0.07855 0.07131,0.04651 0.115755,0.118856 0.04548,0.07131 0.04548,0.181901 z m 1.115179,-0.258383 q 0,0.177768 -0.06408,0.326596 -0.06408,0.147795 -0.176734,0.237712 -0.112655,0.08888 -0.259416,0.08888 -0.146762,0 -0.255282,-0.08888 -0.107487,-0.08992 -0.166399,-0.237712 -0.05891,-0.148828 -0.05891,-0.326596 0,-0.177767 0.05994,-0.326595 0.05995,-0.148829 0.171566,-0.237712 0.112655,-0.08992 0.268718,-0.08992 0.151929,0 0.259416,0.08888 0.107487,0.08785 0.164331,0.236679 0.05684,0.148828 0.05684,0.328662 z m -0.303857,0.03824 q 0,-0.283187 -0.05374,-0.417546 -0.05374,-0.135393 -0.142627,-0.135393 -0.09095,0 -0.134359,0.10542 -0.04238,0.10542 -0.04238,0.364837 0,0.283187 0.04858,0.420646 0.04858,0.13746 0.147795,0.13746 0.09198,0 0.134359,-0.106454 0.04237,-0.107487 0.04237,-0.36897 z"
                 id="text125"
                 style="font-weight:800;font-size:2.11667px;line-height:1;font-family:'Gentium Book Plus';-inkscape-font-specification:'Gentium Book Plus, Ultra-Bold';text-align:center;text-decoration-color:#d40000;text-anchor:middle;fill:#ffffff;stroke-width:0.196181"
                 aria-label="80" />
            <path
                 d="m -38.118297,36.06897 q 0,0.208773 -0.09095,0.379306 -0.08992,0.170532 -0.269751,0.28112 -0.178801,0.109554 -0.445451,0.139527 l -0.02894,-0.10232 q 0.171566,-0.04237 0.276986,-0.101286 0.106453,-0.05891 0.162264,-0.133325 0.05581,-0.07545 0.07545,-0.165365 0.02067,-0.08992 0.02067,-0.19327 0,-0.157097 -0.0155,-0.253215 -0.01447,-0.09612 -0.04134,-0.145728 -0.02584,-0.05064 -0.05788,-0.06821 -0.03204,-0.0186 -0.06615,-0.0186 -0.07958,0 -0.125058,0.06511 -0.04547,0.06408 -0.04547,0.187069 0,0.111621 0.02894,0.1757 0.02997,0.06305 0.06925,0.08888 0.03928,0.02584 0.06821,0.02584 0.06511,0 0.118856,-0.03721 0.05374,-0.03721 0.09508,-0.09405 0.04134,-0.05788 0.06718,-0.115756 l 0.01344,0.149862 q -0.05374,0.111621 -0.150896,0.187069 -0.09715,0.07545 -0.219108,0.07545 -0.125057,0 -0.209807,-0.05478 -0.08475,-0.05581 -0.128158,-0.145728 -0.04237,-0.08992 -0.04237,-0.192237 0,-0.07855 0.03411,-0.15813 0.03514,-0.08062 0.09922,-0.147795 0.06511,-0.06718 0.152963,-0.107487 0.08888,-0.04134 0.195337,-0.04134 0.206706,0 0.332796,0.12299 0.126091,0.12299 0.126091,0.397909 z m 1.112079,0.133326 q 0,0.177767 -0.06408,0.326595 -0.06408,0.147795 -0.176734,0.237712 -0.112655,0.08888 -0.259416,0.08888 -0.146761,0 -0.255282,-0.08888 -0.107487,-0.08992 -0.166398,-0.237712 -0.05891,-0.148828 -0.05891,-0.326595 0,-0.177768 0.05994,-0.326596 0.05994,-0.148828 0.171566,-0.237712 0.112655,-0.08992 0.268718,-0.08992 0.151929,0 0.259416,0.08888 0.107487,0.08785 0.164332,0.236678 0.05684,0.148828 0.05684,0.328663 z m -0.303858,0.03824 q 0,-0.283187 -0.05374,-0.417546 -0.05374,-0.135392 -0.142627,-0.135392 -0.09095,0 -0.134359,0.10542 -0.04237,0.10542 -0.04237,0.364836 0,0.283187 0.04858,0.420647 0.04858,0.137459 0.147795,0.137459 0.09198,0 0.134359,-0.106454 0.04237,-0.107487 0.04237,-0.36897 z"
                 id="text126"
                 style="font-weight:800;font-size:2.11667px;line-height:1;font-family:'Gentium Book Plus';-inkscape-font-specification:'Gentium Book Plus, Ultra-Bold';text-align:center;text-decoration-color:#d40000;text-anchor:middle;fill:#ffffff;stroke-width:0.196181"
                 aria-label="90" />
            <path
                 d="m -39.02677,24.060963 v -0.09612 q 0.162265,-0.01964 0.220142,-0.04548 0.05891,-0.02584 0.05891,-0.04754 v -0.741041 q 0,-0.04134 -0.0031,-0.06408 -0.0031,-0.02377 -0.0155,-0.03721 -0.0124,-0.01344 -0.06821,-0.01344 -0.05581,-10e-4 -0.192237,0.02791 l -0.03204,-0.09405 q 0.04444,-0.0083 0.118856,-0.02997 0.07545,-0.02274 0.15813,-0.05064 0.08268,-0.02791 0.153996,-0.05374 0.07235,-0.02584 0.110588,-0.04134 l 0.04858,0.04651 v 1.0511 q 0,0.01964 0.05064,0.04651 0.05168,0.02687 0.207739,0.04651 v 0.09612 z m 1.096576,0 v -0.09612 q 0.162264,-0.01964 0.220142,-0.04548 0.05891,-0.02584 0.05891,-0.04754 v -0.741041 q 0,-0.04134 -0.0031,-0.06408 -0.0031,-0.02377 -0.0155,-0.03721 -0.0124,-0.01344 -0.06821,-0.01344 -0.05581,-10e-4 -0.192237,0.02791 l -0.03204,-0.09405 q 0.04444,-0.0083 0.118855,-0.02997 0.07545,-0.02274 0.158131,-0.05064 0.08268,-0.02791 0.153996,-0.05374 0.07235,-0.02584 0.110587,-0.04134 l 0.04858,0.04651 v 1.0511 q 0,0.01964 0.05064,0.04651 0.05168,0.02687 0.20774,0.04651 v 0.09612 z m 1.980244,-0.622185 q 0,0.177767 -0.06408,0.326596 -0.06408,0.147795 -0.176734,0.237712 -0.112654,0.08888 -0.259416,0.08888 -0.146761,0 -0.255282,-0.08888 -0.107487,-0.08992 -0.166398,-0.237712 -0.05891,-0.148829 -0.05891,-0.326596 0,-0.177767 0.05994,-0.326595 0.05994,-0.148829 0.171566,-0.237712 0.112655,-0.08992 0.268718,-0.08992 0.151929,0 0.259416,0.08888 0.107488,0.08785 0.164332,0.236679 0.05684,0.148828 0.05684,0.328662 z m -0.303858,0.03824 q 0,-0.283187 -0.05374,-0.417546 -0.05374,-0.135393 -0.142627,-0.135393 -0.09095,0 -0.134359,0.10542 -0.04237,0.10542 -0.04237,0.364836 0,0.283188 0.04858,0.420647 0.04857,0.13746 0.147794,0.13746 0.09198,0 0.134359,-0.106454 0.04237,-0.107487 0.04237,-0.36897 z"
                 id="text127"
                 style="font-weight:800;font-size:2.11667px;line-height:1;font-family:'Gentium Book Plus';-inkscape-font-specification:'Gentium Book Plus, Ultra-Bold';text-align:center;text-decoration-color:#d40000;text-anchor:middle;fill:#ffffff;stroke-width:0.196181"
                 aria-label="110" />
            <path
                 d="m -39.02677,17.673262 v -0.09612 q 0.162265,-0.01964 0.220142,-0.04548 0.05891,-0.02584 0.05891,-0.04754 v -0.741041 q 0,-0.04134 -0.0031,-0.06408 -0.0031,-0.02377 -0.0155,-0.03721 -0.0124,-0.01344 -0.06821,-0.01344 -0.05581,-10e-4 -0.192237,0.02791 l -0.03204,-0.09405 q 0.04444,-0.0083 0.118856,-0.02997 0.07545,-0.02274 0.15813,-0.05064 0.08268,-0.02791 0.153996,-0.05374 0.07235,-0.02584 0.110588,-0.04134 l 0.04858,0.04651 v 1.0511 q 0,0.01964 0.05064,0.04651 0.05168,0.02687 0.207739,0.04651 v 0.09612 z m 1.914098,0 h -0.861964 l -0.02997,-0.07648 q 0.180868,-0.212907 0.297656,-0.356568 0.116789,-0.144694 0.182935,-0.239779 0.06615,-0.09612 0.09198,-0.161231 0.02687,-0.06614 0.02687,-0.120923 0,-0.08578 -0.03411,-0.141593 -0.03411,-0.05581 -0.111621,-0.05581 -0.06925,0 -0.103353,0.04547 -0.03411,0.04548 -0.03411,0.107488 0,0.02687 0.0062,0.05478 -0.02274,0.0124 -0.07235,0.02791 -0.04858,0.0155 -0.100252,0.02791 -0.05168,0.0124 -0.08372,0.0155 l -0.03824,-0.08268 q 0,-0.05374 0.03824,-0.109554 0.03927,-0.05581 0.107487,-0.103353 0.06821,-0.04858 0.15813,-0.07752 0.08992,-0.02997 0.192237,-0.02997 0.171566,0 0.270785,0.06511 0.09922,0.06408 0.09922,0.186035 0,0.06925 -0.02997,0.14056 -0.02997,0.07131 -0.09819,0.162265 -0.06718,0.08992 -0.181902,0.217041 -0.113688,0.126091 -0.28112,0.307992 h 0.406177 q 0.03411,0 0.05581,-0.03411 0.02274,-0.03514 0.03514,-0.08475 0.0124,-0.05064 0.01447,-0.09612 l 0.09302,0.02274 z m 1.162722,-0.622185 q 0,0.177767 -0.06408,0.326596 -0.06408,0.147795 -0.176734,0.237712 -0.112654,0.08888 -0.259416,0.08888 -0.146761,0 -0.255282,-0.08888 -0.107487,-0.08992 -0.166398,-0.237712 -0.05891,-0.148829 -0.05891,-0.326596 0,-0.177767 0.05994,-0.326595 0.05994,-0.148829 0.171566,-0.237712 0.112655,-0.08992 0.268718,-0.08992 0.151929,0 0.259416,0.08888 0.107488,0.08785 0.164332,0.236679 0.05684,0.148828 0.05684,0.328662 z m -0.303858,0.03824 q 0,-0.283188 -0.05374,-0.417546 -0.05374,-0.135393 -0.142627,-0.135393 -0.09095,0 -0.134359,0.10542 -0.04237,0.10542 -0.04237,0.364836 0,0.283188 0.04858,0.420647 0.04857,0.13746 0.147794,0.13746 0.09198,0 0.134359,-0.106454 0.04237,-0.107487 0.04237,-0.36897 z"
                 id="text128"
                 style="font-weight:800;font-size:2.11667px;line-height:1;font-family:'Gentium Book Plus';-inkscape-font-specification:'Gentium Book Plus, Ultra-Bold';text-align:center;text-decoration-color:#d40000;text-anchor:middle;fill:#ffffff;stroke-width:0.196181"
                 aria-label="120" />
            <path
                 id="path136"
                 style="fill:#ffffff;stroke-width:0.96225"
                 d="m -45.935249,58.62545 v -0.12 h 2 v 0.12 z" />
            <path
                 id="path137"
                 style="fill:#ffffff;stroke-width:0.514276"
                 d="m -45.935249,45.850048 v -0.12 h 2 v 0.12 z" />
            <path
                 id="path138"
                 style="fill:#ffffff;stroke-width:1.36083"
                 d="m -45.935249,55.4316 v -0.12 h 4 v 0.12 z" />
            <path
                 id="path139"
                 style="fill:#ffffff;stroke-width:0.96225"
                 d="m -45.935249,52.237749 v -0.12 h 2 v 0.12 z" />
            <path
                 id="path140"
                 style="fill:#ffffff;stroke-width:1.36083"
                 d="m -45.935249,49.043899 v -0.12 h 4 v 0.12 z" />
            <path
                 id="path141"
                 style="fill:#ffffff;stroke-width:1.36083"
                 d="m -45.935249,42.656197 v -0.12 h 4 v 0.12 z" />
            <path
                 id="path142"
                 style="fill:#ffffff;stroke-width:0.96225"
                 d="m -45.935249,39.462347 v -0.12 h 2 v 0.12 z" />
            <path
                 id="path143"
                 style="fill:#ffffff;stroke-width:1.36083"
                 d="m -45.935249,36.268496 v -0.12 h 4 v 0.12 z" />
            <path
                 id="path144"
                 style="fill:#ffffff;stroke-width:0.96225"
                 d="m -45.935249,33.074646 v -0.12 h 2 v 0.12 z" />
            <path
                 id="path145"
                 style="fill:#ffffff;stroke-width:0.77144"
                 d="m -45.935249,29.880795 v -0.12 h 6 v 0.12 z" />
            <path
                 id="path147"
                 style="fill:#ffffff;stroke-width:0.96225"
                 d="m -45.935249,26.686944 v -0.12 h 2 v 0.12 z" />
            <path
                 id="path149"
                 style="fill:#ffffff;stroke-width:1.36083"
                 d="m -45.935249,23.493094 v -0.12 h 4 v 0.12 z" />
            <path
                 id="path150"
                 style="fill:#ffffff;stroke-width:0.96225"
                 d="m -45.935249,20.299243 v -0.12 h 2 v 0.12 z" />
            <path
                 id="path151"
                 style="fill:#ffffff;stroke-width:1.36083"
                 d="m -45.935249,17.105393 v -0.12 h 4 v 0.12 z" />
            <path
                 id="path163"
                 style="fill:#ffffff"
                 d="m -49.043256,93.75812 v -0.12 h -10.082 v 0.12 z" />
            <path
                 id="path164"
                 style="fill:#ffffff"
                 d="m -49.043256,67.833117 v -0.12 h -10.082 v 0.12 z" />
            <path
                 id="path165"
                 style="fill:#ffffff"
                 d="m -49.043256,41.907126 v -0.12 h -10.082 v 0.12 z" />
            <path
                 id="path166"
                 style="fill:#ffffff;stroke-width:1.41421"
                 d="m -49.043256,15.981808 v -0.12 h -10.082 v 0.12 z" />
            <path
                 id="path167"
                 style="fill:#ffffff"
                 d="m -49.043256,89.437121 v -0.12 h -5.401 v 0.12 z" />
            <path
                 id="path168"
                 style="fill:#ffffff"
                 d="m -49.043256,85.116122 v -0.12 h -5.401 v 0.12 z" />
            <path
                 id="path169"
                 style="fill:#ffffff"
                 d="m -49.043256,80.795123 v -0.12 h -7.562 v 0.12 z" />
            <path
                 id="path170"
                 style="fill:#ffffff"
                 d="m -49.043256,76.475123 v -0.12 h -5.401 v 0.12 z" />
            <path
                 id="path171"
                 style="fill:#ffffff"
                 d="m -49.043256,72.154124 v -0.12 h -5.401 v 0.12 z" />
            <path
                 id="path172"
                 style="fill:#ffffff"
                 d="m -49.043256,63.512118 v -0.12 h -5.401 v 0.12 z" />
            <path
                 id="path173"
                 style="fill:#ffffff"
                 d="m -49.043256,59.191119 v -0.12 h -5.401 v 0.12 z" />
            <path
                 id="path174"
                 style="fill:#ffffff"
                 d="m -49.043256,54.87012 v -0.12 h -7.562 v 0.12 z" />
            <path
                 id="path175"
                 style="fill:#ffffff"
                 d="m -49.043256,50.549121 v -0.12 h -5.401 v 0.12 z" />
            <path
                 id="path176"
                 style="fill:#ffffff"
                 d="m -49.043256,46.228125 v -0.12 h -5.401 v 0.12 z" />
            <path
                 id="path177"
                 style="fill:#ffffff"
                 d="m -49.043256,37.586123 v -0.12 h -5.401 v 0.12 z" />
            <path
                 id="path178"
                 style="fill:#ffffff"
                 d="m -49.043256,33.266124 v -0.12 h -5.401 v 0.12 z" />
            <path
                 id="path179"
                 style="fill:#ffffff"
                 d="m -49.043256,28.945124 v -0.12 h -7.562 v 0.12 z" />
            <path
                 id="path180"
                 style="fill:#ffffff"
                 d="m -49.043256,24.624119 v -0.12 h -5.401 v 0.12 z" />
            <path
                 id="path181"
                 style="fill:#ffffff"
                 d="m -49.043256,20.30312 v -0.12 h -5.401 v 0.12 z" />
            <path
                 id="path182"
                 style="fill:#ffffff"
                 d="m -49.043256,91.598124 v -0.12 h -4.321 v 0.12 z" />
            <path
                 id="path183"
                 style="fill:#ffffff"
                 d="m -49.043256,87.277125 v -0.12 h -4.321 v 0.12 z" />
            <path
                 id="path184"
                 style="fill:#ffffff"
                 d="m -49.043256,82.956126 v -0.12 h -4.321 v 0.12 z" />
            <path
                 id="path185"
                 style="fill:#ffffff"
                 d="m -49.043256,78.635119 v -0.12 h -4.321 v 0.12 z" />
            <path
                 id="path186"
                 style="fill:#ffffff"
                 d="m -49.043256,74.31412 v -0.12 h -4.321 v 0.12 z" />
            <path
                 id="path187"
                 style="fill:#ffffff"
                 d="m -49.043256,69.993121 v -0.12 h -4.321 v 0.12 z" />
            <path
                 id="path188"
                 style="fill:#ffffff"
                 d="m -49.043256,65.672122 v -0.12 h -4.321 v 0.12 z" />
            <path
                 id="path189"
                 style="fill:#ffffff"
                 d="m -49.043256,61.351123 v -0.12 h -4.321 v 0.12 z" />
            <path
                 id="path190"
                 style="fill:#ffffff"
                 d="m -49.043256,57.031123 v -0.12 h -4.321 v 0.12 z" />
            <path
                 id="path191"
                 style="fill:#ffffff"
                 d="m -49.043256,52.710124 v -0.12 h -4.321 v 0.12 z" />
            <path
                 id="path192"
                 style="fill:#ffffff"
                 d="m -49.043256,48.389117 v -0.12 h -4.321 v 0.12 z" />
            <path
                 id="path193"
                 style="fill:#ffffff"
                 d="m -49.043256,44.068122 v -0.12 h -4.321 v 0.12 z" />
            <path
                 id="path194"
                 style="fill:#ffffff"
                 d="m -49.043256,39.747123 v -0.12 h -4.321 v 0.12 z" />
            <path
                 id="path195"
                 style="fill:#ffffff"
                 d="m -49.043256,35.42612 v -0.12 h -4.321 v 0.12 z" />
            <path
                 id="path196"
                 style="fill:#ffffff"
                 d="m -49.043256,31.10512 v -0.12 h -4.321 v 0.12 z" />
            <path
                 id="path197"
                 style="fill:#ffffff"
                 d="m -49.043256,26.784121 v -0.12 h -4.321 v 0.12 z" />
            <path
                 id="path198"
                 style="fill:#ffffff"
                 d="m -49.043256,22.463124 v -0.12 h -4.321 v 0.12 z" />
            <path
                 id="path199"
                 style="fill:#ffffff"
                 d="m -49.043256,18.142125 v -0.12 h -4.321 v 0.12 z" />
            <path
                 d="m -61.815722,81.078515 q 0,0.173633 -0.09302,0.319361 -0.09302,0.144177 -0.257348,0.230993 -0.164331,0.08682 -0.376722,0.08682 -0.08062,0 -0.190686,-0.02946 -0.10852,-0.02791 -0.221692,-0.08527 -0.111621,-0.05891 -0.204638,-0.147278 l 0.06821,-0.165881 q 0.141076,0.103869 0.260449,0.150378 0.120923,0.04496 0.237195,0.04496 0.133325,0 0.230993,-0.08527 0.09767,-0.08682 0.09767,-0.283704 0,-0.139526 -0.05426,-0.218591 -0.05426,-0.08062 -0.128675,-0.113172 -0.07441,-0.03256 -0.134875,-0.03256 -0.04341,0 -0.06821,0.0015 -0.02481,0.0016 -0.06821,0.0093 l -0.02946,-0.155029 q 0.173633,-0.04651 0.257349,-0.113172 0.08372,-0.06821 0.110071,-0.142627 0.02791,-0.07441 0.02791,-0.137976 0,-0.10697 -0.04031,-0.189135 -0.04031,-0.08217 -0.148829,-0.08217 -0.05426,0 -0.09922,0.04961 -0.04496,0.04961 -0.04496,0.127124 0,0.03721 0.01085,0.07441 -0.06666,0.03876 -0.179834,0.07751 -0.113171,0.03721 -0.206189,0.04496 l -0.05581,-0.110071 q 0,-0.08682 0.08216,-0.192236 0.08217,-0.10542 0.230994,-0.181385 0.150378,-0.07596 0.350366,-0.07596 0.201538,0 0.320911,0.06356 0.120923,0.06356 0.175183,0.162781 0.05426,0.09767 0.05426,0.203088 0,0.07752 -0.04186,0.15968 -0.04186,0.08217 -0.116272,0.148828 -0.07441,0.06511 -0.172082,0.09457 0.193786,0.02015 0.305407,0.161231 0.113172,0.141076 0.113172,0.330212 z m 1.737878,-0.342615 q 0,0.266651 -0.09612,0.489893 -0.09612,0.221692 -0.2651,0.356567 -0.168982,0.133326 -0.389124,0.133326 -0.220141,0 -0.382922,-0.133326 -0.16123,-0.134875 -0.249597,-0.356567 -0.08837,-0.223242 -0.08837,-0.489893 0,-0.26665 0.08992,-0.489892 0.08992,-0.223242 0.257349,-0.356568 0.168982,-0.134875 0.403076,-0.134875 0.227893,0 0.389124,0.133325 0.16123,0.131775 0.246496,0.355017 0.08527,0.223242 0.08527,0.492993 z m -0.455786,0.05736 q 0,-0.42478 -0.08061,-0.626318 -0.08062,-0.203088 -0.213941,-0.203088 -0.136425,0 -0.201538,0.158129 -0.06356,0.15813 -0.06356,0.547254 0,0.42478 0.07286,0.630969 0.07286,0.206189 0.221692,0.206189 0.137976,0 0.201538,-0.15968 0.06356,-0.161231 0.06356,-0.553455 z"
                 id="path200"
                 style="font-weight:800;font-size:3.175px;font-family:'Gentium Book Plus';-inkscape-font-specification:'Gentium Book Plus, Ultra-Bold';text-align:center;text-anchor:middle;fill:#ffffff"
                 aria-label="30" />
            <path
                 d="m -61.233331,72.293075 q 0,0.119889 -0.04961,0.224276 -0.04961,0.103353 -0.156063,0.167432 -0.106454,0.06305 -0.275953,0.06305 -0.09509,0 -0.21084,-0.04341 -0.115756,-0.04341 -0.204639,-0.126091 l 0.05684,-0.100252 q 0.109554,0.07545 0.19327,0.100252 0.08372,0.02481 0.142627,0.02481 0.09302,0 0.159164,-0.07338 0.06615,-0.07441 0.06615,-0.192236 0,-0.141594 -0.06925,-0.211874 -0.06925,-0.07028 -0.171566,-0.07028 -0.09508,0 -0.153996,0.02584 -0.05891,0.02584 -0.113688,0.06718 l -0.04858,-0.03411 q 0.0093,-0.05581 0.02274,-0.141593 0.01344,-0.08682 0.02584,-0.180868 0.01344,-0.09508 0.02274,-0.179834 0.01034,-0.08578 0.01344,-0.140561 h 0.574642 q 0.05891,0 0.09198,-0.0093 0.03307,-0.0093 0.03307,-0.0093 l 0.04031,0.04031 q -0.01447,0.0217 -0.04444,0.06201 -0.02894,0.03928 -0.05891,0.07545 -0.02894,0.03514 -0.04547,0.04754 h -0.461988 q -0.0031,0.05994 -0.0155,0.13746 -0.0124,0.07648 -0.0217,0.121957 0.04754,-0.02274 0.10542,-0.03514 0.05788,-0.0124 0.127124,-0.0124 0.143661,0 0.237712,0.05891 0.09509,0.05788 0.141594,0.150896 0.04754,0.09198 0.04754,0.19327 z m 1.155487,-0.198438 q 0,0.177767 -0.06408,0.326596 -0.06408,0.147795 -0.176734,0.237712 -0.112654,0.08888 -0.259416,0.08888 -0.146761,0 -0.255282,-0.08888 -0.107487,-0.08992 -0.166398,-0.237712 -0.05891,-0.148829 -0.05891,-0.326596 0,-0.177767 0.05994,-0.326595 0.05994,-0.148829 0.171566,-0.237712 0.112654,-0.08992 0.268717,-0.08992 0.151929,0 0.259416,0.08888 0.107488,0.08785 0.164332,0.236679 0.05684,0.148828 0.05684,0.328662 z m -0.303858,0.03824 q 0,-0.283187 -0.05374,-0.417546 -0.05374,-0.135393 -0.142627,-0.135393 -0.09095,0 -0.134359,0.10542 -0.04237,0.10542 -0.04237,0.364836 0,0.283188 0.04858,0.420647 0.04857,0.13746 0.147794,0.13746 0.09199,0 0.134359,-0.106454 0.04237,-0.107487 0.04237,-0.36897 z"
                 id="path201"
                 style="font-weight:800;font-size:2.11667px;font-family:'Gentium Book Plus';-inkscape-font-specification:'Gentium Book Plus, Ultra-Bold';text-align:center;text-anchor:middle;fill:#ffffff"
                 aria-label="50" />
            <path
                 d="m -61.196124,76.577906 q -0.0217,0.03307 -0.05581,0.07028 -0.03307,0.03617 -0.05684,0.05374 h -0.05168 v 0.192237 q 0,0.0155 0.02894,0.02997 0.02997,0.01344 0.114722,0.03307 v 0.08578 h -0.62942 v -0.08578 q 0.135392,-0.02274 0.1757,-0.03927 0.04134,-0.01757 0.04134,-0.03514 v -0.180868 h -0.482659 l -0.04444,-0.04444 0.49196,-0.817522 q 0.05168,-0.01757 0.128158,-0.04134 0.07751,-0.02481 0.127124,-0.04237 l 0.04858,0.04651 v 0.744142 h 0.137459 z m -0.433049,-0.527101 -0.312126,0.496095 h 0.312126 z m 1.551329,0.370004 q 0,0.177767 -0.06408,0.326596 -0.06408,0.147794 -0.176734,0.237712 -0.112654,0.08888 -0.259416,0.08888 -0.146761,0 -0.255282,-0.08888 -0.107487,-0.08992 -0.166398,-0.237712 -0.05891,-0.148829 -0.05891,-0.326596 0,-0.177767 0.05994,-0.326596 0.05994,-0.148828 0.171566,-0.237711 0.112654,-0.08992 0.268717,-0.08992 0.151929,0 0.259416,0.08888 0.107488,0.08785 0.164332,0.236678 0.05684,0.148829 0.05684,0.328663 z m -0.303858,0.03824 q 0,-0.283188 -0.05374,-0.417547 -0.05374,-0.135392 -0.142627,-0.135392 -0.09095,0 -0.134359,0.10542 -0.04237,0.10542 -0.04237,0.364836 0,0.283188 0.04858,0.420647 0.04857,0.13746 0.147794,0.13746 0.09199,0 0.134359,-0.106454 0.04237,-0.107487 0.04237,-0.36897 z"
                 id="path202"
                 style="font-weight:800;font-size:2.11667px;font-family:'Gentium Book Plus';-inkscape-font-specification:'Gentium Book Plus, Ultra-Bold';text-align:center;text-anchor:middle;fill:#ffffff"
                 aria-label="40" />
            <path
                 d="m -61.240566,85.67882 h -0.861964 l -0.02997,-0.07648 q 0.180868,-0.212907 0.297657,-0.356568 0.116788,-0.144694 0.182934,-0.239779 0.06615,-0.09612 0.09199,-0.161231 0.02687,-0.06614 0.02687,-0.120923 0,-0.08578 -0.03411,-0.141593 -0.03411,-0.05581 -0.111621,-0.05581 -0.06925,0 -0.103353,0.04547 -0.03411,0.04548 -0.03411,0.107488 0,0.02687 0.0062,0.05478 -0.02274,0.0124 -0.07235,0.02791 -0.04858,0.0155 -0.100252,0.0279 -0.05168,0.0124 -0.08372,0.0155 l -0.03824,-0.08268 q 0,-0.05374 0.03824,-0.109554 0.03927,-0.05581 0.107487,-0.103353 0.06821,-0.04858 0.15813,-0.07751 0.08992,-0.02997 0.192237,-0.02997 0.171566,0 0.270785,0.06511 0.09922,0.06408 0.09922,0.186035 0,0.06925 -0.02997,0.14056 -0.02997,0.07131 -0.09819,0.162265 -0.06718,0.08992 -0.181902,0.217041 -0.113688,0.126091 -0.28112,0.307992 h 0.406178 q 0.03411,0 0.05581,-0.03411 0.02274,-0.03514 0.03514,-0.08475 0.0124,-0.05064 0.01447,-0.09612 l 0.09302,0.02274 z m 1.162722,-0.622185 q 0,0.177767 -0.06408,0.326596 -0.06408,0.147795 -0.176734,0.237712 -0.112654,0.08888 -0.259416,0.08888 -0.146761,0 -0.255282,-0.08888 -0.107487,-0.08992 -0.166398,-0.237712 -0.05891,-0.148829 -0.05891,-0.326596 0,-0.177767 0.05994,-0.326595 0.05994,-0.148829 0.171566,-0.237712 0.112654,-0.08992 0.268717,-0.08992 0.151929,0 0.259416,0.08888 0.107488,0.08785 0.164332,0.236679 0.05684,0.148828 0.05684,0.328662 z m -0.303858,0.03824 q 0,-0.283188 -0.05374,-0.417546 -0.05374,-0.135393 -0.142627,-0.135393 -0.09095,0 -0.134359,0.10542 -0.04237,0.10542 -0.04237,0.364836 0,0.283188 0.04858,0.420647 0.04857,0.13746 0.147794,0.13746 0.09199,0 0.134359,-0.106454 0.04237,-0.107487 0.04237,-0.36897 z"
                 id="path203"
                 style="font-weight:800;font-size:2.11667px;font-family:'Gentium Book Plus';-inkscape-font-specification:'Gentium Book Plus, Ultra-Bold';text-align:center;text-anchor:middle;fill:#ffffff"
                 aria-label="20" />
            <path
                 d="m -62.058088,90.004992 v -0.09612 q 0.162264,-0.01964 0.220142,-0.04547 0.05891,-0.02584 0.05891,-0.04754 v -0.741041 q 0,-0.04134 -0.0031,-0.06408 -0.0031,-0.02377 -0.0155,-0.03721 -0.0124,-0.01344 -0.06821,-0.01344 -0.05581,-0.001 -0.192237,0.0279 l -0.03204,-0.09405 q 0.04444,-0.0083 0.118856,-0.02997 0.07545,-0.02274 0.15813,-0.05064 0.08268,-0.0279 0.153996,-0.05374 0.07235,-0.02584 0.110587,-0.04134 l 0.04858,0.04651 v 1.0511 q 0,0.01964 0.05064,0.04651 0.05168,0.02687 0.20774,0.04651 v 0.09612 z m 1.980244,-0.622185 q 0,0.177767 -0.06408,0.326596 -0.06408,0.147794 -0.176734,0.237712 -0.112654,0.08888 -0.259416,0.08888 -0.146761,0 -0.255282,-0.08888 -0.107487,-0.08992 -0.166398,-0.237712 -0.05891,-0.148829 -0.05891,-0.326596 0,-0.177767 0.05994,-0.326596 0.05994,-0.148828 0.171566,-0.237711 0.112654,-0.08992 0.268717,-0.08992 0.151929,0 0.259416,0.08888 0.107488,0.08785 0.164332,0.236678 0.05684,0.148829 0.05684,0.328663 z m -0.303858,0.03824 q 0,-0.283188 -0.05374,-0.417547 -0.05374,-0.135392 -0.142627,-0.135392 -0.09095,0 -0.134359,0.10542 -0.04237,0.10542 -0.04237,0.364836 0,0.283188 0.04858,0.420647 0.04857,0.13746 0.147794,0.13746 0.09199,0 0.134359,-0.106454 0.04237,-0.107487 0.04237,-0.36897 z"
                 id="path204"
                 style="font-weight:800;font-size:2.11667px;font-family:'Gentium Book Plus';-inkscape-font-specification:'Gentium Book Plus, Ultra-Bold';text-align:center;text-anchor:middle;fill:#ffffff"
                 aria-label="10" />
            <path
                 d="m -64.693065,55.751925 v -0.144177 q 0.243396,-0.02946 0.330212,-0.06821 0.08837,-0.03876 0.08837,-0.07131 v -1.11156 q 0,-0.06201 -0.0047,-0.09612 -0.0047,-0.03566 -0.02325,-0.05581 -0.0186,-0.02015 -0.10232,-0.02015 -0.08371,-0.0015 -0.288354,0.04186 l -0.04806,-0.141077 q 0.06666,-0.0124 0.178283,-0.04496 0.113172,-0.03411 0.237195,-0.07596 0.124024,-0.04186 0.230994,-0.08062 0.10852,-0.03876 0.165881,-0.06201 l 0.07286,0.06976 v 1.576648 q 0,0.02945 0.07596,0.06976 0.07752,0.04031 0.311609,0.06976 v 0.144177 z m 2.877344,-0.590661 q 0,0.173632 -0.09302,0.31936 -0.09302,0.144177 -0.257349,0.230994 -0.164331,0.08682 -0.376721,0.08682 -0.08061,0 -0.190686,-0.02946 -0.10852,-0.02791 -0.221692,-0.08527 -0.111621,-0.05891 -0.204638,-0.147278 l 0.06821,-0.165881 q 0.141077,0.10387 0.26045,0.150379 0.120923,0.04496 0.237195,0.04496 0.133325,0 0.230993,-0.08527 0.09767,-0.08682 0.09767,-0.283704 0,-0.139526 -0.05426,-0.218591 -0.05426,-0.08062 -0.128674,-0.113171 -0.07441,-0.03256 -0.134875,-0.03256 -0.04341,0 -0.06821,0.0016 -0.02481,0.0016 -0.06821,0.0093 l -0.02946,-0.15503 q 0.173633,-0.04651 0.257349,-0.113171 0.08372,-0.06821 0.110071,-0.142627 0.02791,-0.07441 0.02791,-0.137976 0,-0.10697 -0.04031,-0.189136 -0.04031,-0.08216 -0.148828,-0.08216 -0.05426,0 -0.09922,0.04961 -0.04496,0.04961 -0.04496,0.127124 0,0.03721 0.01085,0.07441 -0.06666,0.03876 -0.179834,0.07752 -0.113171,0.03721 -0.206189,0.04496 l -0.05581,-0.110071 q 0,-0.08682 0.08216,-0.192236 0.08217,-0.10542 0.230994,-0.181384 0.150378,-0.07597 0.350366,-0.07597 0.201538,0 0.320911,0.06356 0.120922,0.06356 0.175183,0.162781 0.05426,0.09767 0.05426,0.203089 0,0.07751 -0.04186,0.15968 -0.04186,0.08217 -0.116272,0.148828 -0.07441,0.06511 -0.172083,0.09457 0.193787,0.02015 0.305408,0.16123 0.113172,0.141077 0.113172,0.330213 z m 1.737878,-0.342615 q 0,0.26665 -0.09612,0.489892 -0.09612,0.221692 -0.2651,0.356568 -0.168982,0.133325 -0.389124,0.133325 -0.220141,0 -0.382922,-0.133325 -0.161231,-0.134876 -0.249597,-0.356568 -0.08837,-0.223242 -0.08837,-0.489892 0,-0.266651 0.08992,-0.489893 0.08992,-0.223242 0.257349,-0.356567 0.168982,-0.134876 0.403076,-0.134876 0.227893,0 0.389123,0.133326 0.161231,0.131775 0.246497,0.355017 0.08527,0.223242 0.08527,0.492993 z m -0.455786,0.05736 q 0,-0.424781 -0.08061,-0.626319 -0.08062,-0.203088 -0.213941,-0.203088 -0.136426,0 -0.201538,0.15813 -0.06356,0.15813 -0.06356,0.547253 0,0.424781 0.07286,0.630969 0.07286,0.206189 0.221692,0.206189 0.137976,0 0.201538,-0.15968 0.06356,-0.16123 0.06356,-0.553454 z"
                 id="path205"
                 style="font-weight:800;font-size:3.175px;font-family:'Gentium Book Plus';-inkscape-font-specification:'Gentium Book Plus, Ultra-Bold';text-align:center;text-anchor:middle;fill:#ffffff"
                 aria-label="130" />
            <path
                 d="m -63.154664,64.079989 v -0.09612 q 0.162264,-0.01964 0.220142,-0.04547 0.05891,-0.02584 0.05891,-0.04754 v -0.741041 q 0,-0.04134 -0.0031,-0.06408 -0.0031,-0.02377 -0.0155,-0.03721 -0.0124,-0.01344 -0.06821,-0.01344 -0.05581,-0.001 -0.192236,0.02791 l -0.03204,-0.09405 q 0.04444,-0.0083 0.118856,-0.02997 0.07545,-0.02274 0.158131,-0.05064 0.08268,-0.02791 0.153996,-0.05374 0.07235,-0.02584 0.110587,-0.04134 l 0.04858,0.04651 v 1.0511 q 0,0.01964 0.05064,0.04651 0.05168,0.02687 0.20774,0.04651 v 0.09612 z m 1.096575,0 v -0.09612 q 0.162265,-0.01964 0.220142,-0.04547 0.05891,-0.02584 0.05891,-0.04754 v -0.741041 q 0,-0.04134 -0.0031,-0.06408 -0.0031,-0.02377 -0.0155,-0.03721 -0.0124,-0.01344 -0.06821,-0.01344 -0.05581,-0.001 -0.192237,0.02791 l -0.03204,-0.09405 q 0.04444,-0.0083 0.118856,-0.02997 0.07545,-0.02274 0.15813,-0.05064 0.08268,-0.02791 0.153996,-0.05374 0.07235,-0.02584 0.110588,-0.04134 l 0.04858,0.04651 v 1.0511 q 0,0.01964 0.05064,0.04651 0.05168,0.02687 0.207739,0.04651 v 0.09612 z m 1.980244,-0.622185 q 0,0.177767 -0.06408,0.326596 -0.06408,0.147794 -0.176734,0.237711 -0.112655,0.08888 -0.259416,0.08888 -0.146761,0 -0.255282,-0.08888 -0.107487,-0.08992 -0.166399,-0.237711 -0.05891,-0.148829 -0.05891,-0.326596 0,-0.177767 0.05994,-0.326596 0.05995,-0.148828 0.171566,-0.237712 0.112655,-0.08992 0.268718,-0.08992 0.151929,0 0.259416,0.08888 0.107487,0.08785 0.164331,0.236678 0.05684,0.148829 0.05684,0.328663 z m -0.303857,0.03824 q 0,-0.283188 -0.05374,-0.417547 -0.05374,-0.135392 -0.142627,-0.135392 -0.09095,0 -0.134359,0.10542 -0.04237,0.10542 -0.04237,0.364836 0,0.283187 0.04858,0.420647 0.04858,0.137459 0.147795,0.137459 0.09198,0 0.134359,-0.106453 0.04237,-0.107487 0.04237,-0.36897 z"
                 id="path206"
                 style="font-weight:800;font-size:2.11667px;font-family:'Gentium Book Plus';-inkscape-font-specification:'Gentium Book Plus, Ultra-Bold';text-align:center;text-anchor:middle;fill:#ffffff"
                 aria-label="110" />
            <path
                 d="m -63.154664,59.75899 v -0.09612 q 0.162264,-0.01964 0.220142,-0.04548 0.05891,-0.02584 0.05891,-0.04754 v -0.741041 q 0,-0.04134 -0.0031,-0.06408 -0.0031,-0.02377 -0.0155,-0.03721 -0.0124,-0.01344 -0.06821,-0.01344 -0.05581,-10e-4 -0.192236,0.02791 l -0.03204,-0.09405 q 0.04444,-0.0083 0.118856,-0.02997 0.07545,-0.02274 0.158131,-0.05064 0.08268,-0.02791 0.153996,-0.05374 0.07235,-0.02584 0.110587,-0.04134 l 0.04858,0.04651 v 1.0511 q 0,0.01964 0.05064,0.04651 0.05168,0.02687 0.20774,0.04651 v 0.09612 z m 1.914098,0 h -0.861964 l -0.02997,-0.07648 q 0.180868,-0.212907 0.297657,-0.356568 0.116789,-0.144694 0.182935,-0.239779 0.06615,-0.09612 0.09198,-0.161231 0.02687,-0.06615 0.02687,-0.120923 0,-0.08578 -0.03411,-0.141594 -0.03411,-0.05581 -0.111621,-0.05581 -0.06925,0 -0.103353,0.04547 -0.03411,0.04548 -0.03411,0.107487 0,0.02687 0.0062,0.05478 -0.02274,0.0124 -0.07235,0.02791 -0.04858,0.0155 -0.100253,0.02791 -0.05168,0.0124 -0.08372,0.0155 l -0.03824,-0.08268 q 0,-0.05374 0.03824,-0.109555 0.03927,-0.05581 0.107487,-0.103353 0.06821,-0.04858 0.15813,-0.07751 0.08992,-0.02997 0.192237,-0.02997 0.171566,0 0.270785,0.06511 0.09922,0.06408 0.09922,0.186035 0,0.06925 -0.02997,0.14056 -0.02997,0.07131 -0.09819,0.162264 -0.06718,0.08992 -0.181901,0.217042 -0.113688,0.12609 -0.28112,0.307992 h 0.406177 q 0.03411,0 0.05581,-0.03411 0.02274,-0.03514 0.03514,-0.08475 0.0124,-0.05064 0.01447,-0.09612 l 0.09302,0.02274 z m 1.162721,-0.622185 q 0,0.177767 -0.06408,0.326595 -0.06408,0.147795 -0.176734,0.237712 -0.112655,0.08888 -0.259416,0.08888 -0.146761,0 -0.255282,-0.08888 -0.107487,-0.08992 -0.166399,-0.237712 -0.05891,-0.148828 -0.05891,-0.326595 0,-0.177767 0.05994,-0.326596 0.05995,-0.148828 0.171566,-0.237712 0.112655,-0.08992 0.268718,-0.08992 0.151929,0 0.259416,0.08888 0.107487,0.08785 0.164331,0.236678 0.05684,0.148829 0.05684,0.328663 z m -0.303857,0.03824 q 0,-0.283187 -0.05374,-0.417546 -0.05374,-0.135392 -0.142627,-0.135392 -0.09095,0 -0.134359,0.10542 -0.04237,0.10542 -0.04237,0.364836 0,0.283187 0.04858,0.420647 0.04858,0.137459 0.147795,0.137459 0.09198,0 0.134359,-0.106453 0.04237,-0.107487 0.04237,-0.368971 z"
                 id="path207"
                 style="font-weight:800;font-size:2.11667px;font-family:'Gentium Book Plus';-inkscape-font-specification:'Gentium Book Plus, Ultra-Bold';text-align:center;text-anchor:middle;fill:#ffffff"
                 aria-label="120" />
            <path
                 d="m -63.154664,51.116992 v -0.09612 q 0.162264,-0.01964 0.220142,-0.04547 0.05891,-0.02584 0.05891,-0.04754 v -0.741041 q 0,-0.04134 -0.0031,-0.06408 -0.0031,-0.02377 -0.0155,-0.03721 -0.0124,-0.01344 -0.06821,-0.01344 -0.05581,-10e-4 -0.192236,0.0279 l -0.03204,-0.09405 q 0.04444,-0.0083 0.118856,-0.02997 0.07545,-0.02274 0.158131,-0.05064 0.08268,-0.0279 0.153996,-0.05374 0.07235,-0.02584 0.110587,-0.04134 l 0.04858,0.04651 v 1.051101 q 0,0.01964 0.05064,0.04651 0.05168,0.02687 0.20774,0.04651 v 0.09612 z m 1.95854,-0.465089 q -0.0217,0.03307 -0.05581,0.07028 -0.03307,0.03617 -0.05684,0.05374 h -0.05168 v 0.192236 q 0,0.0155 0.02894,0.02997 0.02997,0.01344 0.114722,0.03307 v 0.08578 h -0.62942 v -0.08578 q 0.135393,-0.02274 0.1757,-0.03927 0.04134,-0.01757 0.04134,-0.03514 v -0.180868 h -0.482659 l -0.04444,-0.04444 0.49196,-0.817522 q 0.05168,-0.01757 0.128158,-0.04134 0.07752,-0.0248 0.127124,-0.04237 l 0.04858,0.04651 v 0.744142 h 0.13746 z m -0.433049,-0.5271 -0.312127,0.496094 h 0.312127 z m 1.551328,0.370004 q 0,0.177767 -0.06408,0.326595 -0.06408,0.147795 -0.176734,0.237712 -0.112655,0.08888 -0.259416,0.08888 -0.146761,0 -0.255282,-0.08888 -0.107487,-0.08992 -0.166399,-0.237712 -0.05891,-0.148828 -0.05891,-0.326595 0,-0.177768 0.05994,-0.326596 0.05995,-0.148828 0.171566,-0.237712 0.112655,-0.08992 0.268718,-0.08992 0.151929,0 0.259416,0.08888 0.107487,0.08785 0.164331,0.236678 0.05684,0.148828 0.05684,0.328663 z m -0.303857,0.03824 q 0,-0.283187 -0.05374,-0.417546 -0.05374,-0.135393 -0.142627,-0.135393 -0.09095,0 -0.134359,0.105421 -0.04237,0.10542 -0.04237,0.364836 0,0.283187 0.04858,0.420647 0.04858,0.137459 0.147795,0.137459 0.09198,0 0.134359,-0.106454 0.04237,-0.107487 0.04237,-0.36897 z"
                 id="path208"
                 style="font-weight:800;font-size:2.11667px;font-family:'Gentium Book Plus';-inkscape-font-specification:'Gentium Book Plus, Ultra-Bold';text-align:center;text-anchor:middle;fill:#ffffff"
                 aria-label="140" />
            <path
                 d="m -63.154664,46.795993 v -0.09612 q 0.162264,-0.01964 0.220142,-0.04547 0.05891,-0.02584 0.05891,-0.04754 v -0.741042 q 0,-0.04134 -0.0031,-0.06408 -0.0031,-0.02377 -0.0155,-0.03721 -0.0124,-0.01344 -0.06821,-0.01344 -0.05581,-0.001 -0.192236,0.0279 l -0.03204,-0.09405 q 0.04444,-0.0083 0.118856,-0.02997 0.07545,-0.02274 0.158131,-0.05064 0.08268,-0.0279 0.153996,-0.05374 0.07235,-0.02584 0.110587,-0.04134 l 0.04858,0.04651 v 1.051101 q 0,0.01964 0.05064,0.04651 0.05168,0.02687 0.20774,0.04651 v 0.09612 z m 1.921333,-0.423748 q 0,0.11989 -0.04961,0.224276 -0.04961,0.103353 -0.156063,0.167432 -0.106454,0.06305 -0.275953,0.06305 -0.09508,0 -0.21084,-0.04341 -0.115755,-0.04341 -0.204639,-0.12609 l 0.05684,-0.100253 q 0.109554,0.07545 0.19327,0.100253 0.08372,0.0248 0.142627,0.0248 0.09302,0 0.159163,-0.07338 0.06615,-0.07442 0.06615,-0.192237 0,-0.141594 -0.06925,-0.211874 -0.06925,-0.07028 -0.171566,-0.07028 -0.09509,0 -0.153996,0.02584 -0.05891,0.02584 -0.113688,0.06718 l -0.04858,-0.03411 q 0.0093,-0.05581 0.02274,-0.141593 0.01344,-0.08682 0.02584,-0.180868 0.01343,-0.09508 0.02274,-0.179834 0.01034,-0.08578 0.01344,-0.14056 h 0.574643 q 0.05891,0 0.09198,-0.0093 0.03307,-0.0093 0.03307,-0.0093 l 0.04031,0.04031 q -0.01447,0.0217 -0.04444,0.06201 -0.02894,0.03927 -0.05891,0.07545 -0.02894,0.03514 -0.04548,0.04754 h -0.461988 q -0.0031,0.05994 -0.0155,0.137459 -0.0124,0.07648 -0.0217,0.121957 0.04754,-0.02274 0.10542,-0.03514 0.05788,-0.0124 0.127125,-0.0124 0.14366,0 0.237712,0.05891 0.09508,0.05788 0.141593,0.150895 0.04754,0.09198 0.04754,0.19327 z m 1.155486,-0.198438 q 0,0.177768 -0.06408,0.326596 -0.06408,0.147795 -0.176734,0.237712 -0.112655,0.08888 -0.259416,0.08888 -0.146761,0 -0.255282,-0.08888 -0.107487,-0.08992 -0.166399,-0.237712 -0.05891,-0.148828 -0.05891,-0.326596 0,-0.177767 0.05994,-0.326595 0.05995,-0.148829 0.171566,-0.237712 0.112655,-0.08992 0.268718,-0.08992 0.151929,0 0.259416,0.08888 0.107487,0.08785 0.164331,0.236679 0.05684,0.148828 0.05684,0.328662 z m -0.303857,0.03824 q 0,-0.283187 -0.05374,-0.417546 -0.05374,-0.135393 -0.142627,-0.135393 -0.09095,0 -0.134359,0.10542 -0.04237,0.105421 -0.04237,0.364837 0,0.283187 0.04858,0.420646 0.04858,0.13746 0.147795,0.13746 0.09198,0 0.134359,-0.106454 0.04237,-0.107487 0.04237,-0.36897 z"
                 id="path209"
                 style="font-weight:800;font-size:2.11667px;font-family:'Gentium Book Plus';-inkscape-font-specification:'Gentium Book Plus, Ultra-Bold';text-align:center;text-anchor:middle;fill:#ffffff"
                 aria-label="150" />
            <path
                 d="m -63.466783,29.819178 h -1.292945 l -0.04496,-0.114721 q 0.271301,-0.319361 0.446484,-0.534851 0.175183,-0.217041 0.274402,-0.359668 0.09922,-0.144178 0.137976,-0.241846 0.04031,-0.09922 0.04031,-0.181384 0,-0.128675 -0.05116,-0.21239 -0.05116,-0.08372 -0.167432,-0.08372 -0.103869,0 -0.155029,0.06821 -0.05116,0.06821 -0.05116,0.16123 0,0.04031 0.0093,0.08217 -0.03411,0.0186 -0.10852,0.04186 -0.07286,0.02325 -0.150379,0.04186 -0.07751,0.0186 -0.125574,0.02326 l -0.05736,-0.124024 q 0,-0.08061 0.05736,-0.164331 0.05891,-0.08372 0.161231,-0.155029 0.102319,-0.07286 0.237195,-0.116272 0.134875,-0.04496 0.288354,-0.04496 0.257349,0 0.406177,0.09767 0.148828,0.09612 0.148828,0.279053 0,0.103869 -0.04496,0.21084 -0.04496,0.10697 -0.147278,0.243396 -0.100769,0.134875 -0.272852,0.325561 -0.170532,0.189136 -0.421679,0.461987 h 0.609265 q 0.05116,0 0.08372,-0.05116 0.03411,-0.05271 0.05271,-0.127124 0.0186,-0.07597 0.0217,-0.144178 l 0.139526,0.03411 z m 1.651062,-0.590661 q 0,0.173633 -0.09302,0.31936 -0.09302,0.144177 -0.257349,0.230994 -0.164331,0.08682 -0.376721,0.08682 -0.08061,0 -0.190686,-0.02945 -0.10852,-0.02791 -0.221692,-0.08527 -0.111621,-0.05891 -0.204638,-0.147277 l 0.06821,-0.165882 q 0.141077,0.10387 0.26045,0.150379 0.120923,0.04496 0.237195,0.04496 0.133325,0 0.230993,-0.08527 0.09767,-0.08682 0.09767,-0.283704 0,-0.139526 -0.05426,-0.218591 -0.05426,-0.08062 -0.128674,-0.113171 -0.07441,-0.03256 -0.134875,-0.03256 -0.04341,0 -0.06821,0.0016 -0.02481,0.0016 -0.06821,0.0093 l -0.02946,-0.15503 q 0.173633,-0.04651 0.257349,-0.113171 0.08372,-0.06821 0.110071,-0.142627 0.02791,-0.07441 0.02791,-0.137976 0,-0.10697 -0.04031,-0.189136 -0.04031,-0.08216 -0.148828,-0.08216 -0.05426,0 -0.09922,0.04961 -0.04496,0.04961 -0.04496,0.127124 0,0.03721 0.01085,0.07441 -0.06666,0.03876 -0.179834,0.07752 -0.113171,0.03721 -0.206189,0.04496 l -0.05581,-0.110071 q 0,-0.08682 0.08216,-0.192236 0.08217,-0.10542 0.230994,-0.181384 0.150378,-0.07596 0.350366,-0.07596 0.201538,0 0.320911,0.06356 0.120922,0.06356 0.175183,0.16278 0.05426,0.09767 0.05426,0.203089 0,0.07751 -0.04186,0.15968 -0.04186,0.08216 -0.116272,0.148828 -0.07441,0.06511 -0.172083,0.09457 0.193787,0.02015 0.305408,0.16123 0.113172,0.141077 0.113172,0.330213 z m 1.737878,-0.342615 q 0,0.26665 -0.09612,0.489893 -0.09612,0.221691 -0.2651,0.356567 -0.168982,0.133325 -0.389124,0.133325 -0.220141,0 -0.382922,-0.133325 -0.161231,-0.134876 -0.249597,-0.356567 -0.08837,-0.223243 -0.08837,-0.489893 0,-0.26665 0.08992,-0.489893 0.08992,-0.223242 0.257349,-0.356567 0.168982,-0.134875 0.403076,-0.134875 0.227893,0 0.389123,0.133325 0.161231,0.131775 0.246497,0.355017 0.08527,0.223242 0.08527,0.492993 z m -0.455786,0.05736 q 0,-0.42478 -0.08061,-0.626319 -0.08062,-0.203088 -0.213941,-0.203088 -0.136426,0 -0.201538,0.15813 -0.06356,0.15813 -0.06356,0.547253 0,0.424781 0.07286,0.63097 0.07286,0.206189 0.221692,0.206189 0.137976,0 0.201538,-0.159681 0.06356,-0.16123 0.06356,-0.553454 z"
                 id="path210"
                 style="font-weight:800;font-size:3.175px;font-family:'Gentium Book Plus';-inkscape-font-specification:'Gentium Book Plus, Ultra-Bold';text-align:center;text-anchor:middle;fill:#ffffff"
                 aria-label="230" />
            <path
                 d="m -62.337142,38.153994 h -0.861964 l -0.02997,-0.07648 q 0.180867,-0.212907 0.297656,-0.356568 0.116789,-0.144694 0.182935,-0.239779 0.06615,-0.09612 0.09198,-0.161231 0.02687,-0.06615 0.02687,-0.120923 0,-0.08578 -0.03411,-0.141593 -0.03411,-0.05581 -0.111622,-0.05581 -0.06925,0 -0.103353,0.04547 -0.03411,0.04548 -0.03411,0.107488 0,0.02687 0.0062,0.05478 -0.02274,0.0124 -0.07235,0.0279 -0.04858,0.0155 -0.100252,0.0279 -0.05168,0.0124 -0.08372,0.0155 l -0.03824,-0.08268 q 0,-0.05374 0.03824,-0.109554 0.03927,-0.05581 0.107487,-0.103353 0.06821,-0.04858 0.15813,-0.07751 0.08992,-0.02997 0.192236,-0.02997 0.171567,0 0.270785,0.06511 0.09922,0.06408 0.09922,0.186035 0,0.06925 -0.02997,0.14056 -0.02997,0.07131 -0.09819,0.162265 -0.06718,0.08992 -0.181902,0.217041 -0.113688,0.126091 -0.28112,0.307992 h 0.406177 q 0.03411,0 0.05581,-0.03411 0.02274,-0.03514 0.03514,-0.08475 0.0124,-0.05064 0.01447,-0.09612 l 0.09302,0.02274 z m 0.279053,0 v -0.09612 q 0.162265,-0.01964 0.220142,-0.04547 0.05891,-0.02584 0.05891,-0.04754 v -0.741041 q 0,-0.04134 -0.0031,-0.06408 -0.0031,-0.02377 -0.0155,-0.03721 -0.0124,-0.01344 -0.06821,-0.01344 -0.05581,-0.001 -0.192237,0.02791 l -0.03204,-0.09405 q 0.04444,-0.0083 0.118856,-0.02997 0.07545,-0.02274 0.15813,-0.05064 0.08268,-0.02791 0.153996,-0.05374 0.07235,-0.02584 0.110588,-0.04134 l 0.04858,0.04651 v 1.0511 q 0,0.01964 0.05064,0.04651 0.05168,0.02687 0.207739,0.04651 v 0.09612 z m 1.980244,-0.622185 q 0,0.177767 -0.06408,0.326596 -0.06408,0.147794 -0.176734,0.237712 -0.112655,0.08888 -0.259416,0.08888 -0.146761,0 -0.255282,-0.08888 -0.107487,-0.08992 -0.166399,-0.237712 -0.05891,-0.148829 -0.05891,-0.326596 0,-0.177767 0.05994,-0.326595 0.05995,-0.148829 0.171566,-0.237712 0.112655,-0.08992 0.268718,-0.08992 0.151929,0 0.259416,0.08888 0.107487,0.08785 0.164331,0.236678 0.05684,0.148829 0.05684,0.328663 z m -0.303857,0.03824 q 0,-0.283188 -0.05374,-0.417546 -0.05374,-0.135393 -0.142627,-0.135393 -0.09095,0 -0.134359,0.10542 -0.04237,0.10542 -0.04237,0.364836 0,0.283188 0.04858,0.420647 0.04858,0.13746 0.147795,0.13746 0.09198,0 0.134359,-0.106454 0.04237,-0.107487 0.04237,-0.36897 z"
                 id="path211"
                 style="font-weight:800;font-size:2.11667px;font-family:'Gentium Book Plus';-inkscape-font-specification:'Gentium Book Plus, Ultra-Bold';text-align:center;text-anchor:middle;fill:#ffffff"
                 aria-label="210" />
            <path
                 d="m -62.337142,33.828826 h -0.861964 l -0.02997,-0.07648 q 0.180867,-0.212907 0.297656,-0.356567 0.116789,-0.144695 0.182935,-0.239779 0.06615,-0.09612 0.09198,-0.161231 0.02687,-0.06615 0.02687,-0.120923 0,-0.08578 -0.03411,-0.141594 -0.03411,-0.05581 -0.111622,-0.05581 -0.06925,0 -0.103353,0.04548 -0.03411,0.04547 -0.03411,0.107487 0,0.02687 0.0062,0.05478 -0.02274,0.0124 -0.07235,0.0279 -0.04858,0.0155 -0.100252,0.02791 -0.05168,0.0124 -0.08372,0.0155 l -0.03824,-0.08268 q 0,-0.05374 0.03824,-0.109554 0.03927,-0.05581 0.107487,-0.103353 0.06821,-0.04858 0.15813,-0.07751 0.08992,-0.02997 0.192236,-0.02997 0.171567,0 0.270785,0.06511 0.09922,0.06408 0.09922,0.186036 0,0.06925 -0.02997,0.14056 -0.02997,0.07131 -0.09819,0.162264 -0.06718,0.08992 -0.181902,0.217041 -0.113688,0.126091 -0.28112,0.307992 h 0.406177 q 0.03411,0 0.05581,-0.03411 0.02274,-0.03514 0.03514,-0.08475 0.0124,-0.05064 0.01447,-0.09612 l 0.09302,0.02274 z m 1.096576,0 h -0.861964 l -0.02997,-0.07648 q 0.180868,-0.212907 0.297657,-0.356567 0.116789,-0.144695 0.182935,-0.239779 0.06615,-0.09612 0.09198,-0.161231 0.02687,-0.06615 0.02687,-0.120923 0,-0.08578 -0.03411,-0.141594 -0.03411,-0.05581 -0.111621,-0.05581 -0.06925,0 -0.103353,0.04548 -0.03411,0.04547 -0.03411,0.107487 0,0.02687 0.0062,0.05478 -0.02274,0.0124 -0.07235,0.0279 -0.04858,0.0155 -0.100253,0.02791 -0.05168,0.0124 -0.08372,0.0155 l -0.03824,-0.08268 q 0,-0.05374 0.03824,-0.109554 0.03927,-0.05581 0.107487,-0.103353 0.06821,-0.04858 0.15813,-0.07751 0.08992,-0.02997 0.192237,-0.02997 0.171566,0 0.270785,0.06511 0.09922,0.06408 0.09922,0.186036 0,0.06925 -0.02997,0.14056 -0.02997,0.07131 -0.09819,0.162264 -0.06718,0.08992 -0.181901,0.217041 -0.113688,0.126091 -0.28112,0.307992 h 0.406177 q 0.03411,0 0.05581,-0.03411 0.02274,-0.03514 0.03514,-0.08475 0.0124,-0.05064 0.01447,-0.09612 l 0.09302,0.02274 z m 1.162721,-0.622186 q 0,0.177768 -0.06408,0.326596 -0.06408,0.147795 -0.176734,0.237712 -0.112655,0.08888 -0.259416,0.08888 -0.146761,0 -0.255282,-0.08888 -0.107487,-0.08992 -0.166399,-0.237712 -0.05891,-0.148828 -0.05891,-0.326596 0,-0.177767 0.05994,-0.326595 0.05995,-0.148828 0.171566,-0.237712 0.112655,-0.08992 0.268718,-0.08992 0.151929,0 0.259416,0.08888 0.107487,0.08785 0.164331,0.236679 0.05684,0.148828 0.05684,0.328662 z m -0.303857,0.03824 q 0,-0.283187 -0.05374,-0.417546 -0.05374,-0.135393 -0.142627,-0.135393 -0.09095,0 -0.134359,0.105421 -0.04237,0.10542 -0.04237,0.364836 0,0.283187 0.04858,0.420646 0.04858,0.13746 0.147795,0.13746 0.09198,0 0.134359,-0.106454 0.04237,-0.107487 0.04237,-0.36897 z"
                 id="path212"
                 style="font-weight:800;font-size:2.11667px;font-family:'Gentium Book Plus';-inkscape-font-specification:'Gentium Book Plus, Ultra-Bold';text-align:center;text-anchor:middle;fill:#ffffff"
                 aria-label="220" />
            <path
                 d="m -62.337142,25.191989 h -0.861964 l -0.02997,-0.07648 q 0.180867,-0.212907 0.297656,-0.356567 0.116789,-0.144695 0.182935,-0.239779 0.06615,-0.09612 0.09198,-0.161231 0.02687,-0.06615 0.02687,-0.120923 0,-0.08578 -0.03411,-0.141594 -0.03411,-0.05581 -0.111622,-0.05581 -0.06925,0 -0.103353,0.04548 -0.03411,0.04547 -0.03411,0.107487 0,0.02687 0.0062,0.05478 -0.02274,0.0124 -0.07235,0.02791 -0.04858,0.0155 -0.100252,0.02791 -0.05168,0.0124 -0.08372,0.0155 l -0.03824,-0.08268 q 0,-0.05374 0.03824,-0.109554 0.03927,-0.05581 0.107487,-0.103353 0.06821,-0.04858 0.15813,-0.07752 0.08992,-0.02997 0.192236,-0.02997 0.171567,0 0.270785,0.06511 0.09922,0.06408 0.09922,0.186036 0,0.06925 -0.02997,0.14056 -0.02997,0.07131 -0.09819,0.162264 -0.06718,0.08992 -0.181902,0.217041 -0.113688,0.126091 -0.28112,0.307992 h 0.406177 q 0.03411,0 0.05581,-0.03411 0.02274,-0.03514 0.03514,-0.08475 0.0124,-0.05064 0.01447,-0.09612 l 0.09302,0.02274 z m 1.141018,-0.465089 q -0.0217,0.03307 -0.05581,0.07028 -0.03307,0.03617 -0.05684,0.05374 h -0.05168 v 0.192236 q 0,0.0155 0.02894,0.02997 0.02997,0.01344 0.114722,0.03307 v 0.08578 h -0.62942 v -0.08578 q 0.135393,-0.02274 0.1757,-0.03927 0.04134,-0.01757 0.04134,-0.03514 v -0.180867 h -0.482659 l -0.04444,-0.04444 0.49196,-0.817522 q 0.05168,-0.01757 0.128158,-0.04134 0.07752,-0.0248 0.127124,-0.04237 l 0.04858,0.04651 v 0.744142 h 0.13746 z m -0.433049,-0.5271 -0.312127,0.496094 h 0.312127 z m 1.551328,0.370003 q 0,0.177768 -0.06408,0.326596 -0.06408,0.147795 -0.176734,0.237712 -0.112655,0.08888 -0.259416,0.08888 -0.146761,0 -0.255282,-0.08888 -0.107487,-0.08992 -0.166399,-0.237712 -0.05891,-0.148828 -0.05891,-0.326596 0,-0.177767 0.05994,-0.326595 0.05995,-0.148828 0.171566,-0.237712 0.112655,-0.08992 0.268718,-0.08992 0.151929,0 0.259416,0.08888 0.107487,0.08785 0.164331,0.236679 0.05684,0.148828 0.05684,0.328662 z m -0.303857,0.03824 q 0,-0.283187 -0.05374,-0.417546 -0.05374,-0.135393 -0.142627,-0.135393 -0.09095,0 -0.134359,0.105421 -0.04237,0.10542 -0.04237,0.364836 0,0.283187 0.04858,0.420646 0.04858,0.13746 0.147795,0.13746 0.09198,0 0.134359,-0.106454 0.04237,-0.107487 0.04237,-0.36897 z"
                 id="path213"
                 style="font-weight:800;font-size:2.11667px;font-family:'Gentium Book Plus';-inkscape-font-specification:'Gentium Book Plus, Ultra-Bold';text-align:center;text-anchor:middle;fill:#ffffff"
                 aria-label="240" />
            <path
                 d="m -62.337142,20.865823 h -0.861964 l -0.02997,-0.07648 q 0.180867,-0.212907 0.297656,-0.356568 0.116789,-0.144694 0.182935,-0.239779 0.06615,-0.09612 0.09198,-0.16123 0.02687,-0.06615 0.02687,-0.120923 0,-0.08578 -0.03411,-0.141594 -0.03411,-0.05581 -0.111622,-0.05581 -0.06925,0 -0.103353,0.04548 -0.03411,0.04547 -0.03411,0.107487 0,0.02687 0.0062,0.05478 -0.02274,0.0124 -0.07235,0.02791 -0.04858,0.0155 -0.100252,0.02791 -0.05168,0.0124 -0.08372,0.0155 l -0.03824,-0.08268 q 0,-0.05374 0.03824,-0.109554 0.03927,-0.05581 0.107487,-0.103353 0.06821,-0.04858 0.15813,-0.07752 0.08992,-0.02997 0.192236,-0.02997 0.171567,0 0.270785,0.06511 0.09922,0.06408 0.09922,0.186036 0,0.06925 -0.02997,0.14056 -0.02997,0.07131 -0.09819,0.162264 -0.06718,0.08992 -0.181902,0.217041 -0.113688,0.126091 -0.28112,0.307992 h 0.406177 q 0.03411,0 0.05581,-0.03411 0.02274,-0.03514 0.03514,-0.08475 0.0124,-0.05064 0.01447,-0.09612 l 0.09302,0.02274 z m 1.103811,-0.423748 q 0,0.11989 -0.04961,0.224276 -0.04961,0.103353 -0.156063,0.167432 -0.106454,0.06304 -0.275953,0.06304 -0.09508,0 -0.21084,-0.04341 -0.115755,-0.04341 -0.204639,-0.126091 l 0.05684,-0.100252 q 0.109554,0.07545 0.19327,0.100252 0.08372,0.02481 0.142627,0.02481 0.09302,0 0.159163,-0.07338 0.06615,-0.07441 0.06615,-0.192237 0,-0.141594 -0.06925,-0.211874 -0.06925,-0.07028 -0.171566,-0.07028 -0.09509,0 -0.153996,0.02584 -0.05891,0.02584 -0.113688,0.06718 l -0.04858,-0.03411 q 0.0093,-0.05581 0.02274,-0.141593 0.01344,-0.08682 0.02584,-0.180868 0.01343,-0.09509 0.02274,-0.179834 0.01034,-0.08578 0.01344,-0.14056 h 0.574643 q 0.05891,0 0.09198,-0.0093 0.03307,-0.0093 0.03307,-0.0093 l 0.04031,0.04031 q -0.01447,0.0217 -0.04444,0.06201 -0.02894,0.03927 -0.05891,0.07545 -0.02894,0.03514 -0.04548,0.04754 h -0.461988 q -0.0031,0.05994 -0.0155,0.137459 -0.0124,0.07648 -0.0217,0.121957 0.04754,-0.02274 0.10542,-0.03514 0.05788,-0.0124 0.127125,-0.0124 0.14366,0 0.237712,0.05891 0.09508,0.05788 0.141593,0.150895 0.04754,0.09198 0.04754,0.19327 z m 1.155486,-0.198438 q 0,0.177768 -0.06408,0.326596 -0.06408,0.147795 -0.176734,0.237712 -0.112655,0.08888 -0.259416,0.08888 -0.146761,0 -0.255282,-0.08888 -0.107487,-0.08992 -0.166399,-0.237712 -0.05891,-0.148828 -0.05891,-0.326596 0,-0.177767 0.05994,-0.326595 0.05995,-0.148829 0.171566,-0.237712 0.112655,-0.08992 0.268718,-0.08992 0.151929,0 0.259416,0.08888 0.107487,0.08785 0.164331,0.236679 0.05684,0.148828 0.05684,0.328662 z m -0.303857,0.03824 q 0,-0.283187 -0.05374,-0.417546 -0.05374,-0.135393 -0.142627,-0.135393 -0.09095,0 -0.134359,0.10542 -0.04237,0.10542 -0.04237,0.364837 0,0.283187 0.04858,0.420646 0.04858,0.13746 0.147795,0.13746 0.09198,0 0.134359,-0.106454 0.04237,-0.107487 0.04237,-0.36897 z"
                 id="path214"
                 style="font-weight:800;font-size:2.11667px;font-family:'Gentium Book Plus';-inkscape-font-specification:'Gentium Book Plus, Ultra-Bold';text-align:center;text-anchor:middle;fill:#ffffff"
                 aria-label="250" />
            <text
                 xml:space="preserve"
                 style="font-style:normal;font-variant:normal;font-weight:800;font-stretch:normal;font-size:4.93889px;line-height:1;font-family:'Gentium Book Plus';-inkscape-font-specification:'Gentium Book Plus, Ultra-Bold';font-variant-ligatures:normal;font-variant-caps:normal;font-variant-numeric:normal;font-variant-east-asian:normal;text-align:center;text-decoration-color:#d40000;text-anchor:middle;fill:#ffffff;stroke-width:0.196181;-inkscape-stroke:none"
                 x="-54.138"
                 y="10.400878"
                 id="text214"><tspan
                     sodipodi:role="line"
                     id="tspan214"
                     x="-54.138"
                     y="10.400878">veg</tspan></text>
            <path
                 d="m -64.693063,68.714923 v -0.144178 q 0.243396,-0.02946 0.330212,-0.06821 0.08837,-0.03876 0.08837,-0.07131 v -1.11156 q 0,-0.06201 -0.0047,-0.09612 -0.0047,-0.03566 -0.02325,-0.05581 -0.0186,-0.02015 -0.10232,-0.02015 -0.08372,-0.0016 -0.288354,0.04186 l -0.04806,-0.141076 q 0.06666,-0.0124 0.178283,-0.04496 0.113172,-0.03411 0.237195,-0.07596 0.124024,-0.04186 0.230994,-0.08061 0.10852,-0.03876 0.165881,-0.06201 l 0.07286,0.06976 v 1.576648 q 0,0.02946 0.07596,0.06976 0.07752,0.04031 0.311609,0.06976 v 0.144178 z m 2.970361,-0.933277 q 0,0.266651 -0.09612,0.489893 -0.09612,0.221692 -0.2651,0.356567 -0.168982,0.133325 -0.389124,0.133325 -0.220141,0 -0.382922,-0.133325 -0.161231,-0.134875 -0.249597,-0.356567 -0.08837,-0.223242 -0.08837,-0.489893 0,-0.26665 0.08992,-0.489892 0.08992,-0.223242 0.257349,-0.356568 0.168982,-0.134875 0.403076,-0.134875 0.227893,0 0.389123,0.133325 0.161231,0.131775 0.246497,0.355017 0.08527,0.223242 0.08527,0.492993 z m -0.455786,0.05736 q 0,-0.42478 -0.08061,-0.626318 -0.08062,-0.203089 -0.213941,-0.203089 -0.136425,0 -0.201538,0.15813 -0.06356,0.15813 -0.06356,0.547254 0,0.42478 0.07286,0.630969 0.07286,0.206189 0.221692,0.206189 0.137976,0 0.201538,-0.15968 0.06356,-0.161231 0.06356,-0.553455 z m 2.100647,-0.05736 q 0,0.266651 -0.09612,0.489893 -0.09612,0.221692 -0.2651,0.356567 -0.168982,0.133325 -0.389124,0.133325 -0.220141,0 -0.382922,-0.133325 -0.161231,-0.134875 -0.249597,-0.356567 -0.08837,-0.223242 -0.08837,-0.489893 0,-0.26665 0.08992,-0.489892 0.08992,-0.223242 0.257349,-0.356568 0.168981,-0.134875 0.403076,-0.134875 0.227893,0 0.389123,0.133325 0.161231,0.131775 0.246497,0.355017 0.08527,0.223242 0.08527,0.492993 z m -0.455786,0.05736 q 0,-0.42478 -0.08062,-0.626318 -0.08062,-0.203089 -0.213941,-0.203089 -0.136426,0 -0.201538,0.15813 -0.06356,0.15813 -0.06356,0.547254 0,0.42478 0.07286,0.630969 0.07286,0.206189 0.221692,0.206189 0.137976,0 0.201538,-0.15968 0.06356,-0.161231 0.06356,-0.553455 z"
                 id="path215"
                 style="font-weight:800;font-size:3.175px;line-height:1;font-family:'Gentium Book Plus';-inkscape-font-specification:'Gentium Book Plus, Ultra-Bold';text-align:center;text-decoration-color:#d40000;text-anchor:middle;fill:#ffffff;stroke-width:0.196181"
                 aria-label="100" />
            <path
                 d="m -63.466782,42.788928 h -1.292944 l -0.04496,-0.114722 q 0.271301,-0.31936 0.446484,-0.534851 0.175183,-0.217041 0.274402,-0.359668 0.09922,-0.144177 0.137976,-0.241846 0.04031,-0.09922 0.04031,-0.181384 0,-0.128674 -0.05116,-0.21239 -0.05116,-0.08372 -0.167432,-0.08372 -0.103869,0 -0.155029,0.06821 -0.05116,0.06821 -0.05116,0.16123 0,0.04031 0.0093,0.08217 -0.03411,0.0186 -0.10852,0.04186 -0.07286,0.02325 -0.150379,0.04186 -0.07752,0.0186 -0.125574,0.02325 l -0.05736,-0.124023 q 0,-0.08062 0.05736,-0.164331 0.05891,-0.08372 0.161231,-0.15503 0.102319,-0.07286 0.237195,-0.116272 0.134875,-0.04496 0.288354,-0.04496 0.257349,0 0.406177,0.09767 0.148828,0.09612 0.148828,0.279053 0,0.10387 -0.04496,0.21084 -0.04496,0.10697 -0.147278,0.243396 -0.100769,0.134875 -0.272852,0.325562 -0.170532,0.189135 -0.42168,0.461987 h 0.609266 q 0.05116,0 0.08371,-0.05116 0.03411,-0.05271 0.05271,-0.127124 0.0186,-0.07596 0.0217,-0.144177 l 0.139527,0.03411 z m 1.74408,-0.933277 q 0,0.266651 -0.09612,0.489893 -0.09612,0.221692 -0.2651,0.356567 -0.168982,0.133326 -0.389124,0.133326 -0.220141,0 -0.382922,-0.133326 -0.161231,-0.134875 -0.249597,-0.356567 -0.08837,-0.223242 -0.08837,-0.489893 0,-0.26665 0.08992,-0.489892 0.08992,-0.223242 0.257349,-0.356568 0.168982,-0.134875 0.403076,-0.134875 0.227893,0 0.389123,0.133325 0.161231,0.131775 0.246497,0.355017 0.08527,0.223242 0.08527,0.492993 z m -0.455786,0.05736 q 0,-0.42478 -0.08061,-0.626318 -0.08062,-0.203088 -0.213941,-0.203088 -0.136425,0 -0.201538,0.158129 -0.06356,0.15813 -0.06356,0.547254 0,0.42478 0.07286,0.630969 0.07286,0.206189 0.221692,0.206189 0.137976,0 0.201538,-0.15968 0.06356,-0.161231 0.06356,-0.553455 z m 2.100647,-0.05736 q 0,0.266651 -0.09612,0.489893 -0.09612,0.221692 -0.2651,0.356567 -0.168982,0.133326 -0.389124,0.133326 -0.220141,0 -0.382922,-0.133326 -0.161231,-0.134875 -0.249597,-0.356567 -0.08837,-0.223242 -0.08837,-0.489893 0,-0.26665 0.08992,-0.489892 0.08992,-0.223242 0.257349,-0.356568 0.168981,-0.134875 0.403076,-0.134875 0.227893,0 0.389123,0.133325 0.161231,0.131775 0.246497,0.355017 0.08527,0.223242 0.08527,0.492993 z m -0.455786,0.05736 q 0,-0.42478 -0.08062,-0.626318 -0.08062,-0.203088 -0.213941,-0.203088 -0.136426,0 -0.201538,0.158129 -0.06356,0.15813 -0.06356,0.547254 0,0.42478 0.07286,0.630969 0.07286,0.206189 0.221692,0.206189 0.137976,0 0.201538,-0.15968 0.06356,-0.161231 0.06356,-0.553455 z"
                 id="path216"
                 style="font-weight:800;font-size:3.175px;line-height:1;font-family:'Gentium Book Plus';-inkscape-font-specification:'Gentium Book Plus, Ultra-Bold';text-align:center;text-decoration-color:#d40000;text-anchor:middle;fill:#ffffff;stroke-width:0.196181"
                 aria-label="200" />
            <path
                 d="m -63.46058,16.265199 q 0,0.173633 -0.09302,0.31936 -0.09302,0.144177 -0.257349,0.230994 -0.164331,0.08682 -0.376721,0.08682 -0.08061,0 -0.190686,-0.02946 -0.10852,-0.02791 -0.221692,-0.08527 -0.111621,-0.05891 -0.204638,-0.147278 l 0.06821,-0.165882 q 0.141076,0.10387 0.260449,0.150379 0.120923,0.04496 0.237195,0.04496 0.133325,0 0.230993,-0.08527 0.09767,-0.08682 0.09767,-0.283703 0,-0.139527 -0.05426,-0.218592 -0.05426,-0.08061 -0.128674,-0.113171 -0.07441,-0.03256 -0.134875,-0.03256 -0.04341,0 -0.06821,0.0016 -0.02481,0.0015 -0.06821,0.0093 l -0.02946,-0.15503 q 0.173633,-0.04651 0.257349,-0.113171 0.08372,-0.06821 0.110071,-0.142627 0.02791,-0.07441 0.02791,-0.137976 0,-0.10697 -0.04031,-0.189136 -0.04031,-0.08216 -0.148828,-0.08216 -0.05426,0 -0.09922,0.04961 -0.04496,0.04961 -0.04496,0.127124 0,0.03721 0.01085,0.07441 -0.06666,0.03876 -0.179834,0.07751 -0.113171,0.03721 -0.206189,0.04496 l -0.05581,-0.11007 q 0,-0.08682 0.08216,-0.192237 0.08217,-0.10542 0.230994,-0.181384 0.150378,-0.07596 0.350366,-0.07596 0.201538,0 0.320911,0.06356 0.120922,0.06356 0.175183,0.16278 0.05426,0.09767 0.05426,0.203089 0,0.07751 -0.04186,0.15968 -0.04186,0.08217 -0.116272,0.148828 -0.07441,0.06511 -0.172082,0.09457 0.193786,0.02015 0.305407,0.16123 0.113172,0.141077 0.113172,0.330213 z m 1.737878,-0.342615 q 0,0.26665 -0.09612,0.489893 -0.09612,0.221692 -0.2651,0.356567 -0.168982,0.133325 -0.389124,0.133325 -0.220141,0 -0.382922,-0.133325 -0.161231,-0.134875 -0.249597,-0.356567 -0.08837,-0.223243 -0.08837,-0.489893 0,-0.26665 0.08992,-0.489892 0.08992,-0.223243 0.257349,-0.356568 0.168982,-0.134875 0.403076,-0.134875 0.227893,0 0.389123,0.133325 0.161231,0.131775 0.246497,0.355017 0.08527,0.223242 0.08527,0.492993 z m -0.455786,0.05736 q 0,-0.42478 -0.08061,-0.626318 -0.08062,-0.203089 -0.213941,-0.203089 -0.136425,0 -0.201538,0.15813 -0.06356,0.15813 -0.06356,0.547253 0,0.424781 0.07286,0.63097 0.07286,0.206189 0.221692,0.206189 0.137976,0 0.201538,-0.15968 0.06356,-0.161231 0.06356,-0.553455 z m 2.100647,-0.05736 q 0,0.26665 -0.09612,0.489893 -0.09612,0.221692 -0.2651,0.356567 -0.168982,0.133325 -0.389124,0.133325 -0.220141,0 -0.382922,-0.133325 -0.161231,-0.134875 -0.249597,-0.356567 -0.08837,-0.223243 -0.08837,-0.489893 0,-0.26665 0.08992,-0.489892 0.08992,-0.223243 0.257349,-0.356568 0.168981,-0.134875 0.403076,-0.134875 0.227893,0 0.389123,0.133325 0.161231,0.131775 0.246497,0.355017 0.08527,0.223242 0.08527,0.492993 z m -0.455786,0.05736 q 0,-0.42478 -0.08062,-0.626318 -0.08062,-0.203089 -0.213941,-0.203089 -0.136426,0 -0.201538,0.15813 -0.06356,0.15813 -0.06356,0.547253 0,0.424781 0.07286,0.63097 0.07286,0.206189 0.221692,0.206189 0.137976,0 0.201538,-0.15968 0.06356,-0.161231 0.06356,-0.553455 z"
                 id="path217"
                 style="font-weight:800;font-size:3.175px;line-height:1;font-family:'Gentium Book Plus';-inkscape-font-specification:'Gentium Book Plus, Ultra-Bold';text-align:center;text-decoration-color:#d40000;text-anchor:middle;fill:#ffffff;stroke-width:0.196181"
                 aria-label="300" />
            <path
                 d="m -60.077841,93.706649 q 0,0.266651 -0.09612,0.489893 -0.09612,0.221692 -0.2651,0.356567 -0.168982,0.133322 -0.389124,0.133322 -0.220141,0 -0.382922,-0.133322 -0.16123,-0.134875 -0.249597,-0.356567 -0.08837,-0.223242 -0.08837,-0.489893 0,-0.26665 0.08992,-0.489892 0.08992,-0.223242 0.257349,-0.356568 0.168982,-0.134875 0.403076,-0.134875 0.227893,0 0.389124,0.133325 0.16123,0.131775 0.246496,0.355017 0.08527,0.223242 0.08527,0.492993 z m -0.455786,0.05736 q 0,-0.42478 -0.08062,-0.626318 -0.08062,-0.203089 -0.213941,-0.203089 -0.136425,0 -0.201538,0.15813 -0.06356,0.15813 -0.06356,0.547254 0,0.42478 0.07286,0.630969 0.07286,0.206189 0.221692,0.206189 0.137976,0 0.201538,-0.15968 0.06356,-0.161231 0.06356,-0.553455 z"
                 id="path218"
                 style="font-weight:800;font-size:3.175px;line-height:1;font-family:'Gentium Book Plus';-inkscape-font-specification:'Gentium Book Plus, Ultra-Bold';text-align:center;text-decoration-color:#d40000;text-anchor:middle;fill:#ffffff;stroke-width:0.196181"
                 aria-label="0" />
        </g>
    </g>
</svg>
