<?xml version="1.0" encoding="UTF-8" standalone="no"?>
<!-- Created with Inkscape (http://www.inkscape.org/) -->

<svg
     width="35mm"
     height="95mm"
     viewBox="0 0 35 95"
     version="1.1"
     id="svg1"
     inkscape:version="1.3.2 (091e20ef0f, 2023-11-25, custom)"
     sodipodi:docname="speed_veg_kn.svg"
     xmlns:inkscape="http://www.inkscape.org/namespaces/inkscape"
     xmlns:sodipodi="http://sodipodi.sourceforge.net/DTD/sodipodi-0.dtd"
     xmlns="http://www.w3.org/2000/svg"
     xmlns:svg="http://www.w3.org/2000/svg">
    <sodipodi:namedview
         id="namedview1"
         pagecolor="#ffffff"
         bordercolor="#000000"
         borderopacity="0.25"
         inkscape:showpageshadow="2"
         inkscape:pageopacity="0.0"
         inkscape:pagecheckerboard="0"
         inkscape:deskcolor="#d1d1d1"
         inkscape:document-units="mm"
         inkscape:zoom="1.050338"
         inkscape:cx="126.14987"
         inkscape:cy="193.74716"
         inkscape:window-width="1920"
         inkscape:window-height="1014"
         inkscape:window-x="0"
         inkscape:window-y="0"
         inkscape:window-maximized="1"
         inkscape:current-layer="layer1" />
    <defs
         id="defs1" />
    <g
         inkscape:label="Camada 1"
         inkscape:groupmode="layer"
         id="layer1">
        <g
             id="g1">
            <rect
                 style="fill:#000000;stroke-width:0.291501;-inkscape-stroke:none"
                 id="rect317"
                 width="35"
                 height="95"
                 x="4.5690919e-07"
                 y="-3.9575195e-07" />
            <path
                 id="path259"
                 style="fill:#ffffff"
                 d="m 18.05684,90.643724 v -0.12 h -10.082 v 0.12 z" />
            <path
                 id="path260"
                 style="fill:#ffffff"
                 d="m 18.05684,64.718721 v -0.12 h -10.082 v 0.12 z" />
            <path
                 id="path261"
                 style="fill:#ffffff"
                 d="m 18.05684,38.79273 v -0.12 h -10.082 v 0.12 z" />
            <path
                 id="path262"
                 style="fill:#ffffff;stroke-width:1.41421"
                 d="m 18.05684,12.867412 v -0.12 h -10.082 v 0.12 z" />
            <path
                 id="path263"
                 style="fill:#ffffff"
                 d="m 18.05684,86.322725 v -0.12 h -5.401 v 0.12 z" />
            <path
                 id="path264"
                 style="fill:#ffffff"
                 d="m 18.05684,82.001726 v -0.12 h -5.401 v 0.12 z" />
            <path
                 id="path265"
                 style="fill:#ffffff"
                 d="m 18.05684,77.680727 v -0.12 h -7.562 v 0.12 z" />
            <path
                 id="path266"
                 style="fill:#ffffff"
                 d="m 18.05684,73.360727 v -0.12 h -5.401 v 0.12 z" />
            <path
                 id="path267"
                 style="fill:#ffffff"
                 d="m 18.05684,69.039728 v -0.12 h -5.401 v 0.12 z" />
            <path
                 id="path268"
                 style="fill:#ffffff"
                 d="m 18.05684,60.397722 v -0.12 h -5.401 v 0.12 z" />
            <path
                 id="path269"
                 style="fill:#ffffff"
                 d="m 18.05684,56.076723 v -0.12 h -5.401 v 0.12 z" />
            <path
                 id="path270"
                 style="fill:#ffffff"
                 d="m 18.05684,51.755724 v -0.12 h -7.562 v 0.12 z" />
            <path
                 id="path271"
                 style="fill:#ffffff"
                 d="m 18.05684,47.434725 v -0.12 h -5.401 v 0.12 z" />
            <path
                 id="path272"
                 style="fill:#ffffff"
                 d="m 18.05684,43.113729 v -0.12 h -5.401 v 0.12 z" />
            <path
                 id="path273"
                 style="fill:#ffffff"
                 d="m 18.05684,34.471727 v -0.12 h -5.401 v 0.12 z" />
            <path
                 id="path274"
                 style="fill:#ffffff"
                 d="m 18.05684,30.151728 v -0.12 h -5.401 v 0.12 z" />
            <path
                 id="path275"
                 style="fill:#ffffff"
                 d="m 18.05684,25.830728 v -0.12 h -7.562 v 0.12 z" />
            <path
                 id="path276"
                 style="fill:#ffffff"
                 d="m 18.05684,21.509723 v -0.12 h -5.401 v 0.12 z" />
            <path
                 id="path277"
                 style="fill:#ffffff"
                 d="m 18.05684,17.188724 v -0.12 h -5.401 v 0.12 z" />
            <path
                 id="path278"
                 style="fill:#ffffff"
                 d="m 18.05684,88.483728 v -0.12 h -4.321 v 0.12 z" />
            <path
                 id="path279"
                 style="fill:#ffffff"
                 d="m 18.05684,84.162729 v -0.12 h -4.321 v 0.12 z" />
            <path
                 id="path280"
                 style="fill:#ffffff"
                 d="m 18.05684,79.84173 v -0.12 h -4.321 v 0.12 z" />
            <path
                 id="path281"
                 style="fill:#ffffff"
                 d="m 18.05684,75.520723 v -0.12 h -4.321 v 0.12 z" />
            <path
                 id="path282"
                 style="fill:#ffffff"
                 d="m 18.05684,71.199724 v -0.12 h -4.321 v 0.12 z" />
            <path
                 id="path283"
                 style="fill:#ffffff"
                 d="m 18.05684,66.878725 v -0.12 h -4.321 v 0.12 z" />
            <path
                 id="path284"
                 style="fill:#ffffff"
                 d="m 18.05684,62.557726 v -0.12 h -4.321 v 0.12 z" />
            <path
                 id="path285"
                 style="fill:#ffffff"
                 d="m 18.05684,58.236727 v -0.12 h -4.321 v 0.12 z" />
            <path
                 id="path286"
                 style="fill:#ffffff"
                 d="m 18.05684,53.916727 v -0.12 h -4.321 v 0.12 z" />
            <path
                 id="path287"
                 style="fill:#ffffff"
                 d="m 18.05684,49.595728 v -0.12 h -4.321 v 0.12 z" />
            <path
                 id="path288"
                 style="fill:#ffffff"
                 d="m 18.05684,45.274721 v -0.12 h -4.321 v 0.12 z" />
            <path
                 id="path289"
                 style="fill:#ffffff"
                 d="m 18.05684,40.953726 v -0.12 h -4.321 v 0.12 z" />
            <path
                 id="path290"
                 style="fill:#ffffff"
                 d="m 18.05684,36.632727 v -0.12 h -4.321 v 0.12 z" />
            <path
                 id="path291"
                 style="fill:#ffffff"
                 d="m 18.05684,32.311724 v -0.12 h -4.321 v 0.12 z" />
            <path
                 id="path292"
                 style="fill:#ffffff"
                 d="m 18.05684,27.990724 v -0.12 h -4.321 v 0.12 z" />
            <path
                 id="path293"
                 style="fill:#ffffff"
                 d="m 18.05684,23.669725 v -0.12 h -4.321 v 0.12 z" />
            <path
                 id="path294"
                 style="fill:#ffffff"
                 d="m 18.05684,19.348728 v -0.12 h -4.321 v 0.12 z" />
            <path
                 id="path295"
                 style="fill:#ffffff"
                 d="m 18.05684,15.027729 v -0.12 h -4.321 v 0.12 z" />
            <path
                 d="m 5.28438,77.964119 q 0,0.173633 -0.093,0.319361 -0.093,0.144177 -0.25735,0.230993 -0.16433,0.08682 -0.37672,0.08682 -0.0806,0 -0.19069,-0.02946 -0.10852,-0.02791 -0.22169,-0.08527 -0.11162,-0.05891 -0.20464,-0.147278 l 0.0682,-0.165881 q 0.14108,0.103869 0.26045,0.150378 0.12092,0.04496 0.23719,0.04496 0.13333,0 0.231,-0.08527 0.0977,-0.08682 0.0977,-0.283704 0,-0.139526 -0.0543,-0.218591 -0.0543,-0.08062 -0.12868,-0.113172 -0.0744,-0.03256 -0.13487,-0.03256 -0.0434,0 -0.0682,0.0015 -0.0248,0.0016 -0.0682,0.0093 l -0.0295,-0.155029 q 0.17363,-0.04651 0.25735,-0.113172 0.0837,-0.06821 0.11007,-0.142627 0.0279,-0.07441 0.0279,-0.137976 0,-0.10697 -0.0403,-0.189135 -0.0403,-0.08217 -0.14883,-0.08217 -0.0543,0 -0.0992,0.04961 -0.045,0.04961 -0.045,0.127124 0,0.03721 0.0109,0.07441 -0.0667,0.03876 -0.17984,0.07751 -0.11317,0.03721 -0.20618,0.04496 l -0.0558,-0.110071 q 0,-0.08682 0.0822,-0.192236 0.0822,-0.10542 0.23099,-0.181385 0.15038,-0.07596 0.35037,-0.07596 0.20153,0 0.32091,0.06356 0.12092,0.06356 0.17518,0.162781 0.0543,0.09767 0.0543,0.203088 0,0.07752 -0.0419,0.15968 -0.0419,0.08217 -0.11627,0.148828 -0.0744,0.06511 -0.17208,0.09457 0.19378,0.02015 0.3054,0.161231 0.11317,0.141076 0.11317,0.330212 z m 1.73787,-0.342615 q 0,0.266651 -0.0961,0.489893 -0.0961,0.221692 -0.2651,0.356567 -0.16898,0.133326 -0.38912,0.133326 -0.22014,0 -0.38292,-0.133326 -0.16123,-0.134875 -0.2496,-0.356567 -0.0884,-0.223242 -0.0884,-0.489893 0,-0.26665 0.0899,-0.489892 0.0899,-0.223242 0.25735,-0.356568 0.16898,-0.134875 0.40308,-0.134875 0.22789,0 0.38912,0.133325 0.16123,0.131775 0.2465,0.355017 0.0853,0.223242 0.0853,0.492993 z m -0.45578,0.05736 q 0,-0.42478 -0.0806,-0.626318 -0.0806,-0.203088 -0.21394,-0.203088 -0.13643,0 -0.20154,0.158129 -0.0636,0.15813 -0.0636,0.547254 0,0.42478 0.0729,0.630969 0.0729,0.206189 0.22169,0.206189 0.13798,0 0.20154,-0.15968 0.0636,-0.161231 0.0636,-0.553455 z"
                 id="path296"
                 style="font-weight:800;font-size:3.175px;font-family:'Gentium Book Plus';-inkscape-font-specification:'Gentium Book Plus, Ultra-Bold';text-align:center;text-anchor:middle;fill:#ffffff"
                 aria-label="30" />
            <path
                 d="m 5.86677,69.178679 q 0,0.119889 -0.0496,0.224276 -0.0496,0.103353 -0.15607,0.167432 -0.10645,0.06305 -0.27595,0.06305 -0.0951,0 -0.21084,-0.04341 -0.11575,-0.04341 -0.20464,-0.126091 l 0.0568,-0.100252 q 0.10956,0.07545 0.19327,0.100252 0.0837,0.02481 0.14263,0.02481 0.093,0 0.15916,-0.07338 0.0661,-0.07441 0.0661,-0.192236 0,-0.141594 -0.0692,-0.211874 -0.0692,-0.07028 -0.17156,-0.07028 -0.0951,0 -0.154,0.02584 -0.0589,0.02584 -0.11369,0.06718 l -0.0486,-0.03411 q 0.009,-0.05581 0.0227,-0.141593 0.0134,-0.08682 0.0258,-0.180868 0.0134,-0.09508 0.0227,-0.179834 0.0103,-0.08578 0.0134,-0.140561 h 0.57465 q 0.0589,0 0.092,-0.0093 0.0331,-0.0093 0.0331,-0.0093 l 0.0403,0.04031 q -0.0145,0.0217 -0.0444,0.06201 -0.029,0.03928 -0.0589,0.07545 -0.0289,0.03514 -0.0455,0.04754 H 5.24445 q -0.003,0.05994 -0.0155,0.13746 -0.0124,0.07648 -0.0217,0.121957 0.0475,-0.02274 0.10542,-0.03514 0.0579,-0.0124 0.12712,-0.0124 0.14366,0 0.23771,0.05891 0.0951,0.05788 0.1416,0.150896 0.0475,0.09198 0.0475,0.19327 z m 1.15548,-0.198438 q 0,0.177767 -0.0641,0.326596 -0.0641,0.147795 -0.17673,0.237712 -0.11265,0.08888 -0.25942,0.08888 -0.14676,0 -0.25528,-0.08888 -0.10749,-0.08992 -0.1664,-0.237712 -0.0589,-0.148829 -0.0589,-0.326596 0,-0.177767 0.0599,-0.326595 0.0599,-0.148829 0.17157,-0.237712 0.11265,-0.08992 0.26872,-0.08992 0.15193,0 0.25941,0.08888 0.10749,0.08785 0.16434,0.236679 0.0568,0.148828 0.0568,0.328662 z m -0.30385,0.03824 q 0,-0.283187 -0.0537,-0.417546 -0.0537,-0.135393 -0.14263,-0.135393 -0.0909,0 -0.13436,0.10542 -0.0424,0.10542 -0.0424,0.364836 0,0.283188 0.0486,0.420647 0.0486,0.13746 0.14779,0.13746 0.092,0 0.13436,-0.106454 0.0424,-0.107487 0.0424,-0.36897 z"
                 id="path297"
                 style="font-weight:800;font-size:2.11667px;font-family:'Gentium Book Plus';-inkscape-font-specification:'Gentium Book Plus, Ultra-Bold';text-align:center;text-anchor:middle;fill:#ffffff"
                 aria-label="50" />
            <path
                 d="m 5.90397,73.46351 q -0.0217,0.03307 -0.0558,0.07028 -0.0331,0.03617 -0.0568,0.05374 h -0.0517 v 0.192237 q 0,0.0155 0.0289,0.02997 0.03,0.01344 0.11473,0.03307 v 0.08578 H 5.25388 v -0.08578 q 0.13539,-0.02274 0.1757,-0.03927 0.0413,-0.01757 0.0413,-0.03514 V 73.587529 H 4.98822 l -0.0444,-0.04444 0.49196,-0.817522 q 0.0517,-0.01757 0.12816,-0.04134 0.0775,-0.02481 0.12712,-0.04237 l 0.0486,0.04651 v 0.744142 H 5.87712 Z M 5.47093,72.936409 5.1588,73.432504 h 0.31213 z m 1.55132,0.370004 q 0,0.177767 -0.0641,0.326596 -0.0641,0.147794 -0.17673,0.237712 -0.11265,0.08888 -0.25942,0.08888 -0.14676,0 -0.25528,-0.08888 -0.10749,-0.08992 -0.1664,-0.237712 -0.0589,-0.148829 -0.0589,-0.326596 0,-0.177767 0.0599,-0.326596 0.0599,-0.148828 0.17157,-0.237711 0.11265,-0.08992 0.26872,-0.08992 0.15193,0 0.25941,0.08888 0.10749,0.08785 0.16434,0.236678 0.0568,0.148829 0.0568,0.328663 z m -0.30385,0.03824 q 0,-0.283188 -0.0537,-0.417547 -0.0537,-0.135392 -0.14263,-0.135392 -0.0909,0 -0.13436,0.10542 -0.0424,0.10542 -0.0424,0.364836 0,0.283188 0.0486,0.420647 0.0486,0.13746 0.14779,0.13746 0.092,0 0.13436,-0.106454 0.0424,-0.107487 0.0424,-0.36897 z"
                 id="path298"
                 style="font-weight:800;font-size:2.11667px;font-family:'Gentium Book Plus';-inkscape-font-specification:'Gentium Book Plus, Ultra-Bold';text-align:center;text-anchor:middle;fill:#ffffff"
                 aria-label="40" />
            <path
                 d="M 5.85953,82.564424 H 4.99757 l -0.03,-0.07648 q 0.18087,-0.212907 0.29766,-0.356568 0.11678,-0.144694 0.18293,-0.239779 0.0661,-0.09612 0.092,-0.161231 0.0269,-0.06614 0.0269,-0.120923 0,-0.08578 -0.0341,-0.141593 -0.0341,-0.05581 -0.11162,-0.05581 -0.0693,0 -0.10335,0.04547 -0.0341,0.04548 -0.0341,0.107488 0,0.02687 0.006,0.05478 -0.0227,0.0124 -0.0723,0.02791 -0.0486,0.0155 -0.10026,0.0279 -0.0517,0.0124 -0.0837,0.0155 l -0.0382,-0.08268 q 0,-0.05374 0.0382,-0.109554 0.0393,-0.05581 0.10749,-0.103353 0.0682,-0.04858 0.15813,-0.07751 0.0899,-0.02997 0.19224,-0.02997 0.17156,0 0.27078,0.06511 0.0992,0.06408 0.0992,0.186035 0,0.06925 -0.03,0.14056 -0.03,0.07131 -0.0982,0.162265 -0.0672,0.08992 -0.1819,0.217041 -0.11369,0.126091 -0.28112,0.307992 h 0.40618 q 0.0341,0 0.0558,-0.03411 0.0227,-0.03514 0.0351,-0.08475 0.0124,-0.05064 0.0145,-0.09612 l 0.093,0.02274 z m 1.16272,-0.622185 q 0,0.177767 -0.0641,0.326596 -0.0641,0.147795 -0.17673,0.237712 -0.11265,0.08888 -0.25942,0.08888 -0.14676,0 -0.25528,-0.08888 -0.10749,-0.08992 -0.1664,-0.237712 -0.0589,-0.148829 -0.0589,-0.326596 0,-0.177767 0.0599,-0.326595 0.0599,-0.148829 0.17157,-0.237712 0.11265,-0.08992 0.26872,-0.08992 0.15193,0 0.25941,0.08888 0.10749,0.08785 0.16434,0.236679 0.0568,0.148828 0.0568,0.328662 z m -0.30385,0.03824 q 0,-0.283188 -0.0537,-0.417546 Q 6.611,81.42754 6.52207,81.42754 q -0.0909,0 -0.13436,0.10542 -0.0424,0.10542 -0.0424,0.364836 0,0.283188 0.0486,0.420647 0.0486,0.13746 0.14779,0.13746 0.092,0 0.13436,-0.106454 0.0424,-0.107487 0.0424,-0.36897 z"
                 id="path299"
                 style="font-weight:800;font-size:2.11667px;font-family:'Gentium Book Plus';-inkscape-font-specification:'Gentium Book Plus, Ultra-Bold';text-align:center;text-anchor:middle;fill:#ffffff"
                 aria-label="20" />
            <path
                 d="m 5.04201,86.890596 v -0.09612 q 0.16226,-0.01964 0.22014,-0.04547 0.0589,-0.02584 0.0589,-0.04754 v -0.741041 q 0,-0.04134 -0.003,-0.06408 -0.003,-0.02377 -0.0155,-0.03721 -0.0124,-0.01344 -0.0682,-0.01344 -0.0558,-0.001 -0.19223,0.0279 l -0.032,-0.09405 q 0.0444,-0.0083 0.11885,-0.02997 0.0754,-0.02274 0.15813,-0.05064 0.0827,-0.0279 0.154,-0.05374 0.0724,-0.02584 0.11058,-0.04134 l 0.0486,0.04651 v 1.0511 q 0,0.01964 0.0506,0.04651 0.0517,0.02687 0.20774,0.04651 v 0.09612 z m 1.98024,-0.622185 q 0,0.177767 -0.0641,0.326596 -0.0641,0.147794 -0.17673,0.237712 -0.11265,0.08888 -0.25942,0.08888 -0.14676,0 -0.25528,-0.08888 -0.10749,-0.08992 -0.1664,-0.237712 -0.0589,-0.148829 -0.0589,-0.326596 0,-0.177767 0.0599,-0.326596 0.0599,-0.148828 0.17157,-0.237711 0.11265,-0.08992 0.26872,-0.08992 0.15193,0 0.25941,0.08888 0.10749,0.08785 0.16434,0.236678 0.0568,0.148829 0.0568,0.328663 z m -0.30385,0.03824 q 0,-0.283188 -0.0537,-0.417547 -0.0537,-0.135392 -0.14263,-0.135392 -0.0909,0 -0.13436,0.10542 -0.0424,0.10542 -0.0424,0.364836 0,0.283188 0.0486,0.420647 0.0486,0.13746 0.14779,0.13746 0.092,0 0.13436,-0.106454 0.0424,-0.107487 0.0424,-0.36897 z"
                 id="path300"
                 style="font-weight:800;font-size:2.11667px;font-family:'Gentium Book Plus';-inkscape-font-specification:'Gentium Book Plus, Ultra-Bold';text-align:center;text-anchor:middle;fill:#ffffff"
                 aria-label="10" />
            <path
                 d="m 2.40703,52.637529 v -0.144177 q 0.2434,-0.02946 0.33021,-0.06821 0.0884,-0.03876 0.0884,-0.07131 v -1.11156 q 0,-0.06201 -0.005,-0.09612 -0.005,-0.03566 -0.0232,-0.05581 -0.0186,-0.02015 -0.10232,-0.02015 -0.0837,-0.0015 -0.28836,0.04186 l -0.0481,-0.141077 q 0.0667,-0.0124 0.17828,-0.04496 0.11318,-0.03411 0.2372,-0.07596 0.12402,-0.04186 0.23099,-0.08062 0.10852,-0.03876 0.16588,-0.06201 l 0.0729,0.06976 v 1.576648 q 0,0.02945 0.076,0.06976 0.0775,0.04031 0.31161,0.06976 v 0.144177 z m 2.87735,-0.590661 q 0,0.173632 -0.093,0.31936 -0.093,0.144177 -0.25735,0.230994 -0.16433,0.08682 -0.37672,0.08682 -0.0806,0 -0.19069,-0.02946 -0.10852,-0.02791 -0.22169,-0.08527 -0.11162,-0.05891 -0.20464,-0.147278 l 0.0682,-0.165881 q 0.14108,0.10387 0.26045,0.150379 0.12092,0.04496 0.2372,0.04496 0.13332,0 0.23099,-0.08527 0.0977,-0.08682 0.0977,-0.283704 0,-0.139526 -0.0543,-0.218591 -0.0543,-0.08062 -0.12867,-0.113171 -0.0744,-0.03256 -0.13488,-0.03256 -0.0434,0 -0.0682,0.0016 -0.0248,0.0016 -0.0682,0.0093 l -0.0295,-0.15503 q 0.17363,-0.04651 0.25735,-0.113171 0.0837,-0.06821 0.11007,-0.142627 0.0279,-0.07441 0.0279,-0.137976 0,-0.10697 -0.0403,-0.189136 -0.0403,-0.08216 -0.14883,-0.08216 -0.0543,0 -0.0992,0.04961 -0.045,0.04961 -0.045,0.127124 0,0.03721 0.0109,0.07441 -0.0667,0.03876 -0.17983,0.07752 -0.11317,0.03721 -0.20619,0.04496 l -0.0558,-0.110071 q 0,-0.08682 0.0822,-0.192236 0.0822,-0.10542 0.23099,-0.181384 0.15038,-0.07597 0.35037,-0.07597 0.20154,0 0.32091,0.06356 0.12092,0.06356 0.17518,0.162781 0.0543,0.09767 0.0543,0.203089 0,0.07751 -0.0419,0.15968 -0.0419,0.08217 -0.11627,0.148828 -0.0744,0.06511 -0.17208,0.09457 0.19379,0.02015 0.30541,0.16123 0.11317,0.141077 0.11317,0.330213 z m 1.73787,-0.342615 q 0,0.26665 -0.0961,0.489892 -0.0961,0.221692 -0.2651,0.356568 -0.16899,0.133325 -0.38913,0.133325 -0.22014,0 -0.38292,-0.133325 Q 5.72777,52.415837 5.6394,52.194145 5.551,51.970903 5.551,51.704253 q 0,-0.266651 0.0899,-0.489893 0.0899,-0.223242 0.25735,-0.356567 0.16898,-0.134876 0.40308,-0.134876 0.22789,0 0.38912,0.133326 0.16123,0.131775 0.2465,0.355017 0.0853,0.223242 0.0853,0.492993 z m -0.45578,0.05736 q 0,-0.424781 -0.0806,-0.626319 -0.0806,-0.203088 -0.21394,-0.203088 -0.13643,0 -0.20154,0.15813 -0.0636,0.15813 -0.0636,0.547253 0,0.424781 0.0729,0.630969 0.0729,0.206189 0.22169,0.206189 0.13798,0 0.20154,-0.15968 0.0636,-0.16123 0.0636,-0.553454 z"
                 id="path301"
                 style="font-weight:800;font-size:3.175px;font-family:'Gentium Book Plus';-inkscape-font-specification:'Gentium Book Plus, Ultra-Bold';text-align:center;text-anchor:middle;fill:#ffffff"
                 aria-label="130" />
            <path
                 d="m 3.94543,60.965593 v -0.09612 q 0.16227,-0.01964 0.22015,-0.04547 0.0589,-0.02584 0.0589,-0.04754 v -0.741041 q 0,-0.04134 -0.003,-0.06408 -0.003,-0.02377 -0.0155,-0.03721 -0.0124,-0.01344 -0.0682,-0.01344 -0.0558,-0.001 -0.19224,0.02791 l -0.032,-0.09405 q 0.0444,-0.0083 0.11886,-0.02997 0.0754,-0.02274 0.15813,-0.05064 0.0827,-0.02791 0.15399,-0.05374 0.0724,-0.02584 0.11059,-0.04134 l 0.0486,0.04651 v 1.0511 q 0,0.01964 0.0506,0.04651 0.0517,0.02687 0.20774,0.04651 v 0.09612 z m 1.09658,0 v -0.09612 q 0.16226,-0.01964 0.22014,-0.04547 0.0589,-0.02584 0.0589,-0.04754 v -0.741041 q 0,-0.04134 -0.003,-0.06408 -0.003,-0.02377 -0.0155,-0.03721 -0.0124,-0.01344 -0.0682,-0.01344 -0.0558,-0.001 -0.19224,0.02791 l -0.032,-0.09405 q 0.0444,-0.0083 0.11886,-0.02997 0.0754,-0.02274 0.15813,-0.05064 0.0827,-0.02791 0.154,-0.05374 0.0724,-0.02584 0.11058,-0.04134 l 0.0486,0.04651 v 1.0511 q 0,0.01964 0.0506,0.04651 0.0517,0.02687 0.20774,0.04651 v 0.09612 z m 1.98024,-0.622185 q 0,0.177767 -0.0641,0.326596 -0.0641,0.147794 -0.17673,0.237711 -0.11266,0.08888 -0.25942,0.08888 -0.14676,0 -0.25528,-0.08888 -0.10749,-0.08992 -0.1664,-0.237711 -0.0589,-0.148829 -0.0589,-0.326596 0,-0.177767 0.0599,-0.326596 0.06,-0.148828 0.17157,-0.237712 0.11265,-0.08992 0.26872,-0.08992 0.15193,0 0.25941,0.08888 0.10749,0.08785 0.16433,0.236678 0.0568,0.148829 0.0568,0.328663 z m -0.30385,0.03824 q 0,-0.283188 -0.0537,-0.417547 -0.0537,-0.135392 -0.14263,-0.135392 -0.0909,0 -0.13436,0.10542 -0.0424,0.10542 -0.0424,0.364836 0,0.283187 0.0486,0.420647 0.0486,0.137459 0.1478,0.137459 0.092,0 0.13435,-0.106453 0.0424,-0.107487 0.0424,-0.36897 z"
                 id="path302"
                 style="font-weight:800;font-size:2.11667px;font-family:'Gentium Book Plus';-inkscape-font-specification:'Gentium Book Plus, Ultra-Bold';text-align:center;text-anchor:middle;fill:#ffffff"
                 aria-label="110" />
            <path
                 d="m 3.94543,56.644594 v -0.09612 q 0.16227,-0.01964 0.22015,-0.04548 0.0589,-0.02584 0.0589,-0.04754 v -0.741041 q 0,-0.04134 -0.003,-0.06408 -0.003,-0.02377 -0.0155,-0.03721 -0.0124,-0.01344 -0.0682,-0.01344 -0.0558,-10e-4 -0.19224,0.02791 l -0.032,-0.09405 q 0.0444,-0.0083 0.11886,-0.02997 0.0754,-0.02274 0.15813,-0.05064 0.0827,-0.02791 0.15399,-0.05374 0.0724,-0.02584 0.11059,-0.04134 l 0.0486,0.04651 v 1.0511 q 0,0.01964 0.0506,0.04651 0.0517,0.02687 0.20774,0.04651 v 0.09612 z m 1.9141,0 H 4.99757 l -0.03,-0.07648 q 0.18087,-0.212907 0.29766,-0.356568 0.11678,-0.144694 0.18293,-0.239779 0.0661,-0.09612 0.092,-0.161231 0.0269,-0.06615 0.0269,-0.120923 0,-0.08578 -0.0341,-0.141594 -0.0341,-0.05581 -0.11162,-0.05581 -0.0692,0 -0.10335,0.04547 -0.0341,0.04548 -0.0341,0.107487 0,0.02687 0.006,0.05478 -0.0227,0.0124 -0.0724,0.02791 -0.0486,0.0155 -0.10026,0.02791 -0.0517,0.0124 -0.0837,0.0155 l -0.0382,-0.08268 q 0,-0.05374 0.0382,-0.109555 0.0393,-0.05581 0.10749,-0.103353 0.0682,-0.04858 0.15813,-0.07751 0.0899,-0.02997 0.19224,-0.02997 0.17156,0 0.27078,0.06511 0.0992,0.06408 0.0992,0.186035 0,0.06925 -0.03,0.14056 -0.03,0.07131 -0.0982,0.162264 -0.0672,0.08992 -0.1819,0.217042 -0.11369,0.12609 -0.28112,0.307992 h 0.40618 q 0.0341,0 0.0558,-0.03411 0.0227,-0.03514 0.0351,-0.08475 0.0124,-0.05064 0.0145,-0.09612 l 0.093,0.02274 z m 1.16272,-0.622185 q 0,0.177767 -0.0641,0.326595 -0.0641,0.147795 -0.17673,0.237712 -0.11266,0.08888 -0.25942,0.08888 -0.14676,0 -0.25528,-0.08888 -0.10749,-0.08992 -0.1664,-0.237712 -0.0589,-0.148828 -0.0589,-0.326595 0,-0.177767 0.0599,-0.326596 0.06,-0.148828 0.17157,-0.237712 0.11265,-0.08992 0.26872,-0.08992 0.15193,0 0.25941,0.08888 0.10749,0.08785 0.16433,0.236678 0.0568,0.148829 0.0568,0.328663 z m -0.30385,0.03824 q 0,-0.283187 -0.0537,-0.417546 -0.0537,-0.135392 -0.14263,-0.135392 -0.0909,0 -0.13436,0.10542 -0.0424,0.10542 -0.0424,0.364836 0,0.283187 0.0486,0.420647 0.0486,0.137459 0.1478,0.137459 0.092,0 0.13435,-0.106453 0.0424,-0.107487 0.0424,-0.368971 z"
                 id="path303"
                 style="font-weight:800;font-size:2.11667px;font-family:'Gentium Book Plus';-inkscape-font-specification:'Gentium Book Plus, Ultra-Bold';text-align:center;text-anchor:middle;fill:#ffffff"
                 aria-label="120" />
            <path
                 d="m 3.94543,48.002596 v -0.09612 q 0.16227,-0.01964 0.22015,-0.04547 0.0589,-0.02584 0.0589,-0.04754 v -0.741041 q 0,-0.04134 -0.003,-0.06408 -0.003,-0.02377 -0.0155,-0.03721 -0.0124,-0.01344 -0.0682,-0.01344 -0.0558,-10e-4 -0.19224,0.0279 l -0.032,-0.09405 q 0.0444,-0.0083 0.11886,-0.02997 0.0754,-0.02274 0.15813,-0.05064 0.0827,-0.0279 0.15399,-0.05374 0.0724,-0.02584 0.11059,-0.04134 l 0.0486,0.04651 v 1.051101 q 0,0.01964 0.0506,0.04651 0.0517,0.02687 0.20774,0.04651 v 0.09612 z m 1.95854,-0.465089 q -0.0217,0.03307 -0.0558,0.07028 -0.0331,0.03617 -0.0568,0.05374 h -0.0517 v 0.192236 q 0,0.0155 0.0289,0.02997 0.03,0.01344 0.11473,0.03307 v 0.08578 H 5.25388 v -0.08578 q 0.13539,-0.02274 0.1757,-0.03927 0.0413,-0.01757 0.0413,-0.03514 V 47.661525 H 4.98822 l -0.0444,-0.04444 0.49196,-0.817522 q 0.0517,-0.01757 0.12816,-0.04134 0.0775,-0.0248 0.12712,-0.04237 l 0.0486,0.04651 v 0.744142 h 0.13746 z m -0.43304,-0.5271 -0.31213,0.496094 h 0.31213 z m 1.55132,0.370004 q 0,0.177767 -0.0641,0.326595 -0.0641,0.147795 -0.17673,0.237712 -0.11266,0.08888 -0.25942,0.08888 -0.14676,0 -0.25528,-0.08888 -0.10749,-0.08992 -0.1664,-0.237712 -0.0589,-0.148828 -0.0589,-0.326595 0,-0.177768 0.0599,-0.326596 0.06,-0.148828 0.17157,-0.237712 0.11265,-0.08992 0.26872,-0.08992 0.15193,0 0.25941,0.08888 0.10749,0.08785 0.16433,0.236678 0.0568,0.148828 0.0568,0.328663 z m -0.30385,0.03824 q 0,-0.283187 -0.0537,-0.417546 -0.0537,-0.135393 -0.14263,-0.135393 -0.0909,0 -0.13436,0.105421 -0.0424,0.10542 -0.0424,0.364836 0,0.283187 0.0486,0.420647 0.0486,0.137459 0.1478,0.137459 0.092,0 0.13435,-0.106454 0.0424,-0.107487 0.0424,-0.36897 z"
                 id="path304"
                 style="font-weight:800;font-size:2.11667px;font-family:'Gentium Book Plus';-inkscape-font-specification:'Gentium Book Plus, Ultra-Bold';text-align:center;text-anchor:middle;fill:#ffffff"
                 aria-label="140" />
            <path
                 d="m 3.94543,43.681597 v -0.09612 q 0.16227,-0.01964 0.22015,-0.04547 0.0589,-0.02584 0.0589,-0.04754 v -0.741042 q 0,-0.04134 -0.003,-0.06408 -0.003,-0.02377 -0.0155,-0.03721 -0.0124,-0.01344 -0.0682,-0.01344 -0.0558,-0.001 -0.19224,0.0279 l -0.032,-0.09405 q 0.0444,-0.0083 0.11886,-0.02997 0.0754,-0.02274 0.15813,-0.05064 0.0827,-0.0279 0.15399,-0.05374 0.0724,-0.02584 0.11059,-0.04134 l 0.0486,0.04651 v 1.051101 q 0,0.01964 0.0506,0.04651 0.0517,0.02687 0.20774,0.04651 v 0.09612 z m 1.92134,-0.423748 q 0,0.11989 -0.0496,0.224276 -0.0496,0.103353 -0.15607,0.167432 -0.10645,0.06305 -0.27595,0.06305 -0.0951,0 -0.21084,-0.04341 -0.11575,-0.04341 -0.20464,-0.12609 l 0.0568,-0.100253 q 0.10956,0.07545 0.19327,0.100253 0.0837,0.0248 0.14263,0.0248 0.093,0 0.15916,-0.07338 0.0661,-0.07442 0.0661,-0.192237 0,-0.141594 -0.0692,-0.211874 -0.0692,-0.07028 -0.17156,-0.07028 -0.0951,0 -0.154,0.02584 -0.0589,0.02584 -0.11369,0.06718 l -0.0486,-0.03411 q 0.009,-0.05581 0.0227,-0.141593 0.0134,-0.08682 0.0258,-0.180868 0.0134,-0.09508 0.0227,-0.179834 0.0103,-0.08578 0.0134,-0.14056 h 0.57464 q 0.0589,0 0.092,-0.0093 0.0331,-0.0093 0.0331,-0.0093 l 0.0403,0.04031 q -0.0145,0.0217 -0.0444,0.06201 -0.029,0.03927 -0.0589,0.07545 -0.0289,0.03514 -0.0455,0.04754 H 5.24444 q -0.003,0.05994 -0.0155,0.137459 -0.0124,0.07648 -0.0217,0.121957 0.0475,-0.02274 0.10542,-0.03514 0.0579,-0.0124 0.12712,-0.0124 0.14366,0 0.23771,0.05891 0.0951,0.05788 0.1416,0.150895 0.0475,0.09198 0.0475,0.19327 z m 1.15548,-0.198438 q 0,0.177768 -0.0641,0.326596 -0.0641,0.147795 -0.17673,0.237712 -0.11266,0.08888 -0.25942,0.08888 -0.14676,0 -0.25528,-0.08888 -0.10749,-0.08992 -0.1664,-0.237712 -0.0589,-0.148828 -0.0589,-0.326596 0,-0.177767 0.0599,-0.326595 0.06,-0.148829 0.17157,-0.237712 0.11265,-0.08992 0.26872,-0.08992 0.15193,0 0.25941,0.08888 0.10749,0.08785 0.16433,0.236679 0.0568,0.148828 0.0568,0.328662 z m -0.30385,0.03824 q 0,-0.283187 -0.0537,-0.417546 -0.0537,-0.135393 -0.14263,-0.135393 -0.0909,0 -0.13436,0.10542 -0.0424,0.105421 -0.0424,0.364837 0,0.283187 0.0486,0.420646 0.0486,0.13746 0.1478,0.13746 0.092,0 0.13435,-0.106454 0.0424,-0.107487 0.0424,-0.36897 z"
                 id="path305"
                 style="font-weight:800;font-size:2.11667px;font-family:'Gentium Book Plus';-inkscape-font-specification:'Gentium Book Plus, Ultra-Bold';text-align:center;text-anchor:middle;fill:#ffffff"
                 aria-label="150" />
            <path
                 d="M 3.63332,26.704782 H 2.34037 L 2.29541,26.590061 Q 2.56671,26.2707 2.74189,26.05521 2.91708,25.838169 3.0163,25.695542 q 0.0992,-0.144178 0.13797,-0.241846 0.0403,-0.09922 0.0403,-0.181384 0,-0.128675 -0.0512,-0.21239 -0.0512,-0.08372 -0.16743,-0.08372 -0.10387,0 -0.15503,0.06821 -0.0512,0.06821 -0.0512,0.16123 0,0.04031 0.009,0.08217 -0.0341,0.0186 -0.10852,0.04186 -0.0729,0.02325 -0.15038,0.04186 -0.0775,0.0186 -0.12557,0.02326 l -0.0574,-0.124024 q 0,-0.08061 0.0574,-0.164331 0.0589,-0.08372 0.16123,-0.155029 0.10232,-0.07286 0.23719,-0.116272 0.13488,-0.04496 0.28836,-0.04496 0.25735,0 0.40618,0.09767 0.14882,0.09612 0.14882,0.279053 0,0.103869 -0.045,0.21084 -0.045,0.10697 -0.14727,0.243396 -0.10077,0.134875 -0.27286,0.325561 -0.17053,0.189136 -0.42168,0.461987 h 0.60927 q 0.0512,0 0.0837,-0.05116 0.0341,-0.05271 0.0527,-0.127124 0.0186,-0.07597 0.0217,-0.144178 l 0.13953,0.03411 z m 1.65106,-0.590661 q 0,0.173633 -0.093,0.31936 -0.093,0.144177 -0.25735,0.230994 -0.16433,0.08682 -0.37672,0.08682 -0.0806,0 -0.19069,-0.02945 -0.10852,-0.02791 -0.22169,-0.08527 -0.11162,-0.05891 -0.20464,-0.147277 l 0.0682,-0.165882 q 0.14108,0.10387 0.26045,0.150379 0.12092,0.04496 0.2372,0.04496 0.13332,0 0.23099,-0.08527 0.0977,-0.08682 0.0977,-0.283704 0,-0.139526 -0.0543,-0.218591 -0.0543,-0.08062 -0.12867,-0.113171 -0.0744,-0.03256 -0.13488,-0.03256 -0.0434,0 -0.0682,0.0016 -0.0248,0.0016 -0.0682,0.0093 l -0.0295,-0.15503 q 0.17363,-0.04651 0.25735,-0.113171 0.0837,-0.06821 0.11007,-0.142627 0.0279,-0.07441 0.0279,-0.137976 0,-0.10697 -0.0403,-0.189136 -0.0403,-0.08216 -0.14883,-0.08216 -0.0543,0 -0.0992,0.04961 -0.045,0.04961 -0.045,0.127124 0,0.03721 0.0109,0.07441 -0.0667,0.03876 -0.17983,0.07752 -0.11317,0.03721 -0.20619,0.04496 l -0.0558,-0.110071 q 0,-0.08682 0.0822,-0.192236 0.0822,-0.10542 0.23099,-0.181384 0.15038,-0.07596 0.35037,-0.07596 0.20154,0 0.32091,0.06356 0.12092,0.06356 0.17518,0.16278 0.0543,0.09767 0.0543,0.203089 0,0.07751 -0.0419,0.15968 -0.0419,0.08216 -0.11627,0.148828 -0.0744,0.06511 -0.17208,0.09457 0.19379,0.02015 0.30541,0.16123 0.11317,0.141077 0.11317,0.330213 z m 1.73787,-0.342615 q 0,0.26665 -0.0961,0.489893 -0.0961,0.221691 -0.2651,0.356567 -0.16899,0.133325 -0.38913,0.133325 -0.22014,0 -0.38292,-0.133325 Q 5.72777,26.48309 5.6394,26.261399 5.551,26.038156 5.551,25.771506 q 0,-0.26665 0.0899,-0.489893 0.0899,-0.223242 0.25735,-0.356567 0.16898,-0.134875 0.40308,-0.134875 0.22789,0 0.38912,0.133325 0.16123,0.131775 0.2465,0.355017 0.0853,0.223242 0.0853,0.492993 z m -0.45578,0.05736 q 0,-0.42478 -0.0806,-0.626319 -0.0806,-0.203088 -0.21394,-0.203088 -0.13643,0 -0.20154,0.15813 -0.0636,0.15813 -0.0636,0.547253 0,0.424781 0.0729,0.63097 0.0729,0.206189 0.22169,0.206189 0.13798,0 0.20154,-0.159681 0.0636,-0.16123 0.0636,-0.553454 z"
                 id="path306"
                 style="font-weight:800;font-size:3.175px;font-family:'Gentium Book Plus';-inkscape-font-specification:'Gentium Book Plus, Ultra-Bold';text-align:center;text-anchor:middle;fill:#ffffff"
                 aria-label="230" />
            <path
                 d="M 4.76296,35.039598 H 3.90099 l -0.03,-0.07648 q 0.18087,-0.212907 0.29766,-0.356568 0.11679,-0.144694 0.18293,-0.239779 0.0661,-0.09612 0.092,-0.161231 0.0269,-0.06615 0.0269,-0.120923 0,-0.08578 -0.0341,-0.141593 -0.0341,-0.05581 -0.11162,-0.05581 -0.0692,0 -0.10335,0.04547 -0.0341,0.04548 -0.0341,0.107488 0,0.02687 0.006,0.05478 -0.0227,0.0124 -0.0724,0.0279 -0.0486,0.0155 -0.10025,0.0279 -0.0517,0.0124 -0.0837,0.0155 l -0.0382,-0.08268 q 0,-0.05374 0.0382,-0.109554 0.0393,-0.05581 0.10748,-0.103353 0.0682,-0.04858 0.15813,-0.07751 0.0899,-0.02997 0.19224,-0.02997 0.17157,0 0.27078,0.06511 0.0992,0.06408 0.0992,0.186035 0,0.06925 -0.03,0.14056 -0.03,0.07131 -0.0982,0.162265 -0.0672,0.08992 -0.1819,0.217041 -0.11369,0.126091 -0.28112,0.307992 h 0.40618 q 0.0341,0 0.0558,-0.03411 0.0227,-0.03514 0.0351,-0.08475 0.0124,-0.05064 0.0145,-0.09612 l 0.093,0.02274 z m 0.27905,0 v -0.09612 q 0.16226,-0.01964 0.22014,-0.04547 0.0589,-0.02584 0.0589,-0.04754 v -0.741041 q 0,-0.04134 -0.003,-0.06408 -0.003,-0.02377 -0.0155,-0.03721 -0.0124,-0.01344 -0.0682,-0.01344 -0.0558,-0.001 -0.19224,0.02791 l -0.032,-0.09405 q 0.0444,-0.0083 0.11886,-0.02997 0.0754,-0.02274 0.15813,-0.05064 0.0827,-0.02791 0.154,-0.05374 0.0724,-0.02584 0.11058,-0.04134 l 0.0486,0.04651 v 1.0511 q 0,0.01964 0.0506,0.04651 0.0517,0.02687 0.20774,0.04651 v 0.09612 z m 1.98024,-0.622185 q 0,0.177767 -0.0641,0.326596 -0.0641,0.147794 -0.17673,0.237712 -0.11266,0.08888 -0.25942,0.08888 -0.14676,0 -0.25528,-0.08888 -0.10749,-0.08992 -0.1664,-0.237712 -0.0589,-0.148829 -0.0589,-0.326596 0,-0.177767 0.0599,-0.326595 0.06,-0.148829 0.17157,-0.237712 0.11265,-0.08992 0.26872,-0.08992 0.15193,0 0.25941,0.08888 0.10749,0.08785 0.16433,0.236678 0.0568,0.148829 0.0568,0.328663 z m -0.30385,0.03824 q 0,-0.283188 -0.0537,-0.417546 -0.0537,-0.135393 -0.14263,-0.135393 -0.0909,0 -0.13436,0.10542 -0.0424,0.10542 -0.0424,0.364836 0,0.283188 0.0486,0.420647 0.0486,0.13746 0.1478,0.13746 0.092,0 0.13435,-0.106454 0.0424,-0.107487 0.0424,-0.36897 z"
                 id="path307"
                 style="font-weight:800;font-size:2.11667px;font-family:'Gentium Book Plus';-inkscape-font-specification:'Gentium Book Plus, Ultra-Bold';text-align:center;text-anchor:middle;fill:#ffffff"
                 aria-label="210" />
            <path
                 d="M 4.76296,30.71443 H 3.90099 l -0.03,-0.07648 q 0.18087,-0.212907 0.29766,-0.356567 0.11679,-0.144695 0.18293,-0.239779 0.0661,-0.09612 0.092,-0.161231 0.0269,-0.06615 0.0269,-0.120923 0,-0.08578 -0.0341,-0.141594 -0.0341,-0.05581 -0.11162,-0.05581 -0.0692,0 -0.10335,0.04548 -0.0341,0.04547 -0.0341,0.107487 0,0.02687 0.006,0.05478 -0.0227,0.0124 -0.0724,0.0279 -0.0486,0.0155 -0.10025,0.02791 -0.0517,0.0124 -0.0837,0.0155 l -0.0382,-0.08268 q 0,-0.05374 0.0382,-0.109554 0.0393,-0.05581 0.10748,-0.103353 0.0682,-0.04858 0.15813,-0.07751 0.0899,-0.02997 0.19224,-0.02997 0.17157,0 0.27078,0.06511 0.0992,0.06408 0.0992,0.186036 0,0.06925 -0.03,0.14056 -0.03,0.07131 -0.0982,0.162264 -0.0672,0.08992 -0.1819,0.217041 -0.11369,0.126091 -0.28112,0.307992 h 0.40618 q 0.0341,0 0.0558,-0.03411 0.0227,-0.03514 0.0351,-0.08475 0.0124,-0.05064 0.0145,-0.09612 l 0.093,0.02274 z m 1.09657,0 H 4.99757 l -0.03,-0.07648 q 0.18087,-0.212907 0.29766,-0.356567 0.11678,-0.144695 0.18293,-0.239779 0.0661,-0.09612 0.092,-0.161231 0.0269,-0.06615 0.0269,-0.120923 0,-0.08578 -0.0341,-0.141594 -0.0341,-0.05581 -0.11162,-0.05581 -0.0692,0 -0.10335,0.04548 -0.0341,0.04547 -0.0341,0.107487 0,0.02687 0.006,0.05478 -0.0227,0.0124 -0.0724,0.0279 -0.0486,0.0155 -0.10026,0.02791 -0.0517,0.0124 -0.0837,0.0155 l -0.0382,-0.08268 q 0,-0.05374 0.0382,-0.109554 0.0393,-0.05581 0.10749,-0.103353 0.0682,-0.04858 0.15813,-0.07751 0.0899,-0.02997 0.19224,-0.02997 0.17156,0 0.27078,0.06511 0.0992,0.06408 0.0992,0.186036 0,0.06925 -0.03,0.14056 -0.03,0.07131 -0.0982,0.162264 -0.0672,0.08992 -0.1819,0.217041 -0.11369,0.126091 -0.28112,0.307992 h 0.40618 q 0.0341,0 0.0558,-0.03411 0.0227,-0.03514 0.0351,-0.08475 0.0124,-0.05064 0.0145,-0.09612 l 0.093,0.02274 z m 1.16272,-0.622186 q 0,0.177768 -0.0641,0.326596 -0.0641,0.147795 -0.17673,0.237712 -0.11266,0.08888 -0.25942,0.08888 -0.14676,0 -0.25528,-0.08888 -0.10749,-0.08992 -0.1664,-0.237712 -0.0589,-0.148828 -0.0589,-0.326596 0,-0.177767 0.0599,-0.326595 0.06,-0.148828 0.17157,-0.237712 0.11265,-0.08992 0.26872,-0.08992 0.15193,0 0.25941,0.08888 0.10749,0.08785 0.16433,0.236679 0.0568,0.148828 0.0568,0.328662 z m -0.30385,0.03824 q 0,-0.283187 -0.0537,-0.417546 -0.0537,-0.135393 -0.14263,-0.135393 -0.0909,0 -0.13436,0.105421 -0.0424,0.10542 -0.0424,0.364836 0,0.283187 0.0486,0.420646 0.0486,0.13746 0.1478,0.13746 0.092,0 0.13435,-0.106454 0.0424,-0.107487 0.0424,-0.36897 z"
                 id="path308"
                 style="font-weight:800;font-size:2.11667px;font-family:'Gentium Book Plus';-inkscape-font-specification:'Gentium Book Plus, Ultra-Bold';text-align:center;text-anchor:middle;fill:#ffffff"
                 aria-label="220" />
            <path
                 d="M 4.76296,22.077593 H 3.90099 l -0.03,-0.07648 q 0.18087,-0.212907 0.29766,-0.356567 0.11679,-0.144695 0.18293,-0.239779 0.0661,-0.09612 0.092,-0.161231 0.0269,-0.06615 0.0269,-0.120923 0,-0.08578 -0.0341,-0.141594 -0.0341,-0.05581 -0.11162,-0.05581 -0.0692,0 -0.10335,0.04548 -0.0341,0.04547 -0.0341,0.107487 0,0.02687 0.006,0.05478 -0.0227,0.0124 -0.0724,0.02791 -0.0486,0.0155 -0.10025,0.02791 -0.0517,0.0124 -0.0837,0.0155 l -0.0382,-0.08268 q 0,-0.05374 0.0382,-0.109554 0.0393,-0.05581 0.10748,-0.103353 0.0682,-0.04858 0.15813,-0.07752 0.0899,-0.02997 0.19224,-0.02997 0.17157,0 0.27078,0.06511 0.0992,0.06408 0.0992,0.186036 0,0.06925 -0.03,0.14056 -0.03,0.07131 -0.0982,0.162264 -0.0672,0.08992 -0.1819,0.217041 -0.11369,0.126091 -0.28112,0.307992 h 0.40618 q 0.0341,0 0.0558,-0.03411 0.0227,-0.03514 0.0351,-0.08475 0.0124,-0.05064 0.0145,-0.09612 l 0.093,0.02274 z m 1.14101,-0.465089 q -0.0217,0.03307 -0.0558,0.07028 -0.0331,0.03617 -0.0568,0.05374 h -0.0517 v 0.192236 q 0,0.0155 0.0289,0.02997 0.03,0.01344 0.11473,0.03307 v 0.08578 H 5.25388 V 21.9918 q 0.13539,-0.02274 0.1757,-0.03927 0.0413,-0.01757 0.0413,-0.03514 V 21.736523 H 4.98822 l -0.0444,-0.04444 0.49196,-0.817522 q 0.0517,-0.01757 0.12816,-0.04134 0.0775,-0.0248 0.12712,-0.04237 l 0.0486,0.04651 v 0.744142 h 0.13746 z m -0.43304,-0.5271 -0.31213,0.496094 h 0.31213 z m 1.55132,0.370003 q 0,0.177768 -0.0641,0.326596 -0.0641,0.147795 -0.17673,0.237712 -0.11266,0.08888 -0.25942,0.08888 -0.14676,0 -0.25528,-0.08888 -0.10749,-0.08992 -0.1664,-0.237712 -0.0589,-0.148828 -0.0589,-0.326596 0,-0.177767 0.0599,-0.326595 0.06,-0.148828 0.17157,-0.237712 0.11265,-0.08992 0.26872,-0.08992 0.15193,0 0.25941,0.08888 0.10749,0.08785 0.16433,0.236679 0.0568,0.148828 0.0568,0.328662 z m -0.30385,0.03824 q 0,-0.283187 -0.0537,-0.417546 -0.0537,-0.135393 -0.14263,-0.135393 -0.0909,0 -0.13436,0.105421 -0.0424,0.10542 -0.0424,0.364836 0,0.283187 0.0486,0.420646 0.0486,0.13746 0.1478,0.13746 0.092,0 0.13435,-0.106454 0.0424,-0.107487 0.0424,-0.36897 z"
                 id="path309"
                 style="font-weight:800;font-size:2.11667px;font-family:'Gentium Book Plus';-inkscape-font-specification:'Gentium Book Plus, Ultra-Bold';text-align:center;text-anchor:middle;fill:#ffffff"
                 aria-label="240" />
            <path
                 d="M 4.76296,17.751427 H 3.90099 l -0.03,-0.07648 Q 4.05186,17.46204 4.16865,17.318379 4.28544,17.173685 4.35158,17.0786 q 0.0661,-0.09612 0.092,-0.16123 0.0269,-0.06615 0.0269,-0.120923 0,-0.08578 -0.0341,-0.141594 -0.0341,-0.05581 -0.11162,-0.05581 -0.0692,0 -0.10335,0.04548 -0.0341,0.04547 -0.0341,0.107487 0,0.02687 0.006,0.05478 -0.0227,0.0124 -0.0724,0.02791 -0.0486,0.0155 -0.10026,0.02791 -0.0517,0.0124 -0.0837,0.0155 l -0.0382,-0.08268 q 0,-0.05374 0.0382,-0.109554 0.0393,-0.05581 0.10749,-0.103353 0.0682,-0.04858 0.15813,-0.07752 0.0899,-0.02997 0.19224,-0.02997 0.17156,0 0.27078,0.06511 0.0992,0.06408 0.0992,0.186036 0,0.06925 -0.03,0.14056 -0.03,0.07131 -0.0982,0.162264 -0.0672,0.08992 -0.1819,0.217041 -0.11369,0.126091 -0.28112,0.307992 h 0.40618 q 0.0341,0 0.0558,-0.03411 0.0227,-0.03514 0.0351,-0.08475 0.0124,-0.05064 0.0145,-0.09612 l 0.093,0.02274 z m 1.10381,-0.423748 q 0,0.11989 -0.0496,0.224276 -0.0496,0.103353 -0.15607,0.167432 -0.10645,0.06304 -0.27595,0.06304 -0.0951,0 -0.21084,-0.04341 -0.11575,-0.04341 -0.20464,-0.126091 l 0.0568,-0.100252 q 0.10956,0.07545 0.19327,0.100252 0.0837,0.02481 0.14263,0.02481 0.093,0 0.15916,-0.07338 0.0661,-0.07441 0.0661,-0.192237 0,-0.141594 -0.0692,-0.211874 -0.0692,-0.07028 -0.17156,-0.07028 -0.0951,0 -0.154,0.02584 -0.0589,0.02584 -0.11369,0.06718 l -0.0486,-0.03411 q 0.009,-0.05581 0.0227,-0.141593 0.0134,-0.08682 0.0258,-0.180868 0.0134,-0.09509 0.0227,-0.179834 0.0103,-0.08578 0.0134,-0.14056 h 0.57464 q 0.0589,0 0.092,-0.0093 0.0331,-0.0093 0.0331,-0.0093 l 0.0403,0.04031 q -0.0145,0.0217 -0.0444,0.06201 -0.029,0.03927 -0.0589,0.07545 -0.0289,0.03514 -0.0455,0.04754 H 5.24444 q -0.003,0.05994 -0.0155,0.137459 -0.0124,0.07648 -0.0217,0.121957 0.0475,-0.02274 0.10542,-0.03514 0.0579,-0.0124 0.12712,-0.0124 0.14366,0 0.23771,0.05891 0.0951,0.05788 0.1416,0.150895 0.0475,0.09198 0.0475,0.19327 z m 1.15548,-0.198438 q 0,0.177768 -0.0641,0.326596 -0.0641,0.147795 -0.17673,0.237712 -0.11266,0.08888 -0.25942,0.08888 -0.14676,0 -0.25528,-0.08888 -0.10749,-0.08992 -0.1664,-0.237712 -0.0589,-0.148828 -0.0589,-0.326596 0,-0.177767 0.0599,-0.326595 0.06,-0.148829 0.17157,-0.237712 0.11265,-0.08992 0.26872,-0.08992 0.15193,0 0.25941,0.08888 0.10749,0.08785 0.16433,0.236679 0.0568,0.148828 0.0568,0.328662 z m -0.30385,0.03824 q 0,-0.283187 -0.0537,-0.417546 -0.0537,-0.135393 -0.14263,-0.135393 -0.0909,0 -0.13436,0.10542 -0.0424,0.10542 -0.0424,0.364837 0,0.283187 0.0486,0.420646 0.0486,0.13746 0.1478,0.13746 0.092,0 0.13435,-0.106454 0.0424,-0.107487 0.0424,-0.36897 z"
                 id="path310"
                 style="font-weight:800;font-size:2.11667px;font-family:'Gentium Book Plus';-inkscape-font-specification:'Gentium Book Plus, Ultra-Bold';text-align:center;text-anchor:middle;fill:#ffffff"
                 aria-label="250" />
            <text
                 xml:space="preserve"
                 style="font-style:normal;font-variant:normal;font-weight:800;font-stretch:normal;font-size:4.93889px;line-height:1;font-family:'Gentium Book Plus';-inkscape-font-specification:'Gentium Book Plus, Ultra-Bold';font-variant-ligatures:normal;font-variant-caps:normal;font-variant-numeric:normal;font-variant-east-asian:normal;text-align:center;text-decoration-color:#d40000;text-anchor:middle;fill:#ffffff;stroke-width:0.196181;-inkscape-stroke:none"
                 x="12.962097"
                 y="7.2864819"
                 id="text310"><tspan
                     sodipodi:role="line"
                     id="tspan310"
                     x="12.962097"
                     y="7.2864819">veg</tspan></text>
            <path
                 d="m 2.40704,65.600527 v -0.144178 q 0.24339,-0.02946 0.33021,-0.06821 0.0884,-0.03876 0.0884,-0.07131 v -1.11156 q 0,-0.06201 -0.005,-0.09612 -0.005,-0.03566 -0.0232,-0.05581 -0.0186,-0.02015 -0.10232,-0.02015 -0.0837,-0.0016 -0.28836,0.04186 l -0.0481,-0.141076 q 0.0667,-0.0124 0.17829,-0.04496 0.11317,-0.03411 0.23719,-0.07596 0.12403,-0.04186 0.231,-0.08061 0.10852,-0.03876 0.16588,-0.06201 l 0.0729,0.06976 v 1.576648 q 0,0.02946 0.076,0.06976 0.0775,0.04031 0.31161,0.06976 v 0.144178 z M 5.3774,64.66725 q 0,0.266651 -0.0961,0.489893 -0.0961,0.221692 -0.2651,0.356567 -0.16899,0.133325 -0.38913,0.133325 -0.22014,0 -0.38292,-0.133325 -0.16123,-0.134875 -0.2496,-0.356567 -0.0884,-0.223242 -0.0884,-0.489893 0,-0.26665 0.0899,-0.489892 0.0899,-0.223242 0.25735,-0.356568 0.16898,-0.134875 0.40308,-0.134875 0.22789,0 0.38912,0.133325 0.16123,0.131775 0.2465,0.355017 0.0853,0.223242 0.0853,0.492993 z m -0.45579,0.05736 q 0,-0.42478 -0.0806,-0.626318 -0.0806,-0.203089 -0.21394,-0.203089 -0.13643,0 -0.20154,0.15813 -0.0636,0.15813 -0.0636,0.547254 0,0.42478 0.0729,0.630969 0.0729,0.206189 0.22169,0.206189 0.13798,0 0.20154,-0.15968 0.0636,-0.161231 0.0636,-0.553455 z m 2.10065,-0.05736 q 0,0.266651 -0.0961,0.489893 -0.0961,0.221692 -0.2651,0.356567 -0.16898,0.133325 -0.38913,0.133325 -0.22014,0 -0.38292,-0.133325 -0.16123,-0.134875 -0.2496,-0.356567 -0.0884,-0.223242 -0.0884,-0.489893 0,-0.26665 0.0899,-0.489892 0.0899,-0.223242 0.25735,-0.356568 0.16898,-0.134875 0.40308,-0.134875 0.22789,0 0.38912,0.133325 0.16123,0.131775 0.2465,0.355017 0.0853,0.223242 0.0853,0.492993 z m -0.45579,0.05736 q 0,-0.42478 -0.0806,-0.626318 -0.0806,-0.203089 -0.21394,-0.203089 -0.13643,0 -0.20154,0.15813 -0.0636,0.15813 -0.0636,0.547254 0,0.42478 0.0729,0.630969 0.0729,0.206189 0.22169,0.206189 0.13798,0 0.20154,-0.15968 0.0636,-0.161231 0.0636,-0.553455 z"
                 id="path311"
                 style="font-weight:800;font-size:3.175px;line-height:1;font-family:'Gentium Book Plus';-inkscape-font-specification:'Gentium Book Plus, Ultra-Bold';text-align:center;text-decoration-color:#d40000;text-anchor:middle;fill:#ffffff;stroke-width:0.196181"
                 aria-label="100" />
            <path
                 d="M 3.63332,39.674532 H 2.34037 L 2.29541,39.55981 q 0.2713,-0.31936 0.44649,-0.534851 0.17518,-0.217041 0.2744,-0.359668 0.0992,-0.144177 0.13797,-0.241846 0.0403,-0.09922 0.0403,-0.181384 0,-0.128674 -0.0512,-0.21239 -0.0512,-0.08372 -0.16743,-0.08372 -0.10387,0 -0.15503,0.06821 -0.0512,0.06821 -0.0512,0.16123 0,0.04031 0.009,0.08217 -0.0341,0.0186 -0.10852,0.04186 -0.0729,0.02325 -0.15038,0.04186 -0.0775,0.0186 -0.12557,0.02325 l -0.0574,-0.124023 q 0,-0.08062 0.0574,-0.164331 0.0589,-0.08372 0.16123,-0.15503 0.10232,-0.07286 0.2372,-0.116272 0.13487,-0.04496 0.28835,-0.04496 0.25735,0 0.40618,0.09767 0.14883,0.09612 0.14883,0.279053 0,0.10387 -0.045,0.21084 -0.045,0.10697 -0.14728,0.243396 -0.10077,0.134875 -0.27285,0.325562 -0.17054,0.189135 -0.42168,0.461987 h 0.60926 q 0.0512,0 0.0837,-0.05116 0.0341,-0.05271 0.0527,-0.127124 0.0186,-0.07596 0.0217,-0.144177 l 0.13953,0.03411 z M 5.3774,38.741255 q 0,0.266651 -0.0961,0.489893 -0.0961,0.221692 -0.2651,0.356567 -0.16899,0.133326 -0.38913,0.133326 -0.22014,0 -0.38292,-0.133326 -0.16123,-0.134875 -0.2496,-0.356567 -0.0884,-0.223242 -0.0884,-0.489893 0,-0.26665 0.0899,-0.489892 0.0899,-0.223242 0.25735,-0.356568 0.16898,-0.134875 0.40308,-0.134875 0.22789,0 0.38912,0.133325 0.16123,0.131775 0.2465,0.355017 0.0853,0.223242 0.0853,0.492993 z m -0.45579,0.05736 q 0,-0.42478 -0.0806,-0.626318 -0.0806,-0.203088 -0.21394,-0.203088 -0.13643,0 -0.20154,0.158129 -0.0636,0.15813 -0.0636,0.547254 0,0.42478 0.0729,0.630969 0.0729,0.206189 0.22169,0.206189 0.13798,0 0.20154,-0.15968 0.0636,-0.161231 0.0636,-0.553455 z m 2.10065,-0.05736 q 0,0.266651 -0.0961,0.489893 -0.0961,0.221692 -0.2651,0.356567 -0.16898,0.133326 -0.38913,0.133326 -0.22014,0 -0.38292,-0.133326 -0.16123,-0.134875 -0.2496,-0.356567 -0.0884,-0.223242 -0.0884,-0.489893 0,-0.26665 0.0899,-0.489892 0.0899,-0.223242 0.25735,-0.356568 0.16898,-0.134875 0.40308,-0.134875 0.22789,0 0.38912,0.133325 0.16123,0.131775 0.2465,0.355017 0.0853,0.223242 0.0853,0.492993 z m -0.45579,0.05736 q 0,-0.42478 -0.0806,-0.626318 -0.0806,-0.203088 -0.21394,-0.203088 -0.13643,0 -0.20154,0.158129 -0.0636,0.15813 -0.0636,0.547254 0,0.42478 0.0729,0.630969 0.0729,0.206189 0.22169,0.206189 0.13798,0 0.20154,-0.15968 0.0636,-0.161231 0.0636,-0.553455 z"
                 id="path312"
                 style="font-weight:800;font-size:3.175px;line-height:1;font-family:'Gentium Book Plus';-inkscape-font-specification:'Gentium Book Plus, Ultra-Bold';text-align:center;text-decoration-color:#d40000;text-anchor:middle;fill:#ffffff;stroke-width:0.196181"
                 aria-label="200" />
            <path
                 d="m 3.63952,13.150803 q 0,0.173633 -0.093,0.31936 -0.093,0.144177 -0.25735,0.230994 -0.16433,0.08682 -0.37672,0.08682 -0.0806,0 -0.19069,-0.02946 -0.10852,-0.02791 -0.22169,-0.08527 -0.11164,-0.05891 -0.20466,-0.147278 l 0.0682,-0.165882 q 0.14108,0.10387 0.26045,0.150379 0.12092,0.04496 0.2372,0.04496 0.13332,0 0.23099,-0.08527 0.0977,-0.08682 0.0977,-0.283703 0,-0.139527 -0.0543,-0.218592 -0.0543,-0.08061 -0.12867,-0.113171 -0.0744,-0.03256 -0.13488,-0.03256 -0.0434,0 -0.0682,0.0016 -0.0248,0.0015 -0.0682,0.0093 L 2.7062,12.678 q 0.17363,-0.04651 0.25735,-0.113171 0.0837,-0.06821 0.11007,-0.142627 0.0279,-0.07441 0.0279,-0.137976 0,-0.10697 -0.0403,-0.189136 -0.0403,-0.08216 -0.14883,-0.08216 -0.0543,0 -0.0992,0.04961 -0.045,0.04961 -0.045,0.127124 0,0.03721 0.0108,0.07441 -0.0667,0.03876 -0.17983,0.07751 -0.11317,0.03721 -0.20619,0.04496 l -0.0558,-0.11007 q 0,-0.08682 0.0822,-0.192237 0.0822,-0.10542 0.23099,-0.181384 0.15038,-0.07596 0.35037,-0.07596 0.20154,0 0.32091,0.06356 0.12092,0.06356 0.17518,0.16278 0.0543,0.09767 0.0543,0.203089 0,0.07751 -0.0419,0.15968 -0.0419,0.08217 -0.11627,0.148828 -0.0744,0.06511 -0.17208,0.09457 0.19379,0.02015 0.30541,0.16123 0.11317,0.141077 0.11317,0.330213 z M 5.3774,12.808188 q 0,0.26665 -0.0961,0.489893 -0.0961,0.221692 -0.2651,0.356567 -0.16899,0.133325 -0.38913,0.133325 -0.22014,0 -0.38292,-0.133325 -0.16123,-0.134875 -0.2496,-0.356567 -0.0884,-0.223243 -0.0884,-0.489893 0,-0.26665 0.0899,-0.489892 0.0899,-0.223243 0.25735,-0.356568 0.16898,-0.134875 0.40308,-0.134875 0.22789,0 0.38912,0.133325 0.16123,0.131775 0.2465,0.355017 0.0853,0.223242 0.0853,0.492993 z m -0.45579,0.05736 q 0,-0.42478 -0.0806,-0.626318 -0.0806,-0.203089 -0.21394,-0.203089 -0.13643,0 -0.20154,0.15813 -0.0636,0.15813 -0.0636,0.547253 0,0.424781 0.0729,0.63097 0.0729,0.206189 0.22169,0.206189 0.13798,0 0.20154,-0.15968 0.0636,-0.161231 0.0636,-0.553455 z m 2.10065,-0.05736 q 0,0.26665 -0.0961,0.489893 -0.0961,0.221692 -0.2651,0.356567 -0.16898,0.133325 -0.38913,0.133325 -0.22014,0 -0.38292,-0.133325 -0.16123,-0.134875 -0.2496,-0.356567 -0.0884,-0.223243 -0.0884,-0.489893 0,-0.26665 0.0899,-0.489892 0.0899,-0.223243 0.25735,-0.356568 0.16898,-0.134875 0.40308,-0.134875 0.22789,0 0.38912,0.133325 0.16123,0.131775 0.2465,0.355017 0.0853,0.223242 0.0853,0.492993 z m -0.45579,0.05736 q 0,-0.42478 -0.0806,-0.626318 -0.0806,-0.203089 -0.21394,-0.203089 -0.13643,0 -0.20154,0.15813 -0.0636,0.15813 -0.0636,0.547253 0,0.424781 0.0729,0.63097 0.0729,0.206189 0.22169,0.206189 0.13798,0 0.20154,-0.15968 0.0636,-0.161231 0.0636,-0.553455 z"
                 id="path313"
                 style="font-weight:800;font-size:3.175px;line-height:1;font-family:'Gentium Book Plus';-inkscape-font-specification:'Gentium Book Plus, Ultra-Bold';text-align:center;text-decoration-color:#d40000;text-anchor:middle;fill:#ffffff;stroke-width:0.196181"
                 aria-label="300" />
            <path
                 d="m 7.02226,90.592253 q 0,0.266651 -0.0961,0.489893 -0.0961,0.221692 -0.2651,0.356567 -0.16898,0.133322 -0.38913,0.133322 -0.22014,0 -0.38292,-0.133322 -0.16123,-0.134875 -0.2496,-0.356567 -0.0884,-0.223242 -0.0884,-0.489893 0,-0.26665 0.0899,-0.489892 0.0899,-0.223242 0.25735,-0.356568 0.16899,-0.134875 0.40308,-0.134875 0.22789,0 0.38912,0.133325 0.16123,0.131775 0.2465,0.355017 0.0853,0.223242 0.0853,0.492993 z m -0.45579,0.05736 q 0,-0.42478 -0.0806,-0.626318 -0.0806,-0.203089 -0.21394,-0.203089 -0.13642,0 -0.20154,0.15813 -0.0636,0.15813 -0.0636,0.547254 0,0.42478 0.0729,0.630969 0.0729,0.206189 0.22169,0.206189 0.13798,0 0.20154,-0.15968 0.0636,-0.161231 0.0636,-0.553455 z"
                 id="path314"
                 style="font-weight:800;font-size:3.175px;line-height:1;font-family:'Gentium Book Plus';-inkscape-font-specification:'Gentium Book Plus, Ultra-Bold';text-align:center;text-decoration-color:#d40000;text-anchor:middle;fill:#ffffff;stroke-width:0.196181"
                 aria-label="0" />
            <path
                 d="m 24.72014,5.123297 q -0.1061,0.0096 -0.21704,0.05305 -0.11093,0.04341 -0.21704,0.120579 L 23.3769,5.969753 23.0224,5.897403 23.64459,5.335508 q 0.1061,-0.09646 0.11816,-0.139871 0.0121,-0.04582 -0.0386,-0.05788 -0.0507,-0.01447 -0.13505,-0.01447 v -0.20016 h 1.13102 z m -2.63825,2.042597 v -0.20016 q 0.15916,-0.041 0.23633,-0.07235 0.0772,-0.03135 0.0772,-0.07476 V 4.136961 q 0,-0.144694 -0.0217,-0.204984 -0.0193,-0.0627 -0.0868,-0.08199 -0.0651,-0.0217 -0.20498,-0.03617 V 3.620891 q 0.25804,-0.03376 0.46543,-0.07476 0.20981,-0.04341 0.38585,-0.118167 l 0.11335,0.106109 v 3.284555 q 0,0.03617 0.0434,0.06511 0.0434,0.02653 0.22187,0.08199 v 0.20016 z m 2.72266,-0.09164 q -0.0941,0.0217 -0.22669,0.05064 -0.13022,0.02653 -0.24115,0.04582 -0.11094,0.01929 -0.1447,0.01929 -0.10128,0 -0.17604,-0.02894 -0.0724,-0.02894 -0.1254,-0.09887 l -0.86335,-1.164787 0.46785,-0.183279 0.94774,1.063501 q 0.0699,0.07717 0.13746,0.09164 0.0699,0.01447 0.20981,0.0048 z m 1.56752,0.09164 v -0.20016 q 0.17363,-0.04582 0.24357,-0.07958 0.0699,-0.03617 0.0699,-0.06752 V 5.784071 q 0,-0.258037 -0.0506,-0.3545 -0.0506,-0.09646 -0.18569,-0.09646 -0.1037,0 -0.23392,0.041 -0.12782,0.03858 -0.36174,0.178456 V 6.81864 q 0,0.08199 0.3135,0.147105 v 0.20016 H 24.88896 V 6.965745 Q 25.20247,6.883755 25.20247,6.81864 V 5.523628 q 0,-0.125402 -0.0145,-0.185691 -0.0121,-0.06029 -0.0772,-0.08441 -0.0651,-0.02412 -0.22187,-0.041 V 5.019601 q 0.25322,-0.02653 0.44132,-0.0627 0.19051,-0.03859 0.37862,-0.106109 l 0.10852,0.10852 0.0265,0.262861 q 0.30145,-0.214629 0.53537,-0.2918 0.23634,-0.07958 0.42444,-0.07958 0.13987,0 0.26045,0.0627 0.12058,0.06029 0.19533,0.202572 0.0772,0.142283 0.0772,0.383439 v 1.319128 q 0,0.03135 0.0603,0.06511 0.0627,0.03376 0.25322,0.08199 v 0.20016 z m 3.81027,-1.16961 q 0,0.241157 -0.0965,0.463021 -0.0965,0.221864 -0.26527,0.397909 -0.16881,0.176044 -0.38826,0.279742 -0.21946,0.101285 -0.46544,0.101285 -0.34003,0 -0.59324,-0.149517 -0.2508,-0.149517 -0.39068,-0.407555 -0.13987,-0.258037 -0.13987,-0.586011 0,-0.320738 0.15193,-0.602891 0.15434,-0.284565 0.42926,-0.463021 0.27492,-0.178456 0.63666,-0.178456 0.34003,0 0.59083,0.149517 0.25321,0.149517 0.39067,0.407555 0.13987,0.258037 0.13987,0.588422 z m -0.68729,0.120579 q 0,-0.255627 -0.0579,-0.470256 -0.0555,-0.217041 -0.16881,-0.349677 -0.11093,-0.132637 -0.27733,-0.132637 -0.18328,0 -0.28456,0.113344 -0.0989,0.113344 -0.13746,0.308681 -0.0386,0.192925 -0.0386,0.438905 0,0.253215 0.0627,0.458198 0.0651,0.202571 0.17846,0.32315 0.11575,0.118167 0.26286,0.118167 0.27009,0 0.36415,-0.207395 0.0965,-0.207395 0.0965,-0.60048 z m 2.65513,0.6463 q -0.34485,0.248391 -0.57154,0.361735 -0.22427,0.113343 -0.35209,0.113343 -0.21945,0 -0.37861,-0.171221 Q 30.68877,6.895799 30.68877,6.560591 V 5.248698 H 30.4018 L 30.327,5.157058 30.5151,4.923136 h 0.17363 V 4.450468 l 0.55225,-0.395497 0.0989,0.08441 v 0.78376 h 0.71623 l 0.0941,0.09405 q -0.0458,0.08441 -0.12058,0.180867 -0.0748,0.09405 -0.12299,0.135048 -0.0579,-0.02894 -0.17363,-0.05547 -0.11334,-0.02894 -0.21945,-0.02894 h -0.17363 v 1.080382 q 0,0.233922 0.0555,0.330385 0.0579,0.09646 0.13023,0.09646 0.0844,0 0.19292,-0.03617 0.10852,-0.03859 0.31351,-0.151928 z"
                 id="text315"
                 style="font-weight:800;font-size:4.93889px;line-height:1;font-family:'Gentium Book Plus';-inkscape-font-specification:'Gentium Book Plus, Ultra-Bold';text-align:center;text-decoration-color:#d40000;text-anchor:middle;fill:#ffffff;stroke-width:0.196181"
                 aria-label="knot" />
            <path
                 d="m 29.49082,90.583747 q 0,0.26665 -0.0961,0.489892 -0.0961,0.221692 -0.2651,0.356568 -0.16898,0.133325 -0.38912,0.133325 -0.22014,0 -0.38293,-0.133325 -0.16123,-0.134876 -0.24959,-0.356568 -0.0884,-0.223242 -0.0884,-0.489892 0,-0.266651 0.0899,-0.489893 0.0899,-0.223242 0.25735,-0.356567 0.16898,-0.134876 0.40307,-0.134876 0.2279,0 0.38913,0.133325 0.16123,0.131775 0.24649,0.355017 0.0853,0.223243 0.0853,0.492994 z m -0.45579,0.05736 q 0,-0.42478 -0.0806,-0.626318 -0.0806,-0.203088 -0.21394,-0.203088 -0.13642,0 -0.20153,0.15813 -0.0636,0.158129 -0.0636,0.547253 0,0.42478 0.0729,0.630969 0.0729,0.206189 0.22169,0.206189 0.13797,0 0.20154,-0.15968 0.0636,-0.16123 0.0636,-0.553455 z"
                 id="path220"
                 style="font-weight:800;font-size:3.175px;font-family:'Gentium Book Plus';-inkscape-font-specification:'Gentium Book Plus, Ultra-Bold';text-align:center;text-anchor:middle;fill:#ffffff"
                 aria-label="0" />
            <path
                 id="path222"
                 style="fill:#ffffff;stroke-width:0.77144"
                 d="m 21.16485,90.643411 v -0.12 h 6 v 0.12 z" />
            <path
                 id="path223"
                 style="fill:#ffffff;stroke-width:0.96225"
                 d="m 21.16485,87.01006 v -0.12 h 2 v 0.12 z" />
            <path
                 id="path224"
                 style="fill:#ffffff;stroke-width:0.514276"
                 d="m 21.16485,72.476658 v -0.12 h 2 v 0.12 z" />
            <path
                 id="path225"
                 style="fill:#ffffff;stroke-width:1.36083"
                 d="m 21.16485,83.37671 v -0.12 h 4 v 0.12 z" />
            <path
                 id="path226"
                 style="fill:#ffffff;stroke-width:0.96225"
                 d="m 21.16485,79.743359 v -0.12 h 2 v 0.12 z" />
            <path
                 id="path227"
                 style="fill:#ffffff;stroke-width:1.36083"
                 d="m 21.16485,76.110009 v -0.12 h 4 v 0.12 z" />
            <path
                 id="path228"
                 style="fill:#ffffff;stroke-width:1.36083"
                 d="m 21.16485,68.843307 v -0.12 h 4 v 0.12 z" />
            <path
                 id="path229"
                 style="fill:#ffffff;stroke-width:0.96225"
                 d="m 21.16485,65.209957 v -0.12 h 2 v 0.12 z" />
            <path
                 id="path230"
                 style="fill:#ffffff;stroke-width:1.36083"
                 d="m 21.16485,61.576606 v -0.12 h 4 v 0.12 z" />
            <path
                 id="path231"
                 style="fill:#ffffff;stroke-width:0.96225"
                 d="m 21.16485,57.943256 v -0.12 h 2 v 0.12 z" />
            <path
                 id="path232"
                 style="fill:#ffffff;stroke-width:0.77144"
                 d="m 21.16485,54.309905 v -0.12 h 6 v 0.12 z" />
            <path
                 d="m 29.36524,54.548335 q 0,0.179834 -0.0744,0.336414 -0.0744,0.155029 -0.23409,0.251147 -0.15969,0.09457 -0.41393,0.09457 -0.14263,0 -0.31626,-0.06511 -0.17364,-0.06511 -0.30696,-0.189136 l 0.0853,-0.150378 q 0.16433,0.113171 0.2899,0.150378 0.12558,0.03721 0.21394,0.03721 0.13953,0 0.23875,-0.110071 0.0992,-0.111621 0.0992,-0.288354 0,-0.21239 -0.10387,-0.31781 -0.10387,-0.10542 -0.25735,-0.10542 -0.14263,0 -0.23099,0.03876 -0.0884,0.03876 -0.17053,0.100769 l -0.0729,-0.05116 q 0.0139,-0.08372 0.0341,-0.212391 0.0202,-0.130224 0.0388,-0.271301 0.0202,-0.142627 0.0341,-0.269751 0.0155,-0.128674 0.0202,-0.21084 h 0.86196 q 0.0884,0 0.13797,-0.01395 0.0496,-0.01395 0.0496,-0.01395 l 0.0605,0.06046 q -0.0217,0.03256 -0.0667,0.09302 -0.0434,0.05891 -0.0884,0.113171 -0.0434,0.05271 -0.0682,0.07131 h -0.69299 q -0.005,0.08992 -0.0233,0.206189 -0.0186,0.114722 -0.0326,0.182934 0.0713,-0.03411 0.15813,-0.05271 0.0868,-0.0186 0.19069,-0.0186 0.21549,0 0.35657,0.08837 0.14262,0.08682 0.21239,0.226342 0.0713,0.137977 0.0713,0.289905 z m 1.73323,-0.297656 q 0,0.26665 -0.0961,0.489893 -0.0961,0.221691 -0.2651,0.356567 -0.16899,0.133325 -0.38913,0.133325 -0.22014,0 -0.38292,-0.133325 -0.16123,-0.134876 -0.2496,-0.356567 -0.0884,-0.223243 -0.0884,-0.489893 0,-0.26665 0.0899,-0.489893 0.0899,-0.223242 0.25735,-0.356567 0.16898,-0.134875 0.40308,-0.134875 0.22789,0 0.38912,0.133325 0.16123,0.131775 0.2465,0.355017 0.0853,0.223242 0.0853,0.492993 z m -0.45579,0.05736 q 0,-0.42478 -0.0806,-0.626319 -0.0806,-0.203088 -0.21394,-0.203088 -0.13643,0 -0.20154,0.15813 -0.0636,0.15813 -0.0636,0.547253 0,0.424781 0.0729,0.63097 0.0729,0.206189 0.22169,0.206189 0.13798,0 0.20154,-0.159681 0.0636,-0.16123 0.0636,-0.553454 z"
                 id="path233"
                 style="font-weight:800;font-size:3.175px;line-height:1;font-family:'Gentium Book Plus';-inkscape-font-specification:'Gentium Book Plus, Ultra-Bold';text-align:center;text-decoration-color:#d40000;text-anchor:middle;fill:#ffffff;stroke-width:0.196181"
                 aria-label="50" />
            <path
                 d="m 28.08935,18.016703 v -0.144178 q 0.2434,-0.02946 0.33021,-0.06821 0.0884,-0.03876 0.0884,-0.07131 v -1.11156 q 0,-0.06201 -0.005,-0.09612 -0.005,-0.03566 -0.0232,-0.05581 -0.0186,-0.02015 -0.10232,-0.02015 -0.0837,-0.0016 -0.28835,0.04186 l -0.0481,-0.141076 q 0.0667,-0.0124 0.17828,-0.04496 0.11317,-0.03411 0.2372,-0.07596 0.12402,-0.04186 0.23099,-0.08062 0.10852,-0.03876 0.16588,-0.06201 l 0.0729,0.06976 v 1.576648 q 0,0.02946 0.076,0.06976 0.0775,0.04031 0.31161,0.06976 v 0.144178 z m 2.97036,-0.933277 q 0,0.266651 -0.0961,0.489893 -0.0961,0.221692 -0.2651,0.356567 -0.16898,0.133326 -0.38912,0.133326 -0.22014,0 -0.38292,-0.133326 -0.16123,-0.134875 -0.2496,-0.356567 -0.0884,-0.223242 -0.0884,-0.489893 0,-0.26665 0.0899,-0.489892 0.0899,-0.223242 0.25735,-0.356568 0.16898,-0.134875 0.40308,-0.134875 0.22789,0 0.38912,0.133325 0.16123,0.131774 0.2465,0.355016 0.0853,0.223242 0.0853,0.492993 z m -0.45578,0.05736 q 0,-0.42478 -0.0806,-0.626318 -0.0806,-0.203089 -0.21394,-0.203089 -0.13643,0 -0.20154,0.15813 -0.0636,0.15813 -0.0636,0.547254 0,0.42478 0.0729,0.630969 0.0729,0.206189 0.22169,0.206189 0.13798,0 0.20154,-0.15968 0.0636,-0.161231 0.0636,-0.553455 z m 2.10064,-0.05736 q 0,0.266651 -0.0961,0.489893 -0.0961,0.221692 -0.2651,0.356567 -0.16898,0.133326 -0.38912,0.133326 -0.22014,0 -0.38292,-0.133326 -0.16123,-0.134875 -0.2496,-0.356567 -0.0884,-0.223242 -0.0884,-0.489893 0,-0.26665 0.0899,-0.489892 0.0899,-0.223242 0.25735,-0.356568 0.16898,-0.134875 0.40308,-0.134875 0.22789,0 0.38912,0.133325 0.16123,0.131774 0.2465,0.355016 0.0853,0.223242 0.0853,0.492993 z m -0.45578,0.05736 q 0,-0.42478 -0.0806,-0.626318 -0.0806,-0.203089 -0.21394,-0.203089 -0.13643,0 -0.20154,0.15813 -0.0636,0.15813 -0.0636,0.547254 0,0.42478 0.0729,0.630969 0.0729,0.206189 0.22169,0.206189 0.13798,0 0.20154,-0.15968 0.0636,-0.161231 0.0636,-0.553455 z"
                 id="path234"
                 style="font-weight:800;font-size:3.175px;line-height:1;font-family:'Gentium Book Plus';-inkscape-font-specification:'Gentium Book Plus, Ultra-Bold';text-align:center;text-decoration-color:#d40000;text-anchor:middle;fill:#ffffff;stroke-width:0.196181"
                 aria-label="100" />
            <path
                 d="m 28.05163,83.944575 v -0.09612 q 0.16226,-0.01964 0.22014,-0.04547 0.0589,-0.02584 0.0589,-0.04754 v -0.741042 q 0,-0.04134 -0.003,-0.06408 -0.003,-0.02377 -0.0155,-0.03721 -0.0124,-0.01344 -0.0682,-0.01344 -0.0558,-0.001 -0.19224,0.02791 l -0.032,-0.09405 q 0.0444,-0.0083 0.11886,-0.02997 0.0754,-0.02274 0.15813,-0.05064 0.0827,-0.02791 0.15399,-0.05374 0.0724,-0.02584 0.11059,-0.04134 l 0.0486,0.04651 v 1.051101 q 0,0.01964 0.0506,0.04651 0.0517,0.02687 0.20774,0.04651 v 0.09612 z m 1.98024,-0.622186 q 0,0.177768 -0.0641,0.326596 -0.0641,0.147795 -0.17673,0.237712 -0.11266,0.08888 -0.25942,0.08888 -0.14676,0 -0.25528,-0.08888 -0.10749,-0.08992 -0.1664,-0.237712 -0.0589,-0.148828 -0.0589,-0.326596 0,-0.177767 0.0599,-0.326595 0.0599,-0.148828 0.17157,-0.237712 0.11265,-0.08992 0.26871,-0.08992 0.15193,0 0.25942,0.08888 0.10749,0.08785 0.16433,0.236679 0.0568,0.148828 0.0568,0.328662 z m -0.30386,0.03824 q 0,-0.283187 -0.0537,-0.417546 -0.0537,-0.135393 -0.14262,-0.135393 -0.091,0 -0.13436,0.10542 -0.0424,0.105421 -0.0424,0.364837 0,0.283187 0.0486,0.420646 0.0486,0.13746 0.14779,0.13746 0.092,0 0.13436,-0.106454 0.0424,-0.107487 0.0424,-0.36897 z"
                 id="path235"
                 style="font-weight:800;font-size:2.11667px;line-height:1;font-family:'Gentium Book Plus';-inkscape-font-specification:'Gentium Book Plus, Ultra-Bold';text-align:center;text-decoration-color:#d40000;text-anchor:middle;fill:#ffffff;stroke-width:0.196181"
                 aria-label="10" />
            <path
                 d="m 28.91152,76.672714 h -0.86196 l -0.03,-0.07648 q 0.18087,-0.212907 0.29766,-0.356568 0.11678,-0.144694 0.18293,-0.239779 0.0661,-0.09612 0.092,-0.16123 0.0269,-0.06615 0.0269,-0.120923 0,-0.08578 -0.0341,-0.141594 -0.0341,-0.05581 -0.11162,-0.05581 -0.0692,0 -0.10335,0.04548 -0.0341,0.04548 -0.0341,0.107487 0,0.02687 0.006,0.05478 -0.0227,0.0124 -0.0724,0.02791 -0.0486,0.0155 -0.10026,0.02791 -0.0517,0.0124 -0.0837,0.0155 l -0.0382,-0.08268 q 0,-0.05374 0.0382,-0.109554 0.0393,-0.05581 0.10749,-0.103353 0.0682,-0.04858 0.15813,-0.07751 0.0899,-0.02997 0.19224,-0.02997 0.17156,0 0.27078,0.06511 0.0992,0.06408 0.0992,0.186036 0,0.06925 -0.03,0.14056 -0.03,0.07131 -0.0982,0.162264 -0.0672,0.08992 -0.1819,0.217041 -0.11369,0.126091 -0.28112,0.307992 h 0.40618 q 0.0341,0 0.0558,-0.03411 0.0227,-0.03514 0.0351,-0.08475 0.0124,-0.05064 0.0145,-0.09612 l 0.093,0.02274 z m 1.16273,-0.622186 q 0,0.177768 -0.0641,0.326596 -0.0641,0.147795 -0.17674,0.237712 -0.11265,0.08888 -0.25941,0.08888 -0.14677,0 -0.25529,-0.08888 -0.10748,-0.08992 -0.16639,-0.237712 -0.0589,-0.148828 -0.0589,-0.326596 0,-0.177767 0.0599,-0.326595 0.0599,-0.148829 0.17156,-0.237712 0.11266,-0.08992 0.26872,-0.08992 0.15193,0 0.25942,0.08888 0.10748,0.08785 0.16433,0.236679 0.0568,0.148828 0.0568,0.328662 z m -0.30386,0.03824 q 0,-0.283187 -0.0537,-0.417546 -0.0537,-0.135393 -0.14263,-0.135393 -0.0909,0 -0.13436,0.10542 -0.0424,0.105421 -0.0424,0.364837 0,0.283187 0.0486,0.420646 0.0486,0.13746 0.1478,0.13746 0.092,0 0.13436,-0.106454 0.0424,-0.107487 0.0424,-0.36897 z"
                 id="path236"
                 style="font-weight:800;font-size:2.11667px;line-height:1;font-family:'Gentium Book Plus';-inkscape-font-specification:'Gentium Book Plus, Ultra-Bold';text-align:center;text-decoration-color:#d40000;text-anchor:middle;fill:#ffffff;stroke-width:0.196181"
                 aria-label="20" />
            <path
                 d="m 28.91566,69.012245 q 0,0.115755 -0.062,0.212907 -0.062,0.09612 -0.17157,0.153997 -0.10955,0.05788 -0.25115,0.05788 -0.0537,0 -0.12712,-0.01964 -0.0724,-0.0186 -0.14779,-0.05684 -0.0744,-0.03927 -0.13643,-0.09819 l 0.0455,-0.110588 q 0.094,0.06925 0.17363,0.100252 0.0806,0.02997 0.15813,0.02997 0.0889,0 0.154,-0.05684 0.0651,-0.05788 0.0651,-0.189136 0,-0.09302 -0.0362,-0.145729 -0.0362,-0.05374 -0.0858,-0.07545 -0.0496,-0.0217 -0.0899,-0.0217 -0.0289,0 -0.0455,0.001 -0.0165,10e-4 -0.0455,0.0062 l -0.0196,-0.103353 q 0.11575,-0.03101 0.17156,-0.07545 0.0558,-0.04547 0.0734,-0.09508 0.0186,-0.04961 0.0186,-0.09198 0,-0.07131 -0.0269,-0.12609 -0.0269,-0.05478 -0.0992,-0.05478 -0.0362,0 -0.0662,0.03307 -0.03,0.03307 -0.03,0.08475 0,0.02481 0.007,0.04961 -0.0444,0.02584 -0.11989,0.05168 -0.0755,0.02481 -0.13745,0.02997 l -0.0372,-0.07338 q 0,-0.05788 0.0548,-0.128158 0.0548,-0.07028 0.15399,-0.120923 0.10025,-0.05064 0.23358,-0.05064 0.13436,0 0.21394,0.04237 0.0806,0.04237 0.11679,0.10852 0.0362,0.06511 0.0362,0.135393 0,0.05168 -0.0279,0.106453 -0.0279,0.05478 -0.0775,0.09922 -0.0496,0.04341 -0.11472,0.06305 0.12919,0.01344 0.2036,0.107487 0.0755,0.09405 0.0755,0.220142 z m 1.15859,-0.22841 q 0,0.177768 -0.0641,0.326595 -0.0641,0.147795 -0.17674,0.237712 -0.11265,0.08888 -0.25941,0.08888 -0.14677,0 -0.25529,-0.08888 -0.10748,-0.08992 -0.16639,-0.237712 -0.0589,-0.148827 -0.0589,-0.326595 0,-0.177768 0.0599,-0.326595 0.0599,-0.148828 0.17156,-0.237712 0.11266,-0.08992 0.26872,-0.08992 0.15193,0 0.25942,0.08888 0.10748,0.08785 0.16433,0.236679 0.0568,0.148828 0.0568,0.328662 z m -0.30386,0.03824 q 0,-0.283187 -0.0537,-0.417546 -0.0537,-0.135393 -0.14263,-0.135393 -0.0909,0 -0.13436,0.10542 -0.0424,0.105421 -0.0424,0.364836 0,0.283187 0.0486,0.420647 0.0486,0.13746 0.1478,0.13746 0.092,0 0.13436,-0.106454 0.0424,-0.107487 0.0424,-0.36897 z"
                 id="path237"
                 style="font-weight:800;font-size:2.11667px;line-height:1;font-family:'Gentium Book Plus';-inkscape-font-specification:'Gentium Book Plus, Ultra-Bold';text-align:center;text-decoration-color:#d40000;text-anchor:middle;fill:#ffffff;stroke-width:0.196181"
                 aria-label="30" />
            <path
                 d="m 28.97974,61.679387 q -0.0217,0.03307 -0.0558,0.07028 -0.0331,0.03617 -0.0568,0.05374 h -0.05173 v 0.192237 q 0,0.0155 0.0289,0.02997 0.03,0.01344 0.11472,0.03307 v 0.08578 h -0.62942 v -0.08578 q 0.13539,-0.02274 0.1757,-0.03927 0.0413,-0.01757 0.0413,-0.03514 v -0.180868 h -0.48266 l -0.0444,-0.04444 0.49196,-0.817523 q 0.0517,-0.01757 0.12816,-0.04134 0.0775,-0.02481 0.12712,-0.04237 l 0.0486,0.04651 v 0.744142 h 0.13746 z m -0.43305,-0.527101 -0.31213,0.496095 h 0.31213 z m 1.55133,0.370004 q 0,0.177767 -0.0641,0.326596 -0.0641,0.147795 -0.17674,0.237712 -0.11265,0.08888 -0.25941,0.08888 -0.14676,0 -0.25528,-0.08888 -0.10749,-0.08992 -0.1664,-0.237712 -0.0589,-0.148829 -0.0589,-0.326596 0,-0.177767 0.0599,-0.326595 0.0599,-0.148829 0.17156,-0.237712 0.11266,-0.08992 0.26872,-0.08992 0.15193,0 0.25942,0.08888 0.10749,0.08785 0.16433,0.236679 0.0568,0.148828 0.0568,0.328662 z m -0.30386,0.03824 q 0,-0.283187 -0.0537,-0.417546 -0.0537,-0.135393 -0.14263,-0.135393 -0.0909,0 -0.13436,0.10542 -0.0424,0.10542 -0.0424,0.364836 0,0.283188 0.0486,0.420647 0.0486,0.13746 0.1478,0.13746 0.092,0 0.13436,-0.106454 0.0424,-0.107487 0.0424,-0.36897 z"
                 id="path238"
                 style="font-weight:800;font-size:2.11667px;line-height:1;font-family:'Gentium Book Plus';-inkscape-font-specification:'Gentium Book Plus, Ultra-Bold';text-align:center;text-decoration-color:#d40000;text-anchor:middle;fill:#ffffff;stroke-width:0.196181"
                 aria-label="40" />
            <path
                 d="m 28.98284,47.019024 q 0,0.07235 -0.0289,0.151929 -0.0279,0.07958 -0.0848,0.148829 -0.0568,0.06925 -0.14056,0.112654 -0.0837,0.04341 -0.19534,0.04341 -0.13643,0 -0.24805,-0.06511 -0.11162,-0.06511 -0.17777,-0.181902 -0.0661,-0.117822 -0.0661,-0.272852 0,-0.195338 0.0909,-0.363802 0.092,-0.1695 0.27079,-0.285255 0.17983,-0.116789 0.44235,-0.152963 l 0.03,0.10232 q -0.20671,0.04341 -0.3235,0.139527 -0.11678,0.09509 -0.16433,0.224276 -0.0465,0.128158 -0.0465,0.269751 0,0.244947 0.062,0.346233 0.062,0.100251 0.14987,0.100251 0.0558,0 0.0858,-0.03617 0.031,-0.03617 0.0424,-0.09405 0.0124,-0.05788 0.0124,-0.120922 0,-0.129193 -0.0238,-0.193272 -0.0238,-0.06511 -0.062,-0.08682 -0.0382,-0.0217 -0.0806,-0.0217 -0.0599,0 -0.1354,0.05994 -0.0744,0.05994 -0.13539,0.155029 l -0.0238,-0.14056 q 0.0816,-0.109554 0.18397,-0.169499 0.10232,-0.05994 0.18397,-0.05994 0.1788,0 0.28009,0.110588 0.10231,0.110588 0.10231,0.280087 z m 1.10071,-0.196371 q 0,0.177767 -0.0641,0.326595 -0.0641,0.147795 -0.17674,0.237712 -0.11265,0.08888 -0.25941,0.08888 -0.14677,0 -0.25529,-0.08888 -0.10748,-0.08992 -0.16639,-0.237712 -0.0589,-0.148828 -0.0589,-0.326595 0,-0.177767 0.0599,-0.326596 0.0599,-0.148828 0.17156,-0.237712 0.11266,-0.08992 0.26872,-0.08992 0.15193,0 0.25942,0.08888 0.10748,0.08785 0.16433,0.236678 0.0568,0.148829 0.0568,0.328663 z m -0.30386,0.03824 q 0,-0.283188 -0.0537,-0.417547 -0.0537,-0.135392 -0.14263,-0.135392 -0.091,0 -0.13436,0.10542 -0.0424,0.105421 -0.0424,0.364836 0,0.283187 0.0486,0.420647 0.0486,0.137459 0.1478,0.137459 0.092,0 0.13435,-0.106453 0.0424,-0.107487 0.0424,-0.36897 z"
                 id="path239"
                 style="font-weight:800;font-size:2.11667px;line-height:1;font-family:'Gentium Book Plus';-inkscape-font-specification:'Gentium Book Plus, Ultra-Bold';text-align:center;text-decoration-color:#d40000;text-anchor:middle;fill:#ffffff;stroke-width:0.196181"
                 aria-label="60" />
            <path
                 d="m 28.96216,38.796477 q -0.0713,0.166398 -0.13849,0.335897 -0.0672,0.168465 -0.12506,0.323495 -0.0568,0.15503 -0.10232,0.282154 -0.0444,0.12609 -0.0713,0.208773 -0.0238,0.01654 -0.0703,0.03411 -0.0465,0.01654 -0.0961,0.02997 -0.0496,0.01344 -0.0837,0.02274 l -0.0527,-0.04444 q 0.0899,-0.158131 0.1602,-0.289389 0.0703,-0.131258 0.12816,-0.249081 0.0579,-0.118856 0.11162,-0.236678 0.0537,-0.118856 0.11059,-0.250114 h -0.45889 q -0.0196,0 -0.0444,0.0093 -0.0248,0.0093 -0.0527,0.04548 -0.0269,0.03514 -0.0568,0.115755 l -0.0786,-0.02894 q 0.003,-0.02377 0.009,-0.07131 0.007,-0.04858 0.0145,-0.103353 0.008,-0.05581 0.0165,-0.103353 0.008,-0.04754 0.0145,-0.07028 h 0.83199 z m 1.11725,0.583944 q 0,0.177768 -0.0641,0.326596 -0.0641,0.147795 -0.17673,0.237712 -0.11266,0.08888 -0.25942,0.08888 -0.14676,0 -0.25528,-0.08888 -0.10749,-0.08992 -0.1664,-0.237712 -0.0589,-0.148828 -0.0589,-0.326596 0,-0.177767 0.0599,-0.326595 0.0599,-0.148829 0.17157,-0.237712 0.11265,-0.08992 0.26871,-0.08992 0.15193,0 0.25942,0.08888 0.10749,0.08785 0.16433,0.236679 0.0568,0.148828 0.0568,0.328662 z m -0.30386,0.03824 q 0,-0.283187 -0.0537,-0.417546 -0.0537,-0.135393 -0.14262,-0.135393 -0.091,0 -0.13436,0.10542 -0.0424,0.10542 -0.0424,0.364837 0,0.283187 0.0486,0.420646 0.0486,0.13746 0.14779,0.13746 0.092,0 0.13436,-0.106454 0.0424,-0.107487 0.0424,-0.36897 z"
                 id="path240"
                 style="font-weight:800;font-size:2.11667px;line-height:1;font-family:'Gentium Book Plus';-inkscape-font-specification:'Gentium Book Plus, Ultra-Bold';text-align:center;text-decoration-color:#d40000;text-anchor:middle;fill:#ffffff;stroke-width:0.196181"
                 aria-label="70" />
            <path
                 d="m 28.98491,32.203813 q 0,0.106454 -0.0651,0.196371 -0.0641,0.08992 -0.1757,0.144694 -0.11163,0.05374 -0.25115,0.05374 -0.14883,0 -0.24908,-0.04548 -0.10025,-0.04651 -0.15193,-0.120922 -0.0506,-0.07441 -0.0506,-0.159165 0,-0.115754 0.0961,-0.216006 0.0961,-0.100254 0.23978,-0.162265 l 0.12506,0.03824 q -0.0786,0.07235 -0.11989,0.143661 -0.0413,0.07028 -0.0413,0.165365 0,0.107487 0.0589,0.165364 0.0599,0.05685 0.12299,0.05685 0.0754,0 0.11885,-0.06305 0.0434,-0.06305 0.0434,-0.152962 0,-0.09095 -0.0434,-0.145728 -0.0424,-0.05581 -0.10955,-0.09198 -0.0672,-0.03617 -0.14263,-0.06615 -0.0754,-0.02997 -0.14263,-0.06718 -0.0672,-0.03824 -0.11058,-0.09819 -0.0424,-0.05994 -0.0424,-0.157098 0,-0.09612 0.0579,-0.170531 0.0579,-0.07441 0.15606,-0.116789 0.0982,-0.04341 0.21704,-0.04341 0.20981,0 0.30903,0.07751 0.0992,0.07751 0.0992,0.197403 0,0.09405 -0.0879,0.169499 -0.0868,0.07545 -0.20878,0.14366 l -0.12402,-0.04444 q 0.13332,-0.116788 0.13126,-0.236679 -0.001,-0.107487 -0.0486,-0.142627 -0.0475,-0.03617 -0.10232,-0.03617 -0.061,0 -0.0961,0.04858 -0.0341,0.04754 -0.0341,0.117823 0,0.06304 0.0444,0.104385 0.0455,0.04031 0.11575,0.07131 0.0713,0.02997 0.1509,0.06304 0.0796,0.03204 0.14986,0.07855 0.0713,0.04651 0.11576,0.118856 0.0455,0.07131 0.0455,0.181902 z m 1.11518,-0.258383 q 0,0.177768 -0.0641,0.326596 -0.0641,0.147796 -0.17674,0.237713 -0.11265,0.08888 -0.25941,0.08888 -0.14677,0 -0.25529,-0.08888 -0.10748,-0.08992 -0.1664,-0.237713 -0.0589,-0.148828 -0.0589,-0.326596 0,-0.177767 0.06,-0.326595 0.0599,-0.148829 0.17156,-0.237712 0.11266,-0.08992 0.26872,-0.08992 0.15193,0 0.25942,0.08888 0.10748,0.08785 0.16433,0.236678 0.0568,0.148829 0.0568,0.328663 z m -0.30386,0.03824 q 0,-0.283187 -0.0537,-0.417546 -0.0537,-0.135393 -0.14263,-0.135393 -0.0909,0 -0.13436,0.10542 -0.0424,0.105421 -0.0424,0.364837 0,0.283187 0.0486,0.420646 0.0486,0.13746 0.1478,0.13746 0.092,0 0.13436,-0.106454 0.0424,-0.107487 0.0424,-0.36897 z"
                 id="path241"
                 style="font-weight:800;font-size:2.11667px;line-height:1;font-family:'Gentium Book Plus';-inkscape-font-specification:'Gentium Book Plus, Ultra-Bold';text-align:center;text-decoration-color:#d40000;text-anchor:middle;fill:#ffffff;stroke-width:0.196181"
                 aria-label="80" />
            <path
                 d="m 28.9818,24.37038 q 0,0.208773 -0.0909,0.379306 -0.0899,0.170532 -0.26975,0.28112 -0.1788,0.109554 -0.44545,0.139527 l -0.0289,-0.10232 q 0.17157,-0.04237 0.27699,-0.101286 0.10645,-0.05891 0.16226,-0.133325 0.0558,-0.07545 0.0755,-0.165365 0.0207,-0.08992 0.0207,-0.19327 0,-0.157097 -0.0155,-0.253215 -0.0145,-0.09612 -0.0413,-0.145728 -0.0258,-0.05064 -0.0579,-0.06821 -0.032,-0.0186 -0.0661,-0.0186 -0.0796,0 -0.12506,0.06511 -0.0455,0.06408 -0.0455,0.187069 0,0.111621 0.0289,0.1757 0.03,0.06305 0.0693,0.08888 0.0393,0.02584 0.0682,0.02584 0.0651,0 0.11886,-0.03721 0.0537,-0.03721 0.0951,-0.09405 0.0413,-0.05788 0.0672,-0.115756 l 0.0134,0.149862 q -0.0537,0.111621 -0.1509,0.187069 -0.0971,0.07545 -0.2191,0.07545 -0.12506,0 -0.20981,-0.05478 -0.0847,-0.05581 -0.12816,-0.145728 -0.0424,-0.08992 -0.0424,-0.192237 0,-0.07855 0.0341,-0.15813 0.0351,-0.08062 0.0992,-0.147795 0.0651,-0.06718 0.15296,-0.107487 0.0889,-0.04134 0.19534,-0.04134 0.20671,0 0.3328,0.12299 0.12609,0.12299 0.12609,0.397909 z m 1.11208,0.133326 q 0,0.177767 -0.0641,0.326595 -0.0641,0.147795 -0.17673,0.237712 -0.11266,0.08888 -0.25942,0.08888 -0.14676,0 -0.25528,-0.08888 -0.10749,-0.08992 -0.1664,-0.237712 -0.0589,-0.148828 -0.0589,-0.326595 0,-0.177768 0.0599,-0.326596 0.0599,-0.148828 0.17157,-0.237712 0.11265,-0.08992 0.26872,-0.08992 0.15193,0 0.25941,0.08888 0.10749,0.08785 0.16434,0.236678 0.0568,0.148828 0.0568,0.328663 z m -0.30385,0.03824 q 0,-0.283187 -0.0537,-0.417546 -0.0537,-0.135392 -0.14263,-0.135392 -0.0909,0 -0.13436,0.10542 -0.0424,0.10542 -0.0424,0.364836 0,0.283186 0.0486,0.420647 0.0486,0.137459 0.14779,0.137459 0.092,0 0.13436,-0.106454 0.0424,-0.107487 0.0424,-0.36897 z"
                 id="path242"
                 style="font-weight:800;font-size:2.11667px;line-height:1;font-family:'Gentium Book Plus';-inkscape-font-specification:'Gentium Book Plus, Ultra-Bold';text-align:center;text-decoration-color:#d40000;text-anchor:middle;fill:#ffffff;stroke-width:0.196181"
                 aria-label="90" />
            <path
                 id="path245"
                 style="fill:#ffffff;stroke-width:0.96225"
                 d="m 21.16485,50.592405 v -0.12 h 2 v 0.12 z" />
            <path
                 id="path246"
                 style="fill:#ffffff;stroke-width:0.514276"
                 d="m 21.16485,35.722405 v -0.12 h 2 v 0.12 z" />
            <path
                 id="path247"
                 style="fill:#ffffff;stroke-width:1.36083"
                 d="m 21.16485,46.874905 v -0.12 h 4 v 0.12 z" />
            <path
                 id="path248"
                 style="fill:#ffffff;stroke-width:0.96225"
                 d="m 21.16485,43.157405 v -0.12 h 2 v 0.12 z" />
            <path
                 id="path249"
                 style="fill:#ffffff;stroke-width:1.36083"
                 d="m 21.16485,39.439905 v -0.12 h 4 v 0.12 z" />
            <path
                 id="path250"
                 style="fill:#ffffff;stroke-width:1.36083"
                 d="m 21.16485,32.004905 v -0.12 h 4 v 0.12 z" />
            <path
                 id="path251"
                 style="fill:#ffffff;stroke-width:0.96225"
                 d="m 21.16485,28.287405 v -0.12 h 2 v 0.12 z" />
            <path
                 id="path252"
                 style="fill:#ffffff;stroke-width:1.36083"
                 d="m 21.16485,24.569905 v -0.12 h 4 v 0.12 z" />
            <path
                 id="path253"
                 style="fill:#ffffff;stroke-width:0.96225"
                 d="m 21.16485,20.852405 v -0.12 h 2 v 0.12 z" />
            <path
                 id="path254"
                 style="fill:#ffffff;stroke-width:0.77144"
                 d="m 21.16485,17.134905 v -0.12 h 6 v 0.12 z" />
            <path
                 id="path315"
                 style="fill:#ffffff;stroke-width:0.96225"
                 d="m 21.16485,13.459905 v -0.12 h 2 v 0.12 z" />
        </g>
    </g>
</svg>
